ISO-10303-21;
HEADER;
FILE_DESCRIPTION (( 'STEP AP214' ),
    '1' );
FILE_NAME ('ball_joint.STEP',
    '2021-07-17T05:46:52',
    ( '' ),
    ( '' ),
    'SwSTEP 2.0',
    'SolidWorks 2020',
    '' );
FILE_SCHEMA (( 'AUTOMOTIVE_DESIGN' ));
ENDSEC;

DATA;
#1 = DIRECTION ( 'NONE',  ( -1.000000000000000000, 0.000000000000000000, 0.000000000000000000 ) ) ;
#2 = ORIENTED_EDGE ( 'NONE', *, *, #306, .F. ) ;
#3 = EDGE_CURVE ( 'NONE', #239, #131, #177, .T. ) ;
#4 = DIRECTION ( 'NONE',  ( -1.000000000000000000, 0.000000000000000000, 0.000000000000000000 ) ) ;
#5 = AXIS2_PLACEMENT_3D ( 'NONE', #98, #206, #303 ) ;
#6 = DIRECTION ( 'NONE',  ( -1.224646799147353207E-16, 1.000000000000000000, -0.000000000000000000 ) ) ;
#7 = CARTESIAN_POINT ( 'NONE',  ( -2.050000000000000711, 3.499999999999999556, 0.000000000000000000 ) ) ;
#8 = CARTESIAN_POINT ( 'NONE',  ( 1.550000000000000933, 3.500000000000000000, 1.898202538678398445E-16 ) ) ;
#9 =( LENGTH_UNIT ( ) NAMED_UNIT ( * ) SI_UNIT ( .MILLI., .METRE. ) );
#10 = CIRCLE ( 'NONE', #182, 2.049999999999998934 ) ;
#11 = CARTESIAN_POINT ( 'NONE',  ( 8.572527594031473190E-16, -3.500000000000000000, 0.000000000000000000 ) ) ;
#12 = PRODUCT_DEFINITION_FORMATION_WITH_SPECIFIED_SOURCE ( 'ANY', '', #53, .NOT_KNOWN. ) ;
#13 = CARTESIAN_POINT ( 'NONE',  ( -2.049999999999999378, 3.499999999999999556, 0.000000000000000000 ) ) ;
#14 = DIRECTION ( 'NONE',  ( -1.224646799147353207E-16, 1.000000000000000000, -0.000000000000000000 ) ) ;
#15 = CARTESIAN_POINT ( 'NONE',  ( 0.000000000000000000, 3.500000000000000000, 0.000000000000000000 ) ) ;
#16 = ADVANCED_FACE ( 'NONE', ( #48, #171 ), #142, .F. ) ;
#17 = ORIENTED_EDGE ( 'NONE', *, *, #92, .T. ) ;
#18 = CARTESIAN_POINT ( 'NONE',  ( 1.603895895828381298E-16, 2.190319611380949993, 0.000000000000000000 ) ) ;
#19 = ORIENTED_EDGE ( 'NONE', *, *, #145, .T. ) ;
#20 = CYLINDRICAL_SURFACE ( 'NONE', #292, 2.049999999999999378 ) ;
#21 = AXIS2_PLACEMENT_3D ( 'NONE', #55, #157, #179 ) ;
#22 = STYLED_ITEM ( 'NONE', ( #107 ), #261 ) ;
#23 = CARTESIAN_POINT ( 'NONE',  ( 2.324627663125880387E-32, 3.500000000000000000, 0.000000000000000000 ) ) ;
#24 = EDGE_LOOP ( 'NONE', ( #111, #65, #28, #129 ) ) ;
#25 = CIRCLE ( 'NONE', #201, 1.550000000000000044 ) ;
#26 = VERTEX_POINT ( 'NONE', #86 ) ;
#27 = DIRECTION ( 'NONE',  ( -1.224646799147353207E-16, 1.000000000000000000, -0.000000000000000000 ) ) ;
#28 = ORIENTED_EDGE ( 'NONE', *, *, #277, .T. ) ;
#29 = APPLICATION_PROTOCOL_DEFINITION ( 'draft international standard', 'automotive_design', 1998, #133 ) ;
#30 = VERTEX_POINT ( 'NONE', #148 ) ;
#31 = LINE ( 'NONE', #275, #36 ) ;
#32 = SPHERICAL_SURFACE ( 'NONE', #143, 3.000000000000000000 ) ;
#33 = DIRECTION ( 'NONE',  ( -1.224646799147353207E-16, 1.000000000000000000, -0.000000000000000000 ) ) ;
#34 = VECTOR ( 'NONE', #76, 1000.000000000000000 ) ;
#35 = CARTESIAN_POINT ( 'NONE',  ( 2.050000000000000711, 3.500000000000000444, 2.510525938252074679E-16 ) ) ;
#36 = VECTOR ( 'NONE', #51, 1000.000000000000000 ) ;
#37 = CARTESIAN_POINT ( 'NONE',  ( 0.000000000000000000, 3.500000000000000000, 0.000000000000000000 ) ) ;
#38 = EDGE_LOOP ( 'NONE', ( #134, #315 ) ) ;
#39 = DIRECTION ( 'NONE',  ( -1.000000000000000000, 0.000000000000000000, 0.000000000000000000 ) ) ;
#40 = CARTESIAN_POINT ( 'NONE',  ( 0.000000000000000000, 3.500000000000000000, 0.000000000000000000 ) ) ;
#41 = ORIENTED_EDGE ( 'NONE', *, *, #290, .F. ) ;
#42 = DIRECTION ( 'NONE',  ( -1.224646799147353207E-16, 1.000000000000000000, -0.000000000000000000 ) ) ;
#43 = SURFACE_STYLE_FILL_AREA ( #123 ) ;
#44 = ORIENTED_EDGE ( 'NONE', *, *, #254, .F. ) ;
#45 = EDGE_CURVE ( 'NONE', #221, #108, #155, .T. ) ;
#46 = ORIENTED_EDGE ( 'NONE', *, *, #227, .T. ) ;
#47 = DIRECTION ( 'NONE',  ( 0.000000000000000000, 0.000000000000000000, 1.000000000000000000 ) ) ;
#48 = FACE_BOUND ( 'NONE', #251, .T. ) ;
#49 = DIRECTION ( 'NONE',  ( -1.000000000000000000, 0.000000000000000000, 0.000000000000000000 ) ) ;
#50 = APPLICATION_PROTOCOL_DEFINITION ( 'draft international standard', 'automotive_design', 1998, #263 ) ;
#51 = DIRECTION ( 'NONE',  ( -1.224646799147353207E-16, 1.000000000000000000, -0.000000000000000000 ) ) ;
#52 = EDGE_CURVE ( 'NONE', #286, #30, #198, .T. ) ;
#53 = PRODUCT ( 'ball_joint', 'ball_joint', '', ( #314 ) ) ;
#54 = LINE ( 'NONE', #13, #267 ) ;
#55 = CARTESIAN_POINT ( 'NONE',  ( 0.000000000000000000, 0.000000000000000000, 0.000000000000000000 ) ) ;
#56 = FACE_OUTER_BOUND ( 'NONE', #220, .T. ) ;
#57 =( LENGTH_UNIT ( ) NAMED_UNIT ( * ) SI_UNIT ( .MILLI., .METRE. ) );
#58 = AXIS2_PLACEMENT_3D ( 'NONE', #103, #42, #242 ) ;
#59 = CARTESIAN_POINT ( 'NONE',  ( -1.550000000000000488, 3.500000000000000000, 0.000000000000000000 ) ) ;
#60 = ORIENTED_EDGE ( 'NONE', *, *, #306, .T. ) ;
#61 = EDGE_LOOP ( 'NONE', ( #19, #63 ) ) ;
#62 =( NAMED_UNIT ( * ) SI_UNIT ( $, .STERADIAN. ) SOLID_ANGLE_UNIT ( ) );
#63 = ORIENTED_EDGE ( 'NONE', *, *, #3, .T. ) ;
#64 = VERTEX_POINT ( 'NONE', #69 ) ;
#65 = ORIENTED_EDGE ( 'NONE', *, *, #145, .F. ) ;
#66 = PRESENTATION_LAYER_ASSIGNMENT (  '', '', ( #282 ) ) ;
#67 = VERTEX_POINT ( 'NONE', #116 ) ;
#68 = ORIENTED_EDGE ( 'NONE', *, *, #254, .T. ) ;
#69 = CARTESIAN_POINT ( 'NONE',  ( 2.050000000000000711, -3.499999999999999556, 2.510525938252073693E-16 ) ) ;
#70 = MECHANICAL_DESIGN_GEOMETRIC_PRESENTATION_REPRESENTATION (  '', ( #282 ), #202 ) ;
#71 = CARTESIAN_POINT ( 'NONE',  ( 1.550000000000000711, -3.500000000000000000, 0.000000000000000000 ) ) ;
#72 = DIRECTION ( 'NONE',  ( -1.224646799147353207E-16, 1.000000000000000000, -0.000000000000000000 ) ) ;
#73 = CARTESIAN_POINT ( 'NONE',  ( 2.049999999999999378, 3.500000000000000444, 2.510525938252073200E-16 ) ) ;
#74 = AXIS2_PLACEMENT_3D ( 'NONE', #15, #72, #49 ) ;
#75 = FACE_OUTER_BOUND ( 'NONE', #82, .T. ) ;
#76 = DIRECTION ( 'NONE',  ( -1.224646799147353207E-16, 1.000000000000000000, -0.000000000000000000 ) ) ;
#77 = VERTEX_POINT ( 'NONE', #146 ) ;
#78 = DIRECTION ( 'NONE',  ( -1.000000000000000000, -2.115516434118058448E-16, 0.000000000000000000 ) ) ;
#79 = AXIS2_PLACEMENT_3D ( 'NONE', #310, #81, #78 ) ;
#80 = ADVANCED_FACE ( 'NONE', ( #91 ), #87, .F. ) ;
#81 = DIRECTION ( 'NONE',  ( -1.224646799147353207E-16, 1.000000000000000000, -0.000000000000000000 ) ) ;
#82 = EDGE_LOOP ( 'NONE', ( #60, #313, #169, #235 ) ) ;
#83 = SURFACE_STYLE_USAGE ( .BOTH. , #184 ) ;
#84 = EDGE_LOOP ( 'NONE', ( #112, #68 ) ) ;
#85 = DIRECTION ( 'NONE',  ( 1.224646799147353207E-16, -1.000000000000000000, 0.000000000000000000 ) ) ;
#86 = CARTESIAN_POINT ( 'NONE',  ( 2.049999999999999822, -2.190319611380950882, 2.510525938252073200E-16 ) ) ;
#87 = CYLINDRICAL_SURFACE ( 'NONE', #176, 1.550000000000000488 ) ;
#88 = AXIS2_PLACEMENT_3D ( 'NONE', #100, #231, #207 ) ;
#89 = AXIS2_PLACEMENT_3D ( 'NONE', #18, #284, #165 ) ;
#90 = CARTESIAN_POINT ( 'NONE',  ( 8.572527594031473190E-16, -3.500000000000000000, 0.000000000000000000 ) ) ;
#91 = FACE_OUTER_BOUND ( 'NONE', #24, .T. ) ;
#92 = EDGE_CURVE ( 'NONE', #26, #67, #10, .T. ) ;
#93 = CARTESIAN_POINT ( 'NONE',  ( -1.549999999999999156, -3.500000000000000000, 0.000000000000000000 ) ) ;
#94 =( GEOMETRIC_REPRESENTATION_CONTEXT ( 3 ) GLOBAL_UNCERTAINTY_ASSIGNED_CONTEXT ( ( #115 ) ) GLOBAL_UNIT_ASSIGNED_CONTEXT ( ( #135, #241, #281 ) ) REPRESENTATION_CONTEXT ( 'NONE', 'WORKASPACE' ) );
#95 = FACE_OUTER_BOUND ( 'NONE', #173, .T. ) ;
#96 = DIRECTION ( 'NONE',  ( -1.224646799147353207E-16, 1.000000000000000000, -0.000000000000000000 ) ) ;
#97 = EDGE_CURVE ( 'NONE', #77, #262, #294, .T. ) ;
#98 = CARTESIAN_POINT ( 'NONE',  ( 0.000000000000000000, 0.000000000000000000, 0.000000000000000000 ) ) ;
#99 = CIRCLE ( 'NONE', #5, 3.000000000000000000 ) ;
#100 = CARTESIAN_POINT ( 'NONE',  ( 0.000000000000000000, 3.500000000000000000, 0.000000000000000000 ) ) ;
#101 = DIRECTION ( 'NONE',  ( -1.000000000000000000, -2.115516434118057955E-16, 0.000000000000000000 ) ) ;
#102 = ORIENTED_EDGE ( 'NONE', *, *, #159, .T. ) ;
#103 = CARTESIAN_POINT ( 'NONE',  ( 3.074507554456808643E-32, 3.499999999999999556, 0.000000000000000000 ) ) ;
#104 = ADVANCED_FACE ( 'NONE', ( #233 ), #255, .F. ) ;
#105 = CYLINDRICAL_SURFACE ( 'NONE', #125, 2.049999999999999378 ) ;
#106 = CIRCLE ( 'NONE', #170, 2.050000000000001155 ) ;
#107 = PRESENTATION_STYLE_ASSIGNMENT (( #83 ) ) ;
#108 = VERTEX_POINT ( 'NONE', #8 ) ;
#109 = PRODUCT_RELATED_PRODUCT_CATEGORY ( 'part', '', ( #53 ) ) ;
#110 =( NAMED_UNIT ( * ) PLANE_ANGLE_UNIT ( ) SI_UNIT ( $, .RADIAN. ) );
#111 = ORIENTED_EDGE ( 'NONE', *, *, #159, .F. ) ;
#112 = ORIENTED_EDGE ( 'NONE', *, *, #204, .T. ) ;
#113 = MECHANICAL_DESIGN_GEOMETRIC_PRESENTATION_REPRESENTATION (  '', ( #22 ), #268 ) ;
#114 = ORIENTED_EDGE ( 'NONE', *, *, #52, .T. ) ;
#115 = UNCERTAINTY_MEASURE_WITH_UNIT (LENGTH_MEASURE( 1.000000000000000082E-05 ), #135, 'distance_accuracy_value', 'NONE');
#116 = CARTESIAN_POINT ( 'NONE',  ( -2.049999999999998046, -2.190319611380951326, 0.000000000000000000 ) ) ;
#117 = EDGE_LOOP ( 'NONE', ( #247, #208, #272, #288 ) ) ;
#118 = CLOSED_SHELL ( 'NONE', ( #153, #311, #104, #244, #185, #16, #80, #168, #259, #139 ) ) ;
#119 = ORIENTED_EDGE ( 'NONE', *, *, #248, .T. ) ;
#120 = SHAPE_DEFINITION_REPRESENTATION ( #302, #164 ) ;
#121 = DIRECTION ( 'NONE',  ( -1.000000000000000000, -2.115516434118057709E-16, 0.000000000000000000 ) ) ;
#122 = PLANE ( 'NONE',  #218 ) ;
#123 = FILL_AREA_STYLE ('',( #298 ) ) ;
#124 = CIRCLE ( 'NONE', #149, 2.049999999999999822 ) ;
#125 = AXIS2_PLACEMENT_3D ( 'NONE', #40, #234, #101 ) ;
#126 = DIRECTION ( 'NONE',  ( -1.224646799147353207E-16, 1.000000000000000000, -0.000000000000000000 ) ) ;
#127 = DIRECTION ( 'NONE',  ( -1.000000000000000000, 0.000000000000000000, 0.000000000000000000 ) ) ;
#128 = FACE_OUTER_BOUND ( 'NONE', #38, .T. ) ;
#129 = ORIENTED_EDGE ( 'NONE', *, *, #45, .T. ) ;
#130 = FACE_OUTER_BOUND ( 'NONE', #117, .T. ) ;
#131 = VERTEX_POINT ( 'NONE', #93 ) ;
#132 = LINE ( 'NONE', #59, #34 ) ;
#133 = APPLICATION_CONTEXT ( 'automotive_design' ) ;
#134 = ORIENTED_EDGE ( 'NONE', *, *, #210, .F. ) ;
#135 =( LENGTH_UNIT ( ) NAMED_UNIT ( * ) SI_UNIT ( .MILLI., .METRE. ) );
#136 = AXIS2_PLACEMENT_3D ( 'NONE', #154, #14, #178 ) ;
#137 = ORIENTED_EDGE ( 'NONE', *, *, #217, .T. ) ;
#138 = PRESENTATION_LAYER_ASSIGNMENT (  '', '', ( #22 ) ) ;
#139 = ADVANCED_FACE ( 'NONE', ( #56 ), #32, .T. ) ;
#140 = DIRECTION ( 'NONE',  ( 1.000000000000000000, 0.000000000000000000, 0.000000000000000000 ) ) ;
#141 = ORIENTED_EDGE ( 'NONE', *, *, #97, .F. ) ;
#142 = PLANE ( 'NONE',  #316 ) ;
#143 = AXIS2_PLACEMENT_3D ( 'NONE', #200, #305, #299 ) ;
#144 = CIRCLE ( 'NONE', #212, 3.000000000000000000 ) ;
#145 = EDGE_CURVE ( 'NONE', #131, #239, #25, .T. ) ;
#146 = CARTESIAN_POINT ( 'NONE',  ( 2.050000000000001155, 2.190319611380950438, 2.510525938252075172E-16 ) ) ;
#147 = ORIENTED_EDGE ( 'NONE', *, *, #232, .F. ) ;
#148 = CARTESIAN_POINT ( 'NONE',  ( -2.050000000000000711, 3.499999999999999112, 0.000000000000000000 ) ) ;
#149 = AXIS2_PLACEMENT_3D ( 'NONE', #280, #33, #158 ) ;
#150 = DIRECTION ( 'NONE',  ( -1.000000000000000000, -2.115516434118056230E-16, 0.000000000000000000 ) ) ;
#151 =( NAMED_UNIT ( * ) PLANE_ANGLE_UNIT ( ) SI_UNIT ( $, .RADIAN. ) );
#152 = FACE_BOUND ( 'NONE', #61, .T. ) ;
#153 = ADVANCED_FACE ( 'NONE', ( #203 ), #296, .T. ) ;
#154 = CARTESIAN_POINT ( 'NONE',  ( 3.074507554456808643E-32, 3.499999999999999556, 0.000000000000000000 ) ) ;
#155 = CIRCLE ( 'NONE', #224, 1.550000000000000711 ) ;
#156 = COLOUR_RGB ( '',0.6470588235294117974, 0.5176470588235293491, 0.000000000000000000 ) ;
#157 = DIRECTION ( 'NONE',  ( 0.000000000000000000, 0.000000000000000000, -1.000000000000000000 ) ) ;
#158 = DIRECTION ( 'NONE',  ( -1.000000000000000000, -2.115516434118057709E-16, 0.000000000000000000 ) ) ;
#159 = EDGE_CURVE ( 'NONE', #239, #108, #31, .T. ) ;
#160 = FILL_AREA_STYLE_COLOUR ( '', #156 ) ;
#161 = ORIENTED_EDGE ( 'NONE', *, *, #300, .T. ) ;
#162 = DIRECTION ( 'NONE',  ( -1.224646799147353207E-16, 1.000000000000000000, -0.000000000000000000 ) ) ;
#163 = ORIENTED_EDGE ( 'NONE', *, *, #300, .F. ) ;
#164 = ADVANCED_BREP_SHAPE_REPRESENTATION ( 'ball_joint', ( #261, #183 ), #94 ) ;
#165 = DIRECTION ( 'NONE',  ( -1.000000000000000000, -2.115516434118056230E-16, 0.000000000000000000 ) ) ;
#166 = DIRECTION ( 'NONE',  ( -1.224646799147353207E-16, 1.000000000000000000, -0.000000000000000000 ) ) ;
#167 = EDGE_LOOP ( 'NONE', ( #243, #46, #245, #237 ) ) ;
#168 = ADVANCED_FACE ( 'NONE', ( #128, #152 ), #122, .F. ) ;
#169 = ORIENTED_EDGE ( 'NONE', *, *, #204, .F. ) ;
#170 = AXIS2_PLACEMENT_3D ( 'NONE', #278, #96, #150 ) ;
#171 = FACE_OUTER_BOUND ( 'NONE', #84, .T. ) ;
#172 = EDGE_CURVE ( 'NONE', #64, #223, #279, .T. ) ;
#173 = EDGE_LOOP ( 'NONE', ( #141, #137, #114, #44 ) ) ;
#174 = SURFACE_SIDE_STYLE ('',( #43 ) ) ;
#175 = CARTESIAN_POINT ( 'NONE',  ( 8.572527594031473190E-16, -3.500000000000000000, 0.000000000000000000 ) ) ;
#176 = AXIS2_PLACEMENT_3D ( 'NONE', #222, #6, #1 ) ;
#177 = CIRCLE ( 'NONE', #291, 1.550000000000000044 ) ;
#178 = DIRECTION ( 'NONE',  ( -1.000000000000000000, -2.115516434118056723E-16, 0.000000000000000000 ) ) ;
#179 = DIRECTION ( 'NONE',  ( 1.000000000000000000, 1.224646799147353207E-16, 0.000000000000000000 ) ) ;
#180 = DIRECTION ( 'NONE',  ( -1.000000000000000000, -1.224646799147353207E-16, 0.000000000000000000 ) ) ;
#181 = ORIENTED_EDGE ( 'NONE', *, *, #232, .T. ) ;
#182 = AXIS2_PLACEMENT_3D ( 'NONE', #194, #293, #199 ) ;
#183 = AXIS2_PLACEMENT_3D ( 'NONE', #271, #47, #140 ) ;
#184 = SURFACE_SIDE_STYLE ('',( #265 ) ) ;
#185 = ADVANCED_FACE ( 'NONE', ( #95 ), #276, .T. ) ;
#186 = CARTESIAN_POINT ( 'NONE',  ( 2.050000000000000711, 3.500000000000000000, 2.510525938252074679E-16 ) ) ;
#187 = DIRECTION ( 'NONE',  ( -1.000000000000000000, -2.115516434118057955E-16, 0.000000000000000000 ) ) ;
#188 = ORIENTED_EDGE ( 'NONE', *, *, #217, .F. ) ;
#189 = CIRCLE ( 'NONE', #79, 2.049999999999998934 ) ;
#190 = UNCERTAINTY_MEASURE_WITH_UNIT (LENGTH_MEASURE( 1.000000000000000082E-05 ), #57, 'distance_accuracy_value', 'NONE');
#191 = DIRECTION ( 'NONE',  ( -1.224646799147353207E-16, 1.000000000000000000, -0.000000000000000000 ) ) ;
#192 = PRODUCT_DEFINITION ( 'UNKNOWN', '', #12, #213 ) ;
#193 = DIRECTION ( 'NONE',  ( -1.000000000000000000, 0.000000000000000000, 0.000000000000000000 ) ) ;
#194 = CARTESIAN_POINT ( 'NONE',  ( 6.968631698203092878E-16, -2.190319611380951326, 0.000000000000000000 ) ) ;
#195 = VECTOR ( 'NONE', #258, 1000.000000000000000 ) ;
#196 = AXIS2_PLACEMENT_3D ( 'NONE', #23, #166, #39 ) ;
#197 = EDGE_CURVE ( 'NONE', #223, #67, #54, .T. ) ;
#198 = LINE ( 'NONE', #7, #304 ) ;
#199 = DIRECTION ( 'NONE',  ( -1.000000000000000000, -2.115516434118058448E-16, 0.000000000000000000 ) ) ;
#200 = CARTESIAN_POINT ( 'NONE',  ( 0.000000000000000000, 0.000000000000000000, 0.000000000000000000 ) ) ;
#201 = AXIS2_PLACEMENT_3D ( 'NONE', #175, #228, #127 ) ;
#202 =( GEOMETRIC_REPRESENTATION_CONTEXT ( 3 ) GLOBAL_UNCERTAINTY_ASSIGNED_CONTEXT ( ( #249 ) ) GLOBAL_UNIT_ASSIGNED_CONTEXT ( ( #9, #151, #62 ) ) REPRESENTATION_CONTEXT ( 'NONE', 'WORKASPACE' ) );
#203 = FACE_OUTER_BOUND ( 'NONE', #289, .T. ) ;
#204 = EDGE_CURVE ( 'NONE', #30, #262, #211, .T. ) ;
#205 = DIRECTION ( 'NONE',  ( -1.224646799147353207E-16, 1.000000000000000000, 0.000000000000000000 ) ) ;
#206 = DIRECTION ( 'NONE',  ( 0.000000000000000000, 0.000000000000000000, 1.000000000000000000 ) ) ;
#207 = DIRECTION ( 'NONE',  ( -1.000000000000000000, -2.115516434118056723E-16, 0.000000000000000000 ) ) ;
#208 = ORIENTED_EDGE ( 'NONE', *, *, #172, .T. ) ;
#209 = DIRECTION ( 'NONE',  ( -1.000000000000000000, 0.000000000000000000, -1.224646799147353207E-16 ) ) ;
#210 = EDGE_CURVE ( 'NONE', #223, #64, #124, .T. ) ;
#211 = CIRCLE ( 'NONE', #136, 2.050000000000000711 ) ;
#212 = AXIS2_PLACEMENT_3D ( 'NONE', #312, #285, #209 ) ;
#213 = PRODUCT_DEFINITION_CONTEXT ( 'detailed design', #263, 'design' ) ;
#214 = CARTESIAN_POINT ( 'NONE',  ( -2.050000000000001155, 2.190319611380949549, 0.000000000000000000 ) ) ;
#215 = ORIENTED_EDGE ( 'NONE', *, *, #290, .T. ) ;
#216 =( NAMED_UNIT ( * ) SI_UNIT ( $, .STERADIAN. ) SOLID_ANGLE_UNIT ( ) );
#217 = EDGE_CURVE ( 'NONE', #77, #286, #106, .T. ) ;
#218 = AXIS2_PLACEMENT_3D ( 'NONE', #71, #205, #180 ) ;
#219 = COLOUR_RGB ( '',0.6470588235294117974, 0.5176470588235293491, 0.000000000000000000 ) ;
#220 = EDGE_LOOP ( 'NONE', ( #163, #119, #181, #2 ) ) ;
#221 = VERTEX_POINT ( 'NONE', #260 ) ;
#222 = CARTESIAN_POINT ( 'NONE',  ( 0.000000000000000000, 3.500000000000000000, 0.000000000000000000 ) ) ;
#223 = VERTEX_POINT ( 'NONE', #301 ) ;
#224 = AXIS2_PLACEMENT_3D ( 'NONE', #225, #27, #193 ) ;
#225 = CARTESIAN_POINT ( 'NONE',  ( 2.324627663125880387E-32, 3.500000000000000000, 0.000000000000000000 ) ) ;
#226 = LINE ( 'NONE', #73, #195 ) ;
#227 = EDGE_CURVE ( 'NONE', #64, #26, #226, .T. ) ;
#228 = DIRECTION ( 'NONE',  ( -1.224646799147353207E-16, 1.000000000000000000, -0.000000000000000000 ) ) ;
#229 = CIRCLE ( 'NONE', #196, 1.550000000000000711 ) ;
#230 = DIRECTION ( 'NONE',  ( -1.224646799147353207E-16, 1.000000000000000000, -0.000000000000000000 ) ) ;
#231 = DIRECTION ( 'NONE',  ( -1.224646799147353207E-16, 1.000000000000000000, -0.000000000000000000 ) ) ;
#232 = EDGE_CURVE ( 'NONE', #26, #77, #99, .T. ) ;
#233 = FACE_OUTER_BOUND ( 'NONE', #287, .T. ) ;
#234 = DIRECTION ( 'NONE',  ( -1.224646799147353207E-16, 1.000000000000000000, -0.000000000000000000 ) ) ;
#235 = ORIENTED_EDGE ( 'NONE', *, *, #52, .F. ) ;
#236 = CARTESIAN_POINT ( 'NONE',  ( 0.000000000000000000, 3.500000000000000000, 0.000000000000000000 ) ) ;
#237 = ORIENTED_EDGE ( 'NONE', *, *, #197, .F. ) ;
#238 = FACE_OUTER_BOUND ( 'NONE', #167, .T. ) ;
#239 = VERTEX_POINT ( 'NONE', #274 ) ;
#240 = AXIS2_PLACEMENT_3D ( 'NONE', #37, #162, #264 ) ;
#241 =( NAMED_UNIT ( * ) PLANE_ANGLE_UNIT ( ) SI_UNIT ( $, .RADIAN. ) );
#242 = DIRECTION ( 'NONE',  ( -1.000000000000000000, -2.115516434118056723E-16, 0.000000000000000000 ) ) ;
#243 = ORIENTED_EDGE ( 'NONE', *, *, #210, .T. ) ;
#244 = ADVANCED_FACE ( 'NONE', ( #75 ), #253, .T. ) ;
#245 = ORIENTED_EDGE ( 'NONE', *, *, #248, .F. ) ;
#246 = AXIS2_PLACEMENT_3D ( 'NONE', #11, #126, #121 ) ;
#247 = ORIENTED_EDGE ( 'NONE', *, *, #227, .F. ) ;
#248 = EDGE_CURVE ( 'NONE', #67, #26, #189, .T. ) ;
#249 = UNCERTAINTY_MEASURE_WITH_UNIT (LENGTH_MEASURE( 1.000000000000000082E-05 ), #9, 'distance_accuracy_value', 'NONE');
#250 = ORIENTED_EDGE ( 'NONE', *, *, #3, .F. ) ;
#251 = EDGE_LOOP ( 'NONE', ( #307, #41 ) ) ;
#252 = ORIENTED_EDGE ( 'NONE', *, *, #277, .F. ) ;
#253 = CYLINDRICAL_SURFACE ( 'NONE', #240, 2.050000000000000711 ) ;
#254 = EDGE_CURVE ( 'NONE', #262, #30, #297, .T. ) ;
#255 = CYLINDRICAL_SURFACE ( 'NONE', #74, 1.550000000000000488 ) ;
#256 = SURFACE_STYLE_USAGE ( .BOTH. , #174 ) ;
#257 = DIRECTION ( 'NONE',  ( -1.224646799147353207E-16, 1.000000000000000000, -0.000000000000000000 ) ) ;
#258 = DIRECTION ( 'NONE',  ( -1.224646799147353207E-16, 1.000000000000000000, -0.000000000000000000 ) ) ;
#259 = ADVANCED_FACE ( 'NONE', ( #130 ), #20, .T. ) ;
#260 = CARTESIAN_POINT ( 'NONE',  ( -1.550000000000000711, 3.500000000000000000, 0.000000000000000000 ) ) ;
#261 = MANIFOLD_SOLID_BREP ( 'Revolve1', #118 ) ;
#262 = VERTEX_POINT ( 'NONE', #186 ) ;
#263 = APPLICATION_CONTEXT ( 'automotive_design' ) ;
#264 = DIRECTION ( 'NONE',  ( -1.000000000000000000, -2.115516434118056723E-16, 0.000000000000000000 ) ) ;
#265 = SURFACE_STYLE_FILL_AREA ( #283 ) ;
#266 = DIRECTION ( 'NONE',  ( 1.000000000000000000, 1.224646799147353207E-16, 0.000000000000000000 ) ) ;
#267 = VECTOR ( 'NONE', #230, 1000.000000000000000 ) ;
#268 =( GEOMETRIC_REPRESENTATION_CONTEXT ( 3 ) GLOBAL_UNCERTAINTY_ASSIGNED_CONTEXT ( ( #190 ) ) GLOBAL_UNIT_ASSIGNED_CONTEXT ( ( #57, #110, #216 ) ) REPRESENTATION_CONTEXT ( 'NONE', 'WORKASPACE' ) );
#269 = DIRECTION ( 'NONE',  ( -1.224646799147353207E-16, 1.000000000000000000, -0.000000000000000000 ) ) ;
#270 = CARTESIAN_POINT ( 'NONE',  ( 1.550000000000000711, 3.500000000000000000, 0.000000000000000000 ) ) ;
#271 = CARTESIAN_POINT ( 'NONE',  ( 0.000000000000000000, 0.000000000000000000, 0.000000000000000000 ) ) ;
#272 = ORIENTED_EDGE ( 'NONE', *, *, #197, .T. ) ;
#273 = PRESENTATION_STYLE_ASSIGNMENT (( #256 ) ) ;
#274 = CARTESIAN_POINT ( 'NONE',  ( 1.550000000000000933, -3.500000000000000000, 1.898202538678398445E-16 ) ) ;
#275 = CARTESIAN_POINT ( 'NONE',  ( 1.550000000000000488, 3.500000000000000000, 1.898202538678397952E-16 ) ) ;
#276 = CYLINDRICAL_SURFACE ( 'NONE', #88, 2.050000000000000711 ) ;
#277 = EDGE_CURVE ( 'NONE', #131, #221, #132, .T. ) ;
#278 = CARTESIAN_POINT ( 'NONE',  ( 1.603895895828381298E-16, 2.190319611380949993, 0.000000000000000000 ) ) ;
#279 = CIRCLE ( 'NONE', #246, 2.049999999999999822 ) ;
#280 = CARTESIAN_POINT ( 'NONE',  ( 8.572527594031473190E-16, -3.500000000000000000, 0.000000000000000000 ) ) ;
#281 =( NAMED_UNIT ( * ) SI_UNIT ( $, .STERADIAN. ) SOLID_ANGLE_UNIT ( ) );
#282 = STYLED_ITEM ( 'NONE', ( #273 ), #164 ) ;
#283 = FILL_AREA_STYLE ('',( #160 ) ) ;
#284 = DIRECTION ( 'NONE',  ( -1.224646799147353207E-16, 1.000000000000000000, -0.000000000000000000 ) ) ;
#285 = DIRECTION ( 'NONE',  ( 1.224646799147353207E-16, 1.499759782661857608E-32, -1.000000000000000000 ) ) ;
#286 = VERTEX_POINT ( 'NONE', #214 ) ;
#287 = EDGE_LOOP ( 'NONE', ( #250, #102, #215, #252 ) ) ;
#288 = ORIENTED_EDGE ( 'NONE', *, *, #92, .F. ) ;
#289 = EDGE_LOOP ( 'NONE', ( #17, #161, #188, #147 ) ) ;
#290 = EDGE_CURVE ( 'NONE', #108, #221, #229, .T. ) ;
#291 = AXIS2_PLACEMENT_3D ( 'NONE', #90, #191, #4 ) ;
#292 = AXIS2_PLACEMENT_3D ( 'NONE', #236, #308, #187 ) ;
#293 = DIRECTION ( 'NONE',  ( -1.224646799147353207E-16, 1.000000000000000000, -0.000000000000000000 ) ) ;
#294 = LINE ( 'NONE', #35, #295 ) ;
#295 = VECTOR ( 'NONE', #257, 1000.000000000000000 ) ;
#296 = SPHERICAL_SURFACE ( 'NONE', #21, 3.000000000000000000 ) ;
#297 = CIRCLE ( 'NONE', #58, 2.050000000000000711 ) ;
#298 = FILL_AREA_STYLE_COLOUR ( '', #219 ) ;
#299 = DIRECTION ( 'NONE',  ( 1.000000000000000000, 1.224646799147353207E-16, 0.000000000000000000 ) ) ;
#300 = EDGE_CURVE ( 'NONE', #67, #286, #144, .T. ) ;
#301 = CARTESIAN_POINT ( 'NONE',  ( -2.049999999999998934, -3.500000000000000444, 0.000000000000000000 ) ) ;
#302 = PRODUCT_DEFINITION_SHAPE ( 'NONE', 'NONE',  #192 ) ;
#303 = DIRECTION ( 'NONE',  ( 1.000000000000000000, 0.000000000000000000, 0.000000000000000000 ) ) ;
#304 = VECTOR ( 'NONE', #269, 1000.000000000000000 ) ;
#305 = DIRECTION ( 'NONE',  ( 0.000000000000000000, 0.000000000000000000, -1.000000000000000000 ) ) ;
#306 = EDGE_CURVE ( 'NONE', #286, #77, #309, .T. ) ;
#307 = ORIENTED_EDGE ( 'NONE', *, *, #45, .F. ) ;
#308 = DIRECTION ( 'NONE',  ( -1.224646799147353207E-16, 1.000000000000000000, -0.000000000000000000 ) ) ;
#309 = CIRCLE ( 'NONE', #89, 2.050000000000001155 ) ;
#310 = CARTESIAN_POINT ( 'NONE',  ( 6.968631698203092878E-16, -2.190319611380951326, 0.000000000000000000 ) ) ;
#311 = ADVANCED_FACE ( 'NONE', ( #238 ), #105, .T. ) ;
#312 = CARTESIAN_POINT ( 'NONE',  ( 0.000000000000000000, 0.000000000000000000, 0.000000000000000000 ) ) ;
#313 = ORIENTED_EDGE ( 'NONE', *, *, #97, .T. ) ;
#314 = PRODUCT_CONTEXT ( 'NONE', #133, 'mechanical' ) ;
#315 = ORIENTED_EDGE ( 'NONE', *, *, #172, .F. ) ;
#316 = AXIS2_PLACEMENT_3D ( 'NONE', #270, #85, #266 ) ;
ENDSEC;
END-ISO-10303-21;
