%TF.GenerationSoftware,KiCad,Pcbnew,10.0.5*%
%TF.CreationDate,2026-08-24T21:40:42-04:00*%
%TF.ProjectId,Brand-X,4272616e-642d-4582-9e6b-696361645f70,rev?*%
%TF.SameCoordinates,Original*%
%TF.FileFunction,Copper,L4,Bot*%
%TF.FilePolarity,Positive*%
%FSLAX46Y46*%
G04 Gerber Fmt 4.6, Leading zero omitted, Abs format (unit mm)*
G04 Created by KiCad (PCBNEW 10.0.5) date 2026-08-24 21:40:42*
%MOMM*%
%LPD*%
G01*
G04 APERTURE LIST*
G04 Aperture macros list*
%AMRoundRect*
0 Rectangle with rounded corners*
0 $1 Rounding radius*
0 $2 $3 $4 $5 $6 $7 $8 $9 X,Y pos of 4 corners*
0 Add a 4 corners polygon primitive as box body*
4,1,4,$2,$3,$4,$5,$6,$7,$8,$9,$2,$3,0*
0 Add four circle primitives for the rounded corners*
1,1,$1+$1,$2,$3*
1,1,$1+$1,$4,$5*
1,1,$1+$1,$6,$7*
1,1,$1+$1,$8,$9*
0 Add four rect primitives between the rounded corners*
20,1,$1+$1,$2,$3,$4,$5,0*
20,1,$1+$1,$4,$5,$6,$7,0*
20,1,$1+$1,$6,$7,$8,$9,0*
20,1,$1+$1,$8,$9,$2,$3,0*%
G04 Aperture macros list end*
%TA.AperFunction,ComponentPad*%
%ADD10R,1.600000X1.600000*%
%TD*%
%TA.AperFunction,ComponentPad*%
%ADD11C,1.600000*%
%TD*%
%TA.AperFunction,ComponentPad*%
%ADD12C,2.000000*%
%TD*%
%TA.AperFunction,ComponentPad*%
%ADD13RoundRect,0.250001X-0.949999X-0.949999X0.949999X-0.949999X0.949999X0.949999X-0.949999X0.949999X0*%
%TD*%
%TA.AperFunction,ComponentPad*%
%ADD14C,2.400000*%
%TD*%
%TA.AperFunction,ComponentPad*%
%ADD15RoundRect,0.250001X0.949999X0.949999X-0.949999X0.949999X-0.949999X-0.949999X0.949999X-0.949999X0*%
%TD*%
%TA.AperFunction,ComponentPad*%
%ADD16C,0.600000*%
%TD*%
%TA.AperFunction,ComponentPad*%
%ADD17O,0.800000X1.400000*%
%TD*%
%TA.AperFunction,SMDPad,CuDef*%
%ADD18C,1.000000*%
%TD*%
%TA.AperFunction,ViaPad*%
%ADD19C,0.600000*%
%TD*%
%TA.AperFunction,Conductor*%
%ADD20C,0.127000*%
%TD*%
%TA.AperFunction,Conductor*%
%ADD21C,0.762000*%
%TD*%
%TA.AperFunction,Conductor*%
%ADD22C,0.254000*%
%TD*%
G04 APERTURE END LIST*
D10*
%TO.P,LS1,1,1_1*%
%TO.N,/Speaker*%
X74262000Y-81261000D03*
D11*
%TO.P,LS1,2,2_2*%
%TO.N,GND*%
X70262000Y-81261000D03*
%TD*%
D12*
%TO.P,TP3,1,1_1*%
%TO.N,/TX*%
X79462000Y-79661000D03*
%TD*%
D13*
%TO.P,J2,1,Pin_1_1*%
%TO.N,/MP_D*%
X114033000Y-81561000D03*
D14*
%TO.P,J2,2,Pin_2_2*%
%TO.N,GND*%
X117533000Y-81561000D03*
%TO.P,J2,3,Pin_3_3*%
%TO.N,/DP_D*%
X121033000Y-81561000D03*
%TO.P,J2,4,Pin_4_4*%
%TO.N,GND*%
X124533000Y-81561000D03*
%TD*%
D15*
%TO.P,J5,1,Pin_1_1*%
%TO.N,VMOS*%
X124512000Y-65433000D03*
D14*
%TO.P,J5,2,Pin_2_2*%
%TO.N,+BATT*%
X121012000Y-65433000D03*
%TO.P,J5,3,Pin_3_3*%
%TO.N,GND*%
X117512001Y-65433000D03*
%TO.P,J5,4,Pin_4_4*%
%TO.N,+BATT*%
X114012000Y-65433000D03*
%TD*%
D16*
%TO.P,J6,B1,GND_B_B1*%
%TO.N,GND*%
X72554400Y-67648600D03*
%TO.P,J6,B2,SSTXP2_B2*%
%TO.N,unconnected-(J6-SSTXP2-PadB2)*%
X72954400Y-66948600D03*
%TO.P,J6,B3,SSTXN2_B3*%
%TO.N,unconnected-(J6-SSTXN2-PadB3)*%
X73754400Y-66948600D03*
%TO.P,J6,B4,VBUS_B_B4*%
%TO.N,VBUS*%
X74154400Y-67648600D03*
%TO.P,J6,B5,CC2_B5*%
%TO.N,Net-(J6-CC2)*%
X74554400Y-66948600D03*
%TO.P,J6,B6,DP2_B6*%
%TO.N,/USB_D+*%
X74954400Y-67648600D03*
%TO.P,J6,B7,DN2_B7*%
%TO.N,/USB_D-*%
X75754400Y-67648600D03*
%TO.P,J6,B8,SBU2_B8*%
%TO.N,unconnected-(J6-SBU2-PadB8)*%
X76154400Y-66948600D03*
%TO.P,J6,B9,VBUS_B__1_B9*%
%TO.N,VBUS*%
X76554400Y-67648600D03*
%TO.P,J6,B10,SSRXN1_B10*%
%TO.N,unconnected-(J6-SSRXN1-PadB10)*%
X76954400Y-66948600D03*
%TO.P,J6,B11,SSRXP1_B11*%
%TO.N,unconnected-(J6-SSRXP1-PadB11)*%
X77754400Y-66948600D03*
%TO.P,J6,B12,GND_B__1_B12*%
%TO.N,GND*%
X78154400Y-67648600D03*
D17*
%TO.P,J6,S1,SHELL_GND_S1*%
X79484400Y-67058600D03*
%TO.P,J6,S2,SHELL_GND__1_S2*%
X71224400Y-67058600D03*
%TO.P,J6,S3,SHELL_GND__2_S3*%
X79844400Y-62658600D03*
%TO.P,J6,S4,SHELL_GND__3_S4*%
X70864400Y-62658600D03*
%TD*%
D12*
%TO.P,TP4,1,1_1*%
%TO.N,/RX*%
X79462000Y-82861000D03*
%TD*%
D18*
%TO.P,TP2,1,1_1*%
%TO.N,GND*%
X96980000Y-84991000D03*
%TD*%
%TO.P,TP1,1,1_1*%
%TO.N,/QSPI_SS*%
X94948000Y-84991000D03*
%TD*%
D19*
%TO.N,GND*%
X102512000Y-74311000D03*
X98512000Y-83061000D03*
X96262000Y-63561000D03*
X100762000Y-80561000D03*
X103262000Y-64061000D03*
X95012000Y-68392000D03*
X129762000Y-84311000D03*
X108012000Y-77811000D03*
X90762000Y-76311000D03*
X104762000Y-66961000D03*
X104262000Y-74061000D03*
X101512000Y-68811000D03*
X88762000Y-79811000D03*
X108762000Y-71061000D03*
X117012000Y-71311000D03*
X99887694Y-62958787D03*
X70388002Y-72033633D03*
X125762000Y-70561000D03*
X98562000Y-84761000D03*
X103762000Y-71561000D03*
X127012000Y-65811000D03*
X89262000Y-71061000D03*
X86262000Y-62061000D03*
X77262000Y-72811000D03*
X98762000Y-79061000D03*
X86012000Y-85061000D03*
X92262000Y-78561000D03*
X109262000Y-83311000D03*
X99262000Y-72561000D03*
X69262000Y-84561000D03*
%TO.N,+3V3*%
X103012000Y-77811000D03*
X110262000Y-77811000D03*
X106262000Y-77561000D03*
X125012000Y-69811000D03*
X107362000Y-66561000D03*
X97262000Y-70561000D03*
X82512000Y-84561000D03*
X121762000Y-70561000D03*
X109512000Y-62061000D03*
X92512000Y-73561000D03*
X103512000Y-62061000D03*
X99762000Y-74561000D03*
X96012000Y-83061000D03*
X100012000Y-65561000D03*
X91012000Y-61561000D03*
X98012000Y-80561000D03*
X100512000Y-83811000D03*
X100012000Y-77811000D03*
%TO.N,/USB_D+*%
X75617900Y-70411400D03*
%TO.N,VMOS*%
X89762000Y-69061000D03*
%TO.N,/DN_D*%
X130262000Y-68311000D03*
X128519337Y-71807999D03*
%TO.N,/DROGUE_CONT*%
X123512000Y-70561000D03*
X94512000Y-73311000D03*
%TO.N,/Speaker*%
X104541876Y-76274500D03*
X80762000Y-84561000D03*
%TO.N,/MOS_D*%
X127762000Y-78061000D03*
X113262000Y-78811000D03*
%TO.N,/DN_G*%
X126762000Y-69311000D03*
X128762000Y-68061000D03*
%TO.N,+1V1*%
X89012000Y-76561000D03*
X90762000Y-78311000D03*
X99262000Y-68811000D03*
X95762000Y-75311000D03*
%TO.N,/R*%
X92762000Y-65061000D03*
X96264193Y-71311000D03*
%TO.N,/Mode_Sel*%
X96512000Y-65561000D03*
X96262000Y-68561000D03*
%TO.N,/TX*%
X96962000Y-76361000D03*
%TO.N,/MAIN_CONT*%
X92262000Y-70061000D03*
X123262000Y-73311000D03*
%TO.N,/QSPI_SS*%
X94781000Y-83380000D03*
%TO.N,/RX*%
X98162000Y-76161000D03*
%TO.N,/G*%
X91262000Y-65790999D03*
X93731670Y-70059542D03*
%TO.N,/B*%
X95512000Y-72291745D03*
X92162000Y-63061000D03*
%TD*%
%TO.N,GND*%
D20*
X96980000Y-84991000D02*
X98332000Y-84991000D01*
X98332000Y-84991000D02*
X98562000Y-84761000D01*
%TO.N,/USB_D+*%
X74954400Y-69747900D02*
X74954400Y-67648600D01*
X75617900Y-70411400D02*
X74954400Y-69747900D01*
%TO.N,VMOS*%
D21*
X89762000Y-64285788D02*
X91920001Y-62127787D01*
X110187212Y-62561000D02*
X121640000Y-62561000D01*
X102403575Y-62127787D02*
X103336788Y-63061000D01*
X103336788Y-63061000D02*
X109687212Y-63061000D01*
X91920001Y-62127787D02*
X102403575Y-62127787D01*
X89762000Y-69061000D02*
X89762000Y-64285788D01*
X121640000Y-62561000D02*
X124512000Y-65433000D01*
X109687212Y-63061000D02*
X110187212Y-62561000D01*
%TO.N,+BATT*%
X115744000Y-63701000D02*
X119280000Y-63701000D01*
X114012000Y-65433000D02*
X115744000Y-63701000D01*
X119280000Y-63701000D02*
X121012000Y-65433000D01*
%TO.N,/DN_D*%
D20*
X130262000Y-70065336D02*
X128519337Y-71807999D01*
X130262000Y-68311000D02*
X130262000Y-70065336D01*
%TO.N,/DROGUE_CONT*%
X94512000Y-73311000D02*
X108012000Y-73311000D01*
X122762000Y-69811000D02*
X123512000Y-70561000D01*
X111512000Y-69811000D02*
X122762000Y-69811000D01*
X108012000Y-73311000D02*
X111512000Y-69811000D01*
%TO.N,/Speaker*%
X81275500Y-84047500D02*
X90667238Y-84047500D01*
X104141876Y-76674500D02*
X104541876Y-76274500D01*
X98040238Y-76674500D02*
X104141876Y-76674500D01*
X80762000Y-84561000D02*
X81275500Y-84047500D01*
X90667238Y-84047500D02*
X98040238Y-76674500D01*
%TO.N,/MOS_D*%
X113262000Y-78811000D02*
X114762000Y-78811000D01*
X114762000Y-78811000D02*
X115512000Y-78061000D01*
X115512000Y-78061000D02*
X127762000Y-78061000D01*
%TO.N,/DN_G*%
X128262000Y-68061000D02*
X127038606Y-69284394D01*
X126788606Y-69284394D02*
X126762000Y-69311000D01*
X128762000Y-68061000D02*
X128262000Y-68061000D01*
X127038606Y-69284394D02*
X126788606Y-69284394D01*
%TO.N,+1V1*%
X93998500Y-73098301D02*
X93998500Y-73547500D01*
X95738199Y-72811000D02*
X94738199Y-72811000D01*
X99262000Y-69287199D02*
X95738199Y-72811000D01*
X94299301Y-72797500D02*
X93998500Y-73098301D01*
X99262000Y-68811000D02*
X99262000Y-69287199D01*
X93998500Y-73547500D02*
X95762000Y-75311000D01*
X94738199Y-72811000D02*
X94724699Y-72797500D01*
X90762000Y-78311000D02*
X89012000Y-76561000D01*
X94724699Y-72797500D02*
X94299301Y-72797500D01*
%TO.N,/R*%
X91762000Y-67061000D02*
X91762000Y-66061000D01*
X91762000Y-66061000D02*
X92762000Y-65061000D01*
X95764193Y-71063193D02*
X91762000Y-67061000D01*
X96016386Y-71063193D02*
X95764193Y-71063193D01*
X96264193Y-71311000D02*
X96016386Y-71063193D01*
%TO.N,/Mode_Sel*%
X96262000Y-68561000D02*
X96262000Y-65811000D01*
X96262000Y-65811000D02*
X96512000Y-65561000D01*
%TO.N,/TX*%
X96962000Y-76361000D02*
X92762000Y-80561000D01*
X79062000Y-79661000D02*
X78962000Y-79761000D01*
X79462000Y-79661000D02*
X79062000Y-79661000D01*
X92762000Y-80561000D02*
X80362000Y-80561000D01*
X80362000Y-80561000D02*
X79462000Y-79661000D01*
%TO.N,/MAIN_CONT*%
X113488199Y-77311000D02*
X119262000Y-77311000D01*
X104762801Y-75761000D02*
X106049301Y-77047500D01*
X91998500Y-73348301D02*
X91998500Y-75547500D01*
X106474699Y-77047500D02*
X106488199Y-77061000D01*
X96038199Y-75761000D02*
X97835801Y-75761000D01*
X97835801Y-75761000D02*
X97949301Y-75647500D01*
X95485801Y-75761000D02*
X95549301Y-75824500D01*
X95974699Y-75824500D02*
X96038199Y-75761000D01*
X106049301Y-77047500D02*
X106474699Y-77047500D01*
X113238199Y-77061000D02*
X113488199Y-77311000D01*
X92212000Y-75761000D02*
X95485801Y-75761000D01*
X98488199Y-75761000D02*
X104762801Y-75761000D01*
X106488199Y-77061000D02*
X113238199Y-77061000D01*
X95549301Y-75824500D02*
X95974699Y-75824500D01*
X98374699Y-75647500D02*
X98488199Y-75761000D01*
X91998500Y-75547500D02*
X92212000Y-75761000D01*
X92262000Y-70061000D02*
X92262000Y-73084801D01*
X119262000Y-77311000D02*
X123262000Y-73311000D01*
X92262000Y-73084801D02*
X91998500Y-73348301D01*
X97949301Y-75647500D02*
X98374699Y-75647500D01*
%TO.N,/QSPI_SS*%
X94948000Y-83547000D02*
X94948000Y-84991000D01*
X94781000Y-83380000D02*
X94948000Y-83547000D01*
%TO.N,VBUS*%
D22*
X76554400Y-67648600D02*
X76554400Y-70720200D01*
X74780400Y-71173400D02*
X74154400Y-70547400D01*
X76554400Y-70720200D02*
X76101200Y-71173400D01*
X74154400Y-70547400D02*
X74154400Y-67648600D01*
X76101200Y-71173400D02*
X74780400Y-71173400D01*
%TO.N,/RX*%
D20*
X92562000Y-81761000D02*
X80562000Y-81761000D01*
X79762000Y-82561000D02*
X79762000Y-83061000D01*
X80562000Y-81761000D02*
X79762000Y-82561000D01*
X98162000Y-76161000D02*
X92562000Y-81761000D01*
%TO.N,/G*%
X91262000Y-67589872D02*
X93731670Y-70059542D01*
X91262000Y-65790999D02*
X91262000Y-67589872D01*
%TO.N,/B*%
X93512000Y-70561000D02*
X95242745Y-72291745D01*
X92162000Y-63911000D02*
X90748500Y-65324500D01*
X92162000Y-63061000D02*
X92162000Y-63911000D01*
X90748500Y-65324500D02*
X90748500Y-67802571D01*
X93506929Y-70561000D02*
X93512000Y-70561000D01*
X95242745Y-72291745D02*
X95512000Y-72291745D01*
X90748500Y-67802571D02*
X93506929Y-70561000D01*
%TD*%
M02*
