%TF.GenerationSoftware,KiCad,Pcbnew,10.0.5*%
%TF.CreationDate,2026-08-24T21:40:42-04:00*%
%TF.ProjectId,Brand-X,4272616e-642d-4582-9e6b-696361645f70,rev?*%
%TF.SameCoordinates,Original*%
%TF.FileFunction,Copper,L2,Inr*%
%TF.FilePolarity,Positive*%
%FSLAX46Y46*%
G04 Gerber Fmt 4.6, Leading zero omitted, Abs format (unit mm)*
G04 Created by KiCad (PCBNEW 10.0.5) date 2026-08-24 21:40:42*
%MOMM*%
%LPD*%
G01*
G04 APERTURE LIST*
G04 Aperture macros list*
%AMRoundRect*
0 Rectangle with rounded corners*
0 $1 Rounding radius*
0 $2 $3 $4 $5 $6 $7 $8 $9 X,Y pos of 4 corners*
0 Add a 4 corners polygon primitive as box body*
4,1,4,$2,$3,$4,$5,$6,$7,$8,$9,$2,$3,0*
0 Add four circle primitives for the rounded corners*
1,1,$1+$1,$2,$3*
1,1,$1+$1,$4,$5*
1,1,$1+$1,$6,$7*
1,1,$1+$1,$8,$9*
0 Add four rect primitives between the rounded corners*
20,1,$1+$1,$2,$3,$4,$5,0*
20,1,$1+$1,$4,$5,$6,$7,0*
20,1,$1+$1,$6,$7,$8,$9,0*
20,1,$1+$1,$8,$9,$2,$3,0*%
G04 Aperture macros list end*
%TA.AperFunction,ComponentPad*%
%ADD10R,1.600000X1.600000*%
%TD*%
%TA.AperFunction,ComponentPad*%
%ADD11C,1.600000*%
%TD*%
%TA.AperFunction,ComponentPad*%
%ADD12C,2.000000*%
%TD*%
%TA.AperFunction,ComponentPad*%
%ADD13RoundRect,0.250001X-0.949999X-0.949999X0.949999X-0.949999X0.949999X0.949999X-0.949999X0.949999X0*%
%TD*%
%TA.AperFunction,ComponentPad*%
%ADD14C,2.400000*%
%TD*%
%TA.AperFunction,ComponentPad*%
%ADD15RoundRect,0.250001X0.949999X0.949999X-0.949999X0.949999X-0.949999X-0.949999X0.949999X-0.949999X0*%
%TD*%
%TA.AperFunction,ComponentPad*%
%ADD16C,0.600000*%
%TD*%
%TA.AperFunction,ComponentPad*%
%ADD17O,0.800000X1.400000*%
%TD*%
%TA.AperFunction,ViaPad*%
%ADD18C,0.600000*%
%TD*%
G04 APERTURE END LIST*
D10*
%TO.N,/Speaker*%
%TO.C,LS1*%
X74262000Y-81261000D03*
D11*
%TO.N,GND*%
X70262000Y-81261000D03*
%TD*%
D12*
%TO.N,/TX*%
%TO.C,TP3*%
X79462000Y-79661000D03*
%TD*%
D13*
%TO.N,/MP_D*%
%TO.C,J2*%
X114033000Y-81561000D03*
D14*
%TO.N,GND*%
X117533000Y-81561000D03*
%TO.N,/DP_D*%
X121033000Y-81561000D03*
%TO.N,GND*%
X124533000Y-81561000D03*
%TD*%
D15*
%TO.N,VMOS*%
%TO.C,J5*%
X124512000Y-65433000D03*
D14*
%TO.N,+BATT*%
X121012000Y-65433000D03*
%TO.N,GND*%
X117512001Y-65433000D03*
%TO.N,+BATT*%
X114012000Y-65433000D03*
%TD*%
D16*
%TO.N,GND*%
%TO.C,J6*%
X72554400Y-67648600D03*
%TO.N,unconnected-(J6-SSTXP2-PadB2)*%
X72954400Y-66948600D03*
%TO.N,unconnected-(J6-SSTXN2-PadB3)*%
X73754400Y-66948600D03*
%TO.N,VBUS*%
X74154400Y-67648600D03*
%TO.N,Net-(J6-CC2)*%
X74554400Y-66948600D03*
%TO.N,/USB_D+*%
X74954400Y-67648600D03*
%TO.N,/USB_D-*%
X75754400Y-67648600D03*
%TO.N,unconnected-(J6-SBU2-PadB8)*%
X76154400Y-66948600D03*
%TO.N,VBUS*%
X76554400Y-67648600D03*
%TO.N,unconnected-(J6-SSRXN1-PadB10)*%
X76954400Y-66948600D03*
%TO.N,unconnected-(J6-SSRXP1-PadB11)*%
X77754400Y-66948600D03*
%TO.N,GND*%
X78154400Y-67648600D03*
D17*
X79484400Y-67058600D03*
X71224400Y-67058600D03*
X79844400Y-62658600D03*
X70864400Y-62658600D03*
%TD*%
D12*
%TO.N,/RX*%
%TO.C,TP4*%
X79462000Y-82861000D03*
%TD*%
D18*
%TO.N,GND*%
X102512000Y-74311000D03*
X98512000Y-83061000D03*
X96262000Y-63561000D03*
X100762000Y-80561000D03*
X103262000Y-64061000D03*
X95012000Y-68392000D03*
X129762000Y-84311000D03*
X108012000Y-77811000D03*
X90762000Y-76311000D03*
X104762000Y-66961000D03*
X104262000Y-74061000D03*
X101512000Y-68811000D03*
X88762000Y-79811000D03*
X108762000Y-71061000D03*
X117012000Y-71311000D03*
X99887694Y-62958787D03*
X70388002Y-72033633D03*
X125762000Y-70561000D03*
X98562000Y-84761000D03*
X103762000Y-71561000D03*
X127012000Y-65811000D03*
X89262000Y-71061000D03*
X86262000Y-62061000D03*
X77262000Y-72811000D03*
X98762000Y-79061000D03*
X86012000Y-85061000D03*
X92262000Y-78561000D03*
X109262000Y-83311000D03*
X99262000Y-72561000D03*
X69262000Y-84561000D03*
%TO.N,+3V3*%
X103012000Y-77811000D03*
X110262000Y-77811000D03*
X106262000Y-77561000D03*
X125012000Y-69811000D03*
X107362000Y-66561000D03*
X97262000Y-70561000D03*
X82512000Y-84561000D03*
X121762000Y-70561000D03*
X109512000Y-62061000D03*
X92512000Y-73561000D03*
X103512000Y-62061000D03*
X99762000Y-74561000D03*
X96012000Y-83061000D03*
X100012000Y-65561000D03*
X91012000Y-61561000D03*
X98012000Y-80561000D03*
X100512000Y-83811000D03*
X100012000Y-77811000D03*
%TO.N,/USB_D+*%
X75617900Y-70411400D03*
%TO.N,VMOS*%
X89762000Y-69061000D03*
%TO.N,/DN_D*%
X130262000Y-68311000D03*
X128519337Y-71807999D03*
%TO.N,/DROGUE_CONT*%
X123512000Y-70561000D03*
X94512000Y-73311000D03*
%TO.N,/Speaker*%
X104541876Y-76274500D03*
X80762000Y-84561000D03*
%TO.N,/MOS_D*%
X127762000Y-78061000D03*
X113262000Y-78811000D03*
%TO.N,/DN_G*%
X126762000Y-69311000D03*
X128762000Y-68061000D03*
%TO.N,+1V1*%
X89012000Y-76561000D03*
X90762000Y-78311000D03*
X99262000Y-68811000D03*
X95762000Y-75311000D03*
%TO.N,/R*%
X92762000Y-65061000D03*
X96264193Y-71311000D03*
%TO.N,/Mode_Sel*%
X96512000Y-65561000D03*
X96262000Y-68561000D03*
%TO.N,/TX*%
X96962000Y-76361000D03*
%TO.N,/MAIN_CONT*%
X92262000Y-70061000D03*
X123262000Y-73311000D03*
%TO.N,/QSPI_SS*%
X94781000Y-83380000D03*
%TO.N,/RX*%
X98162000Y-76161000D03*
%TO.N,/G*%
X91262000Y-65790999D03*
X93731670Y-70059542D03*
%TO.N,/B*%
X95512000Y-72291745D03*
X92162000Y-63061000D03*
%TD*%
%TA.AperFunction,Conductor*%
%TO.N,+3V3*%
G36*
X130679539Y-60906185D02*
G01*
X130725294Y-60958989D01*
X130736500Y-61010500D01*
X130736500Y-67676780D01*
X130716815Y-67743819D01*
X130664011Y-67789574D01*
X130594853Y-67799518D01*
X130550501Y-67784168D01*
X130493784Y-67751423D01*
X130465405Y-67743819D01*
X130341057Y-67710500D01*
X130182943Y-67710500D01*
X130030216Y-67751423D01*
X130030209Y-67751426D01*
X129893290Y-67830475D01*
X129893282Y-67830481D01*
X129781481Y-67942282D01*
X129781475Y-67942290D01*
X129702426Y-68079209D01*
X129702423Y-68079216D01*
X129661500Y-68231943D01*
X129661500Y-68390057D01*
X129702086Y-68541524D01*
X129702423Y-68542783D01*
X129702426Y-68542790D01*
X129781475Y-68679709D01*
X129781479Y-68679714D01*
X129781480Y-68679716D01*
X129893284Y-68791520D01*
X129893286Y-68791521D01*
X129893290Y-68791524D01*
X130030209Y-68870573D01*
X130030216Y-68870577D01*
X130182943Y-68911500D01*
X130182945Y-68911500D01*
X130341055Y-68911500D01*
X130341057Y-68911500D01*
X130493784Y-68870577D01*
X130550500Y-68837831D01*
X130618400Y-68821359D01*
X130684427Y-68844212D01*
X130727618Y-68899133D01*
X130736500Y-68945219D01*
X130736500Y-86111500D01*
X130716815Y-86178539D01*
X130664011Y-86224294D01*
X130612500Y-86235500D01*
X67411500Y-86235500D01*
X67344461Y-86215815D01*
X67298706Y-86163011D01*
X67287500Y-86111500D01*
X67287500Y-84481943D01*
X68661500Y-84481943D01*
X68661500Y-84640057D01*
X68702086Y-84791524D01*
X68702423Y-84792783D01*
X68702426Y-84792790D01*
X68781475Y-84929709D01*
X68781479Y-84929714D01*
X68781480Y-84929716D01*
X68893284Y-85041520D01*
X68893286Y-85041521D01*
X68893290Y-85041524D01*
X69030209Y-85120573D01*
X69030216Y-85120577D01*
X69182943Y-85161500D01*
X69182945Y-85161500D01*
X69341055Y-85161500D01*
X69341057Y-85161500D01*
X69493784Y-85120577D01*
X69630716Y-85041520D01*
X69742520Y-84929716D01*
X69821577Y-84792784D01*
X69862500Y-84640057D01*
X69862500Y-84481943D01*
X80161500Y-84481943D01*
X80161500Y-84640057D01*
X80202086Y-84791524D01*
X80202423Y-84792783D01*
X80202426Y-84792790D01*
X80281475Y-84929709D01*
X80281479Y-84929714D01*
X80281480Y-84929716D01*
X80393284Y-85041520D01*
X80393286Y-85041521D01*
X80393290Y-85041524D01*
X80530209Y-85120573D01*
X80530216Y-85120577D01*
X80682943Y-85161500D01*
X80682945Y-85161500D01*
X80841055Y-85161500D01*
X80841057Y-85161500D01*
X80993784Y-85120577D01*
X81130716Y-85041520D01*
X81190293Y-84981943D01*
X85411500Y-84981943D01*
X85411500Y-85140057D01*
X85438687Y-85241518D01*
X85452423Y-85292783D01*
X85452426Y-85292790D01*
X85531475Y-85429709D01*
X85531479Y-85429714D01*
X85531480Y-85429716D01*
X85643284Y-85541520D01*
X85643286Y-85541521D01*
X85643290Y-85541524D01*
X85780209Y-85620573D01*
X85780216Y-85620577D01*
X85932943Y-85661500D01*
X85932945Y-85661500D01*
X86091055Y-85661500D01*
X86091057Y-85661500D01*
X86243784Y-85620577D01*
X86380716Y-85541520D01*
X86492520Y-85429716D01*
X86571577Y-85292784D01*
X86612500Y-85140057D01*
X86612500Y-84981943D01*
X86571577Y-84829216D01*
X86492520Y-84692284D01*
X86482179Y-84681943D01*
X97961500Y-84681943D01*
X97961500Y-84840057D01*
X97985525Y-84929717D01*
X98002423Y-84992783D01*
X98002426Y-84992790D01*
X98081475Y-85129709D01*
X98081479Y-85129714D01*
X98081480Y-85129716D01*
X98193284Y-85241520D01*
X98193286Y-85241521D01*
X98193290Y-85241524D01*
X98282087Y-85292790D01*
X98330216Y-85320577D01*
X98482943Y-85361500D01*
X98482945Y-85361500D01*
X98641055Y-85361500D01*
X98641057Y-85361500D01*
X98793784Y-85320577D01*
X98930716Y-85241520D01*
X99042520Y-85129716D01*
X99121577Y-84992784D01*
X99162500Y-84840057D01*
X99162500Y-84681943D01*
X99121577Y-84529216D01*
X99105531Y-84501423D01*
X99042524Y-84392290D01*
X99042518Y-84392282D01*
X98930717Y-84280481D01*
X98930709Y-84280475D01*
X98846648Y-84231943D01*
X129161500Y-84231943D01*
X129161500Y-84390057D01*
X129198788Y-84529216D01*
X129202423Y-84542783D01*
X129202426Y-84542790D01*
X129281475Y-84679709D01*
X129281479Y-84679714D01*
X129281480Y-84679716D01*
X129393284Y-84791520D01*
X129393286Y-84791521D01*
X129393290Y-84791524D01*
X129477353Y-84840057D01*
X129530216Y-84870577D01*
X129682943Y-84911500D01*
X129682945Y-84911500D01*
X129841055Y-84911500D01*
X129841057Y-84911500D01*
X129993784Y-84870577D01*
X130130716Y-84791520D01*
X130242520Y-84679716D01*
X130321577Y-84542784D01*
X130362500Y-84390057D01*
X130362500Y-84231943D01*
X130321577Y-84079216D01*
X130293887Y-84031255D01*
X130242524Y-83942290D01*
X130242518Y-83942282D01*
X130130717Y-83830481D01*
X130130709Y-83830475D01*
X129993790Y-83751426D01*
X129993786Y-83751424D01*
X129993784Y-83751423D01*
X129841057Y-83710500D01*
X129682943Y-83710500D01*
X129530216Y-83751423D01*
X129530209Y-83751426D01*
X129393290Y-83830475D01*
X129393282Y-83830481D01*
X129281481Y-83942282D01*
X129281475Y-83942290D01*
X129202426Y-84079209D01*
X129202423Y-84079216D01*
X129161500Y-84231943D01*
X98846648Y-84231943D01*
X98793790Y-84201426D01*
X98793786Y-84201424D01*
X98793784Y-84201423D01*
X98641057Y-84160500D01*
X98482943Y-84160500D01*
X98330216Y-84201423D01*
X98330209Y-84201426D01*
X98193290Y-84280475D01*
X98193282Y-84280481D01*
X98081481Y-84392282D01*
X98081475Y-84392290D01*
X98002426Y-84529209D01*
X98002423Y-84529216D01*
X97961500Y-84681943D01*
X86482179Y-84681943D01*
X86380716Y-84580480D01*
X86380714Y-84580479D01*
X86380709Y-84580475D01*
X86243790Y-84501426D01*
X86243786Y-84501424D01*
X86243784Y-84501423D01*
X86091057Y-84460500D01*
X85932943Y-84460500D01*
X85780216Y-84501423D01*
X85780209Y-84501426D01*
X85643290Y-84580475D01*
X85643282Y-84580481D01*
X85531481Y-84692282D01*
X85531475Y-84692290D01*
X85452426Y-84829209D01*
X85452423Y-84829216D01*
X85411500Y-84981943D01*
X81190293Y-84981943D01*
X81242520Y-84929716D01*
X81246352Y-84923078D01*
X81252855Y-84911816D01*
X81294284Y-84840057D01*
X81321577Y-84792784D01*
X81362500Y-84640057D01*
X81362500Y-84481943D01*
X81321577Y-84329216D01*
X81265417Y-84231943D01*
X81242524Y-84192290D01*
X81242518Y-84192282D01*
X81130717Y-84080481D01*
X81130709Y-84080475D01*
X80993790Y-84001426D01*
X80993786Y-84001424D01*
X80993784Y-84001423D01*
X80841057Y-83960500D01*
X80682943Y-83960500D01*
X80530216Y-84001423D01*
X80530211Y-84001425D01*
X80478542Y-84031255D01*
X80478532Y-84031262D01*
X80393284Y-84080480D01*
X80328580Y-84145183D01*
X80328572Y-84145190D01*
X80281481Y-84192282D01*
X80281475Y-84192290D01*
X80202426Y-84329209D01*
X80202423Y-84329216D01*
X80161500Y-84481943D01*
X69862500Y-84481943D01*
X69821577Y-84329216D01*
X69765417Y-84231943D01*
X69742524Y-84192290D01*
X69742518Y-84192282D01*
X69630717Y-84080481D01*
X69630709Y-84080475D01*
X69493790Y-84001426D01*
X69493786Y-84001424D01*
X69493784Y-84001423D01*
X69341057Y-83960500D01*
X69182943Y-83960500D01*
X69030216Y-84001423D01*
X69030209Y-84001426D01*
X68893290Y-84080475D01*
X68893282Y-84080481D01*
X68781481Y-84192282D01*
X68781475Y-84192290D01*
X68702426Y-84329209D01*
X68702423Y-84329216D01*
X68661500Y-84481943D01*
X67287500Y-84481943D01*
X67287500Y-82758648D01*
X78161500Y-82758648D01*
X78161500Y-82963351D01*
X78193522Y-83165534D01*
X78256781Y-83360223D01*
X78349715Y-83542613D01*
X78470028Y-83708213D01*
X78614786Y-83852971D01*
X78762790Y-83960500D01*
X78780390Y-83973287D01*
X78894158Y-84031255D01*
X78962776Y-84066218D01*
X78962778Y-84066218D01*
X78962781Y-84066220D01*
X79067137Y-84100127D01*
X79157465Y-84129477D01*
X79256672Y-84145190D01*
X79359648Y-84161500D01*
X79359649Y-84161500D01*
X79564351Y-84161500D01*
X79564352Y-84161500D01*
X79766534Y-84129477D01*
X79961219Y-84066220D01*
X80143610Y-83973287D01*
X80309219Y-83852966D01*
X80453966Y-83708219D01*
X80574287Y-83542610D01*
X80667220Y-83360219D01*
X80686480Y-83300943D01*
X94180500Y-83300943D01*
X94180500Y-83459057D01*
X94202935Y-83542783D01*
X94221423Y-83611783D01*
X94221426Y-83611790D01*
X94300475Y-83748709D01*
X94300479Y-83748714D01*
X94300480Y-83748716D01*
X94412284Y-83860520D01*
X94412286Y-83860521D01*
X94412290Y-83860524D01*
X94549209Y-83939573D01*
X94549216Y-83939577D01*
X94701943Y-83980500D01*
X94701945Y-83980500D01*
X94860055Y-83980500D01*
X94860057Y-83980500D01*
X95012784Y-83939577D01*
X95149716Y-83860520D01*
X95261520Y-83748716D01*
X95340577Y-83611784D01*
X95381500Y-83459057D01*
X95381500Y-83300943D01*
X95340577Y-83148216D01*
X95261523Y-83011290D01*
X95261522Y-83011287D01*
X95261518Y-83011282D01*
X95232179Y-82981943D01*
X97911500Y-82981943D01*
X97911500Y-83140057D01*
X97936122Y-83231945D01*
X97952423Y-83292783D01*
X97952426Y-83292790D01*
X98031475Y-83429709D01*
X98031479Y-83429714D01*
X98031480Y-83429716D01*
X98143284Y-83541520D01*
X98143286Y-83541521D01*
X98143290Y-83541524D01*
X98264984Y-83611783D01*
X98280216Y-83620577D01*
X98432943Y-83661500D01*
X98432945Y-83661500D01*
X98591055Y-83661500D01*
X98591057Y-83661500D01*
X98743784Y-83620577D01*
X98880716Y-83541520D01*
X98992520Y-83429716D01*
X99071577Y-83292784D01*
X99087879Y-83231943D01*
X108661500Y-83231943D01*
X108661500Y-83390057D01*
X108702377Y-83542610D01*
X108702423Y-83542783D01*
X108702426Y-83542790D01*
X108781475Y-83679709D01*
X108781479Y-83679714D01*
X108781480Y-83679716D01*
X108893284Y-83791520D01*
X108893286Y-83791521D01*
X108893290Y-83791524D01*
X109030209Y-83870573D01*
X109030216Y-83870577D01*
X109182943Y-83911500D01*
X109182945Y-83911500D01*
X109341055Y-83911500D01*
X109341057Y-83911500D01*
X109493784Y-83870577D01*
X109630716Y-83791520D01*
X109742520Y-83679716D01*
X109821577Y-83542784D01*
X109862500Y-83390057D01*
X109862500Y-83231943D01*
X109821577Y-83079216D01*
X109805215Y-83050876D01*
X109742524Y-82942290D01*
X109742518Y-82942282D01*
X109630717Y-82830481D01*
X109630709Y-82830475D01*
X109493790Y-82751426D01*
X109493786Y-82751424D01*
X109493784Y-82751423D01*
X109341057Y-82710500D01*
X109182943Y-82710500D01*
X109030216Y-82751423D01*
X109030209Y-82751426D01*
X108893290Y-82830475D01*
X108893282Y-82830481D01*
X108781481Y-82942282D01*
X108781475Y-82942290D01*
X108702426Y-83079209D01*
X108702423Y-83079216D01*
X108661500Y-83231943D01*
X99087879Y-83231943D01*
X99112500Y-83140057D01*
X99112500Y-82981943D01*
X99071577Y-82829216D01*
X99030835Y-82758648D01*
X98992524Y-82692290D01*
X98992518Y-82692282D01*
X98880717Y-82580481D01*
X98880709Y-82580475D01*
X98743790Y-82501426D01*
X98743786Y-82501424D01*
X98743784Y-82501423D01*
X98591057Y-82460500D01*
X98432943Y-82460500D01*
X98280216Y-82501423D01*
X98280209Y-82501426D01*
X98143290Y-82580475D01*
X98143282Y-82580481D01*
X98031481Y-82692282D01*
X98031475Y-82692290D01*
X97952426Y-82829209D01*
X97952423Y-82829216D01*
X97911500Y-82981943D01*
X95232179Y-82981943D01*
X95149717Y-82899481D01*
X95149709Y-82899475D01*
X95012790Y-82820426D01*
X95012786Y-82820424D01*
X95012784Y-82820423D01*
X94860057Y-82779500D01*
X94701943Y-82779500D01*
X94549216Y-82820423D01*
X94549209Y-82820426D01*
X94412290Y-82899475D01*
X94412282Y-82899481D01*
X94300481Y-83011282D01*
X94300475Y-83011290D01*
X94221426Y-83148209D01*
X94221423Y-83148216D01*
X94180500Y-83300943D01*
X80686480Y-83300943D01*
X80730477Y-83165534D01*
X80762500Y-82963352D01*
X80762500Y-82758648D01*
X80751989Y-82692284D01*
X80730477Y-82556465D01*
X80667218Y-82361776D01*
X80601992Y-82233765D01*
X80574287Y-82179390D01*
X80543486Y-82136996D01*
X80453971Y-82013786D01*
X80309213Y-81869028D01*
X80143613Y-81748715D01*
X80143612Y-81748714D01*
X80143610Y-81748713D01*
X80086653Y-81719691D01*
X79961223Y-81655781D01*
X79766534Y-81592522D01*
X79591995Y-81564878D01*
X79564352Y-81560500D01*
X79359648Y-81560500D01*
X79335329Y-81564351D01*
X79157465Y-81592522D01*
X78962776Y-81655781D01*
X78780386Y-81748715D01*
X78614786Y-81869028D01*
X78470028Y-82013786D01*
X78349715Y-82179386D01*
X78256781Y-82361776D01*
X78193522Y-82556465D01*
X78161500Y-82758648D01*
X67287500Y-82758648D01*
X67287500Y-81174389D01*
X69161500Y-81174389D01*
X69161500Y-81347610D01*
X69176593Y-81442908D01*
X69188598Y-81518701D01*
X69242127Y-81683445D01*
X69320768Y-81837788D01*
X69422586Y-81977928D01*
X69545072Y-82100414D01*
X69685212Y-82202232D01*
X69839555Y-82280873D01*
X70004299Y-82334402D01*
X70175389Y-82361500D01*
X70175390Y-82361500D01*
X70348610Y-82361500D01*
X70348611Y-82361500D01*
X70519701Y-82334402D01*
X70684445Y-82280873D01*
X70838788Y-82202232D01*
X70978928Y-82100414D01*
X71101414Y-81977928D01*
X71203232Y-81837788D01*
X71281873Y-81683445D01*
X71335402Y-81518701D01*
X71362500Y-81347611D01*
X71362500Y-81174389D01*
X71335402Y-81003299D01*
X71281873Y-80838555D01*
X71203232Y-80684212D01*
X71101414Y-80544072D01*
X70978928Y-80421586D01*
X70971420Y-80416131D01*
X73161500Y-80416131D01*
X73161500Y-82105856D01*
X73161502Y-82105882D01*
X73164413Y-82130987D01*
X73164415Y-82130991D01*
X73209793Y-82233764D01*
X73209794Y-82233765D01*
X73289235Y-82313206D01*
X73392009Y-82358585D01*
X73417135Y-82361500D01*
X75106864Y-82361499D01*
X75106879Y-82361497D01*
X75106882Y-82361497D01*
X75131987Y-82358586D01*
X75131988Y-82358585D01*
X75131991Y-82358585D01*
X75234765Y-82313206D01*
X75314206Y-82233765D01*
X75359585Y-82130991D01*
X75362500Y-82105865D01*
X75362499Y-80416136D01*
X75362497Y-80416117D01*
X75359586Y-80391012D01*
X75359585Y-80391010D01*
X75359585Y-80391009D01*
X75314206Y-80288235D01*
X75234765Y-80208794D01*
X75197387Y-80192290D01*
X75131992Y-80163415D01*
X75106865Y-80160500D01*
X73417143Y-80160500D01*
X73417117Y-80160502D01*
X73392012Y-80163413D01*
X73392008Y-80163415D01*
X73289235Y-80208793D01*
X73209794Y-80288234D01*
X73164415Y-80391006D01*
X73164415Y-80391008D01*
X73161500Y-80416131D01*
X70971420Y-80416131D01*
X70838788Y-80319768D01*
X70684445Y-80241127D01*
X70519701Y-80187598D01*
X70519699Y-80187597D01*
X70519698Y-80187597D01*
X70388271Y-80166781D01*
X70348611Y-80160500D01*
X70175389Y-80160500D01*
X70135728Y-80166781D01*
X70004302Y-80187597D01*
X69839552Y-80241128D01*
X69685211Y-80319768D01*
X69620990Y-80366428D01*
X69545072Y-80421586D01*
X69545070Y-80421588D01*
X69545069Y-80421588D01*
X69422588Y-80544069D01*
X69422588Y-80544070D01*
X69422586Y-80544072D01*
X69405268Y-80567908D01*
X69320768Y-80684211D01*
X69242128Y-80838552D01*
X69188597Y-81003302D01*
X69161500Y-81174389D01*
X67287500Y-81174389D01*
X67287500Y-79558648D01*
X78161500Y-79558648D01*
X78161500Y-79763351D01*
X78193522Y-79965534D01*
X78256781Y-80160223D01*
X78298005Y-80241128D01*
X78347699Y-80338658D01*
X78349715Y-80342613D01*
X78470028Y-80508213D01*
X78614786Y-80652971D01*
X78769749Y-80765556D01*
X78780390Y-80773287D01*
X78896607Y-80832503D01*
X78962776Y-80866218D01*
X78962778Y-80866218D01*
X78962781Y-80866220D01*
X79067137Y-80900127D01*
X79157465Y-80929477D01*
X79258557Y-80945488D01*
X79359648Y-80961500D01*
X79359649Y-80961500D01*
X79564351Y-80961500D01*
X79564352Y-80961500D01*
X79766534Y-80929477D01*
X79961219Y-80866220D01*
X80143610Y-80773287D01*
X80236590Y-80705732D01*
X80309213Y-80652971D01*
X80309215Y-80652968D01*
X80309219Y-80652966D01*
X80453966Y-80508219D01*
X80453968Y-80508215D01*
X80453971Y-80508213D01*
X80473056Y-80481943D01*
X100161500Y-80481943D01*
X100161500Y-80640057D01*
X100173332Y-80684212D01*
X100202423Y-80792783D01*
X100202426Y-80792790D01*
X100281475Y-80929709D01*
X100281479Y-80929714D01*
X100281480Y-80929716D01*
X100393284Y-81041520D01*
X100393286Y-81041521D01*
X100393290Y-81041524D01*
X100530209Y-81120573D01*
X100530216Y-81120577D01*
X100682943Y-81161500D01*
X100682945Y-81161500D01*
X100841055Y-81161500D01*
X100841057Y-81161500D01*
X100993784Y-81120577D01*
X101130716Y-81041520D01*
X101242520Y-80929716D01*
X101321577Y-80792784D01*
X101362500Y-80640057D01*
X101362500Y-80567900D01*
X112532500Y-80567900D01*
X112532500Y-82554091D01*
X112543123Y-82642562D01*
X112598639Y-82783342D01*
X112598640Y-82783344D01*
X112690077Y-82903922D01*
X112792966Y-82981945D01*
X112810658Y-82995361D01*
X112951436Y-83050876D01*
X113039901Y-83061500D01*
X115026098Y-83061499D01*
X115114564Y-83050876D01*
X115255342Y-82995361D01*
X115375922Y-82903922D01*
X115467361Y-82783342D01*
X115522876Y-82642564D01*
X115533500Y-82554099D01*
X115533499Y-81442902D01*
X116032500Y-81442902D01*
X116032500Y-81679097D01*
X116069446Y-81912368D01*
X116142433Y-82136996D01*
X116191740Y-82233765D01*
X116249657Y-82347433D01*
X116388483Y-82538510D01*
X116555490Y-82705517D01*
X116746567Y-82844343D01*
X116845991Y-82895002D01*
X116957003Y-82951566D01*
X116957005Y-82951566D01*
X116957008Y-82951568D01*
X117077412Y-82990689D01*
X117181631Y-83024553D01*
X117414903Y-83061500D01*
X117414908Y-83061500D01*
X117651097Y-83061500D01*
X117884368Y-83024553D01*
X117925196Y-83011287D01*
X118108992Y-82951568D01*
X118319433Y-82844343D01*
X118510510Y-82705517D01*
X118677517Y-82538510D01*
X118816343Y-82347433D01*
X118923568Y-82136992D01*
X118996553Y-81912368D01*
X119033500Y-81679097D01*
X119033500Y-81442902D01*
X119532500Y-81442902D01*
X119532500Y-81679097D01*
X119569446Y-81912368D01*
X119642433Y-82136996D01*
X119691740Y-82233765D01*
X119749657Y-82347433D01*
X119888483Y-82538510D01*
X120055490Y-82705517D01*
X120246567Y-82844343D01*
X120345991Y-82895002D01*
X120457003Y-82951566D01*
X120457005Y-82951566D01*
X120457008Y-82951568D01*
X120577412Y-82990689D01*
X120681631Y-83024553D01*
X120914903Y-83061500D01*
X120914908Y-83061500D01*
X121151097Y-83061500D01*
X121384368Y-83024553D01*
X121425196Y-83011287D01*
X121608992Y-82951568D01*
X121819433Y-82844343D01*
X122010510Y-82705517D01*
X122177517Y-82538510D01*
X122316343Y-82347433D01*
X122423568Y-82136992D01*
X122496553Y-81912368D01*
X122533500Y-81679097D01*
X122533500Y-81442902D01*
X123032500Y-81442902D01*
X123032500Y-81679097D01*
X123069446Y-81912368D01*
X123142433Y-82136996D01*
X123191740Y-82233765D01*
X123249657Y-82347433D01*
X123388483Y-82538510D01*
X123555490Y-82705517D01*
X123746567Y-82844343D01*
X123845991Y-82895002D01*
X123957003Y-82951566D01*
X123957005Y-82951566D01*
X123957008Y-82951568D01*
X124077412Y-82990689D01*
X124181631Y-83024553D01*
X124414903Y-83061500D01*
X124414908Y-83061500D01*
X124651097Y-83061500D01*
X124884368Y-83024553D01*
X124925196Y-83011287D01*
X125108992Y-82951568D01*
X125319433Y-82844343D01*
X125510510Y-82705517D01*
X125677517Y-82538510D01*
X125816343Y-82347433D01*
X125923568Y-82136992D01*
X125996553Y-81912368D01*
X126033500Y-81679097D01*
X126033500Y-81442902D01*
X125996553Y-81209631D01*
X125923566Y-80985003D01*
X125867002Y-80873991D01*
X125816343Y-80774567D01*
X125677517Y-80583490D01*
X125510510Y-80416483D01*
X125319433Y-80277657D01*
X125247741Y-80241128D01*
X125108996Y-80170433D01*
X124884368Y-80097446D01*
X124651097Y-80060500D01*
X124651092Y-80060500D01*
X124414908Y-80060500D01*
X124414903Y-80060500D01*
X124181631Y-80097446D01*
X123957003Y-80170433D01*
X123746566Y-80277657D01*
X123657167Y-80342610D01*
X123555490Y-80416483D01*
X123555488Y-80416485D01*
X123555487Y-80416485D01*
X123388485Y-80583487D01*
X123388485Y-80583488D01*
X123388483Y-80583490D01*
X123347386Y-80640055D01*
X123249657Y-80774566D01*
X123142433Y-80985003D01*
X123069446Y-81209631D01*
X123032500Y-81442902D01*
X122533500Y-81442902D01*
X122496553Y-81209631D01*
X122423566Y-80985003D01*
X122367002Y-80873991D01*
X122316343Y-80774567D01*
X122177517Y-80583490D01*
X122010510Y-80416483D01*
X121819433Y-80277657D01*
X121747741Y-80241128D01*
X121608996Y-80170433D01*
X121384368Y-80097446D01*
X121151097Y-80060500D01*
X121151092Y-80060500D01*
X120914908Y-80060500D01*
X120914903Y-80060500D01*
X120681631Y-80097446D01*
X120457003Y-80170433D01*
X120246566Y-80277657D01*
X120157167Y-80342610D01*
X120055490Y-80416483D01*
X120055488Y-80416485D01*
X120055487Y-80416485D01*
X119888485Y-80583487D01*
X119888485Y-80583488D01*
X119888483Y-80583490D01*
X119847386Y-80640055D01*
X119749657Y-80774566D01*
X119642433Y-80985003D01*
X119569446Y-81209631D01*
X119532500Y-81442902D01*
X119033500Y-81442902D01*
X118996553Y-81209631D01*
X118923566Y-80985003D01*
X118867002Y-80873991D01*
X118816343Y-80774567D01*
X118677517Y-80583490D01*
X118510510Y-80416483D01*
X118319433Y-80277657D01*
X118247741Y-80241128D01*
X118108996Y-80170433D01*
X117884368Y-80097446D01*
X117651097Y-80060500D01*
X117651092Y-80060500D01*
X117414908Y-80060500D01*
X117414903Y-80060500D01*
X117181631Y-80097446D01*
X116957003Y-80170433D01*
X116746566Y-80277657D01*
X116657167Y-80342610D01*
X116555490Y-80416483D01*
X116555488Y-80416485D01*
X116555487Y-80416485D01*
X116388485Y-80583487D01*
X116388485Y-80583488D01*
X116388483Y-80583490D01*
X116347386Y-80640055D01*
X116249657Y-80774566D01*
X116142433Y-80985003D01*
X116069446Y-81209631D01*
X116032500Y-81442902D01*
X115533499Y-81442902D01*
X115533499Y-80567902D01*
X115522876Y-80479436D01*
X115467361Y-80338658D01*
X115460196Y-80329209D01*
X115375922Y-80218077D01*
X115255344Y-80126640D01*
X115255342Y-80126639D01*
X115114564Y-80071124D01*
X115114561Y-80071123D01*
X115026099Y-80060500D01*
X113039908Y-80060500D01*
X112951437Y-80071123D01*
X112810657Y-80126639D01*
X112810655Y-80126640D01*
X112690077Y-80218077D01*
X112598640Y-80338655D01*
X112586052Y-80370576D01*
X112567949Y-80416485D01*
X112543124Y-80479437D01*
X112543123Y-80479438D01*
X112532500Y-80567900D01*
X101362500Y-80567900D01*
X101362500Y-80481943D01*
X101321577Y-80329216D01*
X101299816Y-80291524D01*
X101242524Y-80192290D01*
X101242518Y-80192282D01*
X101130717Y-80080481D01*
X101130709Y-80080475D01*
X100993790Y-80001426D01*
X100993786Y-80001424D01*
X100993784Y-80001423D01*
X100841057Y-79960500D01*
X100682943Y-79960500D01*
X100530216Y-80001423D01*
X100530209Y-80001426D01*
X100393290Y-80080475D01*
X100393282Y-80080481D01*
X100281481Y-80192282D01*
X100281475Y-80192290D01*
X100202426Y-80329209D01*
X100202423Y-80329216D01*
X100161500Y-80481943D01*
X80473056Y-80481943D01*
X80506732Y-80435590D01*
X80574287Y-80342610D01*
X80667220Y-80160219D01*
X80730477Y-79965534D01*
X80762500Y-79763352D01*
X80762500Y-79731943D01*
X88161500Y-79731943D01*
X88161500Y-79890057D01*
X88191341Y-80001423D01*
X88202423Y-80042783D01*
X88202426Y-80042790D01*
X88281475Y-80179709D01*
X88281479Y-80179714D01*
X88281480Y-80179716D01*
X88393284Y-80291520D01*
X88393286Y-80291521D01*
X88393290Y-80291524D01*
X88474925Y-80338655D01*
X88530216Y-80370577D01*
X88682943Y-80411500D01*
X88682945Y-80411500D01*
X88841055Y-80411500D01*
X88841057Y-80411500D01*
X88993784Y-80370577D01*
X89000970Y-80366427D01*
X89000973Y-80366427D01*
X89130709Y-80291524D01*
X89130708Y-80291524D01*
X89130716Y-80291520D01*
X89242520Y-80179716D01*
X89321577Y-80042784D01*
X89362500Y-79890057D01*
X89362500Y-79731943D01*
X89321577Y-79579216D01*
X89299816Y-79541524D01*
X89242524Y-79442290D01*
X89242518Y-79442282D01*
X89130717Y-79330481D01*
X89130709Y-79330475D01*
X88993790Y-79251426D01*
X88993786Y-79251424D01*
X88993784Y-79251423D01*
X88841057Y-79210500D01*
X88682943Y-79210500D01*
X88530216Y-79251423D01*
X88530209Y-79251426D01*
X88393290Y-79330475D01*
X88393282Y-79330481D01*
X88281481Y-79442282D01*
X88281475Y-79442290D01*
X88202426Y-79579209D01*
X88202423Y-79579216D01*
X88161500Y-79731943D01*
X80762500Y-79731943D01*
X80762500Y-79558648D01*
X80744070Y-79442290D01*
X80730477Y-79356465D01*
X80683050Y-79210500D01*
X80667220Y-79161781D01*
X80667218Y-79161778D01*
X80667218Y-79161776D01*
X80606591Y-79042790D01*
X80574287Y-78979390D01*
X80538192Y-78929709D01*
X80453971Y-78813786D01*
X80309213Y-78669028D01*
X80143613Y-78548715D01*
X80143612Y-78548714D01*
X80143610Y-78548713D01*
X80086653Y-78519691D01*
X79961223Y-78455781D01*
X79766534Y-78392522D01*
X79591995Y-78364878D01*
X79564352Y-78360500D01*
X79359648Y-78360500D01*
X79335329Y-78364351D01*
X79157465Y-78392522D01*
X78962776Y-78455781D01*
X78780386Y-78548715D01*
X78614786Y-78669028D01*
X78470028Y-78813786D01*
X78349715Y-78979386D01*
X78256781Y-79161776D01*
X78193522Y-79356465D01*
X78161500Y-79558648D01*
X67287500Y-79558648D01*
X67287500Y-78231943D01*
X90161500Y-78231943D01*
X90161500Y-78390057D01*
X90202086Y-78541524D01*
X90202423Y-78542783D01*
X90202426Y-78542790D01*
X90281475Y-78679709D01*
X90281479Y-78679714D01*
X90281480Y-78679716D01*
X90393284Y-78791520D01*
X90393286Y-78791521D01*
X90393290Y-78791524D01*
X90530209Y-78870573D01*
X90530216Y-78870577D01*
X90682943Y-78911500D01*
X90682945Y-78911500D01*
X90841055Y-78911500D01*
X90841057Y-78911500D01*
X90993784Y-78870577D01*
X91130716Y-78791520D01*
X91242520Y-78679716D01*
X91321577Y-78542784D01*
X91337879Y-78481943D01*
X91661500Y-78481943D01*
X91661500Y-78640057D01*
X91702086Y-78791524D01*
X91702423Y-78792783D01*
X91702426Y-78792790D01*
X91781475Y-78929709D01*
X91781479Y-78929714D01*
X91781480Y-78929716D01*
X91893284Y-79041520D01*
X91893286Y-79041521D01*
X91893290Y-79041524D01*
X92030209Y-79120573D01*
X92030216Y-79120577D01*
X92182943Y-79161500D01*
X92182945Y-79161500D01*
X92341055Y-79161500D01*
X92341057Y-79161500D01*
X92493784Y-79120577D01*
X92630716Y-79041520D01*
X92690293Y-78981943D01*
X98161500Y-78981943D01*
X98161500Y-79140057D01*
X98202086Y-79291524D01*
X98202423Y-79292783D01*
X98202426Y-79292790D01*
X98281475Y-79429709D01*
X98281479Y-79429714D01*
X98281480Y-79429716D01*
X98393284Y-79541520D01*
X98393286Y-79541521D01*
X98393290Y-79541524D01*
X98530209Y-79620573D01*
X98530216Y-79620577D01*
X98682943Y-79661500D01*
X98682945Y-79661500D01*
X98841055Y-79661500D01*
X98841057Y-79661500D01*
X98993784Y-79620577D01*
X99130716Y-79541520D01*
X99242520Y-79429716D01*
X99321577Y-79292784D01*
X99362500Y-79140057D01*
X99362500Y-78981943D01*
X99321577Y-78829216D01*
X99265417Y-78731943D01*
X112661500Y-78731943D01*
X112661500Y-78890057D01*
X112702086Y-79041524D01*
X112702423Y-79042783D01*
X112702426Y-79042790D01*
X112781475Y-79179709D01*
X112781479Y-79179714D01*
X112781480Y-79179716D01*
X112893284Y-79291520D01*
X112893286Y-79291521D01*
X112893290Y-79291524D01*
X112960765Y-79330480D01*
X113030216Y-79370577D01*
X113182943Y-79411500D01*
X113182945Y-79411500D01*
X113341055Y-79411500D01*
X113341057Y-79411500D01*
X113493784Y-79370577D01*
X113630716Y-79291520D01*
X113742520Y-79179716D01*
X113821577Y-79042784D01*
X113862500Y-78890057D01*
X113862500Y-78731943D01*
X113821577Y-78579216D01*
X113821573Y-78579209D01*
X113742524Y-78442290D01*
X113742518Y-78442282D01*
X113630717Y-78330481D01*
X113630709Y-78330475D01*
X113493790Y-78251426D01*
X113493786Y-78251424D01*
X113493784Y-78251423D01*
X113341057Y-78210500D01*
X113182943Y-78210500D01*
X113030216Y-78251423D01*
X113030209Y-78251426D01*
X112893290Y-78330475D01*
X112893282Y-78330481D01*
X112781481Y-78442282D01*
X112781475Y-78442290D01*
X112702426Y-78579209D01*
X112702423Y-78579216D01*
X112661500Y-78731943D01*
X99265417Y-78731943D01*
X99242520Y-78692284D01*
X99130716Y-78580480D01*
X99130714Y-78580479D01*
X99130709Y-78580475D01*
X98993790Y-78501426D01*
X98993786Y-78501424D01*
X98993784Y-78501423D01*
X98841057Y-78460500D01*
X98682943Y-78460500D01*
X98530216Y-78501423D01*
X98530209Y-78501426D01*
X98393290Y-78580475D01*
X98393282Y-78580481D01*
X98281481Y-78692282D01*
X98281475Y-78692290D01*
X98202426Y-78829209D01*
X98202423Y-78829216D01*
X98161500Y-78981943D01*
X92690293Y-78981943D01*
X92742520Y-78929716D01*
X92746352Y-78923078D01*
X92752855Y-78911816D01*
X92800543Y-78829216D01*
X92821577Y-78792784D01*
X92862500Y-78640057D01*
X92862500Y-78481943D01*
X92821577Y-78329216D01*
X92799816Y-78291524D01*
X92742524Y-78192290D01*
X92742518Y-78192282D01*
X92630717Y-78080481D01*
X92630709Y-78080475D01*
X92493790Y-78001426D01*
X92493786Y-78001424D01*
X92493784Y-78001423D01*
X92341057Y-77960500D01*
X92182943Y-77960500D01*
X92030216Y-78001423D01*
X92030209Y-78001426D01*
X91893290Y-78080475D01*
X91893282Y-78080481D01*
X91781481Y-78192282D01*
X91781475Y-78192290D01*
X91702426Y-78329209D01*
X91702423Y-78329216D01*
X91661500Y-78481943D01*
X91337879Y-78481943D01*
X91362500Y-78390057D01*
X91362500Y-78231943D01*
X91321577Y-78079216D01*
X91300543Y-78042783D01*
X91242524Y-77942290D01*
X91242518Y-77942282D01*
X91130717Y-77830481D01*
X91130716Y-77830480D01*
X90993784Y-77751423D01*
X90921084Y-77731943D01*
X107411500Y-77731943D01*
X107411500Y-77890057D01*
X107441341Y-78001423D01*
X107452423Y-78042783D01*
X107452426Y-78042790D01*
X107531475Y-78179709D01*
X107531479Y-78179714D01*
X107531480Y-78179716D01*
X107643284Y-78291520D01*
X107643286Y-78291521D01*
X107643290Y-78291524D01*
X107710765Y-78330480D01*
X107780216Y-78370577D01*
X107932943Y-78411500D01*
X107932945Y-78411500D01*
X108091055Y-78411500D01*
X108091057Y-78411500D01*
X108243784Y-78370577D01*
X108380716Y-78291520D01*
X108492520Y-78179716D01*
X108571577Y-78042784D01*
X108587879Y-77981943D01*
X127161500Y-77981943D01*
X127161500Y-78140057D01*
X127202086Y-78291524D01*
X127202423Y-78292783D01*
X127202426Y-78292790D01*
X127281475Y-78429709D01*
X127281479Y-78429714D01*
X127281480Y-78429716D01*
X127393284Y-78541520D01*
X127393286Y-78541521D01*
X127393290Y-78541524D01*
X127460765Y-78580480D01*
X127530216Y-78620577D01*
X127682943Y-78661500D01*
X127682945Y-78661500D01*
X127841055Y-78661500D01*
X127841057Y-78661500D01*
X127993784Y-78620577D01*
X128130716Y-78541520D01*
X128242520Y-78429716D01*
X128321577Y-78292784D01*
X128362500Y-78140057D01*
X128362500Y-77981943D01*
X128321577Y-77829216D01*
X128321573Y-77829209D01*
X128242524Y-77692290D01*
X128242518Y-77692282D01*
X128130717Y-77580481D01*
X128130709Y-77580475D01*
X127993790Y-77501426D01*
X127993786Y-77501424D01*
X127993784Y-77501423D01*
X127841057Y-77460500D01*
X127682943Y-77460500D01*
X127530216Y-77501423D01*
X127530209Y-77501426D01*
X127393290Y-77580475D01*
X127393282Y-77580481D01*
X127281481Y-77692282D01*
X127281475Y-77692290D01*
X127202426Y-77829209D01*
X127202423Y-77829216D01*
X127161500Y-77981943D01*
X108587879Y-77981943D01*
X108612500Y-77890057D01*
X108612500Y-77731943D01*
X108571577Y-77579216D01*
X108571573Y-77579209D01*
X108492524Y-77442290D01*
X108492518Y-77442282D01*
X108380717Y-77330481D01*
X108380709Y-77330475D01*
X108243790Y-77251426D01*
X108243786Y-77251424D01*
X108243784Y-77251423D01*
X108091057Y-77210500D01*
X107932943Y-77210500D01*
X107780216Y-77251423D01*
X107780209Y-77251426D01*
X107643290Y-77330475D01*
X107643282Y-77330481D01*
X107531481Y-77442282D01*
X107531475Y-77442290D01*
X107452426Y-77579209D01*
X107452423Y-77579216D01*
X107411500Y-77731943D01*
X90921084Y-77731943D01*
X90841057Y-77710500D01*
X90682943Y-77710500D01*
X90530216Y-77751423D01*
X90530209Y-77751426D01*
X90393290Y-77830475D01*
X90393282Y-77830481D01*
X90281481Y-77942282D01*
X90281475Y-77942290D01*
X90202426Y-78079209D01*
X90202423Y-78079216D01*
X90161500Y-78231943D01*
X67287500Y-78231943D01*
X67287500Y-72731943D01*
X76661500Y-72731943D01*
X76661500Y-72890057D01*
X76702086Y-73041524D01*
X76702423Y-73042783D01*
X76702426Y-73042790D01*
X76781475Y-73179709D01*
X76781479Y-73179714D01*
X76781480Y-73179716D01*
X76893284Y-73291520D01*
X76893286Y-73291521D01*
X76893290Y-73291524D01*
X77030209Y-73370573D01*
X77030216Y-73370577D01*
X77182943Y-73411500D01*
X77182945Y-73411500D01*
X77341055Y-73411500D01*
X77341057Y-73411500D01*
X77493784Y-73370577D01*
X77630716Y-73291520D01*
X77742520Y-73179716D01*
X77821577Y-73042784D01*
X77862500Y-72890057D01*
X77862500Y-72761000D01*
X80161999Y-72761000D01*
X80352073Y-75231945D01*
X80362000Y-75361000D01*
X82362000Y-76961000D01*
X85561999Y-76961000D01*
X85562000Y-76961000D01*
X85987828Y-76481943D01*
X88411500Y-76481943D01*
X88411500Y-76640057D01*
X88452086Y-76791524D01*
X88452423Y-76792783D01*
X88452426Y-76792790D01*
X88531475Y-76929709D01*
X88531479Y-76929714D01*
X88531480Y-76929716D01*
X88643284Y-77041520D01*
X88643286Y-77041521D01*
X88643290Y-77041524D01*
X88780209Y-77120573D01*
X88780216Y-77120577D01*
X88932943Y-77161500D01*
X88932945Y-77161500D01*
X89091055Y-77161500D01*
X89091057Y-77161500D01*
X89243784Y-77120577D01*
X89380716Y-77041520D01*
X89492520Y-76929716D01*
X89571577Y-76792784D01*
X89612500Y-76640057D01*
X89612500Y-76481943D01*
X89571577Y-76329216D01*
X89515417Y-76231943D01*
X90161500Y-76231943D01*
X90161500Y-76390057D01*
X90198981Y-76529936D01*
X90202423Y-76542783D01*
X90202426Y-76542790D01*
X90281475Y-76679709D01*
X90281479Y-76679714D01*
X90281480Y-76679716D01*
X90393284Y-76791520D01*
X90393286Y-76791521D01*
X90393290Y-76791524D01*
X90479887Y-76841520D01*
X90530216Y-76870577D01*
X90682943Y-76911500D01*
X90682945Y-76911500D01*
X90841055Y-76911500D01*
X90841057Y-76911500D01*
X90993784Y-76870577D01*
X91130716Y-76791520D01*
X91242520Y-76679716D01*
X91321577Y-76542784D01*
X91362500Y-76390057D01*
X91362500Y-76281943D01*
X96361500Y-76281943D01*
X96361500Y-76440057D01*
X96395165Y-76565694D01*
X96402423Y-76592783D01*
X96402426Y-76592790D01*
X96481475Y-76729709D01*
X96481479Y-76729714D01*
X96481480Y-76729716D01*
X96593284Y-76841520D01*
X96593286Y-76841521D01*
X96593290Y-76841524D01*
X96714492Y-76911499D01*
X96730216Y-76920577D01*
X96882943Y-76961500D01*
X96882945Y-76961500D01*
X97041055Y-76961500D01*
X97041057Y-76961500D01*
X97193784Y-76920577D01*
X97330716Y-76841520D01*
X97442520Y-76729716D01*
X97521577Y-76592784D01*
X97521577Y-76592781D01*
X97522389Y-76591376D01*
X97572956Y-76543160D01*
X97641563Y-76529936D01*
X97706428Y-76555904D01*
X97717458Y-76565694D01*
X97793284Y-76641520D01*
X97793286Y-76641521D01*
X97793290Y-76641524D01*
X97930209Y-76720573D01*
X97930216Y-76720577D01*
X98082943Y-76761500D01*
X98082945Y-76761500D01*
X98241055Y-76761500D01*
X98241057Y-76761500D01*
X98393784Y-76720577D01*
X98530716Y-76641520D01*
X98642520Y-76529716D01*
X98721577Y-76392784D01*
X98762500Y-76240057D01*
X98762500Y-76195443D01*
X103941376Y-76195443D01*
X103941376Y-76353557D01*
X103975778Y-76481945D01*
X103982299Y-76506283D01*
X103982302Y-76506290D01*
X104061351Y-76643209D01*
X104061355Y-76643214D01*
X104061356Y-76643216D01*
X104173160Y-76755020D01*
X104173162Y-76755021D01*
X104173166Y-76755024D01*
X104238580Y-76792790D01*
X104310092Y-76834077D01*
X104462819Y-76875000D01*
X104462821Y-76875000D01*
X104620931Y-76875000D01*
X104620933Y-76875000D01*
X104773660Y-76834077D01*
X104910592Y-76755020D01*
X105022396Y-76643216D01*
X105101453Y-76506284D01*
X105142376Y-76353557D01*
X105142376Y-76195443D01*
X105101453Y-76042716D01*
X105101449Y-76042709D01*
X105022400Y-75905790D01*
X105022394Y-75905782D01*
X104910593Y-75793981D01*
X104910585Y-75793975D01*
X104773666Y-75714926D01*
X104773662Y-75714924D01*
X104773660Y-75714923D01*
X104620933Y-75674000D01*
X104462819Y-75674000D01*
X104310092Y-75714923D01*
X104310085Y-75714926D01*
X104173166Y-75793975D01*
X104173158Y-75793981D01*
X104061357Y-75905782D01*
X104061351Y-75905790D01*
X103982302Y-76042709D01*
X103982299Y-76042716D01*
X103941376Y-76195443D01*
X98762500Y-76195443D01*
X98762500Y-76081943D01*
X98721577Y-75929216D01*
X98708049Y-75905784D01*
X98642524Y-75792290D01*
X98642518Y-75792282D01*
X98530717Y-75680481D01*
X98530709Y-75680475D01*
X98393790Y-75601426D01*
X98393786Y-75601424D01*
X98393784Y-75601423D01*
X98241057Y-75560500D01*
X98082943Y-75560500D01*
X97930216Y-75601423D01*
X97930209Y-75601426D01*
X97793290Y-75680475D01*
X97793282Y-75680481D01*
X97681481Y-75792282D01*
X97681477Y-75792287D01*
X97601609Y-75930624D01*
X97551042Y-75978840D01*
X97482435Y-75992063D01*
X97417570Y-75966095D01*
X97406541Y-75956305D01*
X97330717Y-75880481D01*
X97330709Y-75880475D01*
X97193790Y-75801426D01*
X97193786Y-75801424D01*
X97193784Y-75801423D01*
X97041057Y-75760500D01*
X96882943Y-75760500D01*
X96730216Y-75801423D01*
X96730209Y-75801426D01*
X96593290Y-75880475D01*
X96593282Y-75880481D01*
X96481481Y-75992282D01*
X96481475Y-75992290D01*
X96402426Y-76129209D01*
X96402423Y-76129216D01*
X96361500Y-76281943D01*
X91362500Y-76281943D01*
X91362500Y-76231943D01*
X91321577Y-76079216D01*
X91300500Y-76042709D01*
X91242524Y-75942290D01*
X91242518Y-75942282D01*
X91130717Y-75830481D01*
X91130709Y-75830475D01*
X90993790Y-75751426D01*
X90993786Y-75751424D01*
X90993784Y-75751423D01*
X90841057Y-75710500D01*
X90682943Y-75710500D01*
X90530216Y-75751423D01*
X90530209Y-75751426D01*
X90393290Y-75830475D01*
X90393282Y-75830481D01*
X90281481Y-75942282D01*
X90281475Y-75942290D01*
X90202426Y-76079209D01*
X90202423Y-76079216D01*
X90161500Y-76231943D01*
X89515417Y-76231943D01*
X89492520Y-76192284D01*
X89380716Y-76080480D01*
X89380714Y-76080479D01*
X89380709Y-76080475D01*
X89243790Y-76001426D01*
X89243786Y-76001424D01*
X89243784Y-76001423D01*
X89091057Y-75960500D01*
X88932943Y-75960500D01*
X88780216Y-76001423D01*
X88780209Y-76001426D01*
X88643290Y-76080475D01*
X88643282Y-76080481D01*
X88531481Y-76192282D01*
X88531475Y-76192290D01*
X88452426Y-76329209D01*
X88452423Y-76329216D01*
X88411500Y-76481943D01*
X85987828Y-76481943D01*
X87098940Y-75231943D01*
X95161500Y-75231943D01*
X95161500Y-75390056D01*
X95202423Y-75542783D01*
X95202426Y-75542790D01*
X95281475Y-75679709D01*
X95281479Y-75679714D01*
X95281480Y-75679716D01*
X95393284Y-75791520D01*
X95393286Y-75791521D01*
X95393290Y-75791524D01*
X95460765Y-75830480D01*
X95530216Y-75870577D01*
X95682943Y-75911500D01*
X95682945Y-75911500D01*
X95841055Y-75911500D01*
X95841057Y-75911500D01*
X95993784Y-75870577D01*
X96130716Y-75791520D01*
X96242520Y-75679716D01*
X96321577Y-75542784D01*
X96362500Y-75390057D01*
X96362500Y-75231943D01*
X96321577Y-75079216D01*
X96321573Y-75079209D01*
X96242524Y-74942290D01*
X96242518Y-74942282D01*
X96130717Y-74830481D01*
X96130709Y-74830475D01*
X95993790Y-74751426D01*
X95993786Y-74751424D01*
X95993784Y-74751423D01*
X95841057Y-74710500D01*
X95682943Y-74710500D01*
X95530216Y-74751423D01*
X95530209Y-74751426D01*
X95393290Y-74830475D01*
X95393282Y-74830481D01*
X95281481Y-74942282D01*
X95281475Y-74942290D01*
X95202426Y-75079209D01*
X95202423Y-75079216D01*
X95161500Y-75231943D01*
X87098940Y-75231943D01*
X87162000Y-75161000D01*
X87294723Y-74231943D01*
X101911500Y-74231943D01*
X101911500Y-74390057D01*
X101952086Y-74541524D01*
X101952423Y-74542783D01*
X101952426Y-74542790D01*
X102031475Y-74679709D01*
X102031479Y-74679714D01*
X102031480Y-74679716D01*
X102143284Y-74791520D01*
X102143286Y-74791521D01*
X102143290Y-74791524D01*
X102210765Y-74830480D01*
X102280216Y-74870577D01*
X102432943Y-74911500D01*
X102432945Y-74911500D01*
X102591055Y-74911500D01*
X102591057Y-74911500D01*
X102743784Y-74870577D01*
X102880716Y-74791520D01*
X102992520Y-74679716D01*
X103071577Y-74542784D01*
X103112500Y-74390057D01*
X103112500Y-74231943D01*
X103071577Y-74079216D01*
X103015417Y-73981943D01*
X103661500Y-73981943D01*
X103661500Y-74140057D01*
X103686122Y-74231945D01*
X103702423Y-74292783D01*
X103702426Y-74292790D01*
X103781475Y-74429709D01*
X103781479Y-74429714D01*
X103781480Y-74429716D01*
X103893284Y-74541520D01*
X103893286Y-74541521D01*
X103893290Y-74541524D01*
X104030209Y-74620573D01*
X104030216Y-74620577D01*
X104182943Y-74661500D01*
X104182945Y-74661500D01*
X104341055Y-74661500D01*
X104341057Y-74661500D01*
X104493784Y-74620577D01*
X104630716Y-74541520D01*
X104742520Y-74429716D01*
X104821577Y-74292784D01*
X104862500Y-74140057D01*
X104862500Y-73981943D01*
X104821577Y-73829216D01*
X104799816Y-73791524D01*
X104742524Y-73692290D01*
X104742518Y-73692282D01*
X104630717Y-73580481D01*
X104630709Y-73580475D01*
X104493790Y-73501426D01*
X104493786Y-73501424D01*
X104493784Y-73501423D01*
X104341057Y-73460500D01*
X104182943Y-73460500D01*
X104030216Y-73501423D01*
X104030209Y-73501426D01*
X103893290Y-73580475D01*
X103893282Y-73580481D01*
X103781481Y-73692282D01*
X103781475Y-73692290D01*
X103702426Y-73829209D01*
X103702423Y-73829216D01*
X103661500Y-73981943D01*
X103015417Y-73981943D01*
X102992520Y-73942284D01*
X102880716Y-73830480D01*
X102880714Y-73830479D01*
X102880709Y-73830475D01*
X102743790Y-73751426D01*
X102743786Y-73751424D01*
X102743784Y-73751423D01*
X102591057Y-73710500D01*
X102432943Y-73710500D01*
X102280216Y-73751423D01*
X102280209Y-73751426D01*
X102143290Y-73830475D01*
X102143282Y-73830481D01*
X102031481Y-73942282D01*
X102031475Y-73942290D01*
X101952426Y-74079209D01*
X101952423Y-74079216D01*
X101911500Y-74231943D01*
X87294723Y-74231943D01*
X87437580Y-73231943D01*
X93911500Y-73231943D01*
X93911500Y-73390057D01*
X93941341Y-73501423D01*
X93952423Y-73542783D01*
X93952426Y-73542790D01*
X94031475Y-73679709D01*
X94031479Y-73679714D01*
X94031480Y-73679716D01*
X94143284Y-73791520D01*
X94143286Y-73791521D01*
X94143290Y-73791524D01*
X94210765Y-73830480D01*
X94280216Y-73870577D01*
X94432943Y-73911500D01*
X94432945Y-73911500D01*
X94591055Y-73911500D01*
X94591057Y-73911500D01*
X94743784Y-73870577D01*
X94880716Y-73791520D01*
X94992520Y-73679716D01*
X95071577Y-73542784D01*
X95112500Y-73390057D01*
X95112500Y-73231943D01*
X95071577Y-73079216D01*
X95001283Y-72957463D01*
X94984811Y-72889563D01*
X95007664Y-72823537D01*
X95062585Y-72780346D01*
X95132139Y-72773705D01*
X95170670Y-72788077D01*
X95280209Y-72851318D01*
X95280216Y-72851322D01*
X95432943Y-72892245D01*
X95432945Y-72892245D01*
X95591055Y-72892245D01*
X95591057Y-72892245D01*
X95743784Y-72851322D01*
X95880716Y-72772265D01*
X95992520Y-72660461D01*
X96071577Y-72523529D01*
X96082720Y-72481943D01*
X98661500Y-72481943D01*
X98661500Y-72640057D01*
X98699091Y-72780346D01*
X98702423Y-72792783D01*
X98702426Y-72792790D01*
X98781475Y-72929709D01*
X98781479Y-72929714D01*
X98781480Y-72929716D01*
X98893284Y-73041520D01*
X98893286Y-73041521D01*
X98893290Y-73041524D01*
X99030209Y-73120573D01*
X99030216Y-73120577D01*
X99182943Y-73161500D01*
X99182945Y-73161500D01*
X99341055Y-73161500D01*
X99341057Y-73161500D01*
X99493784Y-73120577D01*
X99630716Y-73041520D01*
X99742520Y-72929716D01*
X99821577Y-72792784D01*
X99830093Y-72761000D01*
X109561999Y-72761000D01*
X109752073Y-75231945D01*
X109762000Y-75361000D01*
X111762000Y-76961000D01*
X114961999Y-76961000D01*
X114962000Y-76961000D01*
X116562000Y-75161000D01*
X116837580Y-73231943D01*
X122661500Y-73231943D01*
X122661500Y-73390057D01*
X122691341Y-73501423D01*
X122702423Y-73542783D01*
X122702426Y-73542790D01*
X122781475Y-73679709D01*
X122781479Y-73679714D01*
X122781480Y-73679716D01*
X122893284Y-73791520D01*
X122893286Y-73791521D01*
X122893290Y-73791524D01*
X122960765Y-73830480D01*
X123030216Y-73870577D01*
X123182943Y-73911500D01*
X123182945Y-73911500D01*
X123341055Y-73911500D01*
X123341057Y-73911500D01*
X123493784Y-73870577D01*
X123630716Y-73791520D01*
X123742520Y-73679716D01*
X123821577Y-73542784D01*
X123862500Y-73390057D01*
X123862500Y-73231943D01*
X123821577Y-73079216D01*
X123799816Y-73041524D01*
X123742524Y-72942290D01*
X123742518Y-72942282D01*
X123630717Y-72830481D01*
X123630709Y-72830475D01*
X123493790Y-72751426D01*
X123493786Y-72751424D01*
X123493784Y-72751423D01*
X123341057Y-72710500D01*
X123182943Y-72710500D01*
X123030216Y-72751423D01*
X123030209Y-72751426D01*
X122893290Y-72830475D01*
X122893282Y-72830481D01*
X122781481Y-72942282D01*
X122781475Y-72942290D01*
X122702426Y-73079209D01*
X122702423Y-73079216D01*
X122661500Y-73231943D01*
X116837580Y-73231943D01*
X116962000Y-72361000D01*
X116721492Y-72090429D01*
X116691667Y-72027247D01*
X116700735Y-71957968D01*
X116745819Y-71904590D01*
X116812604Y-71884059D01*
X116846258Y-71888273D01*
X116932943Y-71911500D01*
X116932946Y-71911500D01*
X117091055Y-71911500D01*
X117091057Y-71911500D01*
X117243784Y-71870577D01*
X117380716Y-71791520D01*
X117443294Y-71728942D01*
X127918837Y-71728942D01*
X127918837Y-71887056D01*
X127949483Y-72001426D01*
X127959760Y-72039782D01*
X127959763Y-72039789D01*
X128038812Y-72176708D01*
X128038816Y-72176713D01*
X128038817Y-72176715D01*
X128150621Y-72288519D01*
X128150623Y-72288520D01*
X128150627Y-72288523D01*
X128223300Y-72330480D01*
X128287553Y-72367576D01*
X128440280Y-72408499D01*
X128440282Y-72408499D01*
X128598392Y-72408499D01*
X128598394Y-72408499D01*
X128751121Y-72367576D01*
X128888053Y-72288519D01*
X128999857Y-72176715D01*
X129078914Y-72039783D01*
X129119837Y-71887056D01*
X129119837Y-71728942D01*
X129078914Y-71576215D01*
X129059614Y-71542786D01*
X128999861Y-71439289D01*
X128999855Y-71439281D01*
X128888054Y-71327480D01*
X128888046Y-71327474D01*
X128751127Y-71248425D01*
X128751123Y-71248423D01*
X128751121Y-71248422D01*
X128598394Y-71207499D01*
X128440280Y-71207499D01*
X128287553Y-71248422D01*
X128287546Y-71248425D01*
X128150627Y-71327474D01*
X128150619Y-71327480D01*
X128038818Y-71439281D01*
X128038812Y-71439289D01*
X127959763Y-71576208D01*
X127959760Y-71576215D01*
X127918837Y-71728942D01*
X117443294Y-71728942D01*
X117492520Y-71679716D01*
X117503037Y-71661500D01*
X117504586Y-71658817D01*
X117504586Y-71658816D01*
X117571577Y-71542784D01*
X117612500Y-71390057D01*
X117612500Y-71231943D01*
X117571577Y-71079216D01*
X117549816Y-71041524D01*
X117492524Y-70942290D01*
X117492518Y-70942282D01*
X117380717Y-70830481D01*
X117380709Y-70830475D01*
X117243790Y-70751426D01*
X117243786Y-70751424D01*
X117243784Y-70751423D01*
X117091057Y-70710500D01*
X116932943Y-70710500D01*
X116780216Y-70751423D01*
X116780209Y-70751426D01*
X116643290Y-70830475D01*
X116643282Y-70830481D01*
X116531481Y-70942282D01*
X116531475Y-70942290D01*
X116452426Y-71079209D01*
X116452423Y-71079216D01*
X116411500Y-71231943D01*
X116411500Y-71390055D01*
X116412561Y-71398113D01*
X116410528Y-71398380D01*
X116409124Y-71457258D01*
X116369959Y-71515119D01*
X116305729Y-71542620D01*
X116236828Y-71531030D01*
X116198335Y-71501877D01*
X116106100Y-71398113D01*
X115362000Y-70561000D01*
X115361998Y-70560999D01*
X115085302Y-70481943D01*
X122911500Y-70481943D01*
X122911500Y-70640057D01*
X122941341Y-70751423D01*
X122952423Y-70792783D01*
X122952426Y-70792790D01*
X123031475Y-70929709D01*
X123031479Y-70929714D01*
X123031480Y-70929716D01*
X123143284Y-71041520D01*
X123143286Y-71041521D01*
X123143290Y-71041524D01*
X123210765Y-71080480D01*
X123280216Y-71120577D01*
X123432943Y-71161500D01*
X123432945Y-71161500D01*
X123591055Y-71161500D01*
X123591057Y-71161500D01*
X123743784Y-71120577D01*
X123880716Y-71041520D01*
X123992520Y-70929716D01*
X124071577Y-70792784D01*
X124112500Y-70640057D01*
X124112500Y-70481943D01*
X125161500Y-70481943D01*
X125161500Y-70640057D01*
X125191341Y-70751423D01*
X125202423Y-70792783D01*
X125202426Y-70792790D01*
X125281475Y-70929709D01*
X125281479Y-70929714D01*
X125281480Y-70929716D01*
X125393284Y-71041520D01*
X125393286Y-71041521D01*
X125393290Y-71041524D01*
X125460765Y-71080480D01*
X125530216Y-71120577D01*
X125682943Y-71161500D01*
X125682945Y-71161500D01*
X125841055Y-71161500D01*
X125841057Y-71161500D01*
X125993784Y-71120577D01*
X126130716Y-71041520D01*
X126242520Y-70929716D01*
X126321577Y-70792784D01*
X126362500Y-70640057D01*
X126362500Y-70481943D01*
X126321577Y-70329216D01*
X126299705Y-70291332D01*
X126242524Y-70192290D01*
X126242518Y-70192282D01*
X126130717Y-70080481D01*
X126130709Y-70080475D01*
X125993790Y-70001426D01*
X125993786Y-70001424D01*
X125993784Y-70001423D01*
X125841057Y-69960500D01*
X125682943Y-69960500D01*
X125530216Y-70001423D01*
X125530209Y-70001426D01*
X125393290Y-70080475D01*
X125393282Y-70080481D01*
X125281481Y-70192282D01*
X125281475Y-70192290D01*
X125202426Y-70329209D01*
X125202423Y-70329216D01*
X125161500Y-70481943D01*
X124112500Y-70481943D01*
X124071577Y-70329216D01*
X124049705Y-70291332D01*
X123992524Y-70192290D01*
X123992518Y-70192282D01*
X123880717Y-70080481D01*
X123880709Y-70080475D01*
X123743790Y-70001426D01*
X123743786Y-70001424D01*
X123743784Y-70001423D01*
X123591057Y-69960500D01*
X123432943Y-69960500D01*
X123280216Y-70001423D01*
X123280209Y-70001426D01*
X123143290Y-70080475D01*
X123143282Y-70080481D01*
X123031481Y-70192282D01*
X123031475Y-70192290D01*
X122952426Y-70329209D01*
X122952423Y-70329216D01*
X122911500Y-70481943D01*
X115085302Y-70481943D01*
X113962004Y-70161000D01*
X113962000Y-70161000D01*
X113162000Y-70161000D01*
X112249725Y-70291325D01*
X111761999Y-70361000D01*
X111761997Y-70361000D01*
X110361999Y-71160999D01*
X109561999Y-72761000D01*
X99830093Y-72761000D01*
X99862500Y-72640057D01*
X99862500Y-72481943D01*
X99821577Y-72329216D01*
X99798080Y-72288517D01*
X99742524Y-72192290D01*
X99742518Y-72192282D01*
X99630717Y-72080481D01*
X99630709Y-72080475D01*
X99493790Y-72001426D01*
X99493786Y-72001424D01*
X99493784Y-72001423D01*
X99341057Y-71960500D01*
X99182943Y-71960500D01*
X99030216Y-72001423D01*
X99030209Y-72001426D01*
X98893290Y-72080475D01*
X98893282Y-72080481D01*
X98781481Y-72192282D01*
X98781475Y-72192290D01*
X98702426Y-72329209D01*
X98702423Y-72329216D01*
X98661500Y-72481943D01*
X96082720Y-72481943D01*
X96112500Y-72370802D01*
X96112500Y-72212688D01*
X96073622Y-72067593D01*
X96075285Y-71997743D01*
X96114448Y-71939881D01*
X96178676Y-71912377D01*
X96193397Y-71911500D01*
X96343248Y-71911500D01*
X96343250Y-71911500D01*
X96495977Y-71870577D01*
X96632909Y-71791520D01*
X96744713Y-71679716D01*
X96823770Y-71542784D01*
X96840072Y-71481943D01*
X103161500Y-71481943D01*
X103161500Y-71640057D01*
X103202086Y-71791524D01*
X103202423Y-71792783D01*
X103202426Y-71792790D01*
X103281475Y-71929709D01*
X103281479Y-71929714D01*
X103281480Y-71929716D01*
X103393284Y-72041520D01*
X103393286Y-72041521D01*
X103393290Y-72041524D01*
X103460765Y-72080480D01*
X103530216Y-72120577D01*
X103682943Y-72161500D01*
X103682945Y-72161500D01*
X103841055Y-72161500D01*
X103841057Y-72161500D01*
X103993784Y-72120577D01*
X104130716Y-72041520D01*
X104242520Y-71929716D01*
X104321577Y-71792784D01*
X104362500Y-71640057D01*
X104362500Y-71481943D01*
X104321577Y-71329216D01*
X104265417Y-71231943D01*
X104242524Y-71192290D01*
X104242518Y-71192282D01*
X104130717Y-71080481D01*
X104130716Y-71080480D01*
X103993784Y-71001423D01*
X103921084Y-70981943D01*
X108161500Y-70981943D01*
X108161500Y-71140057D01*
X108190537Y-71248422D01*
X108202423Y-71292783D01*
X108202426Y-71292790D01*
X108281475Y-71429709D01*
X108281479Y-71429714D01*
X108281480Y-71429716D01*
X108393284Y-71541520D01*
X108393286Y-71541521D01*
X108393290Y-71541524D01*
X108453378Y-71576215D01*
X108530216Y-71620577D01*
X108682943Y-71661500D01*
X108682945Y-71661500D01*
X108841055Y-71661500D01*
X108841057Y-71661500D01*
X108993784Y-71620577D01*
X109130716Y-71541520D01*
X109242520Y-71429716D01*
X109321577Y-71292784D01*
X109362500Y-71140057D01*
X109362500Y-70981943D01*
X109321577Y-70829216D01*
X109293230Y-70780117D01*
X109242524Y-70692290D01*
X109242518Y-70692282D01*
X109130717Y-70580481D01*
X109130709Y-70580475D01*
X108993790Y-70501426D01*
X108993786Y-70501424D01*
X108993784Y-70501423D01*
X108841057Y-70460500D01*
X108682943Y-70460500D01*
X108530216Y-70501423D01*
X108530209Y-70501426D01*
X108393290Y-70580475D01*
X108393282Y-70580481D01*
X108281481Y-70692282D01*
X108281475Y-70692290D01*
X108202426Y-70829209D01*
X108202423Y-70829216D01*
X108161500Y-70981943D01*
X103921084Y-70981943D01*
X103841057Y-70960500D01*
X103682943Y-70960500D01*
X103530216Y-71001423D01*
X103530209Y-71001426D01*
X103393290Y-71080475D01*
X103393282Y-71080481D01*
X103281481Y-71192282D01*
X103281475Y-71192290D01*
X103202426Y-71329209D01*
X103202423Y-71329216D01*
X103161500Y-71481943D01*
X96840072Y-71481943D01*
X96864693Y-71390057D01*
X96864693Y-71231943D01*
X96823770Y-71079216D01*
X96802009Y-71041524D01*
X96744717Y-70942290D01*
X96744711Y-70942282D01*
X96632910Y-70830481D01*
X96632902Y-70830475D01*
X96495983Y-70751426D01*
X96495979Y-70751424D01*
X96495977Y-70751423D01*
X96343250Y-70710500D01*
X96185136Y-70710500D01*
X96032409Y-70751423D01*
X96032402Y-70751426D01*
X95895483Y-70830475D01*
X95895475Y-70830481D01*
X95783674Y-70942282D01*
X95783668Y-70942290D01*
X95704619Y-71079209D01*
X95704616Y-71079216D01*
X95663693Y-71231943D01*
X95663693Y-71390057D01*
X95686201Y-71474059D01*
X95702571Y-71535152D01*
X95700908Y-71605002D01*
X95661745Y-71662864D01*
X95597517Y-71690368D01*
X95582796Y-71691245D01*
X95432943Y-71691245D01*
X95280216Y-71732168D01*
X95280209Y-71732171D01*
X95143290Y-71811220D01*
X95143282Y-71811226D01*
X95031481Y-71923027D01*
X95031475Y-71923035D01*
X94952426Y-72059954D01*
X94952423Y-72059961D01*
X94911500Y-72212688D01*
X94911500Y-72370802D01*
X94919954Y-72402350D01*
X94952423Y-72523528D01*
X94952426Y-72523535D01*
X95022715Y-72645281D01*
X95039188Y-72713181D01*
X95016335Y-72779208D01*
X94961414Y-72822398D01*
X94891860Y-72829039D01*
X94853329Y-72814668D01*
X94743784Y-72751423D01*
X94671091Y-72731945D01*
X94591057Y-72710500D01*
X94432943Y-72710500D01*
X94280216Y-72751423D01*
X94280209Y-72751426D01*
X94143290Y-72830475D01*
X94143282Y-72830481D01*
X94031481Y-72942282D01*
X94031475Y-72942290D01*
X93952426Y-73079209D01*
X93952423Y-73079216D01*
X93911500Y-73231943D01*
X87437580Y-73231943D01*
X87562000Y-72361000D01*
X86336172Y-70981943D01*
X88661500Y-70981943D01*
X88661500Y-71140057D01*
X88690537Y-71248422D01*
X88702423Y-71292783D01*
X88702426Y-71292790D01*
X88781475Y-71429709D01*
X88781479Y-71429714D01*
X88781480Y-71429716D01*
X88893284Y-71541520D01*
X88893286Y-71541521D01*
X88893290Y-71541524D01*
X88953378Y-71576215D01*
X89030216Y-71620577D01*
X89182943Y-71661500D01*
X89182945Y-71661500D01*
X89341055Y-71661500D01*
X89341057Y-71661500D01*
X89493784Y-71620577D01*
X89630716Y-71541520D01*
X89742520Y-71429716D01*
X89821577Y-71292784D01*
X89862500Y-71140057D01*
X89862500Y-70981943D01*
X89821577Y-70829216D01*
X89793230Y-70780117D01*
X89742524Y-70692290D01*
X89742518Y-70692282D01*
X89630717Y-70580481D01*
X89630709Y-70580475D01*
X89493790Y-70501426D01*
X89493786Y-70501424D01*
X89493784Y-70501423D01*
X89341057Y-70460500D01*
X89182943Y-70460500D01*
X89030216Y-70501423D01*
X89030209Y-70501426D01*
X88893290Y-70580475D01*
X88893282Y-70580481D01*
X88781481Y-70692282D01*
X88781475Y-70692290D01*
X88702426Y-70829209D01*
X88702423Y-70829216D01*
X88661500Y-70981943D01*
X86336172Y-70981943D01*
X85962000Y-70561000D01*
X85961998Y-70560999D01*
X84562004Y-70161000D01*
X84562000Y-70161000D01*
X83762000Y-70161000D01*
X82849725Y-70291325D01*
X82361999Y-70361000D01*
X82361997Y-70361000D01*
X80961999Y-71160999D01*
X80161999Y-72761000D01*
X77862500Y-72761000D01*
X77862500Y-72731943D01*
X77821577Y-72579216D01*
X77789430Y-72523535D01*
X77742524Y-72442290D01*
X77742518Y-72442282D01*
X77630717Y-72330481D01*
X77630709Y-72330475D01*
X77493790Y-72251426D01*
X77493786Y-72251424D01*
X77493784Y-72251423D01*
X77341057Y-72210500D01*
X77182943Y-72210500D01*
X77030216Y-72251423D01*
X77030209Y-72251426D01*
X76893290Y-72330475D01*
X76893282Y-72330481D01*
X76781481Y-72442282D01*
X76781475Y-72442290D01*
X76702426Y-72579209D01*
X76702423Y-72579216D01*
X76661500Y-72731943D01*
X67287500Y-72731943D01*
X67287500Y-71954576D01*
X69787502Y-71954576D01*
X69787502Y-72112690D01*
X69824676Y-72251423D01*
X69828425Y-72265416D01*
X69828428Y-72265423D01*
X69907477Y-72402342D01*
X69907481Y-72402347D01*
X69907482Y-72402349D01*
X70019286Y-72514153D01*
X70019288Y-72514154D01*
X70019292Y-72514157D01*
X70131967Y-72579209D01*
X70156218Y-72593210D01*
X70308945Y-72634133D01*
X70308947Y-72634133D01*
X70467057Y-72634133D01*
X70467059Y-72634133D01*
X70619786Y-72593210D01*
X70756718Y-72514153D01*
X70868522Y-72402349D01*
X70947579Y-72265417D01*
X70988502Y-72112690D01*
X70988502Y-71954576D01*
X70947579Y-71801849D01*
X70941616Y-71791520D01*
X70868526Y-71664923D01*
X70868520Y-71664915D01*
X70756719Y-71553114D01*
X70756711Y-71553108D01*
X70619792Y-71474059D01*
X70619788Y-71474057D01*
X70619786Y-71474056D01*
X70467059Y-71433133D01*
X70308945Y-71433133D01*
X70156218Y-71474056D01*
X70156211Y-71474059D01*
X70019292Y-71553108D01*
X70019284Y-71553114D01*
X69907483Y-71664915D01*
X69907477Y-71664923D01*
X69828428Y-71801842D01*
X69828425Y-71801849D01*
X69787502Y-71954576D01*
X67287500Y-71954576D01*
X67287500Y-70332343D01*
X75017400Y-70332343D01*
X75017400Y-70490457D01*
X75052266Y-70620577D01*
X75058323Y-70643183D01*
X75058326Y-70643190D01*
X75137375Y-70780109D01*
X75137379Y-70780114D01*
X75137380Y-70780116D01*
X75249184Y-70891920D01*
X75249186Y-70891921D01*
X75249190Y-70891924D01*
X75336428Y-70942290D01*
X75386116Y-70970977D01*
X75538843Y-71011900D01*
X75538845Y-71011900D01*
X75696955Y-71011900D01*
X75696957Y-71011900D01*
X75849684Y-70970977D01*
X75986616Y-70891920D01*
X76098420Y-70780116D01*
X76177477Y-70643184D01*
X76218400Y-70490457D01*
X76218400Y-70332343D01*
X76177477Y-70179616D01*
X76177475Y-70179612D01*
X76177474Y-70179609D01*
X76098424Y-70042689D01*
X76098418Y-70042682D01*
X76037679Y-69981943D01*
X91661500Y-69981943D01*
X91661500Y-70140057D01*
X91702033Y-70291326D01*
X91702423Y-70292783D01*
X91702426Y-70292790D01*
X91781475Y-70429709D01*
X91781479Y-70429714D01*
X91781480Y-70429716D01*
X91893284Y-70541520D01*
X91893286Y-70541521D01*
X91893290Y-70541524D01*
X91960765Y-70580480D01*
X92030216Y-70620577D01*
X92182943Y-70661500D01*
X92182945Y-70661500D01*
X92341055Y-70661500D01*
X92341057Y-70661500D01*
X92493784Y-70620577D01*
X92630716Y-70541520D01*
X92742520Y-70429716D01*
X92821577Y-70292784D01*
X92862500Y-70140057D01*
X92862500Y-69981943D01*
X92862109Y-69980485D01*
X93131170Y-69980485D01*
X93131170Y-70138599D01*
X93145557Y-70192290D01*
X93172093Y-70291325D01*
X93172096Y-70291332D01*
X93251145Y-70428251D01*
X93251149Y-70428256D01*
X93251150Y-70428258D01*
X93362954Y-70540062D01*
X93362956Y-70540063D01*
X93362960Y-70540066D01*
X93432962Y-70580481D01*
X93499886Y-70619119D01*
X93652613Y-70660042D01*
X93652615Y-70660042D01*
X93810725Y-70660042D01*
X93810727Y-70660042D01*
X93963454Y-70619119D01*
X94100386Y-70540062D01*
X94212190Y-70428258D01*
X94291247Y-70291326D01*
X94332170Y-70138599D01*
X94332170Y-69980485D01*
X94291247Y-69827758D01*
X94281514Y-69810900D01*
X94212194Y-69690832D01*
X94212188Y-69690824D01*
X94100387Y-69579023D01*
X94100379Y-69579017D01*
X93963460Y-69499968D01*
X93963456Y-69499966D01*
X93963454Y-69499965D01*
X93810727Y-69459042D01*
X93652613Y-69459042D01*
X93499886Y-69499965D01*
X93499879Y-69499968D01*
X93362960Y-69579017D01*
X93362952Y-69579023D01*
X93251151Y-69690824D01*
X93251145Y-69690832D01*
X93172096Y-69827751D01*
X93172093Y-69827758D01*
X93131170Y-69980485D01*
X92862109Y-69980485D01*
X92821577Y-69829216D01*
X92799816Y-69791524D01*
X92742524Y-69692290D01*
X92742518Y-69692282D01*
X92630717Y-69580481D01*
X92630709Y-69580475D01*
X92493790Y-69501426D01*
X92493786Y-69501424D01*
X92493784Y-69501423D01*
X92341057Y-69460500D01*
X92182943Y-69460500D01*
X92030216Y-69501423D01*
X92030209Y-69501426D01*
X91893290Y-69580475D01*
X91893282Y-69580481D01*
X91781481Y-69692282D01*
X91781475Y-69692290D01*
X91702426Y-69829209D01*
X91702423Y-69829216D01*
X91661500Y-69981943D01*
X76037679Y-69981943D01*
X75986617Y-69930881D01*
X75986609Y-69930875D01*
X75849690Y-69851826D01*
X75849686Y-69851824D01*
X75849684Y-69851823D01*
X75696957Y-69810900D01*
X75538843Y-69810900D01*
X75386116Y-69851823D01*
X75386109Y-69851826D01*
X75249190Y-69930875D01*
X75249182Y-69930881D01*
X75137381Y-70042682D01*
X75137375Y-70042690D01*
X75058326Y-70179609D01*
X75058323Y-70179616D01*
X75017400Y-70332343D01*
X67287500Y-70332343D01*
X67287500Y-68981943D01*
X89161500Y-68981943D01*
X89161500Y-69140057D01*
X89202086Y-69291524D01*
X89202423Y-69292783D01*
X89202426Y-69292790D01*
X89281475Y-69429709D01*
X89281479Y-69429714D01*
X89281480Y-69429716D01*
X89393284Y-69541520D01*
X89393286Y-69541521D01*
X89393290Y-69541524D01*
X89460765Y-69580480D01*
X89530216Y-69620577D01*
X89682943Y-69661500D01*
X89682945Y-69661500D01*
X89841055Y-69661500D01*
X89841057Y-69661500D01*
X89993784Y-69620577D01*
X90130716Y-69541520D01*
X90242520Y-69429716D01*
X90321577Y-69292784D01*
X90362500Y-69140057D01*
X90362500Y-68981943D01*
X90321577Y-68829216D01*
X90299816Y-68791524D01*
X90242524Y-68692290D01*
X90242518Y-68692282D01*
X90130717Y-68580481D01*
X90130709Y-68580475D01*
X89993790Y-68501426D01*
X89993786Y-68501424D01*
X89993784Y-68501423D01*
X89841057Y-68460500D01*
X89682943Y-68460500D01*
X89530216Y-68501423D01*
X89530209Y-68501426D01*
X89393290Y-68580475D01*
X89393282Y-68580481D01*
X89281481Y-68692282D01*
X89281475Y-68692290D01*
X89202426Y-68829209D01*
X89202423Y-68829216D01*
X89161500Y-68981943D01*
X67287500Y-68981943D01*
X67287500Y-67427595D01*
X70523899Y-67427595D01*
X70550818Y-67562922D01*
X70550821Y-67562932D01*
X70603621Y-67690404D01*
X70603628Y-67690417D01*
X70680285Y-67805141D01*
X70680288Y-67805145D01*
X70777854Y-67902711D01*
X70777858Y-67902714D01*
X70892582Y-67979371D01*
X70892595Y-67979378D01*
X71020067Y-68032178D01*
X71020072Y-68032180D01*
X71080886Y-68044276D01*
X71089514Y-68045993D01*
X71151425Y-68078377D01*
X71185999Y-68139093D01*
X71185098Y-68199702D01*
X71178900Y-68222832D01*
X71178900Y-68222834D01*
X71178900Y-68374366D01*
X71193729Y-68429709D01*
X71218119Y-68520736D01*
X71256002Y-68586350D01*
X71293885Y-68651965D01*
X71401035Y-68759115D01*
X71459362Y-68792790D01*
X71524633Y-68830475D01*
X71532265Y-68834881D01*
X71678634Y-68874100D01*
X71678636Y-68874100D01*
X71830164Y-68874100D01*
X71830166Y-68874100D01*
X71976535Y-68834881D01*
X72107765Y-68759115D01*
X72214915Y-68651965D01*
X72290681Y-68520735D01*
X72329900Y-68374366D01*
X72329900Y-68371346D01*
X72330620Y-68368892D01*
X72330961Y-68366306D01*
X72331364Y-68366359D01*
X72349585Y-68304307D01*
X72402389Y-68258552D01*
X72470095Y-68248408D01*
X72475338Y-68249098D01*
X72475343Y-68249100D01*
X72475348Y-68249100D01*
X72633455Y-68249100D01*
X72633457Y-68249100D01*
X72786184Y-68208177D01*
X72923116Y-68129120D01*
X73034920Y-68017316D01*
X73113977Y-67880384D01*
X73154900Y-67727657D01*
X73154900Y-67597830D01*
X73174585Y-67530791D01*
X73216899Y-67490443D01*
X73292401Y-67446852D01*
X73360301Y-67430382D01*
X73416398Y-67446852D01*
X73491900Y-67490443D01*
X73540115Y-67541009D01*
X73553900Y-67597830D01*
X73553900Y-67727657D01*
X73581452Y-67830480D01*
X73594823Y-67880383D01*
X73594826Y-67880390D01*
X73673875Y-68017309D01*
X73673879Y-68017314D01*
X73673880Y-68017316D01*
X73785684Y-68129120D01*
X73785686Y-68129121D01*
X73785690Y-68129124D01*
X73901746Y-68196128D01*
X73922616Y-68208177D01*
X74075343Y-68249100D01*
X74075345Y-68249100D01*
X74233455Y-68249100D01*
X74233457Y-68249100D01*
X74386184Y-68208177D01*
X74440178Y-68177004D01*
X74492401Y-68146854D01*
X74560301Y-68130381D01*
X74616399Y-68146854D01*
X74722609Y-68208173D01*
X74722616Y-68208177D01*
X74875343Y-68249100D01*
X74875345Y-68249100D01*
X75033455Y-68249100D01*
X75033457Y-68249100D01*
X75186184Y-68208177D01*
X75240178Y-68177004D01*
X75292401Y-68146854D01*
X75360301Y-68130381D01*
X75416399Y-68146854D01*
X75522609Y-68208173D01*
X75522616Y-68208177D01*
X75675343Y-68249100D01*
X75675345Y-68249100D01*
X75833455Y-68249100D01*
X75833457Y-68249100D01*
X75986184Y-68208177D01*
X76040178Y-68177004D01*
X76092401Y-68146854D01*
X76160301Y-68130381D01*
X76216399Y-68146854D01*
X76322609Y-68208173D01*
X76322616Y-68208177D01*
X76475343Y-68249100D01*
X76475345Y-68249100D01*
X76633455Y-68249100D01*
X76633457Y-68249100D01*
X76786184Y-68208177D01*
X76923116Y-68129120D01*
X77034920Y-68017316D01*
X77113977Y-67880384D01*
X77154900Y-67727657D01*
X77154900Y-67597830D01*
X77174585Y-67530791D01*
X77216899Y-67490443D01*
X77292401Y-67446852D01*
X77360301Y-67430382D01*
X77416398Y-67446852D01*
X77491900Y-67490443D01*
X77540115Y-67541009D01*
X77553900Y-67597830D01*
X77553900Y-67727657D01*
X77581452Y-67830480D01*
X77594823Y-67880383D01*
X77594826Y-67880390D01*
X77673875Y-68017309D01*
X77673879Y-68017314D01*
X77673880Y-68017316D01*
X77785684Y-68129120D01*
X77785686Y-68129121D01*
X77785690Y-68129124D01*
X77901746Y-68196128D01*
X77922616Y-68208177D01*
X78075343Y-68249100D01*
X78075345Y-68249100D01*
X78233452Y-68249100D01*
X78233457Y-68249100D01*
X78233461Y-68249098D01*
X78238705Y-68248408D01*
X78307741Y-68259169D01*
X78360001Y-68305544D01*
X78377466Y-68366355D01*
X78377839Y-68366306D01*
X78378166Y-68368791D01*
X78378900Y-68371346D01*
X78378900Y-68374366D01*
X78393729Y-68429709D01*
X78418119Y-68520736D01*
X78456002Y-68586350D01*
X78493885Y-68651965D01*
X78601035Y-68759115D01*
X78659362Y-68792790D01*
X78724633Y-68830475D01*
X78732265Y-68834881D01*
X78878634Y-68874100D01*
X78878636Y-68874100D01*
X79030164Y-68874100D01*
X79030166Y-68874100D01*
X79176535Y-68834881D01*
X79307765Y-68759115D01*
X79414915Y-68651965D01*
X79490681Y-68520735D01*
X79529900Y-68374366D01*
X79529900Y-68312943D01*
X94411500Y-68312943D01*
X94411500Y-68471057D01*
X94451564Y-68620576D01*
X94452423Y-68623783D01*
X94452426Y-68623790D01*
X94531475Y-68760709D01*
X94531479Y-68760714D01*
X94531480Y-68760716D01*
X94643284Y-68872520D01*
X94643286Y-68872521D01*
X94643290Y-68872524D01*
X94780209Y-68951573D01*
X94780216Y-68951577D01*
X94932943Y-68992500D01*
X94932945Y-68992500D01*
X95091055Y-68992500D01*
X95091057Y-68992500D01*
X95243784Y-68951577D01*
X95380716Y-68872520D01*
X95492520Y-68760716D01*
X95492520Y-68760715D01*
X95498267Y-68754969D01*
X95500175Y-68756877D01*
X95545885Y-68723497D01*
X95615631Y-68719338D01*
X95676553Y-68753547D01*
X95697949Y-68785982D01*
X95698359Y-68785746D01*
X95702329Y-68792622D01*
X95702400Y-68792730D01*
X95702422Y-68792784D01*
X95781475Y-68929709D01*
X95781479Y-68929714D01*
X95781480Y-68929716D01*
X95893284Y-69041520D01*
X95893286Y-69041521D01*
X95893290Y-69041524D01*
X96030209Y-69120573D01*
X96030216Y-69120577D01*
X96182943Y-69161500D01*
X96182945Y-69161500D01*
X96341055Y-69161500D01*
X96341057Y-69161500D01*
X96493784Y-69120577D01*
X96630716Y-69041520D01*
X96742520Y-68929716D01*
X96821577Y-68792784D01*
X96837879Y-68731943D01*
X98661500Y-68731943D01*
X98661500Y-68890057D01*
X98702086Y-69041524D01*
X98702423Y-69042783D01*
X98702426Y-69042790D01*
X98781475Y-69179709D01*
X98781479Y-69179714D01*
X98781480Y-69179716D01*
X98893284Y-69291520D01*
X98893286Y-69291521D01*
X98893290Y-69291524D01*
X99030209Y-69370573D01*
X99030216Y-69370577D01*
X99182943Y-69411500D01*
X99182945Y-69411500D01*
X99341055Y-69411500D01*
X99341057Y-69411500D01*
X99493784Y-69370577D01*
X99630716Y-69291520D01*
X99742520Y-69179716D01*
X99821577Y-69042784D01*
X99862500Y-68890057D01*
X99862500Y-68731943D01*
X100911500Y-68731943D01*
X100911500Y-68890057D01*
X100952086Y-69041524D01*
X100952423Y-69042783D01*
X100952426Y-69042790D01*
X101031475Y-69179709D01*
X101031479Y-69179714D01*
X101031480Y-69179716D01*
X101143284Y-69291520D01*
X101143286Y-69291521D01*
X101143290Y-69291524D01*
X101280209Y-69370573D01*
X101280216Y-69370577D01*
X101432943Y-69411500D01*
X101432945Y-69411500D01*
X101591055Y-69411500D01*
X101591057Y-69411500D01*
X101743784Y-69370577D01*
X101880716Y-69291520D01*
X101940293Y-69231943D01*
X126161500Y-69231943D01*
X126161500Y-69390057D01*
X126202086Y-69541524D01*
X126202423Y-69542783D01*
X126202426Y-69542790D01*
X126281475Y-69679709D01*
X126281479Y-69679714D01*
X126281480Y-69679716D01*
X126393284Y-69791520D01*
X126393286Y-69791521D01*
X126393290Y-69791524D01*
X126497733Y-69851823D01*
X126530216Y-69870577D01*
X126682943Y-69911500D01*
X126682945Y-69911500D01*
X126841055Y-69911500D01*
X126841057Y-69911500D01*
X126993784Y-69870577D01*
X127130716Y-69791520D01*
X127242520Y-69679716D01*
X127321577Y-69542784D01*
X127362500Y-69390057D01*
X127362500Y-69231943D01*
X127321577Y-69079216D01*
X127299816Y-69041524D01*
X127242524Y-68942290D01*
X127242518Y-68942282D01*
X127130717Y-68830481D01*
X127130709Y-68830475D01*
X126993790Y-68751426D01*
X126993786Y-68751424D01*
X126993784Y-68751423D01*
X126841057Y-68710500D01*
X126682943Y-68710500D01*
X126530216Y-68751423D01*
X126530209Y-68751426D01*
X126393290Y-68830475D01*
X126393282Y-68830481D01*
X126281481Y-68942282D01*
X126281475Y-68942290D01*
X126202426Y-69079209D01*
X126202423Y-69079216D01*
X126161500Y-69231943D01*
X101940293Y-69231943D01*
X101992520Y-69179716D01*
X101996352Y-69173078D01*
X102002855Y-69161816D01*
X102050547Y-69079209D01*
X102071577Y-69042784D01*
X102112500Y-68890057D01*
X102112500Y-68731943D01*
X102071577Y-68579216D01*
X102049816Y-68541524D01*
X101992524Y-68442290D01*
X101992518Y-68442282D01*
X101880717Y-68330481D01*
X101880709Y-68330475D01*
X101743790Y-68251426D01*
X101743786Y-68251424D01*
X101743784Y-68251423D01*
X101591057Y-68210500D01*
X101432943Y-68210500D01*
X101280216Y-68251423D01*
X101280209Y-68251426D01*
X101143290Y-68330475D01*
X101143282Y-68330481D01*
X101031481Y-68442282D01*
X101031475Y-68442290D01*
X100952426Y-68579209D01*
X100952423Y-68579216D01*
X100911500Y-68731943D01*
X99862500Y-68731943D01*
X99821577Y-68579216D01*
X99799816Y-68541524D01*
X99742524Y-68442290D01*
X99742518Y-68442282D01*
X99630717Y-68330481D01*
X99630709Y-68330475D01*
X99493790Y-68251426D01*
X99493786Y-68251424D01*
X99493784Y-68251423D01*
X99341057Y-68210500D01*
X99182943Y-68210500D01*
X99030216Y-68251423D01*
X99030209Y-68251426D01*
X98893290Y-68330475D01*
X98893282Y-68330481D01*
X98781481Y-68442282D01*
X98781475Y-68442290D01*
X98702426Y-68579209D01*
X98702423Y-68579216D01*
X98661500Y-68731943D01*
X96837879Y-68731943D01*
X96862500Y-68640057D01*
X96862500Y-68481943D01*
X96821577Y-68329216D01*
X96781136Y-68259169D01*
X96742524Y-68192290D01*
X96742518Y-68192282D01*
X96630717Y-68080481D01*
X96630716Y-68080480D01*
X96493784Y-68001423D01*
X96421084Y-67981943D01*
X128161500Y-67981943D01*
X128161500Y-68140057D01*
X128191341Y-68251423D01*
X128202423Y-68292783D01*
X128202426Y-68292790D01*
X128281475Y-68429709D01*
X128281479Y-68429714D01*
X128281480Y-68429716D01*
X128393284Y-68541520D01*
X128393286Y-68541521D01*
X128393290Y-68541524D01*
X128460765Y-68580480D01*
X128530216Y-68620577D01*
X128682943Y-68661500D01*
X128682945Y-68661500D01*
X128841055Y-68661500D01*
X128841057Y-68661500D01*
X128993784Y-68620577D01*
X129130716Y-68541520D01*
X129242520Y-68429716D01*
X129321577Y-68292784D01*
X129362500Y-68140057D01*
X129362500Y-67981943D01*
X129321577Y-67829216D01*
X129307678Y-67805142D01*
X129242524Y-67692290D01*
X129242518Y-67692282D01*
X129130717Y-67580481D01*
X129130709Y-67580475D01*
X128993790Y-67501426D01*
X128993786Y-67501424D01*
X128993784Y-67501423D01*
X128841057Y-67460500D01*
X128682943Y-67460500D01*
X128530216Y-67501423D01*
X128530209Y-67501426D01*
X128393290Y-67580475D01*
X128393282Y-67580481D01*
X128281481Y-67692282D01*
X128281475Y-67692290D01*
X128202426Y-67829209D01*
X128202423Y-67829216D01*
X128161500Y-67981943D01*
X96421084Y-67981943D01*
X96341057Y-67960500D01*
X96182943Y-67960500D01*
X96030216Y-68001423D01*
X96030209Y-68001426D01*
X95893290Y-68080475D01*
X95893282Y-68080481D01*
X95775733Y-68198031D01*
X95773830Y-68196128D01*
X95728061Y-68229521D01*
X95658313Y-68233648D01*
X95597407Y-68199412D01*
X95576050Y-68167017D01*
X95575641Y-68167254D01*
X95571662Y-68160362D01*
X95571596Y-68160262D01*
X95571575Y-68160211D01*
X95492524Y-68023290D01*
X95492518Y-68023282D01*
X95380717Y-67911481D01*
X95380709Y-67911475D01*
X95243790Y-67832426D01*
X95243786Y-67832424D01*
X95243784Y-67832423D01*
X95091057Y-67791500D01*
X94932943Y-67791500D01*
X94780216Y-67832423D01*
X94780209Y-67832426D01*
X94643290Y-67911475D01*
X94643282Y-67911481D01*
X94531481Y-68023282D01*
X94531475Y-68023290D01*
X94452426Y-68160209D01*
X94452423Y-68160216D01*
X94411500Y-68312943D01*
X79529900Y-68312943D01*
X79529900Y-68222834D01*
X79520707Y-68188526D01*
X79519832Y-68177004D01*
X79524796Y-68153687D01*
X79525363Y-68129856D01*
X79531939Y-68120139D01*
X79534382Y-68108666D01*
X79551163Y-68091735D01*
X79564525Y-68071993D01*
X79576248Y-68066426D01*
X79583568Y-68059042D01*
X79599042Y-68055603D01*
X79619282Y-68045993D01*
X79688728Y-68032180D01*
X79787324Y-67991340D01*
X79816204Y-67979378D01*
X79816204Y-67979377D01*
X79816211Y-67979375D01*
X79930942Y-67902714D01*
X80028514Y-67805142D01*
X80105175Y-67690411D01*
X80157980Y-67562928D01*
X80170214Y-67501423D01*
X80184900Y-67427595D01*
X80184900Y-66881943D01*
X104161500Y-66881943D01*
X104161500Y-67040057D01*
X104174621Y-67089023D01*
X104202423Y-67192783D01*
X104202426Y-67192790D01*
X104281475Y-67329709D01*
X104281479Y-67329714D01*
X104281480Y-67329716D01*
X104393284Y-67441520D01*
X104393286Y-67441521D01*
X104393290Y-67441524D01*
X104478020Y-67490442D01*
X104530216Y-67520577D01*
X104682943Y-67561500D01*
X104682945Y-67561500D01*
X104841055Y-67561500D01*
X104841057Y-67561500D01*
X104993784Y-67520577D01*
X105130716Y-67441520D01*
X105242520Y-67329716D01*
X105321577Y-67192784D01*
X105362500Y-67040057D01*
X105362500Y-66881943D01*
X105321577Y-66729216D01*
X105298707Y-66689604D01*
X105242524Y-66592290D01*
X105242518Y-66592282D01*
X105130717Y-66480481D01*
X105130709Y-66480475D01*
X104993790Y-66401426D01*
X104993786Y-66401424D01*
X104993784Y-66401423D01*
X104841057Y-66360500D01*
X104682943Y-66360500D01*
X104530216Y-66401423D01*
X104530209Y-66401426D01*
X104393290Y-66480475D01*
X104393282Y-66480481D01*
X104281481Y-66592282D01*
X104281475Y-66592290D01*
X104202426Y-66729209D01*
X104202423Y-66729216D01*
X104161500Y-66881943D01*
X80184900Y-66881943D01*
X80184900Y-66689604D01*
X80157981Y-66554277D01*
X80157980Y-66554276D01*
X80157980Y-66554272D01*
X80157978Y-66554267D01*
X80105178Y-66426795D01*
X80105171Y-66426782D01*
X80028514Y-66312058D01*
X80028511Y-66312054D01*
X79930945Y-66214488D01*
X79930941Y-66214485D01*
X79816217Y-66137828D01*
X79816204Y-66137821D01*
X79688732Y-66085021D01*
X79688722Y-66085018D01*
X79553395Y-66058100D01*
X79553393Y-66058100D01*
X79415407Y-66058100D01*
X79415405Y-66058100D01*
X79280077Y-66085018D01*
X79280067Y-66085021D01*
X79152595Y-66137821D01*
X79152582Y-66137828D01*
X79037858Y-66214485D01*
X79037854Y-66214488D01*
X78940288Y-66312054D01*
X78940285Y-66312058D01*
X78863628Y-66426782D01*
X78863621Y-66426795D01*
X78810821Y-66554267D01*
X78810818Y-66554277D01*
X78783900Y-66689604D01*
X78783900Y-67129502D01*
X78764215Y-67196541D01*
X78711411Y-67242296D01*
X78642253Y-67252240D01*
X78578697Y-67223215D01*
X78572219Y-67217183D01*
X78523117Y-67168081D01*
X78523112Y-67168077D01*
X78416900Y-67106756D01*
X78368684Y-67056189D01*
X78354900Y-66999369D01*
X78354900Y-66869545D01*
X78354900Y-66869543D01*
X78313977Y-66716816D01*
X78298266Y-66689604D01*
X78234924Y-66579890D01*
X78234918Y-66579882D01*
X78123117Y-66468081D01*
X78123109Y-66468075D01*
X77986190Y-66389026D01*
X77986186Y-66389024D01*
X77986184Y-66389023D01*
X77833457Y-66348100D01*
X77675343Y-66348100D01*
X77522616Y-66389023D01*
X77522615Y-66389023D01*
X77416399Y-66450346D01*
X77348498Y-66466817D01*
X77292401Y-66450346D01*
X77186184Y-66389023D01*
X77117342Y-66370577D01*
X77033457Y-66348100D01*
X76875343Y-66348100D01*
X76722616Y-66389023D01*
X76722615Y-66389023D01*
X76616399Y-66450346D01*
X76548498Y-66466817D01*
X76492401Y-66450346D01*
X76386184Y-66389023D01*
X76317342Y-66370577D01*
X76233457Y-66348100D01*
X76075343Y-66348100D01*
X75922616Y-66389023D01*
X75922609Y-66389026D01*
X75785690Y-66468075D01*
X75785682Y-66468081D01*
X75673881Y-66579882D01*
X75673875Y-66579890D01*
X75594826Y-66716809D01*
X75594823Y-66716816D01*
X75553900Y-66869543D01*
X75553900Y-66999369D01*
X75534215Y-67066408D01*
X75491899Y-67106757D01*
X75416399Y-67150346D01*
X75348499Y-67166817D01*
X75292401Y-67150346D01*
X75216901Y-67106757D01*
X75168685Y-67056190D01*
X75154900Y-66999369D01*
X75154900Y-66869545D01*
X75154900Y-66869543D01*
X75113977Y-66716816D01*
X75098266Y-66689604D01*
X75034924Y-66579890D01*
X75034918Y-66579882D01*
X74923117Y-66468081D01*
X74923109Y-66468075D01*
X74786190Y-66389026D01*
X74786186Y-66389024D01*
X74786184Y-66389023D01*
X74633457Y-66348100D01*
X74475343Y-66348100D01*
X74322616Y-66389023D01*
X74322615Y-66389023D01*
X74216399Y-66450346D01*
X74148498Y-66466817D01*
X74092401Y-66450346D01*
X73986184Y-66389023D01*
X73917342Y-66370577D01*
X73833457Y-66348100D01*
X73675343Y-66348100D01*
X73522616Y-66389023D01*
X73522615Y-66389023D01*
X73416399Y-66450346D01*
X73348498Y-66466817D01*
X73292401Y-66450346D01*
X73186184Y-66389023D01*
X73117342Y-66370577D01*
X73033457Y-66348100D01*
X72875343Y-66348100D01*
X72722616Y-66389023D01*
X72722609Y-66389026D01*
X72585690Y-66468075D01*
X72585682Y-66468081D01*
X72473881Y-66579882D01*
X72473875Y-66579890D01*
X72394826Y-66716809D01*
X72394823Y-66716816D01*
X72353900Y-66869543D01*
X72353900Y-66999369D01*
X72334215Y-67066408D01*
X72291900Y-67106756D01*
X72185687Y-67168077D01*
X72185682Y-67168081D01*
X72136581Y-67217183D01*
X72075258Y-67250668D01*
X72005566Y-67245684D01*
X71949633Y-67203812D01*
X71925216Y-67138348D01*
X71924900Y-67129502D01*
X71924900Y-66689604D01*
X71897981Y-66554277D01*
X71897980Y-66554276D01*
X71897980Y-66554272D01*
X71897978Y-66554267D01*
X71845178Y-66426795D01*
X71845171Y-66426782D01*
X71768514Y-66312058D01*
X71768511Y-66312054D01*
X71670945Y-66214488D01*
X71670941Y-66214485D01*
X71556217Y-66137828D01*
X71556204Y-66137821D01*
X71428732Y-66085021D01*
X71428722Y-66085018D01*
X71293395Y-66058100D01*
X71293393Y-66058100D01*
X71155407Y-66058100D01*
X71155405Y-66058100D01*
X71020077Y-66085018D01*
X71020067Y-66085021D01*
X70892595Y-66137821D01*
X70892582Y-66137828D01*
X70777858Y-66214485D01*
X70777854Y-66214488D01*
X70680288Y-66312054D01*
X70680285Y-66312058D01*
X70603628Y-66426782D01*
X70603621Y-66426795D01*
X70550821Y-66554267D01*
X70550818Y-66554277D01*
X70523900Y-66689604D01*
X70523900Y-66689607D01*
X70523900Y-67427593D01*
X70523900Y-67427595D01*
X70523899Y-67427595D01*
X67287500Y-67427595D01*
X67287500Y-65711942D01*
X90661500Y-65711942D01*
X90661500Y-65870056D01*
X90666860Y-65890057D01*
X90702423Y-66022782D01*
X90702426Y-66022789D01*
X90781475Y-66159708D01*
X90781479Y-66159713D01*
X90781480Y-66159715D01*
X90893284Y-66271519D01*
X90893286Y-66271520D01*
X90893290Y-66271523D01*
X90963493Y-66312054D01*
X91030216Y-66350576D01*
X91182943Y-66391499D01*
X91182945Y-66391499D01*
X91341055Y-66391499D01*
X91341057Y-66391499D01*
X91493784Y-66350576D01*
X91630716Y-66271519D01*
X91742520Y-66159715D01*
X91821577Y-66022783D01*
X91862500Y-65870056D01*
X91862500Y-65711942D01*
X91821577Y-65559215D01*
X91776966Y-65481945D01*
X91742524Y-65422289D01*
X91742518Y-65422281D01*
X91630717Y-65310480D01*
X91630709Y-65310474D01*
X91493790Y-65231425D01*
X91493786Y-65231423D01*
X91493784Y-65231422D01*
X91341057Y-65190499D01*
X91182943Y-65190499D01*
X91030216Y-65231422D01*
X91030209Y-65231425D01*
X90893290Y-65310474D01*
X90893282Y-65310480D01*
X90781481Y-65422281D01*
X90781475Y-65422289D01*
X90702426Y-65559208D01*
X90702423Y-65559215D01*
X90661500Y-65711942D01*
X67287500Y-65711942D01*
X67287500Y-64981943D01*
X92161500Y-64981943D01*
X92161500Y-65140057D01*
X92191341Y-65251423D01*
X92202423Y-65292783D01*
X92202426Y-65292790D01*
X92281475Y-65429709D01*
X92281479Y-65429714D01*
X92281480Y-65429716D01*
X92393284Y-65541520D01*
X92393286Y-65541521D01*
X92393290Y-65541524D01*
X92530209Y-65620573D01*
X92530216Y-65620577D01*
X92682943Y-65661500D01*
X92682945Y-65661500D01*
X92841055Y-65661500D01*
X92841057Y-65661500D01*
X92993784Y-65620577D01*
X93130716Y-65541520D01*
X93190293Y-65481943D01*
X95911500Y-65481943D01*
X95911500Y-65640057D01*
X95936122Y-65731945D01*
X95952423Y-65792783D01*
X95952426Y-65792790D01*
X96031475Y-65929709D01*
X96031479Y-65929714D01*
X96031480Y-65929716D01*
X96143284Y-66041520D01*
X96143286Y-66041521D01*
X96143290Y-66041524D01*
X96280209Y-66120573D01*
X96280216Y-66120577D01*
X96432943Y-66161500D01*
X96432945Y-66161500D01*
X96591055Y-66161500D01*
X96591057Y-66161500D01*
X96743784Y-66120577D01*
X96880716Y-66041520D01*
X96992520Y-65929716D01*
X97071577Y-65792784D01*
X97112500Y-65640057D01*
X97112500Y-65481943D01*
X97075037Y-65342128D01*
X97075037Y-65342127D01*
X97071578Y-65329220D01*
X97071577Y-65329216D01*
X97063313Y-65314902D01*
X112511500Y-65314902D01*
X112511500Y-65551097D01*
X112548446Y-65784368D01*
X112621433Y-66008996D01*
X112726136Y-66214485D01*
X112728657Y-66219433D01*
X112867483Y-66410510D01*
X113034490Y-66577517D01*
X113225567Y-66716343D01*
X113250832Y-66729216D01*
X113436003Y-66823566D01*
X113436005Y-66823566D01*
X113436008Y-66823568D01*
X113556412Y-66862689D01*
X113660631Y-66896553D01*
X113893903Y-66933500D01*
X113893908Y-66933500D01*
X114130097Y-66933500D01*
X114363368Y-66896553D01*
X114587992Y-66823568D01*
X114798433Y-66716343D01*
X114989510Y-66577517D01*
X115156517Y-66410510D01*
X115295343Y-66219433D01*
X115402568Y-66008992D01*
X115475553Y-65784368D01*
X115483856Y-65731943D01*
X115512500Y-65551097D01*
X115512500Y-65314902D01*
X116011501Y-65314902D01*
X116011501Y-65551097D01*
X116048447Y-65784368D01*
X116121434Y-66008996D01*
X116226137Y-66214485D01*
X116228658Y-66219433D01*
X116367484Y-66410510D01*
X116534491Y-66577517D01*
X116725568Y-66716343D01*
X116750833Y-66729216D01*
X116936004Y-66823566D01*
X116936006Y-66823566D01*
X116936009Y-66823568D01*
X117056413Y-66862689D01*
X117160632Y-66896553D01*
X117393904Y-66933500D01*
X117393909Y-66933500D01*
X117630098Y-66933500D01*
X117863369Y-66896553D01*
X118087993Y-66823568D01*
X118298434Y-66716343D01*
X118489511Y-66577517D01*
X118656518Y-66410510D01*
X118795344Y-66219433D01*
X118902569Y-66008992D01*
X118975554Y-65784368D01*
X118983857Y-65731943D01*
X119012501Y-65551097D01*
X119012501Y-65314902D01*
X119511500Y-65314902D01*
X119511500Y-65551097D01*
X119548446Y-65784368D01*
X119621433Y-66008996D01*
X119726136Y-66214485D01*
X119728657Y-66219433D01*
X119867483Y-66410510D01*
X120034490Y-66577517D01*
X120225567Y-66716343D01*
X120250832Y-66729216D01*
X120436003Y-66823566D01*
X120436005Y-66823566D01*
X120436008Y-66823568D01*
X120556412Y-66862689D01*
X120660631Y-66896553D01*
X120893903Y-66933500D01*
X120893908Y-66933500D01*
X121130097Y-66933500D01*
X121363368Y-66896553D01*
X121587992Y-66823568D01*
X121798433Y-66716343D01*
X121989510Y-66577517D01*
X122156517Y-66410510D01*
X122295343Y-66219433D01*
X122402568Y-66008992D01*
X122475553Y-65784368D01*
X122483856Y-65731943D01*
X122512500Y-65551097D01*
X122512500Y-65314902D01*
X122475553Y-65081631D01*
X122402566Y-64857003D01*
X122318636Y-64692282D01*
X122295343Y-64646567D01*
X122156517Y-64455490D01*
X122140927Y-64439900D01*
X123011500Y-64439900D01*
X123011500Y-66426091D01*
X123022123Y-66514562D01*
X123077639Y-66655342D01*
X123077640Y-66655344D01*
X123169077Y-66775922D01*
X123231908Y-66823568D01*
X123289658Y-66867361D01*
X123430436Y-66922876D01*
X123518901Y-66933500D01*
X125505098Y-66933499D01*
X125593564Y-66922876D01*
X125734342Y-66867361D01*
X125854922Y-66775922D01*
X125946361Y-66655342D01*
X126001876Y-66514564D01*
X126012500Y-66426099D01*
X126012499Y-65731943D01*
X126411500Y-65731943D01*
X126411500Y-65890057D01*
X126452086Y-66041524D01*
X126452423Y-66042783D01*
X126452426Y-66042790D01*
X126531475Y-66179709D01*
X126531479Y-66179714D01*
X126531480Y-66179716D01*
X126643284Y-66291520D01*
X126643286Y-66291521D01*
X126643290Y-66291524D01*
X126741284Y-66348100D01*
X126780216Y-66370577D01*
X126932943Y-66411500D01*
X126932945Y-66411500D01*
X127091055Y-66411500D01*
X127091057Y-66411500D01*
X127243784Y-66370577D01*
X127380716Y-66291520D01*
X127492520Y-66179716D01*
X127571577Y-66042784D01*
X127612500Y-65890057D01*
X127612500Y-65731943D01*
X127571577Y-65579216D01*
X127560030Y-65559215D01*
X127492524Y-65442290D01*
X127492518Y-65442282D01*
X127380717Y-65330481D01*
X127380709Y-65330475D01*
X127243790Y-65251426D01*
X127243786Y-65251424D01*
X127243784Y-65251423D01*
X127091057Y-65210500D01*
X126932943Y-65210500D01*
X126780216Y-65251423D01*
X126780209Y-65251426D01*
X126643290Y-65330475D01*
X126643282Y-65330481D01*
X126531481Y-65442282D01*
X126531475Y-65442290D01*
X126452426Y-65579209D01*
X126452423Y-65579216D01*
X126411500Y-65731943D01*
X126012499Y-65731943D01*
X126012499Y-65429717D01*
X126012499Y-64439908D01*
X126012499Y-64439902D01*
X126001876Y-64351436D01*
X125946361Y-64210658D01*
X125946359Y-64210655D01*
X125854922Y-64090077D01*
X125734344Y-63998640D01*
X125734342Y-63998639D01*
X125593564Y-63943124D01*
X125593561Y-63943123D01*
X125505099Y-63932500D01*
X123518908Y-63932500D01*
X123430437Y-63943123D01*
X123289657Y-63998639D01*
X123289655Y-63998640D01*
X123169077Y-64090077D01*
X123077640Y-64210655D01*
X123077639Y-64210658D01*
X123045254Y-64292783D01*
X123022124Y-64351437D01*
X123022123Y-64351438D01*
X123011500Y-64439900D01*
X122140927Y-64439900D01*
X121989510Y-64288483D01*
X121798433Y-64149657D01*
X121779588Y-64140055D01*
X121587996Y-64042433D01*
X121363368Y-63969446D01*
X121130097Y-63932500D01*
X121130092Y-63932500D01*
X120893908Y-63932500D01*
X120893903Y-63932500D01*
X120660631Y-63969446D01*
X120436003Y-64042433D01*
X120225566Y-64149657D01*
X120116550Y-64228862D01*
X120034490Y-64288483D01*
X120034488Y-64288485D01*
X120034487Y-64288485D01*
X119867485Y-64455487D01*
X119867485Y-64455488D01*
X119867483Y-64455490D01*
X119828547Y-64509081D01*
X119728657Y-64646566D01*
X119621433Y-64857003D01*
X119548446Y-65081631D01*
X119511500Y-65314902D01*
X119012501Y-65314902D01*
X118975554Y-65081631D01*
X118902567Y-64857003D01*
X118818637Y-64692282D01*
X118795344Y-64646567D01*
X118656518Y-64455490D01*
X118489511Y-64288483D01*
X118298434Y-64149657D01*
X118279589Y-64140055D01*
X118087997Y-64042433D01*
X117863369Y-63969446D01*
X117630098Y-63932500D01*
X117630093Y-63932500D01*
X117393909Y-63932500D01*
X117393904Y-63932500D01*
X117160632Y-63969446D01*
X116936004Y-64042433D01*
X116725567Y-64149657D01*
X116616551Y-64228862D01*
X116534491Y-64288483D01*
X116534489Y-64288485D01*
X116534488Y-64288485D01*
X116367486Y-64455487D01*
X116367486Y-64455488D01*
X116367484Y-64455490D01*
X116328548Y-64509081D01*
X116228658Y-64646566D01*
X116121434Y-64857003D01*
X116048447Y-65081631D01*
X116011501Y-65314902D01*
X115512500Y-65314902D01*
X115475553Y-65081631D01*
X115402566Y-64857003D01*
X115318636Y-64692282D01*
X115295343Y-64646567D01*
X115156517Y-64455490D01*
X114989510Y-64288483D01*
X114798433Y-64149657D01*
X114779588Y-64140055D01*
X114587996Y-64042433D01*
X114363368Y-63969446D01*
X114130097Y-63932500D01*
X114130092Y-63932500D01*
X113893908Y-63932500D01*
X113893903Y-63932500D01*
X113660631Y-63969446D01*
X113436003Y-64042433D01*
X113225566Y-64149657D01*
X113116550Y-64228862D01*
X113034490Y-64288483D01*
X113034488Y-64288485D01*
X113034487Y-64288485D01*
X112867485Y-64455487D01*
X112867485Y-64455488D01*
X112867483Y-64455490D01*
X112828547Y-64509081D01*
X112728657Y-64646566D01*
X112621433Y-64857003D01*
X112548446Y-65081631D01*
X112511500Y-65314902D01*
X97063313Y-65314902D01*
X97060759Y-65310479D01*
X96992524Y-65192290D01*
X96992518Y-65192282D01*
X96880717Y-65080481D01*
X96880709Y-65080475D01*
X96743790Y-65001426D01*
X96743786Y-65001424D01*
X96743784Y-65001423D01*
X96591057Y-64960500D01*
X96432943Y-64960500D01*
X96280216Y-65001423D01*
X96280209Y-65001426D01*
X96143290Y-65080475D01*
X96143282Y-65080481D01*
X96031481Y-65192282D01*
X96031475Y-65192290D01*
X95952426Y-65329209D01*
X95952423Y-65329216D01*
X95911500Y-65481943D01*
X93190293Y-65481943D01*
X93242520Y-65429716D01*
X93246813Y-65422281D01*
X93252855Y-65411816D01*
X93293089Y-65342127D01*
X93321577Y-65292784D01*
X93362500Y-65140057D01*
X93362500Y-64981943D01*
X93321577Y-64829216D01*
X93321573Y-64829209D01*
X93242524Y-64692290D01*
X93242518Y-64692282D01*
X93130717Y-64580481D01*
X93130709Y-64580475D01*
X92993790Y-64501426D01*
X92993786Y-64501424D01*
X92993784Y-64501423D01*
X92841057Y-64460500D01*
X92682943Y-64460500D01*
X92530216Y-64501423D01*
X92530209Y-64501426D01*
X92393290Y-64580475D01*
X92393282Y-64580481D01*
X92281481Y-64692282D01*
X92281475Y-64692290D01*
X92202426Y-64829209D01*
X92202423Y-64829216D01*
X92161500Y-64981943D01*
X67287500Y-64981943D01*
X67287500Y-63027595D01*
X70163899Y-63027595D01*
X70190818Y-63162922D01*
X70190821Y-63162932D01*
X70243621Y-63290404D01*
X70243628Y-63290417D01*
X70320285Y-63405141D01*
X70320288Y-63405145D01*
X70417854Y-63502711D01*
X70417858Y-63502714D01*
X70532582Y-63579371D01*
X70532595Y-63579378D01*
X70660067Y-63632178D01*
X70660072Y-63632180D01*
X70660076Y-63632180D01*
X70660077Y-63632181D01*
X70795404Y-63659100D01*
X70795407Y-63659100D01*
X70933395Y-63659100D01*
X71029138Y-63640055D01*
X71068728Y-63632180D01*
X71193541Y-63580481D01*
X71196204Y-63579378D01*
X71196204Y-63579377D01*
X71196211Y-63579375D01*
X71310942Y-63502714D01*
X71408514Y-63405142D01*
X71485175Y-63290411D01*
X71537980Y-63162928D01*
X71562861Y-63037843D01*
X71564900Y-63027595D01*
X79143899Y-63027595D01*
X79170818Y-63162922D01*
X79170821Y-63162932D01*
X79223621Y-63290404D01*
X79223628Y-63290417D01*
X79300285Y-63405141D01*
X79300288Y-63405145D01*
X79397854Y-63502711D01*
X79397858Y-63502714D01*
X79512582Y-63579371D01*
X79512595Y-63579378D01*
X79640067Y-63632178D01*
X79640072Y-63632180D01*
X79640076Y-63632180D01*
X79640077Y-63632181D01*
X79775404Y-63659100D01*
X79775407Y-63659100D01*
X79913395Y-63659100D01*
X80009138Y-63640055D01*
X80048728Y-63632180D01*
X80173541Y-63580481D01*
X80176204Y-63579378D01*
X80176204Y-63579377D01*
X80176211Y-63579375D01*
X80290942Y-63502714D01*
X80388514Y-63405142D01*
X80465175Y-63290411D01*
X80517980Y-63162928D01*
X80542861Y-63037843D01*
X80544900Y-63027595D01*
X80544900Y-62981943D01*
X91561500Y-62981943D01*
X91561500Y-63140057D01*
X91601786Y-63290404D01*
X91602423Y-63292783D01*
X91602426Y-63292790D01*
X91681475Y-63429709D01*
X91681479Y-63429714D01*
X91681480Y-63429716D01*
X91793284Y-63541520D01*
X91793286Y-63541521D01*
X91793290Y-63541524D01*
X91860765Y-63580480D01*
X91930216Y-63620577D01*
X92082943Y-63661500D01*
X92082945Y-63661500D01*
X92241055Y-63661500D01*
X92241057Y-63661500D01*
X92393784Y-63620577D01*
X92530716Y-63541520D01*
X92590293Y-63481943D01*
X95661500Y-63481943D01*
X95661500Y-63640057D01*
X95667246Y-63661499D01*
X95702423Y-63792783D01*
X95702426Y-63792790D01*
X95781475Y-63929709D01*
X95781479Y-63929714D01*
X95781480Y-63929716D01*
X95893284Y-64041520D01*
X95893286Y-64041521D01*
X95893290Y-64041524D01*
X96030209Y-64120573D01*
X96030216Y-64120577D01*
X96182943Y-64161500D01*
X96182945Y-64161500D01*
X96341055Y-64161500D01*
X96341057Y-64161500D01*
X96493784Y-64120577D01*
X96630716Y-64041520D01*
X96690293Y-63981943D01*
X102661500Y-63981943D01*
X102661500Y-64140057D01*
X102680418Y-64210658D01*
X102702423Y-64292783D01*
X102702426Y-64292790D01*
X102781475Y-64429709D01*
X102781479Y-64429714D01*
X102781480Y-64429716D01*
X102893284Y-64541520D01*
X102893286Y-64541521D01*
X102893290Y-64541524D01*
X102960765Y-64580480D01*
X103030216Y-64620577D01*
X103182943Y-64661500D01*
X103182945Y-64661500D01*
X103341055Y-64661500D01*
X103341057Y-64661500D01*
X103493784Y-64620577D01*
X103630716Y-64541520D01*
X103742520Y-64429716D01*
X103821577Y-64292784D01*
X103862500Y-64140057D01*
X103862500Y-63981943D01*
X103821577Y-63829216D01*
X103800543Y-63792783D01*
X103742524Y-63692290D01*
X103742518Y-63692282D01*
X103630717Y-63580481D01*
X103630709Y-63580475D01*
X103493790Y-63501426D01*
X103493786Y-63501424D01*
X103493784Y-63501423D01*
X103341057Y-63460500D01*
X103182943Y-63460500D01*
X103030216Y-63501423D01*
X103030209Y-63501426D01*
X102893290Y-63580475D01*
X102893282Y-63580481D01*
X102781481Y-63692282D01*
X102781475Y-63692290D01*
X102702426Y-63829209D01*
X102702423Y-63829216D01*
X102661500Y-63981943D01*
X96690293Y-63981943D01*
X96742520Y-63929716D01*
X96746352Y-63923078D01*
X96752855Y-63911816D01*
X96800547Y-63829209D01*
X96821577Y-63792784D01*
X96862500Y-63640057D01*
X96862500Y-63481943D01*
X96821577Y-63329216D01*
X96799169Y-63290404D01*
X96742524Y-63192290D01*
X96742518Y-63192282D01*
X96630717Y-63080481D01*
X96630709Y-63080475D01*
X96493790Y-63001426D01*
X96493786Y-63001424D01*
X96493784Y-63001423D01*
X96341057Y-62960500D01*
X96182943Y-62960500D01*
X96030216Y-63001423D01*
X96030209Y-63001426D01*
X95893290Y-63080475D01*
X95893282Y-63080481D01*
X95781481Y-63192282D01*
X95781475Y-63192290D01*
X95702426Y-63329209D01*
X95702423Y-63329216D01*
X95661500Y-63481943D01*
X92590293Y-63481943D01*
X92642520Y-63429716D01*
X92646352Y-63423078D01*
X92652855Y-63411816D01*
X92700547Y-63329209D01*
X92721577Y-63292784D01*
X92762500Y-63140057D01*
X92762500Y-62981943D01*
X92735112Y-62879730D01*
X99287194Y-62879730D01*
X99287194Y-63037844D01*
X99320709Y-63162922D01*
X99328117Y-63190570D01*
X99328120Y-63190577D01*
X99407169Y-63327496D01*
X99407173Y-63327501D01*
X99407174Y-63327503D01*
X99518978Y-63439307D01*
X99518980Y-63439308D01*
X99518984Y-63439311D01*
X99626567Y-63501423D01*
X99655910Y-63518364D01*
X99808637Y-63559287D01*
X99808639Y-63559287D01*
X99966749Y-63559287D01*
X99966751Y-63559287D01*
X100119478Y-63518364D01*
X100256410Y-63439307D01*
X100368214Y-63327503D01*
X100447271Y-63190571D01*
X100488194Y-63037844D01*
X100488194Y-62879730D01*
X100447271Y-62727003D01*
X100409453Y-62661499D01*
X100368218Y-62590077D01*
X100368212Y-62590069D01*
X100256411Y-62478268D01*
X100256403Y-62478262D01*
X100119484Y-62399213D01*
X100119480Y-62399211D01*
X100119478Y-62399210D01*
X99966751Y-62358287D01*
X99808637Y-62358287D01*
X99655910Y-62399210D01*
X99655903Y-62399213D01*
X99518984Y-62478262D01*
X99518976Y-62478268D01*
X99407175Y-62590069D01*
X99407169Y-62590077D01*
X99328120Y-62726996D01*
X99328117Y-62727003D01*
X99287194Y-62879730D01*
X92735112Y-62879730D01*
X92721577Y-62829216D01*
X92662561Y-62726996D01*
X92642524Y-62692290D01*
X92642518Y-62692282D01*
X92530717Y-62580481D01*
X92530709Y-62580475D01*
X92393790Y-62501426D01*
X92393786Y-62501424D01*
X92393784Y-62501423D01*
X92241057Y-62460500D01*
X92082943Y-62460500D01*
X91930216Y-62501423D01*
X91930209Y-62501426D01*
X91793290Y-62580475D01*
X91793282Y-62580481D01*
X91681481Y-62692282D01*
X91681475Y-62692290D01*
X91602426Y-62829209D01*
X91602423Y-62829216D01*
X91561500Y-62981943D01*
X80544900Y-62981943D01*
X80544900Y-62289604D01*
X80517981Y-62154277D01*
X80517980Y-62154276D01*
X80517980Y-62154272D01*
X80512091Y-62140055D01*
X80465179Y-62026797D01*
X80465171Y-62026782D01*
X80435210Y-61981943D01*
X85661500Y-61981943D01*
X85661500Y-62140056D01*
X85702423Y-62292783D01*
X85702426Y-62292790D01*
X85781475Y-62429709D01*
X85781479Y-62429714D01*
X85781480Y-62429716D01*
X85893284Y-62541520D01*
X85893286Y-62541521D01*
X85893290Y-62541524D01*
X85977388Y-62590077D01*
X86030216Y-62620577D01*
X86182943Y-62661500D01*
X86182945Y-62661500D01*
X86341055Y-62661500D01*
X86341057Y-62661500D01*
X86493784Y-62620577D01*
X86630716Y-62541520D01*
X86742520Y-62429716D01*
X86821577Y-62292784D01*
X86862500Y-62140057D01*
X86862500Y-61981943D01*
X86821577Y-61829216D01*
X86768811Y-61737821D01*
X86742524Y-61692290D01*
X86742518Y-61692282D01*
X86630717Y-61580481D01*
X86630709Y-61580475D01*
X86493790Y-61501426D01*
X86493786Y-61501424D01*
X86493784Y-61501423D01*
X86341057Y-61460500D01*
X86182943Y-61460500D01*
X86030216Y-61501423D01*
X86030209Y-61501426D01*
X85893290Y-61580475D01*
X85893282Y-61580481D01*
X85781481Y-61692282D01*
X85781475Y-61692290D01*
X85702426Y-61829209D01*
X85702423Y-61829216D01*
X85661500Y-61981943D01*
X80435210Y-61981943D01*
X80388514Y-61912058D01*
X80388511Y-61912054D01*
X80290945Y-61814488D01*
X80290941Y-61814485D01*
X80176217Y-61737828D01*
X80176204Y-61737821D01*
X80048732Y-61685021D01*
X80048722Y-61685018D01*
X79913395Y-61658100D01*
X79913393Y-61658100D01*
X79775407Y-61658100D01*
X79775405Y-61658100D01*
X79640077Y-61685018D01*
X79640067Y-61685021D01*
X79512595Y-61737821D01*
X79512582Y-61737828D01*
X79397858Y-61814485D01*
X79397854Y-61814488D01*
X79300288Y-61912054D01*
X79300285Y-61912058D01*
X79223628Y-62026782D01*
X79223621Y-62026795D01*
X79170821Y-62154267D01*
X79170818Y-62154277D01*
X79143900Y-62289604D01*
X79143900Y-62289607D01*
X79143900Y-63027593D01*
X79143900Y-63027595D01*
X79143899Y-63027595D01*
X71564900Y-63027595D01*
X71564900Y-62289604D01*
X71537981Y-62154277D01*
X71537980Y-62154276D01*
X71537980Y-62154272D01*
X71532091Y-62140055D01*
X71485178Y-62026795D01*
X71485171Y-62026782D01*
X71408514Y-61912058D01*
X71408511Y-61912054D01*
X71310945Y-61814488D01*
X71310941Y-61814485D01*
X71196217Y-61737828D01*
X71196204Y-61737821D01*
X71068732Y-61685021D01*
X71068722Y-61685018D01*
X70933395Y-61658100D01*
X70933393Y-61658100D01*
X70795407Y-61658100D01*
X70795405Y-61658100D01*
X70660077Y-61685018D01*
X70660067Y-61685021D01*
X70532595Y-61737821D01*
X70532582Y-61737828D01*
X70417858Y-61814485D01*
X70417854Y-61814488D01*
X70320288Y-61912054D01*
X70320285Y-61912058D01*
X70243628Y-62026782D01*
X70243621Y-62026795D01*
X70190821Y-62154267D01*
X70190818Y-62154277D01*
X70163900Y-62289604D01*
X70163900Y-62289607D01*
X70163900Y-63027593D01*
X70163900Y-63027595D01*
X70163899Y-63027595D01*
X67287500Y-63027595D01*
X67287500Y-61307746D01*
X67307185Y-61240707D01*
X67359989Y-61194952D01*
X67409366Y-61183766D01*
X84750939Y-60886517D01*
X84753064Y-60886500D01*
X130612500Y-60886500D01*
X130679539Y-60906185D01*
G37*
%TD.AperFunction*%
%TD*%
M02*
