%TF.GenerationSoftware,KiCad,Pcbnew,10.0.5*%
%TF.CreationDate,2026-08-24T21:40:42-04:00*%
%TF.ProjectId,Brand-X,4272616e-642d-4582-9e6b-696361645f70,rev?*%
%TF.SameCoordinates,Original*%
%TF.FileFunction,Copper,L3,Inr*%
%TF.FilePolarity,Positive*%
%FSLAX46Y46*%
G04 Gerber Fmt 4.6, Leading zero omitted, Abs format (unit mm)*
G04 Created by KiCad (PCBNEW 10.0.5) date 2026-08-24 21:40:42*
%MOMM*%
%LPD*%
G01*
G04 APERTURE LIST*
G04 Aperture macros list*
%AMRoundRect*
0 Rectangle with rounded corners*
0 $1 Rounding radius*
0 $2 $3 $4 $5 $6 $7 $8 $9 X,Y pos of 4 corners*
0 Add a 4 corners polygon primitive as box body*
4,1,4,$2,$3,$4,$5,$6,$7,$8,$9,$2,$3,0*
0 Add four circle primitives for the rounded corners*
1,1,$1+$1,$2,$3*
1,1,$1+$1,$4,$5*
1,1,$1+$1,$6,$7*
1,1,$1+$1,$8,$9*
0 Add four rect primitives between the rounded corners*
20,1,$1+$1,$2,$3,$4,$5,0*
20,1,$1+$1,$4,$5,$6,$7,0*
20,1,$1+$1,$6,$7,$8,$9,0*
20,1,$1+$1,$8,$9,$2,$3,0*%
G04 Aperture macros list end*
%TA.AperFunction,ComponentPad*%
%ADD10R,1.600000X1.600000*%
%TD*%
%TA.AperFunction,ComponentPad*%
%ADD11C,1.600000*%
%TD*%
%TA.AperFunction,ComponentPad*%
%ADD12C,2.000000*%
%TD*%
%TA.AperFunction,ComponentPad*%
%ADD13RoundRect,0.250001X-0.949999X-0.949999X0.949999X-0.949999X0.949999X0.949999X-0.949999X0.949999X0*%
%TD*%
%TA.AperFunction,ComponentPad*%
%ADD14C,2.400000*%
%TD*%
%TA.AperFunction,ComponentPad*%
%ADD15RoundRect,0.250001X0.949999X0.949999X-0.949999X0.949999X-0.949999X-0.949999X0.949999X-0.949999X0*%
%TD*%
%TA.AperFunction,ComponentPad*%
%ADD16C,0.600000*%
%TD*%
%TA.AperFunction,ComponentPad*%
%ADD17O,0.800000X1.400000*%
%TD*%
%TA.AperFunction,ViaPad*%
%ADD18C,0.600000*%
%TD*%
G04 APERTURE END LIST*
D10*
%TO.N,/Speaker*%
%TO.C,LS1*%
X74262000Y-81261000D03*
D11*
%TO.N,GND*%
X70262000Y-81261000D03*
%TD*%
D12*
%TO.N,/TX*%
%TO.C,TP3*%
X79462000Y-79661000D03*
%TD*%
D13*
%TO.N,/MP_D*%
%TO.C,J2*%
X114033000Y-81561000D03*
D14*
%TO.N,GND*%
X117533000Y-81561000D03*
%TO.N,/DP_D*%
X121033000Y-81561000D03*
%TO.N,GND*%
X124533000Y-81561000D03*
%TD*%
D15*
%TO.N,VMOS*%
%TO.C,J5*%
X124512000Y-65433000D03*
D14*
%TO.N,+BATT*%
X121012000Y-65433000D03*
%TO.N,GND*%
X117512001Y-65433000D03*
%TO.N,+BATT*%
X114012000Y-65433000D03*
%TD*%
D16*
%TO.N,GND*%
%TO.C,J6*%
X72554400Y-67648600D03*
%TO.N,unconnected-(J6-SSTXP2-PadB2)*%
X72954400Y-66948600D03*
%TO.N,unconnected-(J6-SSTXN2-PadB3)*%
X73754400Y-66948600D03*
%TO.N,VBUS*%
X74154400Y-67648600D03*
%TO.N,Net-(J6-CC2)*%
X74554400Y-66948600D03*
%TO.N,/USB_D+*%
X74954400Y-67648600D03*
%TO.N,/USB_D-*%
X75754400Y-67648600D03*
%TO.N,unconnected-(J6-SBU2-PadB8)*%
X76154400Y-66948600D03*
%TO.N,VBUS*%
X76554400Y-67648600D03*
%TO.N,unconnected-(J6-SSRXN1-PadB10)*%
X76954400Y-66948600D03*
%TO.N,unconnected-(J6-SSRXP1-PadB11)*%
X77754400Y-66948600D03*
%TO.N,GND*%
X78154400Y-67648600D03*
D17*
X79484400Y-67058600D03*
X71224400Y-67058600D03*
X79844400Y-62658600D03*
X70864400Y-62658600D03*
%TD*%
D12*
%TO.N,/RX*%
%TO.C,TP4*%
X79462000Y-82861000D03*
%TD*%
D18*
%TO.N,GND*%
X102512000Y-74311000D03*
X98512000Y-83061000D03*
X96262000Y-63561000D03*
X100762000Y-80561000D03*
X103262000Y-64061000D03*
X95012000Y-68392000D03*
X129762000Y-84311000D03*
X108012000Y-77811000D03*
X90762000Y-76311000D03*
X104762000Y-66961000D03*
X104262000Y-74061000D03*
X101512000Y-68811000D03*
X88762000Y-79811000D03*
X108762000Y-71061000D03*
X117012000Y-71311000D03*
X99887694Y-62958787D03*
X70388002Y-72033633D03*
X125762000Y-70561000D03*
X98562000Y-84761000D03*
X103762000Y-71561000D03*
X127012000Y-65811000D03*
X89262000Y-71061000D03*
X86262000Y-62061000D03*
X77262000Y-72811000D03*
X98762000Y-79061000D03*
X86012000Y-85061000D03*
X92262000Y-78561000D03*
X109262000Y-83311000D03*
X99262000Y-72561000D03*
X69262000Y-84561000D03*
%TO.N,+3V3*%
X103012000Y-77811000D03*
X110262000Y-77811000D03*
X106262000Y-77561000D03*
X125012000Y-69811000D03*
X107362000Y-66561000D03*
X97262000Y-70561000D03*
X82512000Y-84561000D03*
X121762000Y-70561000D03*
X109512000Y-62061000D03*
X92512000Y-73561000D03*
X103512000Y-62061000D03*
X99762000Y-74561000D03*
X96012000Y-83061000D03*
X100012000Y-65561000D03*
X91012000Y-61561000D03*
X98012000Y-80561000D03*
X100512000Y-83811000D03*
X100012000Y-77811000D03*
%TO.N,/USB_D+*%
X75617900Y-70411400D03*
%TO.N,VMOS*%
X89762000Y-69061000D03*
%TO.N,/DN_D*%
X130262000Y-68311000D03*
X128519337Y-71807999D03*
%TO.N,/DROGUE_CONT*%
X123512000Y-70561000D03*
X94512000Y-73311000D03*
%TO.N,/Speaker*%
X104541876Y-76274500D03*
X80762000Y-84561000D03*
%TO.N,/MOS_D*%
X127762000Y-78061000D03*
X113262000Y-78811000D03*
%TO.N,/DN_G*%
X126762000Y-69311000D03*
X128762000Y-68061000D03*
%TO.N,+1V1*%
X89012000Y-76561000D03*
X90762000Y-78311000D03*
X99262000Y-68811000D03*
X95762000Y-75311000D03*
%TO.N,/R*%
X92762000Y-65061000D03*
X96264193Y-71311000D03*
%TO.N,/Mode_Sel*%
X96512000Y-65561000D03*
X96262000Y-68561000D03*
%TO.N,/TX*%
X96962000Y-76361000D03*
%TO.N,/MAIN_CONT*%
X92262000Y-70061000D03*
X123262000Y-73311000D03*
%TO.N,/QSPI_SS*%
X94781000Y-83380000D03*
%TO.N,/RX*%
X98162000Y-76161000D03*
%TO.N,/G*%
X91262000Y-65790999D03*
X93731670Y-70059542D03*
%TO.N,/B*%
X95512000Y-72291745D03*
X92162000Y-63061000D03*
%TD*%
%TA.AperFunction,Conductor*%
%TO.N,GND*%
G36*
X130679539Y-60906185D02*
G01*
X130725294Y-60958989D01*
X130736500Y-61010500D01*
X130736500Y-67676780D01*
X130716815Y-67743819D01*
X130664011Y-67789574D01*
X130594853Y-67799518D01*
X130550501Y-67784168D01*
X130493784Y-67751423D01*
X130465405Y-67743819D01*
X130341057Y-67710500D01*
X130182943Y-67710500D01*
X130030216Y-67751423D01*
X130030209Y-67751426D01*
X129893290Y-67830475D01*
X129893282Y-67830481D01*
X129781481Y-67942282D01*
X129781475Y-67942290D01*
X129702426Y-68079209D01*
X129702423Y-68079216D01*
X129661500Y-68231943D01*
X129661500Y-68390057D01*
X129702086Y-68541524D01*
X129702423Y-68542783D01*
X129702426Y-68542790D01*
X129781475Y-68679709D01*
X129781479Y-68679714D01*
X129781480Y-68679716D01*
X129893284Y-68791520D01*
X129893286Y-68791521D01*
X129893290Y-68791524D01*
X130030209Y-68870573D01*
X130030216Y-68870577D01*
X130182943Y-68911500D01*
X130182945Y-68911500D01*
X130341055Y-68911500D01*
X130341057Y-68911500D01*
X130493784Y-68870577D01*
X130550500Y-68837831D01*
X130618400Y-68821359D01*
X130684427Y-68844212D01*
X130727618Y-68899133D01*
X130736500Y-68945219D01*
X130736500Y-78874061D01*
X130736448Y-78877649D01*
X130526930Y-86115088D01*
X130505314Y-86181530D01*
X130451208Y-86225738D01*
X130402982Y-86235500D01*
X77372047Y-86235500D01*
X77370802Y-86235494D01*
X67410255Y-86135488D01*
X67343417Y-86115131D01*
X67298194Y-86061870D01*
X67287500Y-86011494D01*
X67287500Y-84481943D01*
X80161500Y-84481943D01*
X80161500Y-84640056D01*
X80202423Y-84792783D01*
X80202426Y-84792790D01*
X80281475Y-84929709D01*
X80281479Y-84929714D01*
X80281480Y-84929716D01*
X80393284Y-85041520D01*
X80393286Y-85041521D01*
X80393290Y-85041524D01*
X80530209Y-85120573D01*
X80530216Y-85120577D01*
X80682943Y-85161500D01*
X80682945Y-85161500D01*
X80841055Y-85161500D01*
X80841057Y-85161500D01*
X80993784Y-85120577D01*
X81130716Y-85041520D01*
X81242520Y-84929716D01*
X81321577Y-84792784D01*
X81362500Y-84640057D01*
X81362500Y-84481943D01*
X81911500Y-84481943D01*
X81911500Y-84640056D01*
X81952423Y-84792783D01*
X81952426Y-84792790D01*
X82031475Y-84929709D01*
X82031479Y-84929714D01*
X82031480Y-84929716D01*
X82143284Y-85041520D01*
X82143286Y-85041521D01*
X82143290Y-85041524D01*
X82280209Y-85120573D01*
X82280216Y-85120577D01*
X82432943Y-85161500D01*
X82432945Y-85161500D01*
X82591055Y-85161500D01*
X82591057Y-85161500D01*
X82743784Y-85120577D01*
X82880716Y-85041520D01*
X82992520Y-84929716D01*
X83071577Y-84792784D01*
X83112500Y-84640057D01*
X83112500Y-84481943D01*
X83071577Y-84329216D01*
X83049816Y-84291524D01*
X82992524Y-84192290D01*
X82992518Y-84192282D01*
X82880717Y-84080481D01*
X82880709Y-84080475D01*
X82743790Y-84001426D01*
X82743786Y-84001424D01*
X82743784Y-84001423D01*
X82591057Y-83960500D01*
X82432943Y-83960500D01*
X82280216Y-84001423D01*
X82280209Y-84001426D01*
X82143290Y-84080475D01*
X82143282Y-84080481D01*
X82031481Y-84192282D01*
X82031475Y-84192290D01*
X81952426Y-84329209D01*
X81952423Y-84329216D01*
X81911500Y-84481943D01*
X81362500Y-84481943D01*
X81321577Y-84329216D01*
X81299816Y-84291524D01*
X81242524Y-84192290D01*
X81242518Y-84192282D01*
X81130717Y-84080481D01*
X81130709Y-84080475D01*
X80993790Y-84001426D01*
X80993786Y-84001424D01*
X80993784Y-84001423D01*
X80841057Y-83960500D01*
X80682943Y-83960500D01*
X80530216Y-84001423D01*
X80530211Y-84001425D01*
X80478542Y-84031255D01*
X80478532Y-84031262D01*
X80393284Y-84080480D01*
X80328580Y-84145183D01*
X80328572Y-84145190D01*
X80281481Y-84192282D01*
X80281475Y-84192290D01*
X80202426Y-84329209D01*
X80202423Y-84329216D01*
X80161500Y-84481943D01*
X67287500Y-84481943D01*
X67287500Y-82758648D01*
X78161500Y-82758648D01*
X78161500Y-82963351D01*
X78193522Y-83165534D01*
X78256781Y-83360223D01*
X78349715Y-83542613D01*
X78470028Y-83708213D01*
X78614786Y-83852971D01*
X78762790Y-83960500D01*
X78780390Y-83973287D01*
X78894158Y-84031255D01*
X78962776Y-84066218D01*
X78962778Y-84066218D01*
X78962781Y-84066220D01*
X79067137Y-84100127D01*
X79157465Y-84129477D01*
X79256672Y-84145190D01*
X79359648Y-84161500D01*
X79359649Y-84161500D01*
X79564351Y-84161500D01*
X79564352Y-84161500D01*
X79766534Y-84129477D01*
X79961219Y-84066220D01*
X80143610Y-83973287D01*
X80309219Y-83852966D01*
X80453966Y-83708219D01*
X80574287Y-83542610D01*
X80667220Y-83360219D01*
X80686480Y-83300943D01*
X94180500Y-83300943D01*
X94180500Y-83459057D01*
X94221423Y-83611782D01*
X94221423Y-83611783D01*
X94221426Y-83611790D01*
X94300475Y-83748709D01*
X94300479Y-83748714D01*
X94300480Y-83748716D01*
X94412284Y-83860520D01*
X94412286Y-83860521D01*
X94412290Y-83860524D01*
X94549209Y-83939573D01*
X94549216Y-83939577D01*
X94701943Y-83980500D01*
X94701945Y-83980500D01*
X94860055Y-83980500D01*
X94860057Y-83980500D01*
X95012784Y-83939577D01*
X95149716Y-83860520D01*
X95261520Y-83748716D01*
X95271204Y-83731943D01*
X99911500Y-83731943D01*
X99911500Y-83890057D01*
X99941341Y-84001423D01*
X99952423Y-84042783D01*
X99952426Y-84042790D01*
X100031475Y-84179709D01*
X100031479Y-84179714D01*
X100031480Y-84179716D01*
X100143284Y-84291520D01*
X100143286Y-84291521D01*
X100143290Y-84291524D01*
X100280209Y-84370573D01*
X100280216Y-84370577D01*
X100432943Y-84411500D01*
X100432945Y-84411500D01*
X100591055Y-84411500D01*
X100591057Y-84411500D01*
X100743784Y-84370577D01*
X100880716Y-84291520D01*
X100992520Y-84179716D01*
X101071577Y-84042784D01*
X101112500Y-83890057D01*
X101112500Y-83731943D01*
X101071577Y-83579216D01*
X101071573Y-83579209D01*
X100992524Y-83442290D01*
X100992518Y-83442282D01*
X100880717Y-83330481D01*
X100880709Y-83330475D01*
X100743790Y-83251426D01*
X100743786Y-83251424D01*
X100743784Y-83251423D01*
X100591057Y-83210500D01*
X100432943Y-83210500D01*
X100280216Y-83251423D01*
X100280209Y-83251426D01*
X100143290Y-83330475D01*
X100143282Y-83330481D01*
X100031481Y-83442282D01*
X100031475Y-83442290D01*
X99952426Y-83579209D01*
X99952423Y-83579216D01*
X99911500Y-83731943D01*
X95271204Y-83731943D01*
X95340577Y-83611784D01*
X95363808Y-83525083D01*
X95400170Y-83465426D01*
X95463016Y-83434896D01*
X95532392Y-83443190D01*
X95571262Y-83469498D01*
X95643284Y-83541520D01*
X95643286Y-83541521D01*
X95643290Y-83541524D01*
X95764982Y-83611782D01*
X95780216Y-83620577D01*
X95932943Y-83661500D01*
X95932945Y-83661500D01*
X96091055Y-83661500D01*
X96091057Y-83661500D01*
X96243784Y-83620577D01*
X96250970Y-83616427D01*
X96250973Y-83616427D01*
X96380709Y-83541524D01*
X96380708Y-83541524D01*
X96380716Y-83541520D01*
X96492520Y-83429716D01*
X96571577Y-83292784D01*
X96612500Y-83140057D01*
X96612500Y-82981943D01*
X96571577Y-82829216D01*
X96557063Y-82804077D01*
X96492524Y-82692290D01*
X96492518Y-82692282D01*
X96380717Y-82580481D01*
X96380709Y-82580475D01*
X96243790Y-82501426D01*
X96243786Y-82501424D01*
X96243784Y-82501423D01*
X96091057Y-82460500D01*
X95932943Y-82460500D01*
X95780216Y-82501423D01*
X95780209Y-82501426D01*
X95643290Y-82580475D01*
X95643282Y-82580481D01*
X95531481Y-82692282D01*
X95531475Y-82692290D01*
X95452426Y-82829209D01*
X95452423Y-82829216D01*
X95432406Y-82903923D01*
X95429193Y-82915913D01*
X95392828Y-82975574D01*
X95329981Y-83006103D01*
X95260605Y-82997808D01*
X95221737Y-82971501D01*
X95149717Y-82899481D01*
X95149709Y-82899475D01*
X95012790Y-82820426D01*
X95012786Y-82820424D01*
X95012784Y-82820423D01*
X94860057Y-82779500D01*
X94701943Y-82779500D01*
X94549216Y-82820423D01*
X94549209Y-82820426D01*
X94412290Y-82899475D01*
X94412282Y-82899481D01*
X94300481Y-83011282D01*
X94300475Y-83011290D01*
X94221426Y-83148209D01*
X94221423Y-83148216D01*
X94180500Y-83300943D01*
X80686480Y-83300943D01*
X80730477Y-83165534D01*
X80762500Y-82963352D01*
X80762500Y-82758648D01*
X80751989Y-82692284D01*
X80730477Y-82556465D01*
X80667218Y-82361776D01*
X80601992Y-82233765D01*
X80574287Y-82179390D01*
X80543486Y-82136996D01*
X80453971Y-82013786D01*
X80309213Y-81869028D01*
X80143613Y-81748715D01*
X80143612Y-81748714D01*
X80143610Y-81748713D01*
X80069594Y-81711000D01*
X79961223Y-81655781D01*
X79766534Y-81592522D01*
X79591995Y-81564878D01*
X79564352Y-81560500D01*
X79359648Y-81560500D01*
X79335329Y-81564351D01*
X79157465Y-81592522D01*
X78962776Y-81655781D01*
X78780386Y-81748715D01*
X78614786Y-81869028D01*
X78470028Y-82013786D01*
X78349715Y-82179386D01*
X78256781Y-82361776D01*
X78193522Y-82556465D01*
X78161500Y-82758648D01*
X67287500Y-82758648D01*
X67287500Y-81158682D01*
X68962000Y-81158682D01*
X68962000Y-81363317D01*
X68994009Y-81565417D01*
X69057244Y-81760031D01*
X69150141Y-81942350D01*
X69150147Y-81942359D01*
X69182523Y-81986921D01*
X69182524Y-81986922D01*
X69819861Y-81349584D01*
X69842667Y-81434694D01*
X69901910Y-81537306D01*
X69985694Y-81621090D01*
X70088306Y-81680333D01*
X70173414Y-81703137D01*
X69536076Y-82340474D01*
X69580650Y-82372859D01*
X69762968Y-82465755D01*
X69957582Y-82528990D01*
X70159683Y-82561000D01*
X70364317Y-82561000D01*
X70566417Y-82528990D01*
X70761031Y-82465755D01*
X70943349Y-82372859D01*
X70987921Y-82340474D01*
X70350585Y-81703138D01*
X70435694Y-81680333D01*
X70538306Y-81621090D01*
X70622090Y-81537306D01*
X70681333Y-81434694D01*
X70704138Y-81349585D01*
X71341474Y-81986921D01*
X71373859Y-81942349D01*
X71466755Y-81760031D01*
X71529990Y-81565417D01*
X71562000Y-81363317D01*
X71562000Y-81158682D01*
X71529990Y-80956582D01*
X71466755Y-80761968D01*
X71373859Y-80579650D01*
X71341474Y-80535077D01*
X71341474Y-80535076D01*
X70704137Y-81172413D01*
X70681333Y-81087306D01*
X70622090Y-80984694D01*
X70538306Y-80900910D01*
X70435694Y-80841667D01*
X70350584Y-80818861D01*
X70753315Y-80416131D01*
X73161500Y-80416131D01*
X73161500Y-82105856D01*
X73161502Y-82105882D01*
X73164413Y-82130987D01*
X73164415Y-82130991D01*
X73209793Y-82233764D01*
X73209794Y-82233765D01*
X73289235Y-82313206D01*
X73392009Y-82358585D01*
X73417135Y-82361500D01*
X75106864Y-82361499D01*
X75106879Y-82361497D01*
X75106882Y-82361497D01*
X75131987Y-82358586D01*
X75131988Y-82358585D01*
X75131991Y-82358585D01*
X75234765Y-82313206D01*
X75314206Y-82233765D01*
X75359585Y-82130991D01*
X75362500Y-82105865D01*
X75362499Y-80416136D01*
X75360736Y-80400931D01*
X75359586Y-80391012D01*
X75359585Y-80391010D01*
X75359585Y-80391009D01*
X75314206Y-80288235D01*
X75234765Y-80208794D01*
X75197387Y-80192290D01*
X75131992Y-80163415D01*
X75106865Y-80160500D01*
X73417143Y-80160500D01*
X73417117Y-80160502D01*
X73392012Y-80163413D01*
X73392008Y-80163415D01*
X73289235Y-80208793D01*
X73209794Y-80288234D01*
X73164415Y-80391006D01*
X73164415Y-80391008D01*
X73161500Y-80416131D01*
X70753315Y-80416131D01*
X70987922Y-80181524D01*
X70987921Y-80181523D01*
X70943359Y-80149147D01*
X70943350Y-80149141D01*
X70761031Y-80056244D01*
X70566417Y-79993009D01*
X70364317Y-79961000D01*
X70159683Y-79961000D01*
X69957582Y-79993009D01*
X69762968Y-80056244D01*
X69580644Y-80149143D01*
X69536077Y-80181523D01*
X69536077Y-80181524D01*
X70173415Y-80818861D01*
X70088306Y-80841667D01*
X69985694Y-80900910D01*
X69901910Y-80984694D01*
X69842667Y-81087306D01*
X69819861Y-81172414D01*
X69182524Y-80535077D01*
X69182523Y-80535077D01*
X69150143Y-80579644D01*
X69057244Y-80761968D01*
X68994009Y-80956582D01*
X68962000Y-81158682D01*
X67287500Y-81158682D01*
X67287500Y-81120174D01*
X67287502Y-81119543D01*
X67289263Y-80773284D01*
X67295440Y-79558648D01*
X78161500Y-79558648D01*
X78161500Y-79763351D01*
X78193522Y-79965534D01*
X78256781Y-80160223D01*
X78316618Y-80277657D01*
X78347699Y-80338658D01*
X78349715Y-80342613D01*
X78470028Y-80508213D01*
X78614786Y-80652971D01*
X78764811Y-80761968D01*
X78780390Y-80773287D01*
X78896607Y-80832503D01*
X78962776Y-80866218D01*
X78962778Y-80866218D01*
X78962781Y-80866220D01*
X79067137Y-80900127D01*
X79157465Y-80929477D01*
X79258557Y-80945488D01*
X79359648Y-80961500D01*
X79359649Y-80961500D01*
X79564351Y-80961500D01*
X79564352Y-80961500D01*
X79766534Y-80929477D01*
X79961219Y-80866220D01*
X80143610Y-80773287D01*
X80236590Y-80705732D01*
X80309213Y-80652971D01*
X80309215Y-80652968D01*
X80309219Y-80652966D01*
X80453966Y-80508219D01*
X80473056Y-80481943D01*
X97411500Y-80481943D01*
X97411500Y-80640057D01*
X97414961Y-80652971D01*
X97452423Y-80792783D01*
X97452426Y-80792790D01*
X97531475Y-80929709D01*
X97531479Y-80929714D01*
X97531480Y-80929716D01*
X97643284Y-81041520D01*
X97643286Y-81041521D01*
X97643290Y-81041524D01*
X97722588Y-81087306D01*
X97780216Y-81120577D01*
X97932943Y-81161500D01*
X97932945Y-81161500D01*
X98091055Y-81161500D01*
X98091057Y-81161500D01*
X98243784Y-81120577D01*
X98380716Y-81041520D01*
X98492520Y-80929716D01*
X98571577Y-80792784D01*
X98612500Y-80640057D01*
X98612500Y-80567900D01*
X112532500Y-80567900D01*
X112532500Y-82554091D01*
X112543123Y-82642562D01*
X112598639Y-82783342D01*
X112598640Y-82783344D01*
X112690077Y-82903922D01*
X112792966Y-82981945D01*
X112810658Y-82995361D01*
X112951436Y-83050876D01*
X113039901Y-83061500D01*
X115026098Y-83061499D01*
X115114564Y-83050876D01*
X115255342Y-82995361D01*
X115375922Y-82903922D01*
X115451637Y-82804076D01*
X115451640Y-82804074D01*
X115467357Y-82783348D01*
X115467359Y-82783344D01*
X115467361Y-82783342D01*
X115522876Y-82642564D01*
X115533500Y-82554099D01*
X115533499Y-81449575D01*
X115833000Y-81449575D01*
X115833000Y-81672424D01*
X115862085Y-81893354D01*
X115862088Y-81893367D01*
X115919763Y-82108618D01*
X116005045Y-82314502D01*
X116005054Y-82314520D01*
X116116464Y-82507491D01*
X116116473Y-82507504D01*
X116167040Y-82573403D01*
X116167043Y-82573403D01*
X116968387Y-81772059D01*
X116973889Y-81792591D01*
X117052881Y-81929408D01*
X117164592Y-82041119D01*
X117301409Y-82120111D01*
X117321940Y-82125612D01*
X116520595Y-82926955D01*
X116520595Y-82926956D01*
X116586507Y-82977533D01*
X116779485Y-83088949D01*
X116779497Y-83088954D01*
X116985381Y-83174236D01*
X117200632Y-83231911D01*
X117200645Y-83231914D01*
X117421575Y-83261000D01*
X117644425Y-83261000D01*
X117865354Y-83231914D01*
X117865367Y-83231911D01*
X118080618Y-83174236D01*
X118286502Y-83088954D01*
X118286514Y-83088949D01*
X118479498Y-82977530D01*
X118545403Y-82926957D01*
X118545404Y-82926956D01*
X117744059Y-82125612D01*
X117764591Y-82120111D01*
X117901408Y-82041119D01*
X118013119Y-81929408D01*
X118092111Y-81792591D01*
X118097612Y-81772059D01*
X118898956Y-82573404D01*
X118898957Y-82573403D01*
X118949530Y-82507498D01*
X119060949Y-82314514D01*
X119060954Y-82314502D01*
X119146236Y-82108618D01*
X119203911Y-81893367D01*
X119203914Y-81893354D01*
X119233000Y-81672424D01*
X119233000Y-81449576D01*
X119232999Y-81449574D01*
X119232121Y-81442902D01*
X119532500Y-81442902D01*
X119532500Y-81679097D01*
X119569446Y-81912368D01*
X119642433Y-82136996D01*
X119691740Y-82233765D01*
X119749657Y-82347433D01*
X119888483Y-82538510D01*
X120055490Y-82705517D01*
X120246567Y-82844343D01*
X120345991Y-82895002D01*
X120457003Y-82951566D01*
X120457005Y-82951566D01*
X120457008Y-82951568D01*
X120577412Y-82990689D01*
X120681631Y-83024553D01*
X120914903Y-83061500D01*
X120914908Y-83061500D01*
X121151097Y-83061500D01*
X121384368Y-83024553D01*
X121425187Y-83011290D01*
X121608992Y-82951568D01*
X121819433Y-82844343D01*
X122010510Y-82705517D01*
X122177517Y-82538510D01*
X122316343Y-82347433D01*
X122423568Y-82136992D01*
X122496553Y-81912368D01*
X122533500Y-81679097D01*
X122533500Y-81449575D01*
X122833000Y-81449575D01*
X122833000Y-81672424D01*
X122862085Y-81893354D01*
X122862088Y-81893367D01*
X122919763Y-82108618D01*
X123005045Y-82314502D01*
X123005054Y-82314520D01*
X123116464Y-82507491D01*
X123116473Y-82507504D01*
X123167040Y-82573403D01*
X123167043Y-82573403D01*
X123968387Y-81772059D01*
X123973889Y-81792591D01*
X124052881Y-81929408D01*
X124164592Y-82041119D01*
X124301409Y-82120111D01*
X124321940Y-82125612D01*
X123520595Y-82926955D01*
X123520595Y-82926956D01*
X123586507Y-82977533D01*
X123779485Y-83088949D01*
X123779497Y-83088954D01*
X123985381Y-83174236D01*
X124200632Y-83231911D01*
X124200645Y-83231914D01*
X124421575Y-83261000D01*
X124644425Y-83261000D01*
X124865354Y-83231914D01*
X124865367Y-83231911D01*
X125080618Y-83174236D01*
X125286502Y-83088954D01*
X125286514Y-83088949D01*
X125479498Y-82977530D01*
X125545403Y-82926957D01*
X125545404Y-82926956D01*
X124744059Y-82125612D01*
X124764591Y-82120111D01*
X124901408Y-82041119D01*
X125013119Y-81929408D01*
X125092111Y-81792591D01*
X125097612Y-81772059D01*
X125898956Y-82573404D01*
X125898957Y-82573403D01*
X125949530Y-82507498D01*
X126060949Y-82314514D01*
X126060954Y-82314502D01*
X126146236Y-82108618D01*
X126203911Y-81893367D01*
X126203914Y-81893354D01*
X126233000Y-81672424D01*
X126233000Y-81449575D01*
X126203914Y-81228645D01*
X126203911Y-81228632D01*
X126146236Y-81013381D01*
X126060954Y-80807497D01*
X126060949Y-80807485D01*
X125949533Y-80614507D01*
X125898956Y-80548595D01*
X125898955Y-80548595D01*
X125097612Y-81349939D01*
X125092111Y-81329409D01*
X125013119Y-81192592D01*
X124901408Y-81080881D01*
X124764591Y-81001889D01*
X124744058Y-80996387D01*
X125545403Y-80195043D01*
X125545403Y-80195040D01*
X125479504Y-80144473D01*
X125479491Y-80144464D01*
X125286520Y-80033054D01*
X125286502Y-80033045D01*
X125080618Y-79947763D01*
X124865367Y-79890088D01*
X124865354Y-79890085D01*
X124644425Y-79861000D01*
X124421575Y-79861000D01*
X124200645Y-79890085D01*
X124200632Y-79890088D01*
X123985381Y-79947763D01*
X123779497Y-80033045D01*
X123779479Y-80033054D01*
X123586511Y-80144462D01*
X123520595Y-80195042D01*
X124321941Y-80996387D01*
X124301409Y-81001889D01*
X124164592Y-81080881D01*
X124052881Y-81192592D01*
X123973889Y-81329409D01*
X123968387Y-81349940D01*
X123167042Y-80548595D01*
X123116462Y-80614511D01*
X123005054Y-80807479D01*
X123005045Y-80807497D01*
X122919763Y-81013381D01*
X122862088Y-81228632D01*
X122862085Y-81228645D01*
X122833000Y-81449575D01*
X122533500Y-81449575D01*
X122533500Y-81442902D01*
X122496553Y-81209631D01*
X122423566Y-80985003D01*
X122367002Y-80873991D01*
X122316343Y-80774567D01*
X122177517Y-80583490D01*
X122010510Y-80416483D01*
X121819433Y-80277657D01*
X121608996Y-80170433D01*
X121384368Y-80097446D01*
X121151097Y-80060500D01*
X121151092Y-80060500D01*
X120914908Y-80060500D01*
X120914903Y-80060500D01*
X120681631Y-80097446D01*
X120457003Y-80170433D01*
X120246566Y-80277657D01*
X120137550Y-80356862D01*
X120055490Y-80416483D01*
X120055488Y-80416485D01*
X120055487Y-80416485D01*
X119888485Y-80583487D01*
X119888485Y-80583488D01*
X119888483Y-80583490D01*
X119865948Y-80614507D01*
X119749657Y-80774566D01*
X119642433Y-80985003D01*
X119569446Y-81209631D01*
X119532500Y-81442902D01*
X119232121Y-81442902D01*
X119203914Y-81228645D01*
X119203911Y-81228632D01*
X119146236Y-81013381D01*
X119060954Y-80807497D01*
X119060949Y-80807485D01*
X118949533Y-80614507D01*
X118898956Y-80548595D01*
X118898955Y-80548595D01*
X118097612Y-81349939D01*
X118092111Y-81329409D01*
X118013119Y-81192592D01*
X117901408Y-81080881D01*
X117764591Y-81001889D01*
X117744058Y-80996387D01*
X118545403Y-80195043D01*
X118545403Y-80195040D01*
X118479504Y-80144473D01*
X118479491Y-80144464D01*
X118286520Y-80033054D01*
X118286502Y-80033045D01*
X118080618Y-79947763D01*
X117865367Y-79890088D01*
X117865354Y-79890085D01*
X117644425Y-79861000D01*
X117421575Y-79861000D01*
X117200645Y-79890085D01*
X117200632Y-79890088D01*
X116985381Y-79947763D01*
X116779497Y-80033045D01*
X116779479Y-80033054D01*
X116586511Y-80144462D01*
X116520595Y-80195042D01*
X117321941Y-80996387D01*
X117301409Y-81001889D01*
X117164592Y-81080881D01*
X117052881Y-81192592D01*
X116973889Y-81329409D01*
X116968387Y-81349940D01*
X116167042Y-80548595D01*
X116116462Y-80614511D01*
X116005054Y-80807479D01*
X116005045Y-80807497D01*
X115919763Y-81013381D01*
X115862088Y-81228632D01*
X115862085Y-81228645D01*
X115833000Y-81449575D01*
X115533499Y-81449575D01*
X115533499Y-80567902D01*
X115522876Y-80479436D01*
X115467361Y-80338658D01*
X115451634Y-80317919D01*
X115451634Y-80317918D01*
X115375922Y-80218077D01*
X115255344Y-80126640D01*
X115255342Y-80126639D01*
X115114564Y-80071124D01*
X115114561Y-80071123D01*
X115026099Y-80060500D01*
X113039908Y-80060500D01*
X112951437Y-80071123D01*
X112810657Y-80126639D01*
X112810655Y-80126640D01*
X112690077Y-80218077D01*
X112598640Y-80338655D01*
X112597079Y-80342613D01*
X112567949Y-80416485D01*
X112543124Y-80479437D01*
X112543123Y-80479438D01*
X112532500Y-80567900D01*
X98612500Y-80567900D01*
X98612500Y-80481943D01*
X98571577Y-80329216D01*
X98507412Y-80218078D01*
X98492524Y-80192290D01*
X98492518Y-80192282D01*
X98380717Y-80080481D01*
X98380709Y-80080475D01*
X98243790Y-80001426D01*
X98243786Y-80001424D01*
X98243784Y-80001423D01*
X98091057Y-79960500D01*
X97932943Y-79960500D01*
X97780216Y-80001423D01*
X97780209Y-80001426D01*
X97643290Y-80080475D01*
X97643282Y-80080481D01*
X97531481Y-80192282D01*
X97531475Y-80192290D01*
X97452426Y-80329209D01*
X97452423Y-80329216D01*
X97411500Y-80481943D01*
X80473056Y-80481943D01*
X80574287Y-80342610D01*
X80667220Y-80160219D01*
X80730477Y-79965534D01*
X80762500Y-79763352D01*
X80762500Y-79558648D01*
X80732712Y-79370576D01*
X80730477Y-79356465D01*
X80701127Y-79266137D01*
X80667220Y-79161781D01*
X80667218Y-79161778D01*
X80667218Y-79161776D01*
X80606591Y-79042790D01*
X80574287Y-78979390D01*
X80566556Y-78968749D01*
X80453971Y-78813786D01*
X80309213Y-78669028D01*
X80143613Y-78548715D01*
X80143612Y-78548714D01*
X80143610Y-78548713D01*
X80086653Y-78519691D01*
X79961223Y-78455781D01*
X79766534Y-78392522D01*
X79591995Y-78364878D01*
X79564352Y-78360500D01*
X79359648Y-78360500D01*
X79335329Y-78364351D01*
X79157465Y-78392522D01*
X78962776Y-78455781D01*
X78780386Y-78548715D01*
X78614786Y-78669028D01*
X78470028Y-78813786D01*
X78349715Y-78979386D01*
X78256781Y-79161776D01*
X78193522Y-79356465D01*
X78161500Y-79558648D01*
X67295440Y-79558648D01*
X67302187Y-78231943D01*
X90161500Y-78231943D01*
X90161500Y-78390057D01*
X90202086Y-78541524D01*
X90202423Y-78542783D01*
X90202426Y-78542790D01*
X90281475Y-78679709D01*
X90281479Y-78679714D01*
X90281480Y-78679716D01*
X90393284Y-78791520D01*
X90393286Y-78791521D01*
X90393290Y-78791524D01*
X90431850Y-78813786D01*
X90530216Y-78870577D01*
X90682943Y-78911500D01*
X90682945Y-78911500D01*
X90841055Y-78911500D01*
X90841057Y-78911500D01*
X90993784Y-78870577D01*
X91130716Y-78791520D01*
X91190293Y-78731943D01*
X112661500Y-78731943D01*
X112661500Y-78890057D01*
X112667246Y-78911499D01*
X112702423Y-79042783D01*
X112702426Y-79042790D01*
X112781475Y-79179709D01*
X112781479Y-79179714D01*
X112781480Y-79179716D01*
X112893284Y-79291520D01*
X112893286Y-79291521D01*
X112893290Y-79291524D01*
X113005773Y-79356465D01*
X113030216Y-79370577D01*
X113182943Y-79411500D01*
X113182945Y-79411500D01*
X113341055Y-79411500D01*
X113341057Y-79411500D01*
X113493784Y-79370577D01*
X113630716Y-79291520D01*
X113742520Y-79179716D01*
X113821577Y-79042784D01*
X113862500Y-78890057D01*
X113862500Y-78731943D01*
X113821577Y-78579216D01*
X113821573Y-78579209D01*
X113742524Y-78442290D01*
X113742518Y-78442282D01*
X113630717Y-78330481D01*
X113630709Y-78330475D01*
X113493790Y-78251426D01*
X113493786Y-78251424D01*
X113493784Y-78251423D01*
X113341057Y-78210500D01*
X113182943Y-78210500D01*
X113030216Y-78251423D01*
X113030209Y-78251426D01*
X112893290Y-78330475D01*
X112893282Y-78330481D01*
X112781481Y-78442282D01*
X112781475Y-78442290D01*
X112702426Y-78579209D01*
X112702423Y-78579216D01*
X112661500Y-78731943D01*
X91190293Y-78731943D01*
X91242520Y-78679716D01*
X91248691Y-78669028D01*
X91252855Y-78661816D01*
X91300547Y-78579209D01*
X91321577Y-78542784D01*
X91362500Y-78390057D01*
X91362500Y-78231943D01*
X91321577Y-78079216D01*
X91299816Y-78041524D01*
X91242524Y-77942290D01*
X91242518Y-77942282D01*
X91130717Y-77830481D01*
X91130716Y-77830480D01*
X90993784Y-77751423D01*
X90921084Y-77731943D01*
X99411500Y-77731943D01*
X99411500Y-77890057D01*
X99452086Y-78041524D01*
X99452423Y-78042783D01*
X99452426Y-78042790D01*
X99531475Y-78179709D01*
X99531479Y-78179714D01*
X99531480Y-78179716D01*
X99643284Y-78291520D01*
X99643286Y-78291521D01*
X99643290Y-78291524D01*
X99710765Y-78330480D01*
X99780216Y-78370577D01*
X99932943Y-78411500D01*
X99932945Y-78411500D01*
X100091055Y-78411500D01*
X100091057Y-78411500D01*
X100243784Y-78370577D01*
X100380716Y-78291520D01*
X100492520Y-78179716D01*
X100571577Y-78042784D01*
X100612500Y-77890057D01*
X100612500Y-77731943D01*
X102411500Y-77731943D01*
X102411500Y-77890057D01*
X102452086Y-78041524D01*
X102452423Y-78042783D01*
X102452426Y-78042790D01*
X102531475Y-78179709D01*
X102531479Y-78179714D01*
X102531480Y-78179716D01*
X102643284Y-78291520D01*
X102643286Y-78291521D01*
X102643290Y-78291524D01*
X102710765Y-78330480D01*
X102780216Y-78370577D01*
X102932943Y-78411500D01*
X102932945Y-78411500D01*
X103091055Y-78411500D01*
X103091057Y-78411500D01*
X103243784Y-78370577D01*
X103380716Y-78291520D01*
X103492520Y-78179716D01*
X103571577Y-78042784D01*
X103612500Y-77890057D01*
X103612500Y-77731943D01*
X103571577Y-77579216D01*
X103515417Y-77481943D01*
X105661500Y-77481943D01*
X105661500Y-77640057D01*
X105691341Y-77751423D01*
X105702423Y-77792783D01*
X105702426Y-77792790D01*
X105781475Y-77929709D01*
X105781479Y-77929714D01*
X105781480Y-77929716D01*
X105893284Y-78041520D01*
X105893286Y-78041521D01*
X105893290Y-78041524D01*
X106030209Y-78120573D01*
X106030216Y-78120577D01*
X106182943Y-78161500D01*
X106182945Y-78161500D01*
X106341055Y-78161500D01*
X106341057Y-78161500D01*
X106493784Y-78120577D01*
X106630716Y-78041520D01*
X106742520Y-77929716D01*
X106821577Y-77792784D01*
X106837879Y-77731943D01*
X109661500Y-77731943D01*
X109661500Y-77890057D01*
X109702086Y-78041524D01*
X109702423Y-78042783D01*
X109702426Y-78042790D01*
X109781475Y-78179709D01*
X109781479Y-78179714D01*
X109781480Y-78179716D01*
X109893284Y-78291520D01*
X109893286Y-78291521D01*
X109893290Y-78291524D01*
X109960765Y-78330480D01*
X110030216Y-78370577D01*
X110182943Y-78411500D01*
X110182945Y-78411500D01*
X110341055Y-78411500D01*
X110341057Y-78411500D01*
X110493784Y-78370577D01*
X110630716Y-78291520D01*
X110742520Y-78179716D01*
X110821577Y-78042784D01*
X110837879Y-77981943D01*
X127161500Y-77981943D01*
X127161500Y-78140057D01*
X127202086Y-78291524D01*
X127202423Y-78292783D01*
X127202426Y-78292790D01*
X127281475Y-78429709D01*
X127281479Y-78429714D01*
X127281480Y-78429716D01*
X127393284Y-78541520D01*
X127393286Y-78541521D01*
X127393290Y-78541524D01*
X127530209Y-78620573D01*
X127530216Y-78620577D01*
X127682943Y-78661500D01*
X127682945Y-78661500D01*
X127841055Y-78661500D01*
X127841057Y-78661500D01*
X127993784Y-78620577D01*
X128130716Y-78541520D01*
X128242520Y-78429716D01*
X128321577Y-78292784D01*
X128362500Y-78140057D01*
X128362500Y-77981943D01*
X128321577Y-77829216D01*
X128300543Y-77792783D01*
X128242524Y-77692290D01*
X128242518Y-77692282D01*
X128130717Y-77580481D01*
X128130709Y-77580475D01*
X127993790Y-77501426D01*
X127993786Y-77501424D01*
X127993784Y-77501423D01*
X127841057Y-77460500D01*
X127682943Y-77460500D01*
X127530216Y-77501423D01*
X127530209Y-77501426D01*
X127393290Y-77580475D01*
X127393282Y-77580481D01*
X127281481Y-77692282D01*
X127281475Y-77692290D01*
X127202426Y-77829209D01*
X127202423Y-77829216D01*
X127161500Y-77981943D01*
X110837879Y-77981943D01*
X110862500Y-77890057D01*
X110862500Y-77731943D01*
X110821577Y-77579216D01*
X110796520Y-77535815D01*
X110742524Y-77442290D01*
X110742521Y-77442286D01*
X110742520Y-77442284D01*
X110630716Y-77330480D01*
X110630714Y-77330479D01*
X110630709Y-77330475D01*
X110493790Y-77251426D01*
X110493786Y-77251424D01*
X110493784Y-77251423D01*
X110341057Y-77210500D01*
X110182943Y-77210500D01*
X110030216Y-77251423D01*
X110030209Y-77251426D01*
X109893290Y-77330475D01*
X109893282Y-77330481D01*
X109781481Y-77442282D01*
X109781475Y-77442290D01*
X109702426Y-77579209D01*
X109702423Y-77579216D01*
X109661500Y-77731943D01*
X106837879Y-77731943D01*
X106862500Y-77640057D01*
X106862500Y-77481943D01*
X106821577Y-77329216D01*
X106821573Y-77329209D01*
X106742524Y-77192290D01*
X106742518Y-77192282D01*
X106630717Y-77080481D01*
X106630709Y-77080475D01*
X106493790Y-77001426D01*
X106493786Y-77001424D01*
X106493784Y-77001423D01*
X106341057Y-76960500D01*
X106182943Y-76960500D01*
X106030216Y-77001423D01*
X106030209Y-77001426D01*
X105893290Y-77080475D01*
X105893282Y-77080481D01*
X105781481Y-77192282D01*
X105781475Y-77192290D01*
X105702426Y-77329209D01*
X105702423Y-77329216D01*
X105661500Y-77481943D01*
X103515417Y-77481943D01*
X103492520Y-77442284D01*
X103380716Y-77330480D01*
X103380714Y-77330479D01*
X103380709Y-77330475D01*
X103243790Y-77251426D01*
X103243786Y-77251424D01*
X103243784Y-77251423D01*
X103091057Y-77210500D01*
X102932943Y-77210500D01*
X102780216Y-77251423D01*
X102780209Y-77251426D01*
X102643290Y-77330475D01*
X102643282Y-77330481D01*
X102531481Y-77442282D01*
X102531475Y-77442290D01*
X102452426Y-77579209D01*
X102452423Y-77579216D01*
X102411500Y-77731943D01*
X100612500Y-77731943D01*
X100571577Y-77579216D01*
X100546520Y-77535815D01*
X100492524Y-77442290D01*
X100492521Y-77442286D01*
X100492520Y-77442284D01*
X100380716Y-77330480D01*
X100380714Y-77330479D01*
X100380709Y-77330475D01*
X100243790Y-77251426D01*
X100243786Y-77251424D01*
X100243784Y-77251423D01*
X100091057Y-77210500D01*
X99932943Y-77210500D01*
X99780216Y-77251423D01*
X99780209Y-77251426D01*
X99643290Y-77330475D01*
X99643282Y-77330481D01*
X99531481Y-77442282D01*
X99531475Y-77442290D01*
X99452426Y-77579209D01*
X99452423Y-77579216D01*
X99411500Y-77731943D01*
X90921084Y-77731943D01*
X90841057Y-77710500D01*
X90682943Y-77710500D01*
X90530216Y-77751423D01*
X90530209Y-77751426D01*
X90393290Y-77830475D01*
X90393282Y-77830481D01*
X90281481Y-77942282D01*
X90281475Y-77942290D01*
X90202426Y-78079209D01*
X90202423Y-78079216D01*
X90161500Y-78231943D01*
X67302187Y-78231943D01*
X67330011Y-72761000D01*
X80161999Y-72761000D01*
X80352073Y-75231945D01*
X80362000Y-75361000D01*
X82362000Y-76961000D01*
X85561999Y-76961000D01*
X85562000Y-76961000D01*
X85987828Y-76481943D01*
X88411500Y-76481943D01*
X88411500Y-76640057D01*
X88444041Y-76761500D01*
X88452423Y-76792783D01*
X88452426Y-76792790D01*
X88531475Y-76929709D01*
X88531479Y-76929714D01*
X88531480Y-76929716D01*
X88643284Y-77041520D01*
X88643286Y-77041521D01*
X88643290Y-77041524D01*
X88710765Y-77080480D01*
X88780216Y-77120577D01*
X88932943Y-77161500D01*
X88932945Y-77161500D01*
X89091055Y-77161500D01*
X89091057Y-77161500D01*
X89243784Y-77120577D01*
X89380716Y-77041520D01*
X89492520Y-76929716D01*
X89571577Y-76792784D01*
X89612500Y-76640057D01*
X89612500Y-76481943D01*
X89571577Y-76329216D01*
X89544284Y-76281943D01*
X96361500Y-76281943D01*
X96361500Y-76440057D01*
X96395165Y-76565694D01*
X96402423Y-76592783D01*
X96402426Y-76592790D01*
X96481475Y-76729709D01*
X96481479Y-76729714D01*
X96481480Y-76729716D01*
X96593284Y-76841520D01*
X96593286Y-76841521D01*
X96593290Y-76841524D01*
X96730209Y-76920573D01*
X96730216Y-76920577D01*
X96882943Y-76961500D01*
X96882945Y-76961500D01*
X97041055Y-76961500D01*
X97041057Y-76961500D01*
X97193784Y-76920577D01*
X97330716Y-76841520D01*
X97442520Y-76729716D01*
X97521577Y-76592784D01*
X97521577Y-76592781D01*
X97522389Y-76591376D01*
X97572956Y-76543160D01*
X97641563Y-76529936D01*
X97706428Y-76555904D01*
X97717458Y-76565694D01*
X97793284Y-76641520D01*
X97793286Y-76641521D01*
X97793290Y-76641524D01*
X97930209Y-76720573D01*
X97930216Y-76720577D01*
X98082943Y-76761500D01*
X98082945Y-76761500D01*
X98241055Y-76761500D01*
X98241057Y-76761500D01*
X98393784Y-76720577D01*
X98530716Y-76641520D01*
X98642520Y-76529716D01*
X98721577Y-76392784D01*
X98762500Y-76240057D01*
X98762500Y-76195443D01*
X103941376Y-76195443D01*
X103941376Y-76353557D01*
X103975778Y-76481945D01*
X103982299Y-76506283D01*
X103982302Y-76506290D01*
X104061351Y-76643209D01*
X104061355Y-76643214D01*
X104061356Y-76643216D01*
X104173160Y-76755020D01*
X104173162Y-76755021D01*
X104173166Y-76755024D01*
X104238580Y-76792790D01*
X104310092Y-76834077D01*
X104462819Y-76875000D01*
X104462821Y-76875000D01*
X104620931Y-76875000D01*
X104620933Y-76875000D01*
X104773660Y-76834077D01*
X104910592Y-76755020D01*
X105022396Y-76643216D01*
X105101453Y-76506284D01*
X105142376Y-76353557D01*
X105142376Y-76195443D01*
X105101453Y-76042716D01*
X105101449Y-76042709D01*
X105022400Y-75905790D01*
X105022394Y-75905782D01*
X104910593Y-75793981D01*
X104910585Y-75793975D01*
X104773666Y-75714926D01*
X104773662Y-75714924D01*
X104773660Y-75714923D01*
X104620933Y-75674000D01*
X104462819Y-75674000D01*
X104310092Y-75714923D01*
X104310085Y-75714926D01*
X104173166Y-75793975D01*
X104173158Y-75793981D01*
X104061357Y-75905782D01*
X104061351Y-75905790D01*
X103982302Y-76042709D01*
X103982299Y-76042716D01*
X103941376Y-76195443D01*
X98762500Y-76195443D01*
X98762500Y-76081943D01*
X98721577Y-75929216D01*
X98708049Y-75905784D01*
X98642524Y-75792290D01*
X98642518Y-75792282D01*
X98530717Y-75680481D01*
X98530709Y-75680475D01*
X98393790Y-75601426D01*
X98393786Y-75601424D01*
X98393784Y-75601423D01*
X98241057Y-75560500D01*
X98082943Y-75560500D01*
X97930216Y-75601423D01*
X97930209Y-75601426D01*
X97793290Y-75680475D01*
X97793282Y-75680481D01*
X97681481Y-75792282D01*
X97681477Y-75792287D01*
X97601609Y-75930624D01*
X97551042Y-75978840D01*
X97482435Y-75992063D01*
X97417570Y-75966095D01*
X97406541Y-75956305D01*
X97330717Y-75880481D01*
X97330709Y-75880475D01*
X97193790Y-75801426D01*
X97193786Y-75801424D01*
X97193784Y-75801423D01*
X97041057Y-75760500D01*
X96882943Y-75760500D01*
X96730216Y-75801423D01*
X96730209Y-75801426D01*
X96593290Y-75880475D01*
X96593282Y-75880481D01*
X96481481Y-75992282D01*
X96481475Y-75992290D01*
X96402426Y-76129209D01*
X96402423Y-76129216D01*
X96361500Y-76281943D01*
X89544284Y-76281943D01*
X89492522Y-76192287D01*
X89492518Y-76192282D01*
X89380717Y-76080481D01*
X89380709Y-76080475D01*
X89243790Y-76001426D01*
X89243786Y-76001424D01*
X89243784Y-76001423D01*
X89091057Y-75960500D01*
X88932943Y-75960500D01*
X88780216Y-76001423D01*
X88780209Y-76001426D01*
X88643290Y-76080475D01*
X88643282Y-76080481D01*
X88531481Y-76192282D01*
X88531475Y-76192290D01*
X88452426Y-76329209D01*
X88452426Y-76329210D01*
X88452423Y-76329216D01*
X88411500Y-76481943D01*
X85987828Y-76481943D01*
X87098940Y-75231943D01*
X95161500Y-75231943D01*
X95161500Y-75390056D01*
X95202423Y-75542783D01*
X95202426Y-75542790D01*
X95281475Y-75679709D01*
X95281479Y-75679714D01*
X95281480Y-75679716D01*
X95393284Y-75791520D01*
X95393286Y-75791521D01*
X95393290Y-75791524D01*
X95530209Y-75870573D01*
X95530216Y-75870577D01*
X95682943Y-75911500D01*
X95682945Y-75911500D01*
X95841055Y-75911500D01*
X95841057Y-75911500D01*
X95993784Y-75870577D01*
X96130716Y-75791520D01*
X96242520Y-75679716D01*
X96321577Y-75542784D01*
X96362500Y-75390057D01*
X96362500Y-75231943D01*
X96321577Y-75079216D01*
X96299816Y-75041524D01*
X96242524Y-74942290D01*
X96242518Y-74942282D01*
X96130717Y-74830481D01*
X96130709Y-74830475D01*
X95993790Y-74751426D01*
X95993786Y-74751424D01*
X95993784Y-74751423D01*
X95841057Y-74710500D01*
X95682943Y-74710500D01*
X95530216Y-74751423D01*
X95530209Y-74751426D01*
X95393290Y-74830475D01*
X95393282Y-74830481D01*
X95281481Y-74942282D01*
X95281475Y-74942290D01*
X95202426Y-75079209D01*
X95202423Y-75079216D01*
X95161500Y-75231943D01*
X87098940Y-75231943D01*
X87162000Y-75161000D01*
X87259008Y-74481943D01*
X99161500Y-74481943D01*
X99161500Y-74640057D01*
X99191341Y-74751423D01*
X99202423Y-74792783D01*
X99202426Y-74792790D01*
X99281475Y-74929709D01*
X99281479Y-74929714D01*
X99281480Y-74929716D01*
X99393284Y-75041520D01*
X99393286Y-75041521D01*
X99393290Y-75041524D01*
X99530209Y-75120573D01*
X99530216Y-75120577D01*
X99682943Y-75161500D01*
X99682945Y-75161500D01*
X99841055Y-75161500D01*
X99841057Y-75161500D01*
X99993784Y-75120577D01*
X100130716Y-75041520D01*
X100242520Y-74929716D01*
X100321577Y-74792784D01*
X100362500Y-74640057D01*
X100362500Y-74481943D01*
X100321577Y-74329216D01*
X100321573Y-74329209D01*
X100242524Y-74192290D01*
X100242518Y-74192282D01*
X100130717Y-74080481D01*
X100130709Y-74080475D01*
X99993790Y-74001426D01*
X99993786Y-74001424D01*
X99993784Y-74001423D01*
X99841057Y-73960500D01*
X99682943Y-73960500D01*
X99530216Y-74001423D01*
X99530209Y-74001426D01*
X99393290Y-74080475D01*
X99393282Y-74080481D01*
X99281481Y-74192282D01*
X99281475Y-74192290D01*
X99202426Y-74329209D01*
X99202423Y-74329216D01*
X99161500Y-74481943D01*
X87259008Y-74481943D01*
X87401865Y-73481943D01*
X91911500Y-73481943D01*
X91911500Y-73640057D01*
X91952086Y-73791524D01*
X91952423Y-73792783D01*
X91952426Y-73792790D01*
X92031475Y-73929709D01*
X92031479Y-73929714D01*
X92031480Y-73929716D01*
X92143284Y-74041520D01*
X92143286Y-74041521D01*
X92143290Y-74041524D01*
X92210765Y-74080480D01*
X92280216Y-74120577D01*
X92432943Y-74161500D01*
X92432945Y-74161500D01*
X92591055Y-74161500D01*
X92591057Y-74161500D01*
X92743784Y-74120577D01*
X92880716Y-74041520D01*
X92992520Y-73929716D01*
X93071577Y-73792784D01*
X93112500Y-73640057D01*
X93112500Y-73481943D01*
X93071577Y-73329216D01*
X93015417Y-73231943D01*
X93911500Y-73231943D01*
X93911500Y-73390057D01*
X93936122Y-73481945D01*
X93952423Y-73542783D01*
X93952426Y-73542790D01*
X94031475Y-73679709D01*
X94031479Y-73679714D01*
X94031480Y-73679716D01*
X94143284Y-73791520D01*
X94143286Y-73791521D01*
X94143290Y-73791524D01*
X94280209Y-73870573D01*
X94280216Y-73870577D01*
X94432943Y-73911500D01*
X94432945Y-73911500D01*
X94591055Y-73911500D01*
X94591057Y-73911500D01*
X94743784Y-73870577D01*
X94880716Y-73791520D01*
X94992520Y-73679716D01*
X95071577Y-73542784D01*
X95112500Y-73390057D01*
X95112500Y-73231943D01*
X95071577Y-73079216D01*
X95001283Y-72957463D01*
X94984811Y-72889563D01*
X95007664Y-72823537D01*
X95062585Y-72780346D01*
X95132139Y-72773705D01*
X95170670Y-72788077D01*
X95280209Y-72851318D01*
X95280216Y-72851322D01*
X95432943Y-72892245D01*
X95432945Y-72892245D01*
X95591055Y-72892245D01*
X95591057Y-72892245D01*
X95743784Y-72851322D01*
X95880716Y-72772265D01*
X95891981Y-72761000D01*
X109561999Y-72761000D01*
X109752073Y-75231945D01*
X109762000Y-75361000D01*
X111762000Y-76961000D01*
X114961999Y-76961000D01*
X114962000Y-76961000D01*
X116562000Y-75161000D01*
X116837580Y-73231943D01*
X122661500Y-73231943D01*
X122661500Y-73390057D01*
X122686122Y-73481945D01*
X122702423Y-73542783D01*
X122702426Y-73542790D01*
X122781475Y-73679709D01*
X122781479Y-73679714D01*
X122781480Y-73679716D01*
X122893284Y-73791520D01*
X122893286Y-73791521D01*
X122893290Y-73791524D01*
X123030209Y-73870573D01*
X123030216Y-73870577D01*
X123182943Y-73911500D01*
X123182945Y-73911500D01*
X123341055Y-73911500D01*
X123341057Y-73911500D01*
X123493784Y-73870577D01*
X123630716Y-73791520D01*
X123742520Y-73679716D01*
X123821577Y-73542784D01*
X123862500Y-73390057D01*
X123862500Y-73231943D01*
X123821577Y-73079216D01*
X123821573Y-73079209D01*
X123742524Y-72942290D01*
X123742518Y-72942282D01*
X123630717Y-72830481D01*
X123630709Y-72830475D01*
X123493790Y-72751426D01*
X123493786Y-72751424D01*
X123493784Y-72751423D01*
X123341057Y-72710500D01*
X123182943Y-72710500D01*
X123030216Y-72751423D01*
X123030209Y-72751426D01*
X122893290Y-72830475D01*
X122893282Y-72830481D01*
X122781481Y-72942282D01*
X122781475Y-72942290D01*
X122702426Y-73079209D01*
X122702423Y-73079216D01*
X122661500Y-73231943D01*
X116837580Y-73231943D01*
X116962000Y-72361000D01*
X116400171Y-71728942D01*
X127918837Y-71728942D01*
X127918837Y-71887056D01*
X127948496Y-71997743D01*
X127959760Y-72039782D01*
X127959763Y-72039789D01*
X128038812Y-72176708D01*
X128038816Y-72176713D01*
X128038817Y-72176715D01*
X128150621Y-72288519D01*
X128150623Y-72288520D01*
X128150627Y-72288523D01*
X128276161Y-72360999D01*
X128287553Y-72367576D01*
X128440280Y-72408499D01*
X128440282Y-72408499D01*
X128598392Y-72408499D01*
X128598394Y-72408499D01*
X128751121Y-72367576D01*
X128888053Y-72288519D01*
X128999857Y-72176715D01*
X129078914Y-72039783D01*
X129119837Y-71887056D01*
X129119837Y-71728942D01*
X129078914Y-71576215D01*
X129059612Y-71542783D01*
X128999861Y-71439289D01*
X128999855Y-71439281D01*
X128888054Y-71327480D01*
X128888046Y-71327474D01*
X128751127Y-71248425D01*
X128751123Y-71248423D01*
X128751121Y-71248422D01*
X128598394Y-71207499D01*
X128440280Y-71207499D01*
X128287553Y-71248422D01*
X128287546Y-71248425D01*
X128150627Y-71327474D01*
X128150619Y-71327480D01*
X128038818Y-71439281D01*
X128038812Y-71439289D01*
X127959763Y-71576208D01*
X127959760Y-71576215D01*
X127918837Y-71728942D01*
X116400171Y-71728942D01*
X115362000Y-70561000D01*
X115361998Y-70560999D01*
X115085302Y-70481943D01*
X121161500Y-70481943D01*
X121161500Y-70640057D01*
X121192874Y-70757144D01*
X121202423Y-70792783D01*
X121202426Y-70792790D01*
X121281475Y-70929709D01*
X121281479Y-70929714D01*
X121281480Y-70929716D01*
X121393284Y-71041520D01*
X121393286Y-71041521D01*
X121393290Y-71041524D01*
X121520305Y-71114855D01*
X121530216Y-71120577D01*
X121682943Y-71161500D01*
X121682945Y-71161500D01*
X121841055Y-71161500D01*
X121841057Y-71161500D01*
X121993784Y-71120577D01*
X122130716Y-71041520D01*
X122242520Y-70929716D01*
X122321577Y-70792784D01*
X122362500Y-70640057D01*
X122362500Y-70481943D01*
X122911500Y-70481943D01*
X122911500Y-70640057D01*
X122942874Y-70757144D01*
X122952423Y-70792783D01*
X122952426Y-70792790D01*
X123031475Y-70929709D01*
X123031479Y-70929714D01*
X123031480Y-70929716D01*
X123143284Y-71041520D01*
X123143286Y-71041521D01*
X123143290Y-71041524D01*
X123270305Y-71114855D01*
X123280216Y-71120577D01*
X123432943Y-71161500D01*
X123432945Y-71161500D01*
X123591055Y-71161500D01*
X123591057Y-71161500D01*
X123743784Y-71120577D01*
X123880716Y-71041520D01*
X123992520Y-70929716D01*
X124071577Y-70792784D01*
X124112500Y-70640057D01*
X124112500Y-70481943D01*
X124071577Y-70329216D01*
X124049816Y-70291524D01*
X123992524Y-70192290D01*
X123992518Y-70192282D01*
X123880717Y-70080481D01*
X123880709Y-70080475D01*
X123743790Y-70001426D01*
X123743786Y-70001424D01*
X123743784Y-70001423D01*
X123591057Y-69960500D01*
X123432943Y-69960500D01*
X123280216Y-70001423D01*
X123280209Y-70001426D01*
X123143290Y-70080475D01*
X123143282Y-70080481D01*
X123031481Y-70192282D01*
X123031475Y-70192290D01*
X122952426Y-70329209D01*
X122952423Y-70329216D01*
X122911500Y-70481943D01*
X122362500Y-70481943D01*
X122321577Y-70329216D01*
X122299816Y-70291524D01*
X122242524Y-70192290D01*
X122242518Y-70192282D01*
X122130717Y-70080481D01*
X122130709Y-70080475D01*
X121993790Y-70001426D01*
X121993786Y-70001424D01*
X121993784Y-70001423D01*
X121841057Y-69960500D01*
X121682943Y-69960500D01*
X121530216Y-70001423D01*
X121530209Y-70001426D01*
X121393290Y-70080475D01*
X121393282Y-70080481D01*
X121281481Y-70192282D01*
X121281475Y-70192290D01*
X121202426Y-70329209D01*
X121202423Y-70329216D01*
X121161500Y-70481943D01*
X115085302Y-70481943D01*
X113962004Y-70161000D01*
X113962000Y-70161000D01*
X113162000Y-70161000D01*
X112249725Y-70291325D01*
X111761999Y-70361000D01*
X111761997Y-70361000D01*
X110361999Y-71160999D01*
X109561999Y-72761000D01*
X95891981Y-72761000D01*
X95992520Y-72660461D01*
X96071577Y-72523529D01*
X96112500Y-72370802D01*
X96112500Y-72212688D01*
X96073622Y-72067593D01*
X96075285Y-71997743D01*
X96114448Y-71939881D01*
X96178676Y-71912377D01*
X96193397Y-71911500D01*
X96343248Y-71911500D01*
X96343250Y-71911500D01*
X96495977Y-71870577D01*
X96632909Y-71791520D01*
X96744713Y-71679716D01*
X96823770Y-71542784D01*
X96864693Y-71390057D01*
X96864693Y-71237593D01*
X96884378Y-71170554D01*
X96937182Y-71124799D01*
X97006340Y-71114855D01*
X97022169Y-71119201D01*
X97022365Y-71118473D01*
X97030214Y-71120576D01*
X97030216Y-71120577D01*
X97182943Y-71161500D01*
X97182945Y-71161500D01*
X97341055Y-71161500D01*
X97341057Y-71161500D01*
X97493784Y-71120577D01*
X97630716Y-71041520D01*
X97742520Y-70929716D01*
X97821577Y-70792784D01*
X97862500Y-70640057D01*
X97862500Y-70481943D01*
X97821577Y-70329216D01*
X97799816Y-70291524D01*
X97742524Y-70192290D01*
X97742518Y-70192282D01*
X97630717Y-70080481D01*
X97630709Y-70080475D01*
X97493790Y-70001426D01*
X97493786Y-70001424D01*
X97493784Y-70001423D01*
X97341057Y-69960500D01*
X97182943Y-69960500D01*
X97030216Y-70001423D01*
X97030209Y-70001426D01*
X96893290Y-70080475D01*
X96893282Y-70080481D01*
X96781481Y-70192282D01*
X96781475Y-70192290D01*
X96702426Y-70329209D01*
X96702423Y-70329216D01*
X96661500Y-70481943D01*
X96661500Y-70634406D01*
X96641815Y-70701445D01*
X96589011Y-70747200D01*
X96519853Y-70757144D01*
X96504022Y-70752801D01*
X96503828Y-70753527D01*
X96495978Y-70751423D01*
X96495977Y-70751423D01*
X96343250Y-70710500D01*
X96185136Y-70710500D01*
X96032409Y-70751423D01*
X96032402Y-70751426D01*
X95895483Y-70830475D01*
X95895475Y-70830481D01*
X95783674Y-70942282D01*
X95783668Y-70942290D01*
X95704619Y-71079209D01*
X95704616Y-71079216D01*
X95663693Y-71231943D01*
X95663693Y-71390056D01*
X95702571Y-71535152D01*
X95700908Y-71605002D01*
X95661745Y-71662864D01*
X95597517Y-71690368D01*
X95582796Y-71691245D01*
X95432943Y-71691245D01*
X95280216Y-71732168D01*
X95280209Y-71732171D01*
X95143290Y-71811220D01*
X95143282Y-71811226D01*
X95031481Y-71923027D01*
X95031475Y-71923035D01*
X94952426Y-72059954D01*
X94952423Y-72059961D01*
X94911500Y-72212688D01*
X94911500Y-72370801D01*
X94952423Y-72523528D01*
X94952426Y-72523535D01*
X95022715Y-72645281D01*
X95039188Y-72713181D01*
X95016335Y-72779208D01*
X94961414Y-72822398D01*
X94891860Y-72829039D01*
X94853329Y-72814668D01*
X94743784Y-72751423D01*
X94591057Y-72710500D01*
X94432943Y-72710500D01*
X94280216Y-72751423D01*
X94280209Y-72751426D01*
X94143290Y-72830475D01*
X94143282Y-72830481D01*
X94031481Y-72942282D01*
X94031475Y-72942290D01*
X93952426Y-73079209D01*
X93952423Y-73079216D01*
X93911500Y-73231943D01*
X93015417Y-73231943D01*
X92992520Y-73192284D01*
X92880716Y-73080480D01*
X92880714Y-73080479D01*
X92880709Y-73080475D01*
X92743790Y-73001426D01*
X92743786Y-73001424D01*
X92743784Y-73001423D01*
X92591057Y-72960500D01*
X92432943Y-72960500D01*
X92280216Y-73001423D01*
X92280209Y-73001426D01*
X92143290Y-73080475D01*
X92143282Y-73080481D01*
X92031481Y-73192282D01*
X92031475Y-73192290D01*
X91952426Y-73329209D01*
X91952423Y-73329216D01*
X91911500Y-73481943D01*
X87401865Y-73481943D01*
X87562000Y-72361000D01*
X85962000Y-70561000D01*
X85961998Y-70560999D01*
X84562004Y-70161000D01*
X84562000Y-70161000D01*
X83762000Y-70161000D01*
X82849725Y-70291325D01*
X82361999Y-70361000D01*
X82361997Y-70361000D01*
X80961999Y-71160999D01*
X80161999Y-72761000D01*
X67330011Y-72761000D01*
X67342362Y-70332343D01*
X75017400Y-70332343D01*
X75017400Y-70490457D01*
X75052266Y-70620577D01*
X75058323Y-70643183D01*
X75058326Y-70643190D01*
X75137375Y-70780109D01*
X75137379Y-70780114D01*
X75137380Y-70780116D01*
X75249184Y-70891920D01*
X75249186Y-70891921D01*
X75249190Y-70891924D01*
X75336428Y-70942290D01*
X75386116Y-70970977D01*
X75538843Y-71011900D01*
X75538845Y-71011900D01*
X75696955Y-71011900D01*
X75696957Y-71011900D01*
X75849684Y-70970977D01*
X75986616Y-70891920D01*
X76098420Y-70780116D01*
X76177477Y-70643184D01*
X76218400Y-70490457D01*
X76218400Y-70332343D01*
X76177477Y-70179616D01*
X76177475Y-70179612D01*
X76177474Y-70179609D01*
X76098424Y-70042689D01*
X76098418Y-70042682D01*
X76037679Y-69981943D01*
X91661500Y-69981943D01*
X91661500Y-70140057D01*
X91702086Y-70291524D01*
X91702423Y-70292783D01*
X91702426Y-70292790D01*
X91781475Y-70429709D01*
X91781479Y-70429714D01*
X91781480Y-70429716D01*
X91893284Y-70541520D01*
X91893286Y-70541521D01*
X91893290Y-70541524D01*
X92027684Y-70619115D01*
X92030216Y-70620577D01*
X92182943Y-70661500D01*
X92182945Y-70661500D01*
X92341055Y-70661500D01*
X92341057Y-70661500D01*
X92493784Y-70620577D01*
X92630716Y-70541520D01*
X92742520Y-70429716D01*
X92821577Y-70292784D01*
X92862500Y-70140057D01*
X92862500Y-69981943D01*
X92862109Y-69980485D01*
X93131170Y-69980485D01*
X93131170Y-70138599D01*
X93145557Y-70192290D01*
X93172093Y-70291325D01*
X93172096Y-70291332D01*
X93251145Y-70428251D01*
X93251149Y-70428256D01*
X93251150Y-70428258D01*
X93362954Y-70540062D01*
X93362956Y-70540063D01*
X93362960Y-70540066D01*
X93499879Y-70619115D01*
X93499886Y-70619119D01*
X93652613Y-70660042D01*
X93652615Y-70660042D01*
X93810725Y-70660042D01*
X93810727Y-70660042D01*
X93963454Y-70619119D01*
X94100386Y-70540062D01*
X94212190Y-70428258D01*
X94291247Y-70291326D01*
X94332170Y-70138599D01*
X94332170Y-69980485D01*
X94291247Y-69827758D01*
X94235929Y-69731943D01*
X124411500Y-69731943D01*
X124411500Y-69890057D01*
X124441341Y-70001423D01*
X124452423Y-70042783D01*
X124452426Y-70042790D01*
X124531475Y-70179709D01*
X124531479Y-70179714D01*
X124531480Y-70179716D01*
X124643284Y-70291520D01*
X124643286Y-70291521D01*
X124643290Y-70291524D01*
X124763628Y-70361000D01*
X124780216Y-70370577D01*
X124932943Y-70411500D01*
X124932945Y-70411500D01*
X125091055Y-70411500D01*
X125091057Y-70411500D01*
X125243784Y-70370577D01*
X125380716Y-70291520D01*
X125492520Y-70179716D01*
X125571577Y-70042784D01*
X125612500Y-69890057D01*
X125612500Y-69731943D01*
X125571577Y-69579216D01*
X125549816Y-69541524D01*
X125492524Y-69442290D01*
X125492518Y-69442282D01*
X125380717Y-69330481D01*
X125380716Y-69330480D01*
X125243784Y-69251423D01*
X125171084Y-69231943D01*
X126161500Y-69231943D01*
X126161500Y-69390057D01*
X126202086Y-69541524D01*
X126202423Y-69542783D01*
X126202426Y-69542790D01*
X126281475Y-69679709D01*
X126281479Y-69679714D01*
X126281480Y-69679716D01*
X126393284Y-69791520D01*
X126393286Y-69791521D01*
X126393290Y-69791524D01*
X126497733Y-69851823D01*
X126530216Y-69870577D01*
X126682943Y-69911500D01*
X126682945Y-69911500D01*
X126841055Y-69911500D01*
X126841057Y-69911500D01*
X126993784Y-69870577D01*
X127130716Y-69791520D01*
X127242520Y-69679716D01*
X127321577Y-69542784D01*
X127362500Y-69390057D01*
X127362500Y-69231943D01*
X127321577Y-69079216D01*
X127299816Y-69041524D01*
X127242524Y-68942290D01*
X127242518Y-68942282D01*
X127130717Y-68830481D01*
X127130709Y-68830475D01*
X126993790Y-68751426D01*
X126993786Y-68751424D01*
X126993784Y-68751423D01*
X126841057Y-68710500D01*
X126682943Y-68710500D01*
X126530216Y-68751423D01*
X126530209Y-68751426D01*
X126393290Y-68830475D01*
X126393282Y-68830481D01*
X126281481Y-68942282D01*
X126281475Y-68942290D01*
X126202426Y-69079209D01*
X126202423Y-69079216D01*
X126161500Y-69231943D01*
X125171084Y-69231943D01*
X125091057Y-69210500D01*
X124932943Y-69210500D01*
X124780216Y-69251423D01*
X124780209Y-69251426D01*
X124643290Y-69330475D01*
X124643282Y-69330481D01*
X124531481Y-69442282D01*
X124531475Y-69442290D01*
X124452426Y-69579209D01*
X124452423Y-69579216D01*
X124411500Y-69731943D01*
X94235929Y-69731943D01*
X94212190Y-69690826D01*
X94100386Y-69579022D01*
X94100384Y-69579021D01*
X94100379Y-69579017D01*
X93963460Y-69499968D01*
X93963456Y-69499966D01*
X93963454Y-69499965D01*
X93810727Y-69459042D01*
X93652613Y-69459042D01*
X93499886Y-69499965D01*
X93499879Y-69499968D01*
X93362960Y-69579017D01*
X93362952Y-69579023D01*
X93251151Y-69690824D01*
X93251145Y-69690832D01*
X93172096Y-69827751D01*
X93172093Y-69827758D01*
X93131170Y-69980485D01*
X92862109Y-69980485D01*
X92821577Y-69829216D01*
X92820735Y-69827758D01*
X92742524Y-69692290D01*
X92742518Y-69692282D01*
X92630717Y-69580481D01*
X92630709Y-69580475D01*
X92493790Y-69501426D01*
X92493786Y-69501424D01*
X92493784Y-69501423D01*
X92341057Y-69460500D01*
X92182943Y-69460500D01*
X92030216Y-69501423D01*
X92030209Y-69501426D01*
X91893290Y-69580475D01*
X91893282Y-69580481D01*
X91781481Y-69692282D01*
X91781475Y-69692290D01*
X91702426Y-69829209D01*
X91702423Y-69829216D01*
X91661500Y-69981943D01*
X76037679Y-69981943D01*
X75986617Y-69930881D01*
X75986609Y-69930875D01*
X75849690Y-69851826D01*
X75849686Y-69851824D01*
X75849684Y-69851823D01*
X75696957Y-69810900D01*
X75538843Y-69810900D01*
X75386116Y-69851823D01*
X75386109Y-69851826D01*
X75249190Y-69930875D01*
X75249182Y-69930881D01*
X75137381Y-70042682D01*
X75137375Y-70042690D01*
X75058326Y-70179609D01*
X75058323Y-70179616D01*
X75017400Y-70332343D01*
X67342362Y-70332343D01*
X67349230Y-68981943D01*
X89161500Y-68981943D01*
X89161500Y-69140057D01*
X89202086Y-69291524D01*
X89202423Y-69292783D01*
X89202426Y-69292790D01*
X89281475Y-69429709D01*
X89281479Y-69429714D01*
X89281480Y-69429716D01*
X89393284Y-69541520D01*
X89393286Y-69541521D01*
X89393290Y-69541524D01*
X89460765Y-69580480D01*
X89530216Y-69620577D01*
X89682943Y-69661500D01*
X89682945Y-69661500D01*
X89841055Y-69661500D01*
X89841057Y-69661500D01*
X89993784Y-69620577D01*
X90130716Y-69541520D01*
X90242520Y-69429716D01*
X90321577Y-69292784D01*
X90362500Y-69140057D01*
X90362500Y-68981943D01*
X90321577Y-68829216D01*
X90299816Y-68791524D01*
X90242524Y-68692290D01*
X90242518Y-68692282D01*
X90130717Y-68580481D01*
X90130716Y-68580480D01*
X89993784Y-68501423D01*
X89921084Y-68481943D01*
X95661500Y-68481943D01*
X95661500Y-68640057D01*
X95702086Y-68791524D01*
X95702423Y-68792783D01*
X95702426Y-68792790D01*
X95781475Y-68929709D01*
X95781479Y-68929714D01*
X95781480Y-68929716D01*
X95893284Y-69041520D01*
X95893286Y-69041521D01*
X95893290Y-69041524D01*
X96030209Y-69120573D01*
X96030216Y-69120577D01*
X96182943Y-69161500D01*
X96182945Y-69161500D01*
X96341055Y-69161500D01*
X96341057Y-69161500D01*
X96493784Y-69120577D01*
X96630716Y-69041520D01*
X96742520Y-68929716D01*
X96821577Y-68792784D01*
X96837879Y-68731943D01*
X98661500Y-68731943D01*
X98661500Y-68890057D01*
X98702086Y-69041524D01*
X98702423Y-69042783D01*
X98702426Y-69042790D01*
X98781475Y-69179709D01*
X98781479Y-69179714D01*
X98781480Y-69179716D01*
X98893284Y-69291520D01*
X98893286Y-69291521D01*
X98893290Y-69291524D01*
X98960765Y-69330480D01*
X99030216Y-69370577D01*
X99182943Y-69411500D01*
X99182945Y-69411500D01*
X99341055Y-69411500D01*
X99341057Y-69411500D01*
X99493784Y-69370577D01*
X99630716Y-69291520D01*
X99742520Y-69179716D01*
X99821577Y-69042784D01*
X99862500Y-68890057D01*
X99862500Y-68731943D01*
X99821577Y-68579216D01*
X99799816Y-68541524D01*
X99742524Y-68442290D01*
X99742518Y-68442282D01*
X99630717Y-68330481D01*
X99630709Y-68330475D01*
X99493790Y-68251426D01*
X99493786Y-68251424D01*
X99493784Y-68251423D01*
X99341057Y-68210500D01*
X99182943Y-68210500D01*
X99030216Y-68251423D01*
X99030209Y-68251426D01*
X98893290Y-68330475D01*
X98893282Y-68330481D01*
X98781481Y-68442282D01*
X98781475Y-68442290D01*
X98702426Y-68579209D01*
X98702423Y-68579216D01*
X98661500Y-68731943D01*
X96837879Y-68731943D01*
X96862500Y-68640057D01*
X96862500Y-68481943D01*
X96821577Y-68329216D01*
X96792996Y-68279712D01*
X96742524Y-68192290D01*
X96742518Y-68192282D01*
X96630717Y-68080481D01*
X96630716Y-68080480D01*
X96493784Y-68001423D01*
X96421084Y-67981943D01*
X128161500Y-67981943D01*
X128161500Y-68140057D01*
X128198921Y-68279712D01*
X128202423Y-68292783D01*
X128202426Y-68292790D01*
X128281475Y-68429709D01*
X128281479Y-68429714D01*
X128281480Y-68429716D01*
X128393284Y-68541520D01*
X128393286Y-68541521D01*
X128393290Y-68541524D01*
X128460765Y-68580480D01*
X128530216Y-68620577D01*
X128682943Y-68661500D01*
X128682945Y-68661500D01*
X128841055Y-68661500D01*
X128841057Y-68661500D01*
X128993784Y-68620577D01*
X129130716Y-68541520D01*
X129242520Y-68429716D01*
X129321577Y-68292784D01*
X129362500Y-68140057D01*
X129362500Y-67981943D01*
X129321577Y-67829216D01*
X129296001Y-67784916D01*
X129242524Y-67692290D01*
X129242518Y-67692282D01*
X129130717Y-67580481D01*
X129130709Y-67580475D01*
X128993790Y-67501426D01*
X128993786Y-67501424D01*
X128993784Y-67501423D01*
X128841057Y-67460500D01*
X128682943Y-67460500D01*
X128530216Y-67501423D01*
X128530209Y-67501426D01*
X128393290Y-67580475D01*
X128393282Y-67580481D01*
X128281481Y-67692282D01*
X128281475Y-67692290D01*
X128202426Y-67829209D01*
X128202423Y-67829216D01*
X128161500Y-67981943D01*
X96421084Y-67981943D01*
X96341057Y-67960500D01*
X96182943Y-67960500D01*
X96030216Y-68001423D01*
X96030209Y-68001426D01*
X95893290Y-68080475D01*
X95893282Y-68080481D01*
X95781481Y-68192282D01*
X95781475Y-68192290D01*
X95702426Y-68329209D01*
X95702423Y-68329216D01*
X95661500Y-68481943D01*
X89921084Y-68481943D01*
X89841057Y-68460500D01*
X89682943Y-68460500D01*
X89530216Y-68501423D01*
X89530209Y-68501426D01*
X89393290Y-68580475D01*
X89393282Y-68580481D01*
X89281481Y-68692282D01*
X89281475Y-68692290D01*
X89202426Y-68829209D01*
X89202423Y-68829216D01*
X89161500Y-68981943D01*
X67349230Y-68981943D01*
X67360988Y-66669953D01*
X70324400Y-66669953D01*
X70324400Y-66808600D01*
X70974400Y-66808600D01*
X70974400Y-67308600D01*
X70324400Y-67308600D01*
X70324400Y-67447246D01*
X70358984Y-67621112D01*
X70358986Y-67621120D01*
X70426828Y-67784907D01*
X70426833Y-67784916D01*
X70525323Y-67932316D01*
X70525326Y-67932320D01*
X70650679Y-68057673D01*
X70650683Y-68057676D01*
X70798083Y-68156166D01*
X70798092Y-68156171D01*
X70961879Y-68224013D01*
X71079090Y-68247327D01*
X71141001Y-68279712D01*
X71175576Y-68340427D01*
X71178900Y-68368945D01*
X71178900Y-68374366D01*
X71190553Y-68417857D01*
X71218119Y-68520736D01*
X71256002Y-68586350D01*
X71293885Y-68651965D01*
X71401035Y-68759115D01*
X71459362Y-68792790D01*
X71524633Y-68830475D01*
X71532265Y-68834881D01*
X71678634Y-68874100D01*
X71678636Y-68874100D01*
X71830164Y-68874100D01*
X71830166Y-68874100D01*
X71976535Y-68834881D01*
X72107765Y-68759115D01*
X72214915Y-68651965D01*
X72290681Y-68520735D01*
X72290683Y-68520726D01*
X72293418Y-68514126D01*
X72337258Y-68459722D01*
X72403552Y-68437656D01*
X72432172Y-68439960D01*
X72475605Y-68448599D01*
X72475606Y-68448600D01*
X72633194Y-68448600D01*
X72633197Y-68448599D01*
X72787743Y-68417858D01*
X72787747Y-68417857D01*
X72916693Y-68364445D01*
X77792106Y-68364445D01*
X77921052Y-68417857D01*
X77921056Y-68417858D01*
X78075602Y-68448599D01*
X78075606Y-68448600D01*
X78233194Y-68448600D01*
X78233194Y-68448599D01*
X78276628Y-68439960D01*
X78346219Y-68446187D01*
X78401397Y-68489049D01*
X78415383Y-68514129D01*
X78418118Y-68520734D01*
X78450140Y-68576198D01*
X78493885Y-68651965D01*
X78601035Y-68759115D01*
X78659362Y-68792790D01*
X78724633Y-68830475D01*
X78732265Y-68834881D01*
X78878634Y-68874100D01*
X78878636Y-68874100D01*
X79030164Y-68874100D01*
X79030166Y-68874100D01*
X79176535Y-68834881D01*
X79307765Y-68759115D01*
X79414915Y-68651965D01*
X79490681Y-68520735D01*
X79529900Y-68374366D01*
X79529900Y-68368945D01*
X79549585Y-68301906D01*
X79602389Y-68256151D01*
X79629710Y-68247327D01*
X79746920Y-68224013D01*
X79910707Y-68156171D01*
X79910716Y-68156166D01*
X80058116Y-68057676D01*
X80058120Y-68057673D01*
X80183473Y-67932320D01*
X80183476Y-67932316D01*
X80281966Y-67784916D01*
X80281971Y-67784907D01*
X80349813Y-67621120D01*
X80349815Y-67621112D01*
X80384399Y-67447246D01*
X80384400Y-67447243D01*
X80384400Y-67308600D01*
X79734400Y-67308600D01*
X79734400Y-66808600D01*
X80384400Y-66808600D01*
X80384400Y-66669957D01*
X80384399Y-66669953D01*
X80349815Y-66496087D01*
X80349813Y-66496079D01*
X80343958Y-66481943D01*
X106761500Y-66481943D01*
X106761500Y-66640057D01*
X106782068Y-66716816D01*
X106802423Y-66792783D01*
X106802426Y-66792790D01*
X106881475Y-66929709D01*
X106881479Y-66929714D01*
X106881480Y-66929716D01*
X106993284Y-67041520D01*
X106993286Y-67041521D01*
X106993290Y-67041524D01*
X107106279Y-67106757D01*
X107130216Y-67120577D01*
X107282943Y-67161500D01*
X107282945Y-67161500D01*
X107441055Y-67161500D01*
X107441057Y-67161500D01*
X107593784Y-67120577D01*
X107730716Y-67041520D01*
X107842520Y-66929716D01*
X107921577Y-66792784D01*
X107962500Y-66640057D01*
X107962500Y-66481943D01*
X107921577Y-66329216D01*
X107888265Y-66271517D01*
X107842524Y-66192290D01*
X107842518Y-66192282D01*
X107730717Y-66080481D01*
X107730709Y-66080475D01*
X107593790Y-66001426D01*
X107593786Y-66001424D01*
X107593784Y-66001423D01*
X107441057Y-65960500D01*
X107282943Y-65960500D01*
X107130216Y-66001423D01*
X107130209Y-66001426D01*
X106993290Y-66080475D01*
X106993282Y-66080481D01*
X106881481Y-66192282D01*
X106881475Y-66192290D01*
X106802426Y-66329209D01*
X106802423Y-66329216D01*
X106761500Y-66481943D01*
X80343958Y-66481943D01*
X80281971Y-66332292D01*
X80281966Y-66332283D01*
X80183476Y-66184883D01*
X80183473Y-66184879D01*
X80058120Y-66059526D01*
X80058116Y-66059523D01*
X79910716Y-65961033D01*
X79910707Y-65961028D01*
X79746919Y-65893185D01*
X79734400Y-65890694D01*
X79734400Y-66708872D01*
X79696340Y-66616986D01*
X79626014Y-66546660D01*
X79534128Y-66508600D01*
X79434672Y-66508600D01*
X79342786Y-66546660D01*
X79272460Y-66616986D01*
X79234400Y-66708872D01*
X79234400Y-65890695D01*
X79234399Y-65890694D01*
X79221880Y-65893185D01*
X79058092Y-65961028D01*
X79058083Y-65961033D01*
X78910683Y-66059523D01*
X78910679Y-66059526D01*
X78785326Y-66184879D01*
X78785323Y-66184883D01*
X78686833Y-66332283D01*
X78686828Y-66332292D01*
X78618986Y-66496079D01*
X78618984Y-66496087D01*
X78584400Y-66669953D01*
X78584400Y-66733895D01*
X78640411Y-66808600D01*
X79234400Y-66808600D01*
X79234400Y-67308600D01*
X78847952Y-67308600D01*
X78331403Y-67825150D01*
X78331403Y-67825151D01*
X78331177Y-67825377D01*
X77792106Y-68364445D01*
X72916693Y-68364445D01*
X72377623Y-67825377D01*
X72161064Y-67608818D01*
X72354400Y-67608818D01*
X72354400Y-67688382D01*
X72384848Y-67761891D01*
X72441109Y-67818152D01*
X72514618Y-67848600D01*
X72594182Y-67848600D01*
X72667691Y-67818152D01*
X72723952Y-67761891D01*
X72754400Y-67688382D01*
X72754400Y-67608818D01*
X72723952Y-67535309D01*
X72667691Y-67479048D01*
X72594182Y-67448600D01*
X72514618Y-67448600D01*
X72441109Y-67479048D01*
X72384848Y-67535309D01*
X72354400Y-67608818D01*
X72161064Y-67608818D01*
X71860847Y-67308600D01*
X71474400Y-67308600D01*
X71474400Y-66973922D01*
X72254400Y-66973922D01*
X72254400Y-66995046D01*
X72354888Y-67095534D01*
X72386981Y-67151120D01*
X72394821Y-67180379D01*
X72394826Y-67180390D01*
X72473875Y-67317309D01*
X72473879Y-67317314D01*
X72473880Y-67317316D01*
X72585684Y-67429120D01*
X72585685Y-67429121D01*
X72585687Y-67429122D01*
X72704993Y-67498003D01*
X72714959Y-67503756D01*
X72722616Y-67508177D01*
X72751877Y-67516017D01*
X72807464Y-67548110D01*
X73270245Y-68010893D01*
X73323657Y-67881948D01*
X73335618Y-67821813D01*
X73368002Y-67759901D01*
X73428717Y-67725326D01*
X73498487Y-67729065D01*
X73555160Y-67769930D01*
X73577010Y-67813907D01*
X73579129Y-67821813D01*
X73594823Y-67880385D01*
X73594826Y-67880390D01*
X73673875Y-68017309D01*
X73673879Y-68017314D01*
X73673880Y-68017316D01*
X73785684Y-68129120D01*
X73785686Y-68129121D01*
X73785690Y-68129124D01*
X73922609Y-68208173D01*
X73922616Y-68208177D01*
X74075343Y-68249100D01*
X74075345Y-68249100D01*
X74233455Y-68249100D01*
X74233457Y-68249100D01*
X74386184Y-68208177D01*
X74427273Y-68184453D01*
X74492401Y-68146854D01*
X74560301Y-68130381D01*
X74616399Y-68146854D01*
X74722609Y-68208173D01*
X74722616Y-68208177D01*
X74875343Y-68249100D01*
X74875345Y-68249100D01*
X75033455Y-68249100D01*
X75033457Y-68249100D01*
X75186184Y-68208177D01*
X75227273Y-68184453D01*
X75292401Y-68146854D01*
X75360301Y-68130381D01*
X75416399Y-68146854D01*
X75522609Y-68208173D01*
X75522616Y-68208177D01*
X75675343Y-68249100D01*
X75675345Y-68249100D01*
X75833455Y-68249100D01*
X75833457Y-68249100D01*
X75986184Y-68208177D01*
X76027273Y-68184453D01*
X76092401Y-68146854D01*
X76160301Y-68130381D01*
X76216399Y-68146854D01*
X76322609Y-68208173D01*
X76322616Y-68208177D01*
X76475343Y-68249100D01*
X76475345Y-68249100D01*
X76633455Y-68249100D01*
X76633457Y-68249100D01*
X76786184Y-68208177D01*
X76786186Y-68208175D01*
X76786188Y-68208175D01*
X76923109Y-68129124D01*
X76923108Y-68129124D01*
X76923116Y-68129120D01*
X77034920Y-68017316D01*
X77113977Y-67880384D01*
X77131789Y-67813906D01*
X77168152Y-67754249D01*
X77230999Y-67723719D01*
X77300375Y-67732013D01*
X77354253Y-67776498D01*
X77373180Y-67821811D01*
X77385141Y-67881943D01*
X77385143Y-67881951D01*
X77438553Y-68010893D01*
X77840626Y-67608818D01*
X77954400Y-67608818D01*
X77954400Y-67688382D01*
X77984848Y-67761891D01*
X78041109Y-67818152D01*
X78114618Y-67848600D01*
X78194182Y-67848600D01*
X78267691Y-67818152D01*
X78323952Y-67761891D01*
X78354400Y-67688382D01*
X78354400Y-67608818D01*
X78323952Y-67535309D01*
X78267691Y-67479048D01*
X78194182Y-67448600D01*
X78114618Y-67448600D01*
X78041109Y-67479048D01*
X77984848Y-67535309D01*
X77954400Y-67608818D01*
X77840626Y-67608818D01*
X77901333Y-67548111D01*
X77956922Y-67516017D01*
X77986184Y-67508177D01*
X78123116Y-67429120D01*
X78234920Y-67317316D01*
X78313977Y-67180384D01*
X78321817Y-67151124D01*
X78353911Y-67095534D01*
X78454400Y-66995046D01*
X78454400Y-66973922D01*
X78361189Y-66849603D01*
X78360936Y-66848928D01*
X78355852Y-66844832D01*
X78337925Y-66806193D01*
X78313977Y-66716816D01*
X78286921Y-66669953D01*
X78234924Y-66579890D01*
X78234918Y-66579882D01*
X78123117Y-66468081D01*
X78123109Y-66468075D01*
X77986190Y-66389026D01*
X77986186Y-66389024D01*
X77986184Y-66389023D01*
X77833457Y-66348100D01*
X77675343Y-66348100D01*
X77522616Y-66389023D01*
X77522615Y-66389023D01*
X77416399Y-66450346D01*
X77348498Y-66466817D01*
X77292401Y-66450346D01*
X77186184Y-66389023D01*
X77033457Y-66348100D01*
X76875343Y-66348100D01*
X76722616Y-66389023D01*
X76722615Y-66389023D01*
X76616399Y-66450346D01*
X76548498Y-66466817D01*
X76492401Y-66450346D01*
X76386184Y-66389023D01*
X76233457Y-66348100D01*
X76075343Y-66348100D01*
X75922616Y-66389023D01*
X75922609Y-66389026D01*
X75785690Y-66468075D01*
X75785682Y-66468081D01*
X75673881Y-66579882D01*
X75673875Y-66579890D01*
X75594826Y-66716809D01*
X75594823Y-66716816D01*
X75553900Y-66869543D01*
X75553900Y-66999369D01*
X75534215Y-67066408D01*
X75491899Y-67106757D01*
X75416399Y-67150346D01*
X75348499Y-67166817D01*
X75292401Y-67150346D01*
X75216901Y-67106757D01*
X75168685Y-67056190D01*
X75154900Y-66999369D01*
X75154900Y-66869545D01*
X75154900Y-66869543D01*
X75113977Y-66716816D01*
X75086921Y-66669953D01*
X75034924Y-66579890D01*
X75034918Y-66579882D01*
X74923117Y-66468081D01*
X74923109Y-66468075D01*
X74786190Y-66389026D01*
X74786186Y-66389024D01*
X74786184Y-66389023D01*
X74633457Y-66348100D01*
X74475343Y-66348100D01*
X74322616Y-66389023D01*
X74322615Y-66389023D01*
X74216399Y-66450346D01*
X74148498Y-66466817D01*
X74092401Y-66450346D01*
X73986184Y-66389023D01*
X73833457Y-66348100D01*
X73675343Y-66348100D01*
X73522616Y-66389023D01*
X73522615Y-66389023D01*
X73416399Y-66450346D01*
X73348498Y-66466817D01*
X73292401Y-66450346D01*
X73186184Y-66389023D01*
X73033457Y-66348100D01*
X72875343Y-66348100D01*
X72722616Y-66389023D01*
X72722609Y-66389026D01*
X72585690Y-66468075D01*
X72585682Y-66468081D01*
X72473881Y-66579882D01*
X72473875Y-66579890D01*
X72394826Y-66716809D01*
X72394824Y-66716813D01*
X72370874Y-66806195D01*
X72364718Y-66816293D01*
X72364549Y-66818639D01*
X72347611Y-66849603D01*
X72254400Y-66973922D01*
X71474400Y-66973922D01*
X71474400Y-66808600D01*
X72068389Y-66808600D01*
X72124400Y-66733895D01*
X72124400Y-66669957D01*
X72124399Y-66669953D01*
X72089815Y-66496087D01*
X72089813Y-66496079D01*
X72021971Y-66332292D01*
X72021966Y-66332283D01*
X71923476Y-66184883D01*
X71923473Y-66184879D01*
X71798120Y-66059526D01*
X71798116Y-66059523D01*
X71650716Y-65961033D01*
X71650707Y-65961028D01*
X71486919Y-65893185D01*
X71474400Y-65890694D01*
X71474400Y-66708872D01*
X71436340Y-66616986D01*
X71366014Y-66546660D01*
X71274128Y-66508600D01*
X71174672Y-66508600D01*
X71082786Y-66546660D01*
X71012460Y-66616986D01*
X70974400Y-66708872D01*
X70974400Y-65890695D01*
X70974399Y-65890694D01*
X70961880Y-65893185D01*
X70798092Y-65961028D01*
X70798083Y-65961033D01*
X70650683Y-66059523D01*
X70650679Y-66059526D01*
X70525326Y-66184879D01*
X70525323Y-66184883D01*
X70426833Y-66332283D01*
X70426828Y-66332292D01*
X70358986Y-66496079D01*
X70358984Y-66496087D01*
X70324400Y-66669953D01*
X67360988Y-66669953D01*
X67365860Y-65711942D01*
X90661500Y-65711942D01*
X90661500Y-65870056D01*
X90696701Y-66001426D01*
X90702423Y-66022782D01*
X90702426Y-66022789D01*
X90781475Y-66159708D01*
X90781479Y-66159713D01*
X90781480Y-66159715D01*
X90893284Y-66271519D01*
X90893286Y-66271520D01*
X90893290Y-66271523D01*
X90993207Y-66329209D01*
X91030216Y-66350576D01*
X91182943Y-66391499D01*
X91182945Y-66391499D01*
X91341055Y-66391499D01*
X91341057Y-66391499D01*
X91493784Y-66350576D01*
X91630716Y-66271519D01*
X91742520Y-66159715D01*
X91821577Y-66022783D01*
X91862500Y-65870056D01*
X91862500Y-65711942D01*
X91821577Y-65559215D01*
X91816887Y-65551092D01*
X91742524Y-65422289D01*
X91742518Y-65422281D01*
X91630717Y-65310480D01*
X91630709Y-65310474D01*
X91493790Y-65231425D01*
X91493786Y-65231423D01*
X91493784Y-65231422D01*
X91341057Y-65190499D01*
X91182943Y-65190499D01*
X91030216Y-65231422D01*
X91030209Y-65231425D01*
X90893290Y-65310474D01*
X90893282Y-65310480D01*
X90781481Y-65422281D01*
X90781475Y-65422289D01*
X90702426Y-65559208D01*
X90702423Y-65559215D01*
X90661500Y-65711942D01*
X67365860Y-65711942D01*
X67369573Y-64981943D01*
X92161500Y-64981943D01*
X92161500Y-65140056D01*
X92202423Y-65292783D01*
X92202426Y-65292790D01*
X92281475Y-65429709D01*
X92281479Y-65429714D01*
X92281480Y-65429716D01*
X92393284Y-65541520D01*
X92393286Y-65541521D01*
X92393290Y-65541524D01*
X92530209Y-65620573D01*
X92530216Y-65620577D01*
X92682943Y-65661500D01*
X92682945Y-65661500D01*
X92841055Y-65661500D01*
X92841057Y-65661500D01*
X92993784Y-65620577D01*
X93130716Y-65541520D01*
X93190293Y-65481943D01*
X95911500Y-65481943D01*
X95911500Y-65640057D01*
X95950754Y-65786553D01*
X95952423Y-65792783D01*
X95952426Y-65792790D01*
X96031475Y-65929709D01*
X96031479Y-65929714D01*
X96031480Y-65929716D01*
X96143284Y-66041520D01*
X96143286Y-66041521D01*
X96143290Y-66041524D01*
X96210765Y-66080480D01*
X96280216Y-66120577D01*
X96432943Y-66161500D01*
X96432945Y-66161500D01*
X96591055Y-66161500D01*
X96591057Y-66161500D01*
X96743784Y-66120577D01*
X96880716Y-66041520D01*
X96992520Y-65929716D01*
X97071577Y-65792784D01*
X97112500Y-65640057D01*
X97112500Y-65481943D01*
X99411500Y-65481943D01*
X99411500Y-65640057D01*
X99450754Y-65786553D01*
X99452423Y-65792783D01*
X99452426Y-65792790D01*
X99531475Y-65929709D01*
X99531479Y-65929714D01*
X99531480Y-65929716D01*
X99643284Y-66041520D01*
X99643286Y-66041521D01*
X99643290Y-66041524D01*
X99710765Y-66080480D01*
X99780216Y-66120577D01*
X99932943Y-66161500D01*
X99932945Y-66161500D01*
X100091055Y-66161500D01*
X100091057Y-66161500D01*
X100243784Y-66120577D01*
X100380716Y-66041520D01*
X100492520Y-65929716D01*
X100571577Y-65792784D01*
X100612500Y-65640057D01*
X100612500Y-65481943D01*
X100575037Y-65342128D01*
X100575037Y-65342127D01*
X100571578Y-65329220D01*
X100571577Y-65329216D01*
X100563313Y-65314902D01*
X112511500Y-65314902D01*
X112511500Y-65551097D01*
X112548446Y-65784368D01*
X112621433Y-66008996D01*
X112711051Y-66184879D01*
X112728657Y-66219433D01*
X112867483Y-66410510D01*
X113034490Y-66577517D01*
X113225567Y-66716343D01*
X113260015Y-66733895D01*
X113436003Y-66823566D01*
X113436005Y-66823566D01*
X113436008Y-66823568D01*
X113556412Y-66862689D01*
X113660631Y-66896553D01*
X113893903Y-66933500D01*
X113893908Y-66933500D01*
X114130097Y-66933500D01*
X114363368Y-66896553D01*
X114587992Y-66823568D01*
X114798433Y-66716343D01*
X114989510Y-66577517D01*
X115156517Y-66410510D01*
X115295343Y-66219433D01*
X115402568Y-66008992D01*
X115475553Y-65784368D01*
X115512500Y-65551097D01*
X115512500Y-65321575D01*
X115812001Y-65321575D01*
X115812001Y-65544424D01*
X115841086Y-65765354D01*
X115841089Y-65765367D01*
X115898764Y-65980618D01*
X115984046Y-66186502D01*
X115984055Y-66186520D01*
X116095465Y-66379491D01*
X116095474Y-66379504D01*
X116146041Y-66445403D01*
X116146044Y-66445403D01*
X116947388Y-65644059D01*
X116952890Y-65664591D01*
X117031882Y-65801408D01*
X117143593Y-65913119D01*
X117280410Y-65992111D01*
X117300941Y-65997612D01*
X116499596Y-66798955D01*
X116499596Y-66798956D01*
X116565508Y-66849533D01*
X116758486Y-66960949D01*
X116758498Y-66960954D01*
X116964382Y-67046236D01*
X117179633Y-67103911D01*
X117179646Y-67103914D01*
X117400576Y-67133000D01*
X117623426Y-67133000D01*
X117844355Y-67103914D01*
X117844368Y-67103911D01*
X118059619Y-67046236D01*
X118265503Y-66960954D01*
X118265515Y-66960949D01*
X118458499Y-66849530D01*
X118524404Y-66798957D01*
X118524405Y-66798956D01*
X117723060Y-65997612D01*
X117743592Y-65992111D01*
X117880409Y-65913119D01*
X117992120Y-65801408D01*
X118071112Y-65664591D01*
X118076613Y-65644059D01*
X118877957Y-66445404D01*
X118877958Y-66445403D01*
X118928531Y-66379498D01*
X119039950Y-66186514D01*
X119039955Y-66186502D01*
X119125237Y-65980618D01*
X119182912Y-65765367D01*
X119182915Y-65765354D01*
X119212001Y-65544424D01*
X119212001Y-65321576D01*
X119212000Y-65321574D01*
X119211122Y-65314902D01*
X119511500Y-65314902D01*
X119511500Y-65551097D01*
X119548446Y-65784368D01*
X119621433Y-66008996D01*
X119711051Y-66184879D01*
X119728657Y-66219433D01*
X119867483Y-66410510D01*
X120034490Y-66577517D01*
X120225567Y-66716343D01*
X120260015Y-66733895D01*
X120436003Y-66823566D01*
X120436005Y-66823566D01*
X120436008Y-66823568D01*
X120556412Y-66862689D01*
X120660631Y-66896553D01*
X120893903Y-66933500D01*
X120893908Y-66933500D01*
X121130097Y-66933500D01*
X121363368Y-66896553D01*
X121587992Y-66823568D01*
X121798433Y-66716343D01*
X121989510Y-66577517D01*
X122156517Y-66410510D01*
X122295343Y-66219433D01*
X122402568Y-66008992D01*
X122475553Y-65784368D01*
X122512500Y-65551097D01*
X122512500Y-65314902D01*
X122475553Y-65081631D01*
X122402566Y-64857003D01*
X122318636Y-64692282D01*
X122295343Y-64646567D01*
X122156517Y-64455490D01*
X122140927Y-64439900D01*
X123011500Y-64439900D01*
X123011500Y-66426091D01*
X123022123Y-66514562D01*
X123077639Y-66655342D01*
X123077640Y-66655344D01*
X123169077Y-66775922D01*
X123289655Y-66867359D01*
X123289658Y-66867361D01*
X123430436Y-66922876D01*
X123518901Y-66933500D01*
X125505098Y-66933499D01*
X125593564Y-66922876D01*
X125734342Y-66867361D01*
X125854922Y-66775922D01*
X125946361Y-66655342D01*
X126001876Y-66514564D01*
X126012500Y-66426099D01*
X126012499Y-64439902D01*
X126001876Y-64351436D01*
X125946361Y-64210658D01*
X125946359Y-64210655D01*
X125854922Y-64090077D01*
X125734344Y-63998640D01*
X125734342Y-63998639D01*
X125593564Y-63943124D01*
X125593561Y-63943123D01*
X125505099Y-63932500D01*
X123518908Y-63932500D01*
X123430437Y-63943123D01*
X123289657Y-63998639D01*
X123289655Y-63998640D01*
X123169077Y-64090077D01*
X123077640Y-64210655D01*
X123077639Y-64210658D01*
X123046949Y-64288485D01*
X123022124Y-64351437D01*
X123022123Y-64351438D01*
X123011500Y-64439900D01*
X122140927Y-64439900D01*
X121989510Y-64288483D01*
X121798433Y-64149657D01*
X121587996Y-64042433D01*
X121363368Y-63969446D01*
X121130097Y-63932500D01*
X121130092Y-63932500D01*
X120893908Y-63932500D01*
X120893903Y-63932500D01*
X120660631Y-63969446D01*
X120436003Y-64042433D01*
X120225566Y-64149657D01*
X120116550Y-64228862D01*
X120034490Y-64288483D01*
X120034488Y-64288485D01*
X120034487Y-64288485D01*
X119867485Y-64455487D01*
X119867485Y-64455488D01*
X119867483Y-64455490D01*
X119828547Y-64509081D01*
X119728657Y-64646566D01*
X119621433Y-64857003D01*
X119548446Y-65081631D01*
X119511500Y-65314902D01*
X119211122Y-65314902D01*
X119182915Y-65100645D01*
X119182912Y-65100632D01*
X119125237Y-64885381D01*
X119039955Y-64679497D01*
X119039950Y-64679485D01*
X118928534Y-64486507D01*
X118877957Y-64420595D01*
X118877956Y-64420595D01*
X118076613Y-65221939D01*
X118071112Y-65201409D01*
X117992120Y-65064592D01*
X117880409Y-64952881D01*
X117743592Y-64873889D01*
X117723059Y-64868387D01*
X118524404Y-64067043D01*
X118524404Y-64067040D01*
X118458505Y-64016473D01*
X118458492Y-64016464D01*
X118265521Y-63905054D01*
X118265503Y-63905045D01*
X118059619Y-63819763D01*
X117844368Y-63762088D01*
X117844355Y-63762085D01*
X117623426Y-63733000D01*
X117400576Y-63733000D01*
X117179646Y-63762085D01*
X117179633Y-63762088D01*
X116964382Y-63819763D01*
X116758498Y-63905045D01*
X116758480Y-63905054D01*
X116565512Y-64016462D01*
X116499596Y-64067042D01*
X117300942Y-64868387D01*
X117280410Y-64873889D01*
X117143593Y-64952881D01*
X117031882Y-65064592D01*
X116952890Y-65201409D01*
X116947388Y-65221940D01*
X116146043Y-64420595D01*
X116095463Y-64486511D01*
X115984055Y-64679479D01*
X115984046Y-64679497D01*
X115898764Y-64885381D01*
X115841089Y-65100632D01*
X115841086Y-65100645D01*
X115812001Y-65321575D01*
X115512500Y-65321575D01*
X115512500Y-65314902D01*
X115475553Y-65081631D01*
X115402566Y-64857003D01*
X115318636Y-64692282D01*
X115295343Y-64646567D01*
X115156517Y-64455490D01*
X114989510Y-64288483D01*
X114798433Y-64149657D01*
X114587996Y-64042433D01*
X114363368Y-63969446D01*
X114130097Y-63932500D01*
X114130092Y-63932500D01*
X113893908Y-63932500D01*
X113893903Y-63932500D01*
X113660631Y-63969446D01*
X113436003Y-64042433D01*
X113225566Y-64149657D01*
X113116550Y-64228862D01*
X113034490Y-64288483D01*
X113034488Y-64288485D01*
X113034487Y-64288485D01*
X112867485Y-64455487D01*
X112867485Y-64455488D01*
X112867483Y-64455490D01*
X112828547Y-64509081D01*
X112728657Y-64646566D01*
X112621433Y-64857003D01*
X112548446Y-65081631D01*
X112511500Y-65314902D01*
X100563313Y-65314902D01*
X100560759Y-65310479D01*
X100492524Y-65192290D01*
X100492518Y-65192282D01*
X100380717Y-65080481D01*
X100380709Y-65080475D01*
X100243790Y-65001426D01*
X100243786Y-65001424D01*
X100243784Y-65001423D01*
X100091057Y-64960500D01*
X99932943Y-64960500D01*
X99780216Y-65001423D01*
X99780209Y-65001426D01*
X99643290Y-65080475D01*
X99643282Y-65080481D01*
X99531481Y-65192282D01*
X99531475Y-65192290D01*
X99452426Y-65329209D01*
X99452423Y-65329216D01*
X99411500Y-65481943D01*
X97112500Y-65481943D01*
X97071577Y-65329216D01*
X97060759Y-65310479D01*
X96992524Y-65192290D01*
X96992518Y-65192282D01*
X96880717Y-65080481D01*
X96880709Y-65080475D01*
X96743790Y-65001426D01*
X96743786Y-65001424D01*
X96743784Y-65001423D01*
X96591057Y-64960500D01*
X96432943Y-64960500D01*
X96280216Y-65001423D01*
X96280209Y-65001426D01*
X96143290Y-65080475D01*
X96143282Y-65080481D01*
X96031481Y-65192282D01*
X96031475Y-65192290D01*
X95952426Y-65329209D01*
X95952423Y-65329216D01*
X95911500Y-65481943D01*
X93190293Y-65481943D01*
X93242520Y-65429716D01*
X93246813Y-65422281D01*
X93252855Y-65411816D01*
X93293089Y-65342127D01*
X93321577Y-65292784D01*
X93362500Y-65140057D01*
X93362500Y-64981943D01*
X93321577Y-64829216D01*
X93321573Y-64829209D01*
X93242524Y-64692290D01*
X93242518Y-64692282D01*
X93130717Y-64580481D01*
X93130709Y-64580475D01*
X92993790Y-64501426D01*
X92993786Y-64501424D01*
X92993784Y-64501423D01*
X92841057Y-64460500D01*
X92682943Y-64460500D01*
X92530216Y-64501423D01*
X92530209Y-64501426D01*
X92393290Y-64580475D01*
X92393282Y-64580481D01*
X92281481Y-64692282D01*
X92281475Y-64692290D01*
X92202426Y-64829209D01*
X92202423Y-64829216D01*
X92161500Y-64981943D01*
X67369573Y-64981943D01*
X67383365Y-62269953D01*
X69964400Y-62269953D01*
X69964400Y-62408600D01*
X70614400Y-62408600D01*
X70614400Y-62908600D01*
X69964400Y-62908600D01*
X69964400Y-63047246D01*
X69998984Y-63221112D01*
X69998986Y-63221120D01*
X70066828Y-63384907D01*
X70066833Y-63384916D01*
X70165323Y-63532316D01*
X70165326Y-63532320D01*
X70290679Y-63657673D01*
X70290683Y-63657676D01*
X70438083Y-63756166D01*
X70438093Y-63756171D01*
X70601876Y-63824012D01*
X70601883Y-63824015D01*
X70614400Y-63826504D01*
X70614400Y-63008328D01*
X70652460Y-63100214D01*
X70722786Y-63170540D01*
X70814672Y-63208600D01*
X70914128Y-63208600D01*
X71006014Y-63170540D01*
X71076340Y-63100214D01*
X71114400Y-63008328D01*
X71114400Y-63826503D01*
X71126916Y-63824015D01*
X71126923Y-63824012D01*
X71290706Y-63756171D01*
X71290716Y-63756166D01*
X71438116Y-63657676D01*
X71438120Y-63657673D01*
X71563473Y-63532320D01*
X71563476Y-63532316D01*
X71661966Y-63384916D01*
X71661971Y-63384907D01*
X71729813Y-63221120D01*
X71729815Y-63221112D01*
X71764399Y-63047246D01*
X71764400Y-63047243D01*
X71764400Y-62908600D01*
X71114400Y-62908600D01*
X71114400Y-62408600D01*
X71764400Y-62408600D01*
X71764400Y-62269957D01*
X71764399Y-62269953D01*
X78944400Y-62269953D01*
X78944400Y-62408600D01*
X79594400Y-62408600D01*
X79594400Y-62908600D01*
X78944400Y-62908600D01*
X78944400Y-63047246D01*
X78978984Y-63221112D01*
X78978986Y-63221120D01*
X79046828Y-63384907D01*
X79046833Y-63384916D01*
X79145323Y-63532316D01*
X79145326Y-63532320D01*
X79270679Y-63657673D01*
X79270683Y-63657676D01*
X79418083Y-63756166D01*
X79418093Y-63756171D01*
X79581876Y-63824012D01*
X79581883Y-63824015D01*
X79594400Y-63826504D01*
X79594400Y-63008328D01*
X79632460Y-63100214D01*
X79702786Y-63170540D01*
X79794672Y-63208600D01*
X79894128Y-63208600D01*
X79986014Y-63170540D01*
X80056340Y-63100214D01*
X80094400Y-63008328D01*
X80094400Y-63826503D01*
X80106916Y-63824015D01*
X80106923Y-63824012D01*
X80270706Y-63756171D01*
X80270716Y-63756166D01*
X80418116Y-63657676D01*
X80418120Y-63657673D01*
X80543473Y-63532320D01*
X80543476Y-63532316D01*
X80641966Y-63384916D01*
X80641971Y-63384907D01*
X80709813Y-63221120D01*
X80709815Y-63221112D01*
X80744399Y-63047246D01*
X80744400Y-63047243D01*
X80744400Y-62981943D01*
X91561500Y-62981943D01*
X91561500Y-63140056D01*
X91602423Y-63292783D01*
X91602426Y-63292790D01*
X91681475Y-63429709D01*
X91681479Y-63429714D01*
X91681480Y-63429716D01*
X91793284Y-63541520D01*
X91793286Y-63541521D01*
X91793290Y-63541524D01*
X91930209Y-63620573D01*
X91930216Y-63620577D01*
X92082943Y-63661500D01*
X92082945Y-63661500D01*
X92241055Y-63661500D01*
X92241057Y-63661500D01*
X92393784Y-63620577D01*
X92530716Y-63541520D01*
X92642520Y-63429716D01*
X92721577Y-63292784D01*
X92762500Y-63140057D01*
X92762500Y-62981943D01*
X92721577Y-62829216D01*
X92721573Y-62829209D01*
X92642524Y-62692290D01*
X92642518Y-62692282D01*
X92530717Y-62580481D01*
X92530709Y-62580475D01*
X92393790Y-62501426D01*
X92393786Y-62501424D01*
X92393784Y-62501423D01*
X92241057Y-62460500D01*
X92082943Y-62460500D01*
X91930216Y-62501423D01*
X91930209Y-62501426D01*
X91793290Y-62580475D01*
X91793282Y-62580481D01*
X91681481Y-62692282D01*
X91681475Y-62692290D01*
X91602426Y-62829209D01*
X91602423Y-62829216D01*
X91561500Y-62981943D01*
X80744400Y-62981943D01*
X80744400Y-62908600D01*
X80094400Y-62908600D01*
X80094400Y-62408600D01*
X80744400Y-62408600D01*
X80744400Y-62269957D01*
X80744399Y-62269953D01*
X80709815Y-62096087D01*
X80709813Y-62096079D01*
X80641971Y-61932292D01*
X80641966Y-61932283D01*
X80543476Y-61784883D01*
X80543473Y-61784879D01*
X80418120Y-61659526D01*
X80418116Y-61659523D01*
X80270716Y-61561033D01*
X80270707Y-61561028D01*
X80106919Y-61493185D01*
X80094400Y-61490694D01*
X80094400Y-62308872D01*
X80056340Y-62216986D01*
X79986014Y-62146660D01*
X79894128Y-62108600D01*
X79794672Y-62108600D01*
X79702786Y-62146660D01*
X79632460Y-62216986D01*
X79594400Y-62308872D01*
X79594400Y-61490695D01*
X79594399Y-61490694D01*
X79581880Y-61493185D01*
X79418092Y-61561028D01*
X79418083Y-61561033D01*
X79270683Y-61659523D01*
X79270679Y-61659526D01*
X79145326Y-61784879D01*
X79145323Y-61784883D01*
X79046833Y-61932283D01*
X79046828Y-61932292D01*
X78978986Y-62096079D01*
X78978984Y-62096087D01*
X78944400Y-62269953D01*
X71764399Y-62269953D01*
X71729815Y-62096087D01*
X71729813Y-62096079D01*
X71661971Y-61932292D01*
X71661966Y-61932283D01*
X71563476Y-61784883D01*
X71563473Y-61784879D01*
X71438120Y-61659526D01*
X71438116Y-61659523D01*
X71290716Y-61561033D01*
X71290707Y-61561028D01*
X71126919Y-61493185D01*
X71114400Y-61490694D01*
X71114400Y-62308872D01*
X71076340Y-62216986D01*
X71006014Y-62146660D01*
X70914128Y-62108600D01*
X70814672Y-62108600D01*
X70722786Y-62146660D01*
X70652460Y-62216986D01*
X70614400Y-62308872D01*
X70614400Y-61490695D01*
X70614399Y-61490694D01*
X70601880Y-61493185D01*
X70438092Y-61561028D01*
X70438083Y-61561033D01*
X70290683Y-61659523D01*
X70290679Y-61659526D01*
X70165326Y-61784879D01*
X70165323Y-61784883D01*
X70066833Y-61932283D01*
X70066828Y-61932292D01*
X69998986Y-62096079D01*
X69998984Y-62096087D01*
X69964400Y-62269953D01*
X67383365Y-62269953D01*
X67388379Y-61283993D01*
X67408404Y-61217057D01*
X67461440Y-61171571D01*
X67510986Y-61160634D01*
X90519922Y-60903102D01*
X90587175Y-60922035D01*
X90633518Y-60974323D01*
X90644235Y-61043366D01*
X90615923Y-61107243D01*
X90608989Y-61114775D01*
X90531478Y-61192286D01*
X90531475Y-61192290D01*
X90452426Y-61329209D01*
X90452423Y-61329216D01*
X90411500Y-61481943D01*
X90411500Y-61640056D01*
X90452423Y-61792783D01*
X90452426Y-61792790D01*
X90531475Y-61929709D01*
X90531479Y-61929714D01*
X90531480Y-61929716D01*
X90643284Y-62041520D01*
X90643286Y-62041521D01*
X90643290Y-62041524D01*
X90759471Y-62108600D01*
X90780216Y-62120577D01*
X90932943Y-62161500D01*
X90932945Y-62161500D01*
X91091055Y-62161500D01*
X91091057Y-62161500D01*
X91243784Y-62120577D01*
X91380716Y-62041520D01*
X91440293Y-61981943D01*
X102911500Y-61981943D01*
X102911500Y-62140057D01*
X102946306Y-62269953D01*
X102952423Y-62292783D01*
X102952426Y-62292790D01*
X103031475Y-62429709D01*
X103031479Y-62429714D01*
X103031480Y-62429716D01*
X103143284Y-62541520D01*
X103143286Y-62541521D01*
X103143290Y-62541524D01*
X103210765Y-62580480D01*
X103280216Y-62620577D01*
X103432943Y-62661500D01*
X103432945Y-62661500D01*
X103591055Y-62661500D01*
X103591057Y-62661500D01*
X103743784Y-62620577D01*
X103880716Y-62541520D01*
X103992520Y-62429716D01*
X104071577Y-62292784D01*
X104112500Y-62140057D01*
X104112500Y-61981943D01*
X108911500Y-61981943D01*
X108911500Y-62140057D01*
X108946306Y-62269953D01*
X108952423Y-62292783D01*
X108952426Y-62292790D01*
X109031475Y-62429709D01*
X109031479Y-62429714D01*
X109031480Y-62429716D01*
X109143284Y-62541520D01*
X109143286Y-62541521D01*
X109143290Y-62541524D01*
X109210765Y-62580480D01*
X109280216Y-62620577D01*
X109432943Y-62661500D01*
X109432945Y-62661500D01*
X109591055Y-62661500D01*
X109591057Y-62661500D01*
X109743784Y-62620577D01*
X109880716Y-62541520D01*
X109992520Y-62429716D01*
X110071577Y-62292784D01*
X110112500Y-62140057D01*
X110112500Y-61981943D01*
X110071577Y-61829216D01*
X110045979Y-61784879D01*
X109992524Y-61692290D01*
X109992518Y-61692282D01*
X109880717Y-61580481D01*
X109880709Y-61580475D01*
X109743790Y-61501426D01*
X109743786Y-61501424D01*
X109743784Y-61501423D01*
X109591057Y-61460500D01*
X109432943Y-61460500D01*
X109280216Y-61501423D01*
X109280209Y-61501426D01*
X109143290Y-61580475D01*
X109143282Y-61580481D01*
X109031481Y-61692282D01*
X109031475Y-61692290D01*
X108952426Y-61829209D01*
X108952423Y-61829216D01*
X108911500Y-61981943D01*
X104112500Y-61981943D01*
X104071577Y-61829216D01*
X104045979Y-61784879D01*
X103992524Y-61692290D01*
X103992518Y-61692282D01*
X103880717Y-61580481D01*
X103880709Y-61580475D01*
X103743790Y-61501426D01*
X103743786Y-61501424D01*
X103743784Y-61501423D01*
X103591057Y-61460500D01*
X103432943Y-61460500D01*
X103280216Y-61501423D01*
X103280209Y-61501426D01*
X103143290Y-61580475D01*
X103143282Y-61580481D01*
X103031481Y-61692282D01*
X103031475Y-61692290D01*
X102952426Y-61829209D01*
X102952423Y-61829216D01*
X102911500Y-61981943D01*
X91440293Y-61981943D01*
X91492520Y-61929716D01*
X91496352Y-61923078D01*
X91502855Y-61911816D01*
X91550547Y-61829209D01*
X91571577Y-61792784D01*
X91612500Y-61640057D01*
X91612500Y-61481943D01*
X91571577Y-61329216D01*
X91506823Y-61217057D01*
X91492524Y-61192290D01*
X91492518Y-61192282D01*
X91404149Y-61103913D01*
X91370664Y-61042590D01*
X91375648Y-60972898D01*
X91417520Y-60916965D01*
X91482984Y-60892548D01*
X91490438Y-60892240D01*
X92002573Y-60886508D01*
X92003961Y-60886500D01*
X130612500Y-60886500D01*
X130679539Y-60906185D01*
G37*
%TD.AperFunction*%
%TD*%
M02*
