M48
; DRILL file KiCad 10.0.5 date 2026-08-24T21:40:48
; FORMAT={-:-/ absolute / metric / decimal}
; #@! TF.CreationDate,2026-08-24T21:40:48-04:00
; #@! TF.GenerationSoftware,Kicad,Pcbnew,10.0.5
; #@! TF.FileFunction,Plated,1,4,PTH
FMAT,2
METRIC
; #@! TA.AperFunction,Plated,PTH,ViaDrill
T1C0.300
; #@! TA.AperFunction,Plated,PTH,ComponentDrill
T2C0.400
; #@! TA.AperFunction,Plated,PTH,ComponentDrill
T3C0.500
; #@! TA.AperFunction,Plated,PTH,ComponentDrill
T4C0.900
; #@! TA.AperFunction,Plated,PTH,ComponentDrill
T5C1.000
; #@! TA.AperFunction,Plated,PTH,ComponentDrill
T6C1.200
%
G90
G05
T1
X69.262Y-84.561
X70.388Y-72.034
X75.618Y-70.411
X77.262Y-72.811
X80.762Y-84.561
X82.512Y-84.561
X86.012Y-85.061
X86.262Y-62.061
X88.762Y-79.811
X89.012Y-76.561
X89.262Y-71.061
X89.762Y-69.061
X90.762Y-76.311
X90.762Y-78.311
X91.012Y-61.561
X91.262Y-65.791
X92.162Y-63.061
X92.262Y-70.061
X92.262Y-78.561
X92.512Y-73.561
X92.762Y-65.061
X93.732Y-70.06
X94.512Y-73.311
X94.781Y-83.38
X95.012Y-68.392
X95.512Y-72.292
X95.762Y-75.311
X96.012Y-83.061
X96.262Y-63.561
X96.262Y-68.561
X96.264Y-71.311
X96.512Y-65.561
X96.962Y-76.361
X97.262Y-70.561
X98.012Y-80.561
X98.162Y-76.161
X98.512Y-83.061
X98.562Y-84.761
X98.762Y-79.061
X99.262Y-68.811
X99.262Y-72.561
X99.762Y-74.561
X99.888Y-62.959
X100.012Y-65.561
X100.012Y-77.811
X100.512Y-83.811
X100.762Y-80.561
X101.512Y-68.811
X102.512Y-74.311
X103.012Y-77.811
X103.262Y-64.061
X103.512Y-62.061
X103.762Y-71.561
X104.262Y-74.061
X104.542Y-76.275
X104.762Y-66.961
X106.262Y-77.561
X107.362Y-66.561
X108.012Y-77.811
X108.762Y-71.061
X109.262Y-83.311
X109.512Y-62.061
X110.262Y-77.811
X113.262Y-78.811
X117.012Y-71.311
X121.762Y-70.561
X123.262Y-73.311
X123.512Y-70.561
X125.012Y-69.811
X125.762Y-70.561
X126.762Y-69.311
X127.012Y-65.811
X127.762Y-78.061
X128.519Y-71.808
X128.762Y-68.061
X129.762Y-84.311
X130.262Y-68.311
T2
X72.554Y-67.649
X72.954Y-66.949
X73.754Y-66.949
X74.154Y-67.649
X74.554Y-66.949
X74.954Y-67.649
X75.754Y-67.649
X76.154Y-66.949
X76.554Y-67.649
X76.954Y-66.949
X77.754Y-66.949
X78.154Y-67.649
T4
X70.262Y-81.261
X74.262Y-81.261
T5
X79.462Y-79.661
X79.462Y-82.861
T6
X114.012Y-65.433
X114.033Y-81.561
X117.512Y-65.433
X117.533Y-81.561
X121.012Y-65.433
X121.033Y-81.561
X124.512Y-65.433
X124.533Y-81.561
T3
G00X70.864Y-62.959
M15
G01X70.864Y-62.359
M16
G05
G00X71.224Y-67.359
M15
G01X71.224Y-66.759
M16
G05
G00X79.484Y-67.359
M15
G01X79.484Y-66.759
M16
G05
G00X79.844Y-62.959
M15
G01X79.844Y-62.359
M16
G05
M30
