%TF.GenerationSoftware,KiCad,Pcbnew,10.0.5*%
%TF.CreationDate,2026-08-24T21:40:42-04:00*%
%TF.ProjectId,Brand-X,4272616e-642d-4582-9e6b-696361645f70,rev?*%
%TF.SameCoordinates,Original*%
%TF.FileFunction,Paste,Top*%
%TF.FilePolarity,Positive*%
%FSLAX46Y46*%
G04 Gerber Fmt 4.6, Leading zero omitted, Abs format (unit mm)*
G04 Created by KiCad (PCBNEW 10.0.5) date 2026-08-24 21:40:42*
%MOMM*%
%LPD*%
G01*
G04 APERTURE LIST*
G04 Aperture macros list*
%AMRoundRect*
0 Rectangle with rounded corners*
0 $1 Rounding radius*
0 $2 $3 $4 $5 $6 $7 $8 $9 X,Y pos of 4 corners*
0 Add a 4 corners polygon primitive as box body*
4,1,4,$2,$3,$4,$5,$6,$7,$8,$9,$2,$3,0*
0 Add four circle primitives for the rounded corners*
1,1,$1+$1,$2,$3*
1,1,$1+$1,$4,$5*
1,1,$1+$1,$6,$7*
1,1,$1+$1,$8,$9*
0 Add four rect primitives between the rounded corners*
20,1,$1+$1,$2,$3,$4,$5,0*
20,1,$1+$1,$4,$5,$6,$7,0*
20,1,$1+$1,$6,$7,$8,$9,0*
20,1,$1+$1,$8,$9,$2,$3,0*%
%AMFreePoly0*
4,1,21,1.372500,0.787500,0.862500,0.787500,0.862500,0.532500,1.372500,0.532500,1.372500,0.127500,0.862500,0.127500,0.862500,-0.127500,1.372500,-0.127500,1.372500,-0.532500,0.862500,-0.532500,0.862500,-0.787500,1.372500,-0.787500,1.372500,-1.195000,0.612500,-1.195000,0.612500,-1.117500,-0.862500,-1.117500,-0.862500,1.117500,0.612500,1.117500,0.612500,1.195000,1.372500,1.195000,
1.372500,0.787500,1.372500,0.787500,$1*%
G04 Aperture macros list end*
%ADD10RoundRect,0.087500X0.087500X-0.225000X0.087500X0.225000X-0.087500X0.225000X-0.087500X-0.225000X0*%
%ADD11RoundRect,0.087500X0.225000X-0.087500X0.225000X0.087500X-0.225000X0.087500X-0.225000X-0.087500X0*%
%ADD12RoundRect,0.135000X-0.135000X-0.185000X0.135000X-0.185000X0.135000X0.185000X-0.135000X0.185000X0*%
%ADD13RoundRect,0.140000X0.140000X0.170000X-0.140000X0.170000X-0.140000X-0.170000X0.140000X-0.170000X0*%
%ADD14RoundRect,0.135000X0.185000X-0.135000X0.185000X0.135000X-0.185000X0.135000X-0.185000X-0.135000X0*%
%ADD15RoundRect,0.237500X-0.287500X-0.237500X0.287500X-0.237500X0.287500X0.237500X-0.287500X0.237500X0*%
%ADD16RoundRect,0.237500X0.237500X-0.287500X0.237500X0.287500X-0.237500X0.287500X-0.237500X-0.287500X0*%
%ADD17RoundRect,0.140000X-0.021213X0.219203X-0.219203X0.021213X0.021213X-0.219203X0.219203X-0.021213X0*%
%ADD18RoundRect,0.140000X-0.170000X0.140000X-0.170000X-0.140000X0.170000X-0.140000X0.170000X0.140000X0*%
%ADD19RoundRect,0.140000X0.219203X0.021213X0.021213X0.219203X-0.219203X-0.021213X-0.021213X-0.219203X0*%
%ADD20RoundRect,0.135000X-0.185000X0.135000X-0.185000X-0.135000X0.185000X-0.135000X0.185000X0.135000X0*%
%ADD21RoundRect,0.125000X-0.475000X-0.125000X0.475000X-0.125000X0.475000X0.125000X-0.475000X0.125000X0*%
%ADD22RoundRect,0.237500X-0.237500X0.300000X-0.237500X-0.300000X0.237500X-0.300000X0.237500X0.300000X0*%
%ADD23RoundRect,0.135000X0.135000X0.185000X-0.135000X0.185000X-0.135000X-0.185000X0.135000X-0.185000X0*%
%ADD24RoundRect,0.237500X0.237500X-0.300000X0.237500X0.300000X-0.237500X0.300000X-0.237500X-0.300000X0*%
%ADD25RoundRect,0.237500X-0.237500X0.287500X-0.237500X-0.287500X0.237500X-0.287500X0.237500X0.287500X0*%
%ADD26RoundRect,0.100000X0.225000X0.100000X-0.225000X0.100000X-0.225000X-0.100000X0.225000X-0.100000X0*%
%ADD27RoundRect,0.140000X0.021213X-0.219203X0.219203X-0.021213X-0.021213X0.219203X-0.219203X0.021213X0*%
%ADD28RoundRect,0.135000X0.035355X-0.226274X0.226274X-0.035355X-0.035355X0.226274X-0.226274X0.035355X0*%
%ADD29RoundRect,0.375000X0.375000X-0.625000X0.375000X0.625000X-0.375000X0.625000X-0.375000X-0.625000X0*%
%ADD30RoundRect,0.500000X1.400000X-0.500000X1.400000X0.500000X-1.400000X0.500000X-1.400000X-0.500000X0*%
%ADD31R,0.889000X0.990600*%
%ADD32R,1.701800X0.558800*%
%ADD33R,0.405000X0.990000*%
%ADD34FreePoly0,270.000000*%
%ADD35RoundRect,0.162500X0.650000X0.162500X-0.650000X0.162500X-0.650000X-0.162500X0.650000X-0.162500X0*%
%ADD36R,0.300000X0.900000*%
%ADD37RoundRect,0.237500X0.300000X0.237500X-0.300000X0.237500X-0.300000X-0.237500X0.300000X-0.237500X0*%
%ADD38R,0.500000X0.850000*%
%ADD39RoundRect,0.140000X-0.140000X-0.170000X0.140000X-0.170000X0.140000X0.170000X-0.140000X0.170000X0*%
%ADD40RoundRect,0.249999X0.558616X0.000000X0.000000X0.558616X-0.558616X0.000000X0.000000X-0.558616X0*%
%ADD41RoundRect,0.050000X0.309359X-0.238649X-0.238649X0.309359X-0.309359X0.238649X0.238649X-0.309359X0*%
%ADD42RoundRect,0.050000X0.309359X0.238649X0.238649X0.309359X-0.309359X-0.238649X-0.238649X-0.309359X0*%
%ADD43RoundRect,0.250000X0.350000X-0.450000X0.350000X0.450000X-0.350000X0.450000X-0.350000X-0.450000X0*%
%ADD44RoundRect,0.237500X0.287500X0.237500X-0.287500X0.237500X-0.287500X-0.237500X0.287500X-0.237500X0*%
G04 APERTURE END LIST*
D10*
%TO.C,U2*%
X105512000Y-78973501D03*
X106012000Y-78973500D03*
X106512000Y-78973500D03*
X107012000Y-78973501D03*
D11*
X107174500Y-78310999D03*
X107174500Y-77811000D03*
X107174500Y-77311001D03*
D10*
X107012000Y-76648499D03*
X106512000Y-76648500D03*
X106012000Y-76648500D03*
X105512000Y-76648499D03*
D11*
X105349500Y-77311001D03*
X105349500Y-77811000D03*
X105349500Y-78310999D03*
%TD*%
D12*
%TO.C,R19*%
X75710783Y-77039080D03*
X76730781Y-77039080D03*
%TD*%
D13*
%TO.C,C9*%
X99742000Y-79811000D03*
X98782000Y-79811000D03*
%TD*%
D14*
%TO.C,R18*%
X117711999Y-71405499D03*
X117711999Y-70385501D03*
%TD*%
D15*
%TO.C,D1*%
X86834001Y-67833401D03*
X88583999Y-67833401D03*
%TD*%
D14*
%TO.C,R36*%
X91262000Y-70320999D03*
X91262000Y-69301001D03*
%TD*%
D12*
%TO.C,R24*%
X129007002Y-71356000D03*
X130027000Y-71356000D03*
%TD*%
D14*
%TO.C,R16*%
X118854999Y-71355999D03*
X118854999Y-70336001D03*
%TD*%
D16*
%TO.C,D13*%
X124566000Y-75532999D03*
X124566000Y-73783001D03*
%TD*%
D17*
%TO.C,C11*%
X102895782Y-71071218D03*
X102216960Y-71750040D03*
%TD*%
D13*
%TO.C,C10*%
X106242000Y-75311000D03*
X105282000Y-75311000D03*
%TD*%
D14*
%TO.C,R29*%
X128762000Y-79531999D03*
X128762000Y-78512001D03*
%TD*%
D18*
%TO.C,C23*%
X98099742Y-81334999D03*
X98099742Y-82294999D03*
%TD*%
D19*
%TO.C,C25*%
X91719782Y-74290040D03*
X91040960Y-73611218D03*
%TD*%
D14*
%TO.C,R37*%
X90012000Y-71570999D03*
X90012000Y-70551001D03*
%TD*%
D20*
%TO.C,R30*%
X127778000Y-70465001D03*
X127778000Y-71484999D03*
%TD*%
D19*
%TO.C,C20*%
X92100782Y-72258040D03*
X91421960Y-71579218D03*
%TD*%
D16*
%TO.C,D10*%
X110266000Y-83704000D03*
X110266000Y-81954002D03*
%TD*%
D21*
%TO.C,U1*%
X101612000Y-78561000D03*
X101612000Y-79811000D03*
X101612000Y-81061000D03*
X101612000Y-82311000D03*
X103912000Y-82311000D03*
X103912000Y-81061000D03*
X103912000Y-79811000D03*
X103912000Y-78561000D03*
%TD*%
D16*
%TO.C,D14*%
X128508000Y-83960999D03*
X128508000Y-82211001D03*
%TD*%
D13*
%TO.C,C2*%
X109536000Y-77684000D03*
X108576000Y-77684000D03*
%TD*%
D22*
%TO.C,C12*%
X88762000Y-62198499D03*
X88762000Y-63923501D03*
%TD*%
D23*
%TO.C,R26*%
X104021999Y-77061000D03*
X103002001Y-77061000D03*
%TD*%
D17*
%TO.C,C16*%
X92227782Y-75135218D03*
X91548960Y-75814040D03*
%TD*%
D24*
%TO.C,C4*%
X99714000Y-82822502D03*
X99714000Y-81097500D03*
%TD*%
D20*
%TO.C,R33*%
X90762000Y-63301001D03*
X90762000Y-64320999D03*
%TD*%
D23*
%TO.C,R31*%
X99271999Y-65561000D03*
X98252001Y-65561000D03*
%TD*%
D25*
%TO.C,D5*%
X102187000Y-63686001D03*
X102187000Y-65435999D03*
%TD*%
D26*
%TO.C,Q2*%
X129712000Y-67461000D03*
X129711999Y-66811000D03*
X129712000Y-66161000D03*
X127812000Y-66161000D03*
X127812001Y-66811000D03*
X127812000Y-67461000D03*
%TD*%
D27*
%TO.C,C22*%
X100692960Y-70226040D03*
X101371782Y-69547218D03*
%TD*%
D28*
%TO.C,R7*%
X101433747Y-71009253D03*
X102154995Y-70288005D03*
%TD*%
D12*
%TO.C,R21*%
X74948783Y-75515080D03*
X75968781Y-75515080D03*
%TD*%
D17*
%TO.C,C17*%
X93951040Y-77775960D03*
X93272218Y-78454782D03*
%TD*%
D29*
%TO.C,U4*%
X104712000Y-68455999D03*
X107012000Y-68455999D03*
D30*
X107012000Y-62156001D03*
D29*
X109311999Y-68456001D03*
%TD*%
D31*
%TO.C,SW3*%
X95051654Y-62120699D03*
X99151650Y-62120699D03*
X95051654Y-63720703D03*
X99151650Y-63720703D03*
D32*
X97101652Y-64345702D03*
%TD*%
D17*
%TO.C,C15*%
X94538669Y-78564331D03*
X93859847Y-79243153D03*
%TD*%
D20*
%TO.C,R14*%
X122407000Y-70465001D03*
X122407000Y-71484999D03*
%TD*%
D33*
%TO.C,Q3*%
X128630000Y-72753000D03*
X127970000Y-72753000D03*
X127310000Y-72753000D03*
X126650000Y-72753000D03*
D34*
X127640000Y-74745500D03*
%TD*%
D14*
%TO.C,R17*%
X110012000Y-79783000D03*
X110012000Y-78763002D03*
%TD*%
D35*
%TO.C,U3*%
X90661498Y-83720999D03*
X90661498Y-82451001D03*
X90661500Y-81181000D03*
X90661499Y-79910999D03*
X83486502Y-79911001D03*
X83486502Y-81180999D03*
X83486500Y-82451000D03*
X83486501Y-83721001D03*
%TD*%
D16*
%TO.C,D9*%
X122280000Y-75532999D03*
X122280000Y-73783001D03*
%TD*%
D14*
%TO.C,R22*%
X124439000Y-71484999D03*
X124439000Y-70465001D03*
%TD*%
D12*
%TO.C,R12*%
X119867000Y-71102000D03*
X120886998Y-71102000D03*
%TD*%
D19*
%TO.C,C21*%
X94851411Y-69400411D03*
X94172589Y-68721589D03*
%TD*%
D14*
%TO.C,R23*%
X96853000Y-82327998D03*
X96853000Y-81308000D03*
%TD*%
D36*
%TO.C,J6*%
X78104400Y-68858600D03*
X77604400Y-68858600D03*
X77104400Y-68858600D03*
X76604400Y-68858600D03*
X76104400Y-68858600D03*
X75604400Y-68858600D03*
X75104400Y-68858600D03*
X74604400Y-68858600D03*
X74104400Y-68858600D03*
X73604400Y-68858600D03*
X73104400Y-68858600D03*
X72604400Y-68858600D03*
%TD*%
D33*
%TO.C,Q1*%
X120502000Y-72626000D03*
X119842000Y-72626000D03*
X119182000Y-72626000D03*
X118522000Y-72626000D03*
D34*
X119512000Y-74618500D03*
%TD*%
D37*
%TO.C,C14*%
X102374501Y-62061000D03*
X100649499Y-62061000D03*
%TD*%
D24*
%TO.C,C13*%
X87262000Y-64423501D03*
X87262000Y-62698499D03*
%TD*%
D38*
%TO.C,D15*%
X92684501Y-62186000D03*
X92684501Y-63936000D03*
X91664500Y-62186000D03*
X91664500Y-63936000D03*
%TD*%
D17*
%TO.C,C18*%
X93351411Y-76971589D03*
X92672589Y-77650411D03*
%TD*%
D39*
%TO.C,C19*%
X102532000Y-75311000D03*
X103492000Y-75311000D03*
%TD*%
D27*
%TO.C,C24*%
X99930960Y-69464040D03*
X100609782Y-68785218D03*
%TD*%
D40*
%TO.C,U5*%
X97361000Y-74704000D03*
X98492371Y-73572629D03*
X96229629Y-73572629D03*
X97361000Y-72441258D03*
D41*
X97953202Y-77841786D03*
X98236045Y-77558943D03*
X98518887Y-77276101D03*
X98801730Y-76993258D03*
X99084573Y-76710415D03*
X99367415Y-76427573D03*
X99650258Y-76144730D03*
X99933101Y-75861887D03*
X100215944Y-75579044D03*
X100498786Y-75296202D03*
X100781629Y-75013359D03*
X101064472Y-74730516D03*
X101347314Y-74447674D03*
X101630157Y-74164831D03*
D42*
X101630157Y-72980427D03*
X101347314Y-72697584D03*
X101064472Y-72414742D03*
X100781629Y-72131899D03*
X100498786Y-71849056D03*
X100215944Y-71566214D03*
X99933101Y-71283371D03*
X99650258Y-71000528D03*
X99367415Y-70717685D03*
X99084573Y-70434843D03*
X98801730Y-70152000D03*
X98518887Y-69869157D03*
X98236045Y-69586315D03*
X97953202Y-69303472D03*
D41*
X96768798Y-69303472D03*
X96485955Y-69586315D03*
X96203113Y-69869157D03*
X95920270Y-70152000D03*
X95637427Y-70434843D03*
X95354585Y-70717685D03*
X95071742Y-71000528D03*
X94788899Y-71283371D03*
X94506056Y-71566214D03*
X94223214Y-71849056D03*
X93940371Y-72131899D03*
X93657528Y-72414742D03*
X93374686Y-72697584D03*
X93091843Y-72980427D03*
D42*
X93091843Y-74164831D03*
X93374686Y-74447674D03*
X93657528Y-74730516D03*
X93940371Y-75013359D03*
X94223214Y-75296202D03*
X94506056Y-75579044D03*
X94788899Y-75861887D03*
X95071742Y-76144730D03*
X95354585Y-76427573D03*
X95637427Y-76710415D03*
X95920270Y-76993258D03*
X96203113Y-77276101D03*
X96485955Y-77558943D03*
X96768798Y-77841786D03*
%TD*%
D20*
%TO.C,R35*%
X93762000Y-62801001D03*
X93762000Y-63820999D03*
%TD*%
%TO.C,R10*%
X77168000Y-71019001D03*
X77168000Y-72038999D03*
%TD*%
D14*
%TO.C,R11*%
X71262000Y-72070999D03*
X71262000Y-71051001D03*
%TD*%
%TO.C,R9*%
X100790000Y-64334999D03*
X100790000Y-63315001D03*
%TD*%
D43*
%TO.C,Y1*%
X107140000Y-73815000D03*
X107140000Y-71615000D03*
X105440000Y-71615000D03*
X105440000Y-73815000D03*
%TD*%
D44*
%TO.C,D4*%
X86932999Y-69497000D03*
X85183001Y-69497000D03*
%TD*%
D20*
%TO.C,R34*%
X93762000Y-64801001D03*
X93762000Y-65820999D03*
%TD*%
D39*
%TO.C,C1*%
X83419001Y-85244999D03*
X84379001Y-85244999D03*
%TD*%
D20*
%TO.C,R28*%
X126762000Y-70465001D03*
X126762000Y-71484999D03*
%TD*%
D12*
%TO.C,R25*%
X101002001Y-77061000D03*
X102021999Y-77061000D03*
%TD*%
M02*
