%TF.GenerationSoftware,KiCad,Pcbnew,10.0.5*%
%TF.CreationDate,2026-08-24T21:40:42-04:00*%
%TF.ProjectId,Brand-X,4272616e-642d-4582-9e6b-696361645f70,rev?*%
%TF.SameCoordinates,Original*%
%TF.FileFunction,Copper,L1,Top*%
%TF.FilePolarity,Positive*%
%FSLAX46Y46*%
G04 Gerber Fmt 4.6, Leading zero omitted, Abs format (unit mm)*
G04 Created by KiCad (PCBNEW 10.0.5) date 2026-08-24 21:40:42*
%MOMM*%
%LPD*%
G01*
G04 APERTURE LIST*
G04 Aperture macros list*
%AMRoundRect*
0 Rectangle with rounded corners*
0 $1 Rounding radius*
0 $2 $3 $4 $5 $6 $7 $8 $9 X,Y pos of 4 corners*
0 Add a 4 corners polygon primitive as box body*
4,1,4,$2,$3,$4,$5,$6,$7,$8,$9,$2,$3,0*
0 Add four circle primitives for the rounded corners*
1,1,$1+$1,$2,$3*
1,1,$1+$1,$4,$5*
1,1,$1+$1,$6,$7*
1,1,$1+$1,$8,$9*
0 Add four rect primitives between the rounded corners*
20,1,$1+$1,$2,$3,$4,$5,0*
20,1,$1+$1,$4,$5,$6,$7,0*
20,1,$1+$1,$6,$7,$8,$9,0*
20,1,$1+$1,$8,$9,$2,$3,0*%
%AMRotRect*
0 Rectangle, with rotation*
0 The origin of the aperture is its center*
0 $1 length*
0 $2 width*
0 $3 Rotation angle, in degrees counterclockwise*
0 Add horizontal line*
21,1,$1,$2,0,0,$3*%
%AMFreePoly0*
4,1,21,1.372500,0.787500,0.862500,0.787500,0.862500,0.532500,1.372500,0.532500,1.372500,0.127500,0.862500,0.127500,0.862500,-0.127500,1.372500,-0.127500,1.372500,-0.532500,0.862500,-0.532500,0.862500,-0.787500,1.372500,-0.787500,1.372500,-1.195000,0.612500,-1.195000,0.612500,-1.117500,-0.862500,-1.117500,-0.862500,1.117500,0.612500,1.117500,0.612500,1.195000,1.372500,1.195000,
1.372500,0.787500,1.372500,0.787500,$1*%
G04 Aperture macros list end*
%TA.AperFunction,SMDPad,CuDef*%
%ADD10RoundRect,0.087500X0.087500X-0.225000X0.087500X0.225000X-0.087500X0.225000X-0.087500X-0.225000X0*%
%TD*%
%TA.AperFunction,SMDPad,CuDef*%
%ADD11RoundRect,0.087500X0.225000X-0.087500X0.225000X0.087500X-0.225000X0.087500X-0.225000X-0.087500X0*%
%TD*%
%TA.AperFunction,SMDPad,CuDef*%
%ADD12RoundRect,0.135000X-0.135000X-0.185000X0.135000X-0.185000X0.135000X0.185000X-0.135000X0.185000X0*%
%TD*%
%TA.AperFunction,SMDPad,CuDef*%
%ADD13RoundRect,0.140000X0.140000X0.170000X-0.140000X0.170000X-0.140000X-0.170000X0.140000X-0.170000X0*%
%TD*%
%TA.AperFunction,SMDPad,CuDef*%
%ADD14RoundRect,0.135000X0.185000X-0.135000X0.185000X0.135000X-0.185000X0.135000X-0.185000X-0.135000X0*%
%TD*%
%TA.AperFunction,SMDPad,CuDef*%
%ADD15RoundRect,0.237500X-0.287500X-0.237500X0.287500X-0.237500X0.287500X0.237500X-0.287500X0.237500X0*%
%TD*%
%TA.AperFunction,SMDPad,CuDef*%
%ADD16RoundRect,0.237500X0.237500X-0.287500X0.237500X0.287500X-0.237500X0.287500X-0.237500X-0.287500X0*%
%TD*%
%TA.AperFunction,ComponentPad*%
%ADD17R,1.600000X1.600000*%
%TD*%
%TA.AperFunction,ComponentPad*%
%ADD18C,1.600000*%
%TD*%
%TA.AperFunction,SMDPad,CuDef*%
%ADD19RoundRect,0.140000X-0.021213X0.219203X-0.219203X0.021213X0.021213X-0.219203X0.219203X-0.021213X0*%
%TD*%
%TA.AperFunction,SMDPad,CuDef*%
%ADD20RoundRect,0.140000X-0.170000X0.140000X-0.170000X-0.140000X0.170000X-0.140000X0.170000X0.140000X0*%
%TD*%
%TA.AperFunction,SMDPad,CuDef*%
%ADD21RoundRect,0.140000X0.219203X0.021213X0.021213X0.219203X-0.219203X-0.021213X-0.021213X-0.219203X0*%
%TD*%
%TA.AperFunction,SMDPad,CuDef*%
%ADD22RoundRect,0.135000X-0.185000X0.135000X-0.185000X-0.135000X0.185000X-0.135000X0.185000X0.135000X0*%
%TD*%
%TA.AperFunction,SMDPad,CuDef*%
%ADD23RoundRect,0.125000X-0.475000X-0.125000X0.475000X-0.125000X0.475000X0.125000X-0.475000X0.125000X0*%
%TD*%
%TA.AperFunction,SMDPad,CuDef*%
%ADD24RoundRect,0.237500X-0.237500X0.300000X-0.237500X-0.300000X0.237500X-0.300000X0.237500X0.300000X0*%
%TD*%
%TA.AperFunction,SMDPad,CuDef*%
%ADD25RoundRect,0.135000X0.135000X0.185000X-0.135000X0.185000X-0.135000X-0.185000X0.135000X-0.185000X0*%
%TD*%
%TA.AperFunction,SMDPad,CuDef*%
%ADD26RoundRect,0.237500X0.237500X-0.300000X0.237500X0.300000X-0.237500X0.300000X-0.237500X-0.300000X0*%
%TD*%
%TA.AperFunction,SMDPad,CuDef*%
%ADD27RoundRect,0.237500X-0.237500X0.287500X-0.237500X-0.287500X0.237500X-0.287500X0.237500X0.287500X0*%
%TD*%
%TA.AperFunction,SMDPad,CuDef*%
%ADD28RoundRect,0.100000X0.225000X0.100000X-0.225000X0.100000X-0.225000X-0.100000X0.225000X-0.100000X0*%
%TD*%
%TA.AperFunction,SMDPad,CuDef*%
%ADD29RoundRect,0.140000X0.021213X-0.219203X0.219203X-0.021213X-0.021213X0.219203X-0.219203X0.021213X0*%
%TD*%
%TA.AperFunction,SMDPad,CuDef*%
%ADD30RoundRect,0.135000X0.035355X-0.226274X0.226274X-0.035355X-0.035355X0.226274X-0.226274X0.035355X0*%
%TD*%
%TA.AperFunction,SMDPad,CuDef*%
%ADD31RoundRect,0.375000X0.375000X-0.625000X0.375000X0.625000X-0.375000X0.625000X-0.375000X-0.625000X0*%
%TD*%
%TA.AperFunction,SMDPad,CuDef*%
%ADD32RoundRect,0.500000X1.400000X-0.500000X1.400000X0.500000X-1.400000X0.500000X-1.400000X-0.500000X0*%
%TD*%
%TA.AperFunction,SMDPad,CuDef*%
%ADD33R,0.889000X0.990600*%
%TD*%
%TA.AperFunction,SMDPad,CuDef*%
%ADD34R,1.701800X0.558800*%
%TD*%
%TA.AperFunction,ComponentPad*%
%ADD35C,2.000000*%
%TD*%
%TA.AperFunction,SMDPad,CuDef*%
%ADD36R,0.405000X0.990000*%
%TD*%
%TA.AperFunction,SMDPad,CuDef*%
%ADD37FreePoly0,270.000000*%
%TD*%
%TA.AperFunction,SMDPad,CuDef*%
%ADD38RoundRect,0.162500X0.650000X0.162500X-0.650000X0.162500X-0.650000X-0.162500X0.650000X-0.162500X0*%
%TD*%
%TA.AperFunction,ComponentPad*%
%ADD39RoundRect,0.250001X-0.949999X-0.949999X0.949999X-0.949999X0.949999X0.949999X-0.949999X0.949999X0*%
%TD*%
%TA.AperFunction,ComponentPad*%
%ADD40C,2.400000*%
%TD*%
%TA.AperFunction,ComponentPad*%
%ADD41RoundRect,0.250001X0.949999X0.949999X-0.949999X0.949999X-0.949999X-0.949999X0.949999X-0.949999X0*%
%TD*%
%TA.AperFunction,SMDPad,CuDef*%
%ADD42R,0.300000X0.900000*%
%TD*%
%TA.AperFunction,ComponentPad*%
%ADD43C,0.600000*%
%TD*%
%TA.AperFunction,ComponentPad*%
%ADD44O,0.800000X1.400000*%
%TD*%
%TA.AperFunction,SMDPad,CuDef*%
%ADD45RoundRect,0.237500X0.300000X0.237500X-0.300000X0.237500X-0.300000X-0.237500X0.300000X-0.237500X0*%
%TD*%
%TA.AperFunction,SMDPad,CuDef*%
%ADD46R,0.500000X0.850000*%
%TD*%
%TA.AperFunction,SMDPad,CuDef*%
%ADD47RoundRect,0.140000X-0.140000X-0.170000X0.140000X-0.170000X0.140000X0.170000X-0.140000X0.170000X0*%
%TD*%
%TA.AperFunction,SMDPad,CuDef*%
%ADD48RoundRect,0.050000X0.309359X-0.238649X-0.238649X0.309359X-0.309359X0.238649X0.238649X-0.309359X0*%
%TD*%
%TA.AperFunction,SMDPad,CuDef*%
%ADD49RoundRect,0.050000X0.309359X0.238649X0.238649X0.309359X-0.309359X-0.238649X-0.238649X-0.309359X0*%
%TD*%
%TA.AperFunction,HeatsinkPad*%
%ADD50RotRect,3.200000X3.200000X135.000000*%
%TD*%
%TA.AperFunction,SMDPad,CuDef*%
%ADD51RoundRect,0.250000X0.350000X-0.450000X0.350000X0.450000X-0.350000X0.450000X-0.350000X-0.450000X0*%
%TD*%
%TA.AperFunction,SMDPad,CuDef*%
%ADD52RoundRect,0.237500X0.287500X0.237500X-0.287500X0.237500X-0.287500X-0.237500X0.287500X-0.237500X0*%
%TD*%
%TA.AperFunction,ViaPad*%
%ADD53C,0.600000*%
%TD*%
%TA.AperFunction,Conductor*%
%ADD54C,0.127000*%
%TD*%
%TA.AperFunction,Conductor*%
%ADD55C,0.762000*%
%TD*%
%TA.AperFunction,Conductor*%
%ADD56C,0.381000*%
%TD*%
%TA.AperFunction,Conductor*%
%ADD57C,0.254000*%
%TD*%
G04 APERTURE END LIST*
D10*
%TO.P,U2,1,SDO/SA0_1*%
%TO.N,unconnected-(U2-SDO{slash}SA0-Pad1)*%
X105512000Y-78973501D03*
%TO.P,U2,2,SDX_2*%
%TO.N,GND*%
X106012000Y-78973500D03*
%TO.P,U2,3,SCX_3*%
X106512000Y-78973500D03*
%TO.P,U2,4,INT1_4*%
%TO.N,unconnected-(U2-INT1-Pad4)*%
X107012000Y-78973501D03*
D11*
%TO.P,U2,5,VDDIO_5*%
%TO.N,+3V3*%
X107174500Y-78310999D03*
%TO.P,U2,6,GND_6*%
%TO.N,GND*%
X107174500Y-77811000D03*
%TO.P,U2,7,GND_7*%
X107174500Y-77311001D03*
D10*
%TO.P,U2,8,VDD_8*%
%TO.N,+3V3*%
X107012000Y-76648499D03*
%TO.P,U2,9,INT2_9*%
%TO.N,unconnected-(U2-INT2-Pad9)*%
X106512000Y-76648500D03*
%TO.P,U2,10,NC_10*%
%TO.N,unconnected-(U2-NC-Pad10)*%
X106012000Y-76648500D03*
%TO.P,U2,11,NC_11*%
%TO.N,unconnected-(U2-NC-Pad11)*%
X105512000Y-76648499D03*
D11*
%TO.P,U2,12,CS_12*%
%TO.N,+3V3*%
X105349500Y-77311001D03*
%TO.P,U2,13,SCL_13*%
%TO.N,/SCL*%
X105349500Y-77811000D03*
%TO.P,U2,14,SDA_14*%
%TO.N,/SDA*%
X105349500Y-78310999D03*
%TD*%
D12*
%TO.P,R19,1*%
%TO.N,/USB_D+*%
X75710783Y-77039080D03*
%TO.P,R19,2*%
%TO.N,/USB_+*%
X76730781Y-77039080D03*
%TD*%
D13*
%TO.P,C9,1*%
%TO.N,Net-(U1-CAP)*%
X99742000Y-79811000D03*
%TO.P,C9,2*%
%TO.N,GND*%
X98782000Y-79811000D03*
%TD*%
D14*
%TO.P,R18,1*%
%TO.N,GND*%
X117711999Y-71405499D03*
%TO.P,R18,2*%
%TO.N,/MN_G*%
X117711999Y-70385501D03*
%TD*%
D15*
%TO.P,D1,1,K_1*%
%TO.N,V+*%
X86834001Y-67833401D03*
%TO.P,D1,2,A_2*%
%TO.N,VMOS*%
X88583999Y-67833401D03*
%TD*%
D14*
%TO.P,R36,1*%
%TO.N,/Batt_Measure*%
X91262000Y-70320999D03*
%TO.P,R36,2*%
%TO.N,+BATT*%
X91262000Y-69301001D03*
%TD*%
D12*
%TO.P,R24,1*%
%TO.N,/DN_D*%
X129007002Y-71356000D03*
%TO.P,R24,2*%
%TO.N,VMOS*%
X130027000Y-71356000D03*
%TD*%
D14*
%TO.P,R16,1*%
%TO.N,/MOS_M*%
X118854999Y-71355999D03*
%TO.P,R16,2*%
%TO.N,/MN_G*%
X118854999Y-70336001D03*
%TD*%
D16*
%TO.P,D13,1,K_1*%
%TO.N,/DP_D*%
X124566000Y-75532999D03*
%TO.P,D13,2,A_2*%
%TO.N,/DROGUE_CONT*%
X124566000Y-73783001D03*
%TD*%
D17*
%TO.P,LS1,1,1_1*%
%TO.N,/Speaker*%
X74262000Y-81261000D03*
D18*
%TO.P,LS1,2,2_2*%
%TO.N,GND*%
X70262000Y-81261000D03*
%TD*%
D19*
%TO.P,C11,1*%
%TO.N,Net-(C11-Pad1)*%
X102895782Y-71071218D03*
%TO.P,C11,2*%
%TO.N,GND*%
X102216960Y-71750040D03*
%TD*%
D13*
%TO.P,C10,1*%
%TO.N,/XIN*%
X106242000Y-75311000D03*
%TO.P,C10,2*%
%TO.N,GND*%
X105282000Y-75311000D03*
%TD*%
D14*
%TO.P,R29,1*%
%TO.N,Net-(D14-A)*%
X128762000Y-79531999D03*
%TO.P,R29,2*%
%TO.N,/MOS_D*%
X128762000Y-78512001D03*
%TD*%
D20*
%TO.P,C23,1*%
%TO.N,+3V3*%
X98099742Y-81334999D03*
%TO.P,C23,2*%
%TO.N,GND*%
X98099742Y-82294999D03*
%TD*%
D21*
%TO.P,C25,1*%
%TO.N,+3V3*%
X91719782Y-74290040D03*
%TO.P,C25,2*%
%TO.N,GND*%
X91040960Y-73611218D03*
%TD*%
D14*
%TO.P,R37,1*%
%TO.N,GND*%
X90012000Y-71570999D03*
%TO.P,R37,2*%
%TO.N,/Batt_Measure*%
X90012000Y-70551001D03*
%TD*%
D22*
%TO.P,R30,1*%
%TO.N,GND*%
X127778000Y-70465001D03*
%TO.P,R30,2*%
%TO.N,/DN_G*%
X127778000Y-71484999D03*
%TD*%
D21*
%TO.P,C20,1*%
%TO.N,+3V3*%
X92100782Y-72258040D03*
%TO.P,C20,2*%
%TO.N,GND*%
X91421960Y-71579218D03*
%TD*%
D16*
%TO.P,D10,1,K_1*%
%TO.N,GND*%
X110266000Y-83704000D03*
%TO.P,D10,2,A_2*%
%TO.N,Net-(D10-A)*%
X110266000Y-81954002D03*
%TD*%
D23*
%TO.P,U1,1,VDD_1*%
%TO.N,+3V3*%
X101612000Y-78561000D03*
%TO.P,U1,2,CAP_2*%
%TO.N,Net-(U1-CAP)*%
X101612000Y-79811000D03*
%TO.P,U1,3,GND_3*%
%TO.N,GND*%
X101612000Y-81061000D03*
%TO.P,U1,4,VDDIO_4*%
%TO.N,+3V3*%
X101612000Y-82311000D03*
%TO.P,U1,5,INT2_5*%
%TO.N,unconnected-(U1-INT2-Pad5)*%
X103912000Y-82311000D03*
%TO.P,U1,6,INT1_6*%
%TO.N,unconnected-(U1-INT1-Pad6)*%
X103912000Y-81061000D03*
%TO.P,U1,7,SDL_7*%
%TO.N,/SDA*%
X103912000Y-79811000D03*
%TO.P,U1,8,SCL_8*%
%TO.N,/SCL*%
X103912000Y-78561000D03*
%TD*%
D16*
%TO.P,D14,1,K_1*%
%TO.N,GND*%
X128508000Y-83960999D03*
%TO.P,D14,2,A_2*%
%TO.N,Net-(D14-A)*%
X128508000Y-82211001D03*
%TD*%
D13*
%TO.P,C2,1*%
%TO.N,+3V3*%
X109536000Y-77684000D03*
%TO.P,C2,2*%
%TO.N,GND*%
X108576000Y-77684000D03*
%TD*%
D24*
%TO.P,C12,1*%
%TO.N,+3V3*%
X88762000Y-62198499D03*
%TO.P,C12,2*%
%TO.N,GND*%
X88762000Y-63923501D03*
%TD*%
D25*
%TO.P,R26,1*%
%TO.N,/SCL*%
X104021999Y-77061000D03*
%TO.P,R26,2*%
%TO.N,+3V3*%
X103002001Y-77061000D03*
%TD*%
D19*
%TO.P,C16,1*%
%TO.N,+1V1*%
X92227782Y-75135218D03*
%TO.P,C16,2*%
%TO.N,GND*%
X91548960Y-75814040D03*
%TD*%
D26*
%TO.P,C4,1*%
%TO.N,+3V3*%
X99714000Y-82822502D03*
%TO.P,C4,2*%
%TO.N,GND*%
X99714000Y-81097500D03*
%TD*%
D22*
%TO.P,R33,1*%
%TO.N,/R'*%
X90762000Y-63301001D03*
%TO.P,R33,2*%
%TO.N,/R*%
X90762000Y-64320999D03*
%TD*%
D25*
%TO.P,R31,1*%
%TO.N,+3V3*%
X99271999Y-65561000D03*
%TO.P,R31,2*%
%TO.N,/Mode_Sel*%
X98252001Y-65561000D03*
%TD*%
D27*
%TO.P,D5,1,K_1*%
%TO.N,GND*%
X102187000Y-63686001D03*
%TO.P,D5,2,A_2*%
%TO.N,Net-(D5-A)*%
X102187000Y-65435999D03*
%TD*%
D28*
%TO.P,Q2,1,S_1*%
%TO.N,GND*%
X129712000Y-67461000D03*
%TO.P,Q2,2,G_2*%
%TO.N,/MN_G*%
X129711999Y-66811000D03*
%TO.P,Q2,3,D_3*%
%TO.N,/DN_D*%
X129712000Y-66161000D03*
%TO.P,Q2,4,S_4*%
%TO.N,GND*%
X127812000Y-66161000D03*
%TO.P,Q2,5,G_5*%
%TO.N,/DN_G*%
X127812001Y-66811000D03*
%TO.P,Q2,6,D_6*%
%TO.N,/MN_D*%
X127812000Y-67461000D03*
%TD*%
D29*
%TO.P,C22,1*%
%TO.N,+3V3*%
X100692960Y-70226040D03*
%TO.P,C22,2*%
%TO.N,GND*%
X101371782Y-69547218D03*
%TD*%
D30*
%TO.P,R7,1*%
%TO.N,/XOUT*%
X101433747Y-71009253D03*
%TO.P,R7,2*%
%TO.N,Net-(C11-Pad1)*%
X102154995Y-70288005D03*
%TD*%
D12*
%TO.P,R21,1*%
%TO.N,/USB_D-*%
X74948783Y-75515080D03*
%TO.P,R21,2*%
%TO.N,/USB_-*%
X75968781Y-75515080D03*
%TD*%
D19*
%TO.P,C17,1*%
%TO.N,+3V3*%
X93951040Y-77775960D03*
%TO.P,C17,2*%
%TO.N,GND*%
X93272218Y-78454782D03*
%TD*%
D31*
%TO.P,U4,1,GND_1*%
%TO.N,GND*%
X104712000Y-68455999D03*
%TO.P,U4,2,VO_2*%
%TO.N,+3V3*%
X107012000Y-68455999D03*
D32*
X107012000Y-62156001D03*
D31*
%TO.P,U4,3,VI_3*%
%TO.N,V+*%
X109311999Y-68456001D03*
%TD*%
D33*
%TO.P,SW3,1,1_1*%
%TO.N,/Mode_Sel*%
X95051654Y-62120699D03*
%TO.P,SW3,2,2_2*%
X99151650Y-62120699D03*
%TO.P,SW3,3,3_3*%
%TO.N,GND*%
X95051654Y-63720703D03*
%TO.P,SW3,4,4_4*%
X99151650Y-63720703D03*
D34*
%TO.P,SW3,5,5_5*%
X97101652Y-64345702D03*
%TD*%
D35*
%TO.P,TP3,1,1_1*%
%TO.N,/TX*%
X79462000Y-79661000D03*
%TD*%
D19*
%TO.P,C15,1*%
%TO.N,+1V1*%
X94538669Y-78564331D03*
%TO.P,C15,2*%
%TO.N,GND*%
X93859847Y-79243153D03*
%TD*%
D22*
%TO.P,R14,1*%
%TO.N,+3V3*%
X122407000Y-70465001D03*
%TO.P,R14,2*%
%TO.N,/MAIN_CONT*%
X122407000Y-71484999D03*
%TD*%
D36*
%TO.P,Q3,1,S_1*%
%TO.N,VMOS*%
X128630000Y-72753000D03*
%TO.P,Q3,2,S_2*%
X127970000Y-72753000D03*
%TO.P,Q3,3,S_3*%
X127310000Y-72753000D03*
%TO.P,Q3,4,G_4*%
%TO.N,/DN_D*%
X126650000Y-72753000D03*
D37*
%TO.P,Q3,5,D_5*%
%TO.N,/DP_D*%
X127640000Y-74745500D03*
%TD*%
D14*
%TO.P,R17,1*%
%TO.N,Net-(D10-A)*%
X110012000Y-79783000D03*
%TO.P,R17,2*%
%TO.N,/MOS_M*%
X110012000Y-78763002D03*
%TD*%
D38*
%TO.P,U3,1,~{CS}_1*%
%TO.N,/QSPI_SS*%
X90661498Y-83720999D03*
%TO.P,U3,2,DO(IO1)_2*%
%TO.N,/QSPI_SD1*%
X90661498Y-82451001D03*
%TO.P,U3,3,IO2_3*%
%TO.N,/QSPI_SD2*%
X90661500Y-81181000D03*
%TO.P,U3,4,GND_4*%
%TO.N,GND*%
X90661499Y-79910999D03*
%TO.P,U3,5,DI(IO0)_5*%
%TO.N,/QSPI_SD0*%
X83486502Y-79911001D03*
%TO.P,U3,6,CLK_6*%
%TO.N,/QSPI_SCLK*%
X83486502Y-81180999D03*
%TO.P,U3,7,IO3_7*%
%TO.N,/QSPI_SD3*%
X83486500Y-82451000D03*
%TO.P,U3,8,VCC_8*%
%TO.N,+3V3*%
X83486501Y-83721001D03*
%TD*%
D16*
%TO.P,D9,1,K_1*%
%TO.N,/MP_D*%
X122280000Y-75532999D03*
%TO.P,D9,2,A_2*%
%TO.N,/MAIN_CONT*%
X122280000Y-73783001D03*
%TD*%
D14*
%TO.P,R22,1*%
%TO.N,/DROGUE_CONT*%
X124439000Y-71484999D03*
%TO.P,R22,2*%
%TO.N,+3V3*%
X124439000Y-70465001D03*
%TD*%
D39*
%TO.P,J2,1,Pin_1_1*%
%TO.N,/MP_D*%
X114033000Y-81561000D03*
D40*
%TO.P,J2,2,Pin_2_2*%
%TO.N,GND*%
X117533000Y-81561000D03*
%TO.P,J2,3,Pin_3_3*%
%TO.N,/DP_D*%
X121033000Y-81561000D03*
%TO.P,J2,4,Pin_4_4*%
%TO.N,GND*%
X124533000Y-81561000D03*
%TD*%
D12*
%TO.P,R12,1*%
%TO.N,/MN_D*%
X119867000Y-71102000D03*
%TO.P,R12,2*%
%TO.N,VMOS*%
X120886998Y-71102000D03*
%TD*%
D21*
%TO.P,C21,1*%
%TO.N,+3V3*%
X94851411Y-69400411D03*
%TO.P,C21,2*%
%TO.N,GND*%
X94172589Y-68721589D03*
%TD*%
D41*
%TO.P,J5,1,Pin_1_1*%
%TO.N,VMOS*%
X124512000Y-65433000D03*
D40*
%TO.P,J5,2,Pin_2_2*%
%TO.N,+BATT*%
X121012000Y-65433000D03*
%TO.P,J5,3,Pin_3_3*%
%TO.N,GND*%
X117512001Y-65433000D03*
%TO.P,J5,4,Pin_4_4*%
%TO.N,+BATT*%
X114012000Y-65433000D03*
%TD*%
D14*
%TO.P,R23,1*%
%TO.N,+3V3*%
X96853000Y-82327998D03*
%TO.P,R23,2*%
%TO.N,/QSPI_SS*%
X96853000Y-81308000D03*
%TD*%
D42*
%TO.P,J6,A1,GND_A_A1*%
%TO.N,GND*%
X78104400Y-68858600D03*
%TO.P,J6,A2,SSTXP1_A2*%
%TO.N,unconnected-(J6-SSTXP1-PadA2)*%
X77604400Y-68858600D03*
%TO.P,J6,A3,SSTXN1_A3*%
%TO.N,unconnected-(J6-SSTXN1-PadA3)*%
X77104400Y-68858600D03*
%TO.P,J6,A4,VBUS_A_A4*%
%TO.N,VBUS*%
X76604400Y-68858600D03*
%TO.P,J6,A5,CC1_A5*%
%TO.N,Net-(J6-CC1)*%
X76104400Y-68858600D03*
%TO.P,J6,A6,DP1_A6*%
%TO.N,/USB_D+*%
X75604400Y-68858600D03*
%TO.P,J6,A7,DN1_A7*%
%TO.N,/USB_D-*%
X75104400Y-68858600D03*
%TO.P,J6,A8,SBU1_A8*%
%TO.N,unconnected-(J6-SBU1-PadA8)*%
X74604400Y-68858600D03*
%TO.P,J6,A9,VBUS_A__1_A9*%
%TO.N,VBUS*%
X74104400Y-68858600D03*
%TO.P,J6,A10,SSRXN2_A10*%
%TO.N,unconnected-(J6-SSRXN2-PadA10)*%
X73604400Y-68858600D03*
%TO.P,J6,A11,SSRXP2_A11*%
%TO.N,unconnected-(J6-SSRXP2-PadA11)*%
X73104400Y-68858600D03*
%TO.P,J6,A12,GND_A__1_A12*%
%TO.N,GND*%
X72604400Y-68858600D03*
D43*
%TO.P,J6,B1,GND_B_B1*%
X72554400Y-67648600D03*
%TO.P,J6,B2,SSTXP2_B2*%
%TO.N,unconnected-(J6-SSTXP2-PadB2)*%
X72954400Y-66948600D03*
%TO.P,J6,B3,SSTXN2_B3*%
%TO.N,unconnected-(J6-SSTXN2-PadB3)*%
X73754400Y-66948600D03*
%TO.P,J6,B4,VBUS_B_B4*%
%TO.N,VBUS*%
X74154400Y-67648600D03*
%TO.P,J6,B5,CC2_B5*%
%TO.N,Net-(J6-CC2)*%
X74554400Y-66948600D03*
%TO.P,J6,B6,DP2_B6*%
%TO.N,/USB_D+*%
X74954400Y-67648600D03*
%TO.P,J6,B7,DN2_B7*%
%TO.N,/USB_D-*%
X75754400Y-67648600D03*
%TO.P,J6,B8,SBU2_B8*%
%TO.N,unconnected-(J6-SBU2-PadB8)*%
X76154400Y-66948600D03*
%TO.P,J6,B9,VBUS_B__1_B9*%
%TO.N,VBUS*%
X76554400Y-67648600D03*
%TO.P,J6,B10,SSRXN1_B10*%
%TO.N,unconnected-(J6-SSRXN1-PadB10)*%
X76954400Y-66948600D03*
%TO.P,J6,B11,SSRXP1_B11*%
%TO.N,unconnected-(J6-SSRXP1-PadB11)*%
X77754400Y-66948600D03*
%TO.P,J6,B12,GND_B__1_B12*%
%TO.N,GND*%
X78154400Y-67648600D03*
D44*
%TO.P,J6,S1,SHELL_GND_S1*%
X79484400Y-67058600D03*
%TO.P,J6,S2,SHELL_GND__1_S2*%
X71224400Y-67058600D03*
%TO.P,J6,S3,SHELL_GND__2_S3*%
X79844400Y-62658600D03*
%TO.P,J6,S4,SHELL_GND__3_S4*%
X70864400Y-62658600D03*
%TD*%
D36*
%TO.P,Q1,1,S_1*%
%TO.N,VMOS*%
X120502000Y-72626000D03*
%TO.P,Q1,2,S_2*%
X119842000Y-72626000D03*
%TO.P,Q1,3,S_3*%
X119182000Y-72626000D03*
%TO.P,Q1,4,G_4*%
%TO.N,/MN_D*%
X118522000Y-72626000D03*
D37*
%TO.P,Q1,5,D_5*%
%TO.N,/MP_D*%
X119512000Y-74618500D03*
%TD*%
D45*
%TO.P,C14,1*%
%TO.N,+3V3*%
X102374501Y-62061000D03*
%TO.P,C14,2*%
%TO.N,GND*%
X100649499Y-62061000D03*
%TD*%
D26*
%TO.P,C13,1*%
%TO.N,V+*%
X87262000Y-64423501D03*
%TO.P,C13,2*%
%TO.N,GND*%
X87262000Y-62698499D03*
%TD*%
D46*
%TO.P,D15,1,BK_1*%
%TO.N,/B'*%
X92684501Y-62186000D03*
%TO.P,D15,2,GK_2*%
%TO.N,/G'*%
X92684501Y-63936000D03*
%TO.P,D15,3,A_3*%
%TO.N,+3V3*%
X91664500Y-62186000D03*
%TO.P,D15,4,RK_4*%
%TO.N,/R'*%
X91664500Y-63936000D03*
%TD*%
D19*
%TO.P,C18,1*%
%TO.N,+3V3*%
X93351411Y-76971589D03*
%TO.P,C18,2*%
%TO.N,GND*%
X92672589Y-77650411D03*
%TD*%
D47*
%TO.P,C19,1*%
%TO.N,+3V3*%
X102532000Y-75311000D03*
%TO.P,C19,2*%
%TO.N,GND*%
X103492000Y-75311000D03*
%TD*%
D29*
%TO.P,C24,1*%
%TO.N,+1V1*%
X99930960Y-69464040D03*
%TO.P,C24,2*%
%TO.N,GND*%
X100609782Y-68785218D03*
%TD*%
D48*
%TO.P,U5,1,IOVDD_1*%
%TO.N,+3V3*%
X97953202Y-77841786D03*
%TO.P,U5,2,GPIO0_2*%
%TO.N,/TX*%
X98236045Y-77558943D03*
%TO.P,U5,3,GPIO1_3*%
%TO.N,/RX*%
X98518887Y-77276101D03*
%TO.P,U5,4,GPIO2_4*%
%TO.N,/MOS_M*%
X98801730Y-76993258D03*
%TO.P,U5,5,GPIO3_5*%
%TO.N,/MOS_D*%
X99084573Y-76710415D03*
%TO.P,U5,6,GPIO4_6*%
%TO.N,/SDA*%
X99367415Y-76427573D03*
%TO.P,U5,7,GPIO5_7*%
%TO.N,/SCL*%
X99650258Y-76144730D03*
%TO.P,U5,8,GPIO6_8*%
%TO.N,/Speaker*%
X99933101Y-75861887D03*
%TO.P,U5,9,GPIO7_9*%
%TO.N,/GPIO7*%
X100215944Y-75579044D03*
%TO.P,U5,10,IOVDD_10*%
%TO.N,+3V3*%
X100498786Y-75296202D03*
%TO.P,U5,11,GPIO8_11*%
%TO.N,/GPIO8*%
X100781629Y-75013359D03*
%TO.P,U5,12,GPIO9_12*%
%TO.N,/GPIO9*%
X101064472Y-74730516D03*
%TO.P,U5,13,GPIO10_13*%
%TO.N,/GPIO10*%
X101347314Y-74447674D03*
%TO.P,U5,14,GPIO11_14*%
%TO.N,unconnected-(U5-GPIO11-Pad14)*%
X101630157Y-74164831D03*
D49*
%TO.P,U5,15,GPIO12_15*%
%TO.N,unconnected-(U5-GPIO12-Pad15)*%
X101630157Y-72980427D03*
%TO.P,U5,16,GPIO13_16*%
%TO.N,/GPIO13*%
X101347314Y-72697584D03*
%TO.P,U5,17,GPIO14_17*%
%TO.N,unconnected-(U5-GPIO14-Pad17)*%
X101064472Y-72414742D03*
%TO.P,U5,18,GPIO15_18*%
%TO.N,unconnected-(U5-GPIO15-Pad18)*%
X100781629Y-72131899D03*
%TO.P,U5,19,TESTEN_19*%
%TO.N,GND*%
X100498786Y-71849056D03*
%TO.P,U5,20,XIN_20*%
%TO.N,/XIN*%
X100215944Y-71566214D03*
%TO.P,U5,21,XOUT_21*%
%TO.N,/XOUT*%
X99933101Y-71283371D03*
%TO.P,U5,22,IOVDD_22*%
%TO.N,+3V3*%
X99650258Y-71000528D03*
%TO.P,U5,23,DVDD_23*%
%TO.N,+1V1*%
X99367415Y-70717685D03*
%TO.P,U5,24,SWCLK_24*%
%TO.N,/SWCLK*%
X99084573Y-70434843D03*
%TO.P,U5,25,SWD_25*%
%TO.N,/SWD*%
X98801730Y-70152000D03*
%TO.P,U5,26,RUN_26*%
%TO.N,/RUN*%
X98518887Y-69869157D03*
%TO.P,U5,27,GPIO16_27*%
%TO.N,unconnected-(U5-GPIO16-Pad27)*%
X98236045Y-69586315D03*
%TO.P,U5,28,GPIO17_28*%
%TO.N,unconnected-(U5-GPIO17-Pad28)*%
X97953202Y-69303472D03*
D48*
%TO.P,U5,29,GPIO18_29*%
%TO.N,unconnected-(U5-GPIO18-Pad29)*%
X96768798Y-69303472D03*
%TO.P,U5,30,GPIO19_30*%
%TO.N,unconnected-(U5-GPIO19-Pad30)*%
X96485955Y-69586315D03*
%TO.P,U5,31,GPIO20_31*%
%TO.N,unconnected-(U5-GPIO20-Pad31)*%
X96203113Y-69869157D03*
%TO.P,U5,32,GPIO21_32*%
%TO.N,/Mode_Sel*%
X95920270Y-70152000D03*
%TO.P,U5,33,IOVDD_33*%
%TO.N,+3V3*%
X95637427Y-70434843D03*
%TO.P,U5,34,GPIO22_34*%
%TO.N,/R*%
X95354585Y-70717685D03*
%TO.P,U5,35,GPIO23_35*%
%TO.N,unconnected-(U5-GPIO23-Pad35)*%
X95071742Y-71000528D03*
%TO.P,U5,36,GPIO24_36*%
%TO.N,/G*%
X94788899Y-71283371D03*
%TO.P,U5,37,GPIO25_37*%
%TO.N,/B*%
X94506056Y-71566214D03*
%TO.P,U5,38,GPIO26_ADC0_38*%
%TO.N,/MAIN_CONT*%
X94223214Y-71849056D03*
%TO.P,U5,39,GPIO27_ADC1_39*%
%TO.N,/DROGUE_CONT*%
X93940371Y-72131899D03*
%TO.P,U5,40,GPIO28_ADC2_40*%
%TO.N,/Batt_Measure*%
X93657528Y-72414742D03*
%TO.P,U5,41,GPIO29_ADC3_41*%
%TO.N,unconnected-(U5-GPIO29_ADC3-Pad41)*%
X93374686Y-72697584D03*
%TO.P,U5,42,IOVDD_42*%
%TO.N,+3V3*%
X93091843Y-72980427D03*
D49*
%TO.P,U5,43,ADC_AVDD_43*%
X93091843Y-74164831D03*
%TO.P,U5,44,VREG_IN_44*%
X93374686Y-74447674D03*
%TO.P,U5,45,VREG_VOUT_45*%
%TO.N,+1V1*%
X93657528Y-74730516D03*
%TO.P,U5,46,USB_DM_46*%
%TO.N,/USB_-*%
X93940371Y-75013359D03*
%TO.P,U5,47,USB_DP_47*%
%TO.N,/USB_+*%
X94223214Y-75296202D03*
%TO.P,U5,48,USB_VDD_48*%
%TO.N,+3V3*%
X94506056Y-75579044D03*
%TO.P,U5,49,IOVDD_49*%
X94788899Y-75861887D03*
%TO.P,U5,50,DVDD_50*%
%TO.N,+1V1*%
X95071742Y-76144730D03*
%TO.P,U5,51,QSPI_SD3_51*%
%TO.N,/QSPI_SD3*%
X95354585Y-76427573D03*
%TO.P,U5,52,QSPI_SCLK_52*%
%TO.N,/QSPI_SCLK*%
X95637427Y-76710415D03*
%TO.P,U5,53,QSPI_SD0_53*%
%TO.N,/QSPI_SD0*%
X95920270Y-76993258D03*
%TO.P,U5,54,QSPI_SD2_54*%
%TO.N,/QSPI_SD2*%
X96203113Y-77276101D03*
%TO.P,U5,55,QSPI_SD1_55*%
%TO.N,/QSPI_SD1*%
X96485955Y-77558943D03*
%TO.P,U5,56,QSPI_SS_56*%
%TO.N,/QSPI_SS*%
X96768798Y-77841786D03*
D50*
%TO.P,U5,57,GND_57*%
%TO.N,GND*%
X97361000Y-73572629D03*
%TD*%
D22*
%TO.P,R35,1*%
%TO.N,/B'*%
X93762000Y-62801001D03*
%TO.P,R35,2*%
%TO.N,/B*%
X93762000Y-63820999D03*
%TD*%
%TO.P,R10,1*%
%TO.N,Net-(J6-CC1)*%
X77168000Y-71019001D03*
%TO.P,R10,2*%
%TO.N,GND*%
X77168000Y-72038999D03*
%TD*%
D14*
%TO.P,R11,1*%
%TO.N,GND*%
X71262000Y-72070999D03*
%TO.P,R11,2*%
%TO.N,Net-(J6-CC2)*%
X71262000Y-71051001D03*
%TD*%
%TO.P,R9,1*%
%TO.N,Net-(D5-A)*%
X100790000Y-64334999D03*
%TO.P,R9,2*%
%TO.N,+3V3*%
X100790000Y-63315001D03*
%TD*%
D51*
%TO.P,Y1,1,1_1*%
%TO.N,/XIN*%
X107140000Y-73815000D03*
%TO.P,Y1,2,2_2*%
%TO.N,GND*%
X107140000Y-71615000D03*
%TO.P,Y1,3,3_3*%
%TO.N,Net-(C11-Pad1)*%
X105440000Y-71615000D03*
%TO.P,Y1,4,4_4*%
%TO.N,GND*%
X105440000Y-73815000D03*
%TD*%
D52*
%TO.P,D4,1,K_1*%
%TO.N,V+*%
X86932999Y-69497000D03*
%TO.P,D4,2,A_2*%
%TO.N,VBUS*%
X85183001Y-69497000D03*
%TD*%
D35*
%TO.P,TP4,1,1_1*%
%TO.N,/RX*%
X79462000Y-82861000D03*
%TD*%
D22*
%TO.P,R34,1*%
%TO.N,/G'*%
X93762000Y-64801001D03*
%TO.P,R34,2*%
%TO.N,/G*%
X93762000Y-65820999D03*
%TD*%
D47*
%TO.P,C1,1*%
%TO.N,+3V3*%
X83419001Y-85244999D03*
%TO.P,C1,2*%
%TO.N,GND*%
X84379001Y-85244999D03*
%TD*%
D22*
%TO.P,R28,1*%
%TO.N,/MOS_D*%
X126762000Y-70465001D03*
%TO.P,R28,2*%
%TO.N,/DN_G*%
X126762000Y-71484999D03*
%TD*%
D12*
%TO.P,R25,1*%
%TO.N,/SDA*%
X101002001Y-77061000D03*
%TO.P,R25,2*%
%TO.N,+3V3*%
X102021999Y-77061000D03*
%TD*%
D53*
%TO.N,GND*%
X102512000Y-74311000D03*
X98512000Y-83061000D03*
X96262000Y-63561000D03*
X100762000Y-80561000D03*
X103262000Y-64061000D03*
X95012000Y-68392000D03*
X129762000Y-84311000D03*
X108012000Y-77811000D03*
X90762000Y-76311000D03*
X104762000Y-66961000D03*
X104262000Y-74061000D03*
X101512000Y-68811000D03*
X88762000Y-79811000D03*
X108762000Y-71061000D03*
X117012000Y-71311000D03*
X99887694Y-62958787D03*
X70388002Y-72033633D03*
X125762000Y-70561000D03*
X98562000Y-84761000D03*
X103762000Y-71561000D03*
X127012000Y-65811000D03*
X89262000Y-71061000D03*
X86262000Y-62061000D03*
X77262000Y-72811000D03*
X98762000Y-79061000D03*
X86012000Y-85061000D03*
X92262000Y-78561000D03*
X109262000Y-83311000D03*
X99262000Y-72561000D03*
X69262000Y-84561000D03*
%TO.N,+3V3*%
X103012000Y-77811000D03*
X110262000Y-77811000D03*
X106262000Y-77561000D03*
X125012000Y-69811000D03*
X107362000Y-66561000D03*
X97262000Y-70561000D03*
X82512000Y-84561000D03*
X121762000Y-70561000D03*
X109512000Y-62061000D03*
X92512000Y-73561000D03*
X103512000Y-62061000D03*
X99762000Y-74561000D03*
X96012000Y-83061000D03*
X100012000Y-65561000D03*
X91012000Y-61561000D03*
X98012000Y-80561000D03*
X100512000Y-83811000D03*
X100012000Y-77811000D03*
%TO.N,/USB_D+*%
X75617900Y-70411400D03*
%TO.N,VMOS*%
X89762000Y-69061000D03*
%TO.N,/DN_D*%
X130262000Y-68311000D03*
X128519337Y-71807999D03*
%TO.N,/DROGUE_CONT*%
X123512000Y-70561000D03*
X94512000Y-73311000D03*
%TO.N,/Speaker*%
X104541876Y-76274500D03*
X80762000Y-84561000D03*
%TO.N,/MOS_D*%
X127762000Y-78061000D03*
X113262000Y-78811000D03*
%TO.N,/DN_G*%
X126762000Y-69311000D03*
X128762000Y-68061000D03*
%TO.N,+1V1*%
X89012000Y-76561000D03*
X90762000Y-78311000D03*
X99262000Y-68811000D03*
X95762000Y-75311000D03*
%TO.N,/R*%
X92762000Y-65061000D03*
X96264193Y-71311000D03*
%TO.N,/Mode_Sel*%
X96512000Y-65561000D03*
X96262000Y-68561000D03*
%TO.N,/TX*%
X96962000Y-76361000D03*
%TO.N,/MAIN_CONT*%
X92262000Y-70061000D03*
X123262000Y-73311000D03*
%TO.N,/QSPI_SS*%
X94781000Y-83380000D03*
%TO.N,/RX*%
X98162000Y-76161000D03*
%TO.N,/G*%
X91262000Y-65790999D03*
X93731670Y-70059542D03*
%TO.N,/B*%
X95512000Y-72291745D03*
X92162000Y-63061000D03*
%TD*%
%TO.N,GND*%
D54*
X127012000Y-65811000D02*
X127462000Y-65811000D01*
X105282000Y-75311000D02*
X105282000Y-73973000D01*
X107174500Y-77811000D02*
X108012000Y-77811000D01*
X70262000Y-84344000D02*
X70045000Y-84561000D01*
X105440000Y-73815000D02*
X104508000Y-73815000D01*
X109262000Y-83311000D02*
X109873000Y-83311000D01*
X101612000Y-81061000D02*
X101262000Y-81061000D01*
X127778000Y-70465001D02*
X127294500Y-69981501D01*
X128508000Y-83960999D02*
X129411999Y-83960999D01*
X98099742Y-82648742D02*
X98512000Y-83061000D01*
D55*
X104762000Y-66961000D02*
X104762000Y-68405999D01*
D54*
X93859847Y-79243153D02*
X93859847Y-79042411D01*
X100609782Y-68785218D02*
X101486218Y-68785218D01*
D55*
X88762000Y-63923501D02*
X88487002Y-63923501D01*
D54*
X90012000Y-71570999D02*
X91413741Y-71570999D01*
X93859847Y-79042411D02*
X93272218Y-78454782D01*
X101371782Y-69547218D02*
X101371782Y-68951218D01*
X91040960Y-75306040D02*
X91040960Y-73611218D01*
X92672589Y-77650411D02*
X92672589Y-78150411D01*
D56*
X100649499Y-62061000D02*
X100649499Y-62196982D01*
D54*
X92672589Y-78150411D02*
X92262000Y-78561000D01*
X70262000Y-81261000D02*
X70262000Y-84344000D01*
X109873000Y-83311000D02*
X110266000Y-83704000D01*
D55*
X87262000Y-62698499D02*
X86899499Y-62698499D01*
D54*
X107174500Y-77311001D02*
X107174500Y-77811000D01*
X84379001Y-85244999D02*
X85828001Y-85244999D01*
X89502001Y-71061000D02*
X90012000Y-71570999D01*
X104508000Y-73815000D02*
X104262000Y-74061000D01*
X117711999Y-71405499D02*
X117106499Y-71405499D01*
X106512000Y-78161001D02*
X106862001Y-77811000D01*
X103492000Y-75311000D02*
X103492000Y-75291000D01*
X106012000Y-78973500D02*
X106512000Y-78973500D01*
X128136999Y-66161000D02*
X129436999Y-67461000D01*
D56*
X86262000Y-62093998D02*
X86262000Y-62061000D01*
D54*
X70045000Y-84561000D02*
X69262000Y-84561000D01*
X106512000Y-78973500D02*
X106512000Y-78161001D01*
X91258960Y-75814040D02*
X90762000Y-76311000D01*
X106862001Y-77811000D02*
X107174500Y-77811000D01*
X103762000Y-71561000D02*
X103572960Y-71750040D01*
X100225500Y-81097500D02*
X100762000Y-80561000D01*
X92672589Y-77650411D02*
X92672589Y-77855153D01*
X99714000Y-81097500D02*
X100225500Y-81097500D01*
X103572960Y-71750040D02*
X102216960Y-71750040D01*
X127462000Y-65811000D02*
X127812000Y-66161000D01*
X97361000Y-73572629D02*
X98250371Y-73572629D01*
X127294500Y-69981501D02*
X126341499Y-69981501D01*
X101486218Y-68785218D02*
X101512000Y-68811000D01*
X101371782Y-68951218D02*
X101512000Y-68811000D01*
X72554400Y-68808600D02*
X72604400Y-68858600D01*
X129411999Y-83960999D02*
X129762000Y-84311000D01*
X91413741Y-71570999D02*
X91421960Y-71579218D01*
X94682411Y-68721589D02*
X94172589Y-68721589D01*
X91548960Y-75814040D02*
X91258960Y-75814040D01*
X92672589Y-77855153D02*
X93272218Y-78454782D01*
X88762000Y-79811000D02*
X88861999Y-79910999D01*
X78104400Y-68858600D02*
X78104400Y-67698600D01*
X88861999Y-79910999D02*
X90661499Y-79910999D01*
X108576000Y-77684000D02*
X108139000Y-77684000D01*
X89262000Y-71061000D02*
X89502001Y-71061000D01*
X72554400Y-67648600D02*
X72554400Y-68808600D01*
X98782000Y-80165500D02*
X99714000Y-81097500D01*
D55*
X104762000Y-68405999D02*
X104712000Y-68455999D01*
X86899499Y-62698499D02*
X86262000Y-62061000D01*
D54*
X105282000Y-73973000D02*
X105440000Y-73815000D01*
D55*
X88487002Y-63923501D02*
X87262000Y-62698499D01*
D54*
X101262000Y-81061000D02*
X100762000Y-80561000D01*
X100498786Y-71849056D02*
X99786842Y-72561000D01*
X98782000Y-79811000D02*
X98782000Y-80165500D01*
X108139000Y-77684000D02*
X108012000Y-77811000D01*
D56*
X99151650Y-63720703D02*
X99151650Y-63694831D01*
D54*
X77168000Y-72717000D02*
X77262000Y-72811000D01*
X95012000Y-68392000D02*
X94682411Y-68721589D01*
X129436999Y-67461000D02*
X129712000Y-67461000D01*
X98782000Y-79811000D02*
X98782000Y-79081000D01*
X126341499Y-69981501D02*
X125762000Y-70561000D01*
X99786842Y-72561000D02*
X99262000Y-72561000D01*
X98782000Y-79081000D02*
X98762000Y-79061000D01*
D56*
X96262000Y-63561000D02*
X96316950Y-63561000D01*
D54*
X98099742Y-82294999D02*
X98099742Y-82648742D01*
X91548960Y-75814040D02*
X91040960Y-75306040D01*
X107140000Y-71615000D02*
X108208000Y-71615000D01*
X78104400Y-67698600D02*
X78154400Y-67648600D01*
X71262000Y-72070999D02*
X70425368Y-72070999D01*
D56*
X96316950Y-63561000D02*
X97101652Y-64345702D01*
X102887001Y-63686001D02*
X103262000Y-64061000D01*
D54*
X108208000Y-71615000D02*
X108762000Y-71061000D01*
X85828001Y-85244999D02*
X86012000Y-85061000D01*
X103492000Y-75291000D02*
X102512000Y-74311000D01*
D56*
X102187000Y-63686001D02*
X102887001Y-63686001D01*
D54*
X127812000Y-66161000D02*
X128136999Y-66161000D01*
D56*
X95051654Y-63720703D02*
X96102297Y-63720703D01*
X100649499Y-62196982D02*
X99887694Y-62958787D01*
D54*
X117106499Y-71405499D02*
X117012000Y-71311000D01*
X70425368Y-72070999D02*
X70388002Y-72033633D01*
X98250371Y-73572629D02*
X99262000Y-72561000D01*
D56*
X96102297Y-63720703D02*
X96262000Y-63561000D01*
D54*
X77168000Y-72038999D02*
X77168000Y-72717000D01*
D56*
X99151650Y-63694831D02*
X99887694Y-62958787D01*
%TO.N,+3V3*%
D54*
X100512000Y-83411000D02*
X100512000Y-83811000D01*
X100497202Y-75296202D02*
X99762000Y-74561000D01*
X107012000Y-76648499D02*
X108500499Y-76648499D01*
X100498786Y-75296202D02*
X100497202Y-75296202D01*
X101612000Y-82311000D02*
X100512000Y-83411000D01*
X121762000Y-70561000D02*
X122311001Y-70561000D01*
X91719782Y-72639040D02*
X92100782Y-72258040D01*
X94506056Y-75579044D02*
X94788899Y-75861887D01*
X94506056Y-75816944D02*
X93351411Y-76971589D01*
X103012000Y-77070999D02*
X103002001Y-77061000D01*
X107188001Y-78324500D02*
X107174500Y-78310999D01*
D56*
X102374501Y-62061000D02*
X103512000Y-62061000D01*
D54*
X94506056Y-75579044D02*
X95012000Y-75073100D01*
D56*
X89399499Y-61561000D02*
X88762000Y-62198499D01*
D54*
X99714000Y-82822502D02*
X100512000Y-83620502D01*
X82646502Y-84561000D02*
X82512000Y-84561000D01*
X83419001Y-85244999D02*
X83419001Y-83788501D01*
D56*
X101120500Y-63315001D02*
X102374501Y-62061000D01*
D54*
X109536000Y-77684000D02*
X110135000Y-77684000D01*
X98512000Y-71811000D02*
X97262000Y-70561000D01*
X94011360Y-73811000D02*
X93374686Y-74447674D01*
X94506056Y-75579044D02*
X94506056Y-75816944D01*
X124439000Y-70465001D02*
X124439000Y-70384000D01*
X98099742Y-80648742D02*
X98012000Y-80561000D01*
X95928423Y-70725839D02*
X96267085Y-70725839D01*
D55*
X107012000Y-66911000D02*
X107362000Y-66561000D01*
D54*
X108500499Y-76648499D02*
X109536000Y-77684000D01*
X106012001Y-77311001D02*
X106262000Y-77561000D01*
X103012000Y-77811000D02*
X103012000Y-77070999D01*
X92512000Y-73561000D02*
X92512000Y-73584988D01*
X96853000Y-82327998D02*
X96745002Y-82327998D01*
X100512000Y-83620502D02*
X100512000Y-83811000D01*
X122311001Y-70561000D02*
X122407000Y-70465001D01*
X94262000Y-73811000D02*
X94011360Y-73811000D01*
X92512000Y-73584988D02*
X93091843Y-74164831D01*
X110135000Y-77684000D02*
X110262000Y-77811000D01*
X95012000Y-75073100D02*
X95012000Y-74561000D01*
X100424746Y-70226040D02*
X100692960Y-70226040D01*
X95012000Y-74561000D02*
X94262000Y-73811000D01*
X91719782Y-74290040D02*
X91719782Y-72639040D01*
X101362000Y-78311000D02*
X101612000Y-78561000D01*
D56*
X99271999Y-65561000D02*
X100012000Y-65561000D01*
D54*
X93374686Y-74447674D02*
X93091843Y-74164831D01*
D56*
X91039500Y-61561000D02*
X91664500Y-62186000D01*
D54*
X82735002Y-84561000D02*
X83419001Y-85244999D01*
X99650258Y-71000528D02*
X100424746Y-70226040D01*
X92823169Y-72980427D02*
X93091843Y-72980427D01*
X97953202Y-80502202D02*
X97953202Y-77841786D01*
X91719782Y-74290040D02*
X92966634Y-74290040D01*
X92512000Y-73560270D02*
X93091843Y-72980427D01*
X102021999Y-77061000D02*
X103002001Y-77061000D01*
X124439000Y-70384000D02*
X125012000Y-69811000D01*
X94788899Y-75861887D02*
X93951040Y-76699746D01*
X98099742Y-81334999D02*
X98099742Y-80648742D01*
X95637427Y-70434843D02*
X95928423Y-70725839D01*
X82512000Y-84561000D02*
X82735002Y-84561000D01*
X95637427Y-70434843D02*
X94851411Y-69648827D01*
D56*
X100790000Y-63315001D02*
X101120500Y-63315001D01*
D54*
X96431924Y-70561000D02*
X97262000Y-70561000D01*
X83419001Y-83788501D02*
X83486501Y-83721001D01*
X100498786Y-75296202D02*
X100789782Y-75587198D01*
X83486501Y-83721001D02*
X82646502Y-84561000D01*
X99650258Y-71000528D02*
X98839786Y-71811000D01*
D56*
X91012000Y-61561000D02*
X89399499Y-61561000D01*
D55*
X107012000Y-68455999D02*
X107012000Y-66911000D01*
D54*
X93951040Y-76699746D02*
X93951040Y-77775960D01*
X100512000Y-78311000D02*
X101362000Y-78311000D01*
D55*
X109416999Y-62156001D02*
X109512000Y-62061000D01*
D54*
X100012000Y-77811000D02*
X100512000Y-78311000D01*
X105349500Y-77311001D02*
X106012001Y-77311001D01*
X102255802Y-75587198D02*
X102532000Y-75311000D01*
D56*
X91012000Y-61561000D02*
X91039500Y-61561000D01*
D55*
X107012000Y-62156001D02*
X109416999Y-62156001D01*
D54*
X108895500Y-78324500D02*
X107188001Y-78324500D01*
X100789782Y-75587198D02*
X102255802Y-75587198D01*
X109536000Y-77684000D02*
X108895500Y-78324500D01*
X98012000Y-80561000D02*
X97953202Y-80502202D01*
X92100782Y-72258040D02*
X92823169Y-72980427D01*
X94851411Y-69648827D02*
X94851411Y-69400411D01*
X96267085Y-70725839D02*
X96431924Y-70561000D01*
X96745002Y-82327998D02*
X96012000Y-83061000D01*
X92966634Y-74290040D02*
X93091843Y-74164831D01*
X98839786Y-71811000D02*
X98512000Y-71811000D01*
X92512000Y-73561000D02*
X92512000Y-73560270D01*
%TO.N,/SCL*%
X103912000Y-78561000D02*
X103912000Y-77170999D01*
X103912000Y-77170999D02*
X104021999Y-77061000D01*
X103396725Y-76435726D02*
X104021999Y-77061000D01*
X104021999Y-77320999D02*
X104512000Y-77811000D01*
X104512000Y-77811000D02*
X105349500Y-77811000D01*
X99941254Y-76435726D02*
X103396725Y-76435726D01*
X104021999Y-77061000D02*
X104021999Y-77320999D01*
X99650258Y-76144730D02*
X99941254Y-76435726D01*
%TO.N,/SDA*%
X103912000Y-79778824D02*
X103912000Y-79811000D01*
X99367415Y-76427573D02*
X100500842Y-77561000D01*
X100500842Y-77561000D02*
X100512000Y-77561000D01*
X102230676Y-78097500D02*
X103912000Y-79778824D01*
X100839823Y-77888823D02*
X102021999Y-77888823D01*
X105349500Y-78310999D02*
X103912000Y-79748499D01*
X100512000Y-77561000D02*
X100839823Y-77888823D01*
X103912000Y-79748499D02*
X103912000Y-79811000D01*
X101002001Y-77061000D02*
X100012000Y-77061000D01*
X102021999Y-77888823D02*
X102230676Y-78097500D01*
%TO.N,/USB_D+*%
X75485281Y-70544019D02*
X75617900Y-70411400D01*
X75485281Y-76813578D02*
X75485281Y-70544019D01*
X75710783Y-77039080D02*
X75485281Y-76813578D01*
X75604400Y-70397900D02*
X75604400Y-68858600D01*
X75617900Y-70411400D02*
X75604400Y-70397900D01*
%TO.N,/USB_+*%
X76730781Y-77039080D02*
X77316701Y-77625000D01*
X91894416Y-77625000D02*
X94223214Y-75296202D01*
X77316701Y-77625000D02*
X91894416Y-77625000D01*
%TO.N,Net-(U1-CAP)*%
X101447000Y-79646000D02*
X101611999Y-79810999D01*
X99714000Y-79646000D02*
X101447000Y-79646000D01*
%TO.N,/MN_G*%
X129711999Y-66811000D02*
X129233128Y-66811000D01*
X118805499Y-70385501D02*
X118854999Y-70336001D01*
X118925501Y-65520508D02*
X118925501Y-70265499D01*
X120703509Y-63742500D02*
X118925501Y-65520508D01*
X126164628Y-63742500D02*
X120703509Y-63742500D01*
X118925501Y-70265499D02*
X118854999Y-70336001D01*
X129233128Y-66811000D02*
X126164628Y-63742500D01*
X117711999Y-70385501D02*
X118805499Y-70385501D01*
%TO.N,V+*%
D55*
X91606212Y-66621999D02*
X91667211Y-66561000D01*
X87262000Y-65061000D02*
X87262000Y-64423501D01*
X86834001Y-67833401D02*
X86834001Y-66988999D01*
X109311999Y-65910999D02*
X109311999Y-68456001D01*
X86834001Y-69398002D02*
X86932999Y-69497000D01*
X87262000Y-66561000D02*
X88762000Y-66561000D01*
X93236393Y-66561000D02*
X93297392Y-66621999D01*
X86834001Y-67833401D02*
X86834001Y-69398002D01*
X90917788Y-66621999D02*
X91606212Y-66621999D01*
X94287607Y-66561000D02*
X102962000Y-66561000D01*
X108362000Y-64961000D02*
X109311999Y-65910999D01*
X102962000Y-66561000D02*
X104562000Y-64961000D01*
X90856789Y-66561000D02*
X90917788Y-66621999D01*
X88762000Y-66561000D02*
X87262000Y-65061000D01*
X88762000Y-66561000D02*
X90856789Y-66561000D01*
X91667211Y-66561000D02*
X93236393Y-66561000D01*
X86834001Y-66988999D02*
X87262000Y-66561000D01*
X104562000Y-64961000D02*
X108362000Y-64961000D01*
X93297392Y-66621999D02*
X94226608Y-66621999D01*
X94226608Y-66621999D02*
X94287607Y-66561000D01*
%TO.N,VMOS*%
X88583999Y-67882999D02*
X89762000Y-69061000D01*
X130027000Y-70948000D02*
X130027000Y-71356000D01*
X120886998Y-72241002D02*
X120502000Y-72626000D01*
X120502000Y-72626000D02*
X119255500Y-72626000D01*
X124512000Y-65433000D02*
X120886998Y-69058002D01*
X120886998Y-71102000D02*
X120886998Y-72241002D01*
X128949999Y-72753000D02*
X127383500Y-72753000D01*
X124512000Y-65433000D02*
X130027000Y-70948000D01*
X120886998Y-69058002D02*
X120886998Y-71102000D01*
X130027000Y-71675999D02*
X128949999Y-72753000D01*
X130027000Y-71356000D02*
X130027000Y-71675999D01*
X88583999Y-67833401D02*
X88583999Y-67882999D01*
%TO.N,/Batt_Measure*%
D54*
X91262000Y-70320999D02*
X91021999Y-70320999D01*
X91021999Y-70320999D02*
X90791997Y-70551001D01*
X93657528Y-72414742D02*
X91563785Y-70320999D01*
X91563785Y-70320999D02*
X91262000Y-70320999D01*
X90791997Y-70551001D02*
X90012000Y-70551001D01*
%TO.N,+BATT*%
D55*
X103012000Y-69417277D02*
X103655723Y-70061000D01*
X111262000Y-70061000D02*
X114012000Y-67311000D01*
X103655723Y-70061000D02*
X111262000Y-70061000D01*
X114012000Y-67311000D02*
X114012000Y-65433000D01*
X103012000Y-68561000D02*
X103012000Y-69417277D01*
X92752001Y-67811000D02*
X93002001Y-67561000D01*
X91262000Y-69301001D02*
X92752001Y-67811000D01*
X102012000Y-67561000D02*
X103012000Y-68561000D01*
X93002001Y-67561000D02*
X102012000Y-67561000D01*
%TO.N,/DN_D*%
D54*
X130262000Y-66386001D02*
X130036999Y-66161000D01*
X130262000Y-68311000D02*
X130262000Y-66386001D01*
X128519337Y-71807999D02*
X128519337Y-71843665D01*
X128394503Y-71968499D02*
X126812501Y-71968499D01*
X128519337Y-71843665D02*
X128394503Y-71968499D01*
X128519337Y-71807999D02*
X128555003Y-71807999D01*
X128555003Y-71807999D02*
X129007002Y-71356000D01*
X126650000Y-72131000D02*
X126650000Y-72753000D01*
X126812501Y-71968499D02*
X126650000Y-72131000D01*
X130036999Y-66161000D02*
X129712000Y-66161000D01*
%TO.N,/MOS_M*%
X100762000Y-79311000D02*
X99083321Y-77632321D01*
X105770912Y-79802088D02*
X105762000Y-79811000D01*
X110012000Y-78763002D02*
X108972914Y-79802088D01*
X112262000Y-79561000D02*
X111464002Y-78763002D01*
X108972914Y-79802088D02*
X105770912Y-79802088D01*
X105012000Y-79811000D02*
X105003088Y-79802088D01*
X118854999Y-71355999D02*
X118667501Y-71355999D01*
X105003088Y-79802088D02*
X104530676Y-80274500D01*
X111464002Y-78763002D02*
X110012000Y-78763002D01*
X103225500Y-80274500D02*
X102262000Y-79311000D01*
X117262000Y-75561000D02*
X113262000Y-79561000D01*
X117262000Y-72761500D02*
X117262000Y-75561000D01*
X105762000Y-79811000D02*
X105012000Y-79811000D01*
X99092726Y-77406582D02*
X98801730Y-77115586D01*
X98801730Y-77115586D02*
X98801730Y-76993258D01*
X104530676Y-80274500D02*
X103225500Y-80274500D01*
X113262000Y-79561000D02*
X112262000Y-79561000D01*
X99083321Y-77632321D02*
X99092726Y-77622916D01*
X99092726Y-77622916D02*
X99092726Y-77406582D01*
X102262000Y-79311000D02*
X100762000Y-79311000D01*
X118667501Y-71355999D02*
X117262000Y-72761500D01*
X108972914Y-79802088D02*
X105003088Y-79802088D01*
%TO.N,/DP_D*%
D55*
X121033000Y-81561000D02*
X121033000Y-79065999D01*
X126852501Y-75532999D02*
X127640000Y-74745500D01*
X124566000Y-75532999D02*
X126852501Y-75532999D01*
X121033000Y-79065999D02*
X124566000Y-75532999D01*
%TO.N,/DROGUE_CONT*%
D54*
X123512000Y-70561000D02*
X124439000Y-71488000D01*
X124439000Y-73656001D02*
X124566000Y-73783001D01*
X94512000Y-72703528D02*
X94512000Y-73311000D01*
X93940371Y-72131899D02*
X94512000Y-72703528D01*
X124439000Y-71488000D02*
X124439000Y-73656001D01*
%TO.N,/Speaker*%
X100224097Y-76152883D02*
X104420259Y-76152883D01*
X104420259Y-76152883D02*
X104541876Y-76274500D01*
X74262000Y-81261000D02*
X74262000Y-82344000D01*
X99933101Y-75861887D02*
X100224097Y-76152883D01*
X76479000Y-84561000D02*
X80762000Y-84561000D01*
X74262000Y-82344000D02*
X76479000Y-84561000D01*
%TO.N,Net-(C11-Pad1)*%
X104586000Y-70761000D02*
X105440000Y-71615000D01*
X103362000Y-70761000D02*
X104586000Y-70761000D01*
X103051782Y-71071218D02*
X103362000Y-70761000D01*
X102895782Y-71071218D02*
X103051782Y-71071218D01*
X102154995Y-70330431D02*
X102895782Y-71071218D01*
X102154995Y-70288005D02*
X102154995Y-70330431D01*
%TO.N,/XIN*%
X100506941Y-71275217D02*
X101015937Y-71275217D01*
X101015937Y-71275217D02*
X102642220Y-72901500D01*
X102642220Y-72901500D02*
X106226500Y-72901500D01*
X100215944Y-71566214D02*
X100506941Y-71275217D01*
X106226500Y-72901500D02*
X107140000Y-73815000D01*
X107140000Y-73815000D02*
X106242000Y-74713000D01*
X106242000Y-74713000D02*
X106242000Y-75311000D01*
%TO.N,Net-(D14-A)*%
X128508000Y-82211001D02*
X128508000Y-79785999D01*
X128508000Y-79785999D02*
X128762000Y-79531999D01*
%TO.N,/MOS_D*%
X126012000Y-73244508D02*
X126012000Y-71430002D01*
X126431992Y-73664500D02*
X126012000Y-73244508D01*
X102748186Y-73590992D02*
X99982008Y-73590992D01*
X126012000Y-71215001D02*
X126762000Y-70465001D01*
X99982008Y-73590992D02*
X98762000Y-74811000D01*
X98762000Y-74811000D02*
X98762000Y-76387842D01*
X126012000Y-71430002D02*
X126012000Y-71215001D01*
X105002693Y-75845499D02*
X102748186Y-73590992D01*
X127762000Y-78061000D02*
X128310999Y-78061000D01*
X110188236Y-75845499D02*
X105002693Y-75845499D01*
X98762000Y-76387842D02*
X99084573Y-76710415D01*
X113262000Y-78811000D02*
X113153737Y-78811000D01*
X128310999Y-78061000D02*
X128762000Y-78512001D01*
X129762000Y-76061000D02*
X129762000Y-74578492D01*
X128848008Y-73664500D02*
X126431992Y-73664500D01*
X113153737Y-78811000D02*
X110188236Y-75845499D01*
X129762000Y-74578492D02*
X128848008Y-73664500D01*
X127762000Y-78061000D02*
X129762000Y-76061000D01*
%TO.N,/DN_G*%
X127778000Y-71484999D02*
X127796157Y-71466842D01*
X128012000Y-66811000D02*
X127812001Y-66811000D01*
X127796157Y-71185001D02*
X128077998Y-71185001D01*
X127440594Y-69311000D02*
X126762000Y-69311000D01*
X127796157Y-71466842D02*
X127796157Y-71185001D01*
X128762000Y-67561000D02*
X128012000Y-66811000D01*
X128077998Y-71185001D02*
X128362000Y-70900999D01*
X128762000Y-68061000D02*
X128762000Y-67561000D01*
X128362000Y-70232407D02*
X127440594Y-69311000D01*
X127778000Y-71484999D02*
X126762000Y-71484999D01*
X128362000Y-70900999D02*
X128362000Y-70232407D01*
%TO.N,Net-(D10-A)*%
X110012000Y-79783000D02*
X110012000Y-81700002D01*
%TO.N,+1V1*%
X95071742Y-76144730D02*
X95762000Y-75454472D01*
X94538669Y-79304671D02*
X94024740Y-79818600D01*
X92227782Y-75135218D02*
X93252826Y-75135218D01*
X94538669Y-76677803D02*
X94538669Y-78564331D01*
X90801986Y-78311000D02*
X90762000Y-78311000D01*
X92309586Y-79818600D02*
X90801986Y-78311000D01*
X99915040Y-69464040D02*
X99262000Y-68811000D01*
X91278840Y-76824500D02*
X92227782Y-75875558D01*
X89275500Y-76824500D02*
X91278840Y-76824500D01*
X92227782Y-75875558D02*
X92227782Y-75135218D01*
X95071742Y-76144730D02*
X94538669Y-76677803D01*
X94538669Y-78564331D02*
X94538669Y-79304671D01*
X99930960Y-70154140D02*
X99367415Y-70717685D01*
X95762000Y-75454472D02*
X95762000Y-75311000D01*
X99930960Y-69464040D02*
X99930960Y-70154140D01*
X93252826Y-75135218D02*
X93657528Y-74730516D01*
X94024740Y-79818600D02*
X92309586Y-79818600D01*
X99930960Y-69464040D02*
X99915040Y-69464040D01*
X89012000Y-76561000D02*
X89275500Y-76824500D01*
%TO.N,/R'*%
X90762000Y-63301001D02*
X91029501Y-63301001D01*
X91029501Y-63301001D02*
X91664500Y-63936000D01*
%TO.N,/R*%
X96016386Y-71063193D02*
X95700093Y-71063193D01*
X92762000Y-65061000D02*
X91502001Y-65061000D01*
X95700093Y-71063193D02*
X95354585Y-70717685D01*
X91502001Y-65061000D02*
X90762000Y-64320999D01*
X96264193Y-71311000D02*
X96016386Y-71063193D01*
%TO.N,/Mode_Sel*%
X99151650Y-62120699D02*
X98252001Y-63020348D01*
X96262000Y-68561000D02*
X95512000Y-69311000D01*
X98252001Y-65561000D02*
X96512000Y-65561000D01*
X95512000Y-69311000D02*
X95512000Y-69743730D01*
X98252001Y-63020348D02*
X98252001Y-65561000D01*
X95512000Y-69743730D02*
X95920270Y-70152000D01*
X95051654Y-62120699D02*
X99151650Y-62120699D01*
%TO.N,Net-(D5-A)*%
X102187000Y-65435999D02*
X101891000Y-65435999D01*
X101891000Y-65435999D02*
X100790000Y-64334999D01*
%TO.N,/MN_D*%
X125925500Y-64284086D02*
X125660914Y-64019500D01*
X119867000Y-71421999D02*
X119867000Y-71102000D01*
X125925500Y-65899499D02*
X125925500Y-64284086D01*
X125660914Y-64019500D02*
X123363086Y-64019500D01*
X118522000Y-72626000D02*
X118522000Y-72004000D01*
X119449500Y-71839499D02*
X119867000Y-71421999D01*
X127487001Y-67461000D02*
X125925500Y-65899499D01*
X119867000Y-69237250D02*
X119867000Y-71102000D01*
X122762000Y-66342250D02*
X119867000Y-69237250D01*
X123363086Y-64019500D02*
X122762000Y-64620586D01*
X122762000Y-64620586D02*
X122762000Y-66342250D01*
X127812000Y-67461000D02*
X127487001Y-67461000D01*
X118686501Y-71839499D02*
X119449500Y-71839499D01*
X118522000Y-72004000D02*
X118686501Y-71839499D01*
%TO.N,/XOUT*%
X101416869Y-70992375D02*
X100224097Y-70992375D01*
X101433747Y-71009253D02*
X101416869Y-70992375D01*
X100224097Y-70992375D02*
X99933101Y-71283371D01*
%TO.N,/USB_D-*%
X75104400Y-68298600D02*
X75754400Y-67648600D01*
X74948783Y-75515080D02*
X75104400Y-75359463D01*
X75104400Y-68858600D02*
X75104400Y-68298600D01*
X75104400Y-75359463D02*
X75104400Y-68858600D01*
%TO.N,/USB_-*%
X78071700Y-77348000D02*
X76238780Y-75515080D01*
X91605730Y-77348000D02*
X78071700Y-77348000D01*
X93940371Y-75013359D02*
X91605730Y-77348000D01*
X76238780Y-75515080D02*
X75968781Y-75515080D01*
%TO.N,/TX*%
X98159943Y-77558943D02*
X96962000Y-76361000D01*
X98236045Y-77558943D02*
X98159943Y-77558943D01*
%TO.N,/MAIN_CONT*%
X123762000Y-72811000D02*
X123762000Y-72061000D01*
X123185999Y-71484999D02*
X122407000Y-71484999D01*
X92435158Y-70061000D02*
X92262000Y-70061000D01*
X123262000Y-73311000D02*
X122752001Y-73311000D01*
X123762000Y-72061000D02*
X123185999Y-71484999D01*
X123262000Y-73311000D02*
X123762000Y-72811000D01*
X122752001Y-73311000D02*
X122280000Y-73783001D01*
X94223214Y-71849056D02*
X92435158Y-70061000D01*
%TO.N,/QSPI_SS*%
X96853000Y-81308000D02*
X96853000Y-77925988D01*
X96853000Y-77925988D02*
X96768798Y-77841786D01*
X90661498Y-83720999D02*
X94440001Y-83720999D01*
X94781000Y-83380000D02*
X96853000Y-81308000D01*
X94440001Y-83720999D02*
X94781000Y-83380000D01*
%TO.N,/QSPI_SD1*%
X94371999Y-82451001D02*
X90661498Y-82451001D01*
X96194959Y-80628041D02*
X94371999Y-82451001D01*
X96194959Y-77849939D02*
X96194959Y-80628041D01*
X96485955Y-77558943D02*
X96194959Y-77849939D01*
%TO.N,/QSPI_SD2*%
X95912116Y-77567098D02*
X95912116Y-80160884D01*
X96203113Y-77276101D02*
X95912116Y-77567098D01*
X94892000Y-81181000D02*
X90661500Y-81181000D01*
X95912116Y-80160884D02*
X94892000Y-81181000D01*
%TO.N,/QSPI_SD0*%
X95629274Y-80001896D02*
X95181671Y-80449499D01*
X84025000Y-80449499D02*
X83486502Y-79911001D01*
X95629274Y-77284254D02*
X95629274Y-80001896D01*
X95181671Y-80449499D02*
X84025000Y-80449499D01*
X95920270Y-76993258D02*
X95629274Y-77284254D01*
%TO.N,/QSPI_SCLK*%
X84296750Y-79372501D02*
X82676254Y-79372501D01*
X82676254Y-79372501D02*
X82460502Y-79588253D01*
X84358251Y-79311000D02*
X84296750Y-79372501D01*
X86512000Y-79311000D02*
X84358251Y-79311000D01*
X82460502Y-79588253D02*
X82460502Y-80759502D01*
X82881999Y-81180999D02*
X83486502Y-81180999D01*
X86762000Y-79061000D02*
X86512000Y-79311000D01*
X95346431Y-77123739D02*
X95346431Y-77340073D01*
X94650501Y-80172499D02*
X92271747Y-80172499D01*
X82460502Y-80759502D02*
X82881999Y-81180999D01*
X95512000Y-76958170D02*
X95346431Y-77123739D01*
X91160248Y-79061000D02*
X86762000Y-79061000D01*
X95512000Y-76835842D02*
X95512000Y-76958170D01*
X95346431Y-77340073D02*
X95352274Y-77345916D01*
X95637427Y-76710415D02*
X95512000Y-76835842D01*
X95352274Y-79470726D02*
X94650501Y-80172499D01*
X95352274Y-77345916D02*
X95352274Y-79470726D01*
X92271747Y-80172499D02*
X91160248Y-79061000D01*
%TO.N,/QSPI_SD3*%
X83486500Y-82451000D02*
X88042751Y-82451000D01*
X95645582Y-76136576D02*
X95354585Y-76427573D01*
X97386500Y-77755168D02*
X97342637Y-77711305D01*
X97342637Y-77494971D02*
X95984242Y-76136576D01*
X95738093Y-84259499D02*
X97386500Y-82611092D01*
X97386500Y-82611092D02*
X97386500Y-77755168D01*
X97342637Y-77711305D02*
X97342637Y-77494971D01*
X88042751Y-82451000D02*
X89851250Y-84259499D01*
X89851250Y-84259499D02*
X95738093Y-84259499D01*
X95984242Y-76136576D02*
X95645582Y-76136576D01*
%TO.N,/MP_D*%
D55*
X119512000Y-74618500D02*
X121365501Y-74618500D01*
X114033000Y-80097500D02*
X119512000Y-74618500D01*
X114033000Y-81561000D02*
X114033000Y-80097500D01*
X121365501Y-74618500D02*
X122280000Y-75532999D01*
%TO.N,VBUS*%
D57*
X76554400Y-67648600D02*
X76554400Y-68808600D01*
X76604400Y-68858600D02*
X76604400Y-69512600D01*
X76554400Y-68808600D02*
X76604400Y-68858600D01*
X76995200Y-69903400D02*
X84776601Y-69903400D01*
D54*
X74154400Y-68808600D02*
X74104400Y-68858600D01*
X74154400Y-67648600D02*
X74154400Y-68808600D01*
D57*
X76604400Y-69512600D02*
X76995200Y-69903400D01*
X84776601Y-69903400D02*
X85183001Y-69497000D01*
%TO.N,Net-(J6-CC1)*%
D54*
X76104400Y-69955401D02*
X77168000Y-71019001D01*
X76104400Y-68858600D02*
X76104400Y-69955401D01*
%TO.N,Net-(J6-CC2)*%
X71262000Y-71051001D02*
X71059700Y-70848701D01*
X73166800Y-65561000D02*
X71262000Y-65561000D01*
X71262000Y-65561000D02*
X70262000Y-66561000D01*
X70262000Y-68061000D02*
X71262000Y-69061000D01*
X74554400Y-66948600D02*
X73166800Y-65561000D01*
X71262000Y-69061000D02*
X71262000Y-71051001D01*
X70262000Y-66561000D02*
X70262000Y-68061000D01*
%TO.N,/B'*%
X93146999Y-62186000D02*
X93762000Y-62801001D01*
X92684501Y-62186000D02*
X93146999Y-62186000D01*
%TO.N,/G'*%
X92896999Y-63936000D02*
X93762000Y-64801001D01*
X92684501Y-63936000D02*
X92896999Y-63936000D01*
%TO.N,/RX*%
X98162000Y-76161000D02*
X98162000Y-76919214D01*
X98162000Y-76919214D02*
X98518887Y-77276101D01*
%TO.N,/G*%
X93731670Y-70226142D02*
X93731670Y-70059542D01*
X94788899Y-71283371D02*
X93731670Y-70226142D01*
X91262000Y-65790999D02*
X93732000Y-65790999D01*
X93732000Y-65790999D02*
X93762000Y-65820999D01*
%TO.N,/B*%
X92162000Y-63061000D02*
X93012000Y-63061000D01*
X95502372Y-72282117D02*
X95290883Y-72282117D01*
X95290883Y-72282117D02*
X95262000Y-72311000D01*
X93012000Y-63061000D02*
X93762000Y-63811000D01*
X95250842Y-72311000D02*
X94506056Y-71566214D01*
X93762000Y-63811000D02*
X93762000Y-63820999D01*
X95512000Y-72291745D02*
X95502372Y-72282117D01*
X95262000Y-72311000D02*
X95250842Y-72311000D01*
%TD*%
M02*
