M48
; DRILL file KiCad 10.0.6-10.0.6~ubuntu26.04.1 date 2026-09-21T23:18:19
; FORMAT={-:-/ absolute / metric / decimal}
; #@! TF.CreationDate,2026-09-21T23:18:19-04:00
; #@! TF.GenerationSoftware,Kicad,Pcbnew,10.0.6-10.0.6~ubuntu26.04.1
; #@! TF.FileFunction,Plated,1,4,PTH
FMAT,2
METRIC
; #@! TA.AperFunction,Plated,PTH,ViaDrill
T1C0.203
; #@! TA.AperFunction,Plated,PTH,ComponentDrill
T2C0.400
; #@! TA.AperFunction,Plated,PTH,ComponentDrill
T3C0.500
; #@! TA.AperFunction,Plated,PTH,ComponentDrill
T4C1.000
; #@! TA.AperFunction,Plated,PTH,ComponentDrill
T5C1.200
%
G90
G05
T1
X137.788Y-104.391
X138.388Y-107.992
X138.788Y-110.141
X138.838Y-94.124
X139.788Y-87.391
X139.788Y-97.992
X140.038Y-111.641
X140.788Y-110.141
X141.588Y-82.391
X141.588Y-96.791
X141.788Y-85.791
X142.538Y-99.641
X142.788Y-102.923
X143.188Y-106.591
X143.388Y-94.791
X143.988Y-97.391
X144.188Y-81.191
X144.188Y-84.391
X144.188Y-87.391
X144.338Y-101.624
X144.988Y-94.591
X146.288Y-106.891
X146.538Y-94.141
X146.588Y-82.391
X146.788Y-83.992
X147.538Y-104.391
X148.488Y-92.174
X148.788Y-108.891
X149.788Y-113.991
X150.188Y-100.591
X150.188Y-98.191
X150.388Y-96.591
X150.403Y-98.977
X150.488Y-109.374
X151.376Y-97.121
X151.376Y-98.391
X151.376Y-99.662
X151.788Y-93.391
X152.388Y-105.992
X152.388Y-107.391
X152.388Y-109.191
X152.538Y-93.891
X152.646Y-97.121
X152.646Y-98.391
X152.646Y-99.661
X153.538Y-91.891
X153.588Y-96.191
X153.588Y-100.791
X153.788Y-105.891
X153.788Y-107.391
X153.916Y-98.391
X153.916Y-97.121
X153.916Y-99.661
X154.538Y-109.191
X154.988Y-98.191
X154.988Y-97.191
X154.988Y-99.391
X154.988Y-100.591
X155.038Y-106.891
X155.538Y-104.892
X155.788Y-107.641
X156.788Y-108.791
X156.788Y-92.891
X156.788Y-103.391
X157.464Y-99.39
X159.538Y-92.391
X159.538Y-100.641
X159.729Y-89.487
X160.038Y-106.391
X161.388Y-102.992
X161.538Y-106.391
X161.729Y-93.287
X162.188Y-110.791
X162.271Y-98.162
X162.388Y-95.591
X162.538Y-109.392
X162.788Y-103.591
X163.038Y-106.391
X163.329Y-90.087
X163.529Y-87.287
X163.788Y-92.391
X164.29Y-100.041
X164.388Y-110.792
X164.538Y-106.391
X164.718Y-100.877
X164.788Y-92.391
X164.988Y-109.391
X165.165Y-100.347
X165.388Y-103.791
X165.53Y-94.932
X165.788Y-92.391
X165.919Y-98.408
X165.919Y-97.621
X165.919Y-99.196
X166.038Y-106.391
X166.49Y-101.674
X166.538Y-92.391
X166.707Y-99.196
X166.707Y-97.621
X166.707Y-98.408
X167.44Y-95.442
X167.494Y-98.408
X167.494Y-99.196
X167.494Y-97.621
X167.929Y-84.487
X168.588Y-105.191
X168.69Y-98.842
X168.929Y-82.487
X169.29Y-100.841
X169.838Y-97.124
X170.29Y-99.442
X170.29Y-100.841
X170.588Y-97.124
X171.288Y-100.141
X171.288Y-100.842
X171.29Y-99.442
X171.338Y-97.124
X172.088Y-97.124
X172.288Y-91.141
X172.288Y-100.141
X172.288Y-100.891
X172.29Y-99.441
X172.838Y-97.124
X173.488Y-100.841
X173.588Y-96.374
X173.588Y-97.124
X174.588Y-95.891
X174.688Y-99.374
X174.688Y-100.042
X174.688Y-100.842
X175.338Y-95.874
X175.888Y-99.374
X175.888Y-100.842
X175.89Y-100.041
X176.088Y-95.874
X176.838Y-96.374
X176.838Y-97.124
X177.038Y-106.141
X177.088Y-100.374
X177.588Y-97.124
X178.338Y-97.124
X178.338Y-99.374
X178.338Y-100.124
X179.088Y-97.124
X179.088Y-99.374
X179.838Y-97.124
X179.838Y-99.374
X180.588Y-97.374
X180.588Y-99.124
X180.735Y-94.887
X180.735Y-95.687
X180.735Y-96.487
X180.759Y-101.082
X180.759Y-100.282
X180.759Y-101.882
X181.338Y-97.374
X181.338Y-99.124
X181.535Y-94.887
X181.535Y-95.687
X181.535Y-96.487
X181.559Y-100.282
X181.559Y-101.882
X181.559Y-101.082
X182.088Y-97.374
X182.088Y-99.124
X182.335Y-95.687
X182.335Y-94.887
X182.335Y-96.487
X182.359Y-101.082
X182.359Y-100.282
X182.359Y-101.882
X182.838Y-97.374
X182.838Y-99.124
X186.133Y-100.273
X186.133Y-101.073
X186.133Y-101.873
X186.179Y-94.956
X186.179Y-95.756
X186.179Y-96.556
X186.933Y-100.273
X186.933Y-101.073
X186.933Y-101.873
X186.979Y-94.956
X186.979Y-95.756
X186.979Y-96.556
X187.733Y-100.273
X187.733Y-101.073
X187.733Y-101.873
X187.779Y-94.956
X187.779Y-95.756
X187.779Y-96.556
T2
X136.616Y-95.992
X136.616Y-96.791
X136.616Y-99.992
X136.616Y-100.791
X136.616Y-97.591
X136.616Y-99.191
X137.316Y-95.591
X137.316Y-97.191
X137.316Y-97.992
X137.316Y-98.791
X137.316Y-99.591
X137.316Y-101.191
T4
X141.798Y-114.246
X144.338Y-114.246
X149.538Y-104.141
X149.538Y-107.141
X152.288Y-90.641
X156.288Y-90.641
X158.563Y-94.117
T5
X152.212Y-85.226
X155.712Y-85.226
T3
G00X132.626Y-93.902
M15
G01X132.026Y-93.902
M16
G05
G00X132.626Y-102.881
M15
G01X132.026Y-102.881
M16
G05
G00X137.026Y-94.261
M15
G01X136.426Y-94.261
M16
G05
G00X137.026Y-102.521
M15
G01X136.426Y-102.521
M16
G05
M30
