%TF.GenerationSoftware,KiCad,Pcbnew,10.0.6-10.0.6~ubuntu26.04.1*%
%TF.CreationDate,2026-09-21T00:05:21-04:00*%
%TF.ProjectId,PHOBOS_Control_Digital,50484f42-4f53-45f4-936f-6e74726f6c5f,rev?*%
%TF.SameCoordinates,Original*%
%TF.FileFunction,Soldermask,Bot*%
%TF.FilePolarity,Negative*%
%FSLAX46Y46*%
G04 Gerber Fmt 4.6, Leading zero omitted, Abs format (unit mm)*
G04 Created by KiCad (PCBNEW 10.0.6-10.0.6~ubuntu26.04.1) date 2026-09-21 00:05:21*
%MOMM*%
%LPD*%
G01*
G04 APERTURE LIST*
G04 Aperture macros list*
%AMRoundRect*
0 Rectangle with rounded corners*
0 $1 Rounding radius*
0 $2 $3 $4 $5 $6 $7 $8 $9 X,Y pos of 4 corners*
0 Add a 4 corners polygon primitive as box body*
4,1,4,$2,$3,$4,$5,$6,$7,$8,$9,$2,$3,0*
0 Add four circle primitives for the rounded corners*
1,1,$1+$1,$2,$3*
1,1,$1+$1,$4,$5*
1,1,$1+$1,$6,$7*
1,1,$1+$1,$8,$9*
0 Add four rect primitives between the rounded corners*
20,1,$1+$1,$2,$3,$4,$5,0*
20,1,$1+$1,$4,$5,$6,$7,0*
20,1,$1+$1,$6,$7,$8,$9,0*
20,1,$1+$1,$8,$9,$2,$3,0*%
G04 Aperture macros list end*
%ADD10C,0.010000*%
%ADD11RoundRect,0.250001X0.949999X0.949999X-0.949999X0.949999X-0.949999X-0.949999X0.949999X-0.949999X0*%
%ADD12C,2.400000*%
%ADD13C,3.200000*%
%ADD14R,1.700000X1.700000*%
%ADD15C,1.700000*%
%ADD16C,0.650000*%
%ADD17C,0.804000*%
%ADD18O,1.604000X1.004000*%
%ADD19C,2.000000*%
G04 APERTURE END LIST*
D10*
%TO.C,J3*%
X138391005Y-101841500D02*
X138391005Y-102141500D01*
X138390005Y-102163500D01*
X138389005Y-102185501D01*
X138386006Y-102207500D01*
X138382005Y-102229500D01*
X138377005Y-102251500D01*
X138370005Y-102272500D01*
X138363005Y-102293500D01*
X138354005Y-102314500D01*
X138345005Y-102334500D01*
X138334005Y-102353501D01*
X138322005Y-102372500D01*
X138310005Y-102391500D01*
X138296005Y-102408499D01*
X138282005Y-102425500D01*
X138267005Y-102442500D01*
X138250005Y-102457500D01*
X138233005Y-102471500D01*
X138216005Y-102485500D01*
X138197004Y-102497500D01*
X138179005Y-102509500D01*
X138159005Y-102520500D01*
X138139005Y-102529500D01*
X138118005Y-102538500D01*
X138097005Y-102545500D01*
X138076005Y-102552500D01*
X138054005Y-102557500D01*
X138032005Y-102561500D01*
X138010005Y-102564501D01*
X137988005Y-102565500D01*
X137966005Y-102566500D01*
X137944005Y-102565500D01*
X137922005Y-102564500D01*
X137900005Y-102561500D01*
X137878005Y-102557500D01*
X137856005Y-102552500D01*
X137835005Y-102545500D01*
X137814005Y-102538500D01*
X137793005Y-102529500D01*
X137773006Y-102520500D01*
X137754005Y-102509500D01*
X137735005Y-102497500D01*
X137716005Y-102485500D01*
X137699005Y-102471500D01*
X137682005Y-102457500D01*
X137665006Y-102442500D01*
X137650005Y-102425500D01*
X137636005Y-102408500D01*
X137622005Y-102391501D01*
X137610005Y-102372500D01*
X137598005Y-102353500D01*
X137587005Y-102334500D01*
X137578005Y-102314500D01*
X137569005Y-102293500D01*
X137562006Y-102272500D01*
X137555005Y-102251500D01*
X137550005Y-102229500D01*
X137546005Y-102207500D01*
X137543005Y-102185500D01*
X137542005Y-102163500D01*
X137541004Y-102141500D01*
X137541004Y-101841500D01*
X137542005Y-101819500D01*
X137543005Y-101797500D01*
X137546005Y-101775500D01*
X137550005Y-101753500D01*
X137555005Y-101731500D01*
X137562006Y-101710500D01*
X137569005Y-101689500D01*
X137578005Y-101668500D01*
X137587005Y-101648500D01*
X137598005Y-101628500D01*
X137610005Y-101610500D01*
X137622005Y-101591500D01*
X137636005Y-101574500D01*
X137650005Y-101557501D01*
X137665005Y-101540500D01*
X137682005Y-101525500D01*
X137699005Y-101511500D01*
X137716005Y-101497500D01*
X137735005Y-101485500D01*
X137754006Y-101473500D01*
X137773006Y-101462500D01*
X137793005Y-101453500D01*
X137814005Y-101444500D01*
X137835005Y-101437500D01*
X137856005Y-101430500D01*
X137878005Y-101425500D01*
X137900005Y-101421500D01*
X137922005Y-101418500D01*
X137944005Y-101417500D01*
X137966005Y-101416500D01*
X137988005Y-101417501D01*
X138010005Y-101418500D01*
X138032005Y-101421500D01*
X138054006Y-101425500D01*
X138076004Y-101430500D01*
X138097005Y-101437500D01*
X138118004Y-101444500D01*
X138139005Y-101453500D01*
X138159005Y-101462500D01*
X138179005Y-101473500D01*
X138197005Y-101485499D01*
X138216005Y-101497500D01*
X138233005Y-101511500D01*
X138250005Y-101525500D01*
X138267005Y-101540500D01*
X138282005Y-101557500D01*
X138296005Y-101574499D01*
X138310005Y-101591500D01*
X138322005Y-101610500D01*
X138334005Y-101628500D01*
X138345005Y-101648500D01*
X138354005Y-101668500D01*
X138363005Y-101689500D01*
X138370005Y-101710500D01*
X138377005Y-101731500D01*
X138382005Y-101753500D01*
X138386005Y-101775500D01*
X138389005Y-101797500D01*
X138390005Y-101819501D01*
X138391005Y-101841500D01*
G36*
X137988005Y-101417501D02*
G01*
X138010005Y-101418500D01*
X138032005Y-101421500D01*
X138054006Y-101425500D01*
X138076004Y-101430500D01*
X138097005Y-101437500D01*
X138118004Y-101444500D01*
X138139005Y-101453500D01*
X138159005Y-101462500D01*
X138179005Y-101473500D01*
X138197005Y-101485499D01*
X138216005Y-101497500D01*
X138233005Y-101511500D01*
X138250005Y-101525500D01*
X138267005Y-101540500D01*
X138282005Y-101557500D01*
X138296005Y-101574499D01*
X138310005Y-101591500D01*
X138322005Y-101610500D01*
X138334005Y-101628500D01*
X138345005Y-101648500D01*
X138354005Y-101668500D01*
X138363005Y-101689500D01*
X138370005Y-101710500D01*
X138377005Y-101731500D01*
X138382005Y-101753500D01*
X138386005Y-101775500D01*
X138389005Y-101797500D01*
X138390005Y-101819501D01*
X138391005Y-101841500D01*
X138391005Y-102141500D01*
X138390005Y-102163500D01*
X138389005Y-102185501D01*
X138386006Y-102207500D01*
X138382005Y-102229500D01*
X138377005Y-102251500D01*
X138370005Y-102272500D01*
X138363005Y-102293500D01*
X138354005Y-102314500D01*
X138345005Y-102334500D01*
X138334005Y-102353501D01*
X138322005Y-102372500D01*
X138310005Y-102391500D01*
X138296005Y-102408499D01*
X138282005Y-102425500D01*
X138267005Y-102442500D01*
X138250005Y-102457500D01*
X138233005Y-102471500D01*
X138216005Y-102485500D01*
X138197004Y-102497500D01*
X138179005Y-102509500D01*
X138159005Y-102520500D01*
X138139005Y-102529500D01*
X138118005Y-102538500D01*
X138097005Y-102545500D01*
X138076005Y-102552500D01*
X138054005Y-102557500D01*
X138032005Y-102561500D01*
X138010005Y-102564501D01*
X137988005Y-102565500D01*
X137966005Y-102566500D01*
X137944005Y-102565500D01*
X137922005Y-102564500D01*
X137900005Y-102561500D01*
X137878005Y-102557500D01*
X137856005Y-102552500D01*
X137835005Y-102545500D01*
X137814005Y-102538500D01*
X137793005Y-102529500D01*
X137773006Y-102520500D01*
X137754005Y-102509500D01*
X137735005Y-102497500D01*
X137716005Y-102485500D01*
X137699005Y-102471500D01*
X137682005Y-102457500D01*
X137665006Y-102442500D01*
X137650005Y-102425500D01*
X137636005Y-102408500D01*
X137622005Y-102391501D01*
X137610005Y-102372500D01*
X137598005Y-102353500D01*
X137587005Y-102334500D01*
X137578005Y-102314500D01*
X137569005Y-102293500D01*
X137562006Y-102272500D01*
X137555005Y-102251500D01*
X137550005Y-102229500D01*
X137546005Y-102207500D01*
X137543005Y-102185500D01*
X137542005Y-102163500D01*
X137541004Y-102141500D01*
X137541004Y-101841500D01*
X137542005Y-101819500D01*
X137543005Y-101797500D01*
X137546005Y-101775500D01*
X137550005Y-101753500D01*
X137555005Y-101731500D01*
X137562006Y-101710500D01*
X137569005Y-101689500D01*
X137578005Y-101668500D01*
X137587005Y-101648500D01*
X137598005Y-101628500D01*
X137610005Y-101610500D01*
X137622005Y-101591500D01*
X137636005Y-101574500D01*
X137650005Y-101557501D01*
X137665005Y-101540500D01*
X137682005Y-101525500D01*
X137699005Y-101511500D01*
X137716005Y-101497500D01*
X137735005Y-101485500D01*
X137754006Y-101473500D01*
X137773006Y-101462500D01*
X137793005Y-101453500D01*
X137814005Y-101444500D01*
X137835005Y-101437500D01*
X137856005Y-101430500D01*
X137878005Y-101425500D01*
X137900005Y-101421500D01*
X137922005Y-101418500D01*
X137944005Y-101417500D01*
X137966005Y-101416500D01*
X137988005Y-101417501D01*
G37*
%TD*%
D11*
%TO.C,J4*%
X155712006Y-85225501D03*
D12*
X152212006Y-85225501D03*
%TD*%
D13*
%TO.C,H4*%
X184297877Y-85101627D03*
%TD*%
D14*
%TO.C,J8*%
X141798005Y-114245501D03*
D15*
X144338005Y-114245501D03*
%TD*%
D13*
%TO.C,H3*%
X134858132Y-111681372D03*
%TD*%
%TO.C,H1*%
X134858132Y-85101628D03*
%TD*%
%TO.C,H2*%
X184297877Y-111681373D03*
%TD*%
D16*
%TO.C,J3*%
X137966005Y-94791500D03*
X137966005Y-101991500D03*
D17*
X137316005Y-101191500D03*
X136616005Y-100791500D03*
X136616005Y-99991500D03*
X137316005Y-99591500D03*
X136616006Y-99191500D03*
X137316005Y-98791500D03*
X137316005Y-97991500D03*
X136616006Y-97591500D03*
X137316005Y-97191500D03*
X136616005Y-96791500D03*
X136616005Y-95991500D03*
X137316005Y-95591500D03*
D18*
X136726005Y-94261500D03*
X136726005Y-102521500D03*
X132326005Y-93901501D03*
X132326005Y-102881499D03*
%TD*%
D19*
%TO.C,TP10*%
X149538005Y-107141500D03*
%TD*%
%TO.C,TP9*%
X149538005Y-104141500D03*
%TD*%
%TO.C,TP8*%
X152288005Y-90641500D03*
%TD*%
%TO.C,TP11*%
X158563005Y-94116500D03*
%TD*%
%TO.C,TP7*%
X156288005Y-90641500D03*
%TD*%
M02*
