%TF.GenerationSoftware,KiCad,Pcbnew,10.0.6-10.0.6~ubuntu26.04.1*%
%TF.CreationDate,2026-09-21T00:05:20-04:00*%
%TF.ProjectId,PHOBOS_Control_Digital,50484f42-4f53-45f4-936f-6e74726f6c5f,rev?*%
%TF.SameCoordinates,Original*%
%TF.FileFunction,Legend,Top*%
%TF.FilePolarity,Positive*%
%FSLAX46Y46*%
G04 Gerber Fmt 4.6, Leading zero omitted, Abs format (unit mm)*
G04 Created by KiCad (PCBNEW 10.0.6-10.0.6~ubuntu26.04.1) date 2026-09-21 00:05:20*
%MOMM*%
%LPD*%
G01*
G04 APERTURE LIST*
%ADD10C,0.200000*%
%ADD11C,0.150000*%
%ADD12C,0.063500*%
%ADD13C,0.120000*%
%ADD14C,0.127000*%
G04 APERTURE END LIST*
D10*
X130444167Y-80611500D02*
X188711843Y-80611500D01*
X188711843Y-116171501D01*
X130444167Y-116171501D01*
X130444167Y-80611500D01*
D11*
X174523440Y-91070071D02*
X173773440Y-91070071D01*
X173773440Y-91070071D02*
X173773440Y-90784357D01*
X173773440Y-90784357D02*
X173809154Y-90712928D01*
X173809154Y-90712928D02*
X173844868Y-90677214D01*
X173844868Y-90677214D02*
X173916297Y-90641500D01*
X173916297Y-90641500D02*
X174023440Y-90641500D01*
X174023440Y-90641500D02*
X174094868Y-90677214D01*
X174094868Y-90677214D02*
X174130583Y-90712928D01*
X174130583Y-90712928D02*
X174166297Y-90784357D01*
X174166297Y-90784357D02*
X174166297Y-91070071D01*
X174452011Y-90320071D02*
X174487726Y-90284357D01*
X174487726Y-90284357D02*
X174523440Y-90320071D01*
X174523440Y-90320071D02*
X174487726Y-90355785D01*
X174487726Y-90355785D02*
X174452011Y-90320071D01*
X174452011Y-90320071D02*
X174523440Y-90320071D01*
X174523440Y-89962928D02*
X173773440Y-89962928D01*
X174130583Y-89962928D02*
X174130583Y-89534357D01*
X174523440Y-89534357D02*
X173773440Y-89534357D01*
X174452011Y-89177214D02*
X174487726Y-89141500D01*
X174487726Y-89141500D02*
X174523440Y-89177214D01*
X174523440Y-89177214D02*
X174487726Y-89212928D01*
X174487726Y-89212928D02*
X174452011Y-89177214D01*
X174452011Y-89177214D02*
X174523440Y-89177214D01*
X173773440Y-88677214D02*
X173773440Y-88534357D01*
X173773440Y-88534357D02*
X173809154Y-88462928D01*
X173809154Y-88462928D02*
X173880583Y-88391500D01*
X173880583Y-88391500D02*
X174023440Y-88355785D01*
X174023440Y-88355785D02*
X174273440Y-88355785D01*
X174273440Y-88355785D02*
X174416297Y-88391500D01*
X174416297Y-88391500D02*
X174487726Y-88462928D01*
X174487726Y-88462928D02*
X174523440Y-88534357D01*
X174523440Y-88534357D02*
X174523440Y-88677214D01*
X174523440Y-88677214D02*
X174487726Y-88748643D01*
X174487726Y-88748643D02*
X174416297Y-88820071D01*
X174416297Y-88820071D02*
X174273440Y-88855785D01*
X174273440Y-88855785D02*
X174023440Y-88855785D01*
X174023440Y-88855785D02*
X173880583Y-88820071D01*
X173880583Y-88820071D02*
X173809154Y-88748643D01*
X173809154Y-88748643D02*
X173773440Y-88677214D01*
X174452011Y-88034357D02*
X174487726Y-87998643D01*
X174487726Y-87998643D02*
X174523440Y-88034357D01*
X174523440Y-88034357D02*
X174487726Y-88070071D01*
X174487726Y-88070071D02*
X174452011Y-88034357D01*
X174452011Y-88034357D02*
X174523440Y-88034357D01*
X174130583Y-87427214D02*
X174166297Y-87320071D01*
X174166297Y-87320071D02*
X174202011Y-87284357D01*
X174202011Y-87284357D02*
X174273440Y-87248643D01*
X174273440Y-87248643D02*
X174380583Y-87248643D01*
X174380583Y-87248643D02*
X174452011Y-87284357D01*
X174452011Y-87284357D02*
X174487726Y-87320071D01*
X174487726Y-87320071D02*
X174523440Y-87391500D01*
X174523440Y-87391500D02*
X174523440Y-87677214D01*
X174523440Y-87677214D02*
X173773440Y-87677214D01*
X173773440Y-87677214D02*
X173773440Y-87427214D01*
X173773440Y-87427214D02*
X173809154Y-87355786D01*
X173809154Y-87355786D02*
X173844868Y-87320071D01*
X173844868Y-87320071D02*
X173916297Y-87284357D01*
X173916297Y-87284357D02*
X173987726Y-87284357D01*
X173987726Y-87284357D02*
X174059154Y-87320071D01*
X174059154Y-87320071D02*
X174094868Y-87355786D01*
X174094868Y-87355786D02*
X174130583Y-87427214D01*
X174130583Y-87427214D02*
X174130583Y-87677214D01*
X174452011Y-86927214D02*
X174487726Y-86891500D01*
X174487726Y-86891500D02*
X174523440Y-86927214D01*
X174523440Y-86927214D02*
X174487726Y-86962928D01*
X174487726Y-86962928D02*
X174452011Y-86927214D01*
X174452011Y-86927214D02*
X174523440Y-86927214D01*
X173773440Y-86427214D02*
X173773440Y-86284357D01*
X173773440Y-86284357D02*
X173809154Y-86212928D01*
X173809154Y-86212928D02*
X173880583Y-86141500D01*
X173880583Y-86141500D02*
X174023440Y-86105785D01*
X174023440Y-86105785D02*
X174273440Y-86105785D01*
X174273440Y-86105785D02*
X174416297Y-86141500D01*
X174416297Y-86141500D02*
X174487726Y-86212928D01*
X174487726Y-86212928D02*
X174523440Y-86284357D01*
X174523440Y-86284357D02*
X174523440Y-86427214D01*
X174523440Y-86427214D02*
X174487726Y-86498643D01*
X174487726Y-86498643D02*
X174416297Y-86570071D01*
X174416297Y-86570071D02*
X174273440Y-86605785D01*
X174273440Y-86605785D02*
X174023440Y-86605785D01*
X174023440Y-86605785D02*
X173880583Y-86570071D01*
X173880583Y-86570071D02*
X173809154Y-86498643D01*
X173809154Y-86498643D02*
X173773440Y-86427214D01*
X174452011Y-85784357D02*
X174487726Y-85748643D01*
X174487726Y-85748643D02*
X174523440Y-85784357D01*
X174523440Y-85784357D02*
X174487726Y-85820071D01*
X174487726Y-85820071D02*
X174452011Y-85784357D01*
X174452011Y-85784357D02*
X174523440Y-85784357D01*
X174487726Y-85462928D02*
X174523440Y-85355786D01*
X174523440Y-85355786D02*
X174523440Y-85177214D01*
X174523440Y-85177214D02*
X174487726Y-85105786D01*
X174487726Y-85105786D02*
X174452011Y-85070071D01*
X174452011Y-85070071D02*
X174380583Y-85034357D01*
X174380583Y-85034357D02*
X174309154Y-85034357D01*
X174309154Y-85034357D02*
X174237726Y-85070071D01*
X174237726Y-85070071D02*
X174202011Y-85105786D01*
X174202011Y-85105786D02*
X174166297Y-85177214D01*
X174166297Y-85177214D02*
X174130583Y-85320071D01*
X174130583Y-85320071D02*
X174094868Y-85391500D01*
X174094868Y-85391500D02*
X174059154Y-85427214D01*
X174059154Y-85427214D02*
X173987726Y-85462928D01*
X173987726Y-85462928D02*
X173916297Y-85462928D01*
X173916297Y-85462928D02*
X173844868Y-85427214D01*
X173844868Y-85427214D02*
X173809154Y-85391500D01*
X173809154Y-85391500D02*
X173773440Y-85320071D01*
X173773440Y-85320071D02*
X173773440Y-85141500D01*
X173773440Y-85141500D02*
X173809154Y-85034357D01*
X174452011Y-84712928D02*
X174487726Y-84677214D01*
X174487726Y-84677214D02*
X174523440Y-84712928D01*
X174523440Y-84712928D02*
X174487726Y-84748642D01*
X174487726Y-84748642D02*
X174452011Y-84712928D01*
X174452011Y-84712928D02*
X174523440Y-84712928D01*
X175659469Y-89320070D02*
X175695184Y-89355784D01*
X175695184Y-89355784D02*
X175730898Y-89462927D01*
X175730898Y-89462927D02*
X175730898Y-89534355D01*
X175730898Y-89534355D02*
X175695184Y-89641498D01*
X175695184Y-89641498D02*
X175623755Y-89712927D01*
X175623755Y-89712927D02*
X175552326Y-89748641D01*
X175552326Y-89748641D02*
X175409469Y-89784355D01*
X175409469Y-89784355D02*
X175302326Y-89784355D01*
X175302326Y-89784355D02*
X175159469Y-89748641D01*
X175159469Y-89748641D02*
X175088041Y-89712927D01*
X175088041Y-89712927D02*
X175016612Y-89641498D01*
X175016612Y-89641498D02*
X174980898Y-89534355D01*
X174980898Y-89534355D02*
X174980898Y-89462927D01*
X174980898Y-89462927D02*
X175016612Y-89355784D01*
X175016612Y-89355784D02*
X175052326Y-89320070D01*
X175730898Y-88891498D02*
X175695184Y-88962927D01*
X175695184Y-88962927D02*
X175659469Y-88998641D01*
X175659469Y-88998641D02*
X175588041Y-89034355D01*
X175588041Y-89034355D02*
X175373755Y-89034355D01*
X175373755Y-89034355D02*
X175302326Y-88998641D01*
X175302326Y-88998641D02*
X175266612Y-88962927D01*
X175266612Y-88962927D02*
X175230898Y-88891498D01*
X175230898Y-88891498D02*
X175230898Y-88784355D01*
X175230898Y-88784355D02*
X175266612Y-88712927D01*
X175266612Y-88712927D02*
X175302326Y-88677213D01*
X175302326Y-88677213D02*
X175373755Y-88641498D01*
X175373755Y-88641498D02*
X175588041Y-88641498D01*
X175588041Y-88641498D02*
X175659469Y-88677213D01*
X175659469Y-88677213D02*
X175695184Y-88712927D01*
X175695184Y-88712927D02*
X175730898Y-88784355D01*
X175730898Y-88784355D02*
X175730898Y-88891498D01*
X175230898Y-88320070D02*
X175730898Y-88320070D01*
X175302326Y-88320070D02*
X175266612Y-88284356D01*
X175266612Y-88284356D02*
X175230898Y-88212927D01*
X175230898Y-88212927D02*
X175230898Y-88105784D01*
X175230898Y-88105784D02*
X175266612Y-88034356D01*
X175266612Y-88034356D02*
X175338041Y-87998642D01*
X175338041Y-87998642D02*
X175730898Y-87998642D01*
X175230898Y-87748642D02*
X175230898Y-87462928D01*
X174980898Y-87641499D02*
X175623755Y-87641499D01*
X175623755Y-87641499D02*
X175695184Y-87605785D01*
X175695184Y-87605785D02*
X175730898Y-87534356D01*
X175730898Y-87534356D02*
X175730898Y-87462928D01*
X175730898Y-87212928D02*
X175230898Y-87212928D01*
X175373755Y-87212928D02*
X175302326Y-87177214D01*
X175302326Y-87177214D02*
X175266612Y-87141500D01*
X175266612Y-87141500D02*
X175230898Y-87070071D01*
X175230898Y-87070071D02*
X175230898Y-86998642D01*
X175730898Y-86641499D02*
X175695184Y-86712928D01*
X175695184Y-86712928D02*
X175659469Y-86748642D01*
X175659469Y-86748642D02*
X175588041Y-86784356D01*
X175588041Y-86784356D02*
X175373755Y-86784356D01*
X175373755Y-86784356D02*
X175302326Y-86748642D01*
X175302326Y-86748642D02*
X175266612Y-86712928D01*
X175266612Y-86712928D02*
X175230898Y-86641499D01*
X175230898Y-86641499D02*
X175230898Y-86534356D01*
X175230898Y-86534356D02*
X175266612Y-86462928D01*
X175266612Y-86462928D02*
X175302326Y-86427214D01*
X175302326Y-86427214D02*
X175373755Y-86391499D01*
X175373755Y-86391499D02*
X175588041Y-86391499D01*
X175588041Y-86391499D02*
X175659469Y-86427214D01*
X175659469Y-86427214D02*
X175695184Y-86462928D01*
X175695184Y-86462928D02*
X175730898Y-86534356D01*
X175730898Y-86534356D02*
X175730898Y-86641499D01*
X175730898Y-85962928D02*
X175695184Y-86034357D01*
X175695184Y-86034357D02*
X175623755Y-86070071D01*
X175623755Y-86070071D02*
X174980898Y-86070071D01*
D12*
X157618671Y-88865207D02*
X157618671Y-89228064D01*
X157618671Y-89228064D02*
X157594480Y-89300636D01*
X157594480Y-89300636D02*
X157546099Y-89349017D01*
X157546099Y-89349017D02*
X157473528Y-89373207D01*
X157473528Y-89373207D02*
X157425147Y-89373207D01*
X158078290Y-89034540D02*
X158078290Y-89373207D01*
X157957338Y-88841017D02*
X157836385Y-89203874D01*
X157836385Y-89203874D02*
X158150862Y-89203874D01*
X154461433Y-93824826D02*
X154437242Y-93849017D01*
X154437242Y-93849017D02*
X154364671Y-93873207D01*
X154364671Y-93873207D02*
X154316290Y-93873207D01*
X154316290Y-93873207D02*
X154243718Y-93849017D01*
X154243718Y-93849017D02*
X154195337Y-93800636D01*
X154195337Y-93800636D02*
X154171147Y-93752255D01*
X154171147Y-93752255D02*
X154146956Y-93655493D01*
X154146956Y-93655493D02*
X154146956Y-93582921D01*
X154146956Y-93582921D02*
X154171147Y-93486159D01*
X154171147Y-93486159D02*
X154195337Y-93437778D01*
X154195337Y-93437778D02*
X154243718Y-93389397D01*
X154243718Y-93389397D02*
X154316290Y-93365207D01*
X154316290Y-93365207D02*
X154364671Y-93365207D01*
X154364671Y-93365207D02*
X154437242Y-93389397D01*
X154437242Y-93389397D02*
X154461433Y-93413588D01*
X154630766Y-93365207D02*
X154945242Y-93365207D01*
X154945242Y-93365207D02*
X154775909Y-93558731D01*
X154775909Y-93558731D02*
X154848480Y-93558731D01*
X154848480Y-93558731D02*
X154896861Y-93582921D01*
X154896861Y-93582921D02*
X154921052Y-93607112D01*
X154921052Y-93607112D02*
X154945242Y-93655493D01*
X154945242Y-93655493D02*
X154945242Y-93776445D01*
X154945242Y-93776445D02*
X154921052Y-93824826D01*
X154921052Y-93824826D02*
X154896861Y-93849017D01*
X154896861Y-93849017D02*
X154848480Y-93873207D01*
X154848480Y-93873207D02*
X154703337Y-93873207D01*
X154703337Y-93873207D02*
X154654956Y-93849017D01*
X154654956Y-93849017D02*
X154630766Y-93824826D01*
X155380671Y-93365207D02*
X155283909Y-93365207D01*
X155283909Y-93365207D02*
X155235528Y-93389397D01*
X155235528Y-93389397D02*
X155211338Y-93413588D01*
X155211338Y-93413588D02*
X155162957Y-93486159D01*
X155162957Y-93486159D02*
X155138766Y-93582921D01*
X155138766Y-93582921D02*
X155138766Y-93776445D01*
X155138766Y-93776445D02*
X155162957Y-93824826D01*
X155162957Y-93824826D02*
X155187147Y-93849017D01*
X155187147Y-93849017D02*
X155235528Y-93873207D01*
X155235528Y-93873207D02*
X155332290Y-93873207D01*
X155332290Y-93873207D02*
X155380671Y-93849017D01*
X155380671Y-93849017D02*
X155404862Y-93824826D01*
X155404862Y-93824826D02*
X155429052Y-93776445D01*
X155429052Y-93776445D02*
X155429052Y-93655493D01*
X155429052Y-93655493D02*
X155404862Y-93607112D01*
X155404862Y-93607112D02*
X155380671Y-93582921D01*
X155380671Y-93582921D02*
X155332290Y-93558731D01*
X155332290Y-93558731D02*
X155235528Y-93558731D01*
X155235528Y-93558731D02*
X155187147Y-93582921D01*
X155187147Y-93582921D02*
X155162957Y-93607112D01*
X155162957Y-93607112D02*
X155138766Y-93655493D01*
X169934831Y-97305172D02*
X169959022Y-97329363D01*
X169959022Y-97329363D02*
X169983212Y-97401934D01*
X169983212Y-97401934D02*
X169983212Y-97450315D01*
X169983212Y-97450315D02*
X169959022Y-97522887D01*
X169959022Y-97522887D02*
X169910641Y-97571268D01*
X169910641Y-97571268D02*
X169862260Y-97595458D01*
X169862260Y-97595458D02*
X169765498Y-97619649D01*
X169765498Y-97619649D02*
X169692926Y-97619649D01*
X169692926Y-97619649D02*
X169596164Y-97595458D01*
X169596164Y-97595458D02*
X169547783Y-97571268D01*
X169547783Y-97571268D02*
X169499402Y-97522887D01*
X169499402Y-97522887D02*
X169475212Y-97450315D01*
X169475212Y-97450315D02*
X169475212Y-97401934D01*
X169475212Y-97401934D02*
X169499402Y-97329363D01*
X169499402Y-97329363D02*
X169523593Y-97305172D01*
X169475212Y-96990696D02*
X169475212Y-96942315D01*
X169475212Y-96942315D02*
X169499402Y-96893934D01*
X169499402Y-96893934D02*
X169523593Y-96869744D01*
X169523593Y-96869744D02*
X169571974Y-96845553D01*
X169571974Y-96845553D02*
X169668736Y-96821363D01*
X169668736Y-96821363D02*
X169789688Y-96821363D01*
X169789688Y-96821363D02*
X169886450Y-96845553D01*
X169886450Y-96845553D02*
X169934831Y-96869744D01*
X169934831Y-96869744D02*
X169959022Y-96893934D01*
X169959022Y-96893934D02*
X169983212Y-96942315D01*
X169983212Y-96942315D02*
X169983212Y-96990696D01*
X169983212Y-96990696D02*
X169959022Y-97039077D01*
X169959022Y-97039077D02*
X169934831Y-97063268D01*
X169934831Y-97063268D02*
X169886450Y-97087458D01*
X169886450Y-97087458D02*
X169789688Y-97111649D01*
X169789688Y-97111649D02*
X169668736Y-97111649D01*
X169668736Y-97111649D02*
X169571974Y-97087458D01*
X169571974Y-97087458D02*
X169523593Y-97063268D01*
X169523593Y-97063268D02*
X169499402Y-97039077D01*
X169499402Y-97039077D02*
X169475212Y-96990696D01*
X142436007Y-112497704D02*
X142487323Y-112206914D01*
X142230744Y-112292441D02*
X142589955Y-111933230D01*
X142589955Y-111933230D02*
X142726797Y-112070072D01*
X142726797Y-112070072D02*
X142743902Y-112121388D01*
X142743902Y-112121388D02*
X142743902Y-112155599D01*
X142743902Y-112155599D02*
X142726797Y-112206914D01*
X142726797Y-112206914D02*
X142675481Y-112258230D01*
X142675481Y-112258230D02*
X142624165Y-112275335D01*
X142624165Y-112275335D02*
X142589955Y-112275335D01*
X142589955Y-112275335D02*
X142538639Y-112258230D01*
X142538639Y-112258230D02*
X142401797Y-112121388D01*
X143103112Y-112446388D02*
X143034691Y-112377967D01*
X143034691Y-112377967D02*
X142983375Y-112360862D01*
X142983375Y-112360862D02*
X142949165Y-112360862D01*
X142949165Y-112360862D02*
X142863639Y-112377967D01*
X142863639Y-112377967D02*
X142778112Y-112429283D01*
X142778112Y-112429283D02*
X142641270Y-112566125D01*
X142641270Y-112566125D02*
X142624165Y-112617440D01*
X142624165Y-112617440D02*
X142624165Y-112651651D01*
X142624165Y-112651651D02*
X142641270Y-112702967D01*
X142641270Y-112702967D02*
X142709691Y-112771388D01*
X142709691Y-112771388D02*
X142761007Y-112788493D01*
X142761007Y-112788493D02*
X142795218Y-112788493D01*
X142795218Y-112788493D02*
X142846533Y-112771388D01*
X142846533Y-112771388D02*
X142932060Y-112685861D01*
X142932060Y-112685861D02*
X142949165Y-112634546D01*
X142949165Y-112634546D02*
X142949165Y-112600335D01*
X142949165Y-112600335D02*
X142932060Y-112549019D01*
X142932060Y-112549019D02*
X142863639Y-112480598D01*
X142863639Y-112480598D02*
X142812323Y-112463493D01*
X142812323Y-112463493D02*
X142778112Y-112463493D01*
X142778112Y-112463493D02*
X142726797Y-112480598D01*
X145261433Y-95574826D02*
X145237242Y-95599017D01*
X145237242Y-95599017D02*
X145164671Y-95623207D01*
X145164671Y-95623207D02*
X145116290Y-95623207D01*
X145116290Y-95623207D02*
X145043718Y-95599017D01*
X145043718Y-95599017D02*
X144995337Y-95550636D01*
X144995337Y-95550636D02*
X144971147Y-95502255D01*
X144971147Y-95502255D02*
X144946956Y-95405493D01*
X144946956Y-95405493D02*
X144946956Y-95332921D01*
X144946956Y-95332921D02*
X144971147Y-95236159D01*
X144971147Y-95236159D02*
X144995337Y-95187778D01*
X144995337Y-95187778D02*
X145043718Y-95139397D01*
X145043718Y-95139397D02*
X145116290Y-95115207D01*
X145116290Y-95115207D02*
X145164671Y-95115207D01*
X145164671Y-95115207D02*
X145237242Y-95139397D01*
X145237242Y-95139397D02*
X145261433Y-95163588D01*
X145454956Y-95163588D02*
X145479147Y-95139397D01*
X145479147Y-95139397D02*
X145527528Y-95115207D01*
X145527528Y-95115207D02*
X145648480Y-95115207D01*
X145648480Y-95115207D02*
X145696861Y-95139397D01*
X145696861Y-95139397D02*
X145721052Y-95163588D01*
X145721052Y-95163588D02*
X145745242Y-95211969D01*
X145745242Y-95211969D02*
X145745242Y-95260350D01*
X145745242Y-95260350D02*
X145721052Y-95332921D01*
X145721052Y-95332921D02*
X145430766Y-95623207D01*
X145430766Y-95623207D02*
X145745242Y-95623207D01*
X146059719Y-95115207D02*
X146108100Y-95115207D01*
X146108100Y-95115207D02*
X146156481Y-95139397D01*
X146156481Y-95139397D02*
X146180671Y-95163588D01*
X146180671Y-95163588D02*
X146204862Y-95211969D01*
X146204862Y-95211969D02*
X146229052Y-95308731D01*
X146229052Y-95308731D02*
X146229052Y-95429683D01*
X146229052Y-95429683D02*
X146204862Y-95526445D01*
X146204862Y-95526445D02*
X146180671Y-95574826D01*
X146180671Y-95574826D02*
X146156481Y-95599017D01*
X146156481Y-95599017D02*
X146108100Y-95623207D01*
X146108100Y-95623207D02*
X146059719Y-95623207D01*
X146059719Y-95623207D02*
X146011338Y-95599017D01*
X146011338Y-95599017D02*
X145987147Y-95574826D01*
X145987147Y-95574826D02*
X145962957Y-95526445D01*
X145962957Y-95526445D02*
X145938766Y-95429683D01*
X145938766Y-95429683D02*
X145938766Y-95308731D01*
X145938766Y-95308731D02*
X145962957Y-95211969D01*
X145962957Y-95211969D02*
X145987147Y-95163588D01*
X145987147Y-95163588D02*
X146011338Y-95139397D01*
X146011338Y-95139397D02*
X146059719Y-95115207D01*
X142471332Y-91468071D02*
X142495523Y-91492262D01*
X142495523Y-91492262D02*
X142519713Y-91564833D01*
X142519713Y-91564833D02*
X142519713Y-91613214D01*
X142519713Y-91613214D02*
X142495523Y-91685786D01*
X142495523Y-91685786D02*
X142447142Y-91734167D01*
X142447142Y-91734167D02*
X142398761Y-91758357D01*
X142398761Y-91758357D02*
X142301999Y-91782548D01*
X142301999Y-91782548D02*
X142229427Y-91782548D01*
X142229427Y-91782548D02*
X142132665Y-91758357D01*
X142132665Y-91758357D02*
X142084284Y-91734167D01*
X142084284Y-91734167D02*
X142035903Y-91685786D01*
X142035903Y-91685786D02*
X142011713Y-91613214D01*
X142011713Y-91613214D02*
X142011713Y-91564833D01*
X142011713Y-91564833D02*
X142035903Y-91492262D01*
X142035903Y-91492262D02*
X142060094Y-91468071D01*
X142519713Y-90984262D02*
X142519713Y-91274548D01*
X142519713Y-91129405D02*
X142011713Y-91129405D01*
X142011713Y-91129405D02*
X142084284Y-91177786D01*
X142084284Y-91177786D02*
X142132665Y-91226167D01*
X142132665Y-91226167D02*
X142156856Y-91274548D01*
X142011713Y-90814928D02*
X142011713Y-90476261D01*
X142011713Y-90476261D02*
X142519713Y-90693976D01*
X164078838Y-103675213D02*
X163836933Y-103675213D01*
X163836933Y-103675213D02*
X163836933Y-103167213D01*
X164465885Y-103336546D02*
X164465885Y-103675213D01*
X164344933Y-103143023D02*
X164223980Y-103505880D01*
X164223980Y-103505880D02*
X164538457Y-103505880D01*
X146011712Y-112302738D02*
X146374569Y-112302738D01*
X146374569Y-112302738D02*
X146447141Y-112326929D01*
X146447141Y-112326929D02*
X146495522Y-112375310D01*
X146495522Y-112375310D02*
X146519712Y-112447881D01*
X146519712Y-112447881D02*
X146519712Y-112496262D01*
X146519712Y-111794738D02*
X146519712Y-112085024D01*
X146519712Y-111939881D02*
X146011712Y-111939881D01*
X146011712Y-111939881D02*
X146084283Y-111988262D01*
X146084283Y-111988262D02*
X146132664Y-112036643D01*
X146132664Y-112036643D02*
X146156855Y-112085024D01*
X146181045Y-111359309D02*
X146519712Y-111359309D01*
X145987522Y-111480261D02*
X146350379Y-111601214D01*
X146350379Y-111601214D02*
X146350379Y-111286737D01*
X157088335Y-100683040D02*
X157330240Y-100683040D01*
X156822240Y-100852374D02*
X157088335Y-100683040D01*
X157088335Y-100683040D02*
X156822240Y-100513707D01*
X156870621Y-100368564D02*
X156846430Y-100344373D01*
X156846430Y-100344373D02*
X156822240Y-100295992D01*
X156822240Y-100295992D02*
X156822240Y-100175040D01*
X156822240Y-100175040D02*
X156846430Y-100126659D01*
X156846430Y-100126659D02*
X156870621Y-100102468D01*
X156870621Y-100102468D02*
X156919002Y-100078278D01*
X156919002Y-100078278D02*
X156967383Y-100078278D01*
X156967383Y-100078278D02*
X157039954Y-100102468D01*
X157039954Y-100102468D02*
X157330240Y-100392754D01*
X157330240Y-100392754D02*
X157330240Y-100078278D01*
X147380576Y-102429650D02*
X147380576Y-102463860D01*
X147380576Y-102463860D02*
X147346366Y-102532281D01*
X147346366Y-102532281D02*
X147312155Y-102566492D01*
X147312155Y-102566492D02*
X147243734Y-102600702D01*
X147243734Y-102600702D02*
X147175313Y-102600702D01*
X147175313Y-102600702D02*
X147123998Y-102583597D01*
X147123998Y-102583597D02*
X147038471Y-102532281D01*
X147038471Y-102532281D02*
X146987156Y-102480966D01*
X146987156Y-102480966D02*
X146935840Y-102395439D01*
X146935840Y-102395439D02*
X146918735Y-102344124D01*
X146918735Y-102344124D02*
X146918735Y-102275703D01*
X146918735Y-102275703D02*
X146952945Y-102207282D01*
X146952945Y-102207282D02*
X146987156Y-102173071D01*
X146987156Y-102173071D02*
X147055577Y-102138861D01*
X147055577Y-102138861D02*
X147089787Y-102138861D01*
X147175313Y-101984913D02*
X147397682Y-101762545D01*
X147397682Y-101762545D02*
X147414787Y-102019124D01*
X147414787Y-102019124D02*
X147466103Y-101967808D01*
X147466103Y-101967808D02*
X147517418Y-101950703D01*
X147517418Y-101950703D02*
X147551629Y-101950703D01*
X147551629Y-101950703D02*
X147602945Y-101967808D01*
X147602945Y-101967808D02*
X147688471Y-102053334D01*
X147688471Y-102053334D02*
X147705576Y-102104650D01*
X147705576Y-102104650D02*
X147705576Y-102138861D01*
X147705576Y-102138861D02*
X147688471Y-102190176D01*
X147688471Y-102190176D02*
X147585839Y-102292808D01*
X147585839Y-102292808D02*
X147534524Y-102309913D01*
X147534524Y-102309913D02*
X147500313Y-102309913D01*
X147620050Y-101540177D02*
X147654261Y-101505966D01*
X147654261Y-101505966D02*
X147705577Y-101488861D01*
X147705577Y-101488861D02*
X147739787Y-101488861D01*
X147739787Y-101488861D02*
X147791103Y-101505966D01*
X147791103Y-101505966D02*
X147876629Y-101557282D01*
X147876629Y-101557282D02*
X147962155Y-101642808D01*
X147962155Y-101642808D02*
X148013471Y-101728334D01*
X148013471Y-101728334D02*
X148030576Y-101779650D01*
X148030576Y-101779650D02*
X148030576Y-101813861D01*
X148030576Y-101813861D02*
X148013471Y-101865176D01*
X148013471Y-101865176D02*
X147979261Y-101899387D01*
X147979261Y-101899387D02*
X147927945Y-101916492D01*
X147927945Y-101916492D02*
X147893734Y-101916492D01*
X147893734Y-101916492D02*
X147842419Y-101899387D01*
X147842419Y-101899387D02*
X147756892Y-101848071D01*
X147756892Y-101848071D02*
X147671366Y-101762545D01*
X147671366Y-101762545D02*
X147620050Y-101677019D01*
X147620050Y-101677019D02*
X147602945Y-101625703D01*
X147602945Y-101625703D02*
X147602945Y-101591492D01*
X147602945Y-101591492D02*
X147620050Y-101540177D01*
X163770239Y-96640576D02*
X164181477Y-96640576D01*
X164181477Y-96640576D02*
X164229858Y-96616386D01*
X164229858Y-96616386D02*
X164254049Y-96592195D01*
X164254049Y-96592195D02*
X164278239Y-96543814D01*
X164278239Y-96543814D02*
X164278239Y-96447052D01*
X164278239Y-96447052D02*
X164254049Y-96398671D01*
X164254049Y-96398671D02*
X164229858Y-96374481D01*
X164229858Y-96374481D02*
X164181477Y-96350290D01*
X164181477Y-96350290D02*
X163770239Y-96350290D01*
X164278239Y-95842291D02*
X164278239Y-96132577D01*
X164278239Y-95987434D02*
X163770239Y-95987434D01*
X163770239Y-95987434D02*
X163842810Y-96035815D01*
X163842810Y-96035815D02*
X163891191Y-96084196D01*
X163891191Y-96084196D02*
X163915382Y-96132577D01*
X143753338Y-96572207D02*
X143584004Y-96330302D01*
X143463052Y-96572207D02*
X143463052Y-96064207D01*
X143463052Y-96064207D02*
X143656576Y-96064207D01*
X143656576Y-96064207D02*
X143704957Y-96088397D01*
X143704957Y-96088397D02*
X143729147Y-96112588D01*
X143729147Y-96112588D02*
X143753338Y-96160969D01*
X143753338Y-96160969D02*
X143753338Y-96233540D01*
X143753338Y-96233540D02*
X143729147Y-96281921D01*
X143729147Y-96281921D02*
X143704957Y-96306112D01*
X143704957Y-96306112D02*
X143656576Y-96330302D01*
X143656576Y-96330302D02*
X143463052Y-96330302D01*
X144043623Y-96281921D02*
X143995242Y-96257731D01*
X143995242Y-96257731D02*
X143971052Y-96233540D01*
X143971052Y-96233540D02*
X143946861Y-96185159D01*
X143946861Y-96185159D02*
X143946861Y-96160969D01*
X143946861Y-96160969D02*
X143971052Y-96112588D01*
X143971052Y-96112588D02*
X143995242Y-96088397D01*
X143995242Y-96088397D02*
X144043623Y-96064207D01*
X144043623Y-96064207D02*
X144140385Y-96064207D01*
X144140385Y-96064207D02*
X144188766Y-96088397D01*
X144188766Y-96088397D02*
X144212957Y-96112588D01*
X144212957Y-96112588D02*
X144237147Y-96160969D01*
X144237147Y-96160969D02*
X144237147Y-96185159D01*
X144237147Y-96185159D02*
X144212957Y-96233540D01*
X144212957Y-96233540D02*
X144188766Y-96257731D01*
X144188766Y-96257731D02*
X144140385Y-96281921D01*
X144140385Y-96281921D02*
X144043623Y-96281921D01*
X144043623Y-96281921D02*
X143995242Y-96306112D01*
X143995242Y-96306112D02*
X143971052Y-96330302D01*
X143971052Y-96330302D02*
X143946861Y-96378683D01*
X143946861Y-96378683D02*
X143946861Y-96475445D01*
X143946861Y-96475445D02*
X143971052Y-96523826D01*
X143971052Y-96523826D02*
X143995242Y-96548017D01*
X143995242Y-96548017D02*
X144043623Y-96572207D01*
X144043623Y-96572207D02*
X144140385Y-96572207D01*
X144140385Y-96572207D02*
X144188766Y-96548017D01*
X144188766Y-96548017D02*
X144212957Y-96523826D01*
X144212957Y-96523826D02*
X144237147Y-96475445D01*
X144237147Y-96475445D02*
X144237147Y-96378683D01*
X144237147Y-96378683D02*
X144212957Y-96330302D01*
X144212957Y-96330302D02*
X144188766Y-96306112D01*
X144188766Y-96306112D02*
X144140385Y-96281921D01*
X163457085Y-101194726D02*
X163432894Y-101218917D01*
X163432894Y-101218917D02*
X163360323Y-101243107D01*
X163360323Y-101243107D02*
X163311942Y-101243107D01*
X163311942Y-101243107D02*
X163239370Y-101218917D01*
X163239370Y-101218917D02*
X163190989Y-101170536D01*
X163190989Y-101170536D02*
X163166799Y-101122155D01*
X163166799Y-101122155D02*
X163142608Y-101025393D01*
X163142608Y-101025393D02*
X163142608Y-100952821D01*
X163142608Y-100952821D02*
X163166799Y-100856059D01*
X163166799Y-100856059D02*
X163190989Y-100807678D01*
X163190989Y-100807678D02*
X163239370Y-100759297D01*
X163239370Y-100759297D02*
X163311942Y-100735107D01*
X163311942Y-100735107D02*
X163360323Y-100735107D01*
X163360323Y-100735107D02*
X163432894Y-100759297D01*
X163432894Y-100759297D02*
X163457085Y-100783488D01*
X163698989Y-101243107D02*
X163795751Y-101243107D01*
X163795751Y-101243107D02*
X163844132Y-101218917D01*
X163844132Y-101218917D02*
X163868323Y-101194726D01*
X163868323Y-101194726D02*
X163916704Y-101122155D01*
X163916704Y-101122155D02*
X163940894Y-101025393D01*
X163940894Y-101025393D02*
X163940894Y-100831869D01*
X163940894Y-100831869D02*
X163916704Y-100783488D01*
X163916704Y-100783488D02*
X163892513Y-100759297D01*
X163892513Y-100759297D02*
X163844132Y-100735107D01*
X163844132Y-100735107D02*
X163747370Y-100735107D01*
X163747370Y-100735107D02*
X163698989Y-100759297D01*
X163698989Y-100759297D02*
X163674799Y-100783488D01*
X163674799Y-100783488D02*
X163650608Y-100831869D01*
X163650608Y-100831869D02*
X163650608Y-100952821D01*
X163650608Y-100952821D02*
X163674799Y-101001202D01*
X163674799Y-101001202D02*
X163698989Y-101025393D01*
X163698989Y-101025393D02*
X163747370Y-101049583D01*
X163747370Y-101049583D02*
X163844132Y-101049583D01*
X163844132Y-101049583D02*
X163892513Y-101025393D01*
X163892513Y-101025393D02*
X163916704Y-101001202D01*
X163916704Y-101001202D02*
X163940894Y-100952821D01*
X139511713Y-89528547D02*
X139922951Y-89528547D01*
X139922951Y-89528547D02*
X139971332Y-89504357D01*
X139971332Y-89504357D02*
X139995523Y-89480166D01*
X139995523Y-89480166D02*
X140019713Y-89431785D01*
X140019713Y-89431785D02*
X140019713Y-89335023D01*
X140019713Y-89335023D02*
X139995523Y-89286642D01*
X139995523Y-89286642D02*
X139971332Y-89262452D01*
X139971332Y-89262452D02*
X139922951Y-89238261D01*
X139922951Y-89238261D02*
X139511713Y-89238261D01*
X139511713Y-89044738D02*
X139511713Y-88730262D01*
X139511713Y-88730262D02*
X139705237Y-88899595D01*
X139705237Y-88899595D02*
X139705237Y-88827024D01*
X139705237Y-88827024D02*
X139729427Y-88778643D01*
X139729427Y-88778643D02*
X139753618Y-88754452D01*
X139753618Y-88754452D02*
X139801999Y-88730262D01*
X139801999Y-88730262D02*
X139922951Y-88730262D01*
X139922951Y-88730262D02*
X139971332Y-88754452D01*
X139971332Y-88754452D02*
X139995523Y-88778643D01*
X139995523Y-88778643D02*
X140019713Y-88827024D01*
X140019713Y-88827024D02*
X140019713Y-88972167D01*
X140019713Y-88972167D02*
X139995523Y-89020548D01*
X139995523Y-89020548D02*
X139971332Y-89044738D01*
X139269712Y-86976166D02*
X139027807Y-87145500D01*
X139269712Y-87266452D02*
X138761712Y-87266452D01*
X138761712Y-87266452D02*
X138761712Y-87072928D01*
X138761712Y-87072928D02*
X138785902Y-87024547D01*
X138785902Y-87024547D02*
X138810093Y-87000357D01*
X138810093Y-87000357D02*
X138858474Y-86976166D01*
X138858474Y-86976166D02*
X138931045Y-86976166D01*
X138931045Y-86976166D02*
X138979426Y-87000357D01*
X138979426Y-87000357D02*
X139003617Y-87024547D01*
X139003617Y-87024547D02*
X139027807Y-87072928D01*
X139027807Y-87072928D02*
X139027807Y-87266452D01*
X138931045Y-86540738D02*
X139269712Y-86540738D01*
X138737522Y-86661690D02*
X139100379Y-86782643D01*
X139100379Y-86782643D02*
X139100379Y-86468166D01*
X160902877Y-103498144D02*
X160878686Y-103522335D01*
X160878686Y-103522335D02*
X160806115Y-103546525D01*
X160806115Y-103546525D02*
X160757734Y-103546525D01*
X160757734Y-103546525D02*
X160685162Y-103522335D01*
X160685162Y-103522335D02*
X160636781Y-103473954D01*
X160636781Y-103473954D02*
X160612591Y-103425573D01*
X160612591Y-103425573D02*
X160588400Y-103328811D01*
X160588400Y-103328811D02*
X160588400Y-103256239D01*
X160588400Y-103256239D02*
X160612591Y-103159477D01*
X160612591Y-103159477D02*
X160636781Y-103111096D01*
X160636781Y-103111096D02*
X160685162Y-103062715D01*
X160685162Y-103062715D02*
X160757734Y-103038525D01*
X160757734Y-103038525D02*
X160806115Y-103038525D01*
X160806115Y-103038525D02*
X160878686Y-103062715D01*
X160878686Y-103062715D02*
X160902877Y-103086906D01*
X161386686Y-103546525D02*
X161096400Y-103546525D01*
X161241543Y-103546525D02*
X161241543Y-103038525D01*
X161241543Y-103038525D02*
X161193162Y-103111096D01*
X161193162Y-103111096D02*
X161144781Y-103159477D01*
X161144781Y-103159477D02*
X161096400Y-103183668D01*
X161822115Y-103207858D02*
X161822115Y-103546525D01*
X161701163Y-103014335D02*
X161580210Y-103377192D01*
X161580210Y-103377192D02*
X161894687Y-103377192D01*
X147721332Y-94718071D02*
X147745523Y-94742262D01*
X147745523Y-94742262D02*
X147769713Y-94814833D01*
X147769713Y-94814833D02*
X147769713Y-94863214D01*
X147769713Y-94863214D02*
X147745523Y-94935786D01*
X147745523Y-94935786D02*
X147697142Y-94984167D01*
X147697142Y-94984167D02*
X147648761Y-95008357D01*
X147648761Y-95008357D02*
X147551999Y-95032548D01*
X147551999Y-95032548D02*
X147479427Y-95032548D01*
X147479427Y-95032548D02*
X147382665Y-95008357D01*
X147382665Y-95008357D02*
X147334284Y-94984167D01*
X147334284Y-94984167D02*
X147285903Y-94935786D01*
X147285903Y-94935786D02*
X147261713Y-94863214D01*
X147261713Y-94863214D02*
X147261713Y-94814833D01*
X147261713Y-94814833D02*
X147285903Y-94742262D01*
X147285903Y-94742262D02*
X147310094Y-94718071D01*
X147261713Y-94548738D02*
X147261713Y-94234262D01*
X147261713Y-94234262D02*
X147455237Y-94403595D01*
X147455237Y-94403595D02*
X147455237Y-94331024D01*
X147455237Y-94331024D02*
X147479427Y-94282643D01*
X147479427Y-94282643D02*
X147503618Y-94258452D01*
X147503618Y-94258452D02*
X147551999Y-94234262D01*
X147551999Y-94234262D02*
X147672951Y-94234262D01*
X147672951Y-94234262D02*
X147721332Y-94258452D01*
X147721332Y-94258452D02*
X147745523Y-94282643D01*
X147745523Y-94282643D02*
X147769713Y-94331024D01*
X147769713Y-94331024D02*
X147769713Y-94476167D01*
X147769713Y-94476167D02*
X147745523Y-94524548D01*
X147745523Y-94524548D02*
X147721332Y-94548738D01*
X147769713Y-93750452D02*
X147769713Y-94040738D01*
X147769713Y-93895595D02*
X147261713Y-93895595D01*
X147261713Y-93895595D02*
X147334284Y-93943976D01*
X147334284Y-93943976D02*
X147382665Y-93992357D01*
X147382665Y-93992357D02*
X147406856Y-94040738D01*
X163137308Y-94795409D02*
X163379213Y-94795409D01*
X162871213Y-94964743D02*
X163137308Y-94795409D01*
X163137308Y-94795409D02*
X162871213Y-94626076D01*
X163379213Y-94190647D02*
X163379213Y-94480933D01*
X163379213Y-94335790D02*
X162871213Y-94335790D01*
X162871213Y-94335790D02*
X162943784Y-94384171D01*
X162943784Y-94384171D02*
X162992165Y-94432552D01*
X162992165Y-94432552D02*
X163016356Y-94480933D01*
X136974504Y-107403763D02*
X136940293Y-107403763D01*
X136940293Y-107403763D02*
X136871872Y-107369553D01*
X136871872Y-107369553D02*
X136837662Y-107335342D01*
X136837662Y-107335342D02*
X136803451Y-107266921D01*
X136803451Y-107266921D02*
X136803451Y-107198500D01*
X136803451Y-107198500D02*
X136820557Y-107147184D01*
X136820557Y-107147184D02*
X136871872Y-107061658D01*
X136871872Y-107061658D02*
X136923188Y-107010342D01*
X136923188Y-107010342D02*
X137008714Y-106959027D01*
X137008714Y-106959027D02*
X137060030Y-106941921D01*
X137060030Y-106941921D02*
X137128451Y-106941921D01*
X137128451Y-106941921D02*
X137196872Y-106976132D01*
X137196872Y-106976132D02*
X137231083Y-107010342D01*
X137231083Y-107010342D02*
X137265293Y-107078763D01*
X137265293Y-107078763D02*
X137265293Y-107112974D01*
X137419240Y-107198500D02*
X137658714Y-107437974D01*
X137658714Y-107437974D02*
X137145556Y-107643237D01*
X150019713Y-90218072D02*
X149777808Y-90387406D01*
X150019713Y-90508358D02*
X149511713Y-90508358D01*
X149511713Y-90508358D02*
X149511713Y-90314834D01*
X149511713Y-90314834D02*
X149535903Y-90266453D01*
X149535903Y-90266453D02*
X149560094Y-90242263D01*
X149560094Y-90242263D02*
X149608475Y-90218072D01*
X149608475Y-90218072D02*
X149681046Y-90218072D01*
X149681046Y-90218072D02*
X149729427Y-90242263D01*
X149729427Y-90242263D02*
X149753618Y-90266453D01*
X149753618Y-90266453D02*
X149777808Y-90314834D01*
X149777808Y-90314834D02*
X149777808Y-90508358D01*
X150019713Y-89734263D02*
X150019713Y-90024549D01*
X150019713Y-89879406D02*
X149511713Y-89879406D01*
X149511713Y-89879406D02*
X149584284Y-89927787D01*
X149584284Y-89927787D02*
X149632665Y-89976168D01*
X149632665Y-89976168D02*
X149656856Y-90024549D01*
X149681046Y-89298834D02*
X150019713Y-89298834D01*
X149487523Y-89419786D02*
X149850380Y-89540739D01*
X149850380Y-89540739D02*
X149850380Y-89226262D01*
X143003338Y-97606207D02*
X142834004Y-97364302D01*
X142713052Y-97606207D02*
X142713052Y-97098207D01*
X142713052Y-97098207D02*
X142906576Y-97098207D01*
X142906576Y-97098207D02*
X142954957Y-97122397D01*
X142954957Y-97122397D02*
X142979147Y-97146588D01*
X142979147Y-97146588D02*
X143003338Y-97194969D01*
X143003338Y-97194969D02*
X143003338Y-97267540D01*
X143003338Y-97267540D02*
X142979147Y-97315921D01*
X142979147Y-97315921D02*
X142954957Y-97340112D01*
X142954957Y-97340112D02*
X142906576Y-97364302D01*
X142906576Y-97364302D02*
X142713052Y-97364302D01*
X143172671Y-97098207D02*
X143511338Y-97098207D01*
X143511338Y-97098207D02*
X143293623Y-97606207D01*
X144913052Y-94049213D02*
X144913052Y-93541213D01*
X144913052Y-93541213D02*
X145034004Y-93541213D01*
X145034004Y-93541213D02*
X145106576Y-93565403D01*
X145106576Y-93565403D02*
X145154957Y-93613784D01*
X145154957Y-93613784D02*
X145179147Y-93662165D01*
X145179147Y-93662165D02*
X145203338Y-93758927D01*
X145203338Y-93758927D02*
X145203338Y-93831499D01*
X145203338Y-93831499D02*
X145179147Y-93928261D01*
X145179147Y-93928261D02*
X145154957Y-93976642D01*
X145154957Y-93976642D02*
X145106576Y-94025023D01*
X145106576Y-94025023D02*
X145034004Y-94049213D01*
X145034004Y-94049213D02*
X144913052Y-94049213D01*
X145687147Y-94049213D02*
X145396861Y-94049213D01*
X145542004Y-94049213D02*
X145542004Y-93541213D01*
X145542004Y-93541213D02*
X145493623Y-93613784D01*
X145493623Y-93613784D02*
X145445242Y-93662165D01*
X145445242Y-93662165D02*
X145396861Y-93686356D01*
X147649832Y-82504074D02*
X147674023Y-82528265D01*
X147674023Y-82528265D02*
X147698213Y-82600836D01*
X147698213Y-82600836D02*
X147698213Y-82649217D01*
X147698213Y-82649217D02*
X147674023Y-82721789D01*
X147674023Y-82721789D02*
X147625642Y-82770170D01*
X147625642Y-82770170D02*
X147577261Y-82794360D01*
X147577261Y-82794360D02*
X147480499Y-82818551D01*
X147480499Y-82818551D02*
X147407927Y-82818551D01*
X147407927Y-82818551D02*
X147311165Y-82794360D01*
X147311165Y-82794360D02*
X147262784Y-82770170D01*
X147262784Y-82770170D02*
X147214403Y-82721789D01*
X147214403Y-82721789D02*
X147190213Y-82649217D01*
X147190213Y-82649217D02*
X147190213Y-82600836D01*
X147190213Y-82600836D02*
X147214403Y-82528265D01*
X147214403Y-82528265D02*
X147238594Y-82504074D01*
X147698213Y-82020265D02*
X147698213Y-82310551D01*
X147698213Y-82165408D02*
X147190213Y-82165408D01*
X147190213Y-82165408D02*
X147262784Y-82213789D01*
X147262784Y-82213789D02*
X147311165Y-82262170D01*
X147311165Y-82262170D02*
X147335356Y-82310551D01*
X147190213Y-81584836D02*
X147190213Y-81681598D01*
X147190213Y-81681598D02*
X147214403Y-81729979D01*
X147214403Y-81729979D02*
X147238594Y-81754169D01*
X147238594Y-81754169D02*
X147311165Y-81802550D01*
X147311165Y-81802550D02*
X147407927Y-81826741D01*
X147407927Y-81826741D02*
X147601451Y-81826741D01*
X147601451Y-81826741D02*
X147649832Y-81802550D01*
X147649832Y-81802550D02*
X147674023Y-81778360D01*
X147674023Y-81778360D02*
X147698213Y-81729979D01*
X147698213Y-81729979D02*
X147698213Y-81633217D01*
X147698213Y-81633217D02*
X147674023Y-81584836D01*
X147674023Y-81584836D02*
X147649832Y-81560645D01*
X147649832Y-81560645D02*
X147601451Y-81536455D01*
X147601451Y-81536455D02*
X147480499Y-81536455D01*
X147480499Y-81536455D02*
X147432118Y-81560645D01*
X147432118Y-81560645D02*
X147407927Y-81584836D01*
X147407927Y-81584836D02*
X147383737Y-81633217D01*
X147383737Y-81633217D02*
X147383737Y-81729979D01*
X147383737Y-81729979D02*
X147407927Y-81778360D01*
X147407927Y-81778360D02*
X147432118Y-81802550D01*
X147432118Y-81802550D02*
X147480499Y-81826741D01*
X139709688Y-108922448D02*
X139418899Y-109213237D01*
X139418899Y-109213237D02*
X139401794Y-109264553D01*
X139401794Y-109264553D02*
X139401794Y-109298763D01*
X139401794Y-109298763D02*
X139418899Y-109350079D01*
X139418899Y-109350079D02*
X139487320Y-109418500D01*
X139487320Y-109418500D02*
X139538636Y-109435605D01*
X139538636Y-109435605D02*
X139572846Y-109435605D01*
X139572846Y-109435605D02*
X139624162Y-109418500D01*
X139624162Y-109418500D02*
X139914951Y-109127711D01*
X140034688Y-109315868D02*
X140068898Y-109315868D01*
X140068898Y-109315868D02*
X140120214Y-109332974D01*
X140120214Y-109332974D02*
X140205740Y-109418500D01*
X140205740Y-109418500D02*
X140222845Y-109469816D01*
X140222845Y-109469816D02*
X140222845Y-109504026D01*
X140222845Y-109504026D02*
X140205740Y-109555342D01*
X140205740Y-109555342D02*
X140171530Y-109589552D01*
X140171530Y-109589552D02*
X140103109Y-109623763D01*
X140103109Y-109623763D02*
X139692583Y-109623763D01*
X139692583Y-109623763D02*
X139914951Y-109846131D01*
X179011713Y-110302739D02*
X179374570Y-110302739D01*
X179374570Y-110302739D02*
X179447142Y-110326930D01*
X179447142Y-110326930D02*
X179495523Y-110375311D01*
X179495523Y-110375311D02*
X179519713Y-110447882D01*
X179519713Y-110447882D02*
X179519713Y-110496263D01*
X179519713Y-109794739D02*
X179519713Y-110085025D01*
X179519713Y-109939882D02*
X179011713Y-109939882D01*
X179011713Y-109939882D02*
X179084284Y-109988263D01*
X179084284Y-109988263D02*
X179132665Y-110036644D01*
X179132665Y-110036644D02*
X179156856Y-110085025D01*
X179011713Y-109335119D02*
X179011713Y-109577024D01*
X179011713Y-109577024D02*
X179253618Y-109601215D01*
X179253618Y-109601215D02*
X179229427Y-109577024D01*
X179229427Y-109577024D02*
X179205237Y-109528643D01*
X179205237Y-109528643D02*
X179205237Y-109407691D01*
X179205237Y-109407691D02*
X179229427Y-109359310D01*
X179229427Y-109359310D02*
X179253618Y-109335119D01*
X179253618Y-109335119D02*
X179301999Y-109310929D01*
X179301999Y-109310929D02*
X179422951Y-109310929D01*
X179422951Y-109310929D02*
X179471332Y-109335119D01*
X179471332Y-109335119D02*
X179495523Y-109359310D01*
X179495523Y-109359310D02*
X179519713Y-109407691D01*
X179519713Y-109407691D02*
X179519713Y-109528643D01*
X179519713Y-109528643D02*
X179495523Y-109577024D01*
X179495523Y-109577024D02*
X179471332Y-109601215D01*
X143511433Y-98557826D02*
X143487242Y-98582017D01*
X143487242Y-98582017D02*
X143414671Y-98606207D01*
X143414671Y-98606207D02*
X143366290Y-98606207D01*
X143366290Y-98606207D02*
X143293718Y-98582017D01*
X143293718Y-98582017D02*
X143245337Y-98533636D01*
X143245337Y-98533636D02*
X143221147Y-98485255D01*
X143221147Y-98485255D02*
X143196956Y-98388493D01*
X143196956Y-98388493D02*
X143196956Y-98315921D01*
X143196956Y-98315921D02*
X143221147Y-98219159D01*
X143221147Y-98219159D02*
X143245337Y-98170778D01*
X143245337Y-98170778D02*
X143293718Y-98122397D01*
X143293718Y-98122397D02*
X143366290Y-98098207D01*
X143366290Y-98098207D02*
X143414671Y-98098207D01*
X143414671Y-98098207D02*
X143487242Y-98122397D01*
X143487242Y-98122397D02*
X143511433Y-98146588D01*
X143704956Y-98146588D02*
X143729147Y-98122397D01*
X143729147Y-98122397D02*
X143777528Y-98098207D01*
X143777528Y-98098207D02*
X143898480Y-98098207D01*
X143898480Y-98098207D02*
X143946861Y-98122397D01*
X143946861Y-98122397D02*
X143971052Y-98146588D01*
X143971052Y-98146588D02*
X143995242Y-98194969D01*
X143995242Y-98194969D02*
X143995242Y-98243350D01*
X143995242Y-98243350D02*
X143971052Y-98315921D01*
X143971052Y-98315921D02*
X143680766Y-98606207D01*
X143680766Y-98606207D02*
X143995242Y-98606207D01*
X144454862Y-98098207D02*
X144212957Y-98098207D01*
X144212957Y-98098207D02*
X144188766Y-98340112D01*
X144188766Y-98340112D02*
X144212957Y-98315921D01*
X144212957Y-98315921D02*
X144261338Y-98291731D01*
X144261338Y-98291731D02*
X144382290Y-98291731D01*
X144382290Y-98291731D02*
X144430671Y-98315921D01*
X144430671Y-98315921D02*
X144454862Y-98340112D01*
X144454862Y-98340112D02*
X144479052Y-98388493D01*
X144479052Y-98388493D02*
X144479052Y-98509445D01*
X144479052Y-98509445D02*
X144454862Y-98557826D01*
X144454862Y-98557826D02*
X144430671Y-98582017D01*
X144430671Y-98582017D02*
X144382290Y-98606207D01*
X144382290Y-98606207D02*
X144261338Y-98606207D01*
X144261338Y-98606207D02*
X144212957Y-98582017D01*
X144212957Y-98582017D02*
X144188766Y-98557826D01*
X147539713Y-98778547D02*
X147950951Y-98778547D01*
X147950951Y-98778547D02*
X147999332Y-98754357D01*
X147999332Y-98754357D02*
X148023523Y-98730166D01*
X148023523Y-98730166D02*
X148047713Y-98681785D01*
X148047713Y-98681785D02*
X148047713Y-98585023D01*
X148047713Y-98585023D02*
X148023523Y-98536642D01*
X148023523Y-98536642D02*
X147999332Y-98512452D01*
X147999332Y-98512452D02*
X147950951Y-98488261D01*
X147950951Y-98488261D02*
X147539713Y-98488261D01*
X147709046Y-98028643D02*
X148047713Y-98028643D01*
X147515523Y-98149595D02*
X147878380Y-98270548D01*
X147878380Y-98270548D02*
X147878380Y-97956071D01*
X175395833Y-95595167D02*
X175420024Y-95619358D01*
X175420024Y-95619358D02*
X175444214Y-95691929D01*
X175444214Y-95691929D02*
X175444214Y-95740310D01*
X175444214Y-95740310D02*
X175420024Y-95812882D01*
X175420024Y-95812882D02*
X175371643Y-95861263D01*
X175371643Y-95861263D02*
X175323262Y-95885453D01*
X175323262Y-95885453D02*
X175226500Y-95909644D01*
X175226500Y-95909644D02*
X175153928Y-95909644D01*
X175153928Y-95909644D02*
X175057166Y-95885453D01*
X175057166Y-95885453D02*
X175008785Y-95861263D01*
X175008785Y-95861263D02*
X174960404Y-95812882D01*
X174960404Y-95812882D02*
X174936214Y-95740310D01*
X174936214Y-95740310D02*
X174936214Y-95691929D01*
X174936214Y-95691929D02*
X174960404Y-95619358D01*
X174960404Y-95619358D02*
X174984595Y-95595167D01*
X175105547Y-95159739D02*
X175444214Y-95159739D01*
X174912024Y-95280691D02*
X175274881Y-95401644D01*
X175274881Y-95401644D02*
X175274881Y-95087167D01*
X162508120Y-96575673D02*
X162338786Y-96333768D01*
X162217834Y-96575673D02*
X162217834Y-96067673D01*
X162217834Y-96067673D02*
X162411358Y-96067673D01*
X162411358Y-96067673D02*
X162459739Y-96091863D01*
X162459739Y-96091863D02*
X162483929Y-96116054D01*
X162483929Y-96116054D02*
X162508120Y-96164435D01*
X162508120Y-96164435D02*
X162508120Y-96237006D01*
X162508120Y-96237006D02*
X162483929Y-96285387D01*
X162483929Y-96285387D02*
X162459739Y-96309578D01*
X162459739Y-96309578D02*
X162411358Y-96333768D01*
X162411358Y-96333768D02*
X162217834Y-96333768D01*
X162991929Y-96575673D02*
X162701643Y-96575673D01*
X162846786Y-96575673D02*
X162846786Y-96067673D01*
X162846786Y-96067673D02*
X162798405Y-96140244D01*
X162798405Y-96140244D02*
X162750024Y-96188625D01*
X162750024Y-96188625D02*
X162701643Y-96212816D01*
X163451549Y-96067673D02*
X163209644Y-96067673D01*
X163209644Y-96067673D02*
X163185453Y-96309578D01*
X163185453Y-96309578D02*
X163209644Y-96285387D01*
X163209644Y-96285387D02*
X163258025Y-96261197D01*
X163258025Y-96261197D02*
X163378977Y-96261197D01*
X163378977Y-96261197D02*
X163427358Y-96285387D01*
X163427358Y-96285387D02*
X163451549Y-96309578D01*
X163451549Y-96309578D02*
X163475739Y-96357959D01*
X163475739Y-96357959D02*
X163475739Y-96478911D01*
X163475739Y-96478911D02*
X163451549Y-96527292D01*
X163451549Y-96527292D02*
X163427358Y-96551483D01*
X163427358Y-96551483D02*
X163378977Y-96575673D01*
X163378977Y-96575673D02*
X163258025Y-96575673D01*
X163258025Y-96575673D02*
X163209644Y-96551483D01*
X163209644Y-96551483D02*
X163185453Y-96527292D01*
X151961432Y-93373208D02*
X151792098Y-93131303D01*
X151671146Y-93373208D02*
X151671146Y-92865208D01*
X151671146Y-92865208D02*
X151864670Y-92865208D01*
X151864670Y-92865208D02*
X151913051Y-92889398D01*
X151913051Y-92889398D02*
X151937241Y-92913589D01*
X151937241Y-92913589D02*
X151961432Y-92961970D01*
X151961432Y-92961970D02*
X151961432Y-93034541D01*
X151961432Y-93034541D02*
X151937241Y-93082922D01*
X151937241Y-93082922D02*
X151913051Y-93107113D01*
X151913051Y-93107113D02*
X151864670Y-93131303D01*
X151864670Y-93131303D02*
X151671146Y-93131303D01*
X152445241Y-93373208D02*
X152154955Y-93373208D01*
X152300098Y-93373208D02*
X152300098Y-92865208D01*
X152300098Y-92865208D02*
X152251717Y-92937779D01*
X152251717Y-92937779D02*
X152203336Y-92986160D01*
X152203336Y-92986160D02*
X152154955Y-93010351D01*
X152687146Y-93373208D02*
X152783908Y-93373208D01*
X152783908Y-93373208D02*
X152832289Y-93349018D01*
X152832289Y-93349018D02*
X152856480Y-93324827D01*
X152856480Y-93324827D02*
X152904861Y-93252256D01*
X152904861Y-93252256D02*
X152929051Y-93155494D01*
X152929051Y-93155494D02*
X152929051Y-92961970D01*
X152929051Y-92961970D02*
X152904861Y-92913589D01*
X152904861Y-92913589D02*
X152880670Y-92889398D01*
X152880670Y-92889398D02*
X152832289Y-92865208D01*
X152832289Y-92865208D02*
X152735527Y-92865208D01*
X152735527Y-92865208D02*
X152687146Y-92889398D01*
X152687146Y-92889398D02*
X152662956Y-92913589D01*
X152662956Y-92913589D02*
X152638765Y-92961970D01*
X152638765Y-92961970D02*
X152638765Y-93082922D01*
X152638765Y-93082922D02*
X152662956Y-93131303D01*
X152662956Y-93131303D02*
X152687146Y-93155494D01*
X152687146Y-93155494D02*
X152735527Y-93179684D01*
X152735527Y-93179684D02*
X152832289Y-93179684D01*
X152832289Y-93179684D02*
X152880670Y-93155494D01*
X152880670Y-93155494D02*
X152904861Y-93131303D01*
X152904861Y-93131303D02*
X152929051Y-93082922D01*
X184489141Y-102886148D02*
X184489141Y-103249005D01*
X184489141Y-103249005D02*
X184464950Y-103321577D01*
X184464950Y-103321577D02*
X184416569Y-103369958D01*
X184416569Y-103369958D02*
X184343998Y-103394148D01*
X184343998Y-103394148D02*
X184295617Y-103394148D01*
X184706855Y-102934529D02*
X184731046Y-102910338D01*
X184731046Y-102910338D02*
X184779427Y-102886148D01*
X184779427Y-102886148D02*
X184900379Y-102886148D01*
X184900379Y-102886148D02*
X184948760Y-102910338D01*
X184948760Y-102910338D02*
X184972951Y-102934529D01*
X184972951Y-102934529D02*
X184997141Y-102982910D01*
X184997141Y-102982910D02*
X184997141Y-103031291D01*
X184997141Y-103031291D02*
X184972951Y-103103862D01*
X184972951Y-103103862D02*
X184682665Y-103394148D01*
X184682665Y-103394148D02*
X184997141Y-103394148D01*
X139141713Y-114414834D02*
X139504570Y-114414834D01*
X139504570Y-114414834D02*
X139577142Y-114439025D01*
X139577142Y-114439025D02*
X139625523Y-114487406D01*
X139625523Y-114487406D02*
X139649713Y-114559977D01*
X139649713Y-114559977D02*
X139649713Y-114608358D01*
X139359427Y-114100358D02*
X139335237Y-114148739D01*
X139335237Y-114148739D02*
X139311046Y-114172929D01*
X139311046Y-114172929D02*
X139262665Y-114197120D01*
X139262665Y-114197120D02*
X139238475Y-114197120D01*
X139238475Y-114197120D02*
X139190094Y-114172929D01*
X139190094Y-114172929D02*
X139165903Y-114148739D01*
X139165903Y-114148739D02*
X139141713Y-114100358D01*
X139141713Y-114100358D02*
X139141713Y-114003596D01*
X139141713Y-114003596D02*
X139165903Y-113955215D01*
X139165903Y-113955215D02*
X139190094Y-113931024D01*
X139190094Y-113931024D02*
X139238475Y-113906834D01*
X139238475Y-113906834D02*
X139262665Y-113906834D01*
X139262665Y-113906834D02*
X139311046Y-113931024D01*
X139311046Y-113931024D02*
X139335237Y-113955215D01*
X139335237Y-113955215D02*
X139359427Y-114003596D01*
X139359427Y-114003596D02*
X139359427Y-114100358D01*
X139359427Y-114100358D02*
X139383618Y-114148739D01*
X139383618Y-114148739D02*
X139407808Y-114172929D01*
X139407808Y-114172929D02*
X139456189Y-114197120D01*
X139456189Y-114197120D02*
X139552951Y-114197120D01*
X139552951Y-114197120D02*
X139601332Y-114172929D01*
X139601332Y-114172929D02*
X139625523Y-114148739D01*
X139625523Y-114148739D02*
X139649713Y-114100358D01*
X139649713Y-114100358D02*
X139649713Y-114003596D01*
X139649713Y-114003596D02*
X139625523Y-113955215D01*
X139625523Y-113955215D02*
X139601332Y-113931024D01*
X139601332Y-113931024D02*
X139552951Y-113906834D01*
X139552951Y-113906834D02*
X139456189Y-113906834D01*
X139456189Y-113906834D02*
X139407808Y-113931024D01*
X139407808Y-113931024D02*
X139383618Y-113955215D01*
X139383618Y-113955215D02*
X139359427Y-114003596D01*
X159457332Y-91762070D02*
X159481523Y-91786261D01*
X159481523Y-91786261D02*
X159505713Y-91858832D01*
X159505713Y-91858832D02*
X159505713Y-91907213D01*
X159505713Y-91907213D02*
X159481523Y-91979785D01*
X159481523Y-91979785D02*
X159433142Y-92028166D01*
X159433142Y-92028166D02*
X159384761Y-92052356D01*
X159384761Y-92052356D02*
X159287999Y-92076547D01*
X159287999Y-92076547D02*
X159215427Y-92076547D01*
X159215427Y-92076547D02*
X159118665Y-92052356D01*
X159118665Y-92052356D02*
X159070284Y-92028166D01*
X159070284Y-92028166D02*
X159021903Y-91979785D01*
X159021903Y-91979785D02*
X158997713Y-91907213D01*
X158997713Y-91907213D02*
X158997713Y-91858832D01*
X158997713Y-91858832D02*
X159021903Y-91786261D01*
X159021903Y-91786261D02*
X159046094Y-91762070D01*
X158997713Y-91592737D02*
X158997713Y-91278261D01*
X158997713Y-91278261D02*
X159191237Y-91447594D01*
X159191237Y-91447594D02*
X159191237Y-91375023D01*
X159191237Y-91375023D02*
X159215427Y-91326642D01*
X159215427Y-91326642D02*
X159239618Y-91302451D01*
X159239618Y-91302451D02*
X159287999Y-91278261D01*
X159287999Y-91278261D02*
X159408951Y-91278261D01*
X159408951Y-91278261D02*
X159457332Y-91302451D01*
X159457332Y-91302451D02*
X159481523Y-91326642D01*
X159481523Y-91326642D02*
X159505713Y-91375023D01*
X159505713Y-91375023D02*
X159505713Y-91520166D01*
X159505713Y-91520166D02*
X159481523Y-91568547D01*
X159481523Y-91568547D02*
X159457332Y-91592737D01*
X159215427Y-90987975D02*
X159191237Y-91036356D01*
X159191237Y-91036356D02*
X159167046Y-91060546D01*
X159167046Y-91060546D02*
X159118665Y-91084737D01*
X159118665Y-91084737D02*
X159094475Y-91084737D01*
X159094475Y-91084737D02*
X159046094Y-91060546D01*
X159046094Y-91060546D02*
X159021903Y-91036356D01*
X159021903Y-91036356D02*
X158997713Y-90987975D01*
X158997713Y-90987975D02*
X158997713Y-90891213D01*
X158997713Y-90891213D02*
X159021903Y-90842832D01*
X159021903Y-90842832D02*
X159046094Y-90818641D01*
X159046094Y-90818641D02*
X159094475Y-90794451D01*
X159094475Y-90794451D02*
X159118665Y-90794451D01*
X159118665Y-90794451D02*
X159167046Y-90818641D01*
X159167046Y-90818641D02*
X159191237Y-90842832D01*
X159191237Y-90842832D02*
X159215427Y-90891213D01*
X159215427Y-90891213D02*
X159215427Y-90987975D01*
X159215427Y-90987975D02*
X159239618Y-91036356D01*
X159239618Y-91036356D02*
X159263808Y-91060546D01*
X159263808Y-91060546D02*
X159312189Y-91084737D01*
X159312189Y-91084737D02*
X159408951Y-91084737D01*
X159408951Y-91084737D02*
X159457332Y-91060546D01*
X159457332Y-91060546D02*
X159481523Y-91036356D01*
X159481523Y-91036356D02*
X159505713Y-90987975D01*
X159505713Y-90987975D02*
X159505713Y-90891213D01*
X159505713Y-90891213D02*
X159481523Y-90842832D01*
X159481523Y-90842832D02*
X159457332Y-90818641D01*
X159457332Y-90818641D02*
X159408951Y-90794451D01*
X159408951Y-90794451D02*
X159312189Y-90794451D01*
X159312189Y-90794451D02*
X159263808Y-90818641D01*
X159263808Y-90818641D02*
X159239618Y-90842832D01*
X159239618Y-90842832D02*
X159215427Y-90891213D01*
X178805339Y-97403833D02*
X178781148Y-97428024D01*
X178781148Y-97428024D02*
X178708577Y-97452214D01*
X178708577Y-97452214D02*
X178660196Y-97452214D01*
X178660196Y-97452214D02*
X178587624Y-97428024D01*
X178587624Y-97428024D02*
X178539243Y-97379643D01*
X178539243Y-97379643D02*
X178515053Y-97331262D01*
X178515053Y-97331262D02*
X178490862Y-97234500D01*
X178490862Y-97234500D02*
X178490862Y-97161928D01*
X178490862Y-97161928D02*
X178515053Y-97065166D01*
X178515053Y-97065166D02*
X178539243Y-97016785D01*
X178539243Y-97016785D02*
X178587624Y-96968404D01*
X178587624Y-96968404D02*
X178660196Y-96944214D01*
X178660196Y-96944214D02*
X178708577Y-96944214D01*
X178708577Y-96944214D02*
X178781148Y-96968404D01*
X178781148Y-96968404D02*
X178805339Y-96992595D01*
X178974672Y-96944214D02*
X179289148Y-96944214D01*
X179289148Y-96944214D02*
X179119815Y-97137738D01*
X179119815Y-97137738D02*
X179192386Y-97137738D01*
X179192386Y-97137738D02*
X179240767Y-97161928D01*
X179240767Y-97161928D02*
X179264958Y-97186119D01*
X179264958Y-97186119D02*
X179289148Y-97234500D01*
X179289148Y-97234500D02*
X179289148Y-97355452D01*
X179289148Y-97355452D02*
X179264958Y-97403833D01*
X179264958Y-97403833D02*
X179240767Y-97428024D01*
X179240767Y-97428024D02*
X179192386Y-97452214D01*
X179192386Y-97452214D02*
X179047243Y-97452214D01*
X179047243Y-97452214D02*
X178998862Y-97428024D01*
X178998862Y-97428024D02*
X178974672Y-97403833D01*
X167394833Y-92987171D02*
X167419024Y-93011362D01*
X167419024Y-93011362D02*
X167443214Y-93083933D01*
X167443214Y-93083933D02*
X167443214Y-93132314D01*
X167443214Y-93132314D02*
X167419024Y-93204886D01*
X167419024Y-93204886D02*
X167370643Y-93253267D01*
X167370643Y-93253267D02*
X167322262Y-93277457D01*
X167322262Y-93277457D02*
X167225500Y-93301648D01*
X167225500Y-93301648D02*
X167152928Y-93301648D01*
X167152928Y-93301648D02*
X167056166Y-93277457D01*
X167056166Y-93277457D02*
X167007785Y-93253267D01*
X167007785Y-93253267D02*
X166959404Y-93204886D01*
X166959404Y-93204886D02*
X166935214Y-93132314D01*
X166935214Y-93132314D02*
X166935214Y-93083933D01*
X166935214Y-93083933D02*
X166959404Y-93011362D01*
X166959404Y-93011362D02*
X166983595Y-92987171D01*
X166935214Y-92551743D02*
X166935214Y-92648505D01*
X166935214Y-92648505D02*
X166959404Y-92696886D01*
X166959404Y-92696886D02*
X166983595Y-92721076D01*
X166983595Y-92721076D02*
X167056166Y-92769457D01*
X167056166Y-92769457D02*
X167152928Y-92793648D01*
X167152928Y-92793648D02*
X167346452Y-92793648D01*
X167346452Y-92793648D02*
X167394833Y-92769457D01*
X167394833Y-92769457D02*
X167419024Y-92745267D01*
X167419024Y-92745267D02*
X167443214Y-92696886D01*
X167443214Y-92696886D02*
X167443214Y-92600124D01*
X167443214Y-92600124D02*
X167419024Y-92551743D01*
X167419024Y-92551743D02*
X167394833Y-92527552D01*
X167394833Y-92527552D02*
X167346452Y-92503362D01*
X167346452Y-92503362D02*
X167225500Y-92503362D01*
X167225500Y-92503362D02*
X167177119Y-92527552D01*
X167177119Y-92527552D02*
X167152928Y-92551743D01*
X167152928Y-92551743D02*
X167128738Y-92600124D01*
X167128738Y-92600124D02*
X167128738Y-92696886D01*
X167128738Y-92696886D02*
X167152928Y-92745267D01*
X167152928Y-92745267D02*
X167177119Y-92769457D01*
X167177119Y-92769457D02*
X167225500Y-92793648D01*
X164761712Y-91778547D02*
X165172950Y-91778547D01*
X165172950Y-91778547D02*
X165221331Y-91754357D01*
X165221331Y-91754357D02*
X165245522Y-91730166D01*
X165245522Y-91730166D02*
X165269712Y-91681785D01*
X165269712Y-91681785D02*
X165269712Y-91585023D01*
X165269712Y-91585023D02*
X165245522Y-91536642D01*
X165245522Y-91536642D02*
X165221331Y-91512452D01*
X165221331Y-91512452D02*
X165172950Y-91488261D01*
X165172950Y-91488261D02*
X164761712Y-91488261D01*
X164761712Y-91004452D02*
X164761712Y-91246357D01*
X164761712Y-91246357D02*
X165003617Y-91270548D01*
X165003617Y-91270548D02*
X164979426Y-91246357D01*
X164979426Y-91246357D02*
X164955236Y-91197976D01*
X164955236Y-91197976D02*
X164955236Y-91077024D01*
X164955236Y-91077024D02*
X164979426Y-91028643D01*
X164979426Y-91028643D02*
X165003617Y-91004452D01*
X165003617Y-91004452D02*
X165051998Y-90980262D01*
X165051998Y-90980262D02*
X165172950Y-90980262D01*
X165172950Y-90980262D02*
X165221331Y-91004452D01*
X165221331Y-91004452D02*
X165245522Y-91028643D01*
X165245522Y-91028643D02*
X165269712Y-91077024D01*
X165269712Y-91077024D02*
X165269712Y-91197976D01*
X165269712Y-91197976D02*
X165245522Y-91246357D01*
X165245522Y-91246357D02*
X165221331Y-91270548D01*
X148961433Y-92074826D02*
X148937242Y-92099017D01*
X148937242Y-92099017D02*
X148864671Y-92123207D01*
X148864671Y-92123207D02*
X148816290Y-92123207D01*
X148816290Y-92123207D02*
X148743718Y-92099017D01*
X148743718Y-92099017D02*
X148695337Y-92050636D01*
X148695337Y-92050636D02*
X148671147Y-92002255D01*
X148671147Y-92002255D02*
X148646956Y-91905493D01*
X148646956Y-91905493D02*
X148646956Y-91832921D01*
X148646956Y-91832921D02*
X148671147Y-91736159D01*
X148671147Y-91736159D02*
X148695337Y-91687778D01*
X148695337Y-91687778D02*
X148743718Y-91639397D01*
X148743718Y-91639397D02*
X148816290Y-91615207D01*
X148816290Y-91615207D02*
X148864671Y-91615207D01*
X148864671Y-91615207D02*
X148937242Y-91639397D01*
X148937242Y-91639397D02*
X148961433Y-91663588D01*
X149154956Y-91663588D02*
X149179147Y-91639397D01*
X149179147Y-91639397D02*
X149227528Y-91615207D01*
X149227528Y-91615207D02*
X149348480Y-91615207D01*
X149348480Y-91615207D02*
X149396861Y-91639397D01*
X149396861Y-91639397D02*
X149421052Y-91663588D01*
X149421052Y-91663588D02*
X149445242Y-91711969D01*
X149445242Y-91711969D02*
X149445242Y-91760350D01*
X149445242Y-91760350D02*
X149421052Y-91832921D01*
X149421052Y-91832921D02*
X149130766Y-92123207D01*
X149130766Y-92123207D02*
X149445242Y-92123207D01*
X149638766Y-91663588D02*
X149662957Y-91639397D01*
X149662957Y-91639397D02*
X149711338Y-91615207D01*
X149711338Y-91615207D02*
X149832290Y-91615207D01*
X149832290Y-91615207D02*
X149880671Y-91639397D01*
X149880671Y-91639397D02*
X149904862Y-91663588D01*
X149904862Y-91663588D02*
X149929052Y-91711969D01*
X149929052Y-91711969D02*
X149929052Y-91760350D01*
X149929052Y-91760350D02*
X149904862Y-91832921D01*
X149904862Y-91832921D02*
X149614576Y-92123207D01*
X149614576Y-92123207D02*
X149929052Y-92123207D01*
X156769713Y-93218071D02*
X156527808Y-93387405D01*
X156769713Y-93508357D02*
X156261713Y-93508357D01*
X156261713Y-93508357D02*
X156261713Y-93314833D01*
X156261713Y-93314833D02*
X156285903Y-93266452D01*
X156285903Y-93266452D02*
X156310094Y-93242262D01*
X156310094Y-93242262D02*
X156358475Y-93218071D01*
X156358475Y-93218071D02*
X156431046Y-93218071D01*
X156431046Y-93218071D02*
X156479427Y-93242262D01*
X156479427Y-93242262D02*
X156503618Y-93266452D01*
X156503618Y-93266452D02*
X156527808Y-93314833D01*
X156527808Y-93314833D02*
X156527808Y-93508357D01*
X156769713Y-92734262D02*
X156769713Y-93024548D01*
X156769713Y-92879405D02*
X156261713Y-92879405D01*
X156261713Y-92879405D02*
X156334284Y-92927786D01*
X156334284Y-92927786D02*
X156382665Y-92976167D01*
X156382665Y-92976167D02*
X156406856Y-93024548D01*
X156261713Y-92564928D02*
X156261713Y-92250452D01*
X156261713Y-92250452D02*
X156455237Y-92419785D01*
X156455237Y-92419785D02*
X156455237Y-92347214D01*
X156455237Y-92347214D02*
X156479427Y-92298833D01*
X156479427Y-92298833D02*
X156503618Y-92274642D01*
X156503618Y-92274642D02*
X156551999Y-92250452D01*
X156551999Y-92250452D02*
X156672951Y-92250452D01*
X156672951Y-92250452D02*
X156721332Y-92274642D01*
X156721332Y-92274642D02*
X156745523Y-92298833D01*
X156745523Y-92298833D02*
X156769713Y-92347214D01*
X156769713Y-92347214D02*
X156769713Y-92492357D01*
X156769713Y-92492357D02*
X156745523Y-92540738D01*
X156745523Y-92540738D02*
X156721332Y-92564928D01*
X162799039Y-97306398D02*
X162774848Y-97330589D01*
X162774848Y-97330589D02*
X162702277Y-97354779D01*
X162702277Y-97354779D02*
X162653896Y-97354779D01*
X162653896Y-97354779D02*
X162581324Y-97330589D01*
X162581324Y-97330589D02*
X162532943Y-97282208D01*
X162532943Y-97282208D02*
X162508753Y-97233827D01*
X162508753Y-97233827D02*
X162484562Y-97137065D01*
X162484562Y-97137065D02*
X162484562Y-97064493D01*
X162484562Y-97064493D02*
X162508753Y-96967731D01*
X162508753Y-96967731D02*
X162532943Y-96919350D01*
X162532943Y-96919350D02*
X162581324Y-96870969D01*
X162581324Y-96870969D02*
X162653896Y-96846779D01*
X162653896Y-96846779D02*
X162702277Y-96846779D01*
X162702277Y-96846779D02*
X162774848Y-96870969D01*
X162774848Y-96870969D02*
X162799039Y-96895160D01*
X163089324Y-97064493D02*
X163040943Y-97040303D01*
X163040943Y-97040303D02*
X163016753Y-97016112D01*
X163016753Y-97016112D02*
X162992562Y-96967731D01*
X162992562Y-96967731D02*
X162992562Y-96943541D01*
X162992562Y-96943541D02*
X163016753Y-96895160D01*
X163016753Y-96895160D02*
X163040943Y-96870969D01*
X163040943Y-96870969D02*
X163089324Y-96846779D01*
X163089324Y-96846779D02*
X163186086Y-96846779D01*
X163186086Y-96846779D02*
X163234467Y-96870969D01*
X163234467Y-96870969D02*
X163258658Y-96895160D01*
X163258658Y-96895160D02*
X163282848Y-96943541D01*
X163282848Y-96943541D02*
X163282848Y-96967731D01*
X163282848Y-96967731D02*
X163258658Y-97016112D01*
X163258658Y-97016112D02*
X163234467Y-97040303D01*
X163234467Y-97040303D02*
X163186086Y-97064493D01*
X163186086Y-97064493D02*
X163089324Y-97064493D01*
X163089324Y-97064493D02*
X163040943Y-97088684D01*
X163040943Y-97088684D02*
X163016753Y-97112874D01*
X163016753Y-97112874D02*
X162992562Y-97161255D01*
X162992562Y-97161255D02*
X162992562Y-97258017D01*
X162992562Y-97258017D02*
X163016753Y-97306398D01*
X163016753Y-97306398D02*
X163040943Y-97330589D01*
X163040943Y-97330589D02*
X163089324Y-97354779D01*
X163089324Y-97354779D02*
X163186086Y-97354779D01*
X163186086Y-97354779D02*
X163234467Y-97330589D01*
X163234467Y-97330589D02*
X163258658Y-97306398D01*
X163258658Y-97306398D02*
X163282848Y-97258017D01*
X163282848Y-97258017D02*
X163282848Y-97161255D01*
X163282848Y-97161255D02*
X163258658Y-97112874D01*
X163258658Y-97112874D02*
X163234467Y-97088684D01*
X163234467Y-97088684D02*
X163186086Y-97064493D01*
X142445713Y-94330167D02*
X142203808Y-94499501D01*
X142445713Y-94620453D02*
X141937713Y-94620453D01*
X141937713Y-94620453D02*
X141937713Y-94426929D01*
X141937713Y-94426929D02*
X141961903Y-94378548D01*
X141961903Y-94378548D02*
X141986094Y-94354358D01*
X141986094Y-94354358D02*
X142034475Y-94330167D01*
X142034475Y-94330167D02*
X142107046Y-94330167D01*
X142107046Y-94330167D02*
X142155427Y-94354358D01*
X142155427Y-94354358D02*
X142179618Y-94378548D01*
X142179618Y-94378548D02*
X142203808Y-94426929D01*
X142203808Y-94426929D02*
X142203808Y-94620453D01*
X141937713Y-94160834D02*
X141937713Y-93846358D01*
X141937713Y-93846358D02*
X142131237Y-94015691D01*
X142131237Y-94015691D02*
X142131237Y-93943120D01*
X142131237Y-93943120D02*
X142155427Y-93894739D01*
X142155427Y-93894739D02*
X142179618Y-93870548D01*
X142179618Y-93870548D02*
X142227999Y-93846358D01*
X142227999Y-93846358D02*
X142348951Y-93846358D01*
X142348951Y-93846358D02*
X142397332Y-93870548D01*
X142397332Y-93870548D02*
X142421523Y-93894739D01*
X142421523Y-93894739D02*
X142445713Y-93943120D01*
X142445713Y-93943120D02*
X142445713Y-94088263D01*
X142445713Y-94088263D02*
X142421523Y-94136644D01*
X142421523Y-94136644D02*
X142397332Y-94160834D01*
X158511433Y-96343463D02*
X158487242Y-96367654D01*
X158487242Y-96367654D02*
X158414671Y-96391844D01*
X158414671Y-96391844D02*
X158366290Y-96391844D01*
X158366290Y-96391844D02*
X158293718Y-96367654D01*
X158293718Y-96367654D02*
X158245337Y-96319273D01*
X158245337Y-96319273D02*
X158221147Y-96270892D01*
X158221147Y-96270892D02*
X158196956Y-96174130D01*
X158196956Y-96174130D02*
X158196956Y-96101558D01*
X158196956Y-96101558D02*
X158221147Y-96004796D01*
X158221147Y-96004796D02*
X158245337Y-95956415D01*
X158245337Y-95956415D02*
X158293718Y-95908034D01*
X158293718Y-95908034D02*
X158366290Y-95883844D01*
X158366290Y-95883844D02*
X158414671Y-95883844D01*
X158414671Y-95883844D02*
X158487242Y-95908034D01*
X158487242Y-95908034D02*
X158511433Y-95932225D01*
X158995242Y-96391844D02*
X158704956Y-96391844D01*
X158850099Y-96391844D02*
X158850099Y-95883844D01*
X158850099Y-95883844D02*
X158801718Y-95956415D01*
X158801718Y-95956415D02*
X158753337Y-96004796D01*
X158753337Y-96004796D02*
X158704956Y-96028987D01*
X159285528Y-96101558D02*
X159237147Y-96077368D01*
X159237147Y-96077368D02*
X159212957Y-96053177D01*
X159212957Y-96053177D02*
X159188766Y-96004796D01*
X159188766Y-96004796D02*
X159188766Y-95980606D01*
X159188766Y-95980606D02*
X159212957Y-95932225D01*
X159212957Y-95932225D02*
X159237147Y-95908034D01*
X159237147Y-95908034D02*
X159285528Y-95883844D01*
X159285528Y-95883844D02*
X159382290Y-95883844D01*
X159382290Y-95883844D02*
X159430671Y-95908034D01*
X159430671Y-95908034D02*
X159454862Y-95932225D01*
X159454862Y-95932225D02*
X159479052Y-95980606D01*
X159479052Y-95980606D02*
X159479052Y-96004796D01*
X159479052Y-96004796D02*
X159454862Y-96053177D01*
X159454862Y-96053177D02*
X159430671Y-96077368D01*
X159430671Y-96077368D02*
X159382290Y-96101558D01*
X159382290Y-96101558D02*
X159285528Y-96101558D01*
X159285528Y-96101558D02*
X159237147Y-96125749D01*
X159237147Y-96125749D02*
X159212957Y-96149939D01*
X159212957Y-96149939D02*
X159188766Y-96198320D01*
X159188766Y-96198320D02*
X159188766Y-96295082D01*
X159188766Y-96295082D02*
X159212957Y-96343463D01*
X159212957Y-96343463D02*
X159237147Y-96367654D01*
X159237147Y-96367654D02*
X159285528Y-96391844D01*
X159285528Y-96391844D02*
X159382290Y-96391844D01*
X159382290Y-96391844D02*
X159430671Y-96367654D01*
X159430671Y-96367654D02*
X159454862Y-96343463D01*
X159454862Y-96343463D02*
X159479052Y-96295082D01*
X159479052Y-96295082D02*
X159479052Y-96198320D01*
X159479052Y-96198320D02*
X159454862Y-96149939D01*
X159454862Y-96149939D02*
X159430671Y-96125749D01*
X159430671Y-96125749D02*
X159382290Y-96101558D01*
X148488553Y-88786214D02*
X148488553Y-88278214D01*
X148488553Y-88278214D02*
X148609505Y-88278214D01*
X148609505Y-88278214D02*
X148682077Y-88302404D01*
X148682077Y-88302404D02*
X148730458Y-88350785D01*
X148730458Y-88350785D02*
X148754648Y-88399166D01*
X148754648Y-88399166D02*
X148778839Y-88495928D01*
X148778839Y-88495928D02*
X148778839Y-88568500D01*
X148778839Y-88568500D02*
X148754648Y-88665262D01*
X148754648Y-88665262D02*
X148730458Y-88713643D01*
X148730458Y-88713643D02*
X148682077Y-88762024D01*
X148682077Y-88762024D02*
X148609505Y-88786214D01*
X148609505Y-88786214D02*
X148488553Y-88786214D01*
X148972362Y-88326595D02*
X148996553Y-88302404D01*
X148996553Y-88302404D02*
X149044934Y-88278214D01*
X149044934Y-88278214D02*
X149165886Y-88278214D01*
X149165886Y-88278214D02*
X149214267Y-88302404D01*
X149214267Y-88302404D02*
X149238458Y-88326595D01*
X149238458Y-88326595D02*
X149262648Y-88374976D01*
X149262648Y-88374976D02*
X149262648Y-88423357D01*
X149262648Y-88423357D02*
X149238458Y-88495928D01*
X149238458Y-88495928D02*
X148948172Y-88786214D01*
X148948172Y-88786214D02*
X149262648Y-88786214D01*
X166873333Y-104368072D02*
X166897524Y-104392263D01*
X166897524Y-104392263D02*
X166921714Y-104464834D01*
X166921714Y-104464834D02*
X166921714Y-104513215D01*
X166921714Y-104513215D02*
X166897524Y-104585787D01*
X166897524Y-104585787D02*
X166849143Y-104634168D01*
X166849143Y-104634168D02*
X166800762Y-104658358D01*
X166800762Y-104658358D02*
X166704000Y-104682549D01*
X166704000Y-104682549D02*
X166631428Y-104682549D01*
X166631428Y-104682549D02*
X166534666Y-104658358D01*
X166534666Y-104658358D02*
X166486285Y-104634168D01*
X166486285Y-104634168D02*
X166437904Y-104585787D01*
X166437904Y-104585787D02*
X166413714Y-104513215D01*
X166413714Y-104513215D02*
X166413714Y-104464834D01*
X166413714Y-104464834D02*
X166437904Y-104392263D01*
X166437904Y-104392263D02*
X166462095Y-104368072D01*
X166921714Y-103884263D02*
X166921714Y-104174549D01*
X166921714Y-104029406D02*
X166413714Y-104029406D01*
X166413714Y-104029406D02*
X166486285Y-104077787D01*
X166486285Y-104077787D02*
X166534666Y-104126168D01*
X166534666Y-104126168D02*
X166558857Y-104174549D01*
X166413714Y-103569786D02*
X166413714Y-103521405D01*
X166413714Y-103521405D02*
X166437904Y-103473024D01*
X166437904Y-103473024D02*
X166462095Y-103448834D01*
X166462095Y-103448834D02*
X166510476Y-103424643D01*
X166510476Y-103424643D02*
X166607238Y-103400453D01*
X166607238Y-103400453D02*
X166728190Y-103400453D01*
X166728190Y-103400453D02*
X166824952Y-103424643D01*
X166824952Y-103424643D02*
X166873333Y-103448834D01*
X166873333Y-103448834D02*
X166897524Y-103473024D01*
X166897524Y-103473024D02*
X166921714Y-103521405D01*
X166921714Y-103521405D02*
X166921714Y-103569786D01*
X166921714Y-103569786D02*
X166897524Y-103618167D01*
X166897524Y-103618167D02*
X166873333Y-103642358D01*
X166873333Y-103642358D02*
X166824952Y-103666548D01*
X166824952Y-103666548D02*
X166728190Y-103690739D01*
X166728190Y-103690739D02*
X166607238Y-103690739D01*
X166607238Y-103690739D02*
X166510476Y-103666548D01*
X166510476Y-103666548D02*
X166462095Y-103642358D01*
X166462095Y-103642358D02*
X166437904Y-103618167D01*
X166437904Y-103618167D02*
X166413714Y-103569786D01*
X169553834Y-94526168D02*
X169578025Y-94550359D01*
X169578025Y-94550359D02*
X169602215Y-94622930D01*
X169602215Y-94622930D02*
X169602215Y-94671311D01*
X169602215Y-94671311D02*
X169578025Y-94743883D01*
X169578025Y-94743883D02*
X169529644Y-94792264D01*
X169529644Y-94792264D02*
X169481263Y-94816454D01*
X169481263Y-94816454D02*
X169384501Y-94840645D01*
X169384501Y-94840645D02*
X169311929Y-94840645D01*
X169311929Y-94840645D02*
X169215167Y-94816454D01*
X169215167Y-94816454D02*
X169166786Y-94792264D01*
X169166786Y-94792264D02*
X169118405Y-94743883D01*
X169118405Y-94743883D02*
X169094215Y-94671311D01*
X169094215Y-94671311D02*
X169094215Y-94622930D01*
X169094215Y-94622930D02*
X169118405Y-94550359D01*
X169118405Y-94550359D02*
X169142596Y-94526168D01*
X169094215Y-94066549D02*
X169094215Y-94308454D01*
X169094215Y-94308454D02*
X169336120Y-94332645D01*
X169336120Y-94332645D02*
X169311929Y-94308454D01*
X169311929Y-94308454D02*
X169287739Y-94260073D01*
X169287739Y-94260073D02*
X169287739Y-94139121D01*
X169287739Y-94139121D02*
X169311929Y-94090740D01*
X169311929Y-94090740D02*
X169336120Y-94066549D01*
X169336120Y-94066549D02*
X169384501Y-94042359D01*
X169384501Y-94042359D02*
X169505453Y-94042359D01*
X169505453Y-94042359D02*
X169553834Y-94066549D01*
X169553834Y-94066549D02*
X169578025Y-94090740D01*
X169578025Y-94090740D02*
X169602215Y-94139121D01*
X169602215Y-94139121D02*
X169602215Y-94260073D01*
X169602215Y-94260073D02*
X169578025Y-94308454D01*
X169578025Y-94308454D02*
X169553834Y-94332645D01*
X175190213Y-99210172D02*
X175190213Y-99452077D01*
X175190213Y-99452077D02*
X174682213Y-99452077D01*
X174730594Y-99065030D02*
X174706403Y-99040839D01*
X174706403Y-99040839D02*
X174682213Y-98992458D01*
X174682213Y-98992458D02*
X174682213Y-98871506D01*
X174682213Y-98871506D02*
X174706403Y-98823125D01*
X174706403Y-98823125D02*
X174730594Y-98798934D01*
X174730594Y-98798934D02*
X174778975Y-98774744D01*
X174778975Y-98774744D02*
X174827356Y-98774744D01*
X174827356Y-98774744D02*
X174899927Y-98798934D01*
X174899927Y-98798934D02*
X175190213Y-99089220D01*
X175190213Y-99089220D02*
X175190213Y-98774744D01*
X143511433Y-99557826D02*
X143487242Y-99582017D01*
X143487242Y-99582017D02*
X143414671Y-99606207D01*
X143414671Y-99606207D02*
X143366290Y-99606207D01*
X143366290Y-99606207D02*
X143293718Y-99582017D01*
X143293718Y-99582017D02*
X143245337Y-99533636D01*
X143245337Y-99533636D02*
X143221147Y-99485255D01*
X143221147Y-99485255D02*
X143196956Y-99388493D01*
X143196956Y-99388493D02*
X143196956Y-99315921D01*
X143196956Y-99315921D02*
X143221147Y-99219159D01*
X143221147Y-99219159D02*
X143245337Y-99170778D01*
X143245337Y-99170778D02*
X143293718Y-99122397D01*
X143293718Y-99122397D02*
X143366290Y-99098207D01*
X143366290Y-99098207D02*
X143414671Y-99098207D01*
X143414671Y-99098207D02*
X143487242Y-99122397D01*
X143487242Y-99122397D02*
X143511433Y-99146588D01*
X143995242Y-99606207D02*
X143704956Y-99606207D01*
X143850099Y-99606207D02*
X143850099Y-99098207D01*
X143850099Y-99098207D02*
X143801718Y-99170778D01*
X143801718Y-99170778D02*
X143753337Y-99219159D01*
X143753337Y-99219159D02*
X143704956Y-99243350D01*
X144237147Y-99606207D02*
X144333909Y-99606207D01*
X144333909Y-99606207D02*
X144382290Y-99582017D01*
X144382290Y-99582017D02*
X144406481Y-99557826D01*
X144406481Y-99557826D02*
X144454862Y-99485255D01*
X144454862Y-99485255D02*
X144479052Y-99388493D01*
X144479052Y-99388493D02*
X144479052Y-99194969D01*
X144479052Y-99194969D02*
X144454862Y-99146588D01*
X144454862Y-99146588D02*
X144430671Y-99122397D01*
X144430671Y-99122397D02*
X144382290Y-99098207D01*
X144382290Y-99098207D02*
X144285528Y-99098207D01*
X144285528Y-99098207D02*
X144237147Y-99122397D01*
X144237147Y-99122397D02*
X144212957Y-99146588D01*
X144212957Y-99146588D02*
X144188766Y-99194969D01*
X144188766Y-99194969D02*
X144188766Y-99315921D01*
X144188766Y-99315921D02*
X144212957Y-99364302D01*
X144212957Y-99364302D02*
X144237147Y-99388493D01*
X144237147Y-99388493D02*
X144285528Y-99412683D01*
X144285528Y-99412683D02*
X144382290Y-99412683D01*
X144382290Y-99412683D02*
X144430671Y-99388493D01*
X144430671Y-99388493D02*
X144454862Y-99364302D01*
X144454862Y-99364302D02*
X144479052Y-99315921D01*
X170552712Y-87598737D02*
X170915569Y-87598737D01*
X170915569Y-87598737D02*
X170988141Y-87622928D01*
X170988141Y-87622928D02*
X171036522Y-87671309D01*
X171036522Y-87671309D02*
X171060712Y-87743880D01*
X171060712Y-87743880D02*
X171060712Y-87792261D01*
X171060712Y-87090737D02*
X171060712Y-87381023D01*
X171060712Y-87235880D02*
X170552712Y-87235880D01*
X170552712Y-87235880D02*
X170625283Y-87284261D01*
X170625283Y-87284261D02*
X170673664Y-87332642D01*
X170673664Y-87332642D02*
X170697855Y-87381023D01*
X170601093Y-86897213D02*
X170576902Y-86873022D01*
X170576902Y-86873022D02*
X170552712Y-86824641D01*
X170552712Y-86824641D02*
X170552712Y-86703689D01*
X170552712Y-86703689D02*
X170576902Y-86655308D01*
X170576902Y-86655308D02*
X170601093Y-86631117D01*
X170601093Y-86631117D02*
X170649474Y-86606927D01*
X170649474Y-86606927D02*
X170697855Y-86606927D01*
X170697855Y-86606927D02*
X170770426Y-86631117D01*
X170770426Y-86631117D02*
X171060712Y-86921403D01*
X171060712Y-86921403D02*
X171060712Y-86606927D01*
X138269713Y-82266452D02*
X137761713Y-82266452D01*
X137761713Y-82266452D02*
X137761713Y-82145500D01*
X137761713Y-82145500D02*
X137785903Y-82072928D01*
X137785903Y-82072928D02*
X137834284Y-82024547D01*
X137834284Y-82024547D02*
X137882665Y-82000357D01*
X137882665Y-82000357D02*
X137979427Y-81976166D01*
X137979427Y-81976166D02*
X138051999Y-81976166D01*
X138051999Y-81976166D02*
X138148761Y-82000357D01*
X138148761Y-82000357D02*
X138197142Y-82024547D01*
X138197142Y-82024547D02*
X138245523Y-82072928D01*
X138245523Y-82072928D02*
X138269713Y-82145500D01*
X138269713Y-82145500D02*
X138269713Y-82266452D01*
X137761713Y-81806833D02*
X137761713Y-81492357D01*
X137761713Y-81492357D02*
X137955237Y-81661690D01*
X137955237Y-81661690D02*
X137955237Y-81589119D01*
X137955237Y-81589119D02*
X137979427Y-81540738D01*
X137979427Y-81540738D02*
X138003618Y-81516547D01*
X138003618Y-81516547D02*
X138051999Y-81492357D01*
X138051999Y-81492357D02*
X138172951Y-81492357D01*
X138172951Y-81492357D02*
X138221332Y-81516547D01*
X138221332Y-81516547D02*
X138245523Y-81540738D01*
X138245523Y-81540738D02*
X138269713Y-81589119D01*
X138269713Y-81589119D02*
X138269713Y-81734262D01*
X138269713Y-81734262D02*
X138245523Y-81782643D01*
X138245523Y-81782643D02*
X138221332Y-81806833D01*
X177921839Y-99562833D02*
X177897648Y-99587024D01*
X177897648Y-99587024D02*
X177825077Y-99611214D01*
X177825077Y-99611214D02*
X177776696Y-99611214D01*
X177776696Y-99611214D02*
X177704124Y-99587024D01*
X177704124Y-99587024D02*
X177655743Y-99538643D01*
X177655743Y-99538643D02*
X177631553Y-99490262D01*
X177631553Y-99490262D02*
X177607362Y-99393500D01*
X177607362Y-99393500D02*
X177607362Y-99320928D01*
X177607362Y-99320928D02*
X177631553Y-99224166D01*
X177631553Y-99224166D02*
X177655743Y-99175785D01*
X177655743Y-99175785D02*
X177704124Y-99127404D01*
X177704124Y-99127404D02*
X177776696Y-99103214D01*
X177776696Y-99103214D02*
X177825077Y-99103214D01*
X177825077Y-99103214D02*
X177897648Y-99127404D01*
X177897648Y-99127404D02*
X177921839Y-99151595D01*
X178115362Y-99151595D02*
X178139553Y-99127404D01*
X178139553Y-99127404D02*
X178187934Y-99103214D01*
X178187934Y-99103214D02*
X178308886Y-99103214D01*
X178308886Y-99103214D02*
X178357267Y-99127404D01*
X178357267Y-99127404D02*
X178381458Y-99151595D01*
X178381458Y-99151595D02*
X178405648Y-99199976D01*
X178405648Y-99199976D02*
X178405648Y-99248357D01*
X178405648Y-99248357D02*
X178381458Y-99320928D01*
X178381458Y-99320928D02*
X178091172Y-99611214D01*
X178091172Y-99611214D02*
X178405648Y-99611214D01*
X148221332Y-89968072D02*
X148245523Y-89992263D01*
X148245523Y-89992263D02*
X148269713Y-90064834D01*
X148269713Y-90064834D02*
X148269713Y-90113215D01*
X148269713Y-90113215D02*
X148245523Y-90185787D01*
X148245523Y-90185787D02*
X148197142Y-90234168D01*
X148197142Y-90234168D02*
X148148761Y-90258358D01*
X148148761Y-90258358D02*
X148051999Y-90282549D01*
X148051999Y-90282549D02*
X147979427Y-90282549D01*
X147979427Y-90282549D02*
X147882665Y-90258358D01*
X147882665Y-90258358D02*
X147834284Y-90234168D01*
X147834284Y-90234168D02*
X147785903Y-90185787D01*
X147785903Y-90185787D02*
X147761713Y-90113215D01*
X147761713Y-90113215D02*
X147761713Y-90064834D01*
X147761713Y-90064834D02*
X147785903Y-89992263D01*
X147785903Y-89992263D02*
X147810094Y-89968072D01*
X148269713Y-89484263D02*
X148269713Y-89774549D01*
X148269713Y-89629406D02*
X147761713Y-89629406D01*
X147761713Y-89629406D02*
X147834284Y-89677787D01*
X147834284Y-89677787D02*
X147882665Y-89726168D01*
X147882665Y-89726168D02*
X147906856Y-89774549D01*
X147761713Y-89314929D02*
X147761713Y-89000453D01*
X147761713Y-89000453D02*
X147955237Y-89169786D01*
X147955237Y-89169786D02*
X147955237Y-89097215D01*
X147955237Y-89097215D02*
X147979427Y-89048834D01*
X147979427Y-89048834D02*
X148003618Y-89024643D01*
X148003618Y-89024643D02*
X148051999Y-89000453D01*
X148051999Y-89000453D02*
X148172951Y-89000453D01*
X148172951Y-89000453D02*
X148221332Y-89024643D01*
X148221332Y-89024643D02*
X148245523Y-89048834D01*
X148245523Y-89048834D02*
X148269713Y-89097215D01*
X148269713Y-89097215D02*
X148269713Y-89242358D01*
X148269713Y-89242358D02*
X148245523Y-89290739D01*
X148245523Y-89290739D02*
X148221332Y-89314929D01*
X150211433Y-94074827D02*
X150187242Y-94099018D01*
X150187242Y-94099018D02*
X150114671Y-94123208D01*
X150114671Y-94123208D02*
X150066290Y-94123208D01*
X150066290Y-94123208D02*
X149993718Y-94099018D01*
X149993718Y-94099018D02*
X149945337Y-94050637D01*
X149945337Y-94050637D02*
X149921147Y-94002256D01*
X149921147Y-94002256D02*
X149896956Y-93905494D01*
X149896956Y-93905494D02*
X149896956Y-93832922D01*
X149896956Y-93832922D02*
X149921147Y-93736160D01*
X149921147Y-93736160D02*
X149945337Y-93687779D01*
X149945337Y-93687779D02*
X149993718Y-93639398D01*
X149993718Y-93639398D02*
X150066290Y-93615208D01*
X150066290Y-93615208D02*
X150114671Y-93615208D01*
X150114671Y-93615208D02*
X150187242Y-93639398D01*
X150187242Y-93639398D02*
X150211433Y-93663589D01*
X150404956Y-93663589D02*
X150429147Y-93639398D01*
X150429147Y-93639398D02*
X150477528Y-93615208D01*
X150477528Y-93615208D02*
X150598480Y-93615208D01*
X150598480Y-93615208D02*
X150646861Y-93639398D01*
X150646861Y-93639398D02*
X150671052Y-93663589D01*
X150671052Y-93663589D02*
X150695242Y-93711970D01*
X150695242Y-93711970D02*
X150695242Y-93760351D01*
X150695242Y-93760351D02*
X150671052Y-93832922D01*
X150671052Y-93832922D02*
X150380766Y-94123208D01*
X150380766Y-94123208D02*
X150695242Y-94123208D01*
X151179052Y-94123208D02*
X150888766Y-94123208D01*
X151033909Y-94123208D02*
X151033909Y-93615208D01*
X151033909Y-93615208D02*
X150985528Y-93687779D01*
X150985528Y-93687779D02*
X150937147Y-93736160D01*
X150937147Y-93736160D02*
X150888766Y-93760351D01*
X160511433Y-96307826D02*
X160487242Y-96332017D01*
X160487242Y-96332017D02*
X160414671Y-96356207D01*
X160414671Y-96356207D02*
X160366290Y-96356207D01*
X160366290Y-96356207D02*
X160293718Y-96332017D01*
X160293718Y-96332017D02*
X160245337Y-96283636D01*
X160245337Y-96283636D02*
X160221147Y-96235255D01*
X160221147Y-96235255D02*
X160196956Y-96138493D01*
X160196956Y-96138493D02*
X160196956Y-96065921D01*
X160196956Y-96065921D02*
X160221147Y-95969159D01*
X160221147Y-95969159D02*
X160245337Y-95920778D01*
X160245337Y-95920778D02*
X160293718Y-95872397D01*
X160293718Y-95872397D02*
X160366290Y-95848207D01*
X160366290Y-95848207D02*
X160414671Y-95848207D01*
X160414671Y-95848207D02*
X160487242Y-95872397D01*
X160487242Y-95872397D02*
X160511433Y-95896588D01*
X160995242Y-96356207D02*
X160704956Y-96356207D01*
X160850099Y-96356207D02*
X160850099Y-95848207D01*
X160850099Y-95848207D02*
X160801718Y-95920778D01*
X160801718Y-95920778D02*
X160753337Y-95969159D01*
X160753337Y-95969159D02*
X160704956Y-95993350D01*
X161454862Y-95848207D02*
X161212957Y-95848207D01*
X161212957Y-95848207D02*
X161188766Y-96090112D01*
X161188766Y-96090112D02*
X161212957Y-96065921D01*
X161212957Y-96065921D02*
X161261338Y-96041731D01*
X161261338Y-96041731D02*
X161382290Y-96041731D01*
X161382290Y-96041731D02*
X161430671Y-96065921D01*
X161430671Y-96065921D02*
X161454862Y-96090112D01*
X161454862Y-96090112D02*
X161479052Y-96138493D01*
X161479052Y-96138493D02*
X161479052Y-96259445D01*
X161479052Y-96259445D02*
X161454862Y-96307826D01*
X161454862Y-96307826D02*
X161430671Y-96332017D01*
X161430671Y-96332017D02*
X161382290Y-96356207D01*
X161382290Y-96356207D02*
X161261338Y-96356207D01*
X161261338Y-96356207D02*
X161212957Y-96332017D01*
X161212957Y-96332017D02*
X161188766Y-96307826D01*
X167742331Y-89803071D02*
X167766522Y-89827262D01*
X167766522Y-89827262D02*
X167790712Y-89899833D01*
X167790712Y-89899833D02*
X167790712Y-89948214D01*
X167790712Y-89948214D02*
X167766522Y-90020786D01*
X167766522Y-90020786D02*
X167718141Y-90069167D01*
X167718141Y-90069167D02*
X167669760Y-90093357D01*
X167669760Y-90093357D02*
X167572998Y-90117548D01*
X167572998Y-90117548D02*
X167500426Y-90117548D01*
X167500426Y-90117548D02*
X167403664Y-90093357D01*
X167403664Y-90093357D02*
X167355283Y-90069167D01*
X167355283Y-90069167D02*
X167306902Y-90020786D01*
X167306902Y-90020786D02*
X167282712Y-89948214D01*
X167282712Y-89948214D02*
X167282712Y-89899833D01*
X167282712Y-89899833D02*
X167306902Y-89827262D01*
X167306902Y-89827262D02*
X167331093Y-89803071D01*
X167282712Y-89633738D02*
X167282712Y-89319262D01*
X167282712Y-89319262D02*
X167476236Y-89488595D01*
X167476236Y-89488595D02*
X167476236Y-89416024D01*
X167476236Y-89416024D02*
X167500426Y-89367643D01*
X167500426Y-89367643D02*
X167524617Y-89343452D01*
X167524617Y-89343452D02*
X167572998Y-89319262D01*
X167572998Y-89319262D02*
X167693950Y-89319262D01*
X167693950Y-89319262D02*
X167742331Y-89343452D01*
X167742331Y-89343452D02*
X167766522Y-89367643D01*
X167766522Y-89367643D02*
X167790712Y-89416024D01*
X167790712Y-89416024D02*
X167790712Y-89561167D01*
X167790712Y-89561167D02*
X167766522Y-89609548D01*
X167766522Y-89609548D02*
X167742331Y-89633738D01*
X167790712Y-89077357D02*
X167790712Y-88980595D01*
X167790712Y-88980595D02*
X167766522Y-88932214D01*
X167766522Y-88932214D02*
X167742331Y-88908023D01*
X167742331Y-88908023D02*
X167669760Y-88859642D01*
X167669760Y-88859642D02*
X167572998Y-88835452D01*
X167572998Y-88835452D02*
X167379474Y-88835452D01*
X167379474Y-88835452D02*
X167331093Y-88859642D01*
X167331093Y-88859642D02*
X167306902Y-88883833D01*
X167306902Y-88883833D02*
X167282712Y-88932214D01*
X167282712Y-88932214D02*
X167282712Y-89028976D01*
X167282712Y-89028976D02*
X167306902Y-89077357D01*
X167306902Y-89077357D02*
X167331093Y-89101547D01*
X167331093Y-89101547D02*
X167379474Y-89125738D01*
X167379474Y-89125738D02*
X167500426Y-89125738D01*
X167500426Y-89125738D02*
X167548807Y-89101547D01*
X167548807Y-89101547D02*
X167572998Y-89077357D01*
X167572998Y-89077357D02*
X167597188Y-89028976D01*
X167597188Y-89028976D02*
X167597188Y-88932214D01*
X167597188Y-88932214D02*
X167572998Y-88883833D01*
X167572998Y-88883833D02*
X167548807Y-88859642D01*
X167548807Y-88859642D02*
X167500426Y-88835452D01*
X173871832Y-100480172D02*
X173896023Y-100504363D01*
X173896023Y-100504363D02*
X173920213Y-100576934D01*
X173920213Y-100576934D02*
X173920213Y-100625315D01*
X173920213Y-100625315D02*
X173896023Y-100697887D01*
X173896023Y-100697887D02*
X173847642Y-100746268D01*
X173847642Y-100746268D02*
X173799261Y-100770458D01*
X173799261Y-100770458D02*
X173702499Y-100794649D01*
X173702499Y-100794649D02*
X173629927Y-100794649D01*
X173629927Y-100794649D02*
X173533165Y-100770458D01*
X173533165Y-100770458D02*
X173484784Y-100746268D01*
X173484784Y-100746268D02*
X173436403Y-100697887D01*
X173436403Y-100697887D02*
X173412213Y-100625315D01*
X173412213Y-100625315D02*
X173412213Y-100576934D01*
X173412213Y-100576934D02*
X173436403Y-100504363D01*
X173436403Y-100504363D02*
X173460594Y-100480172D01*
X173920213Y-99996363D02*
X173920213Y-100286649D01*
X173920213Y-100141506D02*
X173412213Y-100141506D01*
X173412213Y-100141506D02*
X173484784Y-100189887D01*
X173484784Y-100189887D02*
X173533165Y-100238268D01*
X173533165Y-100238268D02*
X173557356Y-100286649D01*
X159457332Y-88206070D02*
X159481523Y-88230261D01*
X159481523Y-88230261D02*
X159505713Y-88302832D01*
X159505713Y-88302832D02*
X159505713Y-88351213D01*
X159505713Y-88351213D02*
X159481523Y-88423785D01*
X159481523Y-88423785D02*
X159433142Y-88472166D01*
X159433142Y-88472166D02*
X159384761Y-88496356D01*
X159384761Y-88496356D02*
X159287999Y-88520547D01*
X159287999Y-88520547D02*
X159215427Y-88520547D01*
X159215427Y-88520547D02*
X159118665Y-88496356D01*
X159118665Y-88496356D02*
X159070284Y-88472166D01*
X159070284Y-88472166D02*
X159021903Y-88423785D01*
X159021903Y-88423785D02*
X158997713Y-88351213D01*
X158997713Y-88351213D02*
X158997713Y-88302832D01*
X158997713Y-88302832D02*
X159021903Y-88230261D01*
X159021903Y-88230261D02*
X159046094Y-88206070D01*
X158997713Y-88036737D02*
X158997713Y-87722261D01*
X158997713Y-87722261D02*
X159191237Y-87891594D01*
X159191237Y-87891594D02*
X159191237Y-87819023D01*
X159191237Y-87819023D02*
X159215427Y-87770642D01*
X159215427Y-87770642D02*
X159239618Y-87746451D01*
X159239618Y-87746451D02*
X159287999Y-87722261D01*
X159287999Y-87722261D02*
X159408951Y-87722261D01*
X159408951Y-87722261D02*
X159457332Y-87746451D01*
X159457332Y-87746451D02*
X159481523Y-87770642D01*
X159481523Y-87770642D02*
X159505713Y-87819023D01*
X159505713Y-87819023D02*
X159505713Y-87964166D01*
X159505713Y-87964166D02*
X159481523Y-88012547D01*
X159481523Y-88012547D02*
X159457332Y-88036737D01*
X158997713Y-87552927D02*
X158997713Y-87214260D01*
X158997713Y-87214260D02*
X159505713Y-87431975D01*
X130919713Y-92789832D02*
X131282570Y-92789832D01*
X131282570Y-92789832D02*
X131355142Y-92814023D01*
X131355142Y-92814023D02*
X131403523Y-92862404D01*
X131403523Y-92862404D02*
X131427713Y-92934975D01*
X131427713Y-92934975D02*
X131427713Y-92983356D01*
X130919713Y-92596308D02*
X130919713Y-92281832D01*
X130919713Y-92281832D02*
X131113237Y-92451165D01*
X131113237Y-92451165D02*
X131113237Y-92378594D01*
X131113237Y-92378594D02*
X131137427Y-92330213D01*
X131137427Y-92330213D02*
X131161618Y-92306022D01*
X131161618Y-92306022D02*
X131209999Y-92281832D01*
X131209999Y-92281832D02*
X131330951Y-92281832D01*
X131330951Y-92281832D02*
X131379332Y-92306022D01*
X131379332Y-92306022D02*
X131403523Y-92330213D01*
X131403523Y-92330213D02*
X131427713Y-92378594D01*
X131427713Y-92378594D02*
X131427713Y-92523737D01*
X131427713Y-92523737D02*
X131403523Y-92572118D01*
X131403523Y-92572118D02*
X131379332Y-92596308D01*
X159569713Y-98459165D02*
X159327808Y-98628499D01*
X159569713Y-98749451D02*
X159061713Y-98749451D01*
X159061713Y-98749451D02*
X159061713Y-98555927D01*
X159061713Y-98555927D02*
X159085903Y-98507546D01*
X159085903Y-98507546D02*
X159110094Y-98483356D01*
X159110094Y-98483356D02*
X159158475Y-98459165D01*
X159158475Y-98459165D02*
X159231046Y-98459165D01*
X159231046Y-98459165D02*
X159279427Y-98483356D01*
X159279427Y-98483356D02*
X159303618Y-98507546D01*
X159303618Y-98507546D02*
X159327808Y-98555927D01*
X159327808Y-98555927D02*
X159327808Y-98749451D01*
X159061713Y-97999546D02*
X159061713Y-98241451D01*
X159061713Y-98241451D02*
X159303618Y-98265642D01*
X159303618Y-98265642D02*
X159279427Y-98241451D01*
X159279427Y-98241451D02*
X159255237Y-98193070D01*
X159255237Y-98193070D02*
X159255237Y-98072118D01*
X159255237Y-98072118D02*
X159279427Y-98023737D01*
X159279427Y-98023737D02*
X159303618Y-97999546D01*
X159303618Y-97999546D02*
X159351999Y-97975356D01*
X159351999Y-97975356D02*
X159472951Y-97975356D01*
X159472951Y-97975356D02*
X159521332Y-97999546D01*
X159521332Y-97999546D02*
X159545523Y-98023737D01*
X159545523Y-98023737D02*
X159569713Y-98072118D01*
X159569713Y-98072118D02*
X159569713Y-98193070D01*
X159569713Y-98193070D02*
X159545523Y-98241451D01*
X159545523Y-98241451D02*
X159521332Y-98265642D01*
X135810338Y-105752208D02*
X135641004Y-105510303D01*
X135520052Y-105752208D02*
X135520052Y-105244208D01*
X135520052Y-105244208D02*
X135713576Y-105244208D01*
X135713576Y-105244208D02*
X135761957Y-105268398D01*
X135761957Y-105268398D02*
X135786147Y-105292589D01*
X135786147Y-105292589D02*
X135810338Y-105340970D01*
X135810338Y-105340970D02*
X135810338Y-105413541D01*
X135810338Y-105413541D02*
X135786147Y-105461922D01*
X135786147Y-105461922D02*
X135761957Y-105486113D01*
X135761957Y-105486113D02*
X135713576Y-105510303D01*
X135713576Y-105510303D02*
X135520052Y-105510303D01*
X136294147Y-105752208D02*
X136003861Y-105752208D01*
X136149004Y-105752208D02*
X136149004Y-105244208D01*
X136149004Y-105244208D02*
X136100623Y-105316779D01*
X136100623Y-105316779D02*
X136052242Y-105365160D01*
X136052242Y-105365160D02*
X136003861Y-105389351D01*
X171984678Y-99263394D02*
X171984678Y-99505299D01*
X171984678Y-99505299D02*
X171476678Y-99505299D01*
X171984678Y-98827966D02*
X171984678Y-99118252D01*
X171984678Y-98973109D02*
X171476678Y-98973109D01*
X171476678Y-98973109D02*
X171549249Y-99021490D01*
X171549249Y-99021490D02*
X171597630Y-99069871D01*
X171597630Y-99069871D02*
X171621821Y-99118252D01*
X157401332Y-97140072D02*
X157425523Y-97164263D01*
X157425523Y-97164263D02*
X157449713Y-97236834D01*
X157449713Y-97236834D02*
X157449713Y-97285215D01*
X157449713Y-97285215D02*
X157425523Y-97357787D01*
X157425523Y-97357787D02*
X157377142Y-97406168D01*
X157377142Y-97406168D02*
X157328761Y-97430358D01*
X157328761Y-97430358D02*
X157231999Y-97454549D01*
X157231999Y-97454549D02*
X157159427Y-97454549D01*
X157159427Y-97454549D02*
X157062665Y-97430358D01*
X157062665Y-97430358D02*
X157014284Y-97406168D01*
X157014284Y-97406168D02*
X156965903Y-97357787D01*
X156965903Y-97357787D02*
X156941713Y-97285215D01*
X156941713Y-97285215D02*
X156941713Y-97236834D01*
X156941713Y-97236834D02*
X156965903Y-97164263D01*
X156965903Y-97164263D02*
X156990094Y-97140072D01*
X156990094Y-96946549D02*
X156965903Y-96922358D01*
X156965903Y-96922358D02*
X156941713Y-96873977D01*
X156941713Y-96873977D02*
X156941713Y-96753025D01*
X156941713Y-96753025D02*
X156965903Y-96704644D01*
X156965903Y-96704644D02*
X156990094Y-96680453D01*
X156990094Y-96680453D02*
X157038475Y-96656263D01*
X157038475Y-96656263D02*
X157086856Y-96656263D01*
X157086856Y-96656263D02*
X157159427Y-96680453D01*
X157159427Y-96680453D02*
X157449713Y-96970739D01*
X157449713Y-96970739D02*
X157449713Y-96656263D01*
X156941713Y-96486929D02*
X156941713Y-96172453D01*
X156941713Y-96172453D02*
X157135237Y-96341786D01*
X157135237Y-96341786D02*
X157135237Y-96269215D01*
X157135237Y-96269215D02*
X157159427Y-96220834D01*
X157159427Y-96220834D02*
X157183618Y-96196643D01*
X157183618Y-96196643D02*
X157231999Y-96172453D01*
X157231999Y-96172453D02*
X157352951Y-96172453D01*
X157352951Y-96172453D02*
X157401332Y-96196643D01*
X157401332Y-96196643D02*
X157425523Y-96220834D01*
X157425523Y-96220834D02*
X157449713Y-96269215D01*
X157449713Y-96269215D02*
X157449713Y-96414358D01*
X157449713Y-96414358D02*
X157425523Y-96462739D01*
X157425523Y-96462739D02*
X157401332Y-96486929D01*
X153620251Y-104363485D02*
X153586041Y-104363485D01*
X153586041Y-104363485D02*
X153517620Y-104329275D01*
X153517620Y-104329275D02*
X153483409Y-104295064D01*
X153483409Y-104295064D02*
X153449199Y-104226643D01*
X153449199Y-104226643D02*
X153449199Y-104158222D01*
X153449199Y-104158222D02*
X153466304Y-104106907D01*
X153466304Y-104106907D02*
X153517620Y-104021380D01*
X153517620Y-104021380D02*
X153568935Y-103970065D01*
X153568935Y-103970065D02*
X153654462Y-103918749D01*
X153654462Y-103918749D02*
X153705777Y-103901644D01*
X153705777Y-103901644D02*
X153774198Y-103901644D01*
X153774198Y-103901644D02*
X153842619Y-103935854D01*
X153842619Y-103935854D02*
X153876830Y-103970065D01*
X153876830Y-103970065D02*
X153911040Y-104038486D01*
X153911040Y-104038486D02*
X153911040Y-104072696D01*
X154047882Y-104209538D02*
X154082093Y-104209538D01*
X154082093Y-104209538D02*
X154133409Y-104226643D01*
X154133409Y-104226643D02*
X154218935Y-104312170D01*
X154218935Y-104312170D02*
X154236040Y-104363485D01*
X154236040Y-104363485D02*
X154236040Y-104397696D01*
X154236040Y-104397696D02*
X154218935Y-104449012D01*
X154218935Y-104449012D02*
X154184724Y-104483222D01*
X154184724Y-104483222D02*
X154116303Y-104517433D01*
X154116303Y-104517433D02*
X153705777Y-104517433D01*
X153705777Y-104517433D02*
X153928146Y-104739801D01*
X154475514Y-104808222D02*
X154236040Y-105047696D01*
X154526830Y-104585854D02*
X154184725Y-104756907D01*
X154184725Y-104756907D02*
X154407093Y-104979275D01*
X153961433Y-90873207D02*
X153792099Y-90631302D01*
X153671147Y-90873207D02*
X153671147Y-90365207D01*
X153671147Y-90365207D02*
X153864671Y-90365207D01*
X153864671Y-90365207D02*
X153913052Y-90389397D01*
X153913052Y-90389397D02*
X153937242Y-90413588D01*
X153937242Y-90413588D02*
X153961433Y-90461969D01*
X153961433Y-90461969D02*
X153961433Y-90534540D01*
X153961433Y-90534540D02*
X153937242Y-90582921D01*
X153937242Y-90582921D02*
X153913052Y-90607112D01*
X153913052Y-90607112D02*
X153864671Y-90631302D01*
X153864671Y-90631302D02*
X153671147Y-90631302D01*
X154445242Y-90873207D02*
X154154956Y-90873207D01*
X154300099Y-90873207D02*
X154300099Y-90365207D01*
X154300099Y-90365207D02*
X154251718Y-90437778D01*
X154251718Y-90437778D02*
X154203337Y-90486159D01*
X154203337Y-90486159D02*
X154154956Y-90510350D01*
X154880671Y-90365207D02*
X154783909Y-90365207D01*
X154783909Y-90365207D02*
X154735528Y-90389397D01*
X154735528Y-90389397D02*
X154711338Y-90413588D01*
X154711338Y-90413588D02*
X154662957Y-90486159D01*
X154662957Y-90486159D02*
X154638766Y-90582921D01*
X154638766Y-90582921D02*
X154638766Y-90776445D01*
X154638766Y-90776445D02*
X154662957Y-90824826D01*
X154662957Y-90824826D02*
X154687147Y-90849017D01*
X154687147Y-90849017D02*
X154735528Y-90873207D01*
X154735528Y-90873207D02*
X154832290Y-90873207D01*
X154832290Y-90873207D02*
X154880671Y-90849017D01*
X154880671Y-90849017D02*
X154904862Y-90824826D01*
X154904862Y-90824826D02*
X154929052Y-90776445D01*
X154929052Y-90776445D02*
X154929052Y-90655493D01*
X154929052Y-90655493D02*
X154904862Y-90607112D01*
X154904862Y-90607112D02*
X154880671Y-90582921D01*
X154880671Y-90582921D02*
X154832290Y-90558731D01*
X154832290Y-90558731D02*
X154735528Y-90558731D01*
X154735528Y-90558731D02*
X154687147Y-90582921D01*
X154687147Y-90582921D02*
X154662957Y-90607112D01*
X154662957Y-90607112D02*
X154638766Y-90655493D01*
%TO.C,J4*%
D13*
X149992006Y-81505501D02*
X155412006Y-81505501D01*
X149992006Y-88745501D02*
X149992006Y-81505501D01*
X156012006Y-81505501D02*
X157932006Y-81505501D01*
X157932006Y-81505501D02*
X157932006Y-88745501D01*
X157932006Y-83125501D02*
X149992006Y-83125501D01*
X157932006Y-88745501D02*
X149992006Y-88745501D01*
X155712006Y-81505501D02*
X155272006Y-80895502D01*
X156152006Y-80895502D01*
X155712006Y-81505501D01*
G36*
X155712006Y-81505501D02*
G01*
X155272006Y-80895502D01*
X156152006Y-80895502D01*
X155712006Y-81505501D01*
G37*
%TO.C,C36*%
X153178005Y-93249335D02*
X153178005Y-93033663D01*
X153898005Y-93249335D02*
X153898005Y-93033663D01*
%TO.C,C0*%
X169530005Y-98725667D02*
X169530005Y-98957337D01*
X170250005Y-98725667D02*
X170250005Y-98957337D01*
%TO.C,R6*%
X141360664Y-111401560D02*
X141577945Y-111618841D01*
X141898065Y-110864159D02*
X142115346Y-111081440D01*
%TO.C,C20*%
X147620841Y-95337504D02*
X147405169Y-95337504D01*
X147620841Y-96057504D02*
X147405169Y-96057504D01*
%TO.C,C17*%
X144738273Y-90557501D02*
X144445739Y-90557501D01*
X144738273Y-91577501D02*
X144445739Y-91577501D01*
%TO.C,L4*%
X164500248Y-101681501D02*
X163679764Y-101681501D01*
X164500248Y-102801501D02*
X163679764Y-102801501D01*
%TO.C,J14*%
X147204004Y-110985501D02*
X149004004Y-110985501D01*
X147204004Y-112435501D02*
X147204004Y-110985501D01*
X148474004Y-115255500D02*
X161904004Y-115255500D01*
X149004004Y-110985501D02*
X149004004Y-109995501D01*
X163174004Y-110985501D02*
X161374004Y-110985501D01*
X163174004Y-112435501D02*
X163174004Y-110985501D01*
%TO.C,Y2*%
X157528005Y-99001499D02*
X157528005Y-102421501D01*
X157528005Y-102421501D02*
X161648005Y-102421501D01*
%TO.C,C30*%
X147859698Y-102310690D02*
X147707195Y-102463193D01*
X148368815Y-102819807D02*
X148216312Y-102972310D01*
%TO.C,U1*%
D14*
X164690004Y-96391500D02*
X164970004Y-96391500D01*
X164690004Y-96671500D02*
X164690004Y-96391500D01*
X164690004Y-100391500D02*
X164690004Y-100111500D01*
X164690004Y-100391500D02*
X164970004Y-100391500D01*
X168410004Y-96391500D02*
X168690004Y-96391500D01*
X168690004Y-96391500D02*
X168690004Y-96671500D01*
X168690004Y-100111500D02*
X168690004Y-100391500D01*
X168690004Y-100391500D02*
X168410004Y-100391500D01*
D10*
X168040004Y-95391500D02*
G75*
G02*
X167840004Y-95391500I-100000J0D01*
G01*
X167840004Y-95391500D02*
G75*
G02*
X168040004Y-95391500I100000J0D01*
G01*
%TO.C,R8*%
D13*
X145434364Y-96011499D02*
X145741646Y-96011499D01*
X145434364Y-96771499D02*
X145741646Y-96771499D01*
%TO.C,C9*%
X163005840Y-99881502D02*
X162774170Y-99881502D01*
X163005840Y-100601502D02*
X162774170Y-100601502D01*
%TO.C,U3*%
X140674004Y-87710502D02*
X140674005Y-83950502D01*
X140674005Y-83950502D02*
X141934004Y-83950502D01*
X147494005Y-83950502D02*
X146234006Y-83950502D01*
X147494006Y-87710502D02*
X147494005Y-83950502D01*
X140774005Y-88990502D02*
X140444005Y-89230502D01*
X140444005Y-88750502D01*
X140774005Y-88990502D01*
G36*
X140774005Y-88990502D02*
G01*
X140444005Y-89230502D01*
X140444005Y-88750502D01*
X140774005Y-88990502D01*
G37*
%TO.C,R4*%
X139473533Y-85879861D02*
X139473533Y-86187143D01*
X140233533Y-85879861D02*
X140233533Y-86187143D01*
%TO.C,C14*%
X159480169Y-102764499D02*
X159695841Y-102764499D01*
X159480169Y-103484499D02*
X159695841Y-103484499D01*
%TO.C,C31*%
X147907506Y-93645336D02*
X147907506Y-93429664D01*
X148627506Y-93645336D02*
X148627506Y-93429664D01*
%TO.C,Y1*%
D10*
X166590006Y-93951500D02*
G75*
G02*
X166390006Y-93951500I-100000J0D01*
G01*
X166390006Y-93951500D02*
G75*
G02*
X166590006Y-93951500I100000J0D01*
G01*
%TO.C,C7*%
D13*
X137529698Y-107087310D02*
X137377195Y-106934807D01*
X138038815Y-106578193D02*
X137886312Y-106425690D01*
%TO.C,R14*%
X150158005Y-90545141D02*
X150158005Y-90237859D01*
X150918005Y-90545141D02*
X150918005Y-90237859D01*
%TO.C,R7*%
X145434364Y-97011500D02*
X145741646Y-97011500D01*
X145434364Y-97771500D02*
X145741646Y-97771500D01*
%TO.C,D1*%
X144808005Y-93382500D02*
X147268005Y-93382500D01*
X147268005Y-91912500D02*
X144808005Y-91912500D01*
X147268005Y-93382500D02*
X147268005Y-91912500D01*
%TO.C,C16*%
X148146005Y-82920235D02*
X148146005Y-83212769D01*
X149166005Y-82920235D02*
X149166005Y-83212769D01*
%TO.C,U2*%
X138884776Y-107391500D02*
X139075694Y-107200581D01*
X142597086Y-103679189D02*
X142788005Y-103488271D01*
X142788005Y-103488271D02*
X146691234Y-107391500D01*
X142788005Y-111294729D02*
X138884776Y-107391500D01*
X142978924Y-111103811D02*
X142788005Y-111294729D01*
X146691234Y-107391500D02*
X146500316Y-107582419D01*
X143558751Y-111697780D02*
X143466828Y-112270537D01*
X142985995Y-111789704D01*
X143558751Y-111697780D01*
G36*
X143466828Y-112270537D02*
G01*
X142985995Y-111789704D01*
X143558751Y-111697780D01*
X143466828Y-112270537D01*
G37*
%TO.C,J15*%
X164204005Y-110985502D02*
X166004005Y-110985502D01*
X164204005Y-112435502D02*
X164204005Y-110985502D01*
X165474005Y-115255501D02*
X178904005Y-115255501D01*
X166004005Y-110985502D02*
X166004005Y-109995502D01*
X180174005Y-110985502D02*
X178374005Y-110985502D01*
X180174005Y-112435502D02*
X180174005Y-110985502D01*
%TO.C,C25*%
X145831341Y-98071505D02*
X145615669Y-98071505D01*
X145831341Y-98791505D02*
X145615669Y-98791505D01*
%TO.C,U4*%
X149036005Y-94781500D02*
X149686004Y-94781500D01*
X149036005Y-95431499D02*
X149036005Y-94781500D01*
X149036005Y-102001500D02*
X149036005Y-101351501D01*
X149686004Y-102001500D02*
X149036005Y-102001500D01*
X155606006Y-94781500D02*
X156256005Y-94781500D01*
X156256005Y-94781500D02*
X156256005Y-95431499D01*
X156256005Y-101351501D02*
X156256005Y-102001500D01*
X156256005Y-102001500D02*
X155606006Y-102001500D01*
X150046004Y-102531500D02*
X150286005Y-102861500D01*
X149806005Y-102861500D01*
X150046004Y-102531500D01*
G36*
X150286005Y-102861500D02*
G01*
X149806005Y-102861500D01*
X150046004Y-102531500D01*
X150286005Y-102861500D01*
G37*
%TO.C,C4*%
X175174172Y-96681502D02*
X175405842Y-96681502D01*
X175174172Y-97401502D02*
X175405842Y-97401502D01*
%TO.C,R15*%
X163035628Y-97782498D02*
X162700386Y-97782498D01*
X163035628Y-98542500D02*
X162700386Y-98542500D01*
%TO.C,R19*%
X152191645Y-92011500D02*
X151884363Y-92011500D01*
X152191645Y-92771500D02*
X151884363Y-92771500D01*
%TO.C,J2*%
D10*
X180758685Y-97182180D02*
X180758685Y-99582180D01*
X183058685Y-94882180D02*
X185458685Y-94882180D01*
X185458685Y-101882180D02*
X183058685Y-101882180D01*
X187758685Y-97182180D02*
X187758685Y-99582180D01*
%TO.C,J8*%
D13*
X140418005Y-115625501D02*
X140418006Y-114245501D01*
X141798005Y-115625500D02*
X140418005Y-115625501D01*
X143068005Y-112865501D02*
X145718005Y-112865501D01*
X143068005Y-115625501D02*
X143068005Y-112865501D01*
X143068005Y-115625501D02*
X145718005Y-115625501D01*
X145718005Y-115625501D02*
X145718005Y-112865501D01*
%TO.C,C38*%
X160194005Y-91576080D02*
X160194005Y-91294918D01*
X161214005Y-91576080D02*
X161214005Y-91294918D01*
%TO.C,C3*%
X178774171Y-97881500D02*
X179005841Y-97881500D01*
X178774171Y-98601500D02*
X179005841Y-98601500D01*
%TO.C,C6*%
X167130005Y-94557336D02*
X167130005Y-94325666D01*
X167850005Y-94557336D02*
X167850005Y-94325666D01*
%TO.C,U5*%
X161678004Y-88831500D02*
X161728004Y-88831500D01*
X161678004Y-90651500D02*
X161678004Y-88831500D01*
X161728004Y-90651500D02*
X161678004Y-90651500D01*
X163628004Y-90651500D02*
X162848004Y-90651500D01*
X164748004Y-88831500D02*
X164798004Y-88831500D01*
X164798004Y-88831500D02*
X164798004Y-90651500D01*
X164798004Y-90651500D02*
X164748004Y-90651500D01*
X164748004Y-88291500D02*
X165078004Y-88051500D01*
X165078004Y-88531500D01*
X164748004Y-88291500D01*
G36*
X165078004Y-88531500D02*
G01*
X164748004Y-88291500D01*
X165078004Y-88051500D01*
X165078004Y-88531500D01*
G37*
%TO.C,C22*%
X148870506Y-93292836D02*
X148870506Y-93077164D01*
X149590506Y-93292836D02*
X149590506Y-93077164D01*
%TO.C,R13*%
X155134364Y-92261500D02*
X155441646Y-92261500D01*
X155134364Y-93021500D02*
X155441646Y-93021500D01*
%TO.C,C8*%
X163005841Y-98881500D02*
X162774171Y-98881500D01*
X163005841Y-99601500D02*
X162774171Y-99601500D01*
%TO.C,R3*%
X140726865Y-93972505D02*
X141034147Y-93972505D01*
X140726865Y-94732505D02*
X141034147Y-94732505D01*
%TO.C,C18*%
X158838723Y-96682424D02*
X159054395Y-96682424D01*
X158838723Y-97402424D02*
X159054395Y-97402424D01*
%TO.C,D2*%
X147921006Y-85695501D02*
X147921006Y-88155501D01*
X147921006Y-88155501D02*
X149391006Y-88155501D01*
X149391006Y-88155501D02*
X149391006Y-85695501D01*
%TO.C,C10*%
X166130006Y-102125666D02*
X166130006Y-102357336D01*
X166850006Y-102125666D02*
X166850006Y-102357336D01*
%TO.C,C5*%
X168130006Y-94557337D02*
X168130006Y-94325667D01*
X168850006Y-94557337D02*
X168850006Y-94325667D01*
%TO.C,L2*%
X175189806Y-97881501D02*
X175390208Y-97881501D01*
X175189806Y-98601501D02*
X175390208Y-98601501D01*
%TO.C,C19*%
X145831341Y-99071505D02*
X145615669Y-99071505D01*
X145831341Y-99791505D02*
X145615669Y-99791505D01*
%TO.C,J12*%
X160553004Y-84401500D02*
X160553004Y-85851500D01*
X160553004Y-85851500D02*
X162353004Y-85851500D01*
X169723004Y-85851500D02*
X169723004Y-86841500D01*
X170253004Y-81581501D02*
X161823004Y-81581501D01*
X171523004Y-84401500D02*
X171523004Y-85851500D01*
X171523004Y-85851500D02*
X169723004Y-85851500D01*
%TO.C,D3*%
X138773005Y-81582504D02*
X138773005Y-84042504D01*
X140243005Y-81582504D02*
X138773005Y-81582504D01*
X140243005Y-84042504D02*
X140243005Y-81582504D01*
%TO.C,C2*%
X176730007Y-98725666D02*
X176730007Y-98957336D01*
X177450007Y-98725666D02*
X177450007Y-98957336D01*
%TO.C,C13*%
X147747739Y-90557502D02*
X148040273Y-90557502D01*
X147747739Y-91577502D02*
X148040273Y-91577502D01*
%TO.C,C21*%
X150070506Y-92892836D02*
X150070506Y-92677164D01*
X150790506Y-92892836D02*
X150790506Y-92677164D01*
%TO.C,C15*%
X160955841Y-96761500D02*
X160740169Y-96761500D01*
X160955841Y-97481500D02*
X160740169Y-97481500D01*
%TO.C,C39*%
X165619004Y-89335919D02*
X165619004Y-89617081D01*
X166639004Y-89335919D02*
X166639004Y-89617081D01*
%TO.C,C1*%
X173130006Y-98725668D02*
X173130006Y-98957338D01*
X173850006Y-98725668D02*
X173850006Y-98957338D01*
%TO.C,C37*%
X160194005Y-88020080D02*
X160194005Y-87738918D01*
X161214005Y-88020080D02*
X161214005Y-87738918D01*
%TO.C,J3*%
D10*
X130776005Y-93466501D02*
X130776005Y-103316499D01*
X130776005Y-93466501D02*
X131176005Y-93466500D01*
X130776005Y-103316499D02*
X131176005Y-103316500D01*
X133476005Y-103316500D02*
X139666005Y-103316500D01*
X139666005Y-93466500D02*
X133476005Y-93466500D01*
X139666005Y-93466500D02*
X139666005Y-103316500D01*
X140426005Y-95591500D02*
G75*
G02*
X140226005Y-95591500I-100000J0D01*
G01*
X140226005Y-95591500D02*
G75*
G02*
X140426005Y-95591500I100000J0D01*
G01*
%TO.C,R5*%
D13*
X160567364Y-97996634D02*
X160874646Y-97996634D01*
X160567364Y-98756634D02*
X160874646Y-98756634D01*
%TO.C,R1*%
X136012646Y-104303500D02*
X135705364Y-104303500D01*
X136012646Y-105063500D02*
X135705364Y-105063500D01*
%TO.C,L1*%
X171589803Y-97881500D02*
X171790205Y-97881500D01*
X171589803Y-98601500D02*
X171790205Y-98601500D01*
%TO.C,C23*%
X157844513Y-97682425D02*
X158060185Y-97682425D01*
X157844513Y-98402425D02*
X158060185Y-98402425D01*
%TO.C,C24*%
X154207195Y-104085882D02*
X154359698Y-104238385D01*
X154716312Y-103576765D02*
X154868815Y-103729268D01*
%TO.C,R16*%
X154441646Y-89511499D02*
X154134364Y-89511499D01*
X154441646Y-90271499D02*
X154134364Y-90271499D01*
%TD*%
M02*
