%TF.GenerationSoftware,KiCad,Pcbnew,10.0.6-10.0.6~ubuntu26.04.1*%
%TF.CreationDate,2026-09-21T23:18:22-04:00*%
%TF.ProjectId,PHOBOS_Control_Digital,50484f42-4f53-45f4-936f-6e74726f6c5f,rev?*%
%TF.SameCoordinates,Original*%
%TF.FileFunction,Copper,L4,Bot*%
%TF.FilePolarity,Positive*%
%FSLAX46Y46*%
G04 Gerber Fmt 4.6, Leading zero omitted, Abs format (unit mm)*
G04 Created by KiCad (PCBNEW 10.0.6-10.0.6~ubuntu26.04.1) date 2026-09-21 23:18:22*
%MOMM*%
%LPD*%
G01*
G04 APERTURE LIST*
G04 Aperture macros list*
%AMRoundRect*
0 Rectangle with rounded corners*
0 $1 Rounding radius*
0 $2 $3 $4 $5 $6 $7 $8 $9 X,Y pos of 4 corners*
0 Add a 4 corners polygon primitive as box body*
4,1,4,$2,$3,$4,$5,$6,$7,$8,$9,$2,$3,0*
0 Add four circle primitives for the rounded corners*
1,1,$1+$1,$2,$3*
1,1,$1+$1,$4,$5*
1,1,$1+$1,$6,$7*
1,1,$1+$1,$8,$9*
0 Add four rect primitives between the rounded corners*
20,1,$1+$1,$2,$3,$4,$5,0*
20,1,$1+$1,$4,$5,$6,$7,0*
20,1,$1+$1,$6,$7,$8,$9,0*
20,1,$1+$1,$8,$9,$2,$3,0*%
G04 Aperture macros list end*
%TA.AperFunction,ComponentPad*%
%ADD10RoundRect,0.250001X0.949999X0.949999X-0.949999X0.949999X-0.949999X-0.949999X0.949999X-0.949999X0*%
%TD*%
%TA.AperFunction,ComponentPad*%
%ADD11C,2.400000*%
%TD*%
%TA.AperFunction,ComponentPad*%
%ADD12R,1.700000X1.700000*%
%TD*%
%TA.AperFunction,ComponentPad*%
%ADD13C,1.700000*%
%TD*%
%TA.AperFunction,ComponentPad*%
%ADD14C,0.600000*%
%TD*%
%TA.AperFunction,ComponentPad*%
%ADD15O,1.400000X0.800000*%
%TD*%
%TA.AperFunction,ComponentPad*%
%ADD16C,2.000000*%
%TD*%
%TA.AperFunction,ViaPad*%
%ADD17C,0.584200*%
%TD*%
%TA.AperFunction,Conductor*%
%ADD18C,0.254000*%
%TD*%
%TA.AperFunction,Conductor*%
%ADD19C,0.200000*%
%TD*%
G04 APERTURE END LIST*
D10*
%TO.P,J4,1,Pin_1_1*%
%TO.N,GND*%
X155712006Y-85225501D03*
D11*
%TO.P,J4,2,Pin_2_2*%
%TO.N,+BATT*%
X152212006Y-85225501D03*
%TD*%
D12*
%TO.P,J8,1,Pin_1_1*%
%TO.N,GND*%
X141798005Y-114245501D03*
D13*
%TO.P,J8,2,Pin_2_2*%
%TO.N,/QSPI_SS*%
X144338005Y-114245501D03*
%TD*%
D14*
%TO.P,J3,B1,GND_B_B1*%
%TO.N,GND*%
X137316005Y-101191500D03*
%TO.P,J3,B2,SSTXP2_B2*%
%TO.N,unconnected-(J3-SSTXP2-PadB2)*%
X136616005Y-100791500D03*
%TO.P,J3,B3,SSTXN2_B3*%
%TO.N,unconnected-(J3-SSTXN2-PadB3)*%
X136616005Y-99991500D03*
%TO.P,J3,B4,VBUS_B_B4*%
%TO.N,VBUS*%
X137316005Y-99591500D03*
%TO.P,J3,B5,CC2_B5*%
%TO.N,Net-(J3-CC2)*%
X136616006Y-99191500D03*
%TO.P,J3,B6,DP2_B6*%
%TO.N,/USB_D+*%
X137316005Y-98791500D03*
%TO.P,J3,B7,DN2_B7*%
%TO.N,/USB_D-*%
X137316005Y-97991500D03*
%TO.P,J3,B8,SBU2_B8*%
%TO.N,unconnected-(J3-SBU2-PadB8)*%
X136616006Y-97591500D03*
%TO.P,J3,B9,VBUS_B__1_B9*%
%TO.N,VBUS*%
X137316005Y-97191500D03*
%TO.P,J3,B10,SSRXN1_B10*%
%TO.N,unconnected-(J3-SSRXN1-PadB10)*%
X136616005Y-96791500D03*
%TO.P,J3,B11,SSRXP1_B11*%
%TO.N,unconnected-(J3-SSRXP1-PadB11)*%
X136616005Y-95991500D03*
%TO.P,J3,B12,GND_B__1_B12*%
%TO.N,GND*%
X137316005Y-95591500D03*
D15*
%TO.P,J3,S1,SHELL_GND_S1*%
X136726005Y-94261500D03*
%TO.P,J3,S2,SHELL_GND__1_S2*%
X136726005Y-102521500D03*
%TO.P,J3,S3,SHELL_GND__2_S3*%
X132326005Y-93901501D03*
%TO.P,J3,S4,SHELL_GND__3_S4*%
X132326005Y-102881499D03*
%TD*%
D16*
%TO.P,TP10,1,1_1*%
%TO.N,/RX*%
X149538005Y-107141500D03*
%TD*%
%TO.P,TP9,1,1_1*%
%TO.N,/TX*%
X149538005Y-104141500D03*
%TD*%
%TO.P,TP8,1,1_1*%
%TO.N,/SCL*%
X152288005Y-90641500D03*
%TD*%
%TO.P,TP11,1,1_1*%
%TO.N,Net-(U4-GPIO19)*%
X158563005Y-94116500D03*
%TD*%
%TO.P,TP7,1,1_1*%
%TO.N,/SDA*%
X156288005Y-90641500D03*
%TD*%
D17*
%TO.N,GND*%
X167494143Y-97620840D03*
X160038005Y-106391500D03*
X166706744Y-98408240D03*
X153538005Y-91891500D03*
X151376005Y-98391500D03*
X167494142Y-98408238D03*
X167494142Y-99195638D03*
X165788005Y-92391500D03*
X173588005Y-96374499D03*
X173588005Y-97124499D03*
X157463863Y-99389938D03*
X186933237Y-101873345D03*
X180735369Y-94886938D03*
X168690006Y-98841501D03*
X149788005Y-113991500D03*
X161388005Y-102991500D03*
X174688005Y-99374499D03*
X182335369Y-96486938D03*
X174688005Y-100041502D03*
X164788005Y-92391500D03*
X153788005Y-105891500D03*
X171288005Y-100841501D03*
X178338005Y-99374499D03*
X163038005Y-106391500D03*
X154538005Y-109191500D03*
X138788005Y-110141500D03*
X176838005Y-97124499D03*
X153916005Y-99661500D03*
X169838005Y-97124499D03*
X179838005Y-99374499D03*
X152646005Y-97121500D03*
X180758685Y-100282180D03*
X175888005Y-99374499D03*
X172288005Y-100891500D03*
X187733237Y-100273345D03*
X152538005Y-93891500D03*
X180588005Y-99124499D03*
X179088005Y-97124499D03*
X152388005Y-109191500D03*
X182838005Y-99124499D03*
X186179078Y-95755700D03*
X187779077Y-94955700D03*
X171290005Y-99441503D03*
X141588005Y-96791500D03*
X144988005Y-94591500D03*
X182358685Y-100282180D03*
X162188005Y-110791500D03*
X165919344Y-99195639D03*
X161729005Y-93287499D03*
X181558685Y-101082180D03*
X187733237Y-101073345D03*
X186979078Y-96555700D03*
X186133237Y-101873345D03*
X186179078Y-94955699D03*
X159538005Y-100641500D03*
X165919343Y-98408239D03*
X150488005Y-109374499D03*
X142788005Y-102923300D03*
X164988005Y-109391500D03*
X186933237Y-101073345D03*
X179088005Y-99374499D03*
X182335368Y-95686938D03*
X176838005Y-96374499D03*
X180588005Y-97374499D03*
X181558684Y-100282180D03*
X180758685Y-101882180D03*
X165388005Y-103791500D03*
X165165003Y-100346501D03*
X175890006Y-100041500D03*
X169290006Y-100841500D03*
X155538005Y-104891501D03*
X151376005Y-97121499D03*
X186133237Y-101073345D03*
X163329005Y-90087499D03*
X186933237Y-100273344D03*
X171338005Y-97124499D03*
X161538005Y-106391500D03*
X181338005Y-97374499D03*
X179838005Y-97124499D03*
X182358685Y-101882180D03*
X147538005Y-104391500D03*
X141788005Y-85791500D03*
X178338005Y-97124499D03*
X180758684Y-101082180D03*
X154988005Y-99391500D03*
X176088005Y-95874499D03*
X186979078Y-95755699D03*
X170290007Y-100841500D03*
X173488005Y-100841500D03*
X180735369Y-95686937D03*
X187779078Y-95755700D03*
X181338005Y-99124499D03*
X166706742Y-99195638D03*
X140038005Y-111641500D03*
X143188004Y-106591500D03*
X172288005Y-91141500D03*
X137788005Y-104391500D03*
X153916005Y-97121500D03*
X182358684Y-101082180D03*
X180735369Y-96486938D03*
X187779078Y-96555699D03*
X181535368Y-94886938D03*
X151376005Y-99661501D03*
X181535369Y-96486938D03*
X166538005Y-92391500D03*
X146788005Y-83991500D03*
X146288004Y-106891500D03*
X162538005Y-109391501D03*
X187733237Y-101873345D03*
X159538005Y-92391500D03*
X155788005Y-107641500D03*
X155038005Y-106891500D03*
X165530006Y-94931501D03*
X174588005Y-95891500D03*
X164718004Y-100876502D03*
X175888005Y-100841501D03*
X186133237Y-100273345D03*
X172838005Y-97124499D03*
X153916004Y-98391500D03*
X152646005Y-99661500D03*
X156788004Y-108791500D03*
X170290005Y-99441501D03*
X164388005Y-110791501D03*
X163788005Y-92391500D03*
X152388005Y-107391500D03*
X156788005Y-103391500D03*
X143388005Y-94791500D03*
X175338005Y-95874499D03*
X148788005Y-108891500D03*
X182838005Y-97374499D03*
X170588005Y-97124499D03*
X152646005Y-98391500D03*
X181558684Y-101882180D03*
X168929004Y-82487499D03*
X152388005Y-105991500D03*
X166038004Y-106391500D03*
X148488005Y-92174499D03*
X164538005Y-106391500D03*
X178338005Y-100124499D03*
X162788005Y-103591500D03*
X165919344Y-97620840D03*
X177588005Y-97124499D03*
X174688005Y-100841501D03*
X186979078Y-94955700D03*
X171288004Y-100141500D03*
X181535369Y-95686938D03*
X172288005Y-100141500D03*
X153788005Y-107391500D03*
X182335369Y-94886938D03*
X182088005Y-97374499D03*
X172290007Y-99441500D03*
X138838005Y-94124499D03*
X177038005Y-106141500D03*
X166706744Y-97620838D03*
X144338005Y-101624499D03*
X186179078Y-96555699D03*
X142538005Y-99641500D03*
X182088005Y-99124499D03*
X177088005Y-100374499D03*
X172088005Y-97124499D03*
X162388005Y-95591500D03*
%TO.N,+3V3*%
X150188005Y-98191500D03*
X146588004Y-82391500D03*
X156788005Y-92891500D03*
X138388004Y-107991500D03*
X151788005Y-93391500D03*
X163529004Y-87287499D03*
X144188005Y-84391500D03*
X162270507Y-98162499D03*
X167929005Y-84487499D03*
X154988004Y-98191500D03*
X144188005Y-81191500D03*
X159729005Y-89487498D03*
X153588005Y-100791500D03*
X153588004Y-96191500D03*
X140788005Y-110141500D03*
X150188004Y-100591500D03*
X166490006Y-101674001D03*
X141588004Y-82391500D03*
X144188005Y-87391500D03*
X139788004Y-87391500D03*
X146538005Y-94141500D03*
%TO.N,+1V1*%
X150402505Y-98977000D03*
X154988005Y-97191500D03*
X150388005Y-96591500D03*
%TO.N,/DCC_FB*%
X164290006Y-100041500D03*
X167440008Y-95441501D03*
%TO.N,/NSS_TRANS*%
X154988005Y-100591500D03*
X168588005Y-105191500D03*
%TO.N,/USB_D+*%
X143988005Y-97391500D03*
X139788004Y-97991500D03*
%TD*%
%TO.N,+3V3*%
D18*
X161090005Y-99343001D02*
X161090004Y-100641501D01*
X161090004Y-100641501D02*
X162122507Y-101674001D01*
X162122507Y-101674001D02*
X166490006Y-101674001D01*
X162270507Y-98162499D02*
X161090005Y-99343001D01*
%TO.N,+1V1*%
D19*
X150402505Y-98977000D02*
X150715005Y-98664501D01*
X154397006Y-97782499D02*
X151046005Y-97782499D01*
X150715005Y-98664501D02*
X150715005Y-98416579D01*
X150388005Y-97124499D02*
X150388005Y-96591500D01*
X150719805Y-98411779D02*
X150719805Y-97456299D01*
X150715005Y-98416579D02*
X150719805Y-98411779D01*
X151046005Y-97782499D02*
X150388005Y-97124499D01*
X150719805Y-97456299D02*
X150513005Y-97249499D01*
X154988005Y-97191500D02*
X154397006Y-97782499D01*
%TO.N,/DCC_FB*%
D18*
X164290006Y-98241500D02*
X167090006Y-95441500D01*
X164290006Y-100041500D02*
X164290006Y-98241500D01*
X167090006Y-95441500D02*
X167440008Y-95441501D01*
%TO.N,/NSS_TRANS*%
D19*
X154988005Y-100752412D02*
X154988005Y-100591500D01*
X160027093Y-105791500D02*
X154988005Y-100752412D01*
X167988005Y-105791500D02*
X160027093Y-105791500D01*
X168588005Y-105191500D02*
X167988005Y-105791500D01*
%TO.N,/USB_D+*%
X138988005Y-98791500D02*
X139788004Y-97991500D01*
X143988005Y-97391500D02*
X140388005Y-97391500D01*
X137316004Y-98791500D02*
X138988005Y-98791500D01*
X140388005Y-97391500D02*
X139788004Y-97991500D01*
%TD*%
M02*
