%TF.GenerationSoftware,KiCad,Pcbnew,10.0.6-10.0.6~ubuntu26.04.1*%
%TF.CreationDate,2026-09-21T23:18:22-04:00*%
%TF.ProjectId,PHOBOS_Control_Digital,50484f42-4f53-45f4-936f-6e74726f6c5f,rev?*%
%TF.SameCoordinates,Original*%
%TF.FileFunction,Copper,L2,Inr*%
%TF.FilePolarity,Positive*%
%FSLAX46Y46*%
G04 Gerber Fmt 4.6, Leading zero omitted, Abs format (unit mm)*
G04 Created by KiCad (PCBNEW 10.0.6-10.0.6~ubuntu26.04.1) date 2026-09-21 23:18:22*
%MOMM*%
%LPD*%
G01*
G04 APERTURE LIST*
G04 Aperture macros list*
%AMRoundRect*
0 Rectangle with rounded corners*
0 $1 Rounding radius*
0 $2 $3 $4 $5 $6 $7 $8 $9 X,Y pos of 4 corners*
0 Add a 4 corners polygon primitive as box body*
4,1,4,$2,$3,$4,$5,$6,$7,$8,$9,$2,$3,0*
0 Add four circle primitives for the rounded corners*
1,1,$1+$1,$2,$3*
1,1,$1+$1,$4,$5*
1,1,$1+$1,$6,$7*
1,1,$1+$1,$8,$9*
0 Add four rect primitives between the rounded corners*
20,1,$1+$1,$2,$3,$4,$5,0*
20,1,$1+$1,$4,$5,$6,$7,0*
20,1,$1+$1,$6,$7,$8,$9,0*
20,1,$1+$1,$8,$9,$2,$3,0*%
G04 Aperture macros list end*
%TA.AperFunction,ComponentPad*%
%ADD10RoundRect,0.250001X0.949999X0.949999X-0.949999X0.949999X-0.949999X-0.949999X0.949999X-0.949999X0*%
%TD*%
%TA.AperFunction,ComponentPad*%
%ADD11C,2.400000*%
%TD*%
%TA.AperFunction,ComponentPad*%
%ADD12R,1.700000X1.700000*%
%TD*%
%TA.AperFunction,ComponentPad*%
%ADD13C,1.700000*%
%TD*%
%TA.AperFunction,ComponentPad*%
%ADD14C,0.600000*%
%TD*%
%TA.AperFunction,ComponentPad*%
%ADD15O,1.400000X0.800000*%
%TD*%
%TA.AperFunction,ComponentPad*%
%ADD16C,2.000000*%
%TD*%
%TA.AperFunction,ViaPad*%
%ADD17C,0.584200*%
%TD*%
G04 APERTURE END LIST*
D10*
%TO.N,GND*%
%TO.C,J4*%
X155712006Y-85225501D03*
D11*
%TO.N,+BATT*%
X152212006Y-85225501D03*
%TD*%
D12*
%TO.N,GND*%
%TO.C,J8*%
X141798005Y-114245501D03*
D13*
%TO.N,/QSPI_SS*%
X144338005Y-114245501D03*
%TD*%
D14*
%TO.N,GND*%
%TO.C,J3*%
X137316005Y-101191500D03*
%TO.N,unconnected-(J3-SSTXP2-PadB2)*%
X136616005Y-100791500D03*
%TO.N,unconnected-(J3-SSTXN2-PadB3)*%
X136616005Y-99991500D03*
%TO.N,VBUS*%
X137316005Y-99591500D03*
%TO.N,Net-(J3-CC2)*%
X136616006Y-99191500D03*
%TO.N,/USB_D+*%
X137316005Y-98791500D03*
%TO.N,/USB_D-*%
X137316005Y-97991500D03*
%TO.N,unconnected-(J3-SBU2-PadB8)*%
X136616006Y-97591500D03*
%TO.N,VBUS*%
X137316005Y-97191500D03*
%TO.N,unconnected-(J3-SSRXN1-PadB10)*%
X136616005Y-96791500D03*
%TO.N,unconnected-(J3-SSRXP1-PadB11)*%
X136616005Y-95991500D03*
%TO.N,GND*%
X137316005Y-95591500D03*
D15*
X136726005Y-94261500D03*
X136726005Y-102521500D03*
X132326005Y-93901501D03*
X132326005Y-102881499D03*
%TD*%
D16*
%TO.N,/RX*%
%TO.C,TP10*%
X149538005Y-107141500D03*
%TD*%
%TO.N,/TX*%
%TO.C,TP9*%
X149538005Y-104141500D03*
%TD*%
%TO.N,/SCL*%
%TO.C,TP8*%
X152288005Y-90641500D03*
%TD*%
%TO.N,Net-(U4-GPIO19)*%
%TO.C,TP11*%
X158563005Y-94116500D03*
%TD*%
%TO.N,/SDA*%
%TO.C,TP7*%
X156288005Y-90641500D03*
%TD*%
D17*
%TO.N,GND*%
X167494143Y-97620840D03*
X160038005Y-106391500D03*
X166706744Y-98408240D03*
X153538005Y-91891500D03*
X151376005Y-98391500D03*
X167494142Y-98408238D03*
X167494142Y-99195638D03*
X165788005Y-92391500D03*
X173588005Y-96374499D03*
X173588005Y-97124499D03*
X157463863Y-99389938D03*
X186933237Y-101873345D03*
X180735369Y-94886938D03*
X168690006Y-98841501D03*
X149788005Y-113991500D03*
X161388005Y-102991500D03*
X174688005Y-99374499D03*
X182335369Y-96486938D03*
X174688005Y-100041502D03*
X164788005Y-92391500D03*
X153788005Y-105891500D03*
X171288005Y-100841501D03*
X178338005Y-99374499D03*
X163038005Y-106391500D03*
X154538005Y-109191500D03*
X138788005Y-110141500D03*
X176838005Y-97124499D03*
X153916005Y-99661500D03*
X169838005Y-97124499D03*
X179838005Y-99374499D03*
X152646005Y-97121500D03*
X180758685Y-100282180D03*
X175888005Y-99374499D03*
X172288005Y-100891500D03*
X187733237Y-100273345D03*
X152538005Y-93891500D03*
X180588005Y-99124499D03*
X179088005Y-97124499D03*
X152388005Y-109191500D03*
X182838005Y-99124499D03*
X186179078Y-95755700D03*
X187779077Y-94955700D03*
X171290005Y-99441503D03*
X141588005Y-96791500D03*
X144988005Y-94591500D03*
X182358685Y-100282180D03*
X162188005Y-110791500D03*
X165919344Y-99195639D03*
X161729005Y-93287499D03*
X181558685Y-101082180D03*
X187733237Y-101073345D03*
X186979078Y-96555700D03*
X186133237Y-101873345D03*
X186179078Y-94955699D03*
X159538005Y-100641500D03*
X165919343Y-98408239D03*
X150488005Y-109374499D03*
X142788005Y-102923300D03*
X164988005Y-109391500D03*
X186933237Y-101073345D03*
X179088005Y-99374499D03*
X182335368Y-95686938D03*
X176838005Y-96374499D03*
X180588005Y-97374499D03*
X181558684Y-100282180D03*
X180758685Y-101882180D03*
X165388005Y-103791500D03*
X165165003Y-100346501D03*
X175890006Y-100041500D03*
X169290006Y-100841500D03*
X155538005Y-104891501D03*
X151376005Y-97121499D03*
X186133237Y-101073345D03*
X163329005Y-90087499D03*
X186933237Y-100273344D03*
X171338005Y-97124499D03*
X161538005Y-106391500D03*
X181338005Y-97374499D03*
X179838005Y-97124499D03*
X182358685Y-101882180D03*
X147538005Y-104391500D03*
X141788005Y-85791500D03*
X178338005Y-97124499D03*
X180758684Y-101082180D03*
X154988005Y-99391500D03*
X176088005Y-95874499D03*
X186979078Y-95755699D03*
X170290007Y-100841500D03*
X173488005Y-100841500D03*
X180735369Y-95686937D03*
X187779078Y-95755700D03*
X181338005Y-99124499D03*
X166706742Y-99195638D03*
X140038005Y-111641500D03*
X143188004Y-106591500D03*
X172288005Y-91141500D03*
X137788005Y-104391500D03*
X153916005Y-97121500D03*
X182358684Y-101082180D03*
X180735369Y-96486938D03*
X187779078Y-96555699D03*
X181535368Y-94886938D03*
X151376005Y-99661501D03*
X181535369Y-96486938D03*
X166538005Y-92391500D03*
X146788005Y-83991500D03*
X146288004Y-106891500D03*
X162538005Y-109391501D03*
X187733237Y-101873345D03*
X159538005Y-92391500D03*
X155788005Y-107641500D03*
X155038005Y-106891500D03*
X165530006Y-94931501D03*
X174588005Y-95891500D03*
X164718004Y-100876502D03*
X175888005Y-100841501D03*
X186133237Y-100273345D03*
X172838005Y-97124499D03*
X153916004Y-98391500D03*
X152646005Y-99661500D03*
X156788004Y-108791500D03*
X170290005Y-99441501D03*
X164388005Y-110791501D03*
X163788005Y-92391500D03*
X152388005Y-107391500D03*
X156788005Y-103391500D03*
X143388005Y-94791500D03*
X175338005Y-95874499D03*
X148788005Y-108891500D03*
X182838005Y-97374499D03*
X170588005Y-97124499D03*
X152646005Y-98391500D03*
X181558684Y-101882180D03*
X168929004Y-82487499D03*
X152388005Y-105991500D03*
X166038004Y-106391500D03*
X148488005Y-92174499D03*
X164538005Y-106391500D03*
X178338005Y-100124499D03*
X162788005Y-103591500D03*
X165919344Y-97620840D03*
X177588005Y-97124499D03*
X174688005Y-100841501D03*
X186979078Y-94955700D03*
X171288004Y-100141500D03*
X181535369Y-95686938D03*
X172288005Y-100141500D03*
X153788005Y-107391500D03*
X182335369Y-94886938D03*
X182088005Y-97374499D03*
X172290007Y-99441500D03*
X138838005Y-94124499D03*
X177038005Y-106141500D03*
X166706744Y-97620838D03*
X144338005Y-101624499D03*
X186179078Y-96555699D03*
X142538005Y-99641500D03*
X182088005Y-99124499D03*
X177088005Y-100374499D03*
X172088005Y-97124499D03*
X162388005Y-95591500D03*
%TO.N,+3V3*%
X150188005Y-98191500D03*
X146588004Y-82391500D03*
X156788005Y-92891500D03*
X138388004Y-107991500D03*
X151788005Y-93391500D03*
X163529004Y-87287499D03*
X144188005Y-84391500D03*
X162270507Y-98162499D03*
X167929005Y-84487499D03*
X154988004Y-98191500D03*
X144188005Y-81191500D03*
X159729005Y-89487498D03*
X153588005Y-100791500D03*
X153588004Y-96191500D03*
X140788005Y-110141500D03*
X150188004Y-100591500D03*
X166490006Y-101674001D03*
X141588004Y-82391500D03*
X144188005Y-87391500D03*
X139788004Y-87391500D03*
X146538005Y-94141500D03*
%TO.N,+1V1*%
X150402505Y-98977000D03*
X154988005Y-97191500D03*
X150388005Y-96591500D03*
%TO.N,/DCC_FB*%
X164290006Y-100041500D03*
X167440008Y-95441501D03*
%TO.N,/NSS_TRANS*%
X154988005Y-100591500D03*
X168588005Y-105191500D03*
%TO.N,/USB_D+*%
X143988005Y-97391500D03*
X139788004Y-97991500D03*
%TD*%
%TA.AperFunction,Conductor*%
%TO.N,GND*%
G36*
X143740856Y-80865186D02*
G01*
X143786611Y-80917990D01*
X143796555Y-80987148D01*
X143786452Y-81016373D01*
X143788277Y-81017129D01*
X143785166Y-81024637D01*
X143765525Y-81097937D01*
X143755705Y-81134587D01*
X143755705Y-81248413D01*
X143775345Y-81321711D01*
X143785166Y-81358362D01*
X143785169Y-81358367D01*
X143842074Y-81456931D01*
X143842078Y-81456936D01*
X143842079Y-81456938D01*
X143922567Y-81537426D01*
X143922569Y-81537427D01*
X143922573Y-81537430D01*
X144021137Y-81594335D01*
X144021144Y-81594339D01*
X144131092Y-81623800D01*
X144131094Y-81623800D01*
X144244916Y-81623800D01*
X144244918Y-81623800D01*
X144354866Y-81594339D01*
X144453443Y-81537426D01*
X144533931Y-81456938D01*
X144590844Y-81358361D01*
X144620305Y-81248413D01*
X144620305Y-81134587D01*
X144590844Y-81024639D01*
X144590843Y-81024637D01*
X144587733Y-81017129D01*
X144590977Y-81015785D01*
X144578338Y-80963501D01*
X144601244Y-80897492D01*
X144656200Y-80854346D01*
X144702193Y-80845501D01*
X188460305Y-80845501D01*
X188527344Y-80865186D01*
X188573099Y-80917990D01*
X188584305Y-80969501D01*
X188584305Y-115843800D01*
X188564620Y-115910839D01*
X188511816Y-115956594D01*
X188460305Y-115967800D01*
X130695704Y-115967800D01*
X130628665Y-115948115D01*
X130582910Y-115895311D01*
X130571704Y-115843800D01*
X130571704Y-111596734D01*
X131302637Y-111596734D01*
X131302637Y-111766008D01*
X131310691Y-111935089D01*
X131310692Y-111935099D01*
X131326782Y-112103607D01*
X131326783Y-112103611D01*
X131350868Y-112271132D01*
X131350871Y-112271146D01*
X131382907Y-112437360D01*
X131422815Y-112601868D01*
X131470506Y-112764285D01*
X131470509Y-112764293D01*
X131525868Y-112924242D01*
X131588780Y-113081389D01*
X131588788Y-113081407D01*
X131588792Y-113081416D01*
X131621673Y-113153414D01*
X131659099Y-113235366D01*
X131736664Y-113385822D01*
X131759825Y-113425938D01*
X131821296Y-113532409D01*
X131821298Y-113532412D01*
X131912805Y-113674800D01*
X131912807Y-113674803D01*
X131912817Y-113674818D01*
X131985201Y-113776467D01*
X132011003Y-113812701D01*
X132115642Y-113945762D01*
X132115653Y-113945776D01*
X132226482Y-114073678D01*
X132226486Y-114073682D01*
X132226493Y-114073690D01*
X132297319Y-114147970D01*
X132343294Y-114196188D01*
X132343299Y-114196193D01*
X132343305Y-114196199D01*
X132343317Y-114196210D01*
X132465826Y-114313023D01*
X132465830Y-114313026D01*
X132593741Y-114423861D01*
X132593744Y-114423863D01*
X132593754Y-114423872D01*
X132726761Y-114528470D01*
X132726780Y-114528484D01*
X132726799Y-114528499D01*
X132760515Y-114552508D01*
X132864670Y-114626677D01*
X132864700Y-114626697D01*
X133007087Y-114718203D01*
X133153681Y-114802840D01*
X133304137Y-114880405D01*
X133458088Y-114950712D01*
X133458114Y-114950724D01*
X133458125Y-114950729D01*
X133615235Y-115013627D01*
X133615239Y-115013628D01*
X133615261Y-115013637D01*
X133775225Y-115069001D01*
X133937641Y-115116690D01*
X134102143Y-115156598D01*
X134268357Y-115188633D01*
X134435907Y-115212723D01*
X134604414Y-115228814D01*
X134773495Y-115236868D01*
X134858132Y-115237372D01*
X134942769Y-115236868D01*
X135111850Y-115228814D01*
X135280357Y-115212724D01*
X135447907Y-115188634D01*
X135614121Y-115156598D01*
X135778623Y-115116691D01*
X135941039Y-115069001D01*
X136101003Y-115013637D01*
X136258150Y-114950725D01*
X136412127Y-114880406D01*
X136562583Y-114802841D01*
X136709178Y-114718204D01*
X136851579Y-114626688D01*
X136989465Y-114528500D01*
X137122523Y-114423863D01*
X137250451Y-114313012D01*
X137372960Y-114196200D01*
X137489772Y-114073692D01*
X137600622Y-113945764D01*
X137705260Y-113812706D01*
X137803448Y-113674820D01*
X137894964Y-113532418D01*
X137979601Y-113385824D01*
X137999278Y-113347656D01*
X140448005Y-113347656D01*
X140448005Y-113995501D01*
X141364993Y-113995501D01*
X141332080Y-114052508D01*
X141298005Y-114179675D01*
X141298005Y-114311327D01*
X141332080Y-114438494D01*
X141364993Y-114495501D01*
X140448005Y-114495501D01*
X140448005Y-115143345D01*
X140454406Y-115202873D01*
X140454408Y-115202880D01*
X140504650Y-115337587D01*
X140504654Y-115337594D01*
X140590814Y-115452688D01*
X140590817Y-115452691D01*
X140705911Y-115538851D01*
X140705918Y-115538855D01*
X140840625Y-115589097D01*
X140840632Y-115589099D01*
X140900160Y-115595500D01*
X140900177Y-115595501D01*
X141548005Y-115595501D01*
X141548005Y-114678513D01*
X141605012Y-114711426D01*
X141732179Y-114745501D01*
X141863831Y-114745501D01*
X141990998Y-114711426D01*
X142048005Y-114678513D01*
X142048005Y-115595501D01*
X142695833Y-115595501D01*
X142695849Y-115595500D01*
X142755377Y-115589099D01*
X142755384Y-115589097D01*
X142890091Y-115538855D01*
X142890098Y-115538851D01*
X143005192Y-115452691D01*
X143005195Y-115452688D01*
X143091355Y-115337594D01*
X143091359Y-115337587D01*
X143141601Y-115202880D01*
X143141603Y-115202873D01*
X143148004Y-115143345D01*
X143148005Y-115143328D01*
X143148005Y-114583493D01*
X143167690Y-114516454D01*
X143220494Y-114470699D01*
X143289652Y-114460755D01*
X143353208Y-114489780D01*
X143386566Y-114536041D01*
X143460498Y-114714532D01*
X143460499Y-114714534D01*
X143568866Y-114876716D01*
X143568869Y-114876720D01*
X143706785Y-115014636D01*
X143706789Y-115014639D01*
X143868969Y-115123005D01*
X143868970Y-115123005D01*
X143868971Y-115123006D01*
X143868973Y-115123007D01*
X144027410Y-115188633D01*
X144049174Y-115197648D01*
X144205836Y-115228810D01*
X144240474Y-115235700D01*
X144240477Y-115235701D01*
X144240479Y-115235701D01*
X144435533Y-115235701D01*
X144435534Y-115235700D01*
X144626836Y-115197648D01*
X144807041Y-115123005D01*
X144969221Y-115014639D01*
X145107143Y-114876717D01*
X145215509Y-114714537D01*
X145290152Y-114534332D01*
X145328205Y-114343027D01*
X145328205Y-114147975D01*
X145328205Y-114147972D01*
X145328204Y-114147970D01*
X145313429Y-114073690D01*
X145290152Y-113956670D01*
X145285636Y-113945767D01*
X145215511Y-113776469D01*
X145215510Y-113776467D01*
X145107143Y-113614285D01*
X145107140Y-113614281D01*
X144969224Y-113476365D01*
X144969220Y-113476362D01*
X144807038Y-113367995D01*
X144807036Y-113367994D01*
X144626840Y-113293355D01*
X144626828Y-113293352D01*
X144435534Y-113255301D01*
X144435531Y-113255301D01*
X144240479Y-113255301D01*
X144240476Y-113255301D01*
X144049181Y-113293352D01*
X144049169Y-113293355D01*
X143868973Y-113367994D01*
X143868971Y-113367995D01*
X143706789Y-113476362D01*
X143706785Y-113476365D01*
X143568869Y-113614281D01*
X143568866Y-113614285D01*
X143460499Y-113776467D01*
X143460498Y-113776469D01*
X143386566Y-113954960D01*
X143342725Y-114009364D01*
X143276431Y-114031429D01*
X143208732Y-114014150D01*
X143161121Y-113963013D01*
X143148005Y-113907508D01*
X143148005Y-113347673D01*
X143148004Y-113347656D01*
X143141603Y-113288128D01*
X143141601Y-113288121D01*
X143091359Y-113153414D01*
X143091355Y-113153407D01*
X143005195Y-113038313D01*
X143005192Y-113038310D01*
X142890098Y-112952150D01*
X142890091Y-112952146D01*
X142755384Y-112901904D01*
X142755377Y-112901902D01*
X142695849Y-112895501D01*
X142048005Y-112895501D01*
X142048005Y-113812489D01*
X141990998Y-113779576D01*
X141863831Y-113745501D01*
X141732179Y-113745501D01*
X141605012Y-113779576D01*
X141548005Y-113812489D01*
X141548005Y-112895501D01*
X140900160Y-112895501D01*
X140840632Y-112901902D01*
X140840625Y-112901904D01*
X140705918Y-112952146D01*
X140705911Y-112952150D01*
X140590817Y-113038310D01*
X140590814Y-113038313D01*
X140504654Y-113153407D01*
X140504650Y-113153414D01*
X140454408Y-113288121D01*
X140454406Y-113288128D01*
X140448005Y-113347656D01*
X137999278Y-113347656D01*
X138057166Y-113235368D01*
X138127485Y-113081391D01*
X138190398Y-112924244D01*
X138245762Y-112764280D01*
X138293451Y-112601864D01*
X138333359Y-112437362D01*
X138365394Y-112271148D01*
X138389484Y-112103598D01*
X138405575Y-111935091D01*
X138413629Y-111766010D01*
X138413629Y-111596739D01*
X180742381Y-111596739D01*
X180742381Y-111766004D01*
X180750436Y-111935107D01*
X180750438Y-111935130D01*
X180766523Y-112103570D01*
X180766528Y-112103612D01*
X180790612Y-112271122D01*
X180790618Y-112271158D01*
X180822650Y-112437358D01*
X180862559Y-112601869D01*
X180910250Y-112764286D01*
X180928686Y-112817553D01*
X180965612Y-112924243D01*
X180965617Y-112924255D01*
X180965621Y-112924268D01*
X181028525Y-113081391D01*
X181098848Y-113235379D01*
X181156732Y-113347656D01*
X181176409Y-113385823D01*
X181176410Y-113385824D01*
X181176423Y-113385847D01*
X181261040Y-113532410D01*
X181261042Y-113532413D01*
X181261044Y-113532417D01*
X181352549Y-113674801D01*
X181352570Y-113674833D01*
X181427158Y-113779576D01*
X181450749Y-113812705D01*
X181450750Y-113812706D01*
X181450777Y-113812742D01*
X181555375Y-113945749D01*
X181555384Y-113945759D01*
X181555387Y-113945763D01*
X181564834Y-113956665D01*
X181666221Y-114073673D01*
X181666224Y-114073677D01*
X181783048Y-114196200D01*
X181905571Y-114313024D01*
X181905575Y-114313027D01*
X181940202Y-114343031D01*
X182033486Y-114423862D01*
X182033490Y-114423865D01*
X182033499Y-114423873D01*
X182166506Y-114528471D01*
X182166525Y-114528485D01*
X182166544Y-114528500D01*
X182174723Y-114534324D01*
X182304415Y-114626678D01*
X182304445Y-114626698D01*
X182446831Y-114718204D01*
X182593426Y-114802840D01*
X182593442Y-114802848D01*
X182743869Y-114880400D01*
X182743880Y-114880405D01*
X182743882Y-114880406D01*
X182897859Y-114950724D01*
X182949340Y-114971334D01*
X183054980Y-115013627D01*
X183054984Y-115013628D01*
X183055006Y-115013637D01*
X183214970Y-115069001D01*
X183377379Y-115116689D01*
X183377378Y-115116689D01*
X183377384Y-115116690D01*
X183377386Y-115116691D01*
X183541888Y-115156598D01*
X183708102Y-115188633D01*
X183875652Y-115212723D01*
X184044159Y-115228814D01*
X184213240Y-115236868D01*
X184297877Y-115237372D01*
X184382514Y-115236868D01*
X184551595Y-115228814D01*
X184720102Y-115212723D01*
X184887652Y-115188633D01*
X185053866Y-115156598D01*
X185218368Y-115116691D01*
X185380784Y-115069001D01*
X185540748Y-115013637D01*
X185697895Y-114950724D01*
X185851872Y-114880406D01*
X186002328Y-114802840D01*
X186148923Y-114718204D01*
X186291324Y-114626688D01*
X186429210Y-114528500D01*
X186478447Y-114489780D01*
X186562254Y-114423873D01*
X186562255Y-114423872D01*
X186562268Y-114423862D01*
X186690196Y-114313012D01*
X186812705Y-114196200D01*
X186929517Y-114073691D01*
X187040367Y-113945763D01*
X187145005Y-113812705D01*
X187243193Y-113674819D01*
X187334709Y-113532418D01*
X187419345Y-113385823D01*
X187496911Y-113235367D01*
X187567229Y-113081390D01*
X187630142Y-112924243D01*
X187685506Y-112764279D01*
X187733196Y-112601863D01*
X187773103Y-112437361D01*
X187805138Y-112271147D01*
X187829228Y-112103597D01*
X187845319Y-111935090D01*
X187853373Y-111766009D01*
X187853373Y-111596735D01*
X187845319Y-111427654D01*
X187829228Y-111259147D01*
X187805138Y-111091597D01*
X187773103Y-110925383D01*
X187733196Y-110760881D01*
X187685506Y-110598465D01*
X187630142Y-110438501D01*
X187630131Y-110438474D01*
X187587839Y-110332835D01*
X187567229Y-110281354D01*
X187496911Y-110127377D01*
X187496910Y-110127375D01*
X187496905Y-110127364D01*
X187419353Y-109976937D01*
X187419345Y-109976921D01*
X187334709Y-109830326D01*
X187243193Y-109687925D01*
X187243191Y-109687922D01*
X187243183Y-109687910D01*
X187145016Y-109550055D01*
X187145005Y-109550039D01*
X187144990Y-109550020D01*
X187144976Y-109550001D01*
X187040378Y-109416994D01*
X187040370Y-109416985D01*
X187040367Y-109416981D01*
X186929531Y-109289069D01*
X186929529Y-109289066D01*
X186812705Y-109166543D01*
X186690182Y-109049719D01*
X186690178Y-109049716D01*
X186626029Y-108994131D01*
X186562268Y-108938882D01*
X186562264Y-108938879D01*
X186562254Y-108938870D01*
X186429247Y-108834272D01*
X186429211Y-108834245D01*
X186429210Y-108834244D01*
X186415647Y-108824586D01*
X186291338Y-108736065D01*
X186291306Y-108736044D01*
X186195982Y-108674783D01*
X186148923Y-108644540D01*
X186148918Y-108644537D01*
X186148915Y-108644535D01*
X186002352Y-108559918D01*
X186002328Y-108559904D01*
X186002311Y-108559895D01*
X185851884Y-108482343D01*
X185697896Y-108412020D01*
X185540773Y-108349116D01*
X185540760Y-108349112D01*
X185540748Y-108349107D01*
X185434058Y-108312181D01*
X185380791Y-108293745D01*
X185218374Y-108246054D01*
X185218375Y-108246054D01*
X185053863Y-108206145D01*
X184887663Y-108174113D01*
X184887658Y-108174112D01*
X184887652Y-108174111D01*
X184887644Y-108174109D01*
X184887627Y-108174107D01*
X184720117Y-108150023D01*
X184720110Y-108150022D01*
X184720102Y-108150021D01*
X184720092Y-108150020D01*
X184720075Y-108150018D01*
X184551635Y-108133933D01*
X184551612Y-108133931D01*
X184551598Y-108133930D01*
X184551595Y-108133930D01*
X184382514Y-108125876D01*
X184213240Y-108125876D01*
X184044159Y-108133930D01*
X184044156Y-108133930D01*
X184044141Y-108133931D01*
X184044118Y-108133933D01*
X183875678Y-108150018D01*
X183875656Y-108150020D01*
X183875652Y-108150021D01*
X183875648Y-108150021D01*
X183875636Y-108150023D01*
X183708126Y-108174107D01*
X183708090Y-108174113D01*
X183541890Y-108206145D01*
X183377379Y-108246054D01*
X183214962Y-108293745D01*
X183118081Y-108327276D01*
X183055006Y-108349107D01*
X183054996Y-108349110D01*
X183054993Y-108349112D01*
X183054980Y-108349116D01*
X182897857Y-108412020D01*
X182743869Y-108482343D01*
X182593442Y-108559895D01*
X182593401Y-108559918D01*
X182446838Y-108644535D01*
X182446835Y-108644537D01*
X182304447Y-108736044D01*
X182304415Y-108736065D01*
X182166560Y-108834232D01*
X182166506Y-108834272D01*
X182033499Y-108938870D01*
X182033482Y-108938885D01*
X181905575Y-109049716D01*
X181905571Y-109049719D01*
X181783048Y-109166543D01*
X181666224Y-109289066D01*
X181666221Y-109289070D01*
X181555390Y-109416977D01*
X181555375Y-109416994D01*
X181450777Y-109550001D01*
X181450737Y-109550055D01*
X181352570Y-109687910D01*
X181352549Y-109687942D01*
X181261042Y-109830330D01*
X181261040Y-109830333D01*
X181176423Y-109976896D01*
X181176400Y-109976937D01*
X181098848Y-110127364D01*
X181028525Y-110281352D01*
X180965621Y-110438475D01*
X180965617Y-110438488D01*
X180965612Y-110438501D01*
X180965612Y-110438502D01*
X180910250Y-110598457D01*
X180862559Y-110760874D01*
X180822650Y-110925385D01*
X180790618Y-111091585D01*
X180790612Y-111091621D01*
X180766528Y-111259131D01*
X180766523Y-111259173D01*
X180750438Y-111427613D01*
X180750436Y-111427636D01*
X180742381Y-111596739D01*
X138413629Y-111596739D01*
X138413629Y-111596736D01*
X138405575Y-111427655D01*
X138389485Y-111259148D01*
X138365395Y-111091598D01*
X138333359Y-110925384D01*
X138293452Y-110760882D01*
X138245762Y-110598466D01*
X138190398Y-110438502D01*
X138127486Y-110281355D01*
X138089607Y-110198411D01*
X138057438Y-110127970D01*
X138057172Y-110127388D01*
X138035107Y-110084588D01*
X138035106Y-110084587D01*
X140355705Y-110084587D01*
X140355705Y-110198413D01*
X140375345Y-110271711D01*
X140385166Y-110308362D01*
X140385169Y-110308367D01*
X140442074Y-110406931D01*
X140442078Y-110406936D01*
X140442079Y-110406938D01*
X140522567Y-110487426D01*
X140522569Y-110487427D01*
X140522573Y-110487430D01*
X140621137Y-110544335D01*
X140621144Y-110544339D01*
X140731092Y-110573800D01*
X140731094Y-110573800D01*
X140844916Y-110573800D01*
X140844918Y-110573800D01*
X140954866Y-110544339D01*
X141053443Y-110487426D01*
X141133931Y-110406938D01*
X141190844Y-110308361D01*
X141220305Y-110198413D01*
X141220305Y-110084587D01*
X141190844Y-109974639D01*
X141190840Y-109974632D01*
X141133935Y-109876068D01*
X141133929Y-109876060D01*
X141053444Y-109795575D01*
X141053436Y-109795569D01*
X140954872Y-109738664D01*
X140954867Y-109738661D01*
X140918216Y-109728840D01*
X140844918Y-109709200D01*
X140731092Y-109709200D01*
X140676118Y-109723930D01*
X140621142Y-109738661D01*
X140621137Y-109738664D01*
X140522573Y-109795569D01*
X140522565Y-109795575D01*
X140442080Y-109876060D01*
X140442074Y-109876068D01*
X140385169Y-109974632D01*
X140385166Y-109974637D01*
X140384554Y-109976922D01*
X140355705Y-110084587D01*
X138035106Y-110084587D01*
X137979602Y-109976922D01*
X137894965Y-109830327D01*
X137803449Y-109687926D01*
X137705261Y-109550040D01*
X137600624Y-109416982D01*
X137600619Y-109416976D01*
X137600612Y-109416967D01*
X137489783Y-109289065D01*
X137489779Y-109289061D01*
X137489773Y-109289054D01*
X137372961Y-109166545D01*
X137250453Y-109049733D01*
X137250448Y-109049729D01*
X137250439Y-109049720D01*
X137250435Y-109049717D01*
X137122528Y-108938886D01*
X137122523Y-108938882D01*
X137122521Y-108938880D01*
X137122511Y-108938871D01*
X136989504Y-108834273D01*
X136989479Y-108834255D01*
X136989467Y-108834245D01*
X136975904Y-108824587D01*
X136851595Y-108736066D01*
X136851563Y-108736045D01*
X136797912Y-108701566D01*
X136709179Y-108644541D01*
X136614551Y-108589907D01*
X136562591Y-108559907D01*
X136562587Y-108559905D01*
X136562585Y-108559904D01*
X136412129Y-108482339D01*
X136412114Y-108482332D01*
X136258151Y-108412019D01*
X136258140Y-108412014D01*
X136101030Y-108349116D01*
X136101017Y-108349112D01*
X136101005Y-108349107D01*
X136000392Y-108314284D01*
X135941054Y-108293747D01*
X135941044Y-108293744D01*
X135941041Y-108293743D01*
X135900026Y-108281700D01*
X135778631Y-108246055D01*
X135614119Y-108206145D01*
X135447920Y-108174113D01*
X135447915Y-108174112D01*
X135447909Y-108174111D01*
X135447901Y-108174109D01*
X135447884Y-108174107D01*
X135280374Y-108150023D01*
X135280367Y-108150022D01*
X135280359Y-108150021D01*
X135280349Y-108150020D01*
X135280332Y-108150018D01*
X135111892Y-108133933D01*
X135111869Y-108133931D01*
X135111855Y-108133930D01*
X135111852Y-108133930D01*
X134942771Y-108125876D01*
X134773497Y-108125876D01*
X134604416Y-108133930D01*
X134604406Y-108133930D01*
X134604405Y-108133931D01*
X134435897Y-108150021D01*
X134435893Y-108150022D01*
X134268372Y-108174107D01*
X134268358Y-108174110D01*
X134102144Y-108206146D01*
X133937636Y-108246054D01*
X133775219Y-108293745D01*
X133615265Y-108349106D01*
X133615263Y-108349107D01*
X133458116Y-108412019D01*
X133458114Y-108412020D01*
X133458088Y-108412031D01*
X133304151Y-108482332D01*
X133304142Y-108482336D01*
X133304139Y-108482338D01*
X133153699Y-108559895D01*
X133153683Y-108559903D01*
X133153658Y-108559917D01*
X133007095Y-108644535D01*
X133007092Y-108644537D01*
X132864704Y-108736044D01*
X132864701Y-108736046D01*
X132726803Y-108834242D01*
X132593742Y-108938881D01*
X132593728Y-108938892D01*
X132465826Y-109049721D01*
X132465815Y-109049732D01*
X132343316Y-109166533D01*
X132226481Y-109289065D01*
X132226478Y-109289069D01*
X132115647Y-109416976D01*
X132115632Y-109416993D01*
X132011034Y-109550000D01*
X132010994Y-109550054D01*
X131912827Y-109687909D01*
X131912806Y-109687941D01*
X131843635Y-109795575D01*
X131821302Y-109830326D01*
X131803986Y-109860317D01*
X131736668Y-109976913D01*
X131736665Y-109976920D01*
X131659094Y-110127388D01*
X131588780Y-110281353D01*
X131588775Y-110281364D01*
X131525877Y-110438474D01*
X131525873Y-110438487D01*
X131525868Y-110438500D01*
X131525867Y-110438504D01*
X131470508Y-110598450D01*
X131422816Y-110760873D01*
X131382906Y-110925385D01*
X131350874Y-111091584D01*
X131350868Y-111091620D01*
X131326784Y-111259130D01*
X131326779Y-111259172D01*
X131310694Y-111427612D01*
X131310692Y-111427635D01*
X131310692Y-111427644D01*
X131310691Y-111427653D01*
X131302637Y-111596734D01*
X130571704Y-111596734D01*
X130571704Y-107934587D01*
X137955704Y-107934587D01*
X137955704Y-108048413D01*
X137973998Y-108116686D01*
X137985165Y-108158362D01*
X137985168Y-108158367D01*
X138042073Y-108256931D01*
X138042077Y-108256936D01*
X138042078Y-108256938D01*
X138122566Y-108337426D01*
X138122568Y-108337427D01*
X138122572Y-108337430D01*
X138221136Y-108394335D01*
X138221143Y-108394339D01*
X138331091Y-108423800D01*
X138331093Y-108423800D01*
X138444915Y-108423800D01*
X138444917Y-108423800D01*
X138554865Y-108394339D01*
X138653442Y-108337426D01*
X138733930Y-108256938D01*
X138790843Y-108158361D01*
X138820304Y-108048413D01*
X138820304Y-107934587D01*
X138790843Y-107824639D01*
X138741455Y-107739095D01*
X138733934Y-107726068D01*
X138733928Y-107726060D01*
X138653443Y-107645575D01*
X138653435Y-107645569D01*
X138554871Y-107588664D01*
X138554866Y-107588661D01*
X138518215Y-107578840D01*
X138444917Y-107559200D01*
X138331091Y-107559200D01*
X138276117Y-107573930D01*
X138221141Y-107588661D01*
X138221136Y-107588664D01*
X138122572Y-107645569D01*
X138122564Y-107645575D01*
X138042079Y-107726060D01*
X138042073Y-107726068D01*
X137985168Y-107824632D01*
X137985165Y-107824637D01*
X137969181Y-107884291D01*
X137955704Y-107934587D01*
X130571704Y-107934587D01*
X130571704Y-107051758D01*
X148397805Y-107051758D01*
X148397805Y-107231241D01*
X148425879Y-107408498D01*
X148481341Y-107579189D01*
X148515167Y-107645575D01*
X148562818Y-107739095D01*
X148668309Y-107884291D01*
X148795214Y-108011196D01*
X148940410Y-108116687D01*
X149005826Y-108150018D01*
X149100315Y-108198163D01*
X149100317Y-108198163D01*
X149100320Y-108198165D01*
X149191810Y-108227892D01*
X149271006Y-108253625D01*
X149448264Y-108281700D01*
X149448269Y-108281700D01*
X149627746Y-108281700D01*
X149805003Y-108253625D01*
X149828307Y-108246053D01*
X149975690Y-108198165D01*
X150135600Y-108116687D01*
X150280796Y-108011196D01*
X150407701Y-107884291D01*
X150513192Y-107739095D01*
X150594670Y-107579185D01*
X150650130Y-107408498D01*
X150678205Y-107231241D01*
X150678205Y-107051758D01*
X150650130Y-106874501D01*
X150594668Y-106703810D01*
X150513191Y-106543904D01*
X150407701Y-106398709D01*
X150280796Y-106271804D01*
X150135600Y-106166313D01*
X149975694Y-106084836D01*
X149805003Y-106029374D01*
X149627746Y-106001300D01*
X149627741Y-106001300D01*
X149448269Y-106001300D01*
X149448264Y-106001300D01*
X149271006Y-106029374D01*
X149100315Y-106084836D01*
X148940409Y-106166313D01*
X148857570Y-106226499D01*
X148795214Y-106271804D01*
X148795212Y-106271806D01*
X148795211Y-106271806D01*
X148668311Y-106398706D01*
X148668311Y-106398707D01*
X148668309Y-106398709D01*
X148623004Y-106461065D01*
X148562818Y-106543904D01*
X148481341Y-106703810D01*
X148425879Y-106874501D01*
X148397805Y-107051758D01*
X130571704Y-107051758D01*
X130571704Y-104051758D01*
X148397805Y-104051758D01*
X148397805Y-104231241D01*
X148425879Y-104408498D01*
X148481341Y-104579189D01*
X148562818Y-104739095D01*
X148668309Y-104884291D01*
X148795214Y-105011196D01*
X148940410Y-105116687D01*
X148975541Y-105134587D01*
X149100315Y-105198163D01*
X149100317Y-105198163D01*
X149100320Y-105198165D01*
X149191810Y-105227892D01*
X149271006Y-105253625D01*
X149448264Y-105281700D01*
X149448269Y-105281700D01*
X149627746Y-105281700D01*
X149805003Y-105253625D01*
X149821050Y-105248411D01*
X149975690Y-105198165D01*
X150100469Y-105134587D01*
X168155705Y-105134587D01*
X168155705Y-105248413D01*
X168175345Y-105321711D01*
X168185166Y-105358362D01*
X168185169Y-105358367D01*
X168242074Y-105456931D01*
X168242078Y-105456936D01*
X168242079Y-105456938D01*
X168322567Y-105537426D01*
X168322569Y-105537427D01*
X168322573Y-105537430D01*
X168421137Y-105594335D01*
X168421144Y-105594339D01*
X168531092Y-105623800D01*
X168531094Y-105623800D01*
X168644916Y-105623800D01*
X168644918Y-105623800D01*
X168754866Y-105594339D01*
X168853443Y-105537426D01*
X168933931Y-105456938D01*
X168990844Y-105358361D01*
X169020305Y-105248413D01*
X169020305Y-105134587D01*
X168990844Y-105024639D01*
X168983081Y-105011193D01*
X168933935Y-104926068D01*
X168933929Y-104926060D01*
X168853444Y-104845575D01*
X168853436Y-104845569D01*
X168754872Y-104788664D01*
X168754867Y-104788661D01*
X168718216Y-104778840D01*
X168644918Y-104759200D01*
X168531092Y-104759200D01*
X168476118Y-104773930D01*
X168421142Y-104788661D01*
X168421137Y-104788664D01*
X168322573Y-104845569D01*
X168322565Y-104845575D01*
X168242080Y-104926060D01*
X168242074Y-104926068D01*
X168185169Y-105024632D01*
X168185166Y-105024637D01*
X168165525Y-105097937D01*
X168155705Y-105134587D01*
X150100469Y-105134587D01*
X150135600Y-105116687D01*
X150280796Y-105011196D01*
X150407701Y-104884291D01*
X150513192Y-104739095D01*
X150594670Y-104579185D01*
X150650130Y-104408498D01*
X150678205Y-104231241D01*
X150678205Y-104051758D01*
X150650130Y-103874501D01*
X150594668Y-103703810D01*
X150531876Y-103580575D01*
X150513192Y-103543905D01*
X150407701Y-103398709D01*
X150280796Y-103271804D01*
X150135600Y-103166313D01*
X149975694Y-103084836D01*
X149805003Y-103029374D01*
X149627746Y-103001300D01*
X149627741Y-103001300D01*
X149448269Y-103001300D01*
X149448264Y-103001300D01*
X149271006Y-103029374D01*
X149100315Y-103084836D01*
X148940409Y-103166313D01*
X148865727Y-103220573D01*
X148795214Y-103271804D01*
X148795212Y-103271806D01*
X148795211Y-103271806D01*
X148668311Y-103398706D01*
X148668311Y-103398707D01*
X148668309Y-103398709D01*
X148627255Y-103455215D01*
X148562818Y-103543904D01*
X148481341Y-103703810D01*
X148425879Y-103874501D01*
X148397805Y-104051758D01*
X130571704Y-104051758D01*
X130571704Y-102631499D01*
X131158101Y-102631499D01*
X131976277Y-102631499D01*
X131884391Y-102669559D01*
X131814065Y-102739885D01*
X131776005Y-102831771D01*
X131776005Y-102931227D01*
X131814065Y-103023113D01*
X131884391Y-103093439D01*
X131976277Y-103131499D01*
X131158101Y-103131499D01*
X131160589Y-103144015D01*
X131160592Y-103144022D01*
X131228433Y-103307805D01*
X131228438Y-103307815D01*
X131326928Y-103455215D01*
X131326931Y-103455219D01*
X131452284Y-103580572D01*
X131452288Y-103580575D01*
X131599688Y-103679065D01*
X131599697Y-103679070D01*
X131763484Y-103746912D01*
X131763492Y-103746914D01*
X131937358Y-103781498D01*
X131937362Y-103781499D01*
X132076005Y-103781499D01*
X132076005Y-103131499D01*
X132576005Y-103131499D01*
X132576005Y-103781499D01*
X132714648Y-103781499D01*
X132714651Y-103781498D01*
X132888517Y-103746914D01*
X132888525Y-103746912D01*
X133052312Y-103679070D01*
X133052321Y-103679065D01*
X133199721Y-103580575D01*
X133199725Y-103580572D01*
X133325078Y-103455219D01*
X133325081Y-103455215D01*
X133423571Y-103307815D01*
X133423576Y-103307805D01*
X133491417Y-103144022D01*
X133491420Y-103144015D01*
X133493909Y-103131499D01*
X132675733Y-103131499D01*
X132767619Y-103093439D01*
X132837945Y-103023113D01*
X132876005Y-102931227D01*
X132876005Y-102831771D01*
X132837945Y-102739885D01*
X132767619Y-102669559D01*
X132675733Y-102631499D01*
X133493909Y-102631499D01*
X133491420Y-102618982D01*
X133491417Y-102618975D01*
X133423576Y-102455192D01*
X133423571Y-102455182D01*
X133325081Y-102307782D01*
X133325078Y-102307778D01*
X133288800Y-102271500D01*
X135558101Y-102271500D01*
X136376277Y-102271500D01*
X136284391Y-102309560D01*
X136214065Y-102379886D01*
X136176005Y-102471772D01*
X136176005Y-102571228D01*
X136214065Y-102663114D01*
X136284391Y-102733440D01*
X136376277Y-102771500D01*
X135558101Y-102771500D01*
X135560589Y-102784016D01*
X135560592Y-102784023D01*
X135628433Y-102947806D01*
X135628438Y-102947816D01*
X135726928Y-103095216D01*
X135726931Y-103095220D01*
X135852284Y-103220573D01*
X135852288Y-103220576D01*
X135999688Y-103319066D01*
X135999697Y-103319071D01*
X136163484Y-103386913D01*
X136163492Y-103386915D01*
X136337358Y-103421499D01*
X136337362Y-103421500D01*
X136476005Y-103421500D01*
X136476005Y-102771500D01*
X136976005Y-102771500D01*
X136976005Y-103421500D01*
X137114648Y-103421500D01*
X137114651Y-103421499D01*
X137288517Y-103386915D01*
X137288525Y-103386913D01*
X137452312Y-103319071D01*
X137452321Y-103319066D01*
X137599721Y-103220576D01*
X137599725Y-103220573D01*
X137725078Y-103095220D01*
X137725081Y-103095216D01*
X137823571Y-102947816D01*
X137823576Y-102947807D01*
X137891418Y-102784020D01*
X137891420Y-102784012D01*
X137908886Y-102696209D01*
X137941271Y-102634298D01*
X138001986Y-102599724D01*
X138030503Y-102596400D01*
X138045639Y-102596400D01*
X138045642Y-102596400D01*
X138199488Y-102555177D01*
X138337423Y-102475541D01*
X138450046Y-102362918D01*
X138529682Y-102224983D01*
X138570905Y-102071137D01*
X138570905Y-101911863D01*
X138529682Y-101758017D01*
X138450046Y-101620082D01*
X138447052Y-101617088D01*
X166057706Y-101617088D01*
X166057706Y-101730914D01*
X166077346Y-101804212D01*
X166087167Y-101840863D01*
X166087170Y-101840868D01*
X166144075Y-101939432D01*
X166144079Y-101939437D01*
X166144080Y-101939439D01*
X166224568Y-102019927D01*
X166224570Y-102019928D01*
X166224574Y-102019931D01*
X166313262Y-102071134D01*
X166323145Y-102076840D01*
X166433093Y-102106301D01*
X166433095Y-102106301D01*
X166546917Y-102106301D01*
X166546919Y-102106301D01*
X166656867Y-102076840D01*
X166755444Y-102019927D01*
X166835932Y-101939439D01*
X166892845Y-101840862D01*
X166922306Y-101730914D01*
X166922306Y-101617088D01*
X166892845Y-101507140D01*
X166845257Y-101424714D01*
X166835936Y-101408569D01*
X166835930Y-101408561D01*
X166755445Y-101328076D01*
X166755437Y-101328070D01*
X166656873Y-101271165D01*
X166656868Y-101271162D01*
X166620217Y-101261341D01*
X166546919Y-101241701D01*
X166433093Y-101241701D01*
X166378119Y-101256431D01*
X166323143Y-101271162D01*
X166323138Y-101271165D01*
X166224574Y-101328070D01*
X166224566Y-101328076D01*
X166144081Y-101408561D01*
X166144075Y-101408569D01*
X166087170Y-101507133D01*
X166087167Y-101507138D01*
X166087081Y-101507460D01*
X166057706Y-101617088D01*
X138447052Y-101617088D01*
X138337423Y-101507459D01*
X138199488Y-101427823D01*
X138191981Y-101424714D01*
X138192823Y-101422680D01*
X138142988Y-101392293D01*
X138112469Y-101329441D01*
X138113138Y-101284704D01*
X138116005Y-101270292D01*
X138116005Y-101112706D01*
X138116004Y-101112702D01*
X138085263Y-100958156D01*
X138085262Y-100958152D01*
X138031850Y-100829206D01*
X137492782Y-101368277D01*
X136976005Y-101885052D01*
X136976005Y-102271500D01*
X136476005Y-102271500D01*
X136476005Y-101677511D01*
X136401300Y-101621500D01*
X136337358Y-101621500D01*
X136163492Y-101656084D01*
X136163484Y-101656086D01*
X135999697Y-101723928D01*
X135999688Y-101723933D01*
X135852288Y-101822423D01*
X135852284Y-101822426D01*
X135726931Y-101947779D01*
X135726928Y-101947783D01*
X135628438Y-102095183D01*
X135628433Y-102095193D01*
X135560592Y-102258976D01*
X135560589Y-102258983D01*
X135558101Y-102271500D01*
X133288800Y-102271500D01*
X133199725Y-102182425D01*
X133199721Y-102182422D01*
X133052321Y-102083932D01*
X133052312Y-102083927D01*
X132888525Y-102016085D01*
X132888517Y-102016083D01*
X132714651Y-101981499D01*
X132576005Y-101981499D01*
X132576005Y-102631499D01*
X132076005Y-102631499D01*
X132076005Y-101981499D01*
X131937358Y-101981499D01*
X131763492Y-102016083D01*
X131763484Y-102016085D01*
X131599697Y-102083927D01*
X131599688Y-102083932D01*
X131452288Y-102182422D01*
X131452284Y-102182425D01*
X131326931Y-102307778D01*
X131326928Y-102307782D01*
X131228438Y-102455182D01*
X131228433Y-102455192D01*
X131160592Y-102618975D01*
X131160589Y-102618982D01*
X131158101Y-102631499D01*
X130571704Y-102631499D01*
X130571704Y-95928320D01*
X136136105Y-95928320D01*
X136136105Y-96054680D01*
X136168809Y-96176734D01*
X136231989Y-96286165D01*
X136231991Y-96286167D01*
X136249643Y-96303819D01*
X136283128Y-96365142D01*
X136278144Y-96434834D01*
X136249643Y-96479181D01*
X136231991Y-96496832D01*
X136231987Y-96496838D01*
X136168810Y-96606263D01*
X136168809Y-96606266D01*
X136136105Y-96728320D01*
X136136105Y-96854680D01*
X136168809Y-96976734D01*
X136231989Y-97086165D01*
X136231991Y-97086167D01*
X136249643Y-97103819D01*
X136283128Y-97165142D01*
X136278144Y-97234834D01*
X136249645Y-97279179D01*
X136231993Y-97296831D01*
X136231988Y-97296838D01*
X136168811Y-97406263D01*
X136168810Y-97406266D01*
X136136106Y-97528320D01*
X136136106Y-97654680D01*
X136168810Y-97776734D01*
X136231990Y-97886165D01*
X136321341Y-97975516D01*
X136430772Y-98038696D01*
X136552826Y-98071400D01*
X136552828Y-98071400D01*
X136679183Y-98071400D01*
X136679186Y-98071400D01*
X136710001Y-98063143D01*
X136779848Y-98064806D01*
X136837710Y-98103968D01*
X136861865Y-98150821D01*
X136863888Y-98158367D01*
X136868809Y-98176735D01*
X136868810Y-98176736D01*
X136931989Y-98286165D01*
X136931991Y-98286167D01*
X136949643Y-98303819D01*
X136983128Y-98365142D01*
X136978144Y-98434834D01*
X136949643Y-98479181D01*
X136931991Y-98496832D01*
X136931987Y-98496838D01*
X136868810Y-98606263D01*
X136868809Y-98606265D01*
X136868809Y-98606266D01*
X136861866Y-98632177D01*
X136825501Y-98691836D01*
X136762654Y-98722364D01*
X136710001Y-98719856D01*
X136679189Y-98711600D01*
X136679186Y-98711600D01*
X136552826Y-98711600D01*
X136430772Y-98744304D01*
X136430769Y-98744305D01*
X136321344Y-98807482D01*
X136321338Y-98807486D01*
X136231992Y-98896832D01*
X136231988Y-98896838D01*
X136168811Y-99006263D01*
X136168810Y-99006266D01*
X136136106Y-99128320D01*
X136136106Y-99254680D01*
X136168810Y-99376734D01*
X136231990Y-99486165D01*
X136231992Y-99486167D01*
X136249643Y-99503818D01*
X136283128Y-99565141D01*
X136278144Y-99634833D01*
X136249645Y-99679178D01*
X136231992Y-99696831D01*
X136231987Y-99696838D01*
X136168810Y-99806263D01*
X136168809Y-99806266D01*
X136136105Y-99928320D01*
X136136105Y-100054680D01*
X136168809Y-100176734D01*
X136231989Y-100286165D01*
X136231991Y-100286167D01*
X136249643Y-100303819D01*
X136283128Y-100365142D01*
X136278144Y-100434834D01*
X136249643Y-100479181D01*
X136231991Y-100496832D01*
X136231987Y-100496838D01*
X136168810Y-100606263D01*
X136168809Y-100606266D01*
X136136105Y-100728320D01*
X136136105Y-100854680D01*
X136168809Y-100976734D01*
X136231989Y-101086165D01*
X136321340Y-101175516D01*
X136430771Y-101238696D01*
X136439681Y-101241083D01*
X136499341Y-101277445D01*
X136529207Y-101336667D01*
X136545750Y-101419837D01*
X136641329Y-101491500D01*
X136662452Y-101491500D01*
X136662452Y-101491499D01*
X137002233Y-101151718D01*
X137116005Y-101151718D01*
X137116005Y-101231282D01*
X137146453Y-101304791D01*
X137202714Y-101361052D01*
X137276223Y-101391500D01*
X137355787Y-101391500D01*
X137429296Y-101361052D01*
X137485557Y-101304791D01*
X137516005Y-101231282D01*
X137516005Y-101151718D01*
X137485557Y-101078209D01*
X137429296Y-101021948D01*
X137355787Y-100991500D01*
X137276223Y-100991500D01*
X137202714Y-101021948D01*
X137146453Y-101078209D01*
X137116005Y-101151718D01*
X137002233Y-101151718D01*
X137619364Y-100534587D01*
X149755704Y-100534587D01*
X149755704Y-100648413D01*
X149755705Y-100648415D01*
X149785165Y-100758362D01*
X149785168Y-100758367D01*
X149842073Y-100856931D01*
X149842077Y-100856936D01*
X149842078Y-100856938D01*
X149922566Y-100937426D01*
X149922568Y-100937427D01*
X149922572Y-100937430D01*
X149958837Y-100958367D01*
X150021143Y-100994339D01*
X150131091Y-101023800D01*
X150131093Y-101023800D01*
X150244915Y-101023800D01*
X150244917Y-101023800D01*
X150354865Y-100994339D01*
X150453442Y-100937426D01*
X150533930Y-100856938D01*
X150590843Y-100758361D01*
X150597213Y-100734587D01*
X153155705Y-100734587D01*
X153155705Y-100848413D01*
X153157990Y-100856939D01*
X153185166Y-100958362D01*
X153185169Y-100958367D01*
X153242074Y-101056931D01*
X153242078Y-101056936D01*
X153242079Y-101056938D01*
X153322567Y-101137426D01*
X153322569Y-101137427D01*
X153322573Y-101137430D01*
X153388536Y-101175513D01*
X153421144Y-101194339D01*
X153531092Y-101223800D01*
X153531094Y-101223800D01*
X153644916Y-101223800D01*
X153644918Y-101223800D01*
X153754866Y-101194339D01*
X153853443Y-101137426D01*
X153933931Y-101056938D01*
X153990844Y-100958361D01*
X154020305Y-100848413D01*
X154020305Y-100734587D01*
X153990844Y-100624639D01*
X153969954Y-100588456D01*
X153938853Y-100534587D01*
X154555705Y-100534587D01*
X154555705Y-100648413D01*
X154555706Y-100648415D01*
X154585166Y-100758362D01*
X154585169Y-100758367D01*
X154642074Y-100856931D01*
X154642078Y-100856936D01*
X154642079Y-100856938D01*
X154722567Y-100937426D01*
X154722569Y-100937427D01*
X154722573Y-100937430D01*
X154758838Y-100958367D01*
X154821144Y-100994339D01*
X154931092Y-101023800D01*
X154931094Y-101023800D01*
X155044916Y-101023800D01*
X155044918Y-101023800D01*
X155154866Y-100994339D01*
X155253443Y-100937426D01*
X155333931Y-100856938D01*
X155390844Y-100758361D01*
X155420305Y-100648413D01*
X155420305Y-100534587D01*
X155390844Y-100424639D01*
X155375954Y-100398849D01*
X155333935Y-100326068D01*
X155333929Y-100326060D01*
X155253444Y-100245575D01*
X155253436Y-100245569D01*
X155154872Y-100188664D01*
X155154867Y-100188661D01*
X155110358Y-100176735D01*
X155044918Y-100159200D01*
X154931092Y-100159200D01*
X154876118Y-100173930D01*
X154821142Y-100188661D01*
X154821137Y-100188664D01*
X154722573Y-100245569D01*
X154722565Y-100245575D01*
X154642080Y-100326060D01*
X154642074Y-100326068D01*
X154585169Y-100424632D01*
X154585166Y-100424637D01*
X154570551Y-100479181D01*
X154555705Y-100534587D01*
X153938853Y-100534587D01*
X153933933Y-100526065D01*
X153933929Y-100526060D01*
X153853444Y-100445575D01*
X153853436Y-100445569D01*
X153754872Y-100388664D01*
X153754867Y-100388661D01*
X153705809Y-100375516D01*
X153644918Y-100359200D01*
X153531092Y-100359200D01*
X153476118Y-100373930D01*
X153421142Y-100388661D01*
X153421137Y-100388664D01*
X153322573Y-100445569D01*
X153322565Y-100445575D01*
X153242080Y-100526060D01*
X153242074Y-100526068D01*
X153185169Y-100624632D01*
X153185166Y-100624637D01*
X153178795Y-100648415D01*
X153155705Y-100734587D01*
X150597213Y-100734587D01*
X150620304Y-100648413D01*
X150620304Y-100534587D01*
X150590843Y-100424639D01*
X150575953Y-100398849D01*
X150533934Y-100326068D01*
X150533928Y-100326060D01*
X150453443Y-100245575D01*
X150453435Y-100245569D01*
X150354871Y-100188664D01*
X150354866Y-100188661D01*
X150310357Y-100176735D01*
X150244917Y-100159200D01*
X150131091Y-100159200D01*
X150076117Y-100173930D01*
X150021141Y-100188661D01*
X150021136Y-100188664D01*
X149922572Y-100245569D01*
X149922564Y-100245575D01*
X149842079Y-100326060D01*
X149842073Y-100326068D01*
X149785168Y-100424632D01*
X149785165Y-100424637D01*
X149770550Y-100479181D01*
X149755704Y-100534587D01*
X137619364Y-100534587D01*
X137678298Y-100475653D01*
X137549356Y-100422243D01*
X137549348Y-100422241D01*
X137394802Y-100391500D01*
X137237213Y-100391500D01*
X137168955Y-100405077D01*
X137099364Y-100398849D01*
X137044187Y-100355985D01*
X137020943Y-100290095D01*
X137037011Y-100222098D01*
X137037171Y-100221817D01*
X137063201Y-100176734D01*
X137070143Y-100150823D01*
X137106505Y-100091166D01*
X137169351Y-100060635D01*
X137222009Y-100063142D01*
X137252825Y-100071400D01*
X137252827Y-100071400D01*
X137379183Y-100071400D01*
X137379185Y-100071400D01*
X137501239Y-100038696D01*
X137594959Y-99984587D01*
X163857706Y-99984587D01*
X163857706Y-100098413D01*
X163871751Y-100150828D01*
X163887167Y-100208362D01*
X163887170Y-100208367D01*
X163944075Y-100306931D01*
X163944079Y-100306936D01*
X163944080Y-100306938D01*
X164024568Y-100387426D01*
X164024570Y-100387427D01*
X164024574Y-100387430D01*
X164089023Y-100424639D01*
X164123145Y-100444339D01*
X164233093Y-100473800D01*
X164233095Y-100473800D01*
X164346917Y-100473800D01*
X164346919Y-100473800D01*
X164456867Y-100444339D01*
X164555444Y-100387426D01*
X164635932Y-100306938D01*
X164692845Y-100208361D01*
X164722306Y-100098413D01*
X164722306Y-99984587D01*
X164692845Y-99874639D01*
X164692841Y-99874632D01*
X164635936Y-99776068D01*
X164635930Y-99776060D01*
X164555445Y-99695575D01*
X164555437Y-99695569D01*
X164456873Y-99638664D01*
X164456868Y-99638661D01*
X164420217Y-99628840D01*
X164346919Y-99609200D01*
X164233093Y-99609200D01*
X164178119Y-99623930D01*
X164123143Y-99638661D01*
X164123138Y-99638664D01*
X164024574Y-99695569D01*
X164024566Y-99695575D01*
X163944081Y-99776060D01*
X163944075Y-99776068D01*
X163887170Y-99874632D01*
X163887167Y-99874637D01*
X163884078Y-99886167D01*
X163857706Y-99984587D01*
X137594959Y-99984587D01*
X137610670Y-99975516D01*
X137700021Y-99886165D01*
X137763201Y-99776734D01*
X137795905Y-99654680D01*
X137795905Y-99528320D01*
X137763201Y-99406266D01*
X137700021Y-99296835D01*
X137682367Y-99279181D01*
X137648882Y-99217858D01*
X137653866Y-99148166D01*
X137682367Y-99103819D01*
X137700021Y-99086165D01*
X137763201Y-98976734D01*
X137795905Y-98854680D01*
X137795905Y-98728320D01*
X137763201Y-98606266D01*
X137700021Y-98496835D01*
X137682367Y-98479181D01*
X137648882Y-98417858D01*
X137653866Y-98348166D01*
X137682367Y-98303819D01*
X137700021Y-98286165D01*
X137763201Y-98176734D01*
X137795905Y-98054680D01*
X137795905Y-97934587D01*
X139355704Y-97934587D01*
X139355704Y-98048413D01*
X139368017Y-98094364D01*
X139385165Y-98158362D01*
X139385168Y-98158367D01*
X139442073Y-98256931D01*
X139442077Y-98256936D01*
X139442078Y-98256938D01*
X139522566Y-98337426D01*
X139522568Y-98337427D01*
X139522572Y-98337430D01*
X139588540Y-98375516D01*
X139621143Y-98394339D01*
X139731091Y-98423800D01*
X139731093Y-98423800D01*
X139844915Y-98423800D01*
X139844917Y-98423800D01*
X139954865Y-98394339D01*
X140053442Y-98337426D01*
X140133930Y-98256938D01*
X140190843Y-98158361D01*
X140197213Y-98134587D01*
X149755705Y-98134587D01*
X149755705Y-98248413D01*
X149770551Y-98303819D01*
X149785166Y-98358362D01*
X149785169Y-98358367D01*
X149842074Y-98456931D01*
X149842078Y-98456936D01*
X149842079Y-98456938D01*
X149922567Y-98537426D01*
X149991093Y-98576989D01*
X150039307Y-98627553D01*
X150052531Y-98696160D01*
X150036480Y-98746374D01*
X149999666Y-98810138D01*
X149999666Y-98810139D01*
X149970205Y-98920087D01*
X149970205Y-99033913D01*
X149984205Y-99086161D01*
X149999666Y-99143862D01*
X149999669Y-99143867D01*
X150056574Y-99242431D01*
X150056578Y-99242436D01*
X150056579Y-99242438D01*
X150137067Y-99322926D01*
X150137069Y-99322927D01*
X150137073Y-99322930D01*
X150230264Y-99376733D01*
X150235644Y-99379839D01*
X150345592Y-99409300D01*
X150345594Y-99409300D01*
X150459416Y-99409300D01*
X150459418Y-99409300D01*
X150569366Y-99379839D01*
X150667943Y-99322926D01*
X150748431Y-99242438D01*
X150805344Y-99143861D01*
X150834805Y-99033913D01*
X150834805Y-98920087D01*
X150805344Y-98810139D01*
X150767335Y-98744305D01*
X150748435Y-98711568D01*
X150748429Y-98711560D01*
X150667942Y-98631073D01*
X150624974Y-98606266D01*
X150599416Y-98591510D01*
X150551202Y-98540945D01*
X150537978Y-98472338D01*
X150554028Y-98422127D01*
X150590844Y-98358361D01*
X150620305Y-98248413D01*
X150620305Y-98134587D01*
X154555704Y-98134587D01*
X154555704Y-98248413D01*
X154570550Y-98303819D01*
X154585165Y-98358362D01*
X154585168Y-98358367D01*
X154642073Y-98456931D01*
X154642077Y-98456936D01*
X154642078Y-98456938D01*
X154722566Y-98537426D01*
X154722568Y-98537427D01*
X154722572Y-98537430D01*
X154770911Y-98565338D01*
X154821143Y-98594339D01*
X154931091Y-98623800D01*
X154931093Y-98623800D01*
X155044915Y-98623800D01*
X155044917Y-98623800D01*
X155154865Y-98594339D01*
X155253442Y-98537426D01*
X155333930Y-98456938D01*
X155390843Y-98358361D01*
X155420304Y-98248413D01*
X155420304Y-98134587D01*
X155412533Y-98105586D01*
X161838207Y-98105586D01*
X161838207Y-98219412D01*
X161848263Y-98256939D01*
X161867668Y-98329361D01*
X161867671Y-98329366D01*
X161924576Y-98427930D01*
X161924580Y-98427935D01*
X161924581Y-98427937D01*
X162005069Y-98508425D01*
X162005071Y-98508426D01*
X162005075Y-98508429D01*
X162103639Y-98565334D01*
X162103646Y-98565338D01*
X162213594Y-98594799D01*
X162213596Y-98594799D01*
X162327418Y-98594799D01*
X162327420Y-98594799D01*
X162437368Y-98565338D01*
X162535945Y-98508425D01*
X162616433Y-98427937D01*
X162673346Y-98329360D01*
X162702807Y-98219412D01*
X162702807Y-98105586D01*
X162673346Y-97995638D01*
X162638099Y-97934588D01*
X162616437Y-97897067D01*
X162616431Y-97897059D01*
X162535946Y-97816574D01*
X162535938Y-97816568D01*
X162437374Y-97759663D01*
X162437369Y-97759660D01*
X162395051Y-97748321D01*
X162327420Y-97730199D01*
X162213594Y-97730199D01*
X162158620Y-97744929D01*
X162103644Y-97759660D01*
X162103639Y-97759663D01*
X162005075Y-97816568D01*
X162005067Y-97816574D01*
X161924582Y-97897059D01*
X161924576Y-97897067D01*
X161867671Y-97995631D01*
X161867668Y-97995636D01*
X161856130Y-98038696D01*
X161838207Y-98105586D01*
X155412533Y-98105586D01*
X155390843Y-98024639D01*
X155387337Y-98018566D01*
X155333934Y-97926068D01*
X155333928Y-97926060D01*
X155253443Y-97845575D01*
X155253442Y-97845574D01*
X155172576Y-97798886D01*
X155124362Y-97748321D01*
X155111138Y-97679714D01*
X155137106Y-97614849D01*
X155172574Y-97584115D01*
X155253443Y-97537426D01*
X155333931Y-97456938D01*
X155390844Y-97358361D01*
X155420305Y-97248413D01*
X155420305Y-97134587D01*
X155390844Y-97024639D01*
X155390360Y-97023800D01*
X155333935Y-96926068D01*
X155333929Y-96926060D01*
X155253444Y-96845575D01*
X155253436Y-96845569D01*
X155154872Y-96788664D01*
X155154867Y-96788661D01*
X155118216Y-96778840D01*
X155044918Y-96759200D01*
X154931092Y-96759200D01*
X154876118Y-96773930D01*
X154821142Y-96788661D01*
X154821137Y-96788664D01*
X154722573Y-96845569D01*
X154722565Y-96845575D01*
X154642080Y-96926060D01*
X154642074Y-96926068D01*
X154585169Y-97024632D01*
X154585166Y-97024637D01*
X154579556Y-97045574D01*
X154555705Y-97134587D01*
X154555705Y-97248413D01*
X154563949Y-97279179D01*
X154585166Y-97358362D01*
X154585169Y-97358367D01*
X154642074Y-97456931D01*
X154642078Y-97456936D01*
X154642079Y-97456938D01*
X154722567Y-97537426D01*
X154803431Y-97584113D01*
X154851646Y-97634678D01*
X154864870Y-97703285D01*
X154838902Y-97768150D01*
X154803431Y-97798886D01*
X154722569Y-97845571D01*
X154722564Y-97845575D01*
X154642079Y-97926060D01*
X154642073Y-97926068D01*
X154585168Y-98024632D01*
X154585165Y-98024637D01*
X154574402Y-98064806D01*
X154555704Y-98134587D01*
X150620305Y-98134587D01*
X150590844Y-98024639D01*
X150587338Y-98018566D01*
X150533935Y-97926068D01*
X150533929Y-97926060D01*
X150453444Y-97845575D01*
X150453436Y-97845569D01*
X150354872Y-97788664D01*
X150354867Y-97788661D01*
X150310362Y-97776736D01*
X150244918Y-97759200D01*
X150131092Y-97759200D01*
X150076118Y-97773930D01*
X150021142Y-97788661D01*
X150021137Y-97788664D01*
X149922573Y-97845569D01*
X149922565Y-97845575D01*
X149842080Y-97926060D01*
X149842074Y-97926068D01*
X149785169Y-98024632D01*
X149785166Y-98024637D01*
X149774403Y-98064806D01*
X149755705Y-98134587D01*
X140197213Y-98134587D01*
X140220304Y-98048413D01*
X140220304Y-97934587D01*
X140190843Y-97824639D01*
X140186183Y-97816568D01*
X140133934Y-97726068D01*
X140133928Y-97726060D01*
X140053443Y-97645575D01*
X140053435Y-97645569D01*
X139954871Y-97588664D01*
X139954866Y-97588661D01*
X139905808Y-97575516D01*
X139844917Y-97559200D01*
X139731091Y-97559200D01*
X139676117Y-97573930D01*
X139621141Y-97588661D01*
X139621136Y-97588664D01*
X139522572Y-97645569D01*
X139522564Y-97645575D01*
X139442079Y-97726060D01*
X139442073Y-97726068D01*
X139385168Y-97824632D01*
X139385165Y-97824637D01*
X139379555Y-97845574D01*
X139355704Y-97934587D01*
X137795905Y-97934587D01*
X137795905Y-97928320D01*
X137763201Y-97806266D01*
X137700021Y-97696835D01*
X137682367Y-97679181D01*
X137648882Y-97617858D01*
X137653866Y-97548166D01*
X137682367Y-97503819D01*
X137700021Y-97486165D01*
X137763201Y-97376734D01*
X137774494Y-97334587D01*
X143555705Y-97334587D01*
X143555705Y-97448413D01*
X143570551Y-97503819D01*
X143585166Y-97558362D01*
X143585169Y-97558367D01*
X143642074Y-97656931D01*
X143642078Y-97656936D01*
X143642079Y-97656938D01*
X143722567Y-97737426D01*
X143722569Y-97737427D01*
X143722573Y-97737430D01*
X143821137Y-97794335D01*
X143821144Y-97794339D01*
X143931092Y-97823800D01*
X143931094Y-97823800D01*
X144044916Y-97823800D01*
X144044918Y-97823800D01*
X144154866Y-97794339D01*
X144253443Y-97737426D01*
X144333931Y-97656938D01*
X144390844Y-97558361D01*
X144420305Y-97448413D01*
X144420305Y-97334587D01*
X144390844Y-97224639D01*
X144380940Y-97207484D01*
X144333935Y-97126068D01*
X144333929Y-97126060D01*
X144253444Y-97045575D01*
X144253436Y-97045569D01*
X144154872Y-96988664D01*
X144154867Y-96988661D01*
X144110362Y-96976736D01*
X144044918Y-96959200D01*
X143931092Y-96959200D01*
X143876118Y-96973930D01*
X143821142Y-96988661D01*
X143821137Y-96988664D01*
X143722573Y-97045569D01*
X143722565Y-97045575D01*
X143642080Y-97126060D01*
X143642074Y-97126068D01*
X143585169Y-97224632D01*
X143585166Y-97224637D01*
X143577116Y-97254680D01*
X143555705Y-97334587D01*
X137774494Y-97334587D01*
X137795905Y-97254680D01*
X137795905Y-97128320D01*
X137763201Y-97006266D01*
X137700021Y-96896835D01*
X137610670Y-96807484D01*
X137525588Y-96758362D01*
X137501241Y-96744305D01*
X137501240Y-96744304D01*
X137501239Y-96744304D01*
X137379185Y-96711600D01*
X137252825Y-96711600D01*
X137222007Y-96719857D01*
X137152157Y-96718192D01*
X137094296Y-96679028D01*
X137076800Y-96650881D01*
X137072722Y-96641802D01*
X137063201Y-96606266D01*
X137034224Y-96556077D01*
X137031648Y-96550340D01*
X137029484Y-96534587D01*
X149955705Y-96534587D01*
X149955705Y-96648413D01*
X149972636Y-96711600D01*
X149985166Y-96758362D01*
X149985169Y-96758367D01*
X150042074Y-96856931D01*
X150042078Y-96856936D01*
X150042079Y-96856938D01*
X150122567Y-96937426D01*
X150122569Y-96937427D01*
X150122573Y-96937430D01*
X150221137Y-96994335D01*
X150221144Y-96994339D01*
X150331092Y-97023800D01*
X150331094Y-97023800D01*
X150444916Y-97023800D01*
X150444918Y-97023800D01*
X150554866Y-96994339D01*
X150653443Y-96937426D01*
X150733931Y-96856938D01*
X150790844Y-96758361D01*
X150820305Y-96648413D01*
X150820305Y-96534587D01*
X150790844Y-96424639D01*
X150777936Y-96402281D01*
X150733935Y-96326068D01*
X150733929Y-96326060D01*
X150653444Y-96245575D01*
X150653439Y-96245571D01*
X150633132Y-96233847D01*
X150633131Y-96233847D01*
X150554866Y-96188661D01*
X150554867Y-96188661D01*
X150510362Y-96176736D01*
X150444918Y-96159200D01*
X150331092Y-96159200D01*
X150276118Y-96173930D01*
X150221142Y-96188661D01*
X150221137Y-96188664D01*
X150122573Y-96245569D01*
X150122565Y-96245575D01*
X150042080Y-96326060D01*
X150042074Y-96326068D01*
X149985169Y-96424632D01*
X149985166Y-96424637D01*
X149976513Y-96456931D01*
X149955705Y-96534587D01*
X137029484Y-96534587D01*
X137027717Y-96521720D01*
X137020905Y-96493641D01*
X137023020Y-96487527D01*
X137022141Y-96481120D01*
X137034306Y-96454918D01*
X137043757Y-96427614D01*
X137048841Y-96423615D01*
X137051566Y-96417748D01*
X137075969Y-96402281D01*
X137098678Y-96384423D01*
X137105116Y-96383808D01*
X137110581Y-96380345D01*
X137139476Y-96380526D01*
X137168231Y-96377781D01*
X137168957Y-96377923D01*
X137237210Y-96391499D01*
X137237211Y-96391500D01*
X137394799Y-96391500D01*
X137394802Y-96391499D01*
X137549348Y-96360758D01*
X137549352Y-96360757D01*
X137678298Y-96307345D01*
X137505539Y-96134587D01*
X153155704Y-96134587D01*
X153155704Y-96248413D01*
X153170550Y-96303819D01*
X153185165Y-96358362D01*
X153185168Y-96358367D01*
X153242073Y-96456931D01*
X153242077Y-96456936D01*
X153242078Y-96456938D01*
X153322566Y-96537426D01*
X153322568Y-96537427D01*
X153322572Y-96537430D01*
X153421136Y-96594335D01*
X153421143Y-96594339D01*
X153531091Y-96623800D01*
X153531093Y-96623800D01*
X153644915Y-96623800D01*
X153644917Y-96623800D01*
X153754865Y-96594339D01*
X153853442Y-96537426D01*
X153933930Y-96456938D01*
X153990843Y-96358361D01*
X154020304Y-96248413D01*
X154020304Y-96134587D01*
X153990843Y-96024639D01*
X153990839Y-96024632D01*
X153933934Y-95926068D01*
X153933928Y-95926060D01*
X153853443Y-95845575D01*
X153853435Y-95845569D01*
X153754871Y-95788664D01*
X153754866Y-95788661D01*
X153718215Y-95778840D01*
X153644917Y-95759200D01*
X153531091Y-95759200D01*
X153476117Y-95773930D01*
X153421141Y-95788661D01*
X153421136Y-95788664D01*
X153322572Y-95845569D01*
X153322564Y-95845575D01*
X153242079Y-95926060D01*
X153242073Y-95926068D01*
X153185168Y-96024632D01*
X153185165Y-96024637D01*
X153177115Y-96054680D01*
X153155704Y-96134587D01*
X137505539Y-96134587D01*
X137139228Y-95768277D01*
X136922669Y-95551718D01*
X137116005Y-95551718D01*
X137116005Y-95631282D01*
X137146453Y-95704791D01*
X137202714Y-95761052D01*
X137276223Y-95791500D01*
X137355787Y-95791500D01*
X137429296Y-95761052D01*
X137485557Y-95704791D01*
X137516005Y-95631282D01*
X137516005Y-95551718D01*
X137485557Y-95478209D01*
X137429296Y-95421948D01*
X137355787Y-95391500D01*
X137276223Y-95391500D01*
X137202714Y-95421948D01*
X137146453Y-95478209D01*
X137116005Y-95551718D01*
X136922669Y-95551718D01*
X136662452Y-95291500D01*
X136641329Y-95291500D01*
X136545750Y-95363162D01*
X136529207Y-95446331D01*
X136496822Y-95508242D01*
X136439691Y-95541913D01*
X136430772Y-95544303D01*
X136430767Y-95544305D01*
X136321343Y-95607482D01*
X136321337Y-95607486D01*
X136231991Y-95696832D01*
X136231987Y-95696838D01*
X136168810Y-95806263D01*
X136168809Y-95806266D01*
X136136105Y-95928320D01*
X130571704Y-95928320D01*
X130571704Y-93651501D01*
X131158101Y-93651501D01*
X131976277Y-93651501D01*
X131884391Y-93689561D01*
X131814065Y-93759887D01*
X131776005Y-93851773D01*
X131776005Y-93951229D01*
X131814065Y-94043115D01*
X131884391Y-94113441D01*
X131976277Y-94151501D01*
X131158101Y-94151501D01*
X131160589Y-94164017D01*
X131160592Y-94164024D01*
X131228433Y-94327807D01*
X131228438Y-94327817D01*
X131326928Y-94475217D01*
X131326931Y-94475221D01*
X131452284Y-94600574D01*
X131452288Y-94600577D01*
X131599688Y-94699067D01*
X131599697Y-94699072D01*
X131763484Y-94766914D01*
X131763492Y-94766916D01*
X131937358Y-94801500D01*
X131937362Y-94801501D01*
X132076005Y-94801501D01*
X132076005Y-94151501D01*
X132576005Y-94151501D01*
X132576005Y-94801501D01*
X132714648Y-94801501D01*
X132714651Y-94801500D01*
X132888517Y-94766916D01*
X132888525Y-94766914D01*
X133052312Y-94699072D01*
X133052321Y-94699067D01*
X133199721Y-94600577D01*
X133199725Y-94600574D01*
X133325078Y-94475221D01*
X133325081Y-94475217D01*
X133369142Y-94409277D01*
X133423571Y-94327817D01*
X133423576Y-94327807D01*
X133491417Y-94164024D01*
X133491420Y-94164017D01*
X133493909Y-94151501D01*
X132675733Y-94151501D01*
X132767619Y-94113441D01*
X132837945Y-94043115D01*
X132851040Y-94011500D01*
X135558101Y-94011500D01*
X136376277Y-94011500D01*
X136284391Y-94049560D01*
X136214065Y-94119886D01*
X136176005Y-94211772D01*
X136176005Y-94311228D01*
X136214065Y-94403114D01*
X136284391Y-94473440D01*
X136376277Y-94511500D01*
X135558101Y-94511500D01*
X135560589Y-94524016D01*
X135560592Y-94524023D01*
X135628433Y-94687806D01*
X135628438Y-94687816D01*
X135726928Y-94835216D01*
X135726931Y-94835220D01*
X135852284Y-94960573D01*
X135852288Y-94960576D01*
X135999688Y-95059066D01*
X135999697Y-95059071D01*
X136163484Y-95126913D01*
X136163492Y-95126915D01*
X136337358Y-95161499D01*
X136337362Y-95161500D01*
X136401300Y-95161500D01*
X136476005Y-95105488D01*
X136476005Y-94511500D01*
X136976005Y-94511500D01*
X136976005Y-94897946D01*
X137492782Y-95414723D01*
X138031850Y-95953793D01*
X138085262Y-95824847D01*
X138085263Y-95824843D01*
X138116004Y-95670297D01*
X138116005Y-95670294D01*
X138116005Y-95512704D01*
X138113138Y-95498292D01*
X138119365Y-95428701D01*
X138153632Y-95384588D01*
X167007708Y-95384588D01*
X167007708Y-95498414D01*
X167020005Y-95544305D01*
X167037169Y-95608363D01*
X167037172Y-95608368D01*
X167094077Y-95706932D01*
X167094081Y-95706937D01*
X167094082Y-95706939D01*
X167174570Y-95787427D01*
X167174572Y-95787428D01*
X167174576Y-95787431D01*
X167273140Y-95844336D01*
X167273147Y-95844340D01*
X167383095Y-95873801D01*
X167383097Y-95873801D01*
X167496919Y-95873801D01*
X167496921Y-95873801D01*
X167606869Y-95844340D01*
X167705446Y-95787427D01*
X167785934Y-95706939D01*
X167842847Y-95608362D01*
X167872308Y-95498414D01*
X167872308Y-95384588D01*
X167842847Y-95274640D01*
X167842843Y-95274633D01*
X167785938Y-95176069D01*
X167785932Y-95176061D01*
X167705447Y-95095576D01*
X167705439Y-95095570D01*
X167606875Y-95038665D01*
X167606870Y-95038662D01*
X167555819Y-95024983D01*
X167496921Y-95009201D01*
X167383095Y-95009201D01*
X167328121Y-95023931D01*
X167273145Y-95038662D01*
X167273140Y-95038665D01*
X167174576Y-95095570D01*
X167174568Y-95095576D01*
X167094083Y-95176061D01*
X167094077Y-95176069D01*
X167037172Y-95274633D01*
X167037169Y-95274638D01*
X167032651Y-95291500D01*
X167007708Y-95384588D01*
X138153632Y-95384588D01*
X138162227Y-95373523D01*
X138192368Y-95359215D01*
X138191983Y-95358285D01*
X138199481Y-95355178D01*
X138199488Y-95355177D01*
X138337423Y-95275541D01*
X138450046Y-95162918D01*
X138529682Y-95024983D01*
X138570905Y-94871137D01*
X138570905Y-94711863D01*
X138529682Y-94558017D01*
X138450046Y-94420082D01*
X138337423Y-94307459D01*
X138199488Y-94227823D01*
X138045642Y-94186600D01*
X138020245Y-94186600D01*
X138010125Y-94184914D01*
X137987537Y-94173983D01*
X137963464Y-94166915D01*
X137956629Y-94159027D01*
X137947232Y-94154480D01*
X137934138Y-94133071D01*
X137917709Y-94114111D01*
X137912301Y-94097368D01*
X137910777Y-94094875D01*
X137910823Y-94092790D01*
X137908886Y-94086791D01*
X137908448Y-94084587D01*
X146105705Y-94084587D01*
X146105705Y-94198413D01*
X146107803Y-94206241D01*
X146135166Y-94308362D01*
X146135169Y-94308367D01*
X146192074Y-94406931D01*
X146192078Y-94406936D01*
X146192079Y-94406938D01*
X146272567Y-94487426D01*
X146272569Y-94487427D01*
X146272573Y-94487430D01*
X146335943Y-94524016D01*
X146371144Y-94544339D01*
X146481092Y-94573800D01*
X146481094Y-94573800D01*
X146594916Y-94573800D01*
X146594918Y-94573800D01*
X146704866Y-94544339D01*
X146803443Y-94487426D01*
X146883931Y-94406938D01*
X146940844Y-94308361D01*
X146970305Y-94198413D01*
X146970305Y-94084587D01*
X146954809Y-94026758D01*
X157422805Y-94026758D01*
X157422805Y-94206241D01*
X157450879Y-94383498D01*
X157506341Y-94554189D01*
X157574423Y-94687806D01*
X157587818Y-94714095D01*
X157693309Y-94859291D01*
X157820214Y-94986196D01*
X157965410Y-95091687D01*
X158034545Y-95126913D01*
X158125315Y-95173163D01*
X158125317Y-95173163D01*
X158125320Y-95173165D01*
X158216810Y-95202892D01*
X158296006Y-95228625D01*
X158473264Y-95256700D01*
X158473269Y-95256700D01*
X158652746Y-95256700D01*
X158669875Y-95253987D01*
X158830003Y-95228625D01*
X159000690Y-95173165D01*
X159160600Y-95091687D01*
X159305796Y-94986196D01*
X159432701Y-94859291D01*
X159538192Y-94714095D01*
X159619670Y-94554185D01*
X159675130Y-94383498D01*
X159683949Y-94327817D01*
X159703205Y-94206241D01*
X159703205Y-94026758D01*
X159675130Y-93849501D01*
X159629543Y-93709200D01*
X159619670Y-93678815D01*
X159619668Y-93678812D01*
X159619668Y-93678810D01*
X159538191Y-93518904D01*
X159432701Y-93373709D01*
X159305796Y-93246804D01*
X159160600Y-93141313D01*
X159130680Y-93126068D01*
X159000694Y-93059836D01*
X158830003Y-93004374D01*
X158652746Y-92976300D01*
X158652741Y-92976300D01*
X158473269Y-92976300D01*
X158473264Y-92976300D01*
X158296006Y-93004374D01*
X158125315Y-93059836D01*
X157965409Y-93141313D01*
X157882570Y-93201499D01*
X157820214Y-93246804D01*
X157820212Y-93246806D01*
X157820211Y-93246806D01*
X157693311Y-93373706D01*
X157693311Y-93373707D01*
X157693309Y-93373709D01*
X157648004Y-93436065D01*
X157587818Y-93518904D01*
X157506341Y-93678810D01*
X157450879Y-93849501D01*
X157422805Y-94026758D01*
X146954809Y-94026758D01*
X146940844Y-93974639D01*
X146927328Y-93951229D01*
X146883935Y-93876068D01*
X146883929Y-93876060D01*
X146803444Y-93795575D01*
X146803436Y-93795569D01*
X146704872Y-93738664D01*
X146704867Y-93738661D01*
X146668216Y-93728840D01*
X146594918Y-93709200D01*
X146481092Y-93709200D01*
X146426118Y-93723930D01*
X146371142Y-93738661D01*
X146371137Y-93738664D01*
X146272573Y-93795569D01*
X146272565Y-93795575D01*
X146192080Y-93876060D01*
X146192074Y-93876068D01*
X146135169Y-93974632D01*
X146135166Y-93974637D01*
X146121199Y-94026764D01*
X146105705Y-94084587D01*
X137908448Y-94084587D01*
X137891420Y-93998987D01*
X137891418Y-93998979D01*
X137823576Y-93835192D01*
X137823571Y-93835183D01*
X137725081Y-93687783D01*
X137725078Y-93687779D01*
X137599725Y-93562426D01*
X137599721Y-93562423D01*
X137452321Y-93463933D01*
X137452308Y-93463926D01*
X137397006Y-93441020D01*
X137397005Y-93441020D01*
X137288525Y-93396086D01*
X137288517Y-93396084D01*
X137114651Y-93361500D01*
X136976005Y-93361500D01*
X136976005Y-94011500D01*
X136476005Y-94011500D01*
X136476005Y-93361500D01*
X136337358Y-93361500D01*
X136163492Y-93396084D01*
X136163484Y-93396086D01*
X135999697Y-93463928D01*
X135999688Y-93463933D01*
X135852288Y-93562423D01*
X135852284Y-93562426D01*
X135726931Y-93687779D01*
X135726928Y-93687783D01*
X135628438Y-93835183D01*
X135628433Y-93835193D01*
X135560592Y-93998976D01*
X135560589Y-93998983D01*
X135558101Y-94011500D01*
X132851040Y-94011500D01*
X132876005Y-93951229D01*
X132876005Y-93851773D01*
X132837945Y-93759887D01*
X132767619Y-93689561D01*
X132675733Y-93651501D01*
X133493909Y-93651501D01*
X133491420Y-93638984D01*
X133491417Y-93638977D01*
X133423576Y-93475194D01*
X133423571Y-93475184D01*
X133329627Y-93334587D01*
X151355705Y-93334587D01*
X151355705Y-93448413D01*
X151362881Y-93475194D01*
X151385166Y-93558362D01*
X151385169Y-93558367D01*
X151442074Y-93656931D01*
X151442078Y-93656936D01*
X151442079Y-93656938D01*
X151522567Y-93737426D01*
X151522569Y-93737427D01*
X151522573Y-93737430D01*
X151621137Y-93794335D01*
X151621144Y-93794339D01*
X151731092Y-93823800D01*
X151731094Y-93823800D01*
X151844916Y-93823800D01*
X151844918Y-93823800D01*
X151954866Y-93794339D01*
X152053443Y-93737426D01*
X152133931Y-93656938D01*
X152190844Y-93558361D01*
X152220305Y-93448413D01*
X152220305Y-93334587D01*
X152190844Y-93224639D01*
X152151758Y-93156939D01*
X152133935Y-93126068D01*
X152133929Y-93126060D01*
X152053444Y-93045575D01*
X152053436Y-93045569D01*
X151954872Y-92988664D01*
X151954867Y-92988661D01*
X151908735Y-92976300D01*
X151844918Y-92959200D01*
X151731092Y-92959200D01*
X151676118Y-92973930D01*
X151621142Y-92988661D01*
X151621137Y-92988664D01*
X151522573Y-93045569D01*
X151522565Y-93045575D01*
X151442080Y-93126060D01*
X151442074Y-93126068D01*
X151385169Y-93224632D01*
X151385166Y-93224637D01*
X151379226Y-93246806D01*
X151355705Y-93334587D01*
X133329627Y-93334587D01*
X133325081Y-93327784D01*
X133325078Y-93327780D01*
X133199725Y-93202427D01*
X133199721Y-93202424D01*
X133052321Y-93103934D01*
X133052312Y-93103929D01*
X132888525Y-93036087D01*
X132888517Y-93036085D01*
X132714651Y-93001501D01*
X132576005Y-93001501D01*
X132576005Y-93651501D01*
X132076005Y-93651501D01*
X132076005Y-93001501D01*
X131937358Y-93001501D01*
X131763492Y-93036085D01*
X131763484Y-93036087D01*
X131599697Y-93103929D01*
X131599688Y-93103934D01*
X131452288Y-93202424D01*
X131452284Y-93202427D01*
X131326931Y-93327780D01*
X131326928Y-93327784D01*
X131228438Y-93475184D01*
X131228433Y-93475194D01*
X131160592Y-93638977D01*
X131160589Y-93638984D01*
X131158101Y-93651501D01*
X130571704Y-93651501D01*
X130571704Y-92834587D01*
X156355705Y-92834587D01*
X156355705Y-92948413D01*
X156369930Y-93001501D01*
X156385166Y-93058362D01*
X156385169Y-93058367D01*
X156442074Y-93156931D01*
X156442078Y-93156936D01*
X156442079Y-93156938D01*
X156522567Y-93237426D01*
X156522569Y-93237427D01*
X156522573Y-93237430D01*
X156621137Y-93294335D01*
X156621144Y-93294339D01*
X156731092Y-93323800D01*
X156731094Y-93323800D01*
X156844916Y-93323800D01*
X156844918Y-93323800D01*
X156954866Y-93294339D01*
X157053443Y-93237426D01*
X157133931Y-93156938D01*
X157190844Y-93058361D01*
X157220305Y-92948413D01*
X157220305Y-92834587D01*
X157190844Y-92724639D01*
X157190840Y-92724632D01*
X157133935Y-92626068D01*
X157133929Y-92626060D01*
X157053444Y-92545575D01*
X157053436Y-92545569D01*
X156954872Y-92488664D01*
X156954867Y-92488661D01*
X156918216Y-92478840D01*
X156844918Y-92459200D01*
X156731092Y-92459200D01*
X156676118Y-92473930D01*
X156621142Y-92488661D01*
X156621137Y-92488664D01*
X156522573Y-92545569D01*
X156522565Y-92545575D01*
X156442080Y-92626060D01*
X156442074Y-92626068D01*
X156385169Y-92724632D01*
X156385166Y-92724637D01*
X156365525Y-92797937D01*
X156355705Y-92834587D01*
X130571704Y-92834587D01*
X130571704Y-90551758D01*
X151147805Y-90551758D01*
X151147805Y-90731241D01*
X151175879Y-90908498D01*
X151231341Y-91079189D01*
X151312818Y-91239095D01*
X151418309Y-91384291D01*
X151545214Y-91511196D01*
X151690410Y-91616687D01*
X151765960Y-91655181D01*
X151850315Y-91698163D01*
X151850317Y-91698163D01*
X151850320Y-91698165D01*
X151941810Y-91727892D01*
X152021006Y-91753625D01*
X152198264Y-91781700D01*
X152198269Y-91781700D01*
X152377746Y-91781700D01*
X152555003Y-91753625D01*
X152725690Y-91698165D01*
X152885600Y-91616687D01*
X153030796Y-91511196D01*
X153157701Y-91384291D01*
X153263192Y-91239095D01*
X153344670Y-91079185D01*
X153400130Y-90908498D01*
X153428205Y-90731241D01*
X153428205Y-90551758D01*
X155147805Y-90551758D01*
X155147805Y-90731241D01*
X155175879Y-90908498D01*
X155231341Y-91079189D01*
X155312818Y-91239095D01*
X155418309Y-91384291D01*
X155545214Y-91511196D01*
X155690410Y-91616687D01*
X155765960Y-91655181D01*
X155850315Y-91698163D01*
X155850317Y-91698163D01*
X155850320Y-91698165D01*
X155941810Y-91727892D01*
X156021006Y-91753625D01*
X156198264Y-91781700D01*
X156198269Y-91781700D01*
X156377746Y-91781700D01*
X156555003Y-91753625D01*
X156725690Y-91698165D01*
X156885600Y-91616687D01*
X157030796Y-91511196D01*
X157157701Y-91384291D01*
X157263192Y-91239095D01*
X157344670Y-91079185D01*
X157400130Y-90908498D01*
X157428205Y-90731241D01*
X157428205Y-90551758D01*
X157400130Y-90374501D01*
X157344668Y-90203810D01*
X157263191Y-90043904D01*
X157157701Y-89898709D01*
X157030796Y-89771804D01*
X156885600Y-89666313D01*
X156862139Y-89654359D01*
X156725694Y-89584836D01*
X156588898Y-89540388D01*
X156555003Y-89529374D01*
X156377746Y-89501300D01*
X156377741Y-89501300D01*
X156198269Y-89501300D01*
X156198264Y-89501300D01*
X156021006Y-89529374D01*
X155850315Y-89584836D01*
X155690409Y-89666313D01*
X155607570Y-89726499D01*
X155545214Y-89771804D01*
X155545212Y-89771806D01*
X155545211Y-89771806D01*
X155418311Y-89898706D01*
X155418311Y-89898707D01*
X155418309Y-89898709D01*
X155402987Y-89919798D01*
X155312818Y-90043904D01*
X155231341Y-90203810D01*
X155175879Y-90374501D01*
X155147805Y-90551758D01*
X153428205Y-90551758D01*
X153400130Y-90374501D01*
X153344668Y-90203810D01*
X153263191Y-90043904D01*
X153157701Y-89898709D01*
X153030796Y-89771804D01*
X152885600Y-89666313D01*
X152862139Y-89654359D01*
X152725694Y-89584836D01*
X152555003Y-89529374D01*
X152377746Y-89501300D01*
X152377741Y-89501300D01*
X152198269Y-89501300D01*
X152198264Y-89501300D01*
X152021006Y-89529374D01*
X151850315Y-89584836D01*
X151690409Y-89666313D01*
X151607570Y-89726499D01*
X151545214Y-89771804D01*
X151545212Y-89771806D01*
X151545211Y-89771806D01*
X151418311Y-89898706D01*
X151418311Y-89898707D01*
X151418309Y-89898709D01*
X151402987Y-89919798D01*
X151312818Y-90043904D01*
X151231341Y-90203810D01*
X151175879Y-90374501D01*
X151147805Y-90551758D01*
X130571704Y-90551758D01*
X130571704Y-89430585D01*
X159296705Y-89430585D01*
X159296705Y-89544411D01*
X159307537Y-89584835D01*
X159326166Y-89654360D01*
X159326169Y-89654365D01*
X159383074Y-89752929D01*
X159383078Y-89752934D01*
X159383079Y-89752936D01*
X159463567Y-89833424D01*
X159463569Y-89833425D01*
X159463573Y-89833428D01*
X159562137Y-89890333D01*
X159562144Y-89890337D01*
X159672092Y-89919798D01*
X159672094Y-89919798D01*
X159785916Y-89919798D01*
X159785918Y-89919798D01*
X159895866Y-89890337D01*
X159994443Y-89833424D01*
X160074931Y-89752936D01*
X160131844Y-89654359D01*
X160161305Y-89544411D01*
X160161305Y-89430585D01*
X160131844Y-89320637D01*
X160131840Y-89320630D01*
X160074935Y-89222066D01*
X160074929Y-89222058D01*
X159994444Y-89141573D01*
X159994436Y-89141567D01*
X159895872Y-89084662D01*
X159895867Y-89084659D01*
X159859216Y-89074838D01*
X159785918Y-89055198D01*
X159672092Y-89055198D01*
X159617118Y-89069928D01*
X159562142Y-89084659D01*
X159562137Y-89084662D01*
X159463573Y-89141567D01*
X159463565Y-89141573D01*
X159383080Y-89222058D01*
X159383074Y-89222066D01*
X159326169Y-89320630D01*
X159326166Y-89320635D01*
X159306525Y-89393935D01*
X159296705Y-89430585D01*
X130571704Y-89430585D01*
X130571704Y-85016995D01*
X131302637Y-85016995D01*
X131302637Y-85186260D01*
X131310692Y-85355363D01*
X131310694Y-85355386D01*
X131326779Y-85523826D01*
X131326784Y-85523868D01*
X131350868Y-85691378D01*
X131350874Y-85691414D01*
X131382906Y-85857614D01*
X131422815Y-86022125D01*
X131470504Y-86184535D01*
X131525868Y-86344499D01*
X131525873Y-86344511D01*
X131525877Y-86344524D01*
X131588781Y-86501647D01*
X131659104Y-86655635D01*
X131717064Y-86768059D01*
X131736665Y-86806079D01*
X131736679Y-86806103D01*
X131799553Y-86915006D01*
X131821301Y-86952674D01*
X131851544Y-86999733D01*
X131912805Y-87095057D01*
X131912826Y-87095089D01*
X132001347Y-87219398D01*
X132011005Y-87232961D01*
X132011015Y-87232973D01*
X132011033Y-87232998D01*
X132115631Y-87366005D01*
X132115646Y-87366022D01*
X132226477Y-87493929D01*
X132226480Y-87493933D01*
X132343304Y-87616456D01*
X132465827Y-87733280D01*
X132465831Y-87733283D01*
X132470617Y-87737430D01*
X132593742Y-87844118D01*
X132593746Y-87844121D01*
X132593755Y-87844129D01*
X132726762Y-87948727D01*
X132726781Y-87948741D01*
X132726800Y-87948756D01*
X132777282Y-87984704D01*
X132864671Y-88046934D01*
X132864683Y-88046942D01*
X132864686Y-88046944D01*
X133007087Y-88138460D01*
X133153682Y-88223096D01*
X133153698Y-88223104D01*
X133304125Y-88300656D01*
X133458113Y-88370979D01*
X133615236Y-88433883D01*
X133615240Y-88433884D01*
X133615262Y-88433893D01*
X133775226Y-88489257D01*
X133937635Y-88536945D01*
X133937634Y-88536945D01*
X133937640Y-88536946D01*
X133937642Y-88536947D01*
X134102144Y-88576854D01*
X134268358Y-88608889D01*
X134435908Y-88632979D01*
X134604415Y-88649070D01*
X134773496Y-88657124D01*
X134858133Y-88657628D01*
X134942770Y-88657124D01*
X135111851Y-88649070D01*
X135280358Y-88632979D01*
X135447908Y-88608889D01*
X135614122Y-88576854D01*
X135778624Y-88536947D01*
X135941040Y-88489257D01*
X136101004Y-88433893D01*
X136258151Y-88370980D01*
X136412128Y-88300662D01*
X136562584Y-88223096D01*
X136709179Y-88138460D01*
X136851580Y-88046944D01*
X136989466Y-87948756D01*
X137122524Y-87844118D01*
X137250452Y-87733268D01*
X137372961Y-87616456D01*
X137489773Y-87493947D01*
X137600623Y-87366019D01*
X137625341Y-87334588D01*
X137625342Y-87334587D01*
X139355704Y-87334587D01*
X139355704Y-87448413D01*
X139367900Y-87493929D01*
X139385165Y-87558362D01*
X139385168Y-87558367D01*
X139442073Y-87656931D01*
X139442077Y-87656936D01*
X139442078Y-87656938D01*
X139522566Y-87737426D01*
X139522568Y-87737427D01*
X139522572Y-87737430D01*
X139621136Y-87794335D01*
X139621143Y-87794339D01*
X139731091Y-87823800D01*
X139731093Y-87823800D01*
X139844915Y-87823800D01*
X139844917Y-87823800D01*
X139954865Y-87794339D01*
X140053442Y-87737426D01*
X140133930Y-87656938D01*
X140190843Y-87558361D01*
X140220304Y-87448413D01*
X140220304Y-87334587D01*
X143755705Y-87334587D01*
X143755705Y-87448413D01*
X143767901Y-87493929D01*
X143785166Y-87558362D01*
X143785169Y-87558367D01*
X143842074Y-87656931D01*
X143842078Y-87656936D01*
X143842079Y-87656938D01*
X143922567Y-87737426D01*
X143922569Y-87737427D01*
X143922573Y-87737430D01*
X144021137Y-87794335D01*
X144021144Y-87794339D01*
X144131092Y-87823800D01*
X144131094Y-87823800D01*
X144244916Y-87823800D01*
X144244918Y-87823800D01*
X144354866Y-87794339D01*
X144453443Y-87737426D01*
X144533931Y-87656938D01*
X144590844Y-87558361D01*
X144620305Y-87448413D01*
X144620305Y-87334587D01*
X144593082Y-87232993D01*
X144592437Y-87230586D01*
X163096704Y-87230586D01*
X163096704Y-87344412D01*
X163116344Y-87417710D01*
X163126165Y-87454361D01*
X163126168Y-87454366D01*
X163183073Y-87552930D01*
X163183077Y-87552935D01*
X163183078Y-87552937D01*
X163263566Y-87633425D01*
X163263568Y-87633426D01*
X163263572Y-87633429D01*
X163362136Y-87690334D01*
X163362143Y-87690338D01*
X163472091Y-87719799D01*
X163472093Y-87719799D01*
X163585915Y-87719799D01*
X163585917Y-87719799D01*
X163695865Y-87690338D01*
X163794442Y-87633425D01*
X163874930Y-87552937D01*
X163931843Y-87454360D01*
X163961304Y-87344412D01*
X163961304Y-87230586D01*
X163931843Y-87120638D01*
X163931839Y-87120631D01*
X163874934Y-87022067D01*
X163874928Y-87022059D01*
X163794443Y-86941574D01*
X163794435Y-86941568D01*
X163695871Y-86884663D01*
X163695866Y-86884660D01*
X163659215Y-86874839D01*
X163585917Y-86855199D01*
X163472091Y-86855199D01*
X163417117Y-86869929D01*
X163362141Y-86884660D01*
X163362136Y-86884663D01*
X163263572Y-86941568D01*
X163263564Y-86941574D01*
X163183079Y-87022059D01*
X163183073Y-87022067D01*
X163126168Y-87120631D01*
X163126165Y-87120636D01*
X163124710Y-87126068D01*
X163096704Y-87230586D01*
X144592437Y-87230586D01*
X144590845Y-87224643D01*
X144590844Y-87224639D01*
X144590840Y-87224632D01*
X144533935Y-87126068D01*
X144533929Y-87126060D01*
X144453444Y-87045575D01*
X144453436Y-87045569D01*
X144354872Y-86988664D01*
X144354867Y-86988661D01*
X144318216Y-86978840D01*
X144244918Y-86959200D01*
X144131092Y-86959200D01*
X144076118Y-86973930D01*
X144021142Y-86988661D01*
X144021137Y-86988664D01*
X143922573Y-87045569D01*
X143922565Y-87045575D01*
X143842080Y-87126060D01*
X143842074Y-87126068D01*
X143785169Y-87224632D01*
X143785166Y-87224637D01*
X143765525Y-87297937D01*
X143755705Y-87334587D01*
X140220304Y-87334587D01*
X140190843Y-87224639D01*
X140190839Y-87224632D01*
X140133934Y-87126068D01*
X140133928Y-87126060D01*
X140053443Y-87045575D01*
X140053435Y-87045569D01*
X139954871Y-86988664D01*
X139954866Y-86988661D01*
X139918215Y-86978840D01*
X139844917Y-86959200D01*
X139731091Y-86959200D01*
X139676117Y-86973930D01*
X139621141Y-86988661D01*
X139621136Y-86988664D01*
X139522572Y-87045569D01*
X139522564Y-87045575D01*
X139442079Y-87126060D01*
X139442073Y-87126068D01*
X139385168Y-87224632D01*
X139385165Y-87224637D01*
X139365524Y-87297937D01*
X139355704Y-87334587D01*
X137625342Y-87334587D01*
X137692014Y-87249807D01*
X137705236Y-87232993D01*
X137705238Y-87232989D01*
X137705261Y-87232961D01*
X137803449Y-87095075D01*
X137894965Y-86952674D01*
X137979601Y-86806079D01*
X138057167Y-86655623D01*
X138127485Y-86501646D01*
X138190398Y-86344499D01*
X138245762Y-86184535D01*
X138293452Y-86022119D01*
X138333359Y-85857617D01*
X138365394Y-85691403D01*
X138389484Y-85523853D01*
X138405575Y-85355346D01*
X138413629Y-85186265D01*
X138413629Y-85101034D01*
X150630506Y-85101034D01*
X150630506Y-85349968D01*
X150631364Y-85355386D01*
X150669447Y-85595832D01*
X150669447Y-85595834D01*
X150669448Y-85595836D01*
X150746373Y-85832586D01*
X150859386Y-86054387D01*
X151005706Y-86255779D01*
X151181728Y-86431801D01*
X151383120Y-86578121D01*
X151604921Y-86691134D01*
X151841671Y-86768059D01*
X152087539Y-86807001D01*
X152087540Y-86807001D01*
X152336472Y-86807001D01*
X152336473Y-86807001D01*
X152582341Y-86768059D01*
X152819091Y-86691134D01*
X153040892Y-86578121D01*
X153242284Y-86431801D01*
X153418306Y-86255779D01*
X153564626Y-86054387D01*
X153677639Y-85832586D01*
X153754564Y-85595836D01*
X153765533Y-85526580D01*
X153795462Y-85463446D01*
X153854774Y-85426515D01*
X153924636Y-85427513D01*
X153982869Y-85466123D01*
X154010983Y-85530086D01*
X154012006Y-85545979D01*
X154012006Y-86225486D01*
X154022499Y-86328190D01*
X154022500Y-86328197D01*
X154077647Y-86494619D01*
X154077649Y-86494624D01*
X154169690Y-86643845D01*
X154293661Y-86767816D01*
X154442882Y-86859857D01*
X154442887Y-86859859D01*
X154609309Y-86915006D01*
X154609316Y-86915007D01*
X154712020Y-86925500D01*
X154712033Y-86925501D01*
X155462006Y-86925501D01*
X155462006Y-85773983D01*
X155480415Y-85784612D01*
X155633015Y-85825501D01*
X155790997Y-85825501D01*
X155943597Y-85784612D01*
X155962006Y-85773983D01*
X155962006Y-86925501D01*
X156711979Y-86925501D01*
X156711991Y-86925500D01*
X156814695Y-86915007D01*
X156814702Y-86915006D01*
X156981124Y-86859859D01*
X156981129Y-86859857D01*
X157130350Y-86767816D01*
X157254321Y-86643845D01*
X157346362Y-86494624D01*
X157346364Y-86494619D01*
X157401511Y-86328197D01*
X157401512Y-86328190D01*
X157412005Y-86225486D01*
X157412006Y-86225473D01*
X157412006Y-85475501D01*
X156260488Y-85475501D01*
X156271117Y-85457092D01*
X156312006Y-85304492D01*
X156312006Y-85146510D01*
X156277303Y-85016995D01*
X180742381Y-85016995D01*
X180742381Y-85186260D01*
X180750436Y-85355363D01*
X180750438Y-85355386D01*
X180766523Y-85523826D01*
X180766528Y-85523868D01*
X180790612Y-85691378D01*
X180790618Y-85691414D01*
X180822650Y-85857614D01*
X180862559Y-86022125D01*
X180910248Y-86184535D01*
X180965612Y-86344499D01*
X180965617Y-86344511D01*
X180965621Y-86344524D01*
X181028525Y-86501647D01*
X181098848Y-86655635D01*
X181156808Y-86768059D01*
X181176409Y-86806079D01*
X181176423Y-86806103D01*
X181239297Y-86915006D01*
X181261045Y-86952674D01*
X181291288Y-86999733D01*
X181352549Y-87095057D01*
X181352570Y-87095089D01*
X181441091Y-87219398D01*
X181450749Y-87232961D01*
X181450759Y-87232973D01*
X181450777Y-87232998D01*
X181555375Y-87366005D01*
X181555390Y-87366022D01*
X181666221Y-87493929D01*
X181666224Y-87493933D01*
X181783048Y-87616456D01*
X181905571Y-87733280D01*
X181905575Y-87733283D01*
X181910361Y-87737430D01*
X182033486Y-87844118D01*
X182033490Y-87844121D01*
X182033499Y-87844129D01*
X182166506Y-87948727D01*
X182166525Y-87948741D01*
X182166544Y-87948756D01*
X182217026Y-87984704D01*
X182304415Y-88046934D01*
X182304427Y-88046942D01*
X182304430Y-88046944D01*
X182446831Y-88138460D01*
X182593426Y-88223096D01*
X182593442Y-88223104D01*
X182743869Y-88300656D01*
X182897857Y-88370979D01*
X183054980Y-88433883D01*
X183054984Y-88433884D01*
X183055006Y-88433893D01*
X183214970Y-88489257D01*
X183377379Y-88536945D01*
X183377378Y-88536945D01*
X183377384Y-88536946D01*
X183377386Y-88536947D01*
X183541888Y-88576854D01*
X183708102Y-88608889D01*
X183875652Y-88632979D01*
X184044159Y-88649070D01*
X184213240Y-88657124D01*
X184297877Y-88657628D01*
X184382514Y-88657124D01*
X184551595Y-88649070D01*
X184720102Y-88632979D01*
X184887652Y-88608889D01*
X185053866Y-88576854D01*
X185218368Y-88536947D01*
X185380784Y-88489257D01*
X185540748Y-88433893D01*
X185697895Y-88370980D01*
X185851872Y-88300662D01*
X186002328Y-88223096D01*
X186148923Y-88138460D01*
X186291324Y-88046944D01*
X186429210Y-87948756D01*
X186562268Y-87844118D01*
X186690196Y-87733268D01*
X186812705Y-87616456D01*
X186929517Y-87493947D01*
X187040367Y-87366019D01*
X187145005Y-87232961D01*
X187243193Y-87095075D01*
X187334709Y-86952674D01*
X187419345Y-86806079D01*
X187496911Y-86655623D01*
X187567229Y-86501646D01*
X187630142Y-86344499D01*
X187685506Y-86184535D01*
X187733196Y-86022119D01*
X187773103Y-85857617D01*
X187805138Y-85691403D01*
X187829228Y-85523853D01*
X187845319Y-85355346D01*
X187853373Y-85186265D01*
X187853373Y-85016991D01*
X187845319Y-84847910D01*
X187829228Y-84679403D01*
X187805138Y-84511853D01*
X187773103Y-84345639D01*
X187733196Y-84181137D01*
X187685506Y-84018721D01*
X187630142Y-83858757D01*
X187567229Y-83701610D01*
X187496911Y-83547633D01*
X187496910Y-83547631D01*
X187496905Y-83547620D01*
X187419353Y-83397193D01*
X187419345Y-83397177D01*
X187334709Y-83250582D01*
X187243193Y-83108181D01*
X187243191Y-83108178D01*
X187243183Y-83108166D01*
X187145016Y-82970311D01*
X187145005Y-82970295D01*
X187144990Y-82970276D01*
X187144976Y-82970257D01*
X187040378Y-82837250D01*
X187040367Y-82837237D01*
X186953884Y-82737430D01*
X186929532Y-82709326D01*
X186929529Y-82709322D01*
X186812705Y-82586799D01*
X186690182Y-82469975D01*
X186690178Y-82469972D01*
X186562271Y-82359141D01*
X186562254Y-82359126D01*
X186429247Y-82254528D01*
X186429222Y-82254510D01*
X186429210Y-82254500D01*
X186387276Y-82224639D01*
X186291338Y-82156321D01*
X186291306Y-82156300D01*
X186148918Y-82064793D01*
X186148915Y-82064791D01*
X186002352Y-81980174D01*
X186002328Y-81980160D01*
X186002311Y-81980151D01*
X185851884Y-81902599D01*
X185697896Y-81832276D01*
X185540773Y-81769372D01*
X185540760Y-81769368D01*
X185540748Y-81769363D01*
X185434058Y-81732437D01*
X185380791Y-81714001D01*
X185218374Y-81666310D01*
X185218375Y-81666310D01*
X185053863Y-81626401D01*
X184887663Y-81594369D01*
X184887658Y-81594368D01*
X184887652Y-81594367D01*
X184887644Y-81594365D01*
X184887627Y-81594363D01*
X184720117Y-81570279D01*
X184720110Y-81570278D01*
X184720102Y-81570277D01*
X184720092Y-81570276D01*
X184720075Y-81570274D01*
X184551635Y-81554189D01*
X184551612Y-81554187D01*
X184551598Y-81554186D01*
X184551595Y-81554186D01*
X184382514Y-81546132D01*
X184213240Y-81546132D01*
X184044159Y-81554186D01*
X184044156Y-81554186D01*
X184044141Y-81554187D01*
X184044118Y-81554189D01*
X183875678Y-81570274D01*
X183875656Y-81570276D01*
X183875652Y-81570277D01*
X183875648Y-81570277D01*
X183875636Y-81570279D01*
X183708126Y-81594363D01*
X183708090Y-81594369D01*
X183541890Y-81626401D01*
X183377379Y-81666310D01*
X183214962Y-81714001D01*
X183118081Y-81747532D01*
X183055006Y-81769363D01*
X183054996Y-81769366D01*
X183054993Y-81769368D01*
X183054980Y-81769372D01*
X182897857Y-81832276D01*
X182743869Y-81902599D01*
X182593442Y-81980151D01*
X182593401Y-81980174D01*
X182446838Y-82064791D01*
X182446835Y-82064793D01*
X182304447Y-82156300D01*
X182304415Y-82156321D01*
X182166560Y-82254488D01*
X182166506Y-82254528D01*
X182033499Y-82359126D01*
X182033482Y-82359141D01*
X181905575Y-82469972D01*
X181905571Y-82469975D01*
X181783048Y-82586799D01*
X181666224Y-82709322D01*
X181666221Y-82709326D01*
X181555390Y-82837233D01*
X181555375Y-82837250D01*
X181450777Y-82970257D01*
X181450737Y-82970311D01*
X181352570Y-83108166D01*
X181352549Y-83108198D01*
X181261042Y-83250586D01*
X181261040Y-83250589D01*
X181176423Y-83397152D01*
X181176400Y-83397193D01*
X181098848Y-83547620D01*
X181028525Y-83701608D01*
X180965621Y-83858731D01*
X180965617Y-83858744D01*
X180965612Y-83858757D01*
X180960724Y-83872881D01*
X180910250Y-84018713D01*
X180862559Y-84181130D01*
X180822650Y-84345641D01*
X180790618Y-84511841D01*
X180790612Y-84511877D01*
X180766528Y-84679387D01*
X180766523Y-84679429D01*
X180750438Y-84847869D01*
X180750436Y-84847892D01*
X180750435Y-84847907D01*
X180750435Y-84847910D01*
X180743481Y-84993910D01*
X180742381Y-85016995D01*
X156277303Y-85016995D01*
X156271117Y-84993910D01*
X156260488Y-84975501D01*
X157412006Y-84975501D01*
X157412006Y-84430586D01*
X167496705Y-84430586D01*
X167496705Y-84544412D01*
X167516345Y-84617710D01*
X167526166Y-84654361D01*
X167526169Y-84654366D01*
X167583074Y-84752930D01*
X167583078Y-84752935D01*
X167583079Y-84752937D01*
X167663567Y-84833425D01*
X167663569Y-84833426D01*
X167663573Y-84833429D01*
X167762137Y-84890334D01*
X167762144Y-84890338D01*
X167872092Y-84919799D01*
X167872094Y-84919799D01*
X167985916Y-84919799D01*
X167985918Y-84919799D01*
X168095866Y-84890338D01*
X168194443Y-84833425D01*
X168274931Y-84752937D01*
X168331844Y-84654360D01*
X168361305Y-84544412D01*
X168361305Y-84430586D01*
X168331844Y-84320638D01*
X168276933Y-84225528D01*
X168274935Y-84222067D01*
X168274929Y-84222059D01*
X168194444Y-84141574D01*
X168194436Y-84141568D01*
X168095872Y-84084663D01*
X168095867Y-84084660D01*
X168059216Y-84074839D01*
X167985918Y-84055199D01*
X167872092Y-84055199D01*
X167817118Y-84069929D01*
X167762142Y-84084660D01*
X167762137Y-84084663D01*
X167663573Y-84141568D01*
X167663565Y-84141574D01*
X167583080Y-84222059D01*
X167583074Y-84222067D01*
X167526169Y-84320631D01*
X167526166Y-84320636D01*
X167522428Y-84334587D01*
X167496705Y-84430586D01*
X157412006Y-84430586D01*
X157412006Y-84225528D01*
X157412005Y-84225515D01*
X157401512Y-84122811D01*
X157401511Y-84122804D01*
X157346364Y-83956382D01*
X157346362Y-83956377D01*
X157254321Y-83807156D01*
X157130350Y-83683185D01*
X156981129Y-83591144D01*
X156981124Y-83591142D01*
X156814702Y-83535995D01*
X156814695Y-83535994D01*
X156711991Y-83525501D01*
X155962006Y-83525501D01*
X155962006Y-84677018D01*
X155943597Y-84666390D01*
X155790997Y-84625501D01*
X155633015Y-84625501D01*
X155480415Y-84666390D01*
X155462006Y-84677018D01*
X155462006Y-83525501D01*
X154712020Y-83525501D01*
X154609316Y-83535994D01*
X154609309Y-83535995D01*
X154442887Y-83591142D01*
X154442882Y-83591144D01*
X154293661Y-83683185D01*
X154169690Y-83807156D01*
X154077649Y-83956377D01*
X154077647Y-83956382D01*
X154022500Y-84122804D01*
X154022499Y-84122811D01*
X154012006Y-84225515D01*
X154012006Y-84905022D01*
X153992321Y-84972061D01*
X153939517Y-85017816D01*
X153870359Y-85027760D01*
X153806803Y-84998735D01*
X153769029Y-84939957D01*
X153765533Y-84924420D01*
X153760135Y-84890338D01*
X153754564Y-84855166D01*
X153677639Y-84618416D01*
X153564626Y-84396615D01*
X153418306Y-84195223D01*
X153242284Y-84019201D01*
X153040892Y-83872881D01*
X152819091Y-83759868D01*
X152582341Y-83682943D01*
X152582339Y-83682942D01*
X152582337Y-83682942D01*
X152410668Y-83655752D01*
X152336473Y-83644001D01*
X152087539Y-83644001D01*
X152030543Y-83653028D01*
X151841674Y-83682942D01*
X151604918Y-83759869D01*
X151383119Y-83872881D01*
X151268218Y-83956361D01*
X151181728Y-84019201D01*
X151181726Y-84019203D01*
X151181725Y-84019203D01*
X151005708Y-84195220D01*
X151005708Y-84195221D01*
X151005706Y-84195223D01*
X150984334Y-84224639D01*
X150859386Y-84396614D01*
X150746374Y-84618413D01*
X150669447Y-84855169D01*
X150630506Y-85101034D01*
X138413629Y-85101034D01*
X138413629Y-85016991D01*
X138405575Y-84847910D01*
X138389484Y-84679403D01*
X138365394Y-84511853D01*
X138353167Y-84448411D01*
X138334186Y-84349925D01*
X138333360Y-84345645D01*
X138330677Y-84334587D01*
X143755705Y-84334587D01*
X143755705Y-84448413D01*
X143775345Y-84521711D01*
X143785166Y-84558362D01*
X143785169Y-84558367D01*
X143842074Y-84656931D01*
X143842078Y-84656936D01*
X143842079Y-84656938D01*
X143922567Y-84737426D01*
X143922569Y-84737427D01*
X143922573Y-84737430D01*
X144021137Y-84794335D01*
X144021144Y-84794339D01*
X144131092Y-84823800D01*
X144131094Y-84823800D01*
X144244916Y-84823800D01*
X144244918Y-84823800D01*
X144354866Y-84794339D01*
X144453443Y-84737426D01*
X144533931Y-84656938D01*
X144590844Y-84558361D01*
X144620305Y-84448413D01*
X144620305Y-84334587D01*
X144590844Y-84224639D01*
X144589356Y-84222061D01*
X144533935Y-84126068D01*
X144533929Y-84126060D01*
X144453444Y-84045575D01*
X144453436Y-84045569D01*
X144354872Y-83988664D01*
X144354867Y-83988661D01*
X144318216Y-83978840D01*
X144244918Y-83959200D01*
X144131092Y-83959200D01*
X144076118Y-83973930D01*
X144021142Y-83988661D01*
X144021137Y-83988664D01*
X143922573Y-84045569D01*
X143922565Y-84045575D01*
X143842080Y-84126060D01*
X143842074Y-84126068D01*
X143785169Y-84224632D01*
X143785166Y-84224637D01*
X143765525Y-84297937D01*
X143755705Y-84334587D01*
X138330677Y-84334587D01*
X138293452Y-84181137D01*
X138245762Y-84018721D01*
X138190398Y-83858757D01*
X138127485Y-83701610D01*
X138057167Y-83547633D01*
X138057166Y-83547631D01*
X138057161Y-83547620D01*
X137979609Y-83397193D01*
X137979601Y-83397177D01*
X137894965Y-83250582D01*
X137803449Y-83108181D01*
X137803447Y-83108178D01*
X137803439Y-83108166D01*
X137705272Y-82970311D01*
X137705261Y-82970295D01*
X137705246Y-82970276D01*
X137705232Y-82970257D01*
X137600634Y-82837250D01*
X137600623Y-82837237D01*
X137514140Y-82737430D01*
X137489788Y-82709326D01*
X137489785Y-82709322D01*
X137372961Y-82586799D01*
X137250438Y-82469975D01*
X137250434Y-82469971D01*
X137192970Y-82420179D01*
X137192962Y-82420173D01*
X137122524Y-82359138D01*
X137091305Y-82334587D01*
X141155704Y-82334587D01*
X141155704Y-82448413D01*
X141161481Y-82469971D01*
X141185165Y-82558362D01*
X141185168Y-82558367D01*
X141242073Y-82656931D01*
X141242077Y-82656936D01*
X141242078Y-82656938D01*
X141322566Y-82737426D01*
X141322568Y-82737427D01*
X141322572Y-82737430D01*
X141421136Y-82794335D01*
X141421143Y-82794339D01*
X141531091Y-82823800D01*
X141531093Y-82823800D01*
X141644915Y-82823800D01*
X141644917Y-82823800D01*
X141754865Y-82794339D01*
X141853442Y-82737426D01*
X141933930Y-82656938D01*
X141990843Y-82558361D01*
X142020304Y-82448413D01*
X142020304Y-82334587D01*
X146155704Y-82334587D01*
X146155704Y-82448413D01*
X146161481Y-82469971D01*
X146185165Y-82558362D01*
X146185168Y-82558367D01*
X146242073Y-82656931D01*
X146242077Y-82656936D01*
X146242078Y-82656938D01*
X146322566Y-82737426D01*
X146322568Y-82737427D01*
X146322572Y-82737430D01*
X146421136Y-82794335D01*
X146421143Y-82794339D01*
X146531091Y-82823800D01*
X146531093Y-82823800D01*
X146644915Y-82823800D01*
X146644917Y-82823800D01*
X146754865Y-82794339D01*
X146853442Y-82737426D01*
X146933930Y-82656938D01*
X146990843Y-82558361D01*
X147020304Y-82448413D01*
X147020304Y-82334587D01*
X146990843Y-82224639D01*
X146951388Y-82156300D01*
X146933934Y-82126068D01*
X146933928Y-82126060D01*
X146853443Y-82045575D01*
X146853435Y-82045569D01*
X146754871Y-81988664D01*
X146754866Y-81988661D01*
X146718215Y-81978840D01*
X146644917Y-81959200D01*
X146531091Y-81959200D01*
X146476117Y-81973930D01*
X146421141Y-81988661D01*
X146421136Y-81988664D01*
X146322572Y-82045569D01*
X146322564Y-82045575D01*
X146242079Y-82126060D01*
X146242073Y-82126068D01*
X146185168Y-82224632D01*
X146185165Y-82224637D01*
X146177156Y-82254528D01*
X146155704Y-82334587D01*
X142020304Y-82334587D01*
X141990843Y-82224639D01*
X141951388Y-82156300D01*
X141933934Y-82126068D01*
X141933928Y-82126060D01*
X141853443Y-82045575D01*
X141853435Y-82045569D01*
X141754871Y-81988664D01*
X141754866Y-81988661D01*
X141718215Y-81978840D01*
X141644917Y-81959200D01*
X141531091Y-81959200D01*
X141476117Y-81973930D01*
X141421141Y-81988661D01*
X141421136Y-81988664D01*
X141322572Y-82045569D01*
X141322564Y-82045575D01*
X141242079Y-82126060D01*
X141242073Y-82126068D01*
X141185168Y-82224632D01*
X141185165Y-82224637D01*
X141177156Y-82254528D01*
X141155704Y-82334587D01*
X137091305Y-82334587D01*
X136989503Y-82254528D01*
X136989478Y-82254510D01*
X136989466Y-82254500D01*
X136947532Y-82224639D01*
X136851594Y-82156321D01*
X136851562Y-82156300D01*
X136709174Y-82064793D01*
X136709171Y-82064791D01*
X136562608Y-81980174D01*
X136562584Y-81980160D01*
X136562567Y-81980151D01*
X136412140Y-81902599D01*
X136258152Y-81832276D01*
X136101029Y-81769372D01*
X136101016Y-81769368D01*
X136101004Y-81769363D01*
X135994314Y-81732437D01*
X135941047Y-81714001D01*
X135778630Y-81666310D01*
X135778631Y-81666310D01*
X135614119Y-81626401D01*
X135447919Y-81594369D01*
X135447914Y-81594368D01*
X135447908Y-81594367D01*
X135447900Y-81594365D01*
X135447883Y-81594363D01*
X135280373Y-81570279D01*
X135280366Y-81570278D01*
X135280358Y-81570277D01*
X135280348Y-81570276D01*
X135280331Y-81570274D01*
X135111891Y-81554189D01*
X135111868Y-81554187D01*
X135111854Y-81554186D01*
X135111851Y-81554186D01*
X134942770Y-81546132D01*
X134773496Y-81546132D01*
X134604415Y-81554186D01*
X134604412Y-81554186D01*
X134604397Y-81554187D01*
X134604374Y-81554189D01*
X134435934Y-81570274D01*
X134435912Y-81570276D01*
X134435908Y-81570277D01*
X134435904Y-81570277D01*
X134435892Y-81570279D01*
X134268382Y-81594363D01*
X134268346Y-81594369D01*
X134102146Y-81626401D01*
X133937635Y-81666310D01*
X133775218Y-81714001D01*
X133678337Y-81747532D01*
X133615262Y-81769363D01*
X133615252Y-81769366D01*
X133615249Y-81769368D01*
X133615236Y-81769372D01*
X133458113Y-81832276D01*
X133304125Y-81902599D01*
X133153698Y-81980151D01*
X133153657Y-81980174D01*
X133007094Y-82064791D01*
X133007091Y-82064793D01*
X132864703Y-82156300D01*
X132864671Y-82156321D01*
X132726816Y-82254488D01*
X132726762Y-82254528D01*
X132593755Y-82359126D01*
X132593738Y-82359141D01*
X132465831Y-82469972D01*
X132465827Y-82469975D01*
X132343304Y-82586799D01*
X132226480Y-82709322D01*
X132226477Y-82709326D01*
X132115646Y-82837233D01*
X132115631Y-82837250D01*
X132011033Y-82970257D01*
X132010993Y-82970311D01*
X131912826Y-83108166D01*
X131912805Y-83108198D01*
X131821298Y-83250586D01*
X131821296Y-83250589D01*
X131736679Y-83397152D01*
X131736656Y-83397193D01*
X131659104Y-83547620D01*
X131588781Y-83701608D01*
X131525877Y-83858731D01*
X131525873Y-83858744D01*
X131525868Y-83858757D01*
X131520980Y-83872881D01*
X131470506Y-84018713D01*
X131422815Y-84181130D01*
X131382906Y-84345641D01*
X131350874Y-84511841D01*
X131350868Y-84511877D01*
X131326784Y-84679387D01*
X131326779Y-84679429D01*
X131310694Y-84847869D01*
X131310692Y-84847892D01*
X131310691Y-84847907D01*
X131310691Y-84847910D01*
X131303737Y-84993910D01*
X131302637Y-85016995D01*
X130571704Y-85016995D01*
X130571704Y-80969501D01*
X130591389Y-80902462D01*
X130644193Y-80856707D01*
X130695704Y-80845501D01*
X143673817Y-80845501D01*
X143740856Y-80865186D01*
G37*
%TD.AperFunction*%
%TD*%
M02*
