%TF.GenerationSoftware,KiCad,Pcbnew,10.0.6-10.0.6~ubuntu26.04.1*%
%TF.CreationDate,2026-09-21T00:05:19-04:00*%
%TF.ProjectId,PHOBOS_Control_Digital,50484f42-4f53-45f4-936f-6e74726f6c5f,rev?*%
%TF.SameCoordinates,Original*%
%TF.FileFunction,Copper,L2,Inr*%
%TF.FilePolarity,Positive*%
%FSLAX46Y46*%
G04 Gerber Fmt 4.6, Leading zero omitted, Abs format (unit mm)*
G04 Created by KiCad (PCBNEW 10.0.6-10.0.6~ubuntu26.04.1) date 2026-09-21 00:05:19*
%MOMM*%
%LPD*%
G01*
G04 APERTURE LIST*
G04 Aperture macros list*
%AMRoundRect*
0 Rectangle with rounded corners*
0 $1 Rounding radius*
0 $2 $3 $4 $5 $6 $7 $8 $9 X,Y pos of 4 corners*
0 Add a 4 corners polygon primitive as box body*
4,1,4,$2,$3,$4,$5,$6,$7,$8,$9,$2,$3,0*
0 Add four circle primitives for the rounded corners*
1,1,$1+$1,$2,$3*
1,1,$1+$1,$4,$5*
1,1,$1+$1,$6,$7*
1,1,$1+$1,$8,$9*
0 Add four rect primitives between the rounded corners*
20,1,$1+$1,$2,$3,$4,$5,0*
20,1,$1+$1,$4,$5,$6,$7,0*
20,1,$1+$1,$6,$7,$8,$9,0*
20,1,$1+$1,$8,$9,$2,$3,0*%
G04 Aperture macros list end*
%TA.AperFunction,ComponentPad*%
%ADD10RoundRect,0.250001X0.949999X0.949999X-0.949999X0.949999X-0.949999X-0.949999X0.949999X-0.949999X0*%
%TD*%
%TA.AperFunction,ComponentPad*%
%ADD11C,2.400000*%
%TD*%
%TA.AperFunction,ComponentPad*%
%ADD12R,1.700000X1.700000*%
%TD*%
%TA.AperFunction,ComponentPad*%
%ADD13C,1.700000*%
%TD*%
%TA.AperFunction,ComponentPad*%
%ADD14C,0.600000*%
%TD*%
%TA.AperFunction,ComponentPad*%
%ADD15O,1.400000X0.800000*%
%TD*%
%TA.AperFunction,ComponentPad*%
%ADD16C,2.000000*%
%TD*%
%TA.AperFunction,ViaPad*%
%ADD17C,0.609600*%
%TD*%
G04 APERTURE END LIST*
D10*
%TO.N,GND*%
%TO.C,J4*%
X155712006Y-85225501D03*
D11*
%TO.N,+BATT*%
X152212006Y-85225501D03*
%TD*%
D12*
%TO.N,GND*%
%TO.C,J8*%
X141798005Y-114245501D03*
D13*
%TO.N,/QSPI_SS*%
X144338005Y-114245501D03*
%TD*%
D14*
%TO.N,GND*%
%TO.C,J3*%
X137316005Y-101191500D03*
%TO.N,unconnected-(J3-SSTXP2-PadB2)*%
X136616005Y-100791500D03*
%TO.N,unconnected-(J3-SSTXN2-PadB3)*%
X136616005Y-99991500D03*
%TO.N,VBUS*%
X137316005Y-99591500D03*
%TO.N,Net-(J3-CC2)*%
X136616006Y-99191500D03*
%TO.N,/USB_D+*%
X137316005Y-98791500D03*
%TO.N,/USB_D-*%
X137316005Y-97991500D03*
%TO.N,unconnected-(J3-SBU2-PadB8)*%
X136616006Y-97591500D03*
%TO.N,VBUS*%
X137316005Y-97191500D03*
%TO.N,unconnected-(J3-SSRXN1-PadB10)*%
X136616005Y-96791500D03*
%TO.N,unconnected-(J3-SSRXP1-PadB11)*%
X136616005Y-95991500D03*
%TO.N,GND*%
X137316005Y-95591500D03*
D15*
X136726005Y-94261500D03*
X136726005Y-102521500D03*
X132326005Y-93901501D03*
X132326005Y-102881499D03*
%TD*%
D16*
%TO.N,/RX*%
%TO.C,TP10*%
X149538005Y-107141500D03*
%TD*%
%TO.N,/TX*%
%TO.C,TP9*%
X149538005Y-104141500D03*
%TD*%
%TO.N,/SCL*%
%TO.C,TP8*%
X152288005Y-90641500D03*
%TD*%
%TO.N,Net-(U4-GPIO19)*%
%TO.C,TP11*%
X158563005Y-94116500D03*
%TD*%
%TO.N,/SDA*%
%TO.C,TP7*%
X156288005Y-90641500D03*
%TD*%
D17*
%TO.N,GND*%
X167494143Y-97620840D03*
X160038005Y-106391500D03*
X166706744Y-98408240D03*
X153538005Y-91891500D03*
X151376005Y-98391500D03*
X167494142Y-98408238D03*
X167494142Y-99195638D03*
X165788005Y-92391500D03*
X173588005Y-96374499D03*
X173588005Y-97124499D03*
X157293302Y-99219376D03*
X186933237Y-101873345D03*
X180735369Y-94886938D03*
X168690006Y-98841501D03*
X149788005Y-113991500D03*
X161388005Y-102991500D03*
X174788005Y-99391500D03*
X182335369Y-96486938D03*
X174690005Y-100041502D03*
X164788005Y-92391500D03*
X153788005Y-105891500D03*
X171090006Y-100841501D03*
X178338005Y-99374499D03*
X163038005Y-106391500D03*
X154538005Y-109191500D03*
X138788005Y-110141500D03*
X176838005Y-97124499D03*
X153916005Y-99661500D03*
X169838005Y-97124499D03*
X179838005Y-99374499D03*
X152646005Y-97121500D03*
X180758685Y-100282180D03*
X175788005Y-99391500D03*
X171788005Y-100891500D03*
X187733237Y-100273345D03*
X152538005Y-93891500D03*
X180588005Y-99124499D03*
X179088005Y-97124499D03*
X152388005Y-109191500D03*
X182838005Y-99124499D03*
X186179078Y-95755700D03*
X187779077Y-94955700D03*
X171290005Y-99441503D03*
X141588005Y-96791500D03*
X144988005Y-94591500D03*
X182358685Y-100282180D03*
X162188005Y-110791500D03*
X165919344Y-99195639D03*
X161729005Y-93287499D03*
X181558685Y-101082180D03*
X187733237Y-101073345D03*
X186979078Y-96555700D03*
X186133237Y-101873345D03*
X186179078Y-94955699D03*
X159538005Y-100641500D03*
X165919343Y-98408239D03*
X142788005Y-102923300D03*
X164988005Y-109391500D03*
X186933237Y-101073345D03*
X179088005Y-99374499D03*
X182335368Y-95686938D03*
X176838005Y-96374499D03*
X180588005Y-97374499D03*
X181558684Y-100282180D03*
X180758685Y-101882180D03*
X165388005Y-103791500D03*
X165165003Y-100346501D03*
X175890006Y-100041500D03*
X169290006Y-100841500D03*
X155538005Y-104891501D03*
X151376005Y-97121499D03*
X186133237Y-101073345D03*
X163329005Y-90087499D03*
X186933237Y-100273344D03*
X171338005Y-97124499D03*
X161538005Y-106391500D03*
X181338005Y-97374499D03*
X179838005Y-97124499D03*
X182358685Y-101882180D03*
X147538005Y-104391500D03*
X141788005Y-85791500D03*
X178338005Y-97124499D03*
X180758684Y-101082180D03*
X154988005Y-99391500D03*
X176088005Y-95874499D03*
X186979078Y-95755699D03*
X170290007Y-100841500D03*
X173090007Y-100841500D03*
X180735369Y-95686937D03*
X187779078Y-95755700D03*
X181338005Y-99124499D03*
X166706742Y-99195638D03*
X140038005Y-111641500D03*
X143188004Y-106591500D03*
X172288005Y-91141500D03*
X137788005Y-104391500D03*
X153916005Y-97121500D03*
X182358684Y-101082180D03*
X180735369Y-96486938D03*
X187779078Y-96555699D03*
X181535368Y-94886938D03*
X151376005Y-99661501D03*
X181535369Y-96486938D03*
X166538005Y-92391500D03*
X146788005Y-83991500D03*
X146288004Y-106891500D03*
X162538005Y-109391501D03*
X187733237Y-101873345D03*
X159538005Y-92391500D03*
X155788005Y-107641500D03*
X155038005Y-106891500D03*
X165530006Y-94931501D03*
X174588005Y-95891500D03*
X164718004Y-100876502D03*
X176338005Y-100841501D03*
X186133237Y-100273345D03*
X172838005Y-97124499D03*
X153916004Y-98391500D03*
X152646005Y-99661500D03*
X156788004Y-108791500D03*
X170290005Y-99441501D03*
X164388005Y-110791501D03*
X163788005Y-92391500D03*
X152388005Y-107391500D03*
X156788005Y-103391500D03*
X143388005Y-94791500D03*
X175338005Y-95874499D03*
X148788005Y-108891500D03*
X182838005Y-97374499D03*
X170588005Y-97124499D03*
X152646005Y-98391500D03*
X181558684Y-101882180D03*
X168929004Y-82487499D03*
X152388005Y-105991500D03*
X166038004Y-106391500D03*
X147788005Y-92191500D03*
X164538005Y-106391500D03*
X178338005Y-100124499D03*
X162788005Y-103591500D03*
X165919344Y-97620840D03*
X177588005Y-97124499D03*
X174490006Y-100841501D03*
X186979078Y-94955700D03*
X171288004Y-100141500D03*
X181535369Y-95686938D03*
X172288005Y-100141500D03*
X153788005Y-107391500D03*
X182335369Y-94886938D03*
X182088005Y-97374499D03*
X172290007Y-99441500D03*
X177038005Y-106141500D03*
X166706744Y-97620838D03*
X143538005Y-101641500D03*
X186179078Y-96555699D03*
X142538005Y-99641500D03*
X182088005Y-99124499D03*
X177088005Y-100374499D03*
X172088005Y-97124499D03*
X162388005Y-95591500D03*
%TO.N,+3V3*%
X150188005Y-98191500D03*
X146588004Y-82391500D03*
X156788005Y-92891500D03*
X138388004Y-107991500D03*
X151788005Y-93391500D03*
X163529004Y-87287499D03*
X144188005Y-84391500D03*
X162270507Y-98162499D03*
X167929005Y-84487499D03*
X154988004Y-98191500D03*
X144188005Y-81191500D03*
X159729005Y-89487498D03*
X153588005Y-100791500D03*
X153588004Y-96191500D03*
X140788005Y-110141500D03*
X150188004Y-100591500D03*
X166490006Y-101674001D03*
X141588004Y-82391500D03*
X144188005Y-87391500D03*
X139788004Y-87391500D03*
X146538005Y-94141500D03*
%TO.N,+1V1*%
X150217005Y-99162500D03*
X154988005Y-97191500D03*
X150388005Y-96591500D03*
%TO.N,/DCC_FB*%
X164290006Y-100041500D03*
X167440008Y-95441501D03*
%TO.N,/NSS_TRANS*%
X154988005Y-100591500D03*
X168588005Y-105191500D03*
%TO.N,/USB_D+*%
X143988005Y-97391500D03*
X139788004Y-97991500D03*
%TD*%
%TA.AperFunction,Conductor*%
%TO.N,GND*%
G36*
X143663030Y-80865186D02*
G01*
X143708785Y-80917990D01*
X143718729Y-80987148D01*
X143715767Y-81001588D01*
X143682705Y-81124976D01*
X143682705Y-81258024D01*
X143699923Y-81322281D01*
X143717141Y-81386540D01*
X143717142Y-81386541D01*
X143763900Y-81467527D01*
X143783665Y-81501761D01*
X143877744Y-81595840D01*
X143930679Y-81626402D01*
X143992963Y-81662362D01*
X143992964Y-81662363D01*
X143992966Y-81662363D01*
X143992967Y-81662364D01*
X144121481Y-81696800D01*
X144121483Y-81696800D01*
X144254527Y-81696800D01*
X144254529Y-81696800D01*
X144383043Y-81662364D01*
X144498266Y-81595840D01*
X144592345Y-81501761D01*
X144658869Y-81386538D01*
X144693305Y-81258024D01*
X144693305Y-81124976D01*
X144660244Y-81001593D01*
X144661907Y-80931745D01*
X144701069Y-80873883D01*
X144765297Y-80846378D01*
X144780019Y-80845501D01*
X188460305Y-80845501D01*
X188527344Y-80865186D01*
X188573099Y-80917990D01*
X188584305Y-80969501D01*
X188584305Y-115843800D01*
X188564620Y-115910839D01*
X188511816Y-115956594D01*
X188460305Y-115967800D01*
X130695704Y-115967800D01*
X130628665Y-115948115D01*
X130582910Y-115895311D01*
X130571704Y-115843800D01*
X130571704Y-111596734D01*
X131302637Y-111596734D01*
X131302637Y-111766008D01*
X131310691Y-111935089D01*
X131310692Y-111935099D01*
X131326782Y-112103607D01*
X131326783Y-112103611D01*
X131350868Y-112271132D01*
X131350871Y-112271146D01*
X131382907Y-112437360D01*
X131422815Y-112601868D01*
X131470506Y-112764285D01*
X131470509Y-112764293D01*
X131525868Y-112924242D01*
X131588780Y-113081389D01*
X131588788Y-113081407D01*
X131588792Y-113081416D01*
X131621673Y-113153414D01*
X131659099Y-113235366D01*
X131736664Y-113385822D01*
X131759825Y-113425938D01*
X131821296Y-113532409D01*
X131821298Y-113532412D01*
X131912805Y-113674800D01*
X131912807Y-113674803D01*
X131912817Y-113674818D01*
X132010994Y-113812688D01*
X132011003Y-113812701D01*
X132115642Y-113945762D01*
X132115653Y-113945776D01*
X132226482Y-114073678D01*
X132226486Y-114073682D01*
X132226493Y-114073690D01*
X132291656Y-114142031D01*
X132343294Y-114196188D01*
X132343299Y-114196193D01*
X132343305Y-114196199D01*
X132343317Y-114196210D01*
X132465826Y-114313023D01*
X132465830Y-114313026D01*
X132593741Y-114423861D01*
X132593744Y-114423863D01*
X132593754Y-114423872D01*
X132726761Y-114528470D01*
X132726780Y-114528484D01*
X132726799Y-114528499D01*
X132759691Y-114551921D01*
X132864670Y-114626677D01*
X132864700Y-114626697D01*
X133007087Y-114718203D01*
X133153681Y-114802840D01*
X133304137Y-114880405D01*
X133458088Y-114950712D01*
X133458114Y-114950724D01*
X133458125Y-114950729D01*
X133615235Y-115013627D01*
X133615239Y-115013628D01*
X133615261Y-115013637D01*
X133775225Y-115069001D01*
X133937641Y-115116690D01*
X134102143Y-115156598D01*
X134268357Y-115188633D01*
X134435907Y-115212723D01*
X134604414Y-115228814D01*
X134773495Y-115236868D01*
X134858132Y-115237372D01*
X134942769Y-115236868D01*
X135111850Y-115228814D01*
X135280357Y-115212724D01*
X135447907Y-115188634D01*
X135614121Y-115156598D01*
X135778623Y-115116691D01*
X135941039Y-115069001D01*
X136101003Y-115013637D01*
X136258150Y-114950725D01*
X136412127Y-114880406D01*
X136562583Y-114802841D01*
X136709178Y-114718204D01*
X136851579Y-114626688D01*
X136989465Y-114528500D01*
X137122523Y-114423863D01*
X137250451Y-114313012D01*
X137372960Y-114196200D01*
X137489772Y-114073692D01*
X137600622Y-113945764D01*
X137705260Y-113812706D01*
X137803448Y-113674820D01*
X137894964Y-113532418D01*
X137979601Y-113385824D01*
X137999278Y-113347656D01*
X140448005Y-113347656D01*
X140448005Y-113995501D01*
X141364993Y-113995501D01*
X141332080Y-114052508D01*
X141298005Y-114179675D01*
X141298005Y-114311327D01*
X141332080Y-114438494D01*
X141364993Y-114495501D01*
X140448005Y-114495501D01*
X140448005Y-115143345D01*
X140454406Y-115202873D01*
X140454408Y-115202880D01*
X140504650Y-115337587D01*
X140504654Y-115337594D01*
X140590814Y-115452688D01*
X140590817Y-115452691D01*
X140705911Y-115538851D01*
X140705918Y-115538855D01*
X140840625Y-115589097D01*
X140840632Y-115589099D01*
X140900160Y-115595500D01*
X140900177Y-115595501D01*
X141548005Y-115595501D01*
X141548005Y-114678513D01*
X141605012Y-114711426D01*
X141732179Y-114745501D01*
X141863831Y-114745501D01*
X141990998Y-114711426D01*
X142048005Y-114678513D01*
X142048005Y-115595501D01*
X142695833Y-115595501D01*
X142695849Y-115595500D01*
X142755377Y-115589099D01*
X142755384Y-115589097D01*
X142890091Y-115538855D01*
X142890098Y-115538851D01*
X143005192Y-115452691D01*
X143005195Y-115452688D01*
X143091355Y-115337594D01*
X143091359Y-115337587D01*
X143141601Y-115202880D01*
X143141603Y-115202873D01*
X143148004Y-115143345D01*
X143148005Y-115143328D01*
X143148005Y-114741065D01*
X143167690Y-114674026D01*
X143220494Y-114628271D01*
X143289652Y-114618327D01*
X143353208Y-114647352D01*
X143386566Y-114693613D01*
X143396751Y-114718203D01*
X143407064Y-114743099D01*
X143446982Y-114802841D01*
X143522029Y-114915158D01*
X143668347Y-115061476D01*
X143668350Y-115061478D01*
X143840407Y-115176442D01*
X144031585Y-115255631D01*
X144234535Y-115296000D01*
X144234539Y-115296001D01*
X144234540Y-115296001D01*
X144441471Y-115296001D01*
X144441472Y-115296000D01*
X144644425Y-115255631D01*
X144835603Y-115176442D01*
X145007660Y-115061478D01*
X145153982Y-114915156D01*
X145268946Y-114743099D01*
X145348135Y-114551921D01*
X145388505Y-114348966D01*
X145388505Y-114142036D01*
X145348135Y-113939081D01*
X145268946Y-113747903D01*
X145153982Y-113575846D01*
X145153980Y-113575843D01*
X145007662Y-113429525D01*
X144885135Y-113347656D01*
X144835603Y-113314560D01*
X144644425Y-113235371D01*
X144644417Y-113235369D01*
X144441474Y-113195001D01*
X144441470Y-113195001D01*
X144234540Y-113195001D01*
X144234535Y-113195001D01*
X144031592Y-113235369D01*
X144031584Y-113235371D01*
X143840408Y-113314559D01*
X143668347Y-113429525D01*
X143522029Y-113575843D01*
X143407063Y-113747904D01*
X143386566Y-113797389D01*
X143342725Y-113851792D01*
X143276431Y-113873857D01*
X143208731Y-113856578D01*
X143161121Y-113805440D01*
X143148005Y-113749936D01*
X143148005Y-113347673D01*
X143148004Y-113347656D01*
X143141603Y-113288128D01*
X143141601Y-113288121D01*
X143091359Y-113153414D01*
X143091355Y-113153407D01*
X143005195Y-113038313D01*
X143005192Y-113038310D01*
X142890098Y-112952150D01*
X142890091Y-112952146D01*
X142755384Y-112901904D01*
X142755377Y-112901902D01*
X142695849Y-112895501D01*
X142048005Y-112895501D01*
X142048005Y-113812489D01*
X141990998Y-113779576D01*
X141863831Y-113745501D01*
X141732179Y-113745501D01*
X141605012Y-113779576D01*
X141548005Y-113812489D01*
X141548005Y-112895501D01*
X140900160Y-112895501D01*
X140840632Y-112901902D01*
X140840625Y-112901904D01*
X140705918Y-112952146D01*
X140705911Y-112952150D01*
X140590817Y-113038310D01*
X140590814Y-113038313D01*
X140504654Y-113153407D01*
X140504650Y-113153414D01*
X140454408Y-113288121D01*
X140454406Y-113288128D01*
X140448005Y-113347656D01*
X137999278Y-113347656D01*
X138057166Y-113235368D01*
X138127485Y-113081391D01*
X138190398Y-112924244D01*
X138245762Y-112764280D01*
X138293451Y-112601864D01*
X138333359Y-112437362D01*
X138365394Y-112271148D01*
X138389484Y-112103598D01*
X138405575Y-111935091D01*
X138413629Y-111766010D01*
X138413629Y-111596739D01*
X180742381Y-111596739D01*
X180742381Y-111766004D01*
X180750436Y-111935107D01*
X180750438Y-111935130D01*
X180766523Y-112103570D01*
X180766528Y-112103612D01*
X180790612Y-112271122D01*
X180790618Y-112271158D01*
X180822650Y-112437358D01*
X180862559Y-112601869D01*
X180910250Y-112764286D01*
X180928686Y-112817553D01*
X180965612Y-112924243D01*
X180965617Y-112924255D01*
X180965621Y-112924268D01*
X181028525Y-113081391D01*
X181098848Y-113235379D01*
X181156732Y-113347656D01*
X181176409Y-113385823D01*
X181176410Y-113385824D01*
X181176423Y-113385847D01*
X181261040Y-113532410D01*
X181261042Y-113532413D01*
X181261044Y-113532417D01*
X181352549Y-113674801D01*
X181352570Y-113674833D01*
X181404604Y-113747904D01*
X181450749Y-113812705D01*
X181450750Y-113812706D01*
X181450777Y-113812742D01*
X181555375Y-113945749D01*
X181555384Y-113945759D01*
X181555387Y-113945763D01*
X181598485Y-113995501D01*
X181666221Y-114073673D01*
X181666224Y-114073677D01*
X181783048Y-114196200D01*
X181905571Y-114313024D01*
X181905574Y-114313026D01*
X182033486Y-114423862D01*
X182033490Y-114423865D01*
X182033499Y-114423873D01*
X182166506Y-114528471D01*
X182166525Y-114528485D01*
X182166544Y-114528500D01*
X182199423Y-114551913D01*
X182304415Y-114626678D01*
X182304445Y-114626698D01*
X182446831Y-114718204D01*
X182593426Y-114802840D01*
X182593442Y-114802848D01*
X182743869Y-114880400D01*
X182743880Y-114880405D01*
X182743882Y-114880406D01*
X182897859Y-114950724D01*
X182949340Y-114971334D01*
X183054980Y-115013627D01*
X183054984Y-115013628D01*
X183055006Y-115013637D01*
X183214970Y-115069001D01*
X183377379Y-115116689D01*
X183377378Y-115116689D01*
X183377384Y-115116690D01*
X183377386Y-115116691D01*
X183541888Y-115156598D01*
X183708102Y-115188633D01*
X183875652Y-115212723D01*
X184044159Y-115228814D01*
X184213240Y-115236868D01*
X184297877Y-115237372D01*
X184382514Y-115236868D01*
X184551595Y-115228814D01*
X184720102Y-115212723D01*
X184887652Y-115188633D01*
X185053866Y-115156598D01*
X185218368Y-115116691D01*
X185380784Y-115069001D01*
X185540748Y-115013637D01*
X185697895Y-114950724D01*
X185851872Y-114880406D01*
X186002328Y-114802840D01*
X186148923Y-114718204D01*
X186291324Y-114626688D01*
X186429210Y-114528500D01*
X186562268Y-114423862D01*
X186690196Y-114313012D01*
X186812705Y-114196200D01*
X186929517Y-114073691D01*
X187040367Y-113945763D01*
X187145005Y-113812705D01*
X187243193Y-113674819D01*
X187334709Y-113532418D01*
X187419345Y-113385823D01*
X187496911Y-113235367D01*
X187567229Y-113081390D01*
X187630142Y-112924243D01*
X187685506Y-112764279D01*
X187733196Y-112601863D01*
X187773103Y-112437361D01*
X187805138Y-112271147D01*
X187829228Y-112103597D01*
X187845319Y-111935090D01*
X187853373Y-111766009D01*
X187853373Y-111596735D01*
X187845319Y-111427654D01*
X187829228Y-111259147D01*
X187805138Y-111091597D01*
X187773103Y-110925383D01*
X187733196Y-110760881D01*
X187685506Y-110598465D01*
X187630142Y-110438501D01*
X187630131Y-110438474D01*
X187567233Y-110281364D01*
X187567229Y-110281354D01*
X187496911Y-110127377D01*
X187496910Y-110127375D01*
X187496905Y-110127364D01*
X187419353Y-109976937D01*
X187419345Y-109976921D01*
X187334709Y-109830326D01*
X187243193Y-109687925D01*
X187243191Y-109687922D01*
X187243183Y-109687910D01*
X187145016Y-109550055D01*
X187145005Y-109550039D01*
X187144990Y-109550020D01*
X187144976Y-109550001D01*
X187040378Y-109416994D01*
X187040370Y-109416985D01*
X187040367Y-109416981D01*
X186929531Y-109289069D01*
X186929529Y-109289066D01*
X186812705Y-109166543D01*
X186690182Y-109049719D01*
X186690178Y-109049716D01*
X186626029Y-108994131D01*
X186562268Y-108938882D01*
X186562264Y-108938879D01*
X186562254Y-108938870D01*
X186429247Y-108834272D01*
X186429211Y-108834245D01*
X186429210Y-108834244D01*
X186415647Y-108824586D01*
X186291338Y-108736065D01*
X186291306Y-108736044D01*
X186195982Y-108674783D01*
X186148923Y-108644540D01*
X186148918Y-108644537D01*
X186148915Y-108644535D01*
X186002352Y-108559918D01*
X186002328Y-108559904D01*
X186002311Y-108559895D01*
X185851884Y-108482343D01*
X185697896Y-108412020D01*
X185540773Y-108349116D01*
X185540760Y-108349112D01*
X185540748Y-108349107D01*
X185434058Y-108312181D01*
X185380791Y-108293745D01*
X185218374Y-108246054D01*
X185218375Y-108246054D01*
X185053863Y-108206145D01*
X184887663Y-108174113D01*
X184887658Y-108174112D01*
X184887652Y-108174111D01*
X184887644Y-108174109D01*
X184887627Y-108174107D01*
X184720117Y-108150023D01*
X184720110Y-108150022D01*
X184720102Y-108150021D01*
X184720092Y-108150020D01*
X184720075Y-108150018D01*
X184551635Y-108133933D01*
X184551612Y-108133931D01*
X184551598Y-108133930D01*
X184551595Y-108133930D01*
X184382514Y-108125876D01*
X184213240Y-108125876D01*
X184044159Y-108133930D01*
X184044156Y-108133930D01*
X184044141Y-108133931D01*
X184044118Y-108133933D01*
X183875678Y-108150018D01*
X183875656Y-108150020D01*
X183875652Y-108150021D01*
X183875648Y-108150021D01*
X183875636Y-108150023D01*
X183708126Y-108174107D01*
X183708090Y-108174113D01*
X183541890Y-108206145D01*
X183377379Y-108246054D01*
X183214962Y-108293745D01*
X183160948Y-108312440D01*
X183055006Y-108349107D01*
X183054996Y-108349110D01*
X183054993Y-108349112D01*
X183054980Y-108349116D01*
X182897857Y-108412020D01*
X182743869Y-108482343D01*
X182593442Y-108559895D01*
X182593401Y-108559918D01*
X182446838Y-108644535D01*
X182446835Y-108644537D01*
X182304447Y-108736044D01*
X182304415Y-108736065D01*
X182166560Y-108834232D01*
X182166506Y-108834272D01*
X182033499Y-108938870D01*
X182033482Y-108938885D01*
X181905575Y-109049716D01*
X181905571Y-109049719D01*
X181783048Y-109166543D01*
X181666224Y-109289066D01*
X181666221Y-109289070D01*
X181555390Y-109416977D01*
X181555375Y-109416994D01*
X181450777Y-109550001D01*
X181450737Y-109550055D01*
X181352570Y-109687910D01*
X181352549Y-109687942D01*
X181261042Y-109830330D01*
X181261040Y-109830333D01*
X181176423Y-109976896D01*
X181176400Y-109976937D01*
X181098848Y-110127364D01*
X181028525Y-110281352D01*
X180965621Y-110438475D01*
X180965617Y-110438488D01*
X180965612Y-110438501D01*
X180965612Y-110438502D01*
X180910250Y-110598457D01*
X180862559Y-110760874D01*
X180822650Y-110925385D01*
X180790618Y-111091585D01*
X180790612Y-111091621D01*
X180766528Y-111259131D01*
X180766523Y-111259173D01*
X180750438Y-111427613D01*
X180750436Y-111427636D01*
X180742381Y-111596739D01*
X138413629Y-111596739D01*
X138413629Y-111596736D01*
X138405575Y-111427655D01*
X138389485Y-111259148D01*
X138365395Y-111091598D01*
X138333359Y-110925384D01*
X138293452Y-110760882D01*
X138245762Y-110598466D01*
X138190398Y-110438502D01*
X138127486Y-110281355D01*
X138057167Y-110127378D01*
X138030152Y-110074976D01*
X140282705Y-110074976D01*
X140282705Y-110208024D01*
X140299923Y-110272281D01*
X140317141Y-110336540D01*
X140317142Y-110336541D01*
X140363900Y-110417527D01*
X140383665Y-110451761D01*
X140477744Y-110545840D01*
X140558733Y-110592599D01*
X140592963Y-110612362D01*
X140592964Y-110612363D01*
X140592966Y-110612363D01*
X140592967Y-110612364D01*
X140721481Y-110646800D01*
X140721483Y-110646800D01*
X140854527Y-110646800D01*
X140854529Y-110646800D01*
X140983043Y-110612364D01*
X141098266Y-110545840D01*
X141192345Y-110451761D01*
X141258869Y-110336538D01*
X141293305Y-110208024D01*
X141293305Y-110074976D01*
X141258869Y-109946462D01*
X141258868Y-109946461D01*
X141258868Y-109946459D01*
X141258867Y-109946458D01*
X141239104Y-109912228D01*
X141192345Y-109831239D01*
X141098266Y-109737160D01*
X141013020Y-109687943D01*
X140983046Y-109670637D01*
X140983045Y-109670636D01*
X140918786Y-109653418D01*
X140854529Y-109636200D01*
X140721481Y-109636200D01*
X140670075Y-109649974D01*
X140592964Y-109670636D01*
X140592963Y-109670637D01*
X140477747Y-109737158D01*
X140477741Y-109737162D01*
X140383667Y-109831236D01*
X140383663Y-109831242D01*
X140317142Y-109946458D01*
X140317141Y-109946459D01*
X140308979Y-109976921D01*
X140282705Y-110074976D01*
X138030152Y-110074976D01*
X137979602Y-109976922D01*
X137894965Y-109830327D01*
X137803449Y-109687926D01*
X137705261Y-109550040D01*
X137600624Y-109416982D01*
X137600619Y-109416976D01*
X137600612Y-109416967D01*
X137489783Y-109289065D01*
X137489779Y-109289061D01*
X137489773Y-109289054D01*
X137372961Y-109166545D01*
X137250453Y-109049733D01*
X137250448Y-109049729D01*
X137250439Y-109049720D01*
X137250435Y-109049717D01*
X137122528Y-108938886D01*
X137122523Y-108938882D01*
X137122521Y-108938880D01*
X137122511Y-108938871D01*
X136989504Y-108834273D01*
X136989479Y-108834255D01*
X136989467Y-108834245D01*
X136975904Y-108824587D01*
X136851595Y-108736066D01*
X136851563Y-108736045D01*
X136797912Y-108701566D01*
X136709179Y-108644541D01*
X136614551Y-108589907D01*
X136562591Y-108559907D01*
X136562587Y-108559905D01*
X136562585Y-108559904D01*
X136412129Y-108482339D01*
X136368386Y-108462362D01*
X136258151Y-108412019D01*
X136258140Y-108412014D01*
X136101030Y-108349116D01*
X136101017Y-108349112D01*
X136101005Y-108349107D01*
X135995063Y-108312440D01*
X135941054Y-108293747D01*
X135941044Y-108293744D01*
X135941041Y-108293743D01*
X135909604Y-108284512D01*
X135778631Y-108246055D01*
X135614119Y-108206145D01*
X135447920Y-108174113D01*
X135447915Y-108174112D01*
X135447909Y-108174111D01*
X135447901Y-108174109D01*
X135447884Y-108174107D01*
X135280374Y-108150023D01*
X135280367Y-108150022D01*
X135280359Y-108150021D01*
X135280349Y-108150020D01*
X135280332Y-108150018D01*
X135111892Y-108133933D01*
X135111869Y-108133931D01*
X135111855Y-108133930D01*
X135111852Y-108133930D01*
X134942771Y-108125876D01*
X134773497Y-108125876D01*
X134604416Y-108133930D01*
X134604406Y-108133930D01*
X134604405Y-108133931D01*
X134435897Y-108150021D01*
X134435893Y-108150022D01*
X134268372Y-108174107D01*
X134268358Y-108174110D01*
X134102144Y-108206146D01*
X133937636Y-108246054D01*
X133775219Y-108293745D01*
X133615265Y-108349106D01*
X133615263Y-108349107D01*
X133458116Y-108412019D01*
X133458114Y-108412020D01*
X133458088Y-108412031D01*
X133304151Y-108482332D01*
X133304142Y-108482336D01*
X133304139Y-108482338D01*
X133153699Y-108559895D01*
X133153683Y-108559903D01*
X133153658Y-108559917D01*
X133007095Y-108644535D01*
X133007092Y-108644537D01*
X132864704Y-108736044D01*
X132864701Y-108736046D01*
X132726803Y-108834242D01*
X132593742Y-108938881D01*
X132593728Y-108938892D01*
X132465826Y-109049721D01*
X132465815Y-109049732D01*
X132343316Y-109166533D01*
X132226481Y-109289065D01*
X132226478Y-109289069D01*
X132115647Y-109416976D01*
X132115632Y-109416993D01*
X132011034Y-109550000D01*
X132010994Y-109550054D01*
X131912827Y-109687909D01*
X131912806Y-109687941D01*
X131827050Y-109821381D01*
X131821302Y-109830326D01*
X131820777Y-109831236D01*
X131736668Y-109976913D01*
X131736665Y-109976920D01*
X131686114Y-110074977D01*
X131659094Y-110127388D01*
X131588780Y-110281353D01*
X131588775Y-110281364D01*
X131525877Y-110438474D01*
X131525873Y-110438487D01*
X131525868Y-110438500D01*
X131521278Y-110451763D01*
X131470508Y-110598450D01*
X131422816Y-110760873D01*
X131382906Y-110925385D01*
X131350874Y-111091584D01*
X131350868Y-111091620D01*
X131326784Y-111259130D01*
X131326779Y-111259172D01*
X131310694Y-111427612D01*
X131310692Y-111427635D01*
X131310692Y-111427644D01*
X131310691Y-111427653D01*
X131302637Y-111596734D01*
X130571704Y-111596734D01*
X130571704Y-107924976D01*
X137882704Y-107924976D01*
X137882704Y-108058024D01*
X137899922Y-108122281D01*
X137917140Y-108186540D01*
X137917141Y-108186541D01*
X137951502Y-108246055D01*
X137983664Y-108301761D01*
X138077743Y-108395840D01*
X138105768Y-108412020D01*
X138192962Y-108462362D01*
X138192963Y-108462363D01*
X138192965Y-108462363D01*
X138192966Y-108462364D01*
X138321480Y-108496800D01*
X138321482Y-108496800D01*
X138454526Y-108496800D01*
X138454528Y-108496800D01*
X138583042Y-108462364D01*
X138698265Y-108395840D01*
X138792344Y-108301761D01*
X138858868Y-108186538D01*
X138893304Y-108058024D01*
X138893304Y-107924976D01*
X138858868Y-107796462D01*
X138858867Y-107796461D01*
X138858867Y-107796459D01*
X138858866Y-107796458D01*
X138839103Y-107762228D01*
X138792344Y-107681239D01*
X138698265Y-107587160D01*
X138664031Y-107567395D01*
X138583045Y-107520637D01*
X138583044Y-107520636D01*
X138518785Y-107503418D01*
X138454528Y-107486200D01*
X138321480Y-107486200D01*
X138270074Y-107499974D01*
X138192963Y-107520636D01*
X138192962Y-107520637D01*
X138077746Y-107587158D01*
X138077740Y-107587162D01*
X137983666Y-107681236D01*
X137983662Y-107681242D01*
X137917141Y-107796458D01*
X137917140Y-107796459D01*
X137891313Y-107892847D01*
X137882704Y-107924976D01*
X130571704Y-107924976D01*
X130571704Y-107047013D01*
X148337505Y-107047013D01*
X148337505Y-107235986D01*
X148367064Y-107422618D01*
X148425459Y-107602336D01*
X148511245Y-107770699D01*
X148622315Y-107923573D01*
X148755932Y-108057190D01*
X148908806Y-108168260D01*
X148944679Y-108186538D01*
X149077168Y-108254045D01*
X149077170Y-108254045D01*
X149077173Y-108254047D01*
X149173502Y-108285346D01*
X149256886Y-108312440D01*
X149443519Y-108342000D01*
X149443524Y-108342000D01*
X149632491Y-108342000D01*
X149819123Y-108312440D01*
X149851989Y-108301761D01*
X149998837Y-108254047D01*
X150167204Y-108168260D01*
X150320078Y-108057190D01*
X150453695Y-107923573D01*
X150564765Y-107770699D01*
X150650552Y-107602332D01*
X150708945Y-107422618D01*
X150738505Y-107235986D01*
X150738505Y-107047013D01*
X150708945Y-106860381D01*
X150650550Y-106680663D01*
X150564764Y-106512300D01*
X150453695Y-106359427D01*
X150320078Y-106225810D01*
X150167204Y-106114740D01*
X149998841Y-106028954D01*
X149819123Y-105970559D01*
X149632491Y-105941000D01*
X149632486Y-105941000D01*
X149443524Y-105941000D01*
X149443519Y-105941000D01*
X149256886Y-105970559D01*
X149077168Y-106028954D01*
X148908805Y-106114740D01*
X148821584Y-106178110D01*
X148755932Y-106225810D01*
X148755930Y-106225812D01*
X148755929Y-106225812D01*
X148622317Y-106359424D01*
X148622317Y-106359425D01*
X148622315Y-106359427D01*
X148574615Y-106425079D01*
X148511245Y-106512300D01*
X148425459Y-106680663D01*
X148367064Y-106860381D01*
X148337505Y-107047013D01*
X130571704Y-107047013D01*
X130571704Y-104047013D01*
X148337505Y-104047013D01*
X148337505Y-104235986D01*
X148367064Y-104422618D01*
X148425459Y-104602336D01*
X148485737Y-104720637D01*
X148511245Y-104770699D01*
X148622315Y-104923573D01*
X148755932Y-105057190D01*
X148908806Y-105168260D01*
X148988352Y-105208790D01*
X149077168Y-105254045D01*
X149077170Y-105254045D01*
X149077173Y-105254047D01*
X149173502Y-105285346D01*
X149256886Y-105312440D01*
X149443519Y-105342000D01*
X149443524Y-105342000D01*
X149632491Y-105342000D01*
X149819123Y-105312440D01*
X149998837Y-105254047D01*
X150167204Y-105168260D01*
X150226779Y-105124976D01*
X168082705Y-105124976D01*
X168082705Y-105258024D01*
X168097286Y-105312440D01*
X168117141Y-105386540D01*
X168117142Y-105386541D01*
X168163900Y-105467527D01*
X168183665Y-105501761D01*
X168277744Y-105595840D01*
X168358733Y-105642599D01*
X168392963Y-105662362D01*
X168392964Y-105662363D01*
X168392966Y-105662363D01*
X168392967Y-105662364D01*
X168521481Y-105696800D01*
X168521483Y-105696800D01*
X168654527Y-105696800D01*
X168654529Y-105696800D01*
X168783043Y-105662364D01*
X168898266Y-105595840D01*
X168992345Y-105501761D01*
X169058869Y-105386538D01*
X169093305Y-105258024D01*
X169093305Y-105124976D01*
X169058869Y-104996462D01*
X169058868Y-104996461D01*
X169058868Y-104996459D01*
X169058867Y-104996458D01*
X169039104Y-104962228D01*
X168992345Y-104881239D01*
X168898266Y-104787160D01*
X168864032Y-104767395D01*
X168783046Y-104720637D01*
X168783045Y-104720636D01*
X168718786Y-104703418D01*
X168654529Y-104686200D01*
X168521481Y-104686200D01*
X168470075Y-104699974D01*
X168392964Y-104720636D01*
X168392963Y-104720637D01*
X168277747Y-104787158D01*
X168277741Y-104787162D01*
X168183667Y-104881236D01*
X168183663Y-104881242D01*
X168117142Y-104996458D01*
X168117141Y-104996459D01*
X168091314Y-105092847D01*
X168082705Y-105124976D01*
X150226779Y-105124976D01*
X150320078Y-105057190D01*
X150453695Y-104923573D01*
X150564765Y-104770699D01*
X150650552Y-104602332D01*
X150708945Y-104422618D01*
X150738505Y-104235986D01*
X150738505Y-104047013D01*
X150708945Y-103860381D01*
X150650550Y-103680663D01*
X150564764Y-103512300D01*
X150523289Y-103455215D01*
X150453695Y-103359427D01*
X150320078Y-103225810D01*
X150167204Y-103114740D01*
X150128886Y-103095216D01*
X149998841Y-103028954D01*
X149819123Y-102970559D01*
X149632491Y-102941000D01*
X149632486Y-102941000D01*
X149443524Y-102941000D01*
X149443519Y-102941000D01*
X149256886Y-102970559D01*
X149077168Y-103028954D01*
X148908805Y-103114740D01*
X148821584Y-103178110D01*
X148755932Y-103225810D01*
X148755930Y-103225812D01*
X148755929Y-103225812D01*
X148622317Y-103359424D01*
X148622317Y-103359425D01*
X148622315Y-103359427D01*
X148602345Y-103386913D01*
X148511245Y-103512300D01*
X148425459Y-103680663D01*
X148367064Y-103860381D01*
X148337505Y-104047013D01*
X130571704Y-104047013D01*
X130571704Y-102631499D01*
X131158101Y-102631499D01*
X131976277Y-102631499D01*
X131884391Y-102669559D01*
X131814065Y-102739885D01*
X131776005Y-102831771D01*
X131776005Y-102931227D01*
X131814065Y-103023113D01*
X131884391Y-103093439D01*
X131976277Y-103131499D01*
X131158101Y-103131499D01*
X131160589Y-103144015D01*
X131160592Y-103144022D01*
X131228433Y-103307805D01*
X131228438Y-103307815D01*
X131326928Y-103455215D01*
X131326931Y-103455219D01*
X131452284Y-103580572D01*
X131452288Y-103580575D01*
X131599688Y-103679065D01*
X131599697Y-103679070D01*
X131763484Y-103746912D01*
X131763492Y-103746914D01*
X131937358Y-103781498D01*
X131937362Y-103781499D01*
X132076005Y-103781499D01*
X132076005Y-103131499D01*
X132576005Y-103131499D01*
X132576005Y-103781499D01*
X132714648Y-103781499D01*
X132714651Y-103781498D01*
X132888517Y-103746914D01*
X132888525Y-103746912D01*
X133052312Y-103679070D01*
X133052321Y-103679065D01*
X133199721Y-103580575D01*
X133199725Y-103580572D01*
X133325078Y-103455219D01*
X133325081Y-103455215D01*
X133423571Y-103307815D01*
X133423576Y-103307805D01*
X133491417Y-103144022D01*
X133491420Y-103144015D01*
X133493909Y-103131499D01*
X132675733Y-103131499D01*
X132767619Y-103093439D01*
X132837945Y-103023113D01*
X132876005Y-102931227D01*
X132876005Y-102831771D01*
X132837945Y-102739885D01*
X132767619Y-102669559D01*
X132675733Y-102631499D01*
X133493909Y-102631499D01*
X133491420Y-102618982D01*
X133491417Y-102618975D01*
X133423576Y-102455192D01*
X133423571Y-102455182D01*
X133325081Y-102307782D01*
X133325078Y-102307778D01*
X133288800Y-102271500D01*
X135558101Y-102271500D01*
X136376277Y-102271500D01*
X136284391Y-102309560D01*
X136214065Y-102379886D01*
X136176005Y-102471772D01*
X136176005Y-102571228D01*
X136214065Y-102663114D01*
X136284391Y-102733440D01*
X136376277Y-102771500D01*
X135558101Y-102771500D01*
X135560589Y-102784016D01*
X135560592Y-102784023D01*
X135628433Y-102947806D01*
X135628438Y-102947816D01*
X135726928Y-103095216D01*
X135726931Y-103095220D01*
X135852284Y-103220573D01*
X135852288Y-103220576D01*
X135999688Y-103319066D01*
X135999697Y-103319071D01*
X136163484Y-103386913D01*
X136163492Y-103386915D01*
X136337358Y-103421499D01*
X136337362Y-103421500D01*
X136476005Y-103421500D01*
X136476005Y-102771500D01*
X136976005Y-102771500D01*
X136976005Y-103421500D01*
X137114648Y-103421500D01*
X137114651Y-103421499D01*
X137288517Y-103386915D01*
X137288525Y-103386913D01*
X137452312Y-103319071D01*
X137452321Y-103319066D01*
X137599721Y-103220576D01*
X137599725Y-103220573D01*
X137725078Y-103095220D01*
X137725081Y-103095216D01*
X137823571Y-102947816D01*
X137823576Y-102947806D01*
X137891417Y-102784023D01*
X137891420Y-102784016D01*
X137893909Y-102771500D01*
X137075733Y-102771500D01*
X137167619Y-102733440D01*
X137237945Y-102663114D01*
X137276005Y-102571228D01*
X137276005Y-102471772D01*
X137237945Y-102379886D01*
X137167619Y-102309560D01*
X137075733Y-102271500D01*
X137451612Y-102271500D01*
X137518651Y-102291185D01*
X137538621Y-102309549D01*
X137539753Y-102308418D01*
X137545500Y-102314165D01*
X137643340Y-102412005D01*
X137763169Y-102481188D01*
X137896822Y-102517000D01*
X137896824Y-102517000D01*
X138035186Y-102517000D01*
X138035188Y-102517000D01*
X138168841Y-102481188D01*
X138288670Y-102412005D01*
X138386510Y-102314165D01*
X138455693Y-102194336D01*
X138491505Y-102060683D01*
X138491505Y-101922317D01*
X138455693Y-101788664D01*
X138386510Y-101668835D01*
X138325152Y-101607477D01*
X165984706Y-101607477D01*
X165984706Y-101740525D01*
X165997604Y-101788661D01*
X166019142Y-101869041D01*
X166019143Y-101869042D01*
X166028387Y-101885052D01*
X166085666Y-101984262D01*
X166179745Y-102078341D01*
X166208934Y-102095193D01*
X166294964Y-102144863D01*
X166294965Y-102144864D01*
X166294967Y-102144864D01*
X166294968Y-102144865D01*
X166423482Y-102179301D01*
X166423484Y-102179301D01*
X166556528Y-102179301D01*
X166556530Y-102179301D01*
X166685044Y-102144865D01*
X166800267Y-102078341D01*
X166894346Y-101984262D01*
X166960870Y-101869039D01*
X166995306Y-101740525D01*
X166995306Y-101607477D01*
X166960870Y-101478963D01*
X166960869Y-101478962D01*
X166960869Y-101478960D01*
X166960868Y-101478959D01*
X166941105Y-101444729D01*
X166894346Y-101363740D01*
X166800267Y-101269661D01*
X166733793Y-101231282D01*
X166685047Y-101203138D01*
X166685046Y-101203137D01*
X166620787Y-101185919D01*
X166556530Y-101168701D01*
X166423482Y-101168701D01*
X166372076Y-101182475D01*
X166294965Y-101203137D01*
X166294964Y-101203138D01*
X166179748Y-101269659D01*
X166179742Y-101269663D01*
X166085668Y-101363737D01*
X166085664Y-101363743D01*
X166019143Y-101478959D01*
X166019142Y-101478960D01*
X166014592Y-101495942D01*
X165984706Y-101607477D01*
X138325152Y-101607477D01*
X138288670Y-101570995D01*
X138288669Y-101570994D01*
X138288666Y-101570992D01*
X138161802Y-101497748D01*
X138162844Y-101495942D01*
X138117087Y-101459059D01*
X138095030Y-101392763D01*
X138097334Y-101364160D01*
X138116004Y-101270296D01*
X138116005Y-101270294D01*
X138116005Y-101112706D01*
X138116004Y-101112702D01*
X138085263Y-100958156D01*
X138085262Y-100958152D01*
X138031850Y-100829206D01*
X137492782Y-101368277D01*
X136976005Y-101885052D01*
X136976005Y-102271500D01*
X136476005Y-102271500D01*
X136476005Y-101677511D01*
X136401300Y-101621500D01*
X136337358Y-101621500D01*
X136163492Y-101656084D01*
X136163484Y-101656086D01*
X135999697Y-101723928D01*
X135999688Y-101723933D01*
X135852288Y-101822423D01*
X135852284Y-101822426D01*
X135726931Y-101947779D01*
X135726928Y-101947783D01*
X135628438Y-102095183D01*
X135628433Y-102095193D01*
X135560592Y-102258976D01*
X135560589Y-102258983D01*
X135558101Y-102271500D01*
X133288800Y-102271500D01*
X133199725Y-102182425D01*
X133199721Y-102182422D01*
X133052321Y-102083932D01*
X133052312Y-102083927D01*
X132888525Y-102016085D01*
X132888517Y-102016083D01*
X132714651Y-101981499D01*
X132576005Y-101981499D01*
X132576005Y-102631499D01*
X132076005Y-102631499D01*
X132076005Y-101981499D01*
X131937358Y-101981499D01*
X131763492Y-102016083D01*
X131763484Y-102016085D01*
X131599697Y-102083927D01*
X131599688Y-102083932D01*
X131452288Y-102182422D01*
X131452284Y-102182425D01*
X131326931Y-102307778D01*
X131326928Y-102307782D01*
X131228438Y-102455182D01*
X131228433Y-102455192D01*
X131160592Y-102618975D01*
X131160589Y-102618982D01*
X131158101Y-102631499D01*
X130571704Y-102631499D01*
X130571704Y-95925608D01*
X136115505Y-95925608D01*
X136115505Y-96057391D01*
X136149613Y-96184687D01*
X136182559Y-96241750D01*
X136215505Y-96298814D01*
X136215507Y-96298816D01*
X136220510Y-96303819D01*
X136253995Y-96365142D01*
X136249011Y-96434834D01*
X136220510Y-96479181D01*
X136215507Y-96484183D01*
X136215505Y-96484186D01*
X136149613Y-96598312D01*
X136132451Y-96662363D01*
X136115505Y-96725608D01*
X136115505Y-96857392D01*
X136127394Y-96901761D01*
X136149613Y-96984687D01*
X136157480Y-96998312D01*
X136215505Y-97098814D01*
X136215507Y-97098816D01*
X136220510Y-97103819D01*
X136253995Y-97165142D01*
X136249011Y-97234834D01*
X136220514Y-97279177D01*
X136215509Y-97284182D01*
X136215507Y-97284184D01*
X136215506Y-97284186D01*
X136191956Y-97324976D01*
X136149614Y-97398313D01*
X136149614Y-97398314D01*
X136115506Y-97525608D01*
X136115506Y-97657392D01*
X136127395Y-97701761D01*
X136149614Y-97784687D01*
X136157481Y-97798312D01*
X136215506Y-97898814D01*
X136308692Y-97992000D01*
X136407527Y-98049063D01*
X136421950Y-98057390D01*
X136422820Y-98057892D01*
X136550114Y-98092000D01*
X136550116Y-98092000D01*
X136681895Y-98092000D01*
X136681898Y-98092000D01*
X136695434Y-98088373D01*
X136765280Y-98090036D01*
X136823143Y-98129198D01*
X136847299Y-98176050D01*
X136849613Y-98184687D01*
X136875210Y-98229021D01*
X136915505Y-98298814D01*
X136915507Y-98298816D01*
X136920510Y-98303819D01*
X136953995Y-98365142D01*
X136949011Y-98434834D01*
X136920510Y-98479181D01*
X136915507Y-98484183D01*
X136915505Y-98484186D01*
X136849612Y-98598314D01*
X136849612Y-98598315D01*
X136847298Y-98606951D01*
X136810930Y-98666609D01*
X136748081Y-98697135D01*
X136695436Y-98694627D01*
X136681899Y-98691000D01*
X136681898Y-98691000D01*
X136550114Y-98691000D01*
X136422818Y-98725108D01*
X136308692Y-98791000D01*
X136308689Y-98791002D01*
X136215508Y-98884183D01*
X136215506Y-98884186D01*
X136149614Y-98998312D01*
X136122686Y-99098813D01*
X136115506Y-99125608D01*
X136115506Y-99257392D01*
X136132560Y-99321039D01*
X136149614Y-99384687D01*
X136157481Y-99398312D01*
X136215506Y-99498814D01*
X136215508Y-99498816D01*
X136220510Y-99503818D01*
X136253995Y-99565141D01*
X136249011Y-99634833D01*
X136220514Y-99679176D01*
X136215508Y-99684182D01*
X136215506Y-99684184D01*
X136215505Y-99684186D01*
X136188341Y-99731236D01*
X136149613Y-99798313D01*
X136115505Y-99925608D01*
X136115505Y-100057391D01*
X136149613Y-100184687D01*
X136168126Y-100216751D01*
X136215505Y-100298814D01*
X136215507Y-100298816D01*
X136220510Y-100303819D01*
X136253995Y-100365142D01*
X136249011Y-100434834D01*
X136220510Y-100479181D01*
X136215507Y-100484183D01*
X136215505Y-100484186D01*
X136149613Y-100598312D01*
X136133614Y-100658022D01*
X136115505Y-100725608D01*
X136115505Y-100857392D01*
X136127394Y-100901761D01*
X136149613Y-100984687D01*
X136156053Y-100995841D01*
X136215505Y-101098814D01*
X136308691Y-101192000D01*
X136327983Y-101203138D01*
X136422815Y-101257890D01*
X136422819Y-101257892D01*
X136444165Y-101263611D01*
X136503822Y-101299973D01*
X136533687Y-101359193D01*
X136545750Y-101419837D01*
X136641329Y-101491500D01*
X136662452Y-101491500D01*
X136662452Y-101491499D01*
X137002233Y-101151718D01*
X137116005Y-101151718D01*
X137116005Y-101231282D01*
X137146453Y-101304791D01*
X137202714Y-101361052D01*
X137276223Y-101391500D01*
X137355787Y-101391500D01*
X137429296Y-101361052D01*
X137485557Y-101304791D01*
X137516005Y-101231282D01*
X137516005Y-101151718D01*
X137485557Y-101078209D01*
X137429296Y-101021948D01*
X137355787Y-100991500D01*
X137276223Y-100991500D01*
X137202714Y-101021948D01*
X137146453Y-101078209D01*
X137116005Y-101151718D01*
X137002233Y-101151718D01*
X137628975Y-100524976D01*
X149682704Y-100524976D01*
X149682704Y-100658024D01*
X149699922Y-100722281D01*
X149717140Y-100786540D01*
X149717141Y-100786541D01*
X149758411Y-100858022D01*
X149783664Y-100901761D01*
X149877743Y-100995840D01*
X149958732Y-101042599D01*
X149992962Y-101062362D01*
X149992963Y-101062363D01*
X149992965Y-101062363D01*
X149992966Y-101062364D01*
X150121480Y-101096800D01*
X150121482Y-101096800D01*
X150254526Y-101096800D01*
X150254528Y-101096800D01*
X150383042Y-101062364D01*
X150498265Y-100995840D01*
X150592344Y-100901761D01*
X150658868Y-100786538D01*
X150675364Y-100724976D01*
X153082705Y-100724976D01*
X153082705Y-100858024D01*
X153094425Y-100901761D01*
X153117141Y-100986540D01*
X153117142Y-100986541D01*
X153137585Y-101021948D01*
X153183665Y-101101761D01*
X153277744Y-101195840D01*
X153358733Y-101242599D01*
X153392963Y-101262362D01*
X153392964Y-101262363D01*
X153392966Y-101262363D01*
X153392967Y-101262364D01*
X153521481Y-101296800D01*
X153521483Y-101296800D01*
X153654527Y-101296800D01*
X153654529Y-101296800D01*
X153783043Y-101262364D01*
X153898266Y-101195840D01*
X153992345Y-101101761D01*
X154058869Y-100986538D01*
X154093305Y-100858024D01*
X154093305Y-100724976D01*
X154058869Y-100596462D01*
X154017597Y-100524976D01*
X154482705Y-100524976D01*
X154482705Y-100658024D01*
X154499923Y-100722281D01*
X154517141Y-100786540D01*
X154517142Y-100786541D01*
X154558412Y-100858022D01*
X154583665Y-100901761D01*
X154677744Y-100995840D01*
X154758733Y-101042599D01*
X154792963Y-101062362D01*
X154792964Y-101062363D01*
X154792966Y-101062363D01*
X154792967Y-101062364D01*
X154921481Y-101096800D01*
X154921483Y-101096800D01*
X155054527Y-101096800D01*
X155054529Y-101096800D01*
X155183043Y-101062364D01*
X155298266Y-100995840D01*
X155392345Y-100901761D01*
X155458869Y-100786538D01*
X155493305Y-100658024D01*
X155493305Y-100524976D01*
X155458869Y-100396462D01*
X155458868Y-100396461D01*
X155458868Y-100396459D01*
X155458867Y-100396458D01*
X155433061Y-100351761D01*
X155392345Y-100281239D01*
X155298266Y-100187160D01*
X155264032Y-100167395D01*
X155183046Y-100120637D01*
X155183045Y-100120636D01*
X155112948Y-100101853D01*
X155054529Y-100086200D01*
X154921481Y-100086200D01*
X154870075Y-100099974D01*
X154792964Y-100120636D01*
X154792963Y-100120637D01*
X154677747Y-100187158D01*
X154677741Y-100187162D01*
X154583667Y-100281236D01*
X154583663Y-100281242D01*
X154517142Y-100396458D01*
X154517141Y-100396459D01*
X154494424Y-100481242D01*
X154482705Y-100524976D01*
X154017597Y-100524976D01*
X153992345Y-100481239D01*
X153898266Y-100387160D01*
X153836957Y-100351763D01*
X153783046Y-100320637D01*
X153783045Y-100320636D01*
X153701611Y-100298816D01*
X153654529Y-100286200D01*
X153521481Y-100286200D01*
X153474410Y-100298813D01*
X153392964Y-100320636D01*
X153392963Y-100320637D01*
X153277747Y-100387158D01*
X153277741Y-100387162D01*
X153183667Y-100481236D01*
X153183663Y-100481242D01*
X153117142Y-100596458D01*
X153117141Y-100596459D01*
X153100645Y-100658024D01*
X153082705Y-100724976D01*
X150675364Y-100724976D01*
X150693304Y-100658024D01*
X150693304Y-100524976D01*
X150658868Y-100396462D01*
X150658867Y-100396461D01*
X150658867Y-100396459D01*
X150658866Y-100396458D01*
X150633060Y-100351761D01*
X150592344Y-100281239D01*
X150498265Y-100187160D01*
X150464031Y-100167395D01*
X150383045Y-100120637D01*
X150383044Y-100120636D01*
X150318785Y-100103418D01*
X150254528Y-100086200D01*
X150121480Y-100086200D01*
X150070074Y-100099974D01*
X149992963Y-100120636D01*
X149992962Y-100120637D01*
X149877746Y-100187158D01*
X149877740Y-100187162D01*
X149783666Y-100281236D01*
X149783662Y-100281242D01*
X149717141Y-100396458D01*
X149717140Y-100396459D01*
X149694423Y-100481242D01*
X149682704Y-100524976D01*
X137628975Y-100524976D01*
X137678298Y-100475653D01*
X137549356Y-100422243D01*
X137549348Y-100422241D01*
X137394802Y-100391500D01*
X137237212Y-100391500D01*
X137195828Y-100399731D01*
X137126237Y-100393502D01*
X137071060Y-100350638D01*
X137047817Y-100284748D01*
X137063886Y-100216751D01*
X137064098Y-100216380D01*
X137082397Y-100184686D01*
X137084709Y-100176055D01*
X137121071Y-100116396D01*
X137183917Y-100085865D01*
X137236575Y-100088372D01*
X137250113Y-100092000D01*
X137250116Y-100092000D01*
X137381895Y-100092000D01*
X137381897Y-100092000D01*
X137509191Y-100057892D01*
X137623319Y-99992000D01*
X137640343Y-99974976D01*
X163784706Y-99974976D01*
X163784706Y-100108024D01*
X163788086Y-100120637D01*
X163819142Y-100236540D01*
X163819143Y-100236541D01*
X163844948Y-100281236D01*
X163885666Y-100351761D01*
X163979745Y-100445840D01*
X164041053Y-100481236D01*
X164094964Y-100512362D01*
X164094965Y-100512363D01*
X164094967Y-100512363D01*
X164094968Y-100512364D01*
X164223482Y-100546800D01*
X164223484Y-100546800D01*
X164356528Y-100546800D01*
X164356530Y-100546800D01*
X164485044Y-100512364D01*
X164600267Y-100445840D01*
X164694346Y-100351761D01*
X164760870Y-100236538D01*
X164795306Y-100108024D01*
X164795306Y-99974976D01*
X164760870Y-99846462D01*
X164760869Y-99846461D01*
X164760869Y-99846459D01*
X164760868Y-99846458D01*
X164725204Y-99784687D01*
X164694346Y-99731239D01*
X164600267Y-99637160D01*
X164521180Y-99591499D01*
X164485047Y-99570637D01*
X164485046Y-99570636D01*
X164420787Y-99553418D01*
X164356530Y-99536200D01*
X164223482Y-99536200D01*
X164172076Y-99549974D01*
X164094965Y-99570636D01*
X164094964Y-99570637D01*
X163979748Y-99637158D01*
X163979742Y-99637162D01*
X163885668Y-99731236D01*
X163885664Y-99731242D01*
X163819143Y-99846458D01*
X163819142Y-99846459D01*
X163805114Y-99898813D01*
X163784706Y-99974976D01*
X137640343Y-99974976D01*
X137716505Y-99898814D01*
X137782397Y-99784686D01*
X137816505Y-99657392D01*
X137816505Y-99525608D01*
X137782397Y-99398314D01*
X137716505Y-99284186D01*
X137711500Y-99279181D01*
X137678015Y-99217858D01*
X137682999Y-99148166D01*
X137711500Y-99103819D01*
X137716505Y-99098814D01*
X137782397Y-98984686D01*
X137816505Y-98857392D01*
X137816505Y-98725608D01*
X137782397Y-98598314D01*
X137716505Y-98484186D01*
X137711500Y-98479181D01*
X137678015Y-98417858D01*
X137682999Y-98348166D01*
X137711500Y-98303819D01*
X137713562Y-98301757D01*
X137716505Y-98298814D01*
X137782397Y-98184686D01*
X137816505Y-98057392D01*
X137816505Y-97925608D01*
X137816336Y-97924976D01*
X139282704Y-97924976D01*
X139282704Y-98058024D01*
X139299295Y-98119941D01*
X139317140Y-98186540D01*
X139317141Y-98186541D01*
X139358411Y-98258022D01*
X139383664Y-98301761D01*
X139477743Y-98395840D01*
X139545283Y-98434834D01*
X139592962Y-98462362D01*
X139592963Y-98462363D01*
X139592965Y-98462363D01*
X139592966Y-98462364D01*
X139721480Y-98496800D01*
X139721482Y-98496800D01*
X139854526Y-98496800D01*
X139854528Y-98496800D01*
X139983042Y-98462364D01*
X140098265Y-98395840D01*
X140192344Y-98301761D01*
X140258868Y-98186538D01*
X140275364Y-98124976D01*
X149682705Y-98124976D01*
X149682705Y-98258024D01*
X149694425Y-98301761D01*
X149717141Y-98386540D01*
X149717142Y-98386541D01*
X149760918Y-98462362D01*
X149783665Y-98501761D01*
X149783667Y-98501763D01*
X149883491Y-98601587D01*
X149881599Y-98603478D01*
X149915029Y-98649273D01*
X149919176Y-98719019D01*
X149886017Y-98778887D01*
X149812664Y-98852240D01*
X149812663Y-98852242D01*
X149746142Y-98967458D01*
X149746141Y-98967459D01*
X149720314Y-99063847D01*
X149711705Y-99095976D01*
X149711705Y-99229024D01*
X149725145Y-99279181D01*
X149746141Y-99357540D01*
X149746142Y-99357541D01*
X149761815Y-99384687D01*
X149812665Y-99472761D01*
X149906744Y-99566840D01*
X149949455Y-99591499D01*
X150021963Y-99633362D01*
X150021964Y-99633363D01*
X150021966Y-99633363D01*
X150021967Y-99633364D01*
X150150481Y-99667800D01*
X150150483Y-99667800D01*
X150283527Y-99667800D01*
X150283529Y-99667800D01*
X150412043Y-99633364D01*
X150527266Y-99566840D01*
X150621345Y-99472761D01*
X150687869Y-99357538D01*
X150722305Y-99229024D01*
X150722305Y-99095976D01*
X150687869Y-98967462D01*
X150687868Y-98967461D01*
X150687868Y-98967459D01*
X150687867Y-98967458D01*
X150668104Y-98933228D01*
X150621345Y-98852239D01*
X150527266Y-98758160D01*
X150521519Y-98752413D01*
X150523409Y-98750522D01*
X150489977Y-98704720D01*
X150485835Y-98634973D01*
X150518990Y-98575115D01*
X150592345Y-98501761D01*
X150658869Y-98386538D01*
X150693305Y-98258024D01*
X150693305Y-98124976D01*
X154482704Y-98124976D01*
X154482704Y-98258024D01*
X154494424Y-98301761D01*
X154517140Y-98386540D01*
X154517141Y-98386541D01*
X154560917Y-98462362D01*
X154583664Y-98501761D01*
X154677743Y-98595840D01*
X154758732Y-98642599D01*
X154792962Y-98662362D01*
X154792963Y-98662363D01*
X154792965Y-98662363D01*
X154792966Y-98662364D01*
X154921480Y-98696800D01*
X154921482Y-98696800D01*
X155054526Y-98696800D01*
X155054528Y-98696800D01*
X155183042Y-98662364D01*
X155298265Y-98595840D01*
X155392344Y-98501761D01*
X155458868Y-98386538D01*
X155493304Y-98258024D01*
X155493304Y-98124976D01*
X155485533Y-98095975D01*
X161765207Y-98095975D01*
X161765207Y-98229023D01*
X161772978Y-98258024D01*
X161799643Y-98357539D01*
X161799644Y-98357540D01*
X161834469Y-98417858D01*
X161866167Y-98472760D01*
X161960246Y-98566839D01*
X162023707Y-98603478D01*
X162075465Y-98633361D01*
X162075466Y-98633362D01*
X162075468Y-98633362D01*
X162075469Y-98633363D01*
X162203983Y-98667799D01*
X162203985Y-98667799D01*
X162337029Y-98667799D01*
X162337031Y-98667799D01*
X162465545Y-98633363D01*
X162580768Y-98566839D01*
X162674847Y-98472760D01*
X162741371Y-98357537D01*
X162775807Y-98229023D01*
X162775807Y-98095975D01*
X162741371Y-97967461D01*
X162741370Y-97967460D01*
X162741370Y-97967458D01*
X162741369Y-97967457D01*
X162716842Y-97924976D01*
X162674847Y-97852238D01*
X162580768Y-97758159D01*
X162515778Y-97720637D01*
X162465548Y-97691636D01*
X162465547Y-97691635D01*
X162401288Y-97674417D01*
X162337031Y-97657199D01*
X162203983Y-97657199D01*
X162152577Y-97670973D01*
X162075466Y-97691635D01*
X162075465Y-97691636D01*
X161960249Y-97758157D01*
X161960243Y-97758161D01*
X161866169Y-97852235D01*
X161866165Y-97852241D01*
X161799644Y-97967457D01*
X161799643Y-97967458D01*
X161775377Y-98058021D01*
X161765207Y-98095975D01*
X155485533Y-98095975D01*
X155458868Y-97996462D01*
X155458867Y-97996461D01*
X155458867Y-97996459D01*
X155458866Y-97996458D01*
X155417596Y-97924977D01*
X155392344Y-97881239D01*
X155298265Y-97787160D01*
X155292518Y-97781413D01*
X155294313Y-97779617D01*
X155260602Y-97733452D01*
X155256445Y-97663706D01*
X155290655Y-97602784D01*
X155295644Y-97598461D01*
X155298263Y-97595841D01*
X155298266Y-97595840D01*
X155392345Y-97501761D01*
X155458869Y-97386538D01*
X155493305Y-97258024D01*
X155493305Y-97124976D01*
X155458869Y-96996462D01*
X155458868Y-96996461D01*
X155458868Y-96996459D01*
X155458867Y-96996458D01*
X155415091Y-96920637D01*
X155392345Y-96881239D01*
X155298266Y-96787160D01*
X155264032Y-96767395D01*
X155183046Y-96720637D01*
X155183045Y-96720636D01*
X155118786Y-96703418D01*
X155054529Y-96686200D01*
X154921481Y-96686200D01*
X154870075Y-96699974D01*
X154792964Y-96720636D01*
X154792963Y-96720637D01*
X154677747Y-96787158D01*
X154677741Y-96787162D01*
X154583667Y-96881236D01*
X154583663Y-96881242D01*
X154517142Y-96996458D01*
X154517141Y-96996459D01*
X154494424Y-97081242D01*
X154482705Y-97124976D01*
X154482705Y-97258024D01*
X154489868Y-97284755D01*
X154517141Y-97386540D01*
X154517142Y-97386541D01*
X154558412Y-97458022D01*
X154583665Y-97501761D01*
X154583667Y-97501763D01*
X154683491Y-97601587D01*
X154681694Y-97603383D01*
X154715404Y-97649541D01*
X154719564Y-97719287D01*
X154685357Y-97780210D01*
X154680374Y-97784528D01*
X154583666Y-97881236D01*
X154583662Y-97881242D01*
X154517141Y-97996458D01*
X154517140Y-97996459D01*
X154500644Y-98058024D01*
X154482704Y-98124976D01*
X150693305Y-98124976D01*
X150658869Y-97996462D01*
X150658868Y-97996461D01*
X150658868Y-97996459D01*
X150658867Y-97996458D01*
X150617597Y-97924977D01*
X150592345Y-97881239D01*
X150498266Y-97787160D01*
X150448035Y-97758159D01*
X150383046Y-97720637D01*
X150383045Y-97720636D01*
X150318786Y-97703418D01*
X150254529Y-97686200D01*
X150121481Y-97686200D01*
X150070075Y-97699974D01*
X149992964Y-97720636D01*
X149992963Y-97720637D01*
X149877747Y-97787158D01*
X149877741Y-97787162D01*
X149783667Y-97881236D01*
X149783663Y-97881242D01*
X149717142Y-97996458D01*
X149717141Y-97996459D01*
X149700645Y-98058024D01*
X149682705Y-98124976D01*
X140275364Y-98124976D01*
X140293304Y-98058024D01*
X140293304Y-97924976D01*
X140258868Y-97796462D01*
X140258867Y-97796461D01*
X140258867Y-97796459D01*
X140258866Y-97796458D01*
X140215090Y-97720637D01*
X140192344Y-97681239D01*
X140098265Y-97587160D01*
X140064031Y-97567395D01*
X139983045Y-97520637D01*
X139983044Y-97520636D01*
X139918785Y-97503418D01*
X139854528Y-97486200D01*
X139721480Y-97486200D01*
X139674409Y-97498813D01*
X139592963Y-97520636D01*
X139592962Y-97520637D01*
X139477746Y-97587158D01*
X139477740Y-97587162D01*
X139383666Y-97681236D01*
X139383662Y-97681242D01*
X139317141Y-97796458D01*
X139317140Y-97796459D01*
X139294423Y-97881242D01*
X139282704Y-97924976D01*
X137816336Y-97924976D01*
X137782397Y-97798314D01*
X137781325Y-97796458D01*
X137771602Y-97779617D01*
X137716505Y-97684186D01*
X137711500Y-97679181D01*
X137678015Y-97617858D01*
X137682999Y-97548166D01*
X137711500Y-97503819D01*
X137713562Y-97501757D01*
X137716505Y-97498814D01*
X137782397Y-97384686D01*
X137798396Y-97324976D01*
X143482705Y-97324976D01*
X143482705Y-97458024D01*
X143494425Y-97501761D01*
X143517141Y-97586540D01*
X143517142Y-97586541D01*
X143560919Y-97662364D01*
X143583665Y-97701761D01*
X143677744Y-97795840D01*
X143758733Y-97842599D01*
X143792963Y-97862362D01*
X143792964Y-97862363D01*
X143792966Y-97862363D01*
X143792967Y-97862364D01*
X143921481Y-97896800D01*
X143921483Y-97896800D01*
X144054527Y-97896800D01*
X144054529Y-97896800D01*
X144183043Y-97862364D01*
X144298266Y-97795840D01*
X144392345Y-97701761D01*
X144458869Y-97586538D01*
X144493305Y-97458024D01*
X144493305Y-97324976D01*
X144458869Y-97196462D01*
X144458868Y-97196461D01*
X144458868Y-97196459D01*
X144458867Y-97196458D01*
X144439104Y-97162228D01*
X144392345Y-97081239D01*
X144298266Y-96987160D01*
X144264032Y-96967395D01*
X144183046Y-96920637D01*
X144183045Y-96920636D01*
X144118786Y-96903418D01*
X144054529Y-96886200D01*
X143921481Y-96886200D01*
X143870075Y-96899974D01*
X143792964Y-96920636D01*
X143792963Y-96920637D01*
X143677747Y-96987158D01*
X143677741Y-96987162D01*
X143583667Y-97081236D01*
X143583663Y-97081242D01*
X143517142Y-97196458D01*
X143517141Y-97196459D01*
X143500645Y-97258024D01*
X143482705Y-97324976D01*
X137798396Y-97324976D01*
X137816505Y-97257392D01*
X137816505Y-97125608D01*
X137782397Y-96998314D01*
X137781325Y-96996458D01*
X137773568Y-96983021D01*
X137716505Y-96884186D01*
X137623319Y-96791000D01*
X137566255Y-96758054D01*
X137509192Y-96725108D01*
X137445544Y-96708054D01*
X137381897Y-96691000D01*
X137250113Y-96691000D01*
X137250111Y-96691000D01*
X137236576Y-96694627D01*
X137166726Y-96692963D01*
X137108864Y-96653800D01*
X137092237Y-96627546D01*
X137087560Y-96617583D01*
X137082397Y-96598314D01*
X137061623Y-96562332D01*
X137059392Y-96557580D01*
X137054826Y-96528034D01*
X137054084Y-96524976D01*
X149882705Y-96524976D01*
X149882705Y-96658024D01*
X149883868Y-96662363D01*
X149917141Y-96786540D01*
X149917142Y-96786541D01*
X149963900Y-96867527D01*
X149983665Y-96901761D01*
X150077744Y-96995840D01*
X150158733Y-97042599D01*
X150192963Y-97062362D01*
X150192964Y-97062363D01*
X150192966Y-97062363D01*
X150192967Y-97062364D01*
X150321481Y-97096800D01*
X150321483Y-97096800D01*
X150454527Y-97096800D01*
X150454529Y-97096800D01*
X150583043Y-97062364D01*
X150698266Y-96995840D01*
X150792345Y-96901761D01*
X150858869Y-96786538D01*
X150893305Y-96658024D01*
X150893305Y-96524976D01*
X150858869Y-96396462D01*
X150858868Y-96396461D01*
X150858868Y-96396459D01*
X150858867Y-96396458D01*
X150807417Y-96307345D01*
X150792345Y-96281239D01*
X150698266Y-96187160D01*
X150664032Y-96167395D01*
X150590561Y-96124976D01*
X153082704Y-96124976D01*
X153082704Y-96258024D01*
X153094975Y-96303819D01*
X153117140Y-96386540D01*
X153117141Y-96386541D01*
X153160249Y-96461205D01*
X153183664Y-96501761D01*
X153277743Y-96595840D01*
X153358732Y-96642599D01*
X153392962Y-96662362D01*
X153392963Y-96662363D01*
X153392965Y-96662363D01*
X153392966Y-96662364D01*
X153521480Y-96696800D01*
X153521482Y-96696800D01*
X153654526Y-96696800D01*
X153654528Y-96696800D01*
X153783042Y-96662364D01*
X153898265Y-96595840D01*
X153992344Y-96501761D01*
X154058868Y-96386538D01*
X154093304Y-96258024D01*
X154093304Y-96124976D01*
X154058868Y-95996462D01*
X154058867Y-95996461D01*
X154058867Y-95996459D01*
X154058866Y-95996458D01*
X154017960Y-95925608D01*
X153992344Y-95881239D01*
X153898265Y-95787160D01*
X153853045Y-95761052D01*
X153783045Y-95720637D01*
X153783044Y-95720636D01*
X153718785Y-95703418D01*
X153654528Y-95686200D01*
X153521480Y-95686200D01*
X153470074Y-95699974D01*
X153392963Y-95720636D01*
X153392962Y-95720637D01*
X153277746Y-95787158D01*
X153277740Y-95787162D01*
X153183666Y-95881236D01*
X153183662Y-95881242D01*
X153117141Y-95996458D01*
X153117140Y-95996459D01*
X153100813Y-96057392D01*
X153082704Y-96124976D01*
X150590561Y-96124976D01*
X150583046Y-96120637D01*
X150583045Y-96120636D01*
X150518786Y-96103418D01*
X150454529Y-96086200D01*
X150321481Y-96086200D01*
X150270075Y-96099974D01*
X150192964Y-96120636D01*
X150192963Y-96120637D01*
X150077747Y-96187158D01*
X150077741Y-96187162D01*
X149983667Y-96281236D01*
X149983663Y-96281242D01*
X149917142Y-96396458D01*
X149917141Y-96396459D01*
X149906859Y-96434834D01*
X149882705Y-96524976D01*
X137054084Y-96524976D01*
X137047780Y-96498984D01*
X137049548Y-96493873D01*
X137048723Y-96488529D01*
X137060855Y-96461205D01*
X137070633Y-96432957D01*
X137074883Y-96429614D01*
X137077078Y-96424672D01*
X137102061Y-96408242D01*
X137125555Y-96389768D01*
X137130936Y-96389254D01*
X137135456Y-96386282D01*
X137165354Y-96385967D01*
X137195108Y-96383127D01*
X137195830Y-96383269D01*
X137237208Y-96391499D01*
X137237211Y-96391500D01*
X137394799Y-96391500D01*
X137394802Y-96391499D01*
X137549348Y-96360758D01*
X137549352Y-96360757D01*
X137678298Y-96307345D01*
X137139228Y-95768277D01*
X136922669Y-95551718D01*
X137116005Y-95551718D01*
X137116005Y-95631282D01*
X137146453Y-95704791D01*
X137202714Y-95761052D01*
X137276223Y-95791500D01*
X137355787Y-95791500D01*
X137429296Y-95761052D01*
X137485557Y-95704791D01*
X137516005Y-95631282D01*
X137516005Y-95551718D01*
X137485557Y-95478209D01*
X137429296Y-95421948D01*
X137355787Y-95391500D01*
X137276223Y-95391500D01*
X137202714Y-95421948D01*
X137146453Y-95478209D01*
X137116005Y-95551718D01*
X136922669Y-95551718D01*
X136662452Y-95291500D01*
X136641329Y-95291500D01*
X136545750Y-95363162D01*
X136533687Y-95423806D01*
X136501301Y-95485716D01*
X136444168Y-95519387D01*
X136422817Y-95525108D01*
X136308691Y-95591000D01*
X136308688Y-95591002D01*
X136215507Y-95684183D01*
X136215505Y-95684186D01*
X136149613Y-95798312D01*
X136115505Y-95925608D01*
X130571704Y-95925608D01*
X130571704Y-93651501D01*
X131158101Y-93651501D01*
X131976277Y-93651501D01*
X131884391Y-93689561D01*
X131814065Y-93759887D01*
X131776005Y-93851773D01*
X131776005Y-93951229D01*
X131814065Y-94043115D01*
X131884391Y-94113441D01*
X131976277Y-94151501D01*
X131158101Y-94151501D01*
X131160589Y-94164017D01*
X131160592Y-94164024D01*
X131228433Y-94327807D01*
X131228438Y-94327817D01*
X131326928Y-94475217D01*
X131326931Y-94475221D01*
X131452284Y-94600574D01*
X131452288Y-94600577D01*
X131599688Y-94699067D01*
X131599697Y-94699072D01*
X131763484Y-94766914D01*
X131763492Y-94766916D01*
X131937358Y-94801500D01*
X131937362Y-94801501D01*
X132076005Y-94801501D01*
X132076005Y-94151501D01*
X132576005Y-94151501D01*
X132576005Y-94801501D01*
X132714648Y-94801501D01*
X132714651Y-94801500D01*
X132888517Y-94766916D01*
X132888525Y-94766914D01*
X133052312Y-94699072D01*
X133052321Y-94699067D01*
X133199721Y-94600577D01*
X133199725Y-94600574D01*
X133325078Y-94475221D01*
X133325081Y-94475217D01*
X133369142Y-94409277D01*
X133423571Y-94327817D01*
X133423576Y-94327807D01*
X133491417Y-94164024D01*
X133491420Y-94164017D01*
X133493909Y-94151501D01*
X132675733Y-94151501D01*
X132767619Y-94113441D01*
X132837945Y-94043115D01*
X132851040Y-94011500D01*
X135558101Y-94011500D01*
X136376277Y-94011500D01*
X136284391Y-94049560D01*
X136214065Y-94119886D01*
X136176005Y-94211772D01*
X136176005Y-94311228D01*
X136214065Y-94403114D01*
X136284391Y-94473440D01*
X136376277Y-94511500D01*
X135558101Y-94511500D01*
X135560589Y-94524016D01*
X135560592Y-94524023D01*
X135628433Y-94687806D01*
X135628438Y-94687816D01*
X135726928Y-94835216D01*
X135726931Y-94835220D01*
X135852284Y-94960573D01*
X135852288Y-94960576D01*
X135999688Y-95059066D01*
X135999697Y-95059071D01*
X136163484Y-95126913D01*
X136163492Y-95126915D01*
X136337358Y-95161499D01*
X136337362Y-95161500D01*
X136401300Y-95161500D01*
X136476005Y-95105488D01*
X136476005Y-94511500D01*
X136976005Y-94511500D01*
X136976005Y-94897946D01*
X137492782Y-95414723D01*
X138031850Y-95953793D01*
X138085262Y-95824847D01*
X138085263Y-95824843D01*
X138116004Y-95670297D01*
X138116005Y-95670294D01*
X138116005Y-95512706D01*
X138116004Y-95512703D01*
X138097334Y-95418839D01*
X138101259Y-95374977D01*
X166934708Y-95374977D01*
X166934708Y-95508025D01*
X166946416Y-95551718D01*
X166969144Y-95636541D01*
X166969145Y-95636542D01*
X167008549Y-95704791D01*
X167035668Y-95751762D01*
X167129747Y-95845841D01*
X167210736Y-95892600D01*
X167244966Y-95912363D01*
X167244967Y-95912364D01*
X167244969Y-95912364D01*
X167244970Y-95912365D01*
X167373484Y-95946801D01*
X167373486Y-95946801D01*
X167506530Y-95946801D01*
X167506532Y-95946801D01*
X167635046Y-95912365D01*
X167750269Y-95845841D01*
X167844348Y-95751762D01*
X167910872Y-95636539D01*
X167945308Y-95508025D01*
X167945308Y-95374977D01*
X167910872Y-95246463D01*
X167910871Y-95246462D01*
X167910871Y-95246460D01*
X167910870Y-95246459D01*
X167890977Y-95212003D01*
X167844348Y-95131240D01*
X167750269Y-95037161D01*
X167716035Y-95017396D01*
X167635049Y-94970638D01*
X167635048Y-94970637D01*
X167570789Y-94953419D01*
X167506532Y-94936201D01*
X167373484Y-94936201D01*
X167322078Y-94949975D01*
X167244967Y-94970637D01*
X167244966Y-94970638D01*
X167129750Y-95037159D01*
X167129744Y-95037163D01*
X167035670Y-95131237D01*
X167035666Y-95131243D01*
X166969145Y-95246459D01*
X166969144Y-95246460D01*
X166959839Y-95281188D01*
X166934708Y-95374977D01*
X138101259Y-95374977D01*
X138103561Y-95349248D01*
X138146424Y-95294070D01*
X138161908Y-95285435D01*
X138161802Y-95285252D01*
X138179267Y-95275168D01*
X138288670Y-95212005D01*
X138386510Y-95114165D01*
X138455693Y-94994336D01*
X138491505Y-94860683D01*
X138491505Y-94722317D01*
X138455693Y-94588664D01*
X138386510Y-94468835D01*
X138288670Y-94370995D01*
X138288669Y-94370994D01*
X138288666Y-94370992D01*
X138168843Y-94301813D01*
X138168842Y-94301812D01*
X138168841Y-94301812D01*
X138035188Y-94266000D01*
X137896822Y-94266000D01*
X137763169Y-94301812D01*
X137763166Y-94301813D01*
X137643343Y-94370992D01*
X137643338Y-94370996D01*
X137539753Y-94474582D01*
X137537375Y-94472204D01*
X137493514Y-94504206D01*
X137451612Y-94511500D01*
X137075733Y-94511500D01*
X137167619Y-94473440D01*
X137237945Y-94403114D01*
X137276005Y-94311228D01*
X137276005Y-94211772D01*
X137237945Y-94119886D01*
X137193035Y-94074976D01*
X146032705Y-94074976D01*
X146032705Y-94208024D01*
X146048240Y-94266000D01*
X146067141Y-94336540D01*
X146067142Y-94336541D01*
X146105579Y-94403114D01*
X146133665Y-94451761D01*
X146227744Y-94545840D01*
X146282290Y-94577332D01*
X146342963Y-94612362D01*
X146342964Y-94612363D01*
X146342966Y-94612363D01*
X146342967Y-94612364D01*
X146471481Y-94646800D01*
X146471483Y-94646800D01*
X146604527Y-94646800D01*
X146604529Y-94646800D01*
X146733043Y-94612364D01*
X146848266Y-94545840D01*
X146942345Y-94451761D01*
X147008869Y-94336538D01*
X147043305Y-94208024D01*
X147043305Y-94074976D01*
X147029113Y-94022013D01*
X157362505Y-94022013D01*
X157362505Y-94210986D01*
X157392064Y-94397618D01*
X157450459Y-94577336D01*
X157506747Y-94687806D01*
X157536245Y-94745699D01*
X157647315Y-94898573D01*
X157780932Y-95032190D01*
X157933806Y-95143260D01*
X158013352Y-95183790D01*
X158102168Y-95229045D01*
X158102170Y-95229045D01*
X158102173Y-95229047D01*
X158198502Y-95260346D01*
X158281886Y-95287440D01*
X158468519Y-95317000D01*
X158468524Y-95317000D01*
X158657491Y-95317000D01*
X158844123Y-95287440D01*
X158850857Y-95285252D01*
X159023837Y-95229047D01*
X159192204Y-95143260D01*
X159345078Y-95032190D01*
X159478695Y-94898573D01*
X159589765Y-94745699D01*
X159675552Y-94577332D01*
X159733945Y-94397618D01*
X159763505Y-94210986D01*
X159763505Y-94022013D01*
X159733945Y-93835381D01*
X159702031Y-93737162D01*
X159675552Y-93655668D01*
X159675550Y-93655665D01*
X159675550Y-93655663D01*
X159589764Y-93487300D01*
X159478695Y-93334427D01*
X159345078Y-93200810D01*
X159192204Y-93089740D01*
X159175514Y-93081236D01*
X159023841Y-93003954D01*
X158844123Y-92945559D01*
X158657491Y-92916000D01*
X158657486Y-92916000D01*
X158468524Y-92916000D01*
X158468519Y-92916000D01*
X158281886Y-92945559D01*
X158102168Y-93003954D01*
X157933805Y-93089740D01*
X157846584Y-93153110D01*
X157780932Y-93200810D01*
X157780930Y-93200812D01*
X157780929Y-93200812D01*
X157647317Y-93334424D01*
X157647317Y-93334425D01*
X157647315Y-93334427D01*
X157602518Y-93396084D01*
X157536245Y-93487300D01*
X157450459Y-93655663D01*
X157392064Y-93835381D01*
X157362505Y-94022013D01*
X147029113Y-94022013D01*
X147008869Y-93946462D01*
X147008868Y-93946461D01*
X147008868Y-93946459D01*
X147008867Y-93946458D01*
X146960314Y-93862363D01*
X146942345Y-93831239D01*
X146848266Y-93737160D01*
X146786957Y-93701763D01*
X146733046Y-93670637D01*
X146733045Y-93670636D01*
X146661632Y-93651501D01*
X146604529Y-93636200D01*
X146471481Y-93636200D01*
X146420075Y-93649974D01*
X146342964Y-93670636D01*
X146342963Y-93670637D01*
X146227747Y-93737158D01*
X146227741Y-93737162D01*
X146133667Y-93831236D01*
X146133663Y-93831242D01*
X146067142Y-93946458D01*
X146067141Y-93946459D01*
X146046897Y-94022013D01*
X146032705Y-94074976D01*
X137193035Y-94074976D01*
X137167619Y-94049560D01*
X137075733Y-94011500D01*
X137893909Y-94011500D01*
X137891420Y-93998983D01*
X137891417Y-93998976D01*
X137823576Y-93835193D01*
X137823571Y-93835183D01*
X137725081Y-93687783D01*
X137725078Y-93687779D01*
X137599725Y-93562426D01*
X137599721Y-93562423D01*
X137452321Y-93463933D01*
X137452308Y-93463926D01*
X137373803Y-93431409D01*
X137373802Y-93431409D01*
X137288525Y-93396086D01*
X137288517Y-93396084D01*
X137114651Y-93361500D01*
X136976005Y-93361500D01*
X136976005Y-94011500D01*
X136476005Y-94011500D01*
X136476005Y-93361500D01*
X136337358Y-93361500D01*
X136163492Y-93396084D01*
X136163484Y-93396086D01*
X135999697Y-93463928D01*
X135999688Y-93463933D01*
X135852288Y-93562423D01*
X135852284Y-93562426D01*
X135726931Y-93687779D01*
X135726928Y-93687783D01*
X135628438Y-93835183D01*
X135628433Y-93835193D01*
X135560592Y-93998976D01*
X135560589Y-93998983D01*
X135558101Y-94011500D01*
X132851040Y-94011500D01*
X132876005Y-93951229D01*
X132876005Y-93851773D01*
X132837945Y-93759887D01*
X132767619Y-93689561D01*
X132675733Y-93651501D01*
X133493909Y-93651501D01*
X133491420Y-93638984D01*
X133491417Y-93638977D01*
X133423576Y-93475194D01*
X133423571Y-93475184D01*
X133325081Y-93327784D01*
X133325078Y-93327780D01*
X133322274Y-93324976D01*
X151282705Y-93324976D01*
X151282705Y-93458024D01*
X151287306Y-93475194D01*
X151317141Y-93586540D01*
X151317142Y-93586541D01*
X151354647Y-93651501D01*
X151383665Y-93701761D01*
X151477744Y-93795840D01*
X151546231Y-93835381D01*
X151592963Y-93862362D01*
X151592964Y-93862363D01*
X151592966Y-93862363D01*
X151592967Y-93862364D01*
X151721481Y-93896800D01*
X151721483Y-93896800D01*
X151854527Y-93896800D01*
X151854529Y-93896800D01*
X151983043Y-93862364D01*
X152098266Y-93795840D01*
X152192345Y-93701761D01*
X152258869Y-93586538D01*
X152293305Y-93458024D01*
X152293305Y-93324976D01*
X152258869Y-93196462D01*
X152258868Y-93196461D01*
X152258868Y-93196459D01*
X152258867Y-93196458D01*
X152239104Y-93162228D01*
X152192345Y-93081239D01*
X152098266Y-92987160D01*
X151989277Y-92924235D01*
X151989276Y-92924234D01*
X151983044Y-92920636D01*
X151983045Y-92920636D01*
X151918786Y-92903418D01*
X151854529Y-92886200D01*
X151721481Y-92886200D01*
X151670075Y-92899974D01*
X151592964Y-92920636D01*
X151592963Y-92920637D01*
X151477747Y-92987158D01*
X151477741Y-92987162D01*
X151383667Y-93081236D01*
X151383663Y-93081242D01*
X151317142Y-93196458D01*
X151317141Y-93196459D01*
X151291314Y-93292847D01*
X151282705Y-93324976D01*
X133322274Y-93324976D01*
X133199725Y-93202427D01*
X133199721Y-93202424D01*
X133052321Y-93103934D01*
X133052312Y-93103929D01*
X132888525Y-93036087D01*
X132888517Y-93036085D01*
X132714651Y-93001501D01*
X132576005Y-93001501D01*
X132576005Y-93651501D01*
X132076005Y-93651501D01*
X132076005Y-93001501D01*
X131937358Y-93001501D01*
X131763492Y-93036085D01*
X131763484Y-93036087D01*
X131599697Y-93103929D01*
X131599688Y-93103934D01*
X131452288Y-93202424D01*
X131452284Y-93202427D01*
X131326931Y-93327780D01*
X131326928Y-93327784D01*
X131228438Y-93475184D01*
X131228433Y-93475194D01*
X131160592Y-93638977D01*
X131160589Y-93638984D01*
X131158101Y-93651501D01*
X130571704Y-93651501D01*
X130571704Y-92824976D01*
X156282705Y-92824976D01*
X156282705Y-92958024D01*
X156290512Y-92987158D01*
X156317141Y-93086540D01*
X156317142Y-93086541D01*
X156363900Y-93167527D01*
X156383665Y-93201761D01*
X156477744Y-93295840D01*
X156544575Y-93334425D01*
X156592963Y-93362362D01*
X156592964Y-93362363D01*
X156592966Y-93362363D01*
X156592967Y-93362364D01*
X156721481Y-93396800D01*
X156721483Y-93396800D01*
X156854527Y-93396800D01*
X156854529Y-93396800D01*
X156983043Y-93362364D01*
X157098266Y-93295840D01*
X157192345Y-93201761D01*
X157258869Y-93086538D01*
X157293305Y-92958024D01*
X157293305Y-92824976D01*
X157258869Y-92696462D01*
X157258868Y-92696461D01*
X157258868Y-92696459D01*
X157258867Y-92696458D01*
X157239104Y-92662228D01*
X157192345Y-92581239D01*
X157098266Y-92487160D01*
X157064032Y-92467395D01*
X156983046Y-92420637D01*
X156983045Y-92420636D01*
X156918786Y-92403418D01*
X156854529Y-92386200D01*
X156721481Y-92386200D01*
X156670075Y-92399974D01*
X156592964Y-92420636D01*
X156592963Y-92420637D01*
X156477747Y-92487158D01*
X156477741Y-92487162D01*
X156383667Y-92581236D01*
X156383663Y-92581242D01*
X156317142Y-92696458D01*
X156317141Y-92696459D01*
X156291314Y-92792847D01*
X156282705Y-92824976D01*
X130571704Y-92824976D01*
X130571704Y-90547013D01*
X151087505Y-90547013D01*
X151087505Y-90735986D01*
X151117064Y-90922618D01*
X151175459Y-91102336D01*
X151261245Y-91270699D01*
X151372315Y-91423573D01*
X151505932Y-91557190D01*
X151658806Y-91668260D01*
X151738352Y-91708790D01*
X151827168Y-91754045D01*
X151827170Y-91754045D01*
X151827173Y-91754047D01*
X151923502Y-91785346D01*
X152006886Y-91812440D01*
X152193519Y-91842000D01*
X152193524Y-91842000D01*
X152382491Y-91842000D01*
X152569123Y-91812440D01*
X152748837Y-91754047D01*
X152917204Y-91668260D01*
X153070078Y-91557190D01*
X153203695Y-91423573D01*
X153314765Y-91270699D01*
X153400552Y-91102332D01*
X153458945Y-90922618D01*
X153488505Y-90735986D01*
X153488505Y-90547013D01*
X155087505Y-90547013D01*
X155087505Y-90735986D01*
X155117064Y-90922618D01*
X155175459Y-91102336D01*
X155261245Y-91270699D01*
X155372315Y-91423573D01*
X155505932Y-91557190D01*
X155658806Y-91668260D01*
X155738352Y-91708790D01*
X155827168Y-91754045D01*
X155827170Y-91754045D01*
X155827173Y-91754047D01*
X155923502Y-91785346D01*
X156006886Y-91812440D01*
X156193519Y-91842000D01*
X156193524Y-91842000D01*
X156382491Y-91842000D01*
X156569123Y-91812440D01*
X156748837Y-91754047D01*
X156917204Y-91668260D01*
X157070078Y-91557190D01*
X157203695Y-91423573D01*
X157314765Y-91270699D01*
X157400552Y-91102332D01*
X157458945Y-90922618D01*
X157488505Y-90735986D01*
X157488505Y-90547013D01*
X157458945Y-90360381D01*
X157400550Y-90180663D01*
X157314764Y-90012300D01*
X157300595Y-89992798D01*
X157203695Y-89859427D01*
X157070078Y-89725810D01*
X156917204Y-89614740D01*
X156748841Y-89528954D01*
X156569123Y-89470559D01*
X156382491Y-89441000D01*
X156382486Y-89441000D01*
X156193524Y-89441000D01*
X156193519Y-89441000D01*
X156006886Y-89470559D01*
X155827168Y-89528954D01*
X155658805Y-89614740D01*
X155571584Y-89678110D01*
X155505932Y-89725810D01*
X155505930Y-89725812D01*
X155505929Y-89725812D01*
X155372317Y-89859424D01*
X155372317Y-89859425D01*
X155372315Y-89859427D01*
X155348769Y-89891835D01*
X155261245Y-90012300D01*
X155175459Y-90180663D01*
X155117064Y-90360381D01*
X155087505Y-90547013D01*
X153488505Y-90547013D01*
X153458945Y-90360381D01*
X153400550Y-90180663D01*
X153314764Y-90012300D01*
X153300595Y-89992798D01*
X153203695Y-89859427D01*
X153070078Y-89725810D01*
X152917204Y-89614740D01*
X152748841Y-89528954D01*
X152569123Y-89470559D01*
X152382491Y-89441000D01*
X152382486Y-89441000D01*
X152193524Y-89441000D01*
X152193519Y-89441000D01*
X152006886Y-89470559D01*
X151827168Y-89528954D01*
X151658805Y-89614740D01*
X151571584Y-89678110D01*
X151505932Y-89725810D01*
X151505930Y-89725812D01*
X151505929Y-89725812D01*
X151372317Y-89859424D01*
X151372317Y-89859425D01*
X151372315Y-89859427D01*
X151348769Y-89891835D01*
X151261245Y-90012300D01*
X151175459Y-90180663D01*
X151117064Y-90360381D01*
X151087505Y-90547013D01*
X130571704Y-90547013D01*
X130571704Y-89420974D01*
X159223705Y-89420974D01*
X159223705Y-89554022D01*
X159239975Y-89614740D01*
X159258141Y-89682538D01*
X159258142Y-89682539D01*
X159283125Y-89725810D01*
X159324665Y-89797759D01*
X159418744Y-89891838D01*
X159499733Y-89938597D01*
X159533963Y-89958360D01*
X159533964Y-89958361D01*
X159533966Y-89958361D01*
X159533967Y-89958362D01*
X159662481Y-89992798D01*
X159662483Y-89992798D01*
X159795527Y-89992798D01*
X159795529Y-89992798D01*
X159924043Y-89958362D01*
X160039266Y-89891838D01*
X160133345Y-89797759D01*
X160199869Y-89682536D01*
X160234305Y-89554022D01*
X160234305Y-89420974D01*
X160199869Y-89292460D01*
X160199868Y-89292459D01*
X160199868Y-89292457D01*
X160199867Y-89292456D01*
X160180104Y-89258226D01*
X160133345Y-89177237D01*
X160039266Y-89083158D01*
X160005032Y-89063393D01*
X159924046Y-89016635D01*
X159924045Y-89016634D01*
X159859786Y-88999416D01*
X159795529Y-88982198D01*
X159662481Y-88982198D01*
X159611075Y-88995972D01*
X159533964Y-89016634D01*
X159533963Y-89016635D01*
X159418747Y-89083156D01*
X159418741Y-89083160D01*
X159324667Y-89177234D01*
X159324663Y-89177240D01*
X159258142Y-89292456D01*
X159258141Y-89292457D01*
X159232314Y-89388845D01*
X159223705Y-89420974D01*
X130571704Y-89420974D01*
X130571704Y-85016995D01*
X131302637Y-85016995D01*
X131302637Y-85186260D01*
X131310692Y-85355363D01*
X131310694Y-85355386D01*
X131326779Y-85523826D01*
X131326784Y-85523868D01*
X131350868Y-85691378D01*
X131350874Y-85691414D01*
X131382906Y-85857614D01*
X131422815Y-86022125D01*
X131470504Y-86184535D01*
X131525868Y-86344499D01*
X131525873Y-86344511D01*
X131525877Y-86344524D01*
X131588781Y-86501647D01*
X131659104Y-86655635D01*
X131717064Y-86768059D01*
X131736665Y-86806079D01*
X131742760Y-86816636D01*
X131802804Y-86920637D01*
X131821301Y-86952674D01*
X131837089Y-86977241D01*
X131912805Y-87095057D01*
X131912826Y-87095089D01*
X131985011Y-87196458D01*
X132011005Y-87232961D01*
X132011015Y-87232973D01*
X132011033Y-87232998D01*
X132115631Y-87366005D01*
X132115646Y-87366022D01*
X132226477Y-87493929D01*
X132226480Y-87493933D01*
X132343304Y-87616456D01*
X132429907Y-87699031D01*
X132432772Y-87701763D01*
X132465827Y-87733280D01*
X132465831Y-87733283D01*
X132593742Y-87844118D01*
X132593746Y-87844121D01*
X132593755Y-87844129D01*
X132726762Y-87948727D01*
X132726781Y-87948741D01*
X132726800Y-87948756D01*
X132777282Y-87984704D01*
X132864671Y-88046934D01*
X132864683Y-88046942D01*
X132864686Y-88046944D01*
X133007087Y-88138460D01*
X133153682Y-88223096D01*
X133153698Y-88223104D01*
X133304125Y-88300656D01*
X133458113Y-88370979D01*
X133615236Y-88433883D01*
X133615240Y-88433884D01*
X133615262Y-88433893D01*
X133775226Y-88489257D01*
X133937635Y-88536945D01*
X133937634Y-88536945D01*
X133937640Y-88536946D01*
X133937642Y-88536947D01*
X134102144Y-88576854D01*
X134268358Y-88608889D01*
X134435908Y-88632979D01*
X134604415Y-88649070D01*
X134773496Y-88657124D01*
X134858133Y-88657628D01*
X134942770Y-88657124D01*
X135111851Y-88649070D01*
X135280358Y-88632979D01*
X135447908Y-88608889D01*
X135614122Y-88576854D01*
X135778624Y-88536947D01*
X135941040Y-88489257D01*
X136101004Y-88433893D01*
X136258151Y-88370980D01*
X136412128Y-88300662D01*
X136562584Y-88223096D01*
X136709179Y-88138460D01*
X136851580Y-88046944D01*
X136989466Y-87948756D01*
X137122524Y-87844118D01*
X137250452Y-87733268D01*
X137372961Y-87616456D01*
X137489773Y-87493947D01*
X137600623Y-87366019D01*
X137632900Y-87324976D01*
X139282704Y-87324976D01*
X139282704Y-87458024D01*
X139292325Y-87493929D01*
X139317140Y-87586540D01*
X139317141Y-87586541D01*
X139323620Y-87597762D01*
X139383664Y-87701761D01*
X139477743Y-87795840D01*
X139558732Y-87842599D01*
X139592962Y-87862362D01*
X139592963Y-87862363D01*
X139592965Y-87862363D01*
X139592966Y-87862364D01*
X139721480Y-87896800D01*
X139721482Y-87896800D01*
X139854526Y-87896800D01*
X139854528Y-87896800D01*
X139983042Y-87862364D01*
X140098265Y-87795840D01*
X140192344Y-87701761D01*
X140258868Y-87586538D01*
X140293304Y-87458024D01*
X140293304Y-87324976D01*
X143682705Y-87324976D01*
X143682705Y-87458024D01*
X143692326Y-87493929D01*
X143717141Y-87586540D01*
X143717142Y-87586541D01*
X143723621Y-87597762D01*
X143783665Y-87701761D01*
X143877744Y-87795840D01*
X143958733Y-87842599D01*
X143992963Y-87862362D01*
X143992964Y-87862363D01*
X143992966Y-87862363D01*
X143992967Y-87862364D01*
X144121481Y-87896800D01*
X144121483Y-87896800D01*
X144254527Y-87896800D01*
X144254529Y-87896800D01*
X144383043Y-87862364D01*
X144498266Y-87795840D01*
X144592345Y-87701761D01*
X144658869Y-87586538D01*
X144693305Y-87458024D01*
X144693305Y-87324976D01*
X144665437Y-87220975D01*
X163023704Y-87220975D01*
X163023704Y-87354023D01*
X163040922Y-87418280D01*
X163058140Y-87482539D01*
X163058141Y-87482540D01*
X163104899Y-87563526D01*
X163124664Y-87597760D01*
X163218743Y-87691839D01*
X163290500Y-87733268D01*
X163333962Y-87758361D01*
X163333963Y-87758362D01*
X163333965Y-87758362D01*
X163333966Y-87758363D01*
X163462480Y-87792799D01*
X163462482Y-87792799D01*
X163595526Y-87792799D01*
X163595528Y-87792799D01*
X163724042Y-87758363D01*
X163839265Y-87691839D01*
X163933344Y-87597760D01*
X163999868Y-87482537D01*
X164034304Y-87354023D01*
X164034304Y-87220975D01*
X163999868Y-87092461D01*
X163999867Y-87092460D01*
X163999867Y-87092458D01*
X163999866Y-87092457D01*
X163980103Y-87058227D01*
X163933344Y-86977238D01*
X163839265Y-86883159D01*
X163798905Y-86859857D01*
X163724045Y-86816636D01*
X163724044Y-86816635D01*
X163659785Y-86799417D01*
X163595528Y-86782199D01*
X163462480Y-86782199D01*
X163411074Y-86795973D01*
X163333963Y-86816635D01*
X163333962Y-86816636D01*
X163218746Y-86883157D01*
X163218740Y-86883161D01*
X163124666Y-86977235D01*
X163124662Y-86977241D01*
X163058141Y-87092457D01*
X163058140Y-87092458D01*
X163032313Y-87188846D01*
X163023704Y-87220975D01*
X144665437Y-87220975D01*
X144658869Y-87196462D01*
X144658868Y-87196461D01*
X144658868Y-87196459D01*
X144658867Y-87196458D01*
X144600333Y-87095075D01*
X144592345Y-87081239D01*
X144498266Y-86987160D01*
X144464032Y-86967395D01*
X144383046Y-86920637D01*
X144383045Y-86920636D01*
X144318786Y-86903418D01*
X144254529Y-86886200D01*
X144121481Y-86886200D01*
X144070075Y-86899974D01*
X143992964Y-86920636D01*
X143992963Y-86920637D01*
X143877747Y-86987158D01*
X143877741Y-86987162D01*
X143783667Y-87081236D01*
X143783663Y-87081242D01*
X143717142Y-87196458D01*
X143717141Y-87196459D01*
X143691314Y-87292847D01*
X143682705Y-87324976D01*
X140293304Y-87324976D01*
X140258868Y-87196462D01*
X140258867Y-87196461D01*
X140258867Y-87196459D01*
X140258866Y-87196458D01*
X140200332Y-87095075D01*
X140192344Y-87081239D01*
X140098265Y-86987160D01*
X140064031Y-86967395D01*
X139983045Y-86920637D01*
X139983044Y-86920636D01*
X139918785Y-86903418D01*
X139854528Y-86886200D01*
X139721480Y-86886200D01*
X139670074Y-86899974D01*
X139592963Y-86920636D01*
X139592962Y-86920637D01*
X139477746Y-86987158D01*
X139477740Y-86987162D01*
X139383666Y-87081236D01*
X139383662Y-87081242D01*
X139317141Y-87196458D01*
X139317140Y-87196459D01*
X139291313Y-87292847D01*
X139282704Y-87324976D01*
X137632900Y-87324976D01*
X137695840Y-87244941D01*
X137699572Y-87240196D01*
X137705232Y-87232998D01*
X137705233Y-87232995D01*
X137705261Y-87232961D01*
X137803449Y-87095075D01*
X137894965Y-86952674D01*
X137979601Y-86806079D01*
X138057167Y-86655623D01*
X138127485Y-86501646D01*
X138190398Y-86344499D01*
X138245762Y-86184535D01*
X138293452Y-86022119D01*
X138333359Y-85857617D01*
X138365394Y-85691403D01*
X138389484Y-85523853D01*
X138405575Y-85355346D01*
X138413629Y-85186265D01*
X138413629Y-85101034D01*
X150630506Y-85101034D01*
X150630506Y-85349968D01*
X150631364Y-85355386D01*
X150669447Y-85595832D01*
X150669447Y-85595834D01*
X150669448Y-85595836D01*
X150746373Y-85832586D01*
X150859386Y-86054387D01*
X151005706Y-86255779D01*
X151181728Y-86431801D01*
X151383120Y-86578121D01*
X151604921Y-86691134D01*
X151841671Y-86768059D01*
X152087539Y-86807001D01*
X152087540Y-86807001D01*
X152336472Y-86807001D01*
X152336473Y-86807001D01*
X152582341Y-86768059D01*
X152819091Y-86691134D01*
X153040892Y-86578121D01*
X153242284Y-86431801D01*
X153418306Y-86255779D01*
X153564626Y-86054387D01*
X153677639Y-85832586D01*
X153754564Y-85595836D01*
X153765533Y-85526580D01*
X153795462Y-85463446D01*
X153854774Y-85426515D01*
X153924636Y-85427513D01*
X153982869Y-85466123D01*
X154010983Y-85530086D01*
X154012006Y-85545979D01*
X154012006Y-86225486D01*
X154022499Y-86328190D01*
X154022500Y-86328197D01*
X154077647Y-86494619D01*
X154077649Y-86494624D01*
X154169690Y-86643845D01*
X154293661Y-86767816D01*
X154442882Y-86859857D01*
X154442887Y-86859859D01*
X154609309Y-86915006D01*
X154609316Y-86915007D01*
X154712020Y-86925500D01*
X154712033Y-86925501D01*
X155462006Y-86925501D01*
X155462006Y-85773983D01*
X155480415Y-85784612D01*
X155633015Y-85825501D01*
X155790997Y-85825501D01*
X155943597Y-85784612D01*
X155962006Y-85773983D01*
X155962006Y-86925501D01*
X156711979Y-86925501D01*
X156711991Y-86925500D01*
X156814695Y-86915007D01*
X156814702Y-86915006D01*
X156981124Y-86859859D01*
X156981129Y-86859857D01*
X157130350Y-86767816D01*
X157254321Y-86643845D01*
X157346362Y-86494624D01*
X157346364Y-86494619D01*
X157401511Y-86328197D01*
X157401512Y-86328190D01*
X157412005Y-86225486D01*
X157412006Y-86225473D01*
X157412006Y-85475501D01*
X156260488Y-85475501D01*
X156271117Y-85457092D01*
X156312006Y-85304492D01*
X156312006Y-85146510D01*
X156277303Y-85016995D01*
X180742381Y-85016995D01*
X180742381Y-85186260D01*
X180750436Y-85355363D01*
X180750438Y-85355386D01*
X180766523Y-85523826D01*
X180766528Y-85523868D01*
X180790612Y-85691378D01*
X180790618Y-85691414D01*
X180822650Y-85857614D01*
X180862559Y-86022125D01*
X180910248Y-86184535D01*
X180965612Y-86344499D01*
X180965617Y-86344511D01*
X180965621Y-86344524D01*
X181028525Y-86501647D01*
X181098848Y-86655635D01*
X181156808Y-86768059D01*
X181176409Y-86806079D01*
X181182504Y-86816636D01*
X181242548Y-86920637D01*
X181261045Y-86952674D01*
X181276833Y-86977241D01*
X181352549Y-87095057D01*
X181352570Y-87095089D01*
X181424755Y-87196458D01*
X181450749Y-87232961D01*
X181450759Y-87232973D01*
X181450777Y-87232998D01*
X181555375Y-87366005D01*
X181555390Y-87366022D01*
X181666221Y-87493929D01*
X181666224Y-87493933D01*
X181783048Y-87616456D01*
X181869651Y-87699031D01*
X181872516Y-87701763D01*
X181905571Y-87733280D01*
X181905575Y-87733283D01*
X182033486Y-87844118D01*
X182033490Y-87844121D01*
X182033499Y-87844129D01*
X182166506Y-87948727D01*
X182166525Y-87948741D01*
X182166544Y-87948756D01*
X182217026Y-87984704D01*
X182304415Y-88046934D01*
X182304427Y-88046942D01*
X182304430Y-88046944D01*
X182446831Y-88138460D01*
X182593426Y-88223096D01*
X182593442Y-88223104D01*
X182743869Y-88300656D01*
X182897857Y-88370979D01*
X183054980Y-88433883D01*
X183054984Y-88433884D01*
X183055006Y-88433893D01*
X183214970Y-88489257D01*
X183377379Y-88536945D01*
X183377378Y-88536945D01*
X183377384Y-88536946D01*
X183377386Y-88536947D01*
X183541888Y-88576854D01*
X183708102Y-88608889D01*
X183875652Y-88632979D01*
X184044159Y-88649070D01*
X184213240Y-88657124D01*
X184297877Y-88657628D01*
X184382514Y-88657124D01*
X184551595Y-88649070D01*
X184720102Y-88632979D01*
X184887652Y-88608889D01*
X185053866Y-88576854D01*
X185218368Y-88536947D01*
X185380784Y-88489257D01*
X185540748Y-88433893D01*
X185697895Y-88370980D01*
X185851872Y-88300662D01*
X186002328Y-88223096D01*
X186148923Y-88138460D01*
X186291324Y-88046944D01*
X186429210Y-87948756D01*
X186562268Y-87844118D01*
X186690196Y-87733268D01*
X186812705Y-87616456D01*
X186929517Y-87493947D01*
X187040367Y-87366019D01*
X187145005Y-87232961D01*
X187243193Y-87095075D01*
X187334709Y-86952674D01*
X187419345Y-86806079D01*
X187496911Y-86655623D01*
X187567229Y-86501646D01*
X187630142Y-86344499D01*
X187685506Y-86184535D01*
X187733196Y-86022119D01*
X187773103Y-85857617D01*
X187805138Y-85691403D01*
X187829228Y-85523853D01*
X187845319Y-85355346D01*
X187853373Y-85186265D01*
X187853373Y-85016991D01*
X187845319Y-84847910D01*
X187829228Y-84679403D01*
X187805138Y-84511853D01*
X187773103Y-84345639D01*
X187733196Y-84181137D01*
X187685506Y-84018721D01*
X187630142Y-83858757D01*
X187567229Y-83701610D01*
X187496911Y-83547633D01*
X187496910Y-83547631D01*
X187496905Y-83547620D01*
X187419353Y-83397193D01*
X187419345Y-83397177D01*
X187334709Y-83250582D01*
X187243193Y-83108181D01*
X187243191Y-83108178D01*
X187243183Y-83108166D01*
X187145016Y-82970311D01*
X187145005Y-82970295D01*
X187144990Y-82970276D01*
X187144976Y-82970257D01*
X187040378Y-82837250D01*
X187040367Y-82837237D01*
X186929532Y-82709326D01*
X186929529Y-82709322D01*
X186812705Y-82586799D01*
X186690182Y-82469975D01*
X186690178Y-82469972D01*
X186626029Y-82414387D01*
X186562268Y-82359138D01*
X186562264Y-82359135D01*
X186562254Y-82359126D01*
X186429247Y-82254528D01*
X186429222Y-82254510D01*
X186429210Y-82254500D01*
X186415647Y-82244842D01*
X186291338Y-82156321D01*
X186291306Y-82156300D01*
X186148918Y-82064793D01*
X186148915Y-82064791D01*
X186002352Y-81980174D01*
X186002328Y-81980160D01*
X186002311Y-81980151D01*
X185851884Y-81902599D01*
X185697896Y-81832276D01*
X185540773Y-81769372D01*
X185540760Y-81769368D01*
X185540748Y-81769363D01*
X185434058Y-81732437D01*
X185380791Y-81714001D01*
X185218374Y-81666310D01*
X185218375Y-81666310D01*
X185053863Y-81626401D01*
X184887663Y-81594369D01*
X184887658Y-81594368D01*
X184887652Y-81594367D01*
X184887644Y-81594365D01*
X184887627Y-81594363D01*
X184720117Y-81570279D01*
X184720110Y-81570278D01*
X184720102Y-81570277D01*
X184720092Y-81570276D01*
X184720075Y-81570274D01*
X184551635Y-81554189D01*
X184551612Y-81554187D01*
X184551598Y-81554186D01*
X184551595Y-81554186D01*
X184382514Y-81546132D01*
X184213240Y-81546132D01*
X184044159Y-81554186D01*
X184044156Y-81554186D01*
X184044141Y-81554187D01*
X184044118Y-81554189D01*
X183875678Y-81570274D01*
X183875656Y-81570276D01*
X183875652Y-81570277D01*
X183875648Y-81570277D01*
X183875636Y-81570279D01*
X183708126Y-81594363D01*
X183708090Y-81594369D01*
X183541890Y-81626401D01*
X183377379Y-81666310D01*
X183214962Y-81714001D01*
X183118081Y-81747532D01*
X183055006Y-81769363D01*
X183054996Y-81769366D01*
X183054993Y-81769368D01*
X183054980Y-81769372D01*
X182897857Y-81832276D01*
X182743869Y-81902599D01*
X182593442Y-81980151D01*
X182593401Y-81980174D01*
X182446838Y-82064791D01*
X182446835Y-82064793D01*
X182304447Y-82156300D01*
X182304415Y-82156321D01*
X182166560Y-82254488D01*
X182166506Y-82254528D01*
X182033499Y-82359126D01*
X182033482Y-82359141D01*
X181905575Y-82469972D01*
X181905571Y-82469975D01*
X181783048Y-82586799D01*
X181666224Y-82709322D01*
X181666221Y-82709326D01*
X181555390Y-82837233D01*
X181555375Y-82837250D01*
X181450777Y-82970257D01*
X181450737Y-82970311D01*
X181352570Y-83108166D01*
X181352549Y-83108198D01*
X181261042Y-83250586D01*
X181261040Y-83250589D01*
X181176423Y-83397152D01*
X181176400Y-83397193D01*
X181098848Y-83547620D01*
X181028525Y-83701608D01*
X180965621Y-83858731D01*
X180965617Y-83858744D01*
X180965612Y-83858757D01*
X180960724Y-83872881D01*
X180910250Y-84018713D01*
X180862559Y-84181130D01*
X180822650Y-84345641D01*
X180790618Y-84511841D01*
X180790612Y-84511877D01*
X180766528Y-84679387D01*
X180766523Y-84679429D01*
X180750438Y-84847869D01*
X180750436Y-84847892D01*
X180750435Y-84847907D01*
X180750435Y-84847910D01*
X180743481Y-84993910D01*
X180742381Y-85016995D01*
X156277303Y-85016995D01*
X156271117Y-84993910D01*
X156260488Y-84975501D01*
X157412006Y-84975501D01*
X157412006Y-84420975D01*
X167423705Y-84420975D01*
X167423705Y-84554023D01*
X167440923Y-84618280D01*
X167458141Y-84682539D01*
X167458142Y-84682540D01*
X167504900Y-84763526D01*
X167524665Y-84797760D01*
X167618744Y-84891839D01*
X167675176Y-84924420D01*
X167733963Y-84958361D01*
X167733964Y-84958362D01*
X167733966Y-84958362D01*
X167733967Y-84958363D01*
X167862481Y-84992799D01*
X167862483Y-84992799D01*
X167995527Y-84992799D01*
X167995529Y-84992799D01*
X168124043Y-84958363D01*
X168239266Y-84891839D01*
X168333345Y-84797760D01*
X168399869Y-84682537D01*
X168434305Y-84554023D01*
X168434305Y-84420975D01*
X168399869Y-84292461D01*
X168399868Y-84292460D01*
X168399868Y-84292458D01*
X168399867Y-84292457D01*
X168361225Y-84225528D01*
X168333345Y-84177238D01*
X168239266Y-84083159D01*
X168205032Y-84063394D01*
X168124046Y-84016636D01*
X168124045Y-84016635D01*
X168059786Y-83999417D01*
X167995529Y-83982199D01*
X167862481Y-83982199D01*
X167811075Y-83995973D01*
X167733964Y-84016635D01*
X167733963Y-84016636D01*
X167618747Y-84083157D01*
X167618741Y-84083161D01*
X167524667Y-84177235D01*
X167524663Y-84177241D01*
X167458142Y-84292457D01*
X167458141Y-84292458D01*
X167443891Y-84345641D01*
X167423705Y-84420975D01*
X157412006Y-84420975D01*
X157412006Y-84225528D01*
X157412005Y-84225515D01*
X157401512Y-84122811D01*
X157401511Y-84122804D01*
X157346364Y-83956382D01*
X157346362Y-83956377D01*
X157254321Y-83807156D01*
X157130350Y-83683185D01*
X156981129Y-83591144D01*
X156981124Y-83591142D01*
X156814702Y-83535995D01*
X156814695Y-83535994D01*
X156711991Y-83525501D01*
X155962006Y-83525501D01*
X155962006Y-84677018D01*
X155943597Y-84666390D01*
X155790997Y-84625501D01*
X155633015Y-84625501D01*
X155480415Y-84666390D01*
X155462006Y-84677018D01*
X155462006Y-83525501D01*
X154712020Y-83525501D01*
X154609316Y-83535994D01*
X154609309Y-83535995D01*
X154442887Y-83591142D01*
X154442882Y-83591144D01*
X154293661Y-83683185D01*
X154169690Y-83807156D01*
X154077649Y-83956377D01*
X154077647Y-83956382D01*
X154022500Y-84122804D01*
X154022499Y-84122811D01*
X154012006Y-84225515D01*
X154012006Y-84905022D01*
X153992321Y-84972061D01*
X153939517Y-85017816D01*
X153870359Y-85027760D01*
X153806803Y-84998735D01*
X153769029Y-84939957D01*
X153765533Y-84924420D01*
X153761158Y-84896800D01*
X153754564Y-84855166D01*
X153677639Y-84618416D01*
X153564626Y-84396615D01*
X153418306Y-84195223D01*
X153242284Y-84019201D01*
X153040892Y-83872881D01*
X152819091Y-83759868D01*
X152582341Y-83682943D01*
X152582339Y-83682942D01*
X152582337Y-83682942D01*
X152410668Y-83655752D01*
X152336473Y-83644001D01*
X152087539Y-83644001D01*
X152030543Y-83653028D01*
X151841674Y-83682942D01*
X151604918Y-83759869D01*
X151383119Y-83872881D01*
X151268218Y-83956361D01*
X151181728Y-84019201D01*
X151181726Y-84019203D01*
X151181725Y-84019203D01*
X151005708Y-84195220D01*
X151005708Y-84195221D01*
X151005706Y-84195223D01*
X151004806Y-84196462D01*
X150859386Y-84396614D01*
X150746374Y-84618413D01*
X150669447Y-84855169D01*
X150630506Y-85101034D01*
X138413629Y-85101034D01*
X138413629Y-85016991D01*
X138405575Y-84847910D01*
X138389484Y-84679403D01*
X138365394Y-84511853D01*
X138339296Y-84376447D01*
X138333358Y-84345633D01*
X138328347Y-84324976D01*
X143682705Y-84324976D01*
X143682705Y-84458024D01*
X143697126Y-84511841D01*
X143717141Y-84586540D01*
X143717142Y-84586541D01*
X143739636Y-84625501D01*
X143783665Y-84701761D01*
X143877744Y-84795840D01*
X143958733Y-84842599D01*
X143992963Y-84862362D01*
X143992964Y-84862363D01*
X143992966Y-84862363D01*
X143992967Y-84862364D01*
X144121481Y-84896800D01*
X144121483Y-84896800D01*
X144254527Y-84896800D01*
X144254529Y-84896800D01*
X144383043Y-84862364D01*
X144498266Y-84795840D01*
X144592345Y-84701761D01*
X144658869Y-84586538D01*
X144693305Y-84458024D01*
X144693305Y-84324976D01*
X144658869Y-84196462D01*
X144658868Y-84196461D01*
X144658868Y-84196459D01*
X144658867Y-84196458D01*
X144639104Y-84162228D01*
X144592345Y-84081239D01*
X144498266Y-83987160D01*
X144444957Y-83956382D01*
X144383046Y-83920637D01*
X144383045Y-83920636D01*
X144318786Y-83903418D01*
X144254529Y-83886200D01*
X144121481Y-83886200D01*
X144070075Y-83899974D01*
X143992964Y-83920636D01*
X143992963Y-83920637D01*
X143877747Y-83987158D01*
X143877741Y-83987162D01*
X143783667Y-84081236D01*
X143783663Y-84081242D01*
X143717142Y-84196458D01*
X143717141Y-84196459D01*
X143691419Y-84292457D01*
X143682705Y-84324976D01*
X138328347Y-84324976D01*
X138296869Y-84195223D01*
X138293452Y-84181137D01*
X138245762Y-84018721D01*
X138190398Y-83858757D01*
X138127485Y-83701610D01*
X138057167Y-83547633D01*
X138057166Y-83547631D01*
X138057161Y-83547620D01*
X137979609Y-83397193D01*
X137979601Y-83397177D01*
X137894965Y-83250582D01*
X137803449Y-83108181D01*
X137803447Y-83108178D01*
X137803439Y-83108166D01*
X137705272Y-82970311D01*
X137705261Y-82970295D01*
X137705246Y-82970276D01*
X137705232Y-82970257D01*
X137600634Y-82837250D01*
X137600623Y-82837237D01*
X137489788Y-82709326D01*
X137489785Y-82709322D01*
X137372961Y-82586799D01*
X137250438Y-82469975D01*
X137250434Y-82469972D01*
X137181878Y-82410568D01*
X137181874Y-82410565D01*
X137122524Y-82359138D01*
X137079085Y-82324977D01*
X137079084Y-82324976D01*
X141082704Y-82324976D01*
X141082704Y-82458024D01*
X141085910Y-82469988D01*
X141117140Y-82586540D01*
X141117141Y-82586541D01*
X141117291Y-82586800D01*
X141183664Y-82701761D01*
X141277743Y-82795840D01*
X141349438Y-82837233D01*
X141392962Y-82862362D01*
X141392963Y-82862363D01*
X141392965Y-82862363D01*
X141392966Y-82862364D01*
X141521480Y-82896800D01*
X141521482Y-82896800D01*
X141654526Y-82896800D01*
X141654528Y-82896800D01*
X141783042Y-82862364D01*
X141898265Y-82795840D01*
X141992344Y-82701761D01*
X142058868Y-82586538D01*
X142093304Y-82458024D01*
X142093304Y-82324976D01*
X146082704Y-82324976D01*
X146082704Y-82458024D01*
X146085910Y-82469988D01*
X146117140Y-82586540D01*
X146117141Y-82586541D01*
X146117291Y-82586800D01*
X146183664Y-82701761D01*
X146277743Y-82795840D01*
X146349438Y-82837233D01*
X146392962Y-82862362D01*
X146392963Y-82862363D01*
X146392965Y-82862363D01*
X146392966Y-82862364D01*
X146521480Y-82896800D01*
X146521482Y-82896800D01*
X146654526Y-82896800D01*
X146654528Y-82896800D01*
X146783042Y-82862364D01*
X146898265Y-82795840D01*
X146992344Y-82701761D01*
X147058868Y-82586538D01*
X147093304Y-82458024D01*
X147093304Y-82324976D01*
X147058868Y-82196462D01*
X147058867Y-82196461D01*
X147058867Y-82196459D01*
X147058866Y-82196458D01*
X147035680Y-82156300D01*
X146992344Y-82081239D01*
X146898265Y-81987160D01*
X146864031Y-81967395D01*
X146783045Y-81920637D01*
X146783044Y-81920636D01*
X146718785Y-81903418D01*
X146654528Y-81886200D01*
X146521480Y-81886200D01*
X146470074Y-81899974D01*
X146392963Y-81920636D01*
X146392962Y-81920637D01*
X146277746Y-81987158D01*
X146277740Y-81987162D01*
X146183666Y-82081236D01*
X146183662Y-82081242D01*
X146117141Y-82196458D01*
X146117140Y-82196459D01*
X146101588Y-82254500D01*
X146082704Y-82324976D01*
X142093304Y-82324976D01*
X142058868Y-82196462D01*
X142058867Y-82196461D01*
X142058867Y-82196459D01*
X142058866Y-82196458D01*
X142035680Y-82156300D01*
X141992344Y-82081239D01*
X141898265Y-81987160D01*
X141864031Y-81967395D01*
X141783045Y-81920637D01*
X141783044Y-81920636D01*
X141718785Y-81903418D01*
X141654528Y-81886200D01*
X141521480Y-81886200D01*
X141470074Y-81899974D01*
X141392963Y-81920636D01*
X141392962Y-81920637D01*
X141277746Y-81987158D01*
X141277740Y-81987162D01*
X141183666Y-82081236D01*
X141183662Y-82081242D01*
X141117141Y-82196458D01*
X141117140Y-82196459D01*
X141101588Y-82254500D01*
X141082704Y-82324976D01*
X137079084Y-82324976D01*
X136989503Y-82254528D01*
X136989478Y-82254510D01*
X136989466Y-82254500D01*
X136975903Y-82244842D01*
X136851594Y-82156321D01*
X136851562Y-82156300D01*
X136709174Y-82064793D01*
X136709171Y-82064791D01*
X136562608Y-81980174D01*
X136562584Y-81980160D01*
X136562567Y-81980151D01*
X136412140Y-81902599D01*
X136258152Y-81832276D01*
X136101029Y-81769372D01*
X136101016Y-81769368D01*
X136101004Y-81769363D01*
X135994314Y-81732437D01*
X135941047Y-81714001D01*
X135778630Y-81666310D01*
X135778631Y-81666310D01*
X135614119Y-81626401D01*
X135447919Y-81594369D01*
X135447914Y-81594368D01*
X135447908Y-81594367D01*
X135447900Y-81594365D01*
X135447883Y-81594363D01*
X135280373Y-81570279D01*
X135280366Y-81570278D01*
X135280358Y-81570277D01*
X135280348Y-81570276D01*
X135280331Y-81570274D01*
X135111891Y-81554189D01*
X135111868Y-81554187D01*
X135111854Y-81554186D01*
X135111851Y-81554186D01*
X134942770Y-81546132D01*
X134773496Y-81546132D01*
X134604415Y-81554186D01*
X134604412Y-81554186D01*
X134604397Y-81554187D01*
X134604374Y-81554189D01*
X134435934Y-81570274D01*
X134435912Y-81570276D01*
X134435908Y-81570277D01*
X134435904Y-81570277D01*
X134435892Y-81570279D01*
X134268382Y-81594363D01*
X134268346Y-81594369D01*
X134102146Y-81626401D01*
X133937635Y-81666310D01*
X133775218Y-81714001D01*
X133678337Y-81747532D01*
X133615262Y-81769363D01*
X133615252Y-81769366D01*
X133615249Y-81769368D01*
X133615236Y-81769372D01*
X133458113Y-81832276D01*
X133304125Y-81902599D01*
X133153698Y-81980151D01*
X133153657Y-81980174D01*
X133007094Y-82064791D01*
X133007091Y-82064793D01*
X132864703Y-82156300D01*
X132864671Y-82156321D01*
X132726816Y-82254488D01*
X132726762Y-82254528D01*
X132593755Y-82359126D01*
X132593738Y-82359141D01*
X132465831Y-82469972D01*
X132465827Y-82469975D01*
X132343304Y-82586799D01*
X132226480Y-82709322D01*
X132226477Y-82709326D01*
X132115646Y-82837233D01*
X132115631Y-82837250D01*
X132011033Y-82970257D01*
X132010993Y-82970311D01*
X131912826Y-83108166D01*
X131912805Y-83108198D01*
X131821298Y-83250586D01*
X131821296Y-83250589D01*
X131736679Y-83397152D01*
X131736656Y-83397193D01*
X131659104Y-83547620D01*
X131588781Y-83701608D01*
X131525877Y-83858731D01*
X131525873Y-83858744D01*
X131525868Y-83858757D01*
X131520980Y-83872881D01*
X131470506Y-84018713D01*
X131422815Y-84181130D01*
X131382906Y-84345641D01*
X131350874Y-84511841D01*
X131350868Y-84511877D01*
X131326784Y-84679387D01*
X131326779Y-84679429D01*
X131310694Y-84847869D01*
X131310692Y-84847892D01*
X131310691Y-84847907D01*
X131310691Y-84847910D01*
X131303737Y-84993910D01*
X131302637Y-85016995D01*
X130571704Y-85016995D01*
X130571704Y-80969501D01*
X130591389Y-80902462D01*
X130644193Y-80856707D01*
X130695704Y-80845501D01*
X143595991Y-80845501D01*
X143663030Y-80865186D01*
G37*
%TD.AperFunction*%
%TD*%
M02*
