%TF.GenerationSoftware,KiCad,Pcbnew,10.0.6-10.0.6~ubuntu26.04.1*%
%TF.CreationDate,2026-09-21T00:05:20-04:00*%
%TF.ProjectId,PHOBOS_Control_Digital,50484f42-4f53-45f4-936f-6e74726f6c5f,rev?*%
%TF.SameCoordinates,Original*%
%TF.FileFunction,Legend,Bot*%
%TF.FilePolarity,Positive*%
%FSLAX46Y46*%
G04 Gerber Fmt 4.6, Leading zero omitted, Abs format (unit mm)*
G04 Created by KiCad (PCBNEW 10.0.6-10.0.6~ubuntu26.04.1) date 2026-09-21 00:05:20*
%MOMM*%
%LPD*%
G01*
G04 APERTURE LIST*
%ADD10C,0.150000*%
%ADD11C,0.120000*%
G04 APERTURE END LIST*
D10*
X152042824Y-106974833D02*
X151566633Y-106641500D01*
X152042824Y-106403405D02*
X151042824Y-106403405D01*
X151042824Y-106403405D02*
X151042824Y-106784357D01*
X151042824Y-106784357D02*
X151090443Y-106879595D01*
X151090443Y-106879595D02*
X151138062Y-106927214D01*
X151138062Y-106927214D02*
X151233300Y-106974833D01*
X151233300Y-106974833D02*
X151376157Y-106974833D01*
X151376157Y-106974833D02*
X151471395Y-106927214D01*
X151471395Y-106927214D02*
X151519014Y-106879595D01*
X151519014Y-106879595D02*
X151566633Y-106784357D01*
X151566633Y-106784357D02*
X151566633Y-106403405D01*
X151042824Y-107308167D02*
X152042824Y-107974833D01*
X151042824Y-107974833D02*
X152042824Y-107308167D01*
X151042824Y-103379595D02*
X151042824Y-103951023D01*
X152042824Y-103665309D02*
X151042824Y-103665309D01*
X151042824Y-104189119D02*
X152042824Y-104855785D01*
X151042824Y-104855785D02*
X152042824Y-104189119D01*
X153445205Y-86951024D02*
X153492824Y-87093881D01*
X153492824Y-87093881D02*
X153492824Y-87331976D01*
X153492824Y-87331976D02*
X153445205Y-87427214D01*
X153445205Y-87427214D02*
X153397585Y-87474833D01*
X153397585Y-87474833D02*
X153302347Y-87522452D01*
X153302347Y-87522452D02*
X153207109Y-87522452D01*
X153207109Y-87522452D02*
X153111871Y-87474833D01*
X153111871Y-87474833D02*
X153064252Y-87427214D01*
X153064252Y-87427214D02*
X153016633Y-87331976D01*
X153016633Y-87331976D02*
X152969014Y-87141500D01*
X152969014Y-87141500D02*
X152921395Y-87046262D01*
X152921395Y-87046262D02*
X152873776Y-86998643D01*
X152873776Y-86998643D02*
X152778538Y-86951024D01*
X152778538Y-86951024D02*
X152683300Y-86951024D01*
X152683300Y-86951024D02*
X152588062Y-86998643D01*
X152588062Y-86998643D02*
X152540443Y-87046262D01*
X152540443Y-87046262D02*
X152492824Y-87141500D01*
X152492824Y-87141500D02*
X152492824Y-87379595D01*
X152492824Y-87379595D02*
X152540443Y-87522452D01*
X153397585Y-88522452D02*
X153445205Y-88474833D01*
X153445205Y-88474833D02*
X153492824Y-88331976D01*
X153492824Y-88331976D02*
X153492824Y-88236738D01*
X153492824Y-88236738D02*
X153445205Y-88093881D01*
X153445205Y-88093881D02*
X153349966Y-87998643D01*
X153349966Y-87998643D02*
X153254728Y-87951024D01*
X153254728Y-87951024D02*
X153064252Y-87903405D01*
X153064252Y-87903405D02*
X152921395Y-87903405D01*
X152921395Y-87903405D02*
X152730919Y-87951024D01*
X152730919Y-87951024D02*
X152635681Y-87998643D01*
X152635681Y-87998643D02*
X152540443Y-88093881D01*
X152540443Y-88093881D02*
X152492824Y-88236738D01*
X152492824Y-88236738D02*
X152492824Y-88331976D01*
X152492824Y-88331976D02*
X152540443Y-88474833D01*
X152540443Y-88474833D02*
X152588062Y-88522452D01*
X153492824Y-89427214D02*
X153492824Y-88951024D01*
X153492824Y-88951024D02*
X152492824Y-88951024D01*
X160115443Y-92164119D02*
X160067824Y-92068881D01*
X160067824Y-92068881D02*
X160067824Y-91926024D01*
X160067824Y-91926024D02*
X160115443Y-91783167D01*
X160115443Y-91783167D02*
X160210681Y-91687929D01*
X160210681Y-91687929D02*
X160305919Y-91640310D01*
X160305919Y-91640310D02*
X160496395Y-91592691D01*
X160496395Y-91592691D02*
X160639252Y-91592691D01*
X160639252Y-91592691D02*
X160829728Y-91640310D01*
X160829728Y-91640310D02*
X160924966Y-91687929D01*
X160924966Y-91687929D02*
X161020205Y-91783167D01*
X161020205Y-91783167D02*
X161067824Y-91926024D01*
X161067824Y-91926024D02*
X161067824Y-92021262D01*
X161067824Y-92021262D02*
X161020205Y-92164119D01*
X161020205Y-92164119D02*
X160972585Y-92211738D01*
X160972585Y-92211738D02*
X160639252Y-92211738D01*
X160639252Y-92211738D02*
X160639252Y-92021262D01*
X161067824Y-92640310D02*
X160067824Y-92640310D01*
X160067824Y-92640310D02*
X160067824Y-93021262D01*
X160067824Y-93021262D02*
X160115443Y-93116500D01*
X160115443Y-93116500D02*
X160163062Y-93164119D01*
X160163062Y-93164119D02*
X160258300Y-93211738D01*
X160258300Y-93211738D02*
X160401157Y-93211738D01*
X160401157Y-93211738D02*
X160496395Y-93164119D01*
X160496395Y-93164119D02*
X160544014Y-93116500D01*
X160544014Y-93116500D02*
X160591633Y-93021262D01*
X160591633Y-93021262D02*
X160591633Y-92640310D01*
X161067824Y-93640310D02*
X160067824Y-93640310D01*
X160067824Y-94306976D02*
X160067824Y-94497452D01*
X160067824Y-94497452D02*
X160115443Y-94592690D01*
X160115443Y-94592690D02*
X160210681Y-94687928D01*
X160210681Y-94687928D02*
X160401157Y-94735547D01*
X160401157Y-94735547D02*
X160734490Y-94735547D01*
X160734490Y-94735547D02*
X160924966Y-94687928D01*
X160924966Y-94687928D02*
X161020205Y-94592690D01*
X161020205Y-94592690D02*
X161067824Y-94497452D01*
X161067824Y-94497452D02*
X161067824Y-94306976D01*
X161067824Y-94306976D02*
X161020205Y-94211738D01*
X161020205Y-94211738D02*
X160924966Y-94116500D01*
X160924966Y-94116500D02*
X160734490Y-94068881D01*
X160734490Y-94068881D02*
X160401157Y-94068881D01*
X160401157Y-94068881D02*
X160210681Y-94116500D01*
X160210681Y-94116500D02*
X160115443Y-94211738D01*
X160115443Y-94211738D02*
X160067824Y-94306976D01*
X161067824Y-95687928D02*
X161067824Y-95116500D01*
X161067824Y-95402214D02*
X160067824Y-95402214D01*
X160067824Y-95402214D02*
X160210681Y-95306976D01*
X160210681Y-95306976D02*
X160305919Y-95211738D01*
X160305919Y-95211738D02*
X160353538Y-95116500D01*
X161067824Y-96164119D02*
X161067824Y-96354595D01*
X161067824Y-96354595D02*
X161020205Y-96449833D01*
X161020205Y-96449833D02*
X160972585Y-96497452D01*
X160972585Y-96497452D02*
X160829728Y-96592690D01*
X160829728Y-96592690D02*
X160639252Y-96640309D01*
X160639252Y-96640309D02*
X160258300Y-96640309D01*
X160258300Y-96640309D02*
X160163062Y-96592690D01*
X160163062Y-96592690D02*
X160115443Y-96545071D01*
X160115443Y-96545071D02*
X160067824Y-96449833D01*
X160067824Y-96449833D02*
X160067824Y-96259357D01*
X160067824Y-96259357D02*
X160115443Y-96164119D01*
X160115443Y-96164119D02*
X160163062Y-96116500D01*
X160163062Y-96116500D02*
X160258300Y-96068881D01*
X160258300Y-96068881D02*
X160496395Y-96068881D01*
X160496395Y-96068881D02*
X160591633Y-96116500D01*
X160591633Y-96116500D02*
X160639252Y-96164119D01*
X160639252Y-96164119D02*
X160686871Y-96259357D01*
X160686871Y-96259357D02*
X160686871Y-96449833D01*
X160686871Y-96449833D02*
X160639252Y-96545071D01*
X160639252Y-96545071D02*
X160591633Y-96592690D01*
X160591633Y-96592690D02*
X160496395Y-96640309D01*
X158195205Y-87177214D02*
X158242824Y-87320071D01*
X158242824Y-87320071D02*
X158242824Y-87558166D01*
X158242824Y-87558166D02*
X158195205Y-87653404D01*
X158195205Y-87653404D02*
X158147585Y-87701023D01*
X158147585Y-87701023D02*
X158052347Y-87748642D01*
X158052347Y-87748642D02*
X157957109Y-87748642D01*
X157957109Y-87748642D02*
X157861871Y-87701023D01*
X157861871Y-87701023D02*
X157814252Y-87653404D01*
X157814252Y-87653404D02*
X157766633Y-87558166D01*
X157766633Y-87558166D02*
X157719014Y-87367690D01*
X157719014Y-87367690D02*
X157671395Y-87272452D01*
X157671395Y-87272452D02*
X157623776Y-87224833D01*
X157623776Y-87224833D02*
X157528538Y-87177214D01*
X157528538Y-87177214D02*
X157433300Y-87177214D01*
X157433300Y-87177214D02*
X157338062Y-87224833D01*
X157338062Y-87224833D02*
X157290443Y-87272452D01*
X157290443Y-87272452D02*
X157242824Y-87367690D01*
X157242824Y-87367690D02*
X157242824Y-87605785D01*
X157242824Y-87605785D02*
X157290443Y-87748642D01*
X158242824Y-88177214D02*
X157242824Y-88177214D01*
X157242824Y-88177214D02*
X157242824Y-88415309D01*
X157242824Y-88415309D02*
X157290443Y-88558166D01*
X157290443Y-88558166D02*
X157385681Y-88653404D01*
X157385681Y-88653404D02*
X157480919Y-88701023D01*
X157480919Y-88701023D02*
X157671395Y-88748642D01*
X157671395Y-88748642D02*
X157814252Y-88748642D01*
X157814252Y-88748642D02*
X158004728Y-88701023D01*
X158004728Y-88701023D02*
X158099966Y-88653404D01*
X158099966Y-88653404D02*
X158195205Y-88558166D01*
X158195205Y-88558166D02*
X158242824Y-88415309D01*
X158242824Y-88415309D02*
X158242824Y-88177214D01*
X157957109Y-89129595D02*
X157957109Y-89605785D01*
X158242824Y-89034357D02*
X157242824Y-89367690D01*
X157242824Y-89367690D02*
X158242824Y-89701023D01*
%TO.C,TP10*%
D11*
X150738005Y-107141500D02*
G75*
G02*
X148338005Y-107141500I-1200000J0D01*
G01*
X148338005Y-107141500D02*
G75*
G02*
X150738005Y-107141500I1200000J0D01*
G01*
%TO.C,TP9*%
X150738005Y-104141500D02*
G75*
G02*
X148338005Y-104141500I-1200000J0D01*
G01*
X148338005Y-104141500D02*
G75*
G02*
X150738005Y-104141500I1200000J0D01*
G01*
%TO.C,TP8*%
X153488005Y-90641500D02*
G75*
G02*
X151088005Y-90641500I-1200000J0D01*
G01*
X151088005Y-90641500D02*
G75*
G02*
X153488005Y-90641500I1200000J0D01*
G01*
%TO.C,TP11*%
X159763005Y-94116500D02*
G75*
G02*
X157363005Y-94116500I-1200000J0D01*
G01*
X157363005Y-94116500D02*
G75*
G02*
X159763005Y-94116500I1200000J0D01*
G01*
%TO.C,TP7*%
X157488005Y-90641500D02*
G75*
G02*
X155088005Y-90641500I-1200000J0D01*
G01*
X155088005Y-90641500D02*
G75*
G02*
X157488005Y-90641500I1200000J0D01*
G01*
%TD*%
M02*
