%TF.GenerationSoftware,KiCad,Pcbnew,9.0.8-9.0.8~ubuntu24.04.1*%
%TF.CreationDate,2026-04-19T02:42:29-04:00*%
%TF.ProjectId,COMET,434f4d45-542e-46b6-9963-61645f706362,rev?*%
%TF.SameCoordinates,Original*%
%TF.FileFunction,Copper,L2,Inr*%
%TF.FilePolarity,Positive*%
%FSLAX46Y46*%
G04 Gerber Fmt 4.6, Leading zero omitted, Abs format (unit mm)*
G04 Created by KiCad (PCBNEW 9.0.8-9.0.8~ubuntu24.04.1) date 2026-04-19 02:42:29*
%MOMM*%
%LPD*%
G01*
G04 APERTURE LIST*
G04 Aperture macros list*
%AMRoundRect*
0 Rectangle with rounded corners*
0 $1 Rounding radius*
0 $2 $3 $4 $5 $6 $7 $8 $9 X,Y pos of 4 corners*
0 Add a 4 corners polygon primitive as box body*
4,1,4,$2,$3,$4,$5,$6,$7,$8,$9,$2,$3,0*
0 Add four circle primitives for the rounded corners*
1,1,$1+$1,$2,$3*
1,1,$1+$1,$4,$5*
1,1,$1+$1,$6,$7*
1,1,$1+$1,$8,$9*
0 Add four rect primitives between the rounded corners*
20,1,$1+$1,$2,$3,$4,$5,0*
20,1,$1+$1,$4,$5,$6,$7,0*
20,1,$1+$1,$6,$7,$8,$9,0*
20,1,$1+$1,$8,$9,$2,$3,0*%
G04 Aperture macros list end*
%TA.AperFunction,ComponentPad*%
%ADD10C,1.500000*%
%TD*%
%TA.AperFunction,ComponentPad*%
%ADD11RoundRect,0.250001X0.949999X0.949999X-0.949999X0.949999X-0.949999X-0.949999X0.949999X-0.949999X0*%
%TD*%
%TA.AperFunction,ComponentPad*%
%ADD12C,2.400000*%
%TD*%
%TA.AperFunction,ComponentPad*%
%ADD13C,1.346200*%
%TD*%
%TA.AperFunction,ComponentPad*%
%ADD14RoundRect,0.250001X-0.949999X-0.949999X0.949999X-0.949999X0.949999X0.949999X-0.949999X0.949999X0*%
%TD*%
%TA.AperFunction,WasherPad*%
%ADD15O,2.514600X1.219200*%
%TD*%
%TA.AperFunction,WasherPad*%
%ADD16O,2.819400X1.320800*%
%TD*%
%TA.AperFunction,WasherPad*%
%ADD17O,1.117600X1.651000*%
%TD*%
%TA.AperFunction,ViaPad*%
%ADD18C,0.600000*%
%TD*%
G04 APERTURE END LIST*
D10*
%TO.N,/TX*%
%TO.C,TP12*%
X119332000Y-69497000D03*
%TD*%
%TO.N,/RX*%
%TO.C,TP11*%
X116792000Y-69497000D03*
%TD*%
D11*
%TO.N,+BATT*%
%TO.C,J5*%
X110442000Y-65052000D03*
D12*
%TO.N,/Mos_Power*%
X106942000Y-65052000D03*
%TD*%
D11*
%TO.N,/Mos_Power*%
%TO.C,Main1*%
X127968000Y-65179000D03*
D12*
%TO.N,Net-(Main1-Pin_2)*%
X124468000Y-65179000D03*
%TD*%
D13*
%TO.N,N/C*%
%TO.C,SW1*%
X88852000Y-63401000D03*
X91852000Y-63401000D03*
%TD*%
D14*
%TO.N,/Mos_Power*%
%TO.C,Drogue1*%
X124412000Y-81943000D03*
D12*
%TO.N,Net-(Drogue1-Pin_2)*%
X127912000Y-81943000D03*
%TD*%
D11*
%TO.N,+BATT*%
%TO.C,Batt_Screw1*%
X101044000Y-65052000D03*
D12*
%TO.N,GND*%
X97544000Y-65052000D03*
%TD*%
D15*
%TO.N,*%
%TO.C,J3*%
X74869402Y-69240999D03*
D16*
X69819399Y-69241001D03*
D17*
X74269401Y-69565999D03*
X74269401Y-77556002D03*
D15*
X74869398Y-77880997D03*
D16*
X69819397Y-77881003D03*
%TD*%
D18*
%TO.N,/RX*%
X104219000Y-80292000D03*
%TO.N,/TX*%
X102747343Y-80512912D03*
X111521500Y-78323500D03*
%TO.N,/RX*%
X109836629Y-78006000D03*
%TO.N,+3V3*%
X111077000Y-84102000D03*
%TO.N,/R'*%
X78692000Y-80927000D03*
%TO.N,/G'*%
X77803000Y-78768000D03*
%TO.N,/B'*%
X76660000Y-79149000D03*
%TO.N,/G'*%
X89995000Y-71910000D03*
%TO.N,/B'*%
X89552640Y-74425455D03*
%TO.N,/R'*%
X90249000Y-74704000D03*
%TO.N,/G*%
X92916000Y-70259000D03*
%TO.N,/B*%
X93932000Y-71529000D03*
X96502841Y-72922416D03*
%TO.N,/G*%
X97557290Y-71697664D03*
%TO.N,+3V3*%
X74773596Y-82075603D03*
%TO.N,VIN*%
X85988899Y-68644141D03*
%TO.N,GND*%
X120729000Y-82578000D03*
X73104000Y-71021000D03*
X129912000Y-72011000D03*
X85931000Y-61623000D03*
X112235186Y-71355756D03*
X72723000Y-76101000D03*
X72469000Y-68354000D03*
X103232629Y-81565000D03*
X94215629Y-77374000D03*
X94088186Y-73845756D03*
X76914000Y-76611000D03*
X88852000Y-70132000D03*
X101062000Y-74961000D03*
X104121629Y-68611000D03*
X98362000Y-69611000D03*
X113363000Y-80292000D03*
X106026629Y-70389000D03*
X125912000Y-69761000D03*
X94771995Y-71887787D03*
X88443443Y-84457244D03*
X126698000Y-75847000D03*
X115758000Y-64084000D03*
X70183000Y-63655000D03*
X116662000Y-81511000D03*
X106407629Y-81692000D03*
X76962000Y-84761000D03*
X76914000Y-70132000D03*
X83363443Y-85346244D03*
X95812000Y-80011000D03*
X118443000Y-62131000D03*
X67906498Y-81570503D03*
X118388445Y-85483495D03*
X117046000Y-66830000D03*
X72097498Y-81570503D03*
X85062000Y-77711000D03*
X106875700Y-72161500D03*
X77362000Y-68311000D03*
X107169629Y-76485000D03*
X109568186Y-76308756D03*
%TO.N,VBUS*%
X74685999Y-67141999D03*
%TO.N,/MOS_D*%
X122082777Y-79270500D03*
X118316000Y-84737000D03*
%TO.N,/MOS_M*%
X123269000Y-70259000D03*
X120882500Y-64094500D03*
X103202676Y-79141263D03*
%TO.N,+3V3*%
X83264000Y-66322000D03*
X97390629Y-75088000D03*
X81512197Y-67508000D03*
X103613629Y-76104000D03*
X104883629Y-79406000D03*
X69780699Y-81394998D03*
X116762000Y-82411000D03*
X85662000Y-77111000D03*
X102851629Y-73183000D03*
X98914629Y-76612000D03*
X107423629Y-82327000D03*
X81867000Y-61369000D03*
X99930629Y-72421000D03*
X89262000Y-75761000D03*
X73739000Y-64544000D03*
X100189214Y-82358216D03*
X101073629Y-78517000D03*
X71580000Y-65687000D03*
%TO.N,/XIN*%
X111688186Y-76101000D03*
%TO.N,/USB_D-*%
X73129128Y-73427003D03*
X77422000Y-73949499D03*
%TO.N,/Main_Cont*%
X99422629Y-73685500D03*
X118862000Y-67361000D03*
%TO.N,/RUN*%
X77676000Y-64798000D03*
X102695000Y-70513000D03*
%TO.N,/Drogue_Cont*%
X119212000Y-78761000D03*
X98665745Y-74458116D03*
%TO.N,/XOUT*%
X108791000Y-70132000D03*
%TO.N,/QSPI_SD3*%
X89967443Y-78361244D03*
X93862000Y-81414744D03*
%TO.N,/QSPI_SD0*%
X92000452Y-81872548D03*
X89586443Y-80387744D03*
%TO.N,/QSPI_SCLK*%
X94694000Y-82111000D03*
X89713443Y-79377244D03*
%TO.N,/SDA*%
X111331000Y-80645755D03*
X110912000Y-82525500D03*
%TO.N,/SCL*%
X110421943Y-79550057D03*
X108029000Y-76485000D03*
X110112000Y-82525500D03*
%TO.N,/Speaker*%
X113838186Y-70395756D03*
X107654936Y-73739908D03*
%TO.N,Net-(J3-CC2)*%
X76660000Y-74704000D03*
X73104000Y-74196000D03*
%TO.N,/Mode_Sel*%
X99295629Y-70262000D03*
X73866000Y-82197000D03*
%TD*%
%TA.AperFunction,Conductor*%
%TO.N,+3V3*%
G36*
X85609919Y-60906185D02*
G01*
X85655674Y-60958989D01*
X85665618Y-61028147D01*
X85636593Y-61091703D01*
X85604880Y-61117887D01*
X85562287Y-61142477D01*
X85562282Y-61142481D01*
X85450481Y-61254282D01*
X85450475Y-61254290D01*
X85371426Y-61391209D01*
X85371423Y-61391216D01*
X85330500Y-61543943D01*
X85330500Y-61702057D01*
X85346640Y-61762290D01*
X85371423Y-61854783D01*
X85371426Y-61854790D01*
X85450475Y-61991709D01*
X85450479Y-61991714D01*
X85450480Y-61991716D01*
X85562284Y-62103520D01*
X85562286Y-62103521D01*
X85562290Y-62103524D01*
X85699209Y-62182573D01*
X85699216Y-62182577D01*
X85851943Y-62223500D01*
X85851945Y-62223500D01*
X86010055Y-62223500D01*
X86010057Y-62223500D01*
X86162784Y-62182577D01*
X86299716Y-62103520D01*
X86351293Y-62051943D01*
X117842500Y-62051943D01*
X117842500Y-62210056D01*
X117883423Y-62362783D01*
X117883426Y-62362790D01*
X117962475Y-62499709D01*
X117962479Y-62499714D01*
X117962480Y-62499716D01*
X118074284Y-62611520D01*
X118074286Y-62611521D01*
X118074290Y-62611524D01*
X118211209Y-62690573D01*
X118211216Y-62690577D01*
X118363943Y-62731500D01*
X118363945Y-62731500D01*
X118522055Y-62731500D01*
X118522057Y-62731500D01*
X118674784Y-62690577D01*
X118811716Y-62611520D01*
X118923520Y-62499716D01*
X119002577Y-62362784D01*
X119043500Y-62210057D01*
X119043500Y-62051943D01*
X119002577Y-61899216D01*
X118976928Y-61854790D01*
X118923524Y-61762290D01*
X118923518Y-61762282D01*
X118811717Y-61650481D01*
X118811709Y-61650475D01*
X118674790Y-61571426D01*
X118674786Y-61571424D01*
X118674784Y-61571423D01*
X118522057Y-61530500D01*
X118363943Y-61530500D01*
X118211216Y-61571423D01*
X118211209Y-61571426D01*
X118074290Y-61650475D01*
X118074282Y-61650481D01*
X117962481Y-61762282D01*
X117962475Y-61762290D01*
X117883426Y-61899209D01*
X117883423Y-61899216D01*
X117842500Y-62051943D01*
X86351293Y-62051943D01*
X86411520Y-61991716D01*
X86490577Y-61854784D01*
X86531500Y-61702057D01*
X86531500Y-61543943D01*
X86490577Y-61391216D01*
X86490573Y-61391209D01*
X86411524Y-61254290D01*
X86411518Y-61254282D01*
X86299717Y-61142481D01*
X86299712Y-61142477D01*
X86257120Y-61117887D01*
X86208905Y-61067320D01*
X86195681Y-60998713D01*
X86221649Y-60933849D01*
X86278563Y-60893320D01*
X86319120Y-60886500D01*
X130612500Y-60886500D01*
X130679539Y-60906185D01*
X130725294Y-60958989D01*
X130736500Y-61010500D01*
X130736500Y-71826049D01*
X130716815Y-71893088D01*
X130664011Y-71938843D01*
X130594853Y-71948787D01*
X130531297Y-71919762D01*
X130493523Y-71860984D01*
X130492725Y-71858143D01*
X130486866Y-71836276D01*
X130471577Y-71779216D01*
X130460935Y-71760783D01*
X130392524Y-71642290D01*
X130392518Y-71642282D01*
X130280717Y-71530481D01*
X130280709Y-71530475D01*
X130143790Y-71451426D01*
X130143786Y-71451424D01*
X130143784Y-71451423D01*
X129991057Y-71410500D01*
X129832943Y-71410500D01*
X129680216Y-71451423D01*
X129680209Y-71451426D01*
X129543290Y-71530475D01*
X129543282Y-71530481D01*
X129431481Y-71642282D01*
X129431475Y-71642290D01*
X129352426Y-71779209D01*
X129352424Y-71779214D01*
X129352423Y-71779216D01*
X129311500Y-71931943D01*
X129311500Y-72090057D01*
X129351827Y-72240557D01*
X129352423Y-72242783D01*
X129352426Y-72242790D01*
X129431475Y-72379709D01*
X129431479Y-72379714D01*
X129431480Y-72379716D01*
X129543284Y-72491520D01*
X129543286Y-72491521D01*
X129543290Y-72491524D01*
X129650980Y-72553698D01*
X129680216Y-72570577D01*
X129832943Y-72611500D01*
X129832945Y-72611500D01*
X129991055Y-72611500D01*
X129991057Y-72611500D01*
X130143784Y-72570577D01*
X130280716Y-72491520D01*
X130392520Y-72379716D01*
X130471577Y-72242784D01*
X130492725Y-72163855D01*
X130529090Y-72104196D01*
X130591937Y-72073667D01*
X130661313Y-72081962D01*
X130715190Y-72126447D01*
X130736465Y-72192999D01*
X130736500Y-72195950D01*
X130736500Y-86111500D01*
X130716815Y-86178539D01*
X130664011Y-86224294D01*
X130612500Y-86235500D01*
X118749709Y-86235500D01*
X118682670Y-86215815D01*
X118636915Y-86163011D01*
X118626971Y-86093853D01*
X118655996Y-86030297D01*
X118687710Y-86004113D01*
X118757154Y-85964019D01*
X118757153Y-85964019D01*
X118757161Y-85964015D01*
X118868965Y-85852211D01*
X118948022Y-85715279D01*
X118988945Y-85562552D01*
X118988945Y-85404438D01*
X118948022Y-85251711D01*
X118868965Y-85114779D01*
X118868964Y-85114778D01*
X118865921Y-85109507D01*
X118849448Y-85041607D01*
X118865922Y-84985506D01*
X118875577Y-84968784D01*
X118916500Y-84816057D01*
X118916500Y-84657943D01*
X118875577Y-84505216D01*
X118810378Y-84392287D01*
X118796524Y-84368290D01*
X118796518Y-84368282D01*
X118684717Y-84256481D01*
X118684709Y-84256475D01*
X118547790Y-84177426D01*
X118547786Y-84177424D01*
X118547784Y-84177423D01*
X118395057Y-84136500D01*
X118236943Y-84136500D01*
X118084216Y-84177423D01*
X118084209Y-84177426D01*
X117947290Y-84256475D01*
X117947282Y-84256481D01*
X117835481Y-84368282D01*
X117835475Y-84368290D01*
X117756426Y-84505209D01*
X117756423Y-84505216D01*
X117715500Y-84657943D01*
X117715500Y-84816057D01*
X117748113Y-84937768D01*
X117756423Y-84968783D01*
X117756424Y-84968786D01*
X117838523Y-85110987D01*
X117854996Y-85178888D01*
X117838525Y-85234983D01*
X117828871Y-85251705D01*
X117828867Y-85251714D01*
X117810416Y-85320576D01*
X117787945Y-85404438D01*
X117787945Y-85562552D01*
X117792094Y-85578034D01*
X117828868Y-85715278D01*
X117828871Y-85715285D01*
X117907920Y-85852204D01*
X117907924Y-85852209D01*
X117907925Y-85852211D01*
X118019729Y-85964015D01*
X118019731Y-85964016D01*
X118019735Y-85964019D01*
X118089180Y-86004113D01*
X118137396Y-86054679D01*
X118150620Y-86123286D01*
X118124652Y-86188151D01*
X118067738Y-86228680D01*
X118027181Y-86235500D01*
X67411500Y-86235500D01*
X67344461Y-86215815D01*
X67298706Y-86163011D01*
X67287500Y-86111500D01*
X67287500Y-84681943D01*
X76361500Y-84681943D01*
X76361500Y-84840057D01*
X76400473Y-84985504D01*
X76402423Y-84992783D01*
X76402426Y-84992790D01*
X76481475Y-85129709D01*
X76481479Y-85129714D01*
X76481480Y-85129716D01*
X76593284Y-85241520D01*
X76593286Y-85241521D01*
X76593290Y-85241524D01*
X76637744Y-85267189D01*
X76730216Y-85320577D01*
X76882943Y-85361500D01*
X76882945Y-85361500D01*
X77041055Y-85361500D01*
X77041057Y-85361500D01*
X77193784Y-85320577D01*
X77286259Y-85267187D01*
X82762943Y-85267187D01*
X82762943Y-85425300D01*
X82803866Y-85578027D01*
X82803869Y-85578034D01*
X82882918Y-85714953D01*
X82882922Y-85714958D01*
X82882923Y-85714960D01*
X82994727Y-85826764D01*
X82994729Y-85826765D01*
X82994733Y-85826768D01*
X83131652Y-85905817D01*
X83131659Y-85905821D01*
X83284386Y-85946744D01*
X83284388Y-85946744D01*
X83442498Y-85946744D01*
X83442500Y-85946744D01*
X83595227Y-85905821D01*
X83732159Y-85826764D01*
X83843963Y-85714960D01*
X83923020Y-85578028D01*
X83963943Y-85425301D01*
X83963943Y-85267187D01*
X83923020Y-85114460D01*
X83894772Y-85065533D01*
X83843967Y-84977534D01*
X83843961Y-84977526D01*
X83732160Y-84865725D01*
X83732152Y-84865719D01*
X83595233Y-84786670D01*
X83595229Y-84786668D01*
X83595227Y-84786667D01*
X83442500Y-84745744D01*
X83284386Y-84745744D01*
X83131659Y-84786667D01*
X83131652Y-84786670D01*
X82994733Y-84865719D01*
X82994725Y-84865725D01*
X82882924Y-84977526D01*
X82882918Y-84977534D01*
X82803869Y-85114453D01*
X82803866Y-85114460D01*
X82762943Y-85267187D01*
X77286259Y-85267187D01*
X77330716Y-85241520D01*
X77442520Y-85129716D01*
X77521577Y-84992784D01*
X77562500Y-84840057D01*
X77562500Y-84681943D01*
X77521577Y-84529216D01*
X77465483Y-84432057D01*
X77442522Y-84392287D01*
X77442518Y-84392282D01*
X77428423Y-84378187D01*
X87842943Y-84378187D01*
X87842943Y-84536301D01*
X87875538Y-84657945D01*
X87883866Y-84689027D01*
X87883869Y-84689034D01*
X87962918Y-84825953D01*
X87962922Y-84825958D01*
X87962923Y-84825960D01*
X88074727Y-84937764D01*
X88074729Y-84937765D01*
X88074733Y-84937768D01*
X88211652Y-85016817D01*
X88211659Y-85016821D01*
X88364386Y-85057744D01*
X88364388Y-85057744D01*
X88522498Y-85057744D01*
X88522500Y-85057744D01*
X88675227Y-85016821D01*
X88812159Y-84937764D01*
X88923963Y-84825960D01*
X89003020Y-84689028D01*
X89043943Y-84536301D01*
X89043943Y-84378187D01*
X89003020Y-84225460D01*
X88965516Y-84160500D01*
X88923967Y-84088534D01*
X88923961Y-84088526D01*
X88812160Y-83976725D01*
X88812152Y-83976719D01*
X88675233Y-83897670D01*
X88675229Y-83897668D01*
X88675227Y-83897667D01*
X88522500Y-83856744D01*
X88364386Y-83856744D01*
X88211659Y-83897667D01*
X88211652Y-83897670D01*
X88074733Y-83976719D01*
X88074725Y-83976725D01*
X87962924Y-84088526D01*
X87962918Y-84088534D01*
X87883869Y-84225453D01*
X87883866Y-84225460D01*
X87842943Y-84378187D01*
X77428423Y-84378187D01*
X77330717Y-84280481D01*
X77330709Y-84280475D01*
X77193790Y-84201426D01*
X77193786Y-84201424D01*
X77193784Y-84201423D01*
X77041057Y-84160500D01*
X76882943Y-84160500D01*
X76730216Y-84201423D01*
X76730209Y-84201426D01*
X76593290Y-84280475D01*
X76593282Y-84280481D01*
X76481481Y-84392282D01*
X76481475Y-84392290D01*
X76402426Y-84529209D01*
X76402423Y-84529216D01*
X76361500Y-84681943D01*
X67287500Y-84681943D01*
X67287500Y-82100103D01*
X67307185Y-82033064D01*
X67359989Y-81987309D01*
X67429147Y-81977365D01*
X67492703Y-82006390D01*
X67499181Y-82012422D01*
X67537782Y-82051023D01*
X67537784Y-82051024D01*
X67537788Y-82051027D01*
X67665181Y-82124576D01*
X67674714Y-82130080D01*
X67827441Y-82171003D01*
X67827443Y-82171003D01*
X67985553Y-82171003D01*
X67985555Y-82171003D01*
X68138282Y-82130080D01*
X68275214Y-82051023D01*
X68387018Y-81939219D01*
X68466075Y-81802287D01*
X68506998Y-81649560D01*
X68506998Y-81491446D01*
X71496998Y-81491446D01*
X71496998Y-81649560D01*
X71536447Y-81796784D01*
X71537921Y-81802286D01*
X71537924Y-81802293D01*
X71616973Y-81939212D01*
X71616977Y-81939217D01*
X71616978Y-81939219D01*
X71728782Y-82051023D01*
X71728784Y-82051024D01*
X71728788Y-82051027D01*
X71856181Y-82124576D01*
X71865714Y-82130080D01*
X72018441Y-82171003D01*
X72018443Y-82171003D01*
X72176553Y-82171003D01*
X72176555Y-82171003D01*
X72329282Y-82130080D01*
X72350304Y-82117943D01*
X73265500Y-82117943D01*
X73265500Y-82276057D01*
X73292365Y-82376316D01*
X73306423Y-82428783D01*
X73306426Y-82428790D01*
X73385475Y-82565709D01*
X73385479Y-82565714D01*
X73385480Y-82565716D01*
X73497284Y-82677520D01*
X73497286Y-82677521D01*
X73497290Y-82677524D01*
X73634209Y-82756573D01*
X73634216Y-82756577D01*
X73786943Y-82797500D01*
X73786945Y-82797500D01*
X73945055Y-82797500D01*
X73945057Y-82797500D01*
X74097784Y-82756577D01*
X74234716Y-82677520D01*
X74346520Y-82565716D01*
X74425577Y-82428784D01*
X74466500Y-82276057D01*
X74466500Y-82117943D01*
X74425577Y-81965216D01*
X74417718Y-81951603D01*
X74357537Y-81847365D01*
X74357535Y-81847363D01*
X74346523Y-81828290D01*
X74346520Y-81828284D01*
X74311727Y-81793491D01*
X91399952Y-81793491D01*
X91399952Y-81951605D01*
X91439040Y-82097481D01*
X91440875Y-82104331D01*
X91440878Y-82104338D01*
X91519927Y-82241257D01*
X91519931Y-82241262D01*
X91519932Y-82241264D01*
X91631736Y-82353068D01*
X91631738Y-82353069D01*
X91631742Y-82353072D01*
X91768661Y-82432121D01*
X91768668Y-82432125D01*
X91921395Y-82473048D01*
X91921397Y-82473048D01*
X92079507Y-82473048D01*
X92079509Y-82473048D01*
X92232236Y-82432125D01*
X92369168Y-82353068D01*
X92480972Y-82241264D01*
X92560029Y-82104332D01*
X92600952Y-81951605D01*
X92600952Y-81793491D01*
X92560029Y-81640764D01*
X92543967Y-81612943D01*
X92480976Y-81503838D01*
X92480970Y-81503830D01*
X92369169Y-81392029D01*
X92369161Y-81392023D01*
X92271583Y-81335687D01*
X93261500Y-81335687D01*
X93261500Y-81493801D01*
X93301761Y-81644055D01*
X93302423Y-81646527D01*
X93302426Y-81646534D01*
X93381475Y-81783453D01*
X93381479Y-81783458D01*
X93381480Y-81783460D01*
X93493284Y-81895264D01*
X93493286Y-81895265D01*
X93493290Y-81895268D01*
X93615670Y-81965923D01*
X93630216Y-81974321D01*
X93782943Y-82015244D01*
X93782945Y-82015244D01*
X93941055Y-82015244D01*
X93941057Y-82015244D01*
X93941058Y-82015243D01*
X93949113Y-82014183D01*
X93949419Y-82016510D01*
X94007240Y-82017879D01*
X94065108Y-82057033D01*
X94092621Y-82121258D01*
X94093500Y-82135996D01*
X94093500Y-82190057D01*
X94121276Y-82293716D01*
X94134423Y-82342783D01*
X94134426Y-82342790D01*
X94213475Y-82479709D01*
X94213479Y-82479714D01*
X94213480Y-82479716D01*
X94325284Y-82591520D01*
X94325286Y-82591521D01*
X94325290Y-82591524D01*
X94438795Y-82657055D01*
X94462216Y-82670577D01*
X94614943Y-82711500D01*
X94614945Y-82711500D01*
X94773055Y-82711500D01*
X94773057Y-82711500D01*
X94925784Y-82670577D01*
X95062716Y-82591520D01*
X95174520Y-82479716D01*
X95193729Y-82446443D01*
X109511500Y-82446443D01*
X109511500Y-82604557D01*
X109552234Y-82756576D01*
X109552423Y-82757283D01*
X109552426Y-82757290D01*
X109631475Y-82894209D01*
X109631479Y-82894214D01*
X109631480Y-82894216D01*
X109743284Y-83006020D01*
X109743286Y-83006021D01*
X109743290Y-83006024D01*
X109834224Y-83058524D01*
X109880216Y-83085077D01*
X110032943Y-83126000D01*
X110032945Y-83126000D01*
X110191055Y-83126000D01*
X110191057Y-83126000D01*
X110343784Y-83085077D01*
X110389776Y-83058524D01*
X110450001Y-83023754D01*
X110517901Y-83007281D01*
X110573999Y-83023754D01*
X110634224Y-83058524D01*
X110680216Y-83085077D01*
X110832943Y-83126000D01*
X110832945Y-83126000D01*
X110991055Y-83126000D01*
X110991057Y-83126000D01*
X111143784Y-83085077D01*
X111280716Y-83006020D01*
X111392520Y-82894216D01*
X111471577Y-82757284D01*
X111512500Y-82604557D01*
X111512500Y-82498943D01*
X120128500Y-82498943D01*
X120128500Y-82657057D01*
X120166132Y-82797499D01*
X120169423Y-82809783D01*
X120169426Y-82809790D01*
X120248475Y-82946709D01*
X120248479Y-82946714D01*
X120248480Y-82946716D01*
X120360284Y-83058520D01*
X120360286Y-83058521D01*
X120360290Y-83058524D01*
X120477162Y-83125999D01*
X120497216Y-83137577D01*
X120649943Y-83178500D01*
X120649945Y-83178500D01*
X120808055Y-83178500D01*
X120808057Y-83178500D01*
X120960784Y-83137577D01*
X121097716Y-83058520D01*
X121209520Y-82946716D01*
X121288577Y-82809784D01*
X121329500Y-82657057D01*
X121329500Y-82498943D01*
X121288577Y-82346216D01*
X121258643Y-82294368D01*
X121209524Y-82209290D01*
X121209518Y-82209282D01*
X121097717Y-82097481D01*
X121097709Y-82097475D01*
X120960790Y-82018426D01*
X120960786Y-82018424D01*
X120960784Y-82018423D01*
X120808057Y-81977500D01*
X120649943Y-81977500D01*
X120497216Y-82018423D01*
X120497209Y-82018426D01*
X120360290Y-82097475D01*
X120360282Y-82097481D01*
X120248481Y-82209282D01*
X120248475Y-82209290D01*
X120169426Y-82346209D01*
X120169423Y-82346216D01*
X120128500Y-82498943D01*
X111512500Y-82498943D01*
X111512500Y-82446443D01*
X111471577Y-82293716D01*
X111422831Y-82209284D01*
X111392524Y-82156790D01*
X111392518Y-82156782D01*
X111280717Y-82044981D01*
X111280709Y-82044975D01*
X111143790Y-81965926D01*
X111143786Y-81965924D01*
X111143784Y-81965923D01*
X110991057Y-81925000D01*
X110832943Y-81925000D01*
X110680216Y-81965923D01*
X110680215Y-81965923D01*
X110573999Y-82027246D01*
X110506098Y-82043717D01*
X110450001Y-82027246D01*
X110343784Y-81965923D01*
X110290348Y-81951605D01*
X110191057Y-81925000D01*
X110032943Y-81925000D01*
X109880216Y-81965923D01*
X109880209Y-81965926D01*
X109743290Y-82044975D01*
X109743282Y-82044981D01*
X109631481Y-82156782D01*
X109631475Y-82156790D01*
X109552426Y-82293709D01*
X109552423Y-82293716D01*
X109511500Y-82446443D01*
X95193729Y-82446443D01*
X95196493Y-82441655D01*
X95234218Y-82376316D01*
X95247637Y-82353072D01*
X95253577Y-82342784D01*
X95294500Y-82190057D01*
X95294500Y-82031943D01*
X95253577Y-81879216D01*
X95209166Y-81802293D01*
X95174524Y-81742290D01*
X95174518Y-81742282D01*
X95062717Y-81630481D01*
X95062709Y-81630475D01*
X94925790Y-81551426D01*
X94925786Y-81551424D01*
X94925784Y-81551423D01*
X94773057Y-81510500D01*
X94614943Y-81510500D01*
X94614941Y-81510500D01*
X94606887Y-81511561D01*
X94606581Y-81509238D01*
X94548734Y-81507856D01*
X94490874Y-81468688D01*
X94463376Y-81404458D01*
X94462500Y-81389747D01*
X94462500Y-81335689D01*
X94462500Y-81335687D01*
X94421577Y-81182960D01*
X94409516Y-81162069D01*
X94342524Y-81046034D01*
X94342518Y-81046026D01*
X94230717Y-80934225D01*
X94230709Y-80934219D01*
X94093790Y-80855170D01*
X94093786Y-80855168D01*
X94093784Y-80855167D01*
X93941057Y-80814244D01*
X93782943Y-80814244D01*
X93630216Y-80855167D01*
X93630209Y-80855170D01*
X93493290Y-80934219D01*
X93493282Y-80934225D01*
X93381481Y-81046026D01*
X93381475Y-81046034D01*
X93302426Y-81182953D01*
X93302423Y-81182960D01*
X93261500Y-81335687D01*
X92271583Y-81335687D01*
X92232242Y-81312974D01*
X92232238Y-81312972D01*
X92232236Y-81312971D01*
X92079509Y-81272048D01*
X91921395Y-81272048D01*
X91768668Y-81312971D01*
X91768661Y-81312974D01*
X91631742Y-81392023D01*
X91631734Y-81392029D01*
X91519933Y-81503830D01*
X91519927Y-81503838D01*
X91440878Y-81640757D01*
X91440875Y-81640764D01*
X91399952Y-81793491D01*
X74311727Y-81793491D01*
X74234716Y-81716480D01*
X74234714Y-81716479D01*
X74234709Y-81716475D01*
X74097790Y-81637426D01*
X74097786Y-81637424D01*
X74097784Y-81637423D01*
X73945057Y-81596500D01*
X73786943Y-81596500D01*
X73634216Y-81637423D01*
X73634209Y-81637426D01*
X73497290Y-81716475D01*
X73497282Y-81716481D01*
X73385481Y-81828282D01*
X73385475Y-81828290D01*
X73306426Y-81965209D01*
X73306423Y-81965216D01*
X73265500Y-82117943D01*
X72350304Y-82117943D01*
X72466214Y-82051023D01*
X72578018Y-81939219D01*
X72657075Y-81802287D01*
X72697998Y-81649560D01*
X72697998Y-81491446D01*
X72657075Y-81338719D01*
X72655326Y-81335689D01*
X72578022Y-81201793D01*
X72578016Y-81201785D01*
X72466215Y-81089984D01*
X72466207Y-81089978D01*
X72329288Y-81010929D01*
X72329284Y-81010927D01*
X72329282Y-81010926D01*
X72176555Y-80970003D01*
X72018441Y-80970003D01*
X71865714Y-81010926D01*
X71865707Y-81010929D01*
X71728788Y-81089978D01*
X71728780Y-81089984D01*
X71616979Y-81201785D01*
X71616973Y-81201793D01*
X71537924Y-81338712D01*
X71537921Y-81338719D01*
X71496998Y-81491446D01*
X68506998Y-81491446D01*
X68466075Y-81338719D01*
X68464326Y-81335689D01*
X68387022Y-81201793D01*
X68387016Y-81201785D01*
X68275215Y-81089984D01*
X68275207Y-81089978D01*
X68138288Y-81010929D01*
X68138284Y-81010927D01*
X68138282Y-81010926D01*
X67985555Y-80970003D01*
X67827441Y-80970003D01*
X67674714Y-81010926D01*
X67674707Y-81010929D01*
X67537788Y-81089978D01*
X67537780Y-81089984D01*
X67499181Y-81128584D01*
X67479744Y-81139196D01*
X67463011Y-81153697D01*
X67449679Y-81155613D01*
X67437858Y-81162069D01*
X67415771Y-81160489D01*
X67393853Y-81163641D01*
X67381601Y-81158045D01*
X67368166Y-81157085D01*
X67350439Y-81143814D01*
X67330297Y-81134616D01*
X67323014Y-81123284D01*
X67312233Y-81115213D01*
X67304495Y-81094467D01*
X67292523Y-81075838D01*
X67289371Y-81053919D01*
X67287816Y-81049749D01*
X67287500Y-81040903D01*
X67287500Y-80847943D01*
X78091500Y-80847943D01*
X78091500Y-81006057D01*
X78131574Y-81155613D01*
X78132423Y-81158783D01*
X78132426Y-81158790D01*
X78211475Y-81295709D01*
X78211479Y-81295714D01*
X78211480Y-81295716D01*
X78323284Y-81407520D01*
X78323286Y-81407521D01*
X78323290Y-81407524D01*
X78414545Y-81460209D01*
X78460216Y-81486577D01*
X78612943Y-81527500D01*
X78612945Y-81527500D01*
X78771055Y-81527500D01*
X78771057Y-81527500D01*
X78923784Y-81486577D01*
X79060716Y-81407520D01*
X79172520Y-81295716D01*
X79251577Y-81158784D01*
X79292500Y-81006057D01*
X79292500Y-80847943D01*
X79251577Y-80695216D01*
X79231047Y-80659657D01*
X79172524Y-80558290D01*
X79172518Y-80558282D01*
X79060717Y-80446481D01*
X79060712Y-80446477D01*
X78993977Y-80407948D01*
X78993976Y-80407948D01*
X78923784Y-80367423D01*
X78909994Y-80363728D01*
X78771057Y-80326500D01*
X78612943Y-80326500D01*
X78460216Y-80367423D01*
X78460209Y-80367426D01*
X78323290Y-80446475D01*
X78323282Y-80446481D01*
X78211481Y-80558282D01*
X78211475Y-80558290D01*
X78132426Y-80695209D01*
X78132423Y-80695216D01*
X78091500Y-80847943D01*
X67287500Y-80847943D01*
X67287500Y-80308687D01*
X88985943Y-80308687D01*
X88985943Y-80466801D01*
X89021655Y-80600078D01*
X89026866Y-80619527D01*
X89026869Y-80619534D01*
X89105918Y-80756453D01*
X89105922Y-80756458D01*
X89105923Y-80756460D01*
X89217727Y-80868264D01*
X89217729Y-80868265D01*
X89217733Y-80868268D01*
X89331965Y-80934219D01*
X89354659Y-80947321D01*
X89507386Y-80988244D01*
X89507388Y-80988244D01*
X89665498Y-80988244D01*
X89665500Y-80988244D01*
X89818227Y-80947321D01*
X89955159Y-80868264D01*
X90066963Y-80756460D01*
X90146020Y-80619528D01*
X90186943Y-80466801D01*
X90186943Y-80308687D01*
X90146020Y-80155960D01*
X90139227Y-80144194D01*
X90062900Y-80011989D01*
X90064886Y-80010842D01*
X90056898Y-79989426D01*
X90044550Y-79957491D01*
X90044705Y-79956734D01*
X90044435Y-79956011D01*
X90049671Y-79931943D01*
X95211500Y-79931943D01*
X95211500Y-80090057D01*
X95244704Y-80213974D01*
X95252423Y-80242783D01*
X95252426Y-80242790D01*
X95331475Y-80379709D01*
X95331479Y-80379714D01*
X95331480Y-80379716D01*
X95443284Y-80491520D01*
X95443286Y-80491521D01*
X95443290Y-80491524D01*
X95558934Y-80558290D01*
X95580216Y-80570577D01*
X95732943Y-80611500D01*
X95732945Y-80611500D01*
X95891055Y-80611500D01*
X95891057Y-80611500D01*
X96043784Y-80570577D01*
X96180716Y-80491520D01*
X96238381Y-80433855D01*
X102146843Y-80433855D01*
X102146843Y-80591969D01*
X102181325Y-80720655D01*
X102187766Y-80744695D01*
X102187769Y-80744702D01*
X102266818Y-80881621D01*
X102266822Y-80881626D01*
X102266823Y-80881628D01*
X102378627Y-80993432D01*
X102378629Y-80993433D01*
X102378633Y-80993436D01*
X102515552Y-81072485D01*
X102515559Y-81072489D01*
X102626223Y-81102141D01*
X102685882Y-81138505D01*
X102716411Y-81201352D01*
X102708116Y-81270727D01*
X102701516Y-81283914D01*
X102673052Y-81333215D01*
X102673052Y-81333216D01*
X102632129Y-81485943D01*
X102632129Y-81644057D01*
X102666159Y-81771057D01*
X102673052Y-81796783D01*
X102673055Y-81796790D01*
X102752104Y-81933709D01*
X102752108Y-81933714D01*
X102752109Y-81933716D01*
X102863913Y-82045520D01*
X102863915Y-82045521D01*
X102863919Y-82045524D01*
X102978193Y-82111499D01*
X103000845Y-82124577D01*
X103153572Y-82165500D01*
X103153574Y-82165500D01*
X103311684Y-82165500D01*
X103311686Y-82165500D01*
X103464413Y-82124577D01*
X103601345Y-82045520D01*
X103713149Y-81933716D01*
X103792206Y-81796784D01*
X103833129Y-81644057D01*
X103833129Y-81612943D01*
X105807129Y-81612943D01*
X105807129Y-81771057D01*
X105836245Y-81879717D01*
X105848052Y-81923783D01*
X105848055Y-81923790D01*
X105927104Y-82060709D01*
X105927108Y-82060714D01*
X105927109Y-82060716D01*
X106038913Y-82172520D01*
X106038915Y-82172521D01*
X106038919Y-82172524D01*
X106102601Y-82209290D01*
X106175845Y-82251577D01*
X106328572Y-82292500D01*
X106328574Y-82292500D01*
X106486684Y-82292500D01*
X106486686Y-82292500D01*
X106639413Y-82251577D01*
X106776345Y-82172520D01*
X106888149Y-82060716D01*
X106967206Y-81923784D01*
X107008129Y-81771057D01*
X107008129Y-81612943D01*
X106967206Y-81460216D01*
X106950883Y-81431943D01*
X116061500Y-81431943D01*
X116061500Y-81590057D01*
X116102289Y-81742282D01*
X116102423Y-81742783D01*
X116102426Y-81742790D01*
X116181475Y-81879709D01*
X116181479Y-81879714D01*
X116181480Y-81879716D01*
X116293284Y-81991520D01*
X116293286Y-81991521D01*
X116293290Y-81991524D01*
X116396347Y-82051023D01*
X116430216Y-82070577D01*
X116582943Y-82111500D01*
X116582945Y-82111500D01*
X116741055Y-82111500D01*
X116741057Y-82111500D01*
X116893784Y-82070577D01*
X117030716Y-81991520D01*
X117142520Y-81879716D01*
X117221577Y-81742784D01*
X117262500Y-81590057D01*
X117262500Y-81431943D01*
X117221577Y-81279216D01*
X117182467Y-81211475D01*
X117142524Y-81142290D01*
X117142518Y-81142282D01*
X117030717Y-81030481D01*
X117030709Y-81030475D01*
X116893790Y-80951426D01*
X116893786Y-80951424D01*
X116893784Y-80951423D01*
X116888100Y-80949900D01*
X122911500Y-80949900D01*
X122911500Y-82936091D01*
X122922123Y-83024562D01*
X122977639Y-83165342D01*
X122977640Y-83165344D01*
X123069077Y-83285922D01*
X123131908Y-83333568D01*
X123189658Y-83377361D01*
X123330436Y-83432876D01*
X123418901Y-83443500D01*
X125405098Y-83443499D01*
X125493564Y-83432876D01*
X125634342Y-83377361D01*
X125754922Y-83285922D01*
X125846361Y-83165342D01*
X125901876Y-83024564D01*
X125912500Y-82936099D01*
X125912499Y-81824902D01*
X126411500Y-81824902D01*
X126411500Y-82061097D01*
X126448446Y-82294368D01*
X126521433Y-82518996D01*
X126598666Y-82670573D01*
X126628657Y-82729433D01*
X126767483Y-82920510D01*
X126934490Y-83087517D01*
X127125567Y-83226343D01*
X127224991Y-83277002D01*
X127336003Y-83333566D01*
X127336005Y-83333566D01*
X127336008Y-83333568D01*
X127456412Y-83372689D01*
X127560631Y-83406553D01*
X127793903Y-83443500D01*
X127793908Y-83443500D01*
X128030097Y-83443500D01*
X128263368Y-83406553D01*
X128353211Y-83377361D01*
X128487992Y-83333568D01*
X128698433Y-83226343D01*
X128889510Y-83087517D01*
X129056517Y-82920510D01*
X129195343Y-82729433D01*
X129302568Y-82518992D01*
X129375553Y-82294368D01*
X129378453Y-82276056D01*
X129412500Y-82061097D01*
X129412500Y-81824902D01*
X129375553Y-81591631D01*
X129315731Y-81407520D01*
X129302568Y-81367008D01*
X129302566Y-81367005D01*
X129302566Y-81367003D01*
X129223323Y-81211481D01*
X129195343Y-81156567D01*
X129056517Y-80965490D01*
X128889510Y-80798483D01*
X128698433Y-80659657D01*
X128487996Y-80552433D01*
X128263368Y-80479446D01*
X128030097Y-80442500D01*
X128030092Y-80442500D01*
X127793908Y-80442500D01*
X127793903Y-80442500D01*
X127560631Y-80479446D01*
X127336003Y-80552433D01*
X127125566Y-80659657D01*
X127035892Y-80724810D01*
X126934490Y-80798483D01*
X126934488Y-80798485D01*
X126934487Y-80798485D01*
X126767485Y-80965487D01*
X126767485Y-80965488D01*
X126767483Y-80965490D01*
X126720265Y-81030480D01*
X126628657Y-81156566D01*
X126521433Y-81367003D01*
X126448446Y-81591631D01*
X126411500Y-81824902D01*
X125912499Y-81824902D01*
X125912499Y-80949902D01*
X125901876Y-80861436D01*
X125846361Y-80720658D01*
X125827068Y-80695216D01*
X125754922Y-80600077D01*
X125634344Y-80508640D01*
X125634342Y-80508639D01*
X125493564Y-80453124D01*
X125493561Y-80453123D01*
X125405099Y-80442500D01*
X123418908Y-80442500D01*
X123330437Y-80453123D01*
X123189657Y-80508639D01*
X123189655Y-80508640D01*
X123069077Y-80600077D01*
X122977640Y-80720655D01*
X122977639Y-80720658D01*
X122924597Y-80855167D01*
X122922124Y-80861437D01*
X122922123Y-80861438D01*
X122911500Y-80949900D01*
X116888100Y-80949900D01*
X116741057Y-80910500D01*
X116582943Y-80910500D01*
X116430216Y-80951423D01*
X116430209Y-80951426D01*
X116293290Y-81030475D01*
X116293282Y-81030481D01*
X116181481Y-81142282D01*
X116181475Y-81142290D01*
X116102426Y-81279209D01*
X116102423Y-81279216D01*
X116061500Y-81431943D01*
X106950883Y-81431943D01*
X106936781Y-81407518D01*
X106888153Y-81323290D01*
X106888147Y-81323282D01*
X106776346Y-81211481D01*
X106776338Y-81211475D01*
X106639419Y-81132426D01*
X106639415Y-81132424D01*
X106639413Y-81132423D01*
X106486686Y-81091500D01*
X106328572Y-81091500D01*
X106175845Y-81132423D01*
X106175838Y-81132426D01*
X106038919Y-81211475D01*
X106038911Y-81211481D01*
X105927110Y-81323282D01*
X105927104Y-81323290D01*
X105848055Y-81460209D01*
X105848052Y-81460216D01*
X105807129Y-81612943D01*
X103833129Y-81612943D01*
X103833129Y-81485943D01*
X103792206Y-81333216D01*
X103763742Y-81283914D01*
X103713153Y-81196290D01*
X103713147Y-81196282D01*
X103601346Y-81084481D01*
X103601338Y-81084475D01*
X103464419Y-81005426D01*
X103464414Y-81005423D01*
X103400296Y-80988243D01*
X103353748Y-80975770D01*
X103294089Y-80939406D01*
X103263560Y-80876559D01*
X103271855Y-80807183D01*
X103278446Y-80794014D01*
X103306920Y-80744696D01*
X103347843Y-80591969D01*
X103347843Y-80433855D01*
X103306920Y-80281128D01*
X103267554Y-80212943D01*
X103618500Y-80212943D01*
X103618500Y-80371057D01*
X103650778Y-80491518D01*
X103659423Y-80523783D01*
X103659426Y-80523790D01*
X103738475Y-80660709D01*
X103738479Y-80660714D01*
X103738480Y-80660716D01*
X103850284Y-80772520D01*
X103850286Y-80772521D01*
X103850290Y-80772524D01*
X103980922Y-80847943D01*
X103987216Y-80851577D01*
X104139943Y-80892500D01*
X104139945Y-80892500D01*
X104298055Y-80892500D01*
X104298057Y-80892500D01*
X104450784Y-80851577D01*
X104587716Y-80772520D01*
X104699520Y-80660716D01*
X104778577Y-80523784D01*
X104819500Y-80371057D01*
X104819500Y-80212943D01*
X104778577Y-80060216D01*
X104762510Y-80032387D01*
X104699524Y-79923290D01*
X104699518Y-79923282D01*
X104587717Y-79811481D01*
X104587709Y-79811475D01*
X104450790Y-79732426D01*
X104450786Y-79732424D01*
X104450784Y-79732423D01*
X104298057Y-79691500D01*
X104139943Y-79691500D01*
X103987216Y-79732423D01*
X103987209Y-79732426D01*
X103850290Y-79811475D01*
X103850282Y-79811481D01*
X103738481Y-79923282D01*
X103738475Y-79923290D01*
X103659426Y-80060209D01*
X103659423Y-80060216D01*
X103618500Y-80212943D01*
X103267554Y-80212943D01*
X103227863Y-80144196D01*
X103116059Y-80032392D01*
X103116058Y-80032391D01*
X103116055Y-80032389D01*
X102997777Y-79964102D01*
X102997775Y-79964101D01*
X102979127Y-79953335D01*
X102867623Y-79923457D01*
X102867605Y-79923452D01*
X102826401Y-79912412D01*
X102826400Y-79912412D01*
X102668286Y-79912412D01*
X102515559Y-79953335D01*
X102515552Y-79953338D01*
X102378633Y-80032387D01*
X102378625Y-80032393D01*
X102266824Y-80144194D01*
X102266818Y-80144202D01*
X102187769Y-80281121D01*
X102187766Y-80281128D01*
X102146843Y-80433855D01*
X96238381Y-80433855D01*
X96292520Y-80379716D01*
X96299616Y-80367426D01*
X96301751Y-80363728D01*
X96349439Y-80281128D01*
X96371577Y-80242784D01*
X96412500Y-80090057D01*
X96412500Y-79931943D01*
X96371577Y-79779216D01*
X96356441Y-79752999D01*
X96292524Y-79642290D01*
X96292518Y-79642282D01*
X96180717Y-79530481D01*
X96180709Y-79530475D01*
X96043790Y-79451426D01*
X96043786Y-79451424D01*
X96043784Y-79451423D01*
X95891057Y-79410500D01*
X95732943Y-79410500D01*
X95580216Y-79451423D01*
X95580209Y-79451426D01*
X95443290Y-79530475D01*
X95443282Y-79530481D01*
X95331481Y-79642282D01*
X95331475Y-79642290D01*
X95252426Y-79779209D01*
X95252423Y-79779216D01*
X95211500Y-79931943D01*
X90049671Y-79931943D01*
X90051708Y-79922577D01*
X90058583Y-79889045D01*
X90059177Y-79888240D01*
X90059287Y-79887738D01*
X90080438Y-79859484D01*
X90082156Y-79857765D01*
X90082159Y-79857764D01*
X90193963Y-79745960D01*
X90273020Y-79609028D01*
X90313943Y-79456301D01*
X90313943Y-79298187D01*
X90273020Y-79145460D01*
X90224954Y-79062206D01*
X102602176Y-79062206D01*
X102602176Y-79220320D01*
X102641881Y-79368499D01*
X102643099Y-79373046D01*
X102643102Y-79373053D01*
X102722151Y-79509972D01*
X102722155Y-79509977D01*
X102722156Y-79509979D01*
X102833960Y-79621783D01*
X102970892Y-79700840D01*
X103123619Y-79741763D01*
X103123622Y-79741763D01*
X103281731Y-79741763D01*
X103281733Y-79741763D01*
X103434460Y-79700840D01*
X103571392Y-79621783D01*
X103683196Y-79509979D01*
X103705700Y-79471000D01*
X109821443Y-79471000D01*
X109821443Y-79629114D01*
X109853701Y-79749500D01*
X109862366Y-79781840D01*
X109862369Y-79781847D01*
X109941418Y-79918766D01*
X109941422Y-79918771D01*
X109941423Y-79918773D01*
X110053227Y-80030577D01*
X110053229Y-80030578D01*
X110053233Y-80030581D01*
X110156250Y-80090057D01*
X110190159Y-80109634D01*
X110342886Y-80150557D01*
X110342888Y-80150557D01*
X110500998Y-80150557D01*
X110501000Y-80150557D01*
X110653727Y-80109634D01*
X110699650Y-80083120D01*
X110767547Y-80066648D01*
X110833574Y-80089500D01*
X110876765Y-80144421D01*
X110883407Y-80213974D01*
X110854560Y-80269930D01*
X110855426Y-80270594D01*
X110851747Y-80275388D01*
X110851392Y-80276077D01*
X110850581Y-80276907D01*
X110850475Y-80277045D01*
X110771426Y-80413964D01*
X110771423Y-80413971D01*
X110730500Y-80566698D01*
X110730500Y-80724812D01*
X110771161Y-80876559D01*
X110771423Y-80877538D01*
X110771426Y-80877545D01*
X110850475Y-81014464D01*
X110850479Y-81014469D01*
X110850480Y-81014471D01*
X110962284Y-81126275D01*
X110962286Y-81126276D01*
X110962290Y-81126279D01*
X111092322Y-81201352D01*
X111099216Y-81205332D01*
X111251943Y-81246255D01*
X111251945Y-81246255D01*
X111410055Y-81246255D01*
X111410057Y-81246255D01*
X111562784Y-81205332D01*
X111699716Y-81126275D01*
X111811520Y-81014471D01*
X111890577Y-80877539D01*
X111931500Y-80724812D01*
X111931500Y-80566698D01*
X111890577Y-80413971D01*
X111865800Y-80371055D01*
X111811523Y-80277043D01*
X111811519Y-80277038D01*
X111747424Y-80212943D01*
X112762500Y-80212943D01*
X112762500Y-80371057D01*
X112794778Y-80491518D01*
X112803423Y-80523783D01*
X112803426Y-80523790D01*
X112882475Y-80660709D01*
X112882479Y-80660714D01*
X112882480Y-80660716D01*
X112994284Y-80772520D01*
X112994286Y-80772521D01*
X112994290Y-80772524D01*
X113124922Y-80847943D01*
X113131216Y-80851577D01*
X113283943Y-80892500D01*
X113283945Y-80892500D01*
X113442055Y-80892500D01*
X113442057Y-80892500D01*
X113594784Y-80851577D01*
X113731716Y-80772520D01*
X113843520Y-80660716D01*
X113922577Y-80523784D01*
X113963500Y-80371057D01*
X113963500Y-80212943D01*
X113922577Y-80060216D01*
X113906510Y-80032387D01*
X113843524Y-79923290D01*
X113843518Y-79923282D01*
X113731717Y-79811481D01*
X113731709Y-79811475D01*
X113594790Y-79732426D01*
X113594786Y-79732424D01*
X113594784Y-79732423D01*
X113442057Y-79691500D01*
X113283943Y-79691500D01*
X113131216Y-79732423D01*
X113131209Y-79732426D01*
X112994290Y-79811475D01*
X112994282Y-79811481D01*
X112882481Y-79923282D01*
X112882475Y-79923290D01*
X112803426Y-80060209D01*
X112803423Y-80060216D01*
X112762500Y-80212943D01*
X111747424Y-80212943D01*
X111699717Y-80165236D01*
X111699709Y-80165230D01*
X111562790Y-80086181D01*
X111562786Y-80086179D01*
X111562784Y-80086178D01*
X111410057Y-80045255D01*
X111251943Y-80045255D01*
X111099216Y-80086178D01*
X111099211Y-80086180D01*
X111053292Y-80112691D01*
X110985392Y-80129162D01*
X110919365Y-80106309D01*
X110876176Y-80051387D01*
X110869535Y-79981834D01*
X110898381Y-79925881D01*
X110897517Y-79925218D01*
X110901194Y-79920426D01*
X110901552Y-79919732D01*
X110902368Y-79918895D01*
X110902457Y-79918778D01*
X110902463Y-79918773D01*
X110981520Y-79781841D01*
X111022443Y-79629114D01*
X111022443Y-79471000D01*
X110981520Y-79318273D01*
X110969925Y-79298189D01*
X110902467Y-79181347D01*
X110902461Y-79181339D01*
X110790660Y-79069538D01*
X110790652Y-79069532D01*
X110653733Y-78990483D01*
X110653729Y-78990481D01*
X110653727Y-78990480D01*
X110501000Y-78949557D01*
X110342886Y-78949557D01*
X110190159Y-78990480D01*
X110190152Y-78990483D01*
X110053233Y-79069532D01*
X110053225Y-79069538D01*
X109941424Y-79181339D01*
X109941418Y-79181347D01*
X109862369Y-79318266D01*
X109862366Y-79318273D01*
X109821443Y-79471000D01*
X103705700Y-79471000D01*
X103762253Y-79373047D01*
X103803176Y-79220320D01*
X103803176Y-79062206D01*
X103762253Y-78909479D01*
X103747008Y-78883073D01*
X103683200Y-78772553D01*
X103683194Y-78772545D01*
X103571393Y-78660744D01*
X103571385Y-78660738D01*
X103434466Y-78581689D01*
X103434462Y-78581687D01*
X103434460Y-78581686D01*
X103281733Y-78540763D01*
X103123619Y-78540763D01*
X102970892Y-78581686D01*
X102970885Y-78581689D01*
X102833966Y-78660738D01*
X102833958Y-78660744D01*
X102722157Y-78772545D01*
X102722151Y-78772553D01*
X102643102Y-78909472D01*
X102643099Y-78909479D01*
X102602176Y-79062206D01*
X90224954Y-79062206D01*
X90219299Y-79052412D01*
X90202827Y-78984514D01*
X90225680Y-78918487D01*
X90264686Y-78883028D01*
X90336159Y-78841764D01*
X90447963Y-78729960D01*
X90527020Y-78593028D01*
X90567943Y-78440301D01*
X90567943Y-78282187D01*
X90527020Y-78129460D01*
X90511576Y-78102710D01*
X90447967Y-77992534D01*
X90447961Y-77992526D01*
X90336160Y-77880725D01*
X90336152Y-77880719D01*
X90199233Y-77801670D01*
X90199229Y-77801668D01*
X90199227Y-77801667D01*
X90046500Y-77760744D01*
X89888386Y-77760744D01*
X89735659Y-77801667D01*
X89735652Y-77801670D01*
X89598733Y-77880719D01*
X89598725Y-77880725D01*
X89486924Y-77992526D01*
X89486918Y-77992534D01*
X89407869Y-78129453D01*
X89407866Y-78129460D01*
X89366943Y-78282187D01*
X89366943Y-78440301D01*
X89400511Y-78565576D01*
X89407866Y-78593027D01*
X89407866Y-78593028D01*
X89461585Y-78686074D01*
X89478056Y-78753975D01*
X89455204Y-78820001D01*
X89416197Y-78855460D01*
X89344730Y-78896721D01*
X89344725Y-78896725D01*
X89232924Y-79008526D01*
X89232918Y-79008534D01*
X89153869Y-79145453D01*
X89153866Y-79145460D01*
X89112943Y-79298187D01*
X89112943Y-79456301D01*
X89132820Y-79530481D01*
X89153866Y-79609027D01*
X89153869Y-79609034D01*
X89236986Y-79752999D01*
X89234760Y-79754283D01*
X89255336Y-79807503D01*
X89241299Y-79875948D01*
X89219448Y-79905503D01*
X89105921Y-80019030D01*
X89105918Y-80019034D01*
X89026869Y-80155953D01*
X89026866Y-80155960D01*
X88985943Y-80308687D01*
X67287500Y-80308687D01*
X67287500Y-79069943D01*
X76059500Y-79069943D01*
X76059500Y-79228057D01*
X76098352Y-79373053D01*
X76100423Y-79380783D01*
X76100426Y-79380790D01*
X76179475Y-79517709D01*
X76179479Y-79517714D01*
X76179480Y-79517716D01*
X76291284Y-79629520D01*
X76291286Y-79629521D01*
X76291290Y-79629524D01*
X76313402Y-79642290D01*
X76428216Y-79708577D01*
X76580943Y-79749500D01*
X76580945Y-79749500D01*
X76739055Y-79749500D01*
X76739057Y-79749500D01*
X76891784Y-79708577D01*
X77028716Y-79629520D01*
X77140520Y-79517716D01*
X77219577Y-79380784D01*
X77237558Y-79313675D01*
X77273921Y-79254018D01*
X77336768Y-79223488D01*
X77406144Y-79231782D01*
X77432821Y-79247397D01*
X77434281Y-79248517D01*
X77434284Y-79248520D01*
X77434287Y-79248521D01*
X77434290Y-79248524D01*
X77571209Y-79327573D01*
X77571216Y-79327577D01*
X77723943Y-79368500D01*
X77723945Y-79368500D01*
X77882055Y-79368500D01*
X77882057Y-79368500D01*
X78034784Y-79327577D01*
X78171716Y-79248520D01*
X78283520Y-79136716D01*
X78362577Y-78999784D01*
X78403500Y-78847057D01*
X78403500Y-78688943D01*
X78362577Y-78536216D01*
X78307201Y-78440301D01*
X78283524Y-78399290D01*
X78283518Y-78399282D01*
X78171717Y-78287481D01*
X78171709Y-78287475D01*
X78034790Y-78208426D01*
X78034786Y-78208424D01*
X78034784Y-78208423D01*
X77882057Y-78167500D01*
X77723943Y-78167500D01*
X77571216Y-78208423D01*
X77571209Y-78208426D01*
X77434290Y-78287475D01*
X77434282Y-78287481D01*
X77322481Y-78399282D01*
X77322475Y-78399290D01*
X77243426Y-78536209D01*
X77243423Y-78536214D01*
X77225442Y-78603322D01*
X77189076Y-78662983D01*
X77126229Y-78693511D01*
X77056854Y-78685216D01*
X77030179Y-78669603D01*
X77028709Y-78668475D01*
X76891790Y-78589426D01*
X76891786Y-78589424D01*
X76891784Y-78589423D01*
X76739057Y-78548500D01*
X76580943Y-78548500D01*
X76428216Y-78589423D01*
X76428209Y-78589426D01*
X76291290Y-78668475D01*
X76291282Y-78668481D01*
X76179481Y-78780282D01*
X76179475Y-78780290D01*
X76100426Y-78917209D01*
X76100423Y-78917216D01*
X76059500Y-79069943D01*
X67287500Y-79069943D01*
X67287500Y-77801131D01*
X68259197Y-77801131D01*
X68259197Y-77960874D01*
X68290357Y-78117526D01*
X68290360Y-78117538D01*
X68351482Y-78265101D01*
X68351489Y-78265114D01*
X68440229Y-78397921D01*
X68440232Y-78397925D01*
X68553174Y-78510867D01*
X68553178Y-78510870D01*
X68685985Y-78599610D01*
X68685998Y-78599617D01*
X68786141Y-78641097D01*
X68833566Y-78660741D01*
X68975349Y-78688943D01*
X68990225Y-78691902D01*
X68990229Y-78691903D01*
X68990230Y-78691903D01*
X70648565Y-78691903D01*
X70648566Y-78691902D01*
X70805228Y-78660741D01*
X70952802Y-78599614D01*
X71085616Y-78510870D01*
X71198564Y-78397922D01*
X71287308Y-78265108D01*
X71348435Y-78117534D01*
X71379597Y-77960870D01*
X71379597Y-77801136D01*
X71348435Y-77644472D01*
X71343245Y-77631943D01*
X71287311Y-77496904D01*
X71287304Y-77496891D01*
X71198564Y-77364084D01*
X71198561Y-77364080D01*
X71085619Y-77251138D01*
X71085615Y-77251135D01*
X70952808Y-77162395D01*
X70952795Y-77162388D01*
X70805232Y-77101266D01*
X70805220Y-77101263D01*
X70648568Y-77070103D01*
X70648564Y-77070103D01*
X68990230Y-77070103D01*
X68990225Y-77070103D01*
X68833573Y-77101263D01*
X68833561Y-77101266D01*
X68685998Y-77162388D01*
X68685985Y-77162395D01*
X68553178Y-77251135D01*
X68553174Y-77251138D01*
X68440232Y-77364080D01*
X68440229Y-77364084D01*
X68351489Y-77496891D01*
X68351482Y-77496904D01*
X68290360Y-77644467D01*
X68290357Y-77644479D01*
X68259197Y-77801131D01*
X67287500Y-77801131D01*
X67287500Y-76021943D01*
X72122500Y-76021943D01*
X72122500Y-76180057D01*
X72142103Y-76253214D01*
X72163423Y-76332783D01*
X72163426Y-76332790D01*
X72242475Y-76469709D01*
X72242479Y-76469714D01*
X72242480Y-76469716D01*
X72354284Y-76581520D01*
X72424504Y-76622061D01*
X72472719Y-76672627D01*
X72485943Y-76741234D01*
X72469895Y-76791441D01*
X72464282Y-76801162D01*
X72464281Y-76801165D01*
X72453128Y-76842790D01*
X72429899Y-76929481D01*
X72429899Y-76929483D01*
X72429899Y-77062320D01*
X72447741Y-77128909D01*
X72447741Y-77193093D01*
X72429900Y-77259679D01*
X72429900Y-77259681D01*
X72429900Y-77392519D01*
X72464281Y-77520830D01*
X72530700Y-77635870D01*
X72624630Y-77729800D01*
X72739670Y-77796219D01*
X72867981Y-77830600D01*
X72867984Y-77830600D01*
X73000816Y-77830600D01*
X73000819Y-77830600D01*
X73129130Y-77796219D01*
X73244170Y-77729800D01*
X73249917Y-77724053D01*
X73311240Y-77690568D01*
X73380932Y-77695552D01*
X73436865Y-77737424D01*
X73461282Y-77802888D01*
X73461598Y-77811734D01*
X73461598Y-77955864D01*
X73490806Y-78102702D01*
X73490808Y-78102710D01*
X73548104Y-78241036D01*
X73548109Y-78241045D01*
X73631289Y-78365532D01*
X73631292Y-78365536D01*
X73737158Y-78471402D01*
X73737162Y-78471405D01*
X73861649Y-78554585D01*
X73861658Y-78554590D01*
X73863348Y-78555290D01*
X73999985Y-78611887D01*
X74146830Y-78641096D01*
X74146834Y-78641097D01*
X74146835Y-78641097D01*
X75591962Y-78641097D01*
X75591963Y-78641096D01*
X75738811Y-78611887D01*
X75877140Y-78554589D01*
X76001634Y-78471405D01*
X76107506Y-78365533D01*
X76190690Y-78241039D01*
X76247988Y-78102710D01*
X76277198Y-77955860D01*
X76277198Y-77806134D01*
X76268802Y-77763923D01*
X76247989Y-77659287D01*
X76241855Y-77644479D01*
X76236662Y-77631943D01*
X84461500Y-77631943D01*
X84461500Y-77790057D01*
X84498179Y-77926943D01*
X84502423Y-77942783D01*
X84502426Y-77942790D01*
X84581475Y-78079709D01*
X84581479Y-78079714D01*
X84581480Y-78079716D01*
X84693284Y-78191520D01*
X84693286Y-78191521D01*
X84693290Y-78191524D01*
X84820731Y-78265101D01*
X84830216Y-78270577D01*
X84982943Y-78311500D01*
X84982945Y-78311500D01*
X85141055Y-78311500D01*
X85141057Y-78311500D01*
X85293784Y-78270577D01*
X85430716Y-78191520D01*
X85542520Y-78079716D01*
X85621577Y-77942784D01*
X85662500Y-77790057D01*
X85662500Y-77631943D01*
X85621577Y-77479216D01*
X85545576Y-77347578D01*
X85542522Y-77342287D01*
X85542518Y-77342282D01*
X85495179Y-77294943D01*
X93615129Y-77294943D01*
X93615129Y-77453057D01*
X93634534Y-77525475D01*
X93656052Y-77605783D01*
X93656055Y-77605790D01*
X93735104Y-77742709D01*
X93735108Y-77742714D01*
X93735109Y-77742716D01*
X93846913Y-77854520D01*
X93846915Y-77854521D01*
X93846919Y-77854524D01*
X93972354Y-77926943D01*
X93983845Y-77933577D01*
X94136572Y-77974500D01*
X94136574Y-77974500D01*
X94294684Y-77974500D01*
X94294686Y-77974500D01*
X94447413Y-77933577D01*
X94458904Y-77926943D01*
X109236129Y-77926943D01*
X109236129Y-78085057D01*
X109268060Y-78204223D01*
X109277052Y-78237783D01*
X109277055Y-78237790D01*
X109356104Y-78374709D01*
X109356108Y-78374714D01*
X109356109Y-78374716D01*
X109467913Y-78486520D01*
X109467915Y-78486521D01*
X109467919Y-78486524D01*
X109561865Y-78540763D01*
X109604845Y-78565577D01*
X109757572Y-78606500D01*
X109757574Y-78606500D01*
X109915684Y-78606500D01*
X109915686Y-78606500D01*
X110068413Y-78565577D01*
X110205345Y-78486520D01*
X110317149Y-78374716D01*
X110392361Y-78244443D01*
X110921000Y-78244443D01*
X110921000Y-78402557D01*
X110960106Y-78548500D01*
X110961923Y-78555283D01*
X110961926Y-78555290D01*
X111040975Y-78692209D01*
X111040979Y-78692214D01*
X111040980Y-78692216D01*
X111152784Y-78804020D01*
X111152786Y-78804021D01*
X111152790Y-78804024D01*
X111289628Y-78883026D01*
X111289716Y-78883077D01*
X111442443Y-78924000D01*
X111442445Y-78924000D01*
X111600555Y-78924000D01*
X111600557Y-78924000D01*
X111753284Y-78883077D01*
X111890216Y-78804020D01*
X112002020Y-78692216D01*
X112007951Y-78681943D01*
X118611500Y-78681943D01*
X118611500Y-78840057D01*
X118651807Y-78990483D01*
X118652423Y-78992783D01*
X118652426Y-78992790D01*
X118731475Y-79129709D01*
X118731479Y-79129714D01*
X118731480Y-79129716D01*
X118843284Y-79241520D01*
X118843286Y-79241521D01*
X118843290Y-79241524D01*
X118855408Y-79248520D01*
X118980216Y-79320577D01*
X119132943Y-79361500D01*
X119132945Y-79361500D01*
X119291055Y-79361500D01*
X119291057Y-79361500D01*
X119443784Y-79320577D01*
X119580716Y-79241520D01*
X119630793Y-79191443D01*
X121482277Y-79191443D01*
X121482277Y-79349557D01*
X121514818Y-79471000D01*
X121523200Y-79502283D01*
X121523203Y-79502290D01*
X121602252Y-79639209D01*
X121602256Y-79639214D01*
X121602257Y-79639216D01*
X121714061Y-79751020D01*
X121714063Y-79751021D01*
X121714067Y-79751024D01*
X121818783Y-79811481D01*
X121850993Y-79830077D01*
X122003720Y-79871000D01*
X122003722Y-79871000D01*
X122161832Y-79871000D01*
X122161834Y-79871000D01*
X122314561Y-79830077D01*
X122451493Y-79751020D01*
X122563297Y-79639216D01*
X122642354Y-79502284D01*
X122683277Y-79349557D01*
X122683277Y-79191443D01*
X122642354Y-79038716D01*
X122615839Y-78992790D01*
X122563301Y-78901790D01*
X122563295Y-78901782D01*
X122451494Y-78789981D01*
X122451486Y-78789975D01*
X122314567Y-78710926D01*
X122314563Y-78710924D01*
X122314561Y-78710923D01*
X122161834Y-78670000D01*
X122003720Y-78670000D01*
X121850993Y-78710923D01*
X121850986Y-78710926D01*
X121714067Y-78789975D01*
X121714059Y-78789981D01*
X121602258Y-78901782D01*
X121602252Y-78901790D01*
X121523203Y-79038709D01*
X121523200Y-79038716D01*
X121482277Y-79191443D01*
X119630793Y-79191443D01*
X119692520Y-79129716D01*
X119771577Y-78992784D01*
X119812500Y-78840057D01*
X119812500Y-78681943D01*
X119771577Y-78529216D01*
X119738200Y-78471405D01*
X119692524Y-78392290D01*
X119692518Y-78392282D01*
X119580717Y-78280481D01*
X119580709Y-78280475D01*
X119443790Y-78201426D01*
X119443786Y-78201424D01*
X119443784Y-78201423D01*
X119291057Y-78160500D01*
X119132943Y-78160500D01*
X118980216Y-78201423D01*
X118980209Y-78201426D01*
X118843290Y-78280475D01*
X118843282Y-78280481D01*
X118731481Y-78392282D01*
X118731475Y-78392290D01*
X118652426Y-78529209D01*
X118652423Y-78529216D01*
X118611500Y-78681943D01*
X112007951Y-78681943D01*
X112048398Y-78611887D01*
X112048439Y-78611816D01*
X112075134Y-78565577D01*
X112081077Y-78555284D01*
X112122000Y-78402557D01*
X112122000Y-78244443D01*
X112081077Y-78091716D01*
X112081073Y-78091709D01*
X112002024Y-77954790D01*
X112002018Y-77954782D01*
X111890217Y-77842981D01*
X111890209Y-77842975D01*
X111753290Y-77763926D01*
X111753286Y-77763924D01*
X111753284Y-77763923D01*
X111600557Y-77723000D01*
X111442443Y-77723000D01*
X111289716Y-77763923D01*
X111289709Y-77763926D01*
X111152790Y-77842975D01*
X111152782Y-77842981D01*
X111040981Y-77954782D01*
X111040975Y-77954790D01*
X110961926Y-78091709D01*
X110961923Y-78091716D01*
X110921000Y-78244443D01*
X110392361Y-78244443D01*
X110396206Y-78237784D01*
X110437129Y-78085057D01*
X110437129Y-77926943D01*
X110396206Y-77774216D01*
X110350790Y-77695552D01*
X110317153Y-77637290D01*
X110317147Y-77637282D01*
X110205346Y-77525481D01*
X110205338Y-77525475D01*
X110068419Y-77446426D01*
X110068415Y-77446424D01*
X110068413Y-77446423D01*
X109915686Y-77405500D01*
X109757572Y-77405500D01*
X109604845Y-77446423D01*
X109604838Y-77446426D01*
X109467919Y-77525475D01*
X109467911Y-77525481D01*
X109356110Y-77637282D01*
X109356104Y-77637290D01*
X109277055Y-77774209D01*
X109277052Y-77774216D01*
X109236129Y-77926943D01*
X94458904Y-77926943D01*
X94584345Y-77854520D01*
X94696149Y-77742716D01*
X94775206Y-77605784D01*
X94816129Y-77453057D01*
X94816129Y-77294943D01*
X94775206Y-77142216D01*
X94745936Y-77091518D01*
X94696153Y-77005290D01*
X94696147Y-77005282D01*
X94584346Y-76893481D01*
X94584338Y-76893475D01*
X94447419Y-76814426D01*
X94447415Y-76814424D01*
X94447413Y-76814423D01*
X94294686Y-76773500D01*
X94136572Y-76773500D01*
X93983845Y-76814423D01*
X93983838Y-76814426D01*
X93846919Y-76893475D01*
X93846911Y-76893481D01*
X93735110Y-77005282D01*
X93735104Y-77005290D01*
X93656055Y-77142209D01*
X93656052Y-77142216D01*
X93615129Y-77294943D01*
X85495179Y-77294943D01*
X85430717Y-77230481D01*
X85430709Y-77230475D01*
X85293790Y-77151426D01*
X85293786Y-77151424D01*
X85293784Y-77151423D01*
X85141057Y-77110500D01*
X84982943Y-77110500D01*
X84830216Y-77151423D01*
X84830209Y-77151426D01*
X84693290Y-77230475D01*
X84693282Y-77230481D01*
X84581481Y-77342282D01*
X84581475Y-77342290D01*
X84502426Y-77479209D01*
X84502423Y-77479216D01*
X84461500Y-77631943D01*
X76236662Y-77631943D01*
X76190690Y-77520955D01*
X76190689Y-77520954D01*
X76190686Y-77520948D01*
X76107506Y-77396461D01*
X76107503Y-77396457D01*
X76001637Y-77290591D01*
X76001633Y-77290588D01*
X75877146Y-77207408D01*
X75877137Y-77207403D01*
X75738811Y-77150107D01*
X75738803Y-77150105D01*
X75591965Y-77120897D01*
X75591961Y-77120897D01*
X75050240Y-77120897D01*
X74983201Y-77101212D01*
X74937446Y-77048408D01*
X74935700Y-77044399D01*
X74897975Y-76953322D01*
X74820350Y-76837150D01*
X74820346Y-76837146D01*
X74820344Y-76837143D01*
X74721559Y-76738358D01*
X74721555Y-76738355D01*
X74721553Y-76738353D01*
X74605381Y-76660728D01*
X74605378Y-76660726D01*
X74605374Y-76660724D01*
X74551425Y-76638378D01*
X74551423Y-76638378D01*
X74476296Y-76607260D01*
X74476289Y-76607258D01*
X74476288Y-76607258D01*
X74476288Y-76607257D01*
X74339264Y-76580002D01*
X74339261Y-76580002D01*
X74199541Y-76580002D01*
X74199538Y-76580002D01*
X74062513Y-76607257D01*
X74062513Y-76607258D01*
X74062510Y-76607259D01*
X74062506Y-76607260D01*
X73954103Y-76652161D01*
X73933431Y-76660724D01*
X73933421Y-76660728D01*
X73849529Y-76716784D01*
X73817242Y-76738358D01*
X73817242Y-76738359D01*
X73718458Y-76837143D01*
X73718452Y-76837150D01*
X73653300Y-76934654D01*
X73599687Y-76979459D01*
X73530362Y-76988165D01*
X73467335Y-76958009D01*
X73430617Y-76898566D01*
X73430485Y-76898082D01*
X73404518Y-76801170D01*
X73404513Y-76801162D01*
X73338099Y-76686130D01*
X73240845Y-76588876D01*
X73209758Y-76531943D01*
X76313500Y-76531943D01*
X76313500Y-76690057D01*
X76352914Y-76837150D01*
X76354423Y-76842783D01*
X76354426Y-76842790D01*
X76433475Y-76979709D01*
X76433479Y-76979714D01*
X76433480Y-76979716D01*
X76545284Y-77091520D01*
X76545286Y-77091521D01*
X76545290Y-77091524D01*
X76665630Y-77161001D01*
X76682216Y-77170577D01*
X76834943Y-77211500D01*
X76834945Y-77211500D01*
X76993055Y-77211500D01*
X76993057Y-77211500D01*
X77145784Y-77170577D01*
X77282716Y-77091520D01*
X77394520Y-76979716D01*
X77473577Y-76842784D01*
X77514500Y-76690057D01*
X77514500Y-76531943D01*
X77480738Y-76405943D01*
X106569129Y-76405943D01*
X106569129Y-76564057D01*
X106605957Y-76701499D01*
X106610052Y-76716783D01*
X106610055Y-76716790D01*
X106689104Y-76853709D01*
X106689108Y-76853714D01*
X106689109Y-76853716D01*
X106800913Y-76965520D01*
X106800915Y-76965521D01*
X106800919Y-76965524D01*
X106869797Y-77005290D01*
X106937845Y-77044577D01*
X107090572Y-77085500D01*
X107090574Y-77085500D01*
X107248684Y-77085500D01*
X107248686Y-77085500D01*
X107401413Y-77044577D01*
X107537314Y-76966114D01*
X107605214Y-76949642D01*
X107661313Y-76966115D01*
X107796821Y-77044349D01*
X107797216Y-77044577D01*
X107949943Y-77085500D01*
X107949945Y-77085500D01*
X108108055Y-77085500D01*
X108108057Y-77085500D01*
X108260784Y-77044577D01*
X108397716Y-76965520D01*
X108509520Y-76853716D01*
X108588577Y-76716784D01*
X108629500Y-76564057D01*
X108629500Y-76405943D01*
X108588577Y-76253216D01*
X108582269Y-76242290D01*
X108575000Y-76229699D01*
X108967686Y-76229699D01*
X108967686Y-76387813D01*
X109006452Y-76532488D01*
X109008609Y-76540539D01*
X109008612Y-76540546D01*
X109087661Y-76677465D01*
X109087665Y-76677470D01*
X109087666Y-76677472D01*
X109199470Y-76789276D01*
X109199472Y-76789277D01*
X109199476Y-76789280D01*
X109311072Y-76853709D01*
X109336402Y-76868333D01*
X109489129Y-76909256D01*
X109489131Y-76909256D01*
X109647241Y-76909256D01*
X109647243Y-76909256D01*
X109799970Y-76868333D01*
X109936902Y-76789276D01*
X110048706Y-76677472D01*
X110127763Y-76540540D01*
X110168686Y-76387813D01*
X110168686Y-76229699D01*
X110127763Y-76076972D01*
X110127759Y-76076965D01*
X110127094Y-76075812D01*
X110095993Y-76021943D01*
X111087686Y-76021943D01*
X111087686Y-76180057D01*
X111107289Y-76253214D01*
X111128609Y-76332783D01*
X111128612Y-76332790D01*
X111207661Y-76469709D01*
X111207665Y-76469714D01*
X111207666Y-76469716D01*
X111319470Y-76581520D01*
X111319472Y-76581521D01*
X111319476Y-76581524D01*
X111417952Y-76638378D01*
X111456402Y-76660577D01*
X111609129Y-76701500D01*
X111609131Y-76701500D01*
X111767241Y-76701500D01*
X111767243Y-76701500D01*
X111919970Y-76660577D01*
X112056902Y-76581520D01*
X112168706Y-76469716D01*
X112247763Y-76332784D01*
X112288686Y-76180057D01*
X112288686Y-76021943D01*
X112247763Y-75869216D01*
X112247759Y-75869209D01*
X112220397Y-75821815D01*
X112189294Y-75767943D01*
X126097500Y-75767943D01*
X126097500Y-75926057D01*
X126137938Y-76076972D01*
X126138423Y-76078783D01*
X126138426Y-76078790D01*
X126217475Y-76215709D01*
X126217479Y-76215714D01*
X126217480Y-76215716D01*
X126329284Y-76327520D01*
X126329286Y-76327521D01*
X126329290Y-76327524D01*
X126433715Y-76387813D01*
X126466216Y-76406577D01*
X126618943Y-76447500D01*
X126618945Y-76447500D01*
X126777055Y-76447500D01*
X126777057Y-76447500D01*
X126929784Y-76406577D01*
X127066716Y-76327520D01*
X127178520Y-76215716D01*
X127257577Y-76078784D01*
X127298500Y-75926057D01*
X127298500Y-75767943D01*
X127257577Y-75615216D01*
X127257573Y-75615209D01*
X127178524Y-75478290D01*
X127178518Y-75478282D01*
X127066717Y-75366481D01*
X127066709Y-75366475D01*
X126929790Y-75287426D01*
X126929786Y-75287424D01*
X126929784Y-75287423D01*
X126777057Y-75246500D01*
X126618943Y-75246500D01*
X126466216Y-75287423D01*
X126466209Y-75287426D01*
X126329290Y-75366475D01*
X126329282Y-75366481D01*
X126217481Y-75478282D01*
X126217475Y-75478290D01*
X126138426Y-75615209D01*
X126138423Y-75615216D01*
X126097500Y-75767943D01*
X112189294Y-75767943D01*
X112168710Y-75732290D01*
X112168704Y-75732282D01*
X112056903Y-75620481D01*
X112056895Y-75620475D01*
X111919976Y-75541426D01*
X111919972Y-75541424D01*
X111919970Y-75541423D01*
X111767243Y-75500500D01*
X111609129Y-75500500D01*
X111456402Y-75541423D01*
X111456395Y-75541426D01*
X111319476Y-75620475D01*
X111319468Y-75620481D01*
X111207667Y-75732282D01*
X111207661Y-75732290D01*
X111128612Y-75869209D01*
X111128609Y-75869216D01*
X111087686Y-76021943D01*
X110095993Y-76021943D01*
X110048708Y-75940043D01*
X110048704Y-75940038D01*
X109936903Y-75828237D01*
X109936895Y-75828231D01*
X109799976Y-75749182D01*
X109799972Y-75749180D01*
X109799970Y-75749179D01*
X109647243Y-75708256D01*
X109489129Y-75708256D01*
X109336402Y-75749179D01*
X109336395Y-75749182D01*
X109199476Y-75828231D01*
X109199468Y-75828237D01*
X109087667Y-75940038D01*
X109087661Y-75940046D01*
X109008612Y-76076965D01*
X109008609Y-76076972D01*
X108967686Y-76229699D01*
X108575000Y-76229699D01*
X108509524Y-76116290D01*
X108509518Y-76116282D01*
X108397717Y-76004481D01*
X108397709Y-76004475D01*
X108260790Y-75925426D01*
X108260786Y-75925424D01*
X108260784Y-75925423D01*
X108108057Y-75884500D01*
X107949943Y-75884500D01*
X107797216Y-75925423D01*
X107797215Y-75925423D01*
X107661313Y-76003885D01*
X107593413Y-76020356D01*
X107537315Y-76003885D01*
X107401413Y-75925423D01*
X107248686Y-75884500D01*
X107090572Y-75884500D01*
X106937845Y-75925423D01*
X106937838Y-75925426D01*
X106800919Y-76004475D01*
X106800911Y-76004481D01*
X106689110Y-76116282D01*
X106689104Y-76116290D01*
X106610055Y-76253209D01*
X106610053Y-76253214D01*
X106610052Y-76253216D01*
X106569129Y-76405943D01*
X77480738Y-76405943D01*
X77473577Y-76379216D01*
X77443731Y-76327520D01*
X77394524Y-76242290D01*
X77394518Y-76242282D01*
X77282717Y-76130481D01*
X77282709Y-76130475D01*
X77145790Y-76051426D01*
X77145786Y-76051424D01*
X77145784Y-76051423D01*
X76993057Y-76010500D01*
X76834943Y-76010500D01*
X76682216Y-76051423D01*
X76682209Y-76051426D01*
X76545290Y-76130475D01*
X76545282Y-76130481D01*
X76433481Y-76242282D01*
X76433475Y-76242290D01*
X76354426Y-76379209D01*
X76354424Y-76379214D01*
X76354423Y-76379216D01*
X76313500Y-76531943D01*
X73209758Y-76531943D01*
X73207361Y-76527553D01*
X73212345Y-76457861D01*
X73221134Y-76439205D01*
X73282577Y-76332784D01*
X73323500Y-76180057D01*
X73323500Y-76021943D01*
X73282577Y-75869216D01*
X73258918Y-75828237D01*
X73203524Y-75732290D01*
X73203518Y-75732282D01*
X73091717Y-75620481D01*
X73091709Y-75620475D01*
X72954790Y-75541426D01*
X72954786Y-75541424D01*
X72954784Y-75541423D01*
X72802057Y-75500500D01*
X72643943Y-75500500D01*
X72491216Y-75541423D01*
X72491209Y-75541426D01*
X72354290Y-75620475D01*
X72354282Y-75620481D01*
X72242481Y-75732282D01*
X72242475Y-75732290D01*
X72163426Y-75869209D01*
X72163423Y-75869216D01*
X72122500Y-76021943D01*
X67287500Y-76021943D01*
X67287500Y-74116943D01*
X72503500Y-74116943D01*
X72503500Y-74275057D01*
X72538408Y-74405333D01*
X72544423Y-74427783D01*
X72544426Y-74427790D01*
X72623475Y-74564709D01*
X72623479Y-74564714D01*
X72623480Y-74564716D01*
X72735284Y-74676520D01*
X72735286Y-74676521D01*
X72735290Y-74676524D01*
X72758469Y-74689906D01*
X72872216Y-74755577D01*
X73024943Y-74796500D01*
X73024945Y-74796500D01*
X73183055Y-74796500D01*
X73183057Y-74796500D01*
X73335784Y-74755577D01*
X73472716Y-74676520D01*
X73524293Y-74624943D01*
X76059500Y-74624943D01*
X76059500Y-74783057D01*
X76098839Y-74929870D01*
X76100423Y-74935783D01*
X76100426Y-74935790D01*
X76179475Y-75072709D01*
X76179479Y-75072714D01*
X76179480Y-75072716D01*
X76291284Y-75184520D01*
X76291286Y-75184521D01*
X76291290Y-75184524D01*
X76398637Y-75246500D01*
X76428216Y-75263577D01*
X76580943Y-75304500D01*
X76580945Y-75304500D01*
X76739055Y-75304500D01*
X76739057Y-75304500D01*
X76891784Y-75263577D01*
X77028716Y-75184520D01*
X77140520Y-75072716D01*
X77219577Y-74935784D01*
X77260500Y-74783057D01*
X77260500Y-74673999D01*
X77280185Y-74606960D01*
X77332989Y-74561205D01*
X77384500Y-74549999D01*
X77501055Y-74549999D01*
X77501057Y-74549999D01*
X77653784Y-74509076D01*
X77790716Y-74430019D01*
X77902520Y-74318215D01*
X77981577Y-74181283D01*
X78022500Y-74028556D01*
X78022500Y-73870442D01*
X77981577Y-73717715D01*
X77948747Y-73660851D01*
X77902524Y-73580789D01*
X77902518Y-73580781D01*
X77790717Y-73468980D01*
X77790709Y-73468974D01*
X77731929Y-73435038D01*
X84711500Y-73435038D01*
X84711500Y-73686962D01*
X84718889Y-73733616D01*
X84750910Y-73935785D01*
X84828760Y-74175383D01*
X84891994Y-74299485D01*
X84915897Y-74346398D01*
X84943132Y-74399848D01*
X85091201Y-74603649D01*
X85091205Y-74603654D01*
X85269345Y-74781794D01*
X85269350Y-74781798D01*
X85440266Y-74905975D01*
X85473155Y-74929870D01*
X85581409Y-74985028D01*
X85697616Y-75044239D01*
X85697618Y-75044239D01*
X85697621Y-75044241D01*
X85937215Y-75122090D01*
X86186038Y-75161500D01*
X86186039Y-75161500D01*
X86437961Y-75161500D01*
X86437962Y-75161500D01*
X86686785Y-75122090D01*
X86926379Y-75044241D01*
X87150845Y-74929870D01*
X87354656Y-74781793D01*
X87532793Y-74603656D01*
X87680870Y-74399845D01*
X87708103Y-74346398D01*
X88952140Y-74346398D01*
X88952140Y-74504512D01*
X88984410Y-74624943D01*
X88993063Y-74657238D01*
X88993066Y-74657245D01*
X89072115Y-74794164D01*
X89072119Y-74794169D01*
X89072120Y-74794171D01*
X89183924Y-74905975D01*
X89183926Y-74905976D01*
X89183930Y-74905979D01*
X89320849Y-74985028D01*
X89320856Y-74985032D01*
X89473583Y-75025955D01*
X89473585Y-75025955D01*
X89631692Y-75025955D01*
X89631697Y-75025955D01*
X89635357Y-75024974D01*
X89638566Y-75025050D01*
X89639753Y-75024894D01*
X89639777Y-75025079D01*
X89705202Y-75026632D01*
X89763068Y-75065791D01*
X89765834Y-75069266D01*
X89768476Y-75072709D01*
X89768480Y-75072716D01*
X89880284Y-75184520D01*
X89880286Y-75184521D01*
X89880290Y-75184524D01*
X89987637Y-75246500D01*
X90017216Y-75263577D01*
X90169943Y-75304500D01*
X90169945Y-75304500D01*
X90328055Y-75304500D01*
X90328057Y-75304500D01*
X90480784Y-75263577D01*
X90617716Y-75184520D01*
X90729520Y-75072716D01*
X90808577Y-74935784D01*
X90849500Y-74783057D01*
X90849500Y-74624943D01*
X90808577Y-74472216D01*
X90782928Y-74427790D01*
X90729524Y-74335290D01*
X90729518Y-74335282D01*
X90617717Y-74223481D01*
X90617709Y-74223475D01*
X90480790Y-74144426D01*
X90480786Y-74144424D01*
X90480784Y-74144423D01*
X90328057Y-74103500D01*
X90169943Y-74103500D01*
X90169941Y-74103500D01*
X90167284Y-74104212D01*
X90166274Y-74104482D01*
X90163062Y-74104406D01*
X90161889Y-74104561D01*
X90161864Y-74104377D01*
X90096426Y-74102818D01*
X90038564Y-74063653D01*
X90035810Y-74060193D01*
X90033158Y-74056737D01*
X89921357Y-73944936D01*
X89921356Y-73944935D01*
X89784424Y-73865878D01*
X89631697Y-73824955D01*
X89473583Y-73824955D01*
X89320856Y-73865878D01*
X89320849Y-73865881D01*
X89183930Y-73944930D01*
X89183922Y-73944936D01*
X89072121Y-74056737D01*
X89072115Y-74056745D01*
X88993066Y-74193664D01*
X88993063Y-74193671D01*
X88952140Y-74346398D01*
X87708103Y-74346398D01*
X87795241Y-74175379D01*
X87873090Y-73935785D01*
X87899871Y-73766699D01*
X93487686Y-73766699D01*
X93487686Y-73924813D01*
X93523036Y-74056739D01*
X93528609Y-74077539D01*
X93528612Y-74077546D01*
X93607661Y-74214465D01*
X93607665Y-74214470D01*
X93607666Y-74214472D01*
X93719470Y-74326276D01*
X93719472Y-74326277D01*
X93719476Y-74326280D01*
X93849630Y-74401423D01*
X93856402Y-74405333D01*
X94009129Y-74446256D01*
X94009131Y-74446256D01*
X94167241Y-74446256D01*
X94167243Y-74446256D01*
X94319970Y-74405333D01*
X94365478Y-74379059D01*
X98065245Y-74379059D01*
X98065245Y-74537173D01*
X98102583Y-74676518D01*
X98106168Y-74689899D01*
X98106171Y-74689906D01*
X98185220Y-74826825D01*
X98185224Y-74826830D01*
X98185225Y-74826832D01*
X98297029Y-74938636D01*
X98297031Y-74938637D01*
X98297035Y-74938640D01*
X98377383Y-74985028D01*
X98433961Y-75017693D01*
X98586688Y-75058616D01*
X98586690Y-75058616D01*
X98744800Y-75058616D01*
X98744802Y-75058616D01*
X98897529Y-75017693D01*
X99034461Y-74938636D01*
X99091154Y-74881943D01*
X100461500Y-74881943D01*
X100461500Y-75040057D01*
X100494041Y-75161500D01*
X100502423Y-75192783D01*
X100502426Y-75192790D01*
X100581475Y-75329709D01*
X100581479Y-75329714D01*
X100581480Y-75329716D01*
X100693284Y-75441520D01*
X100693286Y-75441521D01*
X100693290Y-75441524D01*
X100756972Y-75478290D01*
X100830216Y-75520577D01*
X100982943Y-75561500D01*
X100982945Y-75561500D01*
X101141055Y-75561500D01*
X101141057Y-75561500D01*
X101293784Y-75520577D01*
X101430716Y-75441520D01*
X101542520Y-75329716D01*
X101621577Y-75192784D01*
X101662500Y-75040057D01*
X101662500Y-74881943D01*
X101621577Y-74729216D01*
X101580025Y-74657245D01*
X101542524Y-74592290D01*
X101542518Y-74592282D01*
X101430717Y-74480481D01*
X101430709Y-74480475D01*
X101293790Y-74401426D01*
X101293786Y-74401424D01*
X101293784Y-74401423D01*
X101141057Y-74360500D01*
X100982943Y-74360500D01*
X100830216Y-74401423D01*
X100830209Y-74401426D01*
X100693290Y-74480475D01*
X100693282Y-74480481D01*
X100581481Y-74592282D01*
X100581475Y-74592290D01*
X100502426Y-74729209D01*
X100502423Y-74729216D01*
X100461500Y-74881943D01*
X99091154Y-74881943D01*
X99146265Y-74826832D01*
X99149255Y-74821652D01*
X99154935Y-74811816D01*
X99202627Y-74729209D01*
X99225322Y-74689900D01*
X99266245Y-74537173D01*
X99266245Y-74410000D01*
X99285930Y-74342961D01*
X99338734Y-74297206D01*
X99390245Y-74286000D01*
X99501684Y-74286000D01*
X99501686Y-74286000D01*
X99654413Y-74245077D01*
X99791345Y-74166020D01*
X99903149Y-74054216D01*
X99982206Y-73917284D01*
X100023129Y-73764557D01*
X100023129Y-73660851D01*
X107054436Y-73660851D01*
X107054436Y-73818965D01*
X107088190Y-73944935D01*
X107095359Y-73971691D01*
X107095362Y-73971698D01*
X107174411Y-74108617D01*
X107174415Y-74108622D01*
X107174416Y-74108624D01*
X107286220Y-74220428D01*
X107286222Y-74220429D01*
X107286226Y-74220432D01*
X107399793Y-74285999D01*
X107423152Y-74299485D01*
X107575879Y-74340408D01*
X107575881Y-74340408D01*
X107733991Y-74340408D01*
X107733993Y-74340408D01*
X107886720Y-74299485D01*
X108023652Y-74220428D01*
X108135456Y-74108624D01*
X108214513Y-73971692D01*
X108255436Y-73818965D01*
X108255436Y-73660851D01*
X108214513Y-73508124D01*
X108172317Y-73435038D01*
X116461500Y-73435038D01*
X116461500Y-73686962D01*
X116468889Y-73733616D01*
X116500910Y-73935785D01*
X116578760Y-74175383D01*
X116641994Y-74299485D01*
X116665897Y-74346398D01*
X116693132Y-74399848D01*
X116841201Y-74603649D01*
X116841205Y-74603654D01*
X117019345Y-74781794D01*
X117019350Y-74781798D01*
X117190266Y-74905975D01*
X117223155Y-74929870D01*
X117331409Y-74985028D01*
X117447616Y-75044239D01*
X117447618Y-75044239D01*
X117447621Y-75044241D01*
X117687215Y-75122090D01*
X117936038Y-75161500D01*
X117936039Y-75161500D01*
X118187961Y-75161500D01*
X118187962Y-75161500D01*
X118436785Y-75122090D01*
X118676379Y-75044241D01*
X118900845Y-74929870D01*
X119104656Y-74781793D01*
X119282793Y-74603656D01*
X119430870Y-74399845D01*
X119545241Y-74175379D01*
X119623090Y-73935785D01*
X119662500Y-73686962D01*
X119662500Y-73435038D01*
X119623090Y-73186215D01*
X119545241Y-72946621D01*
X119545239Y-72946618D01*
X119545239Y-72946616D01*
X119484038Y-72826503D01*
X119430870Y-72722155D01*
X119350474Y-72611499D01*
X119282798Y-72518350D01*
X119282794Y-72518345D01*
X119104654Y-72340205D01*
X119104649Y-72340201D01*
X118900848Y-72192132D01*
X118900847Y-72192131D01*
X118900845Y-72192130D01*
X118802047Y-72141790D01*
X118676383Y-72077760D01*
X118436785Y-71999910D01*
X118368256Y-71989056D01*
X118187962Y-71960500D01*
X117936038Y-71960500D01*
X117811626Y-71980205D01*
X117687214Y-71999910D01*
X117447616Y-72077760D01*
X117223151Y-72192132D01*
X117019350Y-72340201D01*
X117019345Y-72340205D01*
X116841205Y-72518345D01*
X116841201Y-72518350D01*
X116693132Y-72722151D01*
X116578760Y-72946616D01*
X116502821Y-73180334D01*
X116500910Y-73186215D01*
X116461500Y-73435038D01*
X108172317Y-73435038D01*
X108153782Y-73402934D01*
X108135458Y-73371195D01*
X108135454Y-73371190D01*
X108023653Y-73259389D01*
X108023645Y-73259383D01*
X107886726Y-73180334D01*
X107886722Y-73180332D01*
X107886720Y-73180331D01*
X107733993Y-73139408D01*
X107575879Y-73139408D01*
X107423152Y-73180331D01*
X107423145Y-73180334D01*
X107286226Y-73259383D01*
X107286218Y-73259389D01*
X107174417Y-73371190D01*
X107174411Y-73371198D01*
X107095362Y-73508117D01*
X107095359Y-73508124D01*
X107054436Y-73660851D01*
X100023129Y-73660851D01*
X100023129Y-73606443D01*
X99982206Y-73453716D01*
X99952891Y-73402940D01*
X99903153Y-73316790D01*
X99903147Y-73316782D01*
X99791346Y-73204981D01*
X99791338Y-73204975D01*
X99654419Y-73125926D01*
X99654415Y-73125924D01*
X99654413Y-73125923D01*
X99501686Y-73085000D01*
X99343572Y-73085000D01*
X99190845Y-73125923D01*
X99190838Y-73125926D01*
X99053919Y-73204975D01*
X99053911Y-73204981D01*
X98942110Y-73316782D01*
X98942104Y-73316790D01*
X98863055Y-73453709D01*
X98863052Y-73453716D01*
X98822129Y-73606443D01*
X98822129Y-73733616D01*
X98802444Y-73800655D01*
X98749640Y-73846410D01*
X98698129Y-73857616D01*
X98586688Y-73857616D01*
X98433961Y-73898539D01*
X98433954Y-73898542D01*
X98297035Y-73977591D01*
X98297027Y-73977597D01*
X98185226Y-74089398D01*
X98185220Y-74089406D01*
X98106171Y-74226325D01*
X98106168Y-74226332D01*
X98065245Y-74379059D01*
X94365478Y-74379059D01*
X94456902Y-74326276D01*
X94568706Y-74214472D01*
X94647763Y-74077540D01*
X94688686Y-73924813D01*
X94688686Y-73766699D01*
X94647763Y-73613972D01*
X94628605Y-73580789D01*
X94568710Y-73477046D01*
X94568704Y-73477038D01*
X94456903Y-73365237D01*
X94456895Y-73365231D01*
X94319976Y-73286182D01*
X94319972Y-73286180D01*
X94319970Y-73286179D01*
X94167243Y-73245256D01*
X94009129Y-73245256D01*
X93856402Y-73286179D01*
X93856395Y-73286182D01*
X93719476Y-73365231D01*
X93719468Y-73365237D01*
X93607667Y-73477038D01*
X93607661Y-73477046D01*
X93528612Y-73613965D01*
X93528609Y-73613972D01*
X93487686Y-73766699D01*
X87899871Y-73766699D01*
X87912500Y-73686962D01*
X87912500Y-73435038D01*
X87873090Y-73186215D01*
X87795241Y-72946621D01*
X87795239Y-72946618D01*
X87795239Y-72946616D01*
X87767169Y-72891527D01*
X87742626Y-72843359D01*
X95902341Y-72843359D01*
X95902341Y-73001473D01*
X95917565Y-73058287D01*
X95943264Y-73154199D01*
X95943267Y-73154206D01*
X96022316Y-73291125D01*
X96022320Y-73291130D01*
X96022321Y-73291132D01*
X96134125Y-73402936D01*
X96134127Y-73402937D01*
X96134131Y-73402940D01*
X96262478Y-73477040D01*
X96271057Y-73481993D01*
X96423784Y-73522916D01*
X96423786Y-73522916D01*
X96581896Y-73522916D01*
X96581898Y-73522916D01*
X96734625Y-73481993D01*
X96871557Y-73402936D01*
X96983361Y-73291132D01*
X97062418Y-73154200D01*
X97103341Y-73001473D01*
X97103341Y-72843359D01*
X97062418Y-72690632D01*
X97062414Y-72690625D01*
X96983365Y-72553706D01*
X96983359Y-72553698D01*
X96871558Y-72441897D01*
X96871550Y-72441891D01*
X96734631Y-72362842D01*
X96734627Y-72362840D01*
X96734625Y-72362839D01*
X96581898Y-72321916D01*
X96423784Y-72321916D01*
X96271057Y-72362839D01*
X96271050Y-72362842D01*
X96134131Y-72441891D01*
X96134123Y-72441897D01*
X96022322Y-72553698D01*
X96022316Y-72553706D01*
X95943267Y-72690625D01*
X95943264Y-72690632D01*
X95902341Y-72843359D01*
X87742626Y-72843359D01*
X87680870Y-72722155D01*
X87600474Y-72611499D01*
X87532798Y-72518350D01*
X87532794Y-72518345D01*
X87354654Y-72340205D01*
X87354649Y-72340201D01*
X87150848Y-72192132D01*
X87150847Y-72192131D01*
X87150845Y-72192130D01*
X87052047Y-72141790D01*
X86926383Y-72077760D01*
X86686785Y-71999910D01*
X86618256Y-71989056D01*
X86437962Y-71960500D01*
X86186038Y-71960500D01*
X86061626Y-71980205D01*
X85937214Y-71999910D01*
X85697616Y-72077760D01*
X85473151Y-72192132D01*
X85269350Y-72340201D01*
X85269345Y-72340205D01*
X85091205Y-72518345D01*
X85091201Y-72518350D01*
X84943132Y-72722151D01*
X84828760Y-72946616D01*
X84752821Y-73180334D01*
X84750910Y-73186215D01*
X84711500Y-73435038D01*
X77731929Y-73435038D01*
X77653790Y-73389925D01*
X77653786Y-73389923D01*
X77653784Y-73389922D01*
X77501057Y-73348999D01*
X77342943Y-73348999D01*
X77190216Y-73389922D01*
X77190209Y-73389925D01*
X77053290Y-73468974D01*
X77053282Y-73468980D01*
X76941481Y-73580781D01*
X76941475Y-73580789D01*
X76862426Y-73717708D01*
X76862423Y-73717715D01*
X76821500Y-73870442D01*
X76821500Y-73979500D01*
X76801815Y-74046539D01*
X76749011Y-74092294D01*
X76697500Y-74103500D01*
X76580943Y-74103500D01*
X76428216Y-74144423D01*
X76428209Y-74144426D01*
X76291290Y-74223475D01*
X76291282Y-74223481D01*
X76179481Y-74335282D01*
X76179475Y-74335290D01*
X76100426Y-74472209D01*
X76100423Y-74472216D01*
X76059500Y-74624943D01*
X73524293Y-74624943D01*
X73584520Y-74564716D01*
X73663577Y-74427784D01*
X73704500Y-74275057D01*
X73704500Y-74116943D01*
X73663577Y-73964216D01*
X73623765Y-73895260D01*
X73607294Y-73827361D01*
X73623765Y-73771265D01*
X73688705Y-73658787D01*
X73729628Y-73506060D01*
X73729628Y-73347946D01*
X73688705Y-73195219D01*
X73680111Y-73180334D01*
X73609652Y-73058293D01*
X73609646Y-73058285D01*
X73497845Y-72946484D01*
X73497837Y-72946478D01*
X73360918Y-72867429D01*
X73360914Y-72867427D01*
X73360912Y-72867426D01*
X73208185Y-72826503D01*
X73050071Y-72826503D01*
X72897344Y-72867426D01*
X72897337Y-72867429D01*
X72760418Y-72946478D01*
X72760410Y-72946484D01*
X72648609Y-73058285D01*
X72648603Y-73058293D01*
X72569554Y-73195212D01*
X72569551Y-73195219D01*
X72528628Y-73347946D01*
X72528628Y-73506060D01*
X72555526Y-73606443D01*
X72569551Y-73658786D01*
X72569552Y-73658789D01*
X72609360Y-73727739D01*
X72625833Y-73795640D01*
X72609361Y-73851738D01*
X72544423Y-73964215D01*
X72544423Y-73964216D01*
X72503500Y-74116943D01*
X67287500Y-74116943D01*
X67287500Y-71830943D01*
X89394500Y-71830943D01*
X89394500Y-71989057D01*
X89432132Y-72129499D01*
X89435423Y-72141783D01*
X89435426Y-72141790D01*
X89514475Y-72278709D01*
X89514479Y-72278714D01*
X89514480Y-72278716D01*
X89626284Y-72390520D01*
X89626286Y-72390521D01*
X89626290Y-72390524D01*
X89763209Y-72469573D01*
X89763216Y-72469577D01*
X89915943Y-72510500D01*
X89915945Y-72510500D01*
X90074055Y-72510500D01*
X90074057Y-72510500D01*
X90226784Y-72469577D01*
X90363716Y-72390520D01*
X90475520Y-72278716D01*
X90554577Y-72141784D01*
X90595500Y-71989057D01*
X90595500Y-71830943D01*
X90554577Y-71678216D01*
X90541754Y-71656005D01*
X90475524Y-71541290D01*
X90475518Y-71541282D01*
X90384179Y-71449943D01*
X93331500Y-71449943D01*
X93331500Y-71608057D01*
X93362694Y-71724472D01*
X93372423Y-71760783D01*
X93372426Y-71760790D01*
X93451475Y-71897709D01*
X93451479Y-71897714D01*
X93451480Y-71897716D01*
X93563284Y-72009520D01*
X93563286Y-72009521D01*
X93563290Y-72009524D01*
X93689595Y-72082445D01*
X93700216Y-72088577D01*
X93852943Y-72129500D01*
X93852945Y-72129500D01*
X94011054Y-72129500D01*
X94011057Y-72129500D01*
X94098502Y-72106069D01*
X94168348Y-72107732D01*
X94226210Y-72146894D01*
X94237976Y-72163839D01*
X94291475Y-72256503D01*
X94403279Y-72368307D01*
X94403281Y-72368308D01*
X94403285Y-72368311D01*
X94446551Y-72393290D01*
X94540211Y-72447364D01*
X94692938Y-72488287D01*
X94692940Y-72488287D01*
X94851050Y-72488287D01*
X94851052Y-72488287D01*
X95003779Y-72447364D01*
X95140711Y-72368307D01*
X95252515Y-72256503D01*
X95331572Y-72119571D01*
X95372495Y-71966844D01*
X95372495Y-71808730D01*
X95331572Y-71656003D01*
X95323655Y-71642290D01*
X95309982Y-71618607D01*
X96956790Y-71618607D01*
X96956790Y-71776721D01*
X96989211Y-71897716D01*
X96997713Y-71929447D01*
X96997716Y-71929454D01*
X97076765Y-72066373D01*
X97076769Y-72066378D01*
X97076770Y-72066380D01*
X97188574Y-72178184D01*
X97188576Y-72178185D01*
X97188580Y-72178188D01*
X97300476Y-72242790D01*
X97325506Y-72257241D01*
X97478233Y-72298164D01*
X97478235Y-72298164D01*
X97636345Y-72298164D01*
X97636347Y-72298164D01*
X97789074Y-72257241D01*
X97926006Y-72178184D01*
X98021747Y-72082443D01*
X106275200Y-72082443D01*
X106275200Y-72240557D01*
X106315384Y-72390524D01*
X106316123Y-72393283D01*
X106316126Y-72393290D01*
X106395175Y-72530209D01*
X106395179Y-72530214D01*
X106395180Y-72530216D01*
X106506984Y-72642020D01*
X106506986Y-72642021D01*
X106506990Y-72642024D01*
X106591171Y-72690625D01*
X106643916Y-72721077D01*
X106796643Y-72762000D01*
X106796645Y-72762000D01*
X106954755Y-72762000D01*
X106954757Y-72762000D01*
X107107484Y-72721077D01*
X107244416Y-72642020D01*
X107356220Y-72530216D01*
X107435277Y-72393284D01*
X107476200Y-72240557D01*
X107476200Y-72082443D01*
X107435277Y-71929716D01*
X107426973Y-71915333D01*
X107356224Y-71792790D01*
X107356218Y-71792782D01*
X107244417Y-71680981D01*
X107244409Y-71680975D01*
X107107490Y-71601926D01*
X107107486Y-71601924D01*
X107107484Y-71601923D01*
X106954757Y-71561000D01*
X106796643Y-71561000D01*
X106643916Y-71601923D01*
X106643909Y-71601926D01*
X106506990Y-71680975D01*
X106506982Y-71680981D01*
X106395181Y-71792782D01*
X106395175Y-71792790D01*
X106316126Y-71929709D01*
X106316123Y-71929716D01*
X106275200Y-72082443D01*
X98021747Y-72082443D01*
X98037810Y-72066380D01*
X98116867Y-71929448D01*
X98157790Y-71776721D01*
X98157790Y-71618607D01*
X98116867Y-71465880D01*
X98038746Y-71330569D01*
X98037812Y-71328951D01*
X98037808Y-71328946D01*
X97985561Y-71276699D01*
X111634686Y-71276699D01*
X111634686Y-71434813D01*
X111673744Y-71580577D01*
X111675609Y-71587539D01*
X111675612Y-71587546D01*
X111754661Y-71724465D01*
X111754665Y-71724470D01*
X111754666Y-71724472D01*
X111866470Y-71836276D01*
X111866472Y-71836277D01*
X111866476Y-71836280D01*
X111964872Y-71893088D01*
X112003402Y-71915333D01*
X112156129Y-71956256D01*
X112156131Y-71956256D01*
X112314241Y-71956256D01*
X112314243Y-71956256D01*
X112466970Y-71915333D01*
X112603902Y-71836276D01*
X112715706Y-71724472D01*
X112794763Y-71587540D01*
X112835686Y-71434813D01*
X112835686Y-71276699D01*
X112794763Y-71123972D01*
X112788717Y-71113500D01*
X112715710Y-70987046D01*
X112715704Y-70987038D01*
X112603903Y-70875237D01*
X112603895Y-70875231D01*
X112466976Y-70796182D01*
X112466972Y-70796180D01*
X112466970Y-70796179D01*
X112314243Y-70755256D01*
X112156129Y-70755256D01*
X112003402Y-70796179D01*
X112003395Y-70796182D01*
X111866476Y-70875231D01*
X111866468Y-70875237D01*
X111754667Y-70987038D01*
X111754661Y-70987046D01*
X111675612Y-71123965D01*
X111675609Y-71123972D01*
X111634686Y-71276699D01*
X97985561Y-71276699D01*
X97926007Y-71217145D01*
X97925999Y-71217139D01*
X97789080Y-71138090D01*
X97789076Y-71138088D01*
X97789074Y-71138087D01*
X97636347Y-71097164D01*
X97478233Y-71097164D01*
X97325506Y-71138087D01*
X97325499Y-71138090D01*
X97188580Y-71217139D01*
X97188572Y-71217145D01*
X97076771Y-71328946D01*
X97076765Y-71328954D01*
X96997716Y-71465873D01*
X96997713Y-71465880D01*
X96956790Y-71618607D01*
X95309982Y-71618607D01*
X95252519Y-71519077D01*
X95252513Y-71519069D01*
X95140712Y-71407268D01*
X95140704Y-71407262D01*
X95003785Y-71328213D01*
X95003781Y-71328211D01*
X95003779Y-71328210D01*
X94851052Y-71287287D01*
X94692938Y-71287287D01*
X94605496Y-71310717D01*
X94535646Y-71309054D01*
X94477784Y-71269891D01*
X94466016Y-71252942D01*
X94412522Y-71160287D01*
X94412518Y-71160282D01*
X94300717Y-71048481D01*
X94300709Y-71048475D01*
X94163790Y-70969426D01*
X94163786Y-70969424D01*
X94163784Y-70969423D01*
X94011057Y-70928500D01*
X93852943Y-70928500D01*
X93700216Y-70969423D01*
X93700209Y-70969426D01*
X93563290Y-71048475D01*
X93563282Y-71048481D01*
X93451481Y-71160282D01*
X93451475Y-71160290D01*
X93372426Y-71297209D01*
X93372423Y-71297216D01*
X93331500Y-71449943D01*
X90384179Y-71449943D01*
X90363717Y-71429481D01*
X90363709Y-71429475D01*
X90226790Y-71350426D01*
X90226786Y-71350424D01*
X90226784Y-71350423D01*
X90074057Y-71309500D01*
X89915943Y-71309500D01*
X89763216Y-71350423D01*
X89763209Y-71350426D01*
X89626290Y-71429475D01*
X89626282Y-71429481D01*
X89514481Y-71541282D01*
X89514475Y-71541290D01*
X89435426Y-71678209D01*
X89435423Y-71678216D01*
X89394500Y-71830943D01*
X67287500Y-71830943D01*
X67287500Y-69161129D01*
X68259199Y-69161129D01*
X68259199Y-69320872D01*
X68290359Y-69477524D01*
X68290362Y-69477536D01*
X68351484Y-69625099D01*
X68351491Y-69625112D01*
X68440231Y-69757919D01*
X68440234Y-69757923D01*
X68553176Y-69870865D01*
X68553180Y-69870868D01*
X68685987Y-69959608D01*
X68686000Y-69959615D01*
X68832484Y-70020290D01*
X68833568Y-70020739D01*
X68990227Y-70051900D01*
X68990231Y-70051901D01*
X68990232Y-70051901D01*
X70648567Y-70051901D01*
X70648568Y-70051900D01*
X70805230Y-70020739D01*
X70952804Y-69959612D01*
X71060138Y-69887893D01*
X72314101Y-69887893D01*
X72314101Y-70034107D01*
X72329486Y-70091524D01*
X72351943Y-70175339D01*
X72372821Y-70211500D01*
X72425050Y-70301962D01*
X72528439Y-70405351D01*
X72605292Y-70449723D01*
X72653508Y-70500289D01*
X72666731Y-70568896D01*
X72640763Y-70633761D01*
X72630977Y-70644787D01*
X72623479Y-70652285D01*
X72623475Y-70652290D01*
X72544426Y-70789209D01*
X72544423Y-70789216D01*
X72503500Y-70941943D01*
X72503500Y-71100057D01*
X72534874Y-71217144D01*
X72544423Y-71252783D01*
X72544426Y-71252790D01*
X72623475Y-71389709D01*
X72623479Y-71389714D01*
X72623480Y-71389716D01*
X72735284Y-71501520D01*
X72735286Y-71501521D01*
X72735290Y-71501524D01*
X72804168Y-71541290D01*
X72872216Y-71580577D01*
X73024943Y-71621500D01*
X73024945Y-71621500D01*
X73183055Y-71621500D01*
X73183057Y-71621500D01*
X73335784Y-71580577D01*
X73472716Y-71501520D01*
X73584520Y-71389716D01*
X73663577Y-71252784D01*
X73704500Y-71100057D01*
X73704500Y-70941943D01*
X73663577Y-70789216D01*
X73645387Y-70757709D01*
X73584524Y-70652290D01*
X73584521Y-70652286D01*
X73584520Y-70652284D01*
X73472716Y-70540480D01*
X73472714Y-70540479D01*
X73472709Y-70540475D01*
X73357599Y-70474017D01*
X73353570Y-70469792D01*
X73348046Y-70467903D01*
X73329732Y-70444792D01*
X73309383Y-70423451D01*
X73308277Y-70417717D01*
X73304652Y-70413142D01*
X73301740Y-70383802D01*
X73296159Y-70354844D01*
X73298179Y-70347914D01*
X73297753Y-70343614D01*
X73305621Y-70322397D01*
X73309173Y-70310219D01*
X73313014Y-70302699D01*
X73313752Y-70301962D01*
X73386859Y-70175338D01*
X73396545Y-70139186D01*
X73402504Y-70127523D01*
X73417877Y-70111279D01*
X73429517Y-70092182D01*
X73441427Y-70086395D01*
X73450531Y-70076777D01*
X73472248Y-70071423D01*
X73492364Y-70061651D01*
X73505511Y-70063222D01*
X73518370Y-70060053D01*
X73539533Y-70067290D01*
X73561739Y-70069945D01*
X73571950Y-70078375D01*
X73584481Y-70082661D01*
X73598370Y-70100189D01*
X73615618Y-70114429D01*
X73627490Y-70136481D01*
X73640824Y-70168674D01*
X73640825Y-70168675D01*
X73640827Y-70168679D01*
X73718452Y-70284851D01*
X73718454Y-70284853D01*
X73718457Y-70284857D01*
X73817242Y-70383642D01*
X73817245Y-70383644D01*
X73817249Y-70383648D01*
X73933421Y-70461273D01*
X74062506Y-70514741D01*
X74062513Y-70514742D01*
X74062513Y-70514743D01*
X74199536Y-70541998D01*
X74199539Y-70541999D01*
X74199541Y-70541999D01*
X74339263Y-70541999D01*
X74339264Y-70541998D01*
X74384939Y-70532913D01*
X74476288Y-70514743D01*
X74476288Y-70514742D01*
X74476296Y-70514741D01*
X74605381Y-70461273D01*
X74721553Y-70383648D01*
X74721559Y-70383642D01*
X74721560Y-70383642D01*
X74820344Y-70284858D01*
X74820344Y-70284857D01*
X74820350Y-70284851D01*
X74897975Y-70168679D01*
X74935681Y-70077646D01*
X74955588Y-70052943D01*
X76313500Y-70052943D01*
X76313500Y-70211057D01*
X76349019Y-70343614D01*
X76354423Y-70363783D01*
X76354426Y-70363790D01*
X76433475Y-70500709D01*
X76433479Y-70500714D01*
X76433480Y-70500716D01*
X76545284Y-70612520D01*
X76545286Y-70612521D01*
X76545290Y-70612524D01*
X76614168Y-70652290D01*
X76682216Y-70691577D01*
X76834943Y-70732500D01*
X76834945Y-70732500D01*
X76993055Y-70732500D01*
X76993057Y-70732500D01*
X77145784Y-70691577D01*
X77282716Y-70612520D01*
X77394520Y-70500716D01*
X77473577Y-70363784D01*
X77514500Y-70211057D01*
X77514500Y-70052943D01*
X88251500Y-70052943D01*
X88251500Y-70211057D01*
X88287019Y-70343614D01*
X88292423Y-70363783D01*
X88292426Y-70363790D01*
X88371475Y-70500709D01*
X88371479Y-70500714D01*
X88371480Y-70500716D01*
X88483284Y-70612520D01*
X88483286Y-70612521D01*
X88483290Y-70612524D01*
X88552168Y-70652290D01*
X88620216Y-70691577D01*
X88772943Y-70732500D01*
X88772945Y-70732500D01*
X88931055Y-70732500D01*
X88931057Y-70732500D01*
X89083784Y-70691577D01*
X89220716Y-70612520D01*
X89332520Y-70500716D01*
X89411577Y-70363784D01*
X89452500Y-70211057D01*
X89452500Y-70179943D01*
X92315500Y-70179943D01*
X92315500Y-70338057D01*
X92353121Y-70478458D01*
X92356423Y-70490783D01*
X92356426Y-70490790D01*
X92435475Y-70627709D01*
X92435479Y-70627714D01*
X92435480Y-70627716D01*
X92547284Y-70739520D01*
X92547286Y-70739521D01*
X92547290Y-70739524D01*
X92645421Y-70796179D01*
X92684216Y-70818577D01*
X92836943Y-70859500D01*
X92836945Y-70859500D01*
X92995055Y-70859500D01*
X92995057Y-70859500D01*
X93147784Y-70818577D01*
X93284716Y-70739520D01*
X93396520Y-70627716D01*
X93475577Y-70490784D01*
X93516500Y-70338057D01*
X93516500Y-70179943D01*
X93475577Y-70027216D01*
X93460544Y-70001178D01*
X93396524Y-69890290D01*
X93396518Y-69890282D01*
X93284717Y-69778481D01*
X93284709Y-69778475D01*
X93147790Y-69699426D01*
X93147786Y-69699424D01*
X93147784Y-69699423D01*
X92995057Y-69658500D01*
X92836943Y-69658500D01*
X92684216Y-69699423D01*
X92684209Y-69699426D01*
X92547290Y-69778475D01*
X92547282Y-69778481D01*
X92435481Y-69890282D01*
X92435475Y-69890290D01*
X92356426Y-70027209D01*
X92356423Y-70027216D01*
X92315500Y-70179943D01*
X89452500Y-70179943D01*
X89452500Y-70052943D01*
X89411577Y-69900216D01*
X89394631Y-69870865D01*
X89332524Y-69763290D01*
X89332518Y-69763282D01*
X89220715Y-69651479D01*
X89201627Y-69640459D01*
X89175045Y-69625112D01*
X89083786Y-69572424D01*
X89083785Y-69572423D01*
X89083784Y-69572423D01*
X88932710Y-69531943D01*
X97761500Y-69531943D01*
X97761500Y-69690057D01*
X97801693Y-69840057D01*
X97802423Y-69842783D01*
X97802426Y-69842790D01*
X97881475Y-69979709D01*
X97881479Y-69979714D01*
X97881480Y-69979716D01*
X97993284Y-70091520D01*
X97993286Y-70091521D01*
X97993290Y-70091524D01*
X98130209Y-70170573D01*
X98130216Y-70170577D01*
X98282943Y-70211500D01*
X98282945Y-70211500D01*
X98441054Y-70211500D01*
X98441057Y-70211500D01*
X98539038Y-70185246D01*
X98608885Y-70186909D01*
X98666748Y-70226071D01*
X98694252Y-70290300D01*
X98695129Y-70305021D01*
X98695129Y-70341057D01*
X98731946Y-70478458D01*
X98736052Y-70493783D01*
X98736055Y-70493790D01*
X98815104Y-70630709D01*
X98815108Y-70630714D01*
X98815109Y-70630716D01*
X98926913Y-70742520D01*
X98926915Y-70742521D01*
X98926919Y-70742524D01*
X99019854Y-70796179D01*
X99063845Y-70821577D01*
X99216572Y-70862500D01*
X99216574Y-70862500D01*
X99374684Y-70862500D01*
X99374686Y-70862500D01*
X99527413Y-70821577D01*
X99664345Y-70742520D01*
X99776149Y-70630716D01*
X99855206Y-70493784D01*
X99871240Y-70433943D01*
X102094500Y-70433943D01*
X102094500Y-70592057D01*
X102134818Y-70742524D01*
X102135423Y-70744783D01*
X102135426Y-70744790D01*
X102214475Y-70881709D01*
X102214479Y-70881714D01*
X102214480Y-70881716D01*
X102326284Y-70993520D01*
X102326286Y-70993521D01*
X102326290Y-70993524D01*
X102421478Y-71048480D01*
X102463216Y-71072577D01*
X102615943Y-71113500D01*
X102615945Y-71113500D01*
X102774055Y-71113500D01*
X102774057Y-71113500D01*
X102926784Y-71072577D01*
X103063716Y-70993520D01*
X103175520Y-70881716D01*
X103254577Y-70744784D01*
X103295500Y-70592057D01*
X103295500Y-70433943D01*
X103262274Y-70309943D01*
X105426129Y-70309943D01*
X105426129Y-70468057D01*
X105459355Y-70592056D01*
X105467052Y-70620783D01*
X105467055Y-70620790D01*
X105546104Y-70757709D01*
X105546108Y-70757714D01*
X105546109Y-70757716D01*
X105657913Y-70869520D01*
X105657915Y-70869521D01*
X105657919Y-70869524D01*
X105760070Y-70928500D01*
X105794845Y-70948577D01*
X105947572Y-70989500D01*
X105947574Y-70989500D01*
X106105684Y-70989500D01*
X106105686Y-70989500D01*
X106258413Y-70948577D01*
X106395345Y-70869520D01*
X106507149Y-70757716D01*
X106586206Y-70620784D01*
X106627129Y-70468057D01*
X106627129Y-70309943D01*
X106586206Y-70157216D01*
X106569063Y-70127523D01*
X106557108Y-70106815D01*
X106526005Y-70052943D01*
X108190500Y-70052943D01*
X108190500Y-70211057D01*
X108226019Y-70343614D01*
X108231423Y-70363783D01*
X108231426Y-70363790D01*
X108310475Y-70500709D01*
X108310479Y-70500714D01*
X108310480Y-70500716D01*
X108422284Y-70612520D01*
X108422286Y-70612521D01*
X108422290Y-70612524D01*
X108491168Y-70652290D01*
X108559216Y-70691577D01*
X108711943Y-70732500D01*
X108711945Y-70732500D01*
X108870055Y-70732500D01*
X108870057Y-70732500D01*
X109022784Y-70691577D01*
X109159716Y-70612520D01*
X109271520Y-70500716D01*
X109350577Y-70363784D01*
X109363193Y-70316699D01*
X113237686Y-70316699D01*
X113237686Y-70474813D01*
X113276801Y-70620790D01*
X113278609Y-70627539D01*
X113278612Y-70627546D01*
X113357661Y-70764465D01*
X113357665Y-70764470D01*
X113357666Y-70764472D01*
X113469470Y-70876276D01*
X113469472Y-70876277D01*
X113469476Y-70876280D01*
X113583213Y-70941945D01*
X113606402Y-70955333D01*
X113759129Y-70996256D01*
X113759131Y-70996256D01*
X113917241Y-70996256D01*
X113917243Y-70996256D01*
X114069970Y-70955333D01*
X114206902Y-70876276D01*
X114318706Y-70764472D01*
X114397763Y-70627540D01*
X114438686Y-70474813D01*
X114438686Y-70316699D01*
X114397763Y-70163972D01*
X114397759Y-70163965D01*
X114318710Y-70027046D01*
X114318704Y-70027038D01*
X114206903Y-69915237D01*
X114206895Y-69915231D01*
X114069976Y-69836182D01*
X114069972Y-69836180D01*
X114069970Y-69836179D01*
X113917243Y-69795256D01*
X113759129Y-69795256D01*
X113606402Y-69836179D01*
X113606395Y-69836182D01*
X113469476Y-69915231D01*
X113469468Y-69915237D01*
X113357667Y-70027038D01*
X113357661Y-70027046D01*
X113278612Y-70163965D01*
X113278609Y-70163972D01*
X113237686Y-70316699D01*
X109363193Y-70316699D01*
X109391500Y-70211057D01*
X109391500Y-70052943D01*
X109350577Y-69900216D01*
X109333631Y-69870865D01*
X109271524Y-69763290D01*
X109271518Y-69763282D01*
X109159717Y-69651481D01*
X109159709Y-69651475D01*
X109022790Y-69572426D01*
X109022786Y-69572424D01*
X109022784Y-69572423D01*
X108870057Y-69531500D01*
X108711943Y-69531500D01*
X108559216Y-69572423D01*
X108559209Y-69572426D01*
X108422290Y-69651475D01*
X108422282Y-69651481D01*
X108310481Y-69763282D01*
X108310475Y-69763290D01*
X108231426Y-69900209D01*
X108231423Y-69900216D01*
X108190500Y-70052943D01*
X106526005Y-70052943D01*
X106507153Y-70020290D01*
X106507147Y-70020282D01*
X106395346Y-69908481D01*
X106395338Y-69908475D01*
X106258419Y-69829426D01*
X106258415Y-69829424D01*
X106258413Y-69829423D01*
X106105686Y-69788500D01*
X105947572Y-69788500D01*
X105794845Y-69829423D01*
X105794838Y-69829426D01*
X105657919Y-69908475D01*
X105657911Y-69908481D01*
X105546110Y-70020282D01*
X105546104Y-70020290D01*
X105467055Y-70157209D01*
X105467052Y-70157216D01*
X105426129Y-70309943D01*
X103262274Y-70309943D01*
X103254577Y-70281216D01*
X103231658Y-70241518D01*
X103175524Y-70144290D01*
X103175518Y-70144282D01*
X103063717Y-70032481D01*
X103063709Y-70032475D01*
X102926790Y-69953426D01*
X102926786Y-69953424D01*
X102926784Y-69953423D01*
X102774057Y-69912500D01*
X102615943Y-69912500D01*
X102463216Y-69953423D01*
X102463209Y-69953426D01*
X102326290Y-70032475D01*
X102326282Y-70032481D01*
X102214481Y-70144282D01*
X102214475Y-70144290D01*
X102135426Y-70281209D01*
X102135424Y-70281214D01*
X102135423Y-70281216D01*
X102094500Y-70433943D01*
X99871240Y-70433943D01*
X99896129Y-70341057D01*
X99896129Y-70182943D01*
X99855206Y-70030216D01*
X99838441Y-70001178D01*
X99776153Y-69893290D01*
X99776147Y-69893282D01*
X99664346Y-69781481D01*
X99664338Y-69781475D01*
X99527419Y-69702426D01*
X99527415Y-69702424D01*
X99527413Y-69702423D01*
X99374686Y-69661500D01*
X99216572Y-69661500D01*
X99118593Y-69687753D01*
X99048743Y-69686090D01*
X98990881Y-69646927D01*
X98964685Y-69591152D01*
X98962500Y-69579666D01*
X98962500Y-69531943D01*
X98925412Y-69393530D01*
X115741500Y-69393530D01*
X115741500Y-69600469D01*
X115781868Y-69803412D01*
X115781870Y-69803420D01*
X115860307Y-69992784D01*
X115861059Y-69994598D01*
X115887457Y-70034106D01*
X115976024Y-70166657D01*
X116122342Y-70312975D01*
X116122345Y-70312977D01*
X116294402Y-70427941D01*
X116485580Y-70507130D01*
X116688530Y-70547499D01*
X116688534Y-70547500D01*
X116688535Y-70547500D01*
X116895466Y-70547500D01*
X116895467Y-70547499D01*
X117098420Y-70507130D01*
X117289598Y-70427941D01*
X117461655Y-70312977D01*
X117607977Y-70166655D01*
X117722941Y-69994598D01*
X117802130Y-69803420D01*
X117842500Y-69600465D01*
X117842500Y-69393535D01*
X117842499Y-69393530D01*
X118281500Y-69393530D01*
X118281500Y-69600469D01*
X118321868Y-69803412D01*
X118321870Y-69803420D01*
X118400307Y-69992784D01*
X118401059Y-69994598D01*
X118427457Y-70034106D01*
X118516024Y-70166657D01*
X118662342Y-70312975D01*
X118662345Y-70312977D01*
X118834402Y-70427941D01*
X119025580Y-70507130D01*
X119228530Y-70547499D01*
X119228534Y-70547500D01*
X119228535Y-70547500D01*
X119435466Y-70547500D01*
X119435467Y-70547499D01*
X119638420Y-70507130D01*
X119829598Y-70427941D01*
X120001655Y-70312977D01*
X120134689Y-70179943D01*
X122668500Y-70179943D01*
X122668500Y-70338057D01*
X122706121Y-70478458D01*
X122709423Y-70490783D01*
X122709426Y-70490790D01*
X122788475Y-70627709D01*
X122788479Y-70627714D01*
X122788480Y-70627716D01*
X122900284Y-70739520D01*
X122900286Y-70739521D01*
X122900290Y-70739524D01*
X122998421Y-70796179D01*
X123037216Y-70818577D01*
X123189943Y-70859500D01*
X123189945Y-70859500D01*
X123348055Y-70859500D01*
X123348057Y-70859500D01*
X123500784Y-70818577D01*
X123637716Y-70739520D01*
X123749520Y-70627716D01*
X123828577Y-70490784D01*
X123869500Y-70338057D01*
X123869500Y-70179943D01*
X123828577Y-70027216D01*
X123813544Y-70001178D01*
X123749524Y-69890290D01*
X123749518Y-69890282D01*
X123637717Y-69778481D01*
X123637709Y-69778475D01*
X123500790Y-69699426D01*
X123500786Y-69699424D01*
X123500784Y-69699423D01*
X123435548Y-69681943D01*
X125311500Y-69681943D01*
X125311500Y-69840057D01*
X125348922Y-69979716D01*
X125352423Y-69992783D01*
X125352426Y-69992790D01*
X125431475Y-70129709D01*
X125431479Y-70129714D01*
X125431480Y-70129716D01*
X125543284Y-70241520D01*
X125543286Y-70241521D01*
X125543290Y-70241524D01*
X125680209Y-70320573D01*
X125680216Y-70320577D01*
X125832943Y-70361500D01*
X125832945Y-70361500D01*
X125991055Y-70361500D01*
X125991057Y-70361500D01*
X126143784Y-70320577D01*
X126280716Y-70241520D01*
X126392520Y-70129716D01*
X126471577Y-69992784D01*
X126512500Y-69840057D01*
X126512500Y-69681943D01*
X126471577Y-69529216D01*
X126437004Y-69469333D01*
X126392524Y-69392290D01*
X126392518Y-69392282D01*
X126280717Y-69280481D01*
X126280709Y-69280475D01*
X126143790Y-69201426D01*
X126143786Y-69201424D01*
X126143784Y-69201423D01*
X125991057Y-69160500D01*
X125832943Y-69160500D01*
X125680216Y-69201423D01*
X125680209Y-69201426D01*
X125543290Y-69280475D01*
X125543282Y-69280481D01*
X125431481Y-69392282D01*
X125431475Y-69392290D01*
X125352426Y-69529209D01*
X125352423Y-69529216D01*
X125311500Y-69681943D01*
X123435548Y-69681943D01*
X123348057Y-69658500D01*
X123189943Y-69658500D01*
X123037216Y-69699423D01*
X123037209Y-69699426D01*
X122900290Y-69778475D01*
X122900282Y-69778481D01*
X122788481Y-69890282D01*
X122788475Y-69890290D01*
X122709426Y-70027209D01*
X122709423Y-70027216D01*
X122668500Y-70179943D01*
X120134689Y-70179943D01*
X120147977Y-70166655D01*
X120262941Y-69994598D01*
X120342130Y-69803420D01*
X120382500Y-69600465D01*
X120382500Y-69393535D01*
X120342130Y-69190580D01*
X120262941Y-68999402D01*
X120147977Y-68827345D01*
X120147975Y-68827342D01*
X120001657Y-68681024D01*
X119897056Y-68611133D01*
X119829598Y-68566059D01*
X119827251Y-68565087D01*
X119638420Y-68486870D01*
X119638412Y-68486868D01*
X119435469Y-68446500D01*
X119435465Y-68446500D01*
X119228535Y-68446500D01*
X119228530Y-68446500D01*
X119025587Y-68486868D01*
X119025579Y-68486870D01*
X118834403Y-68566058D01*
X118662342Y-68681024D01*
X118516024Y-68827342D01*
X118401058Y-68999403D01*
X118321870Y-69190579D01*
X118321868Y-69190587D01*
X118281500Y-69393530D01*
X117842499Y-69393530D01*
X117802130Y-69190580D01*
X117722941Y-68999402D01*
X117607977Y-68827345D01*
X117607975Y-68827342D01*
X117461657Y-68681024D01*
X117357056Y-68611133D01*
X117289598Y-68566059D01*
X117287251Y-68565087D01*
X117098420Y-68486870D01*
X117098412Y-68486868D01*
X116895469Y-68446500D01*
X116895465Y-68446500D01*
X116688535Y-68446500D01*
X116688530Y-68446500D01*
X116485587Y-68486868D01*
X116485579Y-68486870D01*
X116294403Y-68566058D01*
X116122342Y-68681024D01*
X115976024Y-68827342D01*
X115861058Y-68999403D01*
X115781870Y-69190579D01*
X115781868Y-69190587D01*
X115741500Y-69393530D01*
X98925412Y-69393530D01*
X98921577Y-69379216D01*
X98921573Y-69379209D01*
X98842524Y-69242290D01*
X98842518Y-69242282D01*
X98730717Y-69130481D01*
X98730709Y-69130475D01*
X98593790Y-69051426D01*
X98593786Y-69051424D01*
X98593784Y-69051423D01*
X98441057Y-69010500D01*
X98282943Y-69010500D01*
X98130216Y-69051423D01*
X98130209Y-69051426D01*
X97993290Y-69130475D01*
X97993282Y-69130481D01*
X97881481Y-69242282D01*
X97881475Y-69242290D01*
X97802426Y-69379209D01*
X97802423Y-69379216D01*
X97761500Y-69531943D01*
X88932710Y-69531943D01*
X88931057Y-69531500D01*
X88772943Y-69531500D01*
X88620216Y-69572423D01*
X88620209Y-69572426D01*
X88483290Y-69651475D01*
X88483282Y-69651481D01*
X88371481Y-69763282D01*
X88371475Y-69763290D01*
X88292426Y-69900209D01*
X88292423Y-69900216D01*
X88251500Y-70052943D01*
X77514500Y-70052943D01*
X77473577Y-69900216D01*
X77456631Y-69870865D01*
X77394524Y-69763290D01*
X77394518Y-69763282D01*
X77282717Y-69651481D01*
X77282709Y-69651475D01*
X77145790Y-69572426D01*
X77145786Y-69572424D01*
X77145784Y-69572423D01*
X76993057Y-69531500D01*
X76834943Y-69531500D01*
X76682216Y-69572423D01*
X76682209Y-69572426D01*
X76545290Y-69651475D01*
X76545282Y-69651481D01*
X76433481Y-69763282D01*
X76433475Y-69763290D01*
X76354426Y-69900209D01*
X76354423Y-69900216D01*
X76313500Y-70052943D01*
X74955588Y-70052943D01*
X74979521Y-70023244D01*
X75045815Y-70001178D01*
X75050242Y-70001099D01*
X75591966Y-70001099D01*
X75591967Y-70001098D01*
X75738815Y-69971889D01*
X75877144Y-69914591D01*
X76001638Y-69831407D01*
X76107510Y-69725535D01*
X76190694Y-69601041D01*
X76247992Y-69462712D01*
X76277202Y-69315862D01*
X76277202Y-69166136D01*
X76247992Y-69019286D01*
X76190694Y-68880957D01*
X76190693Y-68880956D01*
X76190690Y-68880950D01*
X76107510Y-68756463D01*
X76107507Y-68756459D01*
X76001641Y-68650593D01*
X76001637Y-68650590D01*
X75877150Y-68567410D01*
X75877141Y-68567405D01*
X75738815Y-68510109D01*
X75738807Y-68510107D01*
X75591969Y-68480899D01*
X75591965Y-68480899D01*
X74146839Y-68480899D01*
X74146834Y-68480899D01*
X73999996Y-68510107D01*
X73999988Y-68510109D01*
X73861662Y-68567405D01*
X73861653Y-68567410D01*
X73737166Y-68650590D01*
X73737162Y-68650593D01*
X73631296Y-68756459D01*
X73631293Y-68756463D01*
X73548113Y-68880950D01*
X73548108Y-68880959D01*
X73490812Y-69019285D01*
X73490810Y-69019293D01*
X73461602Y-69166131D01*
X73461602Y-69315866D01*
X73490810Y-69462704D01*
X73492580Y-69468539D01*
X73489960Y-69469333D01*
X73496165Y-69527087D01*
X73464885Y-69589564D01*
X73404794Y-69625212D01*
X73334969Y-69622712D01*
X73286456Y-69592742D01*
X73210365Y-69516651D01*
X73210363Y-69516649D01*
X73127035Y-69468539D01*
X73083740Y-69443542D01*
X72977657Y-69415118D01*
X72942508Y-69405700D01*
X72796294Y-69405700D01*
X72655061Y-69443542D01*
X72528439Y-69516649D01*
X72528436Y-69516651D01*
X72425052Y-69620035D01*
X72425050Y-69620038D01*
X72351943Y-69746660D01*
X72318663Y-69870868D01*
X72314101Y-69887893D01*
X71060138Y-69887893D01*
X71085618Y-69870868D01*
X71120307Y-69836179D01*
X71164402Y-69792085D01*
X71198563Y-69757923D01*
X71198566Y-69757920D01*
X71287310Y-69625106D01*
X71289411Y-69620035D01*
X71309131Y-69572426D01*
X71348437Y-69477532D01*
X71379599Y-69320868D01*
X71379599Y-69161134D01*
X71348437Y-69004470D01*
X71327739Y-68954500D01*
X71287313Y-68856902D01*
X71287306Y-68856889D01*
X71198566Y-68724082D01*
X71198563Y-68724078D01*
X71085621Y-68611136D01*
X71085617Y-68611133D01*
X70952810Y-68522393D01*
X70952797Y-68522386D01*
X70805234Y-68461264D01*
X70805222Y-68461261D01*
X70648570Y-68430101D01*
X70648566Y-68430101D01*
X68990232Y-68430101D01*
X68990227Y-68430101D01*
X68833575Y-68461261D01*
X68833563Y-68461264D01*
X68686000Y-68522386D01*
X68685987Y-68522393D01*
X68553180Y-68611133D01*
X68553176Y-68611136D01*
X68440234Y-68724078D01*
X68440231Y-68724082D01*
X68351491Y-68856889D01*
X68351484Y-68856902D01*
X68290362Y-69004465D01*
X68290359Y-69004477D01*
X68259199Y-69161129D01*
X67287500Y-69161129D01*
X67287500Y-68274943D01*
X71868500Y-68274943D01*
X71868500Y-68433057D01*
X71904499Y-68567405D01*
X71909423Y-68585783D01*
X71909426Y-68585790D01*
X71988475Y-68722709D01*
X71988479Y-68722714D01*
X71988480Y-68722716D01*
X72100284Y-68834520D01*
X72100286Y-68834521D01*
X72100290Y-68834524D01*
X72180716Y-68880957D01*
X72237216Y-68913577D01*
X72389943Y-68954500D01*
X72389945Y-68954500D01*
X72548055Y-68954500D01*
X72548057Y-68954500D01*
X72700784Y-68913577D01*
X72837716Y-68834520D01*
X72949520Y-68722716D01*
X73028577Y-68585784D01*
X73069500Y-68433057D01*
X73069500Y-68274943D01*
X73057978Y-68231943D01*
X76761500Y-68231943D01*
X76761500Y-68390057D01*
X76802423Y-68542782D01*
X76802423Y-68542783D01*
X76802426Y-68542790D01*
X76881475Y-68679709D01*
X76881479Y-68679714D01*
X76881480Y-68679716D01*
X76993284Y-68791520D01*
X76993286Y-68791521D01*
X76993290Y-68791524D01*
X77106530Y-68856902D01*
X77130216Y-68870577D01*
X77282943Y-68911500D01*
X77282945Y-68911500D01*
X77441055Y-68911500D01*
X77441057Y-68911500D01*
X77593784Y-68870577D01*
X77730716Y-68791520D01*
X77842520Y-68679716D01*
X77908702Y-68565084D01*
X85388399Y-68565084D01*
X85388399Y-68723198D01*
X85424222Y-68856889D01*
X85429322Y-68875924D01*
X85429325Y-68875931D01*
X85508374Y-69012850D01*
X85508378Y-69012855D01*
X85508379Y-69012857D01*
X85620183Y-69124661D01*
X85620185Y-69124662D01*
X85620189Y-69124665D01*
X85734357Y-69190579D01*
X85757115Y-69203718D01*
X85909842Y-69244641D01*
X85909844Y-69244641D01*
X86067954Y-69244641D01*
X86067956Y-69244641D01*
X86220683Y-69203718D01*
X86357615Y-69124661D01*
X86469419Y-69012857D01*
X86548476Y-68875925D01*
X86589399Y-68723198D01*
X86589399Y-68565084D01*
X86580519Y-68531943D01*
X103521129Y-68531943D01*
X103521129Y-68690057D01*
X103557915Y-68827342D01*
X103562052Y-68842783D01*
X103562055Y-68842790D01*
X103641104Y-68979709D01*
X103641108Y-68979714D01*
X103641109Y-68979716D01*
X103752913Y-69091520D01*
X103752915Y-69091521D01*
X103752919Y-69091524D01*
X103820394Y-69130480D01*
X103889845Y-69170577D01*
X104042572Y-69211500D01*
X104042574Y-69211500D01*
X104200684Y-69211500D01*
X104200686Y-69211500D01*
X104353413Y-69170577D01*
X104490345Y-69091520D01*
X104602149Y-68979716D01*
X104681206Y-68842784D01*
X104722129Y-68690057D01*
X104722129Y-68531943D01*
X104681206Y-68379216D01*
X104681202Y-68379209D01*
X104602153Y-68242290D01*
X104602147Y-68242282D01*
X104490346Y-68130481D01*
X104490338Y-68130475D01*
X104353419Y-68051426D01*
X104353415Y-68051424D01*
X104353413Y-68051423D01*
X104200686Y-68010500D01*
X104042572Y-68010500D01*
X103889845Y-68051423D01*
X103889838Y-68051426D01*
X103752919Y-68130475D01*
X103752911Y-68130481D01*
X103641110Y-68242282D01*
X103641104Y-68242290D01*
X103562055Y-68379209D01*
X103562052Y-68379216D01*
X103521129Y-68531943D01*
X86580519Y-68531943D01*
X86548476Y-68412357D01*
X86535601Y-68390056D01*
X86469423Y-68275431D01*
X86469417Y-68275423D01*
X86357616Y-68163622D01*
X86357608Y-68163616D01*
X86220689Y-68084567D01*
X86220685Y-68084565D01*
X86220683Y-68084564D01*
X86067956Y-68043641D01*
X85909842Y-68043641D01*
X85757115Y-68084564D01*
X85757108Y-68084567D01*
X85620189Y-68163616D01*
X85620181Y-68163622D01*
X85508380Y-68275423D01*
X85508374Y-68275431D01*
X85429325Y-68412350D01*
X85429322Y-68412357D01*
X85388399Y-68565084D01*
X77908702Y-68565084D01*
X77921577Y-68542784D01*
X77962500Y-68390057D01*
X77962500Y-68231943D01*
X77921577Y-68079216D01*
X77881904Y-68010500D01*
X77842524Y-67942290D01*
X77842518Y-67942282D01*
X77730717Y-67830481D01*
X77730709Y-67830475D01*
X77593790Y-67751426D01*
X77593786Y-67751424D01*
X77593784Y-67751423D01*
X77441057Y-67710500D01*
X77282943Y-67710500D01*
X77130216Y-67751423D01*
X77130209Y-67751426D01*
X76993290Y-67830475D01*
X76993282Y-67830481D01*
X76881481Y-67942282D01*
X76881475Y-67942290D01*
X76802426Y-68079209D01*
X76802423Y-68079216D01*
X76761500Y-68231943D01*
X73057978Y-68231943D01*
X73028577Y-68122216D01*
X72983212Y-68043641D01*
X72949524Y-67985290D01*
X72949518Y-67985282D01*
X72837717Y-67873481D01*
X72837709Y-67873475D01*
X72700790Y-67794426D01*
X72700786Y-67794424D01*
X72700784Y-67794423D01*
X72548057Y-67753500D01*
X72389943Y-67753500D01*
X72237216Y-67794423D01*
X72237209Y-67794426D01*
X72100290Y-67873475D01*
X72100282Y-67873481D01*
X71988481Y-67985282D01*
X71988475Y-67985290D01*
X71909426Y-68122209D01*
X71909423Y-68122216D01*
X71868500Y-68274943D01*
X67287500Y-68274943D01*
X67287500Y-67062942D01*
X74085499Y-67062942D01*
X74085499Y-67221055D01*
X74126422Y-67373782D01*
X74126425Y-67373789D01*
X74205474Y-67510708D01*
X74205478Y-67510713D01*
X74205479Y-67510715D01*
X74317283Y-67622519D01*
X74317285Y-67622520D01*
X74317289Y-67622523D01*
X74454208Y-67701572D01*
X74454215Y-67701576D01*
X74606942Y-67742499D01*
X74606944Y-67742499D01*
X74765054Y-67742499D01*
X74765056Y-67742499D01*
X74917783Y-67701576D01*
X75054715Y-67622519D01*
X75166519Y-67510715D01*
X75245576Y-67373783D01*
X75286499Y-67221056D01*
X75286499Y-67062942D01*
X75245576Y-66910215D01*
X75182767Y-66801426D01*
X75166521Y-66773286D01*
X75166517Y-66773281D01*
X75144179Y-66750943D01*
X116445500Y-66750943D01*
X116445500Y-66909057D01*
X116445811Y-66910215D01*
X116486423Y-67061783D01*
X116486426Y-67061790D01*
X116565475Y-67198709D01*
X116565477Y-67198711D01*
X116565480Y-67198716D01*
X116677284Y-67310520D01*
X116677286Y-67310521D01*
X116677290Y-67310524D01*
X116786870Y-67373789D01*
X116814216Y-67389577D01*
X116966943Y-67430500D01*
X116966945Y-67430500D01*
X117125055Y-67430500D01*
X117125057Y-67430500D01*
X117277784Y-67389577D01*
X117414716Y-67310520D01*
X117443293Y-67281943D01*
X118261500Y-67281943D01*
X118261500Y-67440056D01*
X118302423Y-67592783D01*
X118302426Y-67592790D01*
X118381475Y-67729709D01*
X118381479Y-67729714D01*
X118381480Y-67729716D01*
X118493284Y-67841520D01*
X118493286Y-67841521D01*
X118493290Y-67841524D01*
X118630209Y-67920573D01*
X118630216Y-67920577D01*
X118782943Y-67961500D01*
X118782945Y-67961500D01*
X118941055Y-67961500D01*
X118941057Y-67961500D01*
X119093784Y-67920577D01*
X119230716Y-67841520D01*
X119342520Y-67729716D01*
X119421577Y-67592784D01*
X119462500Y-67440057D01*
X119462500Y-67281943D01*
X119421577Y-67129216D01*
X119382649Y-67061790D01*
X119342524Y-66992290D01*
X119342518Y-66992282D01*
X119230717Y-66880481D01*
X119230709Y-66880475D01*
X119093790Y-66801426D01*
X119093786Y-66801424D01*
X119093784Y-66801423D01*
X118941057Y-66760500D01*
X118782943Y-66760500D01*
X118630216Y-66801423D01*
X118630209Y-66801426D01*
X118493290Y-66880475D01*
X118493282Y-66880481D01*
X118381481Y-66992282D01*
X118381475Y-66992290D01*
X118302426Y-67129209D01*
X118302423Y-67129216D01*
X118261500Y-67281943D01*
X117443293Y-67281943D01*
X117526520Y-67198716D01*
X117605577Y-67061784D01*
X117646500Y-66909057D01*
X117646500Y-66750943D01*
X117605577Y-66598216D01*
X117596460Y-66582425D01*
X117526524Y-66461290D01*
X117526518Y-66461282D01*
X117414717Y-66349481D01*
X117414709Y-66349475D01*
X117277790Y-66270426D01*
X117277786Y-66270424D01*
X117277784Y-66270423D01*
X117125057Y-66229500D01*
X116966943Y-66229500D01*
X116814216Y-66270423D01*
X116814209Y-66270426D01*
X116677290Y-66349475D01*
X116677282Y-66349481D01*
X116565481Y-66461282D01*
X116565475Y-66461290D01*
X116486426Y-66598209D01*
X116486423Y-66598216D01*
X116445500Y-66750943D01*
X75144179Y-66750943D01*
X75054716Y-66661480D01*
X75054708Y-66661474D01*
X74917789Y-66582425D01*
X74917785Y-66582423D01*
X74917783Y-66582422D01*
X74765056Y-66541499D01*
X74606942Y-66541499D01*
X74454215Y-66582422D01*
X74454208Y-66582425D01*
X74317289Y-66661474D01*
X74317281Y-66661480D01*
X74205480Y-66773281D01*
X74205474Y-66773289D01*
X74126425Y-66910208D01*
X74126422Y-66910215D01*
X74085499Y-67062942D01*
X67287500Y-67062942D01*
X67287500Y-64718943D01*
X77075500Y-64718943D01*
X77075500Y-64877057D01*
X77080829Y-64896943D01*
X77116423Y-65029783D01*
X77116426Y-65029790D01*
X77195475Y-65166709D01*
X77195479Y-65166714D01*
X77195480Y-65166716D01*
X77307284Y-65278520D01*
X77307286Y-65278521D01*
X77307290Y-65278524D01*
X77444209Y-65357573D01*
X77444216Y-65357577D01*
X77596943Y-65398500D01*
X77596945Y-65398500D01*
X77755055Y-65398500D01*
X77755057Y-65398500D01*
X77907784Y-65357577D01*
X78044716Y-65278520D01*
X78156520Y-65166716D01*
X78235577Y-65029784D01*
X78261268Y-64933902D01*
X96043500Y-64933902D01*
X96043500Y-65170097D01*
X96080446Y-65403368D01*
X96153433Y-65627996D01*
X96260657Y-65838433D01*
X96399483Y-66029510D01*
X96566490Y-66196517D01*
X96757567Y-66335343D01*
X96856991Y-66386002D01*
X96968003Y-66442566D01*
X96968005Y-66442566D01*
X96968008Y-66442568D01*
X97088412Y-66481689D01*
X97192631Y-66515553D01*
X97425903Y-66552500D01*
X97425908Y-66552500D01*
X97662097Y-66552500D01*
X97895368Y-66515553D01*
X97985211Y-66486361D01*
X98119992Y-66442568D01*
X98330433Y-66335343D01*
X98521510Y-66196517D01*
X98688517Y-66029510D01*
X98827343Y-65838433D01*
X98934568Y-65627992D01*
X99007553Y-65403368D01*
X99024385Y-65297097D01*
X99044500Y-65170097D01*
X99044500Y-64933902D01*
X99007553Y-64700631D01*
X98934566Y-64476003D01*
X98827342Y-64265566D01*
X98807621Y-64238423D01*
X98688517Y-64074490D01*
X98672927Y-64058900D01*
X99543500Y-64058900D01*
X99543500Y-66045091D01*
X99554123Y-66133562D01*
X99609639Y-66274342D01*
X99609640Y-66274344D01*
X99701077Y-66394922D01*
X99821655Y-66486359D01*
X99821658Y-66486361D01*
X99962436Y-66541876D01*
X100050901Y-66552500D01*
X102037098Y-66552499D01*
X102125564Y-66541876D01*
X102266342Y-66486361D01*
X102386922Y-66394922D01*
X102478361Y-66274342D01*
X102533876Y-66133564D01*
X102544500Y-66045099D01*
X102544499Y-64933902D01*
X105441500Y-64933902D01*
X105441500Y-65170097D01*
X105478446Y-65403368D01*
X105551433Y-65627996D01*
X105658657Y-65838433D01*
X105797483Y-66029510D01*
X105964490Y-66196517D01*
X106155567Y-66335343D01*
X106254991Y-66386002D01*
X106366003Y-66442566D01*
X106366005Y-66442566D01*
X106366008Y-66442568D01*
X106486412Y-66481689D01*
X106590631Y-66515553D01*
X106823903Y-66552500D01*
X106823908Y-66552500D01*
X107060097Y-66552500D01*
X107293368Y-66515553D01*
X107383211Y-66486361D01*
X107517992Y-66442568D01*
X107728433Y-66335343D01*
X107919510Y-66196517D01*
X108086517Y-66029510D01*
X108225343Y-65838433D01*
X108332568Y-65627992D01*
X108405553Y-65403368D01*
X108422385Y-65297097D01*
X108442500Y-65170097D01*
X108442500Y-64933902D01*
X108405553Y-64700631D01*
X108332566Y-64476003D01*
X108225342Y-64265566D01*
X108205621Y-64238423D01*
X108086517Y-64074490D01*
X108070927Y-64058900D01*
X108941500Y-64058900D01*
X108941500Y-66045091D01*
X108952123Y-66133562D01*
X109007639Y-66274342D01*
X109007640Y-66274344D01*
X109099077Y-66394922D01*
X109219655Y-66486359D01*
X109219658Y-66486361D01*
X109360436Y-66541876D01*
X109448901Y-66552500D01*
X111435098Y-66552499D01*
X111523564Y-66541876D01*
X111664342Y-66486361D01*
X111784922Y-66394922D01*
X111876361Y-66274342D01*
X111931876Y-66133564D01*
X111942500Y-66045099D01*
X111942499Y-65060902D01*
X122967500Y-65060902D01*
X122967500Y-65297097D01*
X123004446Y-65530368D01*
X123077433Y-65754996D01*
X123119947Y-65838433D01*
X123184657Y-65965433D01*
X123323483Y-66156510D01*
X123490490Y-66323517D01*
X123681567Y-66462343D01*
X123780991Y-66513002D01*
X123892003Y-66569566D01*
X123892005Y-66569566D01*
X123892008Y-66569568D01*
X123931578Y-66582425D01*
X124116631Y-66642553D01*
X124349903Y-66679500D01*
X124349908Y-66679500D01*
X124586097Y-66679500D01*
X124819368Y-66642553D01*
X124909211Y-66613361D01*
X125043992Y-66569568D01*
X125254433Y-66462343D01*
X125445510Y-66323517D01*
X125612517Y-66156510D01*
X125751343Y-65965433D01*
X125858568Y-65754992D01*
X125931553Y-65530368D01*
X125952439Y-65398499D01*
X125968500Y-65297097D01*
X125968500Y-65060902D01*
X125931553Y-64827631D01*
X125875160Y-64654073D01*
X125858568Y-64603008D01*
X125858566Y-64603005D01*
X125858566Y-64603003D01*
X125751342Y-64392566D01*
X125703184Y-64326283D01*
X125612517Y-64201490D01*
X125596927Y-64185900D01*
X126467500Y-64185900D01*
X126467500Y-66172091D01*
X126478123Y-66260562D01*
X126533639Y-66401342D01*
X126533640Y-66401344D01*
X126625077Y-66521922D01*
X126725677Y-66598209D01*
X126745658Y-66613361D01*
X126886436Y-66668876D01*
X126974901Y-66679500D01*
X128961098Y-66679499D01*
X129049564Y-66668876D01*
X129190342Y-66613361D01*
X129310922Y-66521922D01*
X129402361Y-66401342D01*
X129457876Y-66260564D01*
X129468500Y-66172099D01*
X129468499Y-64185902D01*
X129457876Y-64097436D01*
X129402361Y-63956658D01*
X129365072Y-63907485D01*
X129310922Y-63836077D01*
X129190344Y-63744640D01*
X129190342Y-63744639D01*
X129049564Y-63689124D01*
X129049561Y-63689123D01*
X128961099Y-63678500D01*
X126974908Y-63678500D01*
X126886437Y-63689123D01*
X126745657Y-63744639D01*
X126745655Y-63744640D01*
X126625077Y-63836077D01*
X126533640Y-63956655D01*
X126533639Y-63956658D01*
X126487174Y-64074488D01*
X126478124Y-64097437D01*
X126478123Y-64097438D01*
X126467500Y-64185900D01*
X125596927Y-64185900D01*
X125445510Y-64034483D01*
X125254433Y-63895657D01*
X125189783Y-63862716D01*
X125043996Y-63788433D01*
X124819368Y-63715446D01*
X124586097Y-63678500D01*
X124586092Y-63678500D01*
X124349908Y-63678500D01*
X124349903Y-63678500D01*
X124116631Y-63715446D01*
X123892003Y-63788433D01*
X123681566Y-63895657D01*
X123578643Y-63970436D01*
X123490490Y-64034483D01*
X123490488Y-64034485D01*
X123490487Y-64034485D01*
X123323485Y-64201487D01*
X123323485Y-64201488D01*
X123323483Y-64201490D01*
X123278218Y-64263792D01*
X123184657Y-64392566D01*
X123077433Y-64603003D01*
X123004446Y-64827631D01*
X122967500Y-65060902D01*
X111942499Y-65060902D01*
X111942499Y-65029790D01*
X111942499Y-64058909D01*
X111942499Y-64058908D01*
X111942499Y-64058902D01*
X111936020Y-64004943D01*
X115157500Y-64004943D01*
X115157500Y-64163057D01*
X115184968Y-64265567D01*
X115198423Y-64315783D01*
X115198426Y-64315790D01*
X115277475Y-64452709D01*
X115277479Y-64452714D01*
X115277480Y-64452716D01*
X115389284Y-64564520D01*
X115389286Y-64564521D01*
X115389290Y-64564524D01*
X115526209Y-64643573D01*
X115526216Y-64643577D01*
X115678943Y-64684500D01*
X115678945Y-64684500D01*
X115837055Y-64684500D01*
X115837057Y-64684500D01*
X115989784Y-64643577D01*
X116126716Y-64564520D01*
X116238520Y-64452716D01*
X116317577Y-64315784D01*
X116358500Y-64163057D01*
X116358500Y-64015443D01*
X120282000Y-64015443D01*
X120282000Y-64173557D01*
X120320565Y-64317481D01*
X120322923Y-64326283D01*
X120322926Y-64326290D01*
X120401975Y-64463209D01*
X120401979Y-64463214D01*
X120401980Y-64463216D01*
X120513784Y-64575020D01*
X120513786Y-64575021D01*
X120513790Y-64575024D01*
X120632529Y-64643577D01*
X120650716Y-64654077D01*
X120803443Y-64695000D01*
X120803445Y-64695000D01*
X120961555Y-64695000D01*
X120961557Y-64695000D01*
X121114284Y-64654077D01*
X121251216Y-64575020D01*
X121363020Y-64463216D01*
X121442077Y-64326284D01*
X121483000Y-64173557D01*
X121483000Y-64015443D01*
X121442077Y-63862716D01*
X121422991Y-63829657D01*
X121363024Y-63725790D01*
X121363018Y-63725782D01*
X121251217Y-63613981D01*
X121251209Y-63613975D01*
X121114290Y-63534926D01*
X121114286Y-63534924D01*
X121114284Y-63534923D01*
X120961557Y-63494000D01*
X120803443Y-63494000D01*
X120650716Y-63534923D01*
X120650709Y-63534926D01*
X120513790Y-63613975D01*
X120513782Y-63613981D01*
X120401981Y-63725782D01*
X120401975Y-63725790D01*
X120322926Y-63862709D01*
X120322923Y-63862716D01*
X120282000Y-64015443D01*
X116358500Y-64015443D01*
X116358500Y-64004943D01*
X116317577Y-63852216D01*
X116255468Y-63744639D01*
X116238524Y-63715290D01*
X116238518Y-63715282D01*
X116126717Y-63603481D01*
X116126709Y-63603475D01*
X115989790Y-63524426D01*
X115989786Y-63524424D01*
X115989784Y-63524423D01*
X115837057Y-63483500D01*
X115678943Y-63483500D01*
X115526216Y-63524423D01*
X115526209Y-63524426D01*
X115389290Y-63603475D01*
X115389282Y-63603481D01*
X115277481Y-63715282D01*
X115277475Y-63715290D01*
X115198426Y-63852209D01*
X115198423Y-63852216D01*
X115157500Y-64004943D01*
X111936020Y-64004943D01*
X111931876Y-63970436D01*
X111876361Y-63829658D01*
X111845099Y-63788433D01*
X111784922Y-63709077D01*
X111664344Y-63617640D01*
X111664342Y-63617639D01*
X111523564Y-63562124D01*
X111523561Y-63562123D01*
X111435099Y-63551500D01*
X109448908Y-63551500D01*
X109360437Y-63562123D01*
X109219657Y-63617639D01*
X109219655Y-63617640D01*
X109099077Y-63709077D01*
X109007640Y-63829655D01*
X108994603Y-63862716D01*
X108957558Y-63956658D01*
X108952124Y-63970437D01*
X108952123Y-63970438D01*
X108941500Y-64058900D01*
X108070927Y-64058900D01*
X107919510Y-63907483D01*
X107728433Y-63768657D01*
X107660523Y-63734055D01*
X107517996Y-63661433D01*
X107293368Y-63588446D01*
X107060097Y-63551500D01*
X107060092Y-63551500D01*
X106823908Y-63551500D01*
X106823903Y-63551500D01*
X106590631Y-63588446D01*
X106366003Y-63661433D01*
X106155566Y-63768657D01*
X106062770Y-63836078D01*
X105964490Y-63907483D01*
X105964488Y-63907485D01*
X105964487Y-63907485D01*
X105797485Y-64074487D01*
X105797485Y-64074488D01*
X105797483Y-64074490D01*
X105753142Y-64135520D01*
X105658657Y-64265566D01*
X105551433Y-64476003D01*
X105478446Y-64700631D01*
X105441500Y-64933902D01*
X102544499Y-64933902D01*
X102544499Y-64058902D01*
X102533876Y-63970436D01*
X102478361Y-63829658D01*
X102447099Y-63788433D01*
X102386922Y-63709077D01*
X102266344Y-63617640D01*
X102266342Y-63617639D01*
X102125564Y-63562124D01*
X102125561Y-63562123D01*
X102037099Y-63551500D01*
X100050908Y-63551500D01*
X99962437Y-63562123D01*
X99821657Y-63617639D01*
X99821655Y-63617640D01*
X99701077Y-63709077D01*
X99609640Y-63829655D01*
X99596603Y-63862716D01*
X99559558Y-63956658D01*
X99554124Y-63970437D01*
X99554123Y-63970438D01*
X99543500Y-64058900D01*
X98672927Y-64058900D01*
X98521510Y-63907483D01*
X98330433Y-63768657D01*
X98262523Y-63734055D01*
X98119996Y-63661433D01*
X97895368Y-63588446D01*
X97662097Y-63551500D01*
X97662092Y-63551500D01*
X97425908Y-63551500D01*
X97425903Y-63551500D01*
X97192631Y-63588446D01*
X96968003Y-63661433D01*
X96757566Y-63768657D01*
X96664770Y-63836078D01*
X96566490Y-63907483D01*
X96566488Y-63907485D01*
X96566487Y-63907485D01*
X96399485Y-64074487D01*
X96399485Y-64074488D01*
X96399483Y-64074490D01*
X96355142Y-64135520D01*
X96260657Y-64265566D01*
X96153433Y-64476003D01*
X96080446Y-64700631D01*
X96043500Y-64933902D01*
X78261268Y-64933902D01*
X78276500Y-64877057D01*
X78276500Y-64718943D01*
X78235577Y-64566216D01*
X78176111Y-64463217D01*
X78156524Y-64429290D01*
X78156518Y-64429282D01*
X78044717Y-64317481D01*
X78044709Y-64317475D01*
X77907790Y-64238426D01*
X77907786Y-64238424D01*
X77907784Y-64238423D01*
X77755057Y-64197500D01*
X77596943Y-64197500D01*
X77444216Y-64238423D01*
X77444209Y-64238426D01*
X77307290Y-64317475D01*
X77307282Y-64317481D01*
X77195481Y-64429282D01*
X77195475Y-64429290D01*
X77116426Y-64566209D01*
X77116423Y-64566216D01*
X77075500Y-64718943D01*
X67287500Y-64718943D01*
X67287500Y-63575943D01*
X69582500Y-63575943D01*
X69582500Y-63734057D01*
X69609837Y-63836078D01*
X69623423Y-63886783D01*
X69623426Y-63886790D01*
X69702475Y-64023709D01*
X69702479Y-64023714D01*
X69702480Y-64023716D01*
X69814284Y-64135520D01*
X69814286Y-64135521D01*
X69814290Y-64135524D01*
X69901547Y-64185901D01*
X69951216Y-64214577D01*
X70103943Y-64255500D01*
X70103945Y-64255500D01*
X70262055Y-64255500D01*
X70262057Y-64255500D01*
X70414784Y-64214577D01*
X70551716Y-64135520D01*
X70663520Y-64023716D01*
X70742577Y-63886784D01*
X70783500Y-63734057D01*
X70783500Y-63575943D01*
X70742577Y-63423216D01*
X70706665Y-63361015D01*
X70706665Y-63361013D01*
X70674386Y-63305104D01*
X87878400Y-63305104D01*
X87878400Y-63496895D01*
X87915813Y-63684981D01*
X87915815Y-63684989D01*
X87989207Y-63862175D01*
X88095751Y-64021629D01*
X88095757Y-64021637D01*
X88231362Y-64157242D01*
X88231370Y-64157248D01*
X88390825Y-64263792D01*
X88390824Y-64263792D01*
X88442720Y-64285288D01*
X88568011Y-64337185D01*
X88756104Y-64374599D01*
X88756107Y-64374600D01*
X88756109Y-64374600D01*
X88947893Y-64374600D01*
X88947894Y-64374599D01*
X89135989Y-64337185D01*
X89313173Y-64263793D01*
X89313173Y-64263792D01*
X89313175Y-64263792D01*
X89412388Y-64197500D01*
X89472634Y-64157245D01*
X89608245Y-64021634D01*
X89698349Y-63886783D01*
X89714792Y-63862175D01*
X89728261Y-63829658D01*
X89788185Y-63684989D01*
X89825600Y-63496891D01*
X89825600Y-63305109D01*
X89825600Y-63305106D01*
X89825599Y-63305104D01*
X90878400Y-63305104D01*
X90878400Y-63496895D01*
X90915813Y-63684981D01*
X90915815Y-63684989D01*
X90989207Y-63862175D01*
X91095751Y-64021629D01*
X91095757Y-64021637D01*
X91231362Y-64157242D01*
X91231370Y-64157248D01*
X91390825Y-64263792D01*
X91390824Y-64263792D01*
X91442720Y-64285288D01*
X91568011Y-64337185D01*
X91756104Y-64374599D01*
X91756107Y-64374600D01*
X91756109Y-64374600D01*
X91947893Y-64374600D01*
X91947894Y-64374599D01*
X92135989Y-64337185D01*
X92313173Y-64263793D01*
X92313173Y-64263792D01*
X92313175Y-64263792D01*
X92412388Y-64197500D01*
X92472634Y-64157245D01*
X92608245Y-64021634D01*
X92698349Y-63886783D01*
X92714792Y-63862175D01*
X92728261Y-63829658D01*
X92788185Y-63684989D01*
X92825600Y-63496891D01*
X92825600Y-63305109D01*
X92825600Y-63305106D01*
X92825599Y-63305104D01*
X92788186Y-63117018D01*
X92788185Y-63117011D01*
X92714793Y-62939827D01*
X92714792Y-62939824D01*
X92608248Y-62780370D01*
X92608242Y-62780362D01*
X92472637Y-62644757D01*
X92472629Y-62644751D01*
X92313174Y-62538207D01*
X92313175Y-62538207D01*
X92135989Y-62464815D01*
X92135981Y-62464813D01*
X91947894Y-62427400D01*
X91947891Y-62427400D01*
X91756109Y-62427400D01*
X91756106Y-62427400D01*
X91568018Y-62464813D01*
X91568010Y-62464815D01*
X91390824Y-62538207D01*
X91231370Y-62644751D01*
X91231362Y-62644757D01*
X91095757Y-62780362D01*
X91095751Y-62780370D01*
X90989207Y-62939824D01*
X90915815Y-63117010D01*
X90915813Y-63117018D01*
X90878400Y-63305104D01*
X89825599Y-63305104D01*
X89788186Y-63117018D01*
X89788185Y-63117011D01*
X89714793Y-62939827D01*
X89714792Y-62939824D01*
X89608248Y-62780370D01*
X89608242Y-62780362D01*
X89472637Y-62644757D01*
X89472629Y-62644751D01*
X89313174Y-62538207D01*
X89313175Y-62538207D01*
X89135989Y-62464815D01*
X89135981Y-62464813D01*
X88947894Y-62427400D01*
X88947891Y-62427400D01*
X88756109Y-62427400D01*
X88756106Y-62427400D01*
X88568018Y-62464813D01*
X88568010Y-62464815D01*
X88390824Y-62538207D01*
X88231370Y-62644751D01*
X88231362Y-62644757D01*
X88095757Y-62780362D01*
X88095751Y-62780370D01*
X87989207Y-62939824D01*
X87915815Y-63117010D01*
X87915813Y-63117018D01*
X87878400Y-63305104D01*
X70674386Y-63305104D01*
X70663524Y-63286290D01*
X70663518Y-63286282D01*
X70551717Y-63174481D01*
X70551709Y-63174475D01*
X70414790Y-63095426D01*
X70414786Y-63095424D01*
X70414784Y-63095423D01*
X70262057Y-63054500D01*
X70103943Y-63054500D01*
X69951216Y-63095423D01*
X69951209Y-63095426D01*
X69814290Y-63174475D01*
X69814282Y-63174481D01*
X69702481Y-63286282D01*
X69702475Y-63286290D01*
X69623426Y-63423209D01*
X69623423Y-63423216D01*
X69582500Y-63575943D01*
X67287500Y-63575943D01*
X67287500Y-61307747D01*
X67307185Y-61240708D01*
X67359989Y-61194953D01*
X67409368Y-61183766D01*
X84750941Y-60886517D01*
X84753066Y-60886500D01*
X85542880Y-60886500D01*
X85609919Y-60906185D01*
G37*
%TD.AperFunction*%
%TD*%
M02*
