%TF.GenerationSoftware,KiCad,Pcbnew,9.0.8-9.0.8~ubuntu24.04.1*%
%TF.CreationDate,2026-04-19T02:42:30-04:00*%
%TF.ProjectId,COMET,434f4d45-542e-46b6-9963-61645f706362,rev?*%
%TF.SameCoordinates,Original*%
%TF.FileFunction,Soldermask,Top*%
%TF.FilePolarity,Negative*%
%FSLAX46Y46*%
G04 Gerber Fmt 4.6, Leading zero omitted, Abs format (unit mm)*
G04 Created by KiCad (PCBNEW 9.0.8-9.0.8~ubuntu24.04.1) date 2026-04-19 02:42:30*
%MOMM*%
%LPD*%
G01*
G04 APERTURE LIST*
G04 Aperture macros list*
%AMRoundRect*
0 Rectangle with rounded corners*
0 $1 Rounding radius*
0 $2 $3 $4 $5 $6 $7 $8 $9 X,Y pos of 4 corners*
0 Add a 4 corners polygon primitive as box body*
4,1,4,$2,$3,$4,$5,$6,$7,$8,$9,$2,$3,0*
0 Add four circle primitives for the rounded corners*
1,1,$1+$1,$2,$3*
1,1,$1+$1,$4,$5*
1,1,$1+$1,$6,$7*
1,1,$1+$1,$8,$9*
0 Add four rect primitives between the rounded corners*
20,1,$1+$1,$2,$3,$4,$5,0*
20,1,$1+$1,$4,$5,$6,$7,0*
20,1,$1+$1,$6,$7,$8,$9,0*
20,1,$1+$1,$8,$9,$2,$3,0*%
%AMRotRect*
0 Rectangle, with rotation*
0 The origin of the aperture is its center*
0 $1 length*
0 $2 width*
0 $3 Rotation angle, in degrees counterclockwise*
0 Add horizontal line*
21,1,$1,$2,0,0,$3*%
G04 Aperture macros list end*
%ADD10R,0.889000X0.990600*%
%ADD11R,1.701800X0.558800*%
%ADD12C,1.500000*%
%ADD13R,0.850000X0.500000*%
%ADD14RoundRect,0.250001X0.949999X0.949999X-0.949999X0.949999X-0.949999X-0.949999X0.949999X-0.949999X0*%
%ADD15C,2.400000*%
%ADD16RoundRect,0.087500X0.087500X-0.225000X0.087500X0.225000X-0.087500X0.225000X-0.087500X-0.225000X0*%
%ADD17RoundRect,0.087500X0.225000X-0.087500X0.225000X0.087500X-0.225000X0.087500X-0.225000X-0.087500X0*%
%ADD18RoundRect,0.135000X-0.185000X0.135000X-0.185000X-0.135000X0.185000X-0.135000X0.185000X0.135000X0*%
%ADD19RoundRect,0.140000X0.140000X0.170000X-0.140000X0.170000X-0.140000X-0.170000X0.140000X-0.170000X0*%
%ADD20RoundRect,0.237500X0.237500X-0.287500X0.237500X0.287500X-0.237500X0.287500X-0.237500X-0.287500X0*%
%ADD21RoundRect,0.135000X0.226274X0.035355X0.035355X0.226274X-0.226274X-0.035355X-0.035355X-0.226274X0*%
%ADD22R,2.400000X2.000000*%
%ADD23RoundRect,0.140000X-0.140000X-0.170000X0.140000X-0.170000X0.140000X0.170000X-0.140000X0.170000X0*%
%ADD24RoundRect,0.140000X-0.219203X-0.021213X-0.021213X-0.219203X0.219203X0.021213X0.021213X0.219203X0*%
%ADD25RoundRect,0.140000X-0.021213X0.219203X-0.219203X0.021213X0.021213X-0.219203X0.219203X-0.021213X0*%
%ADD26RoundRect,0.135000X-0.226274X-0.035355X-0.035355X-0.226274X0.226274X0.035355X0.035355X0.226274X0*%
%ADD27RoundRect,0.135000X0.185000X-0.135000X0.185000X0.135000X-0.185000X0.135000X-0.185000X-0.135000X0*%
%ADD28R,0.558800X1.905000*%
%ADD29C,1.346200*%
%ADD30RoundRect,0.140000X0.219203X0.021213X0.021213X0.219203X-0.219203X-0.021213X-0.021213X-0.219203X0*%
%ADD31RoundRect,0.237500X-0.237500X0.287500X-0.237500X-0.287500X0.237500X-0.287500X0.237500X0.287500X0*%
%ADD32RoundRect,0.125000X-0.247487X-0.424264X0.424264X0.247487X0.247487X0.424264X-0.424264X-0.247487X0*%
%ADD33RoundRect,0.250001X-0.949999X-0.949999X0.949999X-0.949999X0.949999X0.949999X-0.949999X0.949999X0*%
%ADD34RoundRect,0.140000X0.170000X-0.140000X0.170000X0.140000X-0.170000X0.140000X-0.170000X-0.140000X0*%
%ADD35RoundRect,0.237500X0.237500X-0.300000X0.237500X0.300000X-0.237500X0.300000X-0.237500X-0.300000X0*%
%ADD36RoundRect,0.135000X-0.035355X0.226274X-0.226274X0.035355X0.035355X-0.226274X0.226274X-0.035355X0*%
%ADD37RoundRect,0.237500X0.300000X0.237500X-0.300000X0.237500X-0.300000X-0.237500X0.300000X-0.237500X0*%
%ADD38RoundRect,0.135000X-0.135000X-0.185000X0.135000X-0.185000X0.135000X0.185000X-0.135000X0.185000X0*%
%ADD39RoundRect,0.237500X0.287500X0.237500X-0.287500X0.237500X-0.287500X-0.237500X0.287500X-0.237500X0*%
%ADD40RoundRect,0.140000X0.021213X-0.219203X0.219203X-0.021213X-0.021213X0.219203X-0.219203X0.021213X0*%
%ADD41RoundRect,0.112500X-0.112500X-0.237500X0.112500X-0.237500X0.112500X0.237500X-0.112500X0.237500X0*%
%ADD42RoundRect,0.375000X0.375000X-0.625000X0.375000X0.625000X-0.375000X0.625000X-0.375000X-0.625000X0*%
%ADD43RoundRect,0.500000X1.400000X-0.500000X1.400000X0.500000X-1.400000X0.500000X-1.400000X-0.500000X0*%
%ADD44RoundRect,0.162500X-0.344715X-0.574524X0.574524X0.344715X0.344715X0.574524X-0.574524X-0.344715X0*%
%ADD45RoundRect,0.112500X0.112500X0.237500X-0.112500X0.237500X-0.112500X-0.237500X0.112500X-0.237500X0*%
%ADD46O,2.514600X1.219200*%
%ADD47O,2.819400X1.320800*%
%ADD48O,1.117600X1.651000*%
%ADD49R,0.889000X0.279400*%
%ADD50R,0.812800X0.279400*%
%ADD51RoundRect,0.237500X-0.300000X-0.237500X0.300000X-0.237500X0.300000X0.237500X-0.300000X0.237500X0*%
%ADD52RoundRect,0.050000X0.309359X-0.238649X-0.238649X0.309359X-0.309359X0.238649X0.238649X-0.309359X0*%
%ADD53RoundRect,0.050000X0.309359X0.238649X0.238649X0.309359X-0.309359X-0.238649X-0.238649X-0.309359X0*%
%ADD54RotRect,3.200000X3.200000X135.000000*%
%ADD55RoundRect,0.250000X0.350000X-0.450000X0.350000X0.450000X-0.350000X0.450000X-0.350000X-0.450000X0*%
%ADD56RoundRect,0.135000X0.135000X0.185000X-0.135000X0.185000X-0.135000X-0.185000X0.135000X-0.185000X0*%
%ADD57C,2.700000*%
G04 APERTURE END LIST*
D10*
%TO.C,SW4*%
X72418497Y-84744503D03*
X68318501Y-84744503D03*
X72418497Y-83144499D03*
X68318501Y-83144499D03*
D11*
X70368499Y-82519500D03*
%TD*%
D12*
%TO.C,TP12*%
X119332000Y-69497000D03*
%TD*%
%TO.C,TP11*%
X116792000Y-69497000D03*
%TD*%
D13*
%TO.C,D9*%
X74712918Y-80075805D03*
X76462918Y-80075805D03*
X74712918Y-81095805D03*
X76462918Y-81095805D03*
%TD*%
D14*
%TO.C,J5*%
X110442000Y-65052000D03*
D15*
X106942000Y-65052000D03*
%TD*%
D16*
%TO.C,U1*%
X112488186Y-81308257D03*
X112988186Y-81308256D03*
X113488186Y-81308256D03*
X113988186Y-81308257D03*
D17*
X114150686Y-80645755D03*
X114150686Y-80145756D03*
X114150686Y-79645757D03*
D16*
X113988186Y-78983255D03*
X113488186Y-78983256D03*
X112988186Y-78983256D03*
X112488186Y-78983255D03*
D17*
X112325686Y-79645757D03*
X112325686Y-80145756D03*
X112325686Y-80645755D03*
%TD*%
D18*
%TO.C,R11*%
X80724000Y-74321001D03*
X80724000Y-75340999D03*
%TD*%
D19*
%TO.C,C5*%
X105363629Y-81565000D03*
X104403629Y-81565000D03*
%TD*%
D18*
%TO.C,R15*%
X125936000Y-70511000D03*
X125936000Y-71531000D03*
%TD*%
D20*
%TO.C,D1*%
X85931000Y-67831999D03*
X85931000Y-66082001D03*
%TD*%
D21*
%TO.C,R24*%
X96791826Y-71499411D03*
X96070578Y-70778163D03*
%TD*%
D18*
%TO.C,R12*%
X124158000Y-70257000D03*
X124158000Y-71277000D03*
%TD*%
D22*
%TO.C,LS1*%
X115229000Y-66211000D03*
X115229000Y-62211000D03*
%TD*%
D10*
%TO.C,SW2*%
X78138445Y-83022242D03*
X82238441Y-83022242D03*
X78138445Y-84622246D03*
X82238441Y-84622246D03*
D11*
X80188443Y-85247245D03*
%TD*%
D23*
%TO.C,C7*%
X109723186Y-71228757D03*
X110683186Y-71228757D03*
%TD*%
D19*
%TO.C,C6*%
X111318186Y-76943755D03*
X110358186Y-76943755D03*
%TD*%
D18*
%TO.C,R20*%
X117554000Y-83910000D03*
X117554000Y-84930000D03*
%TD*%
D24*
%TO.C,C19*%
X101623218Y-80463589D03*
X102302040Y-81142411D03*
%TD*%
D25*
%TO.C,C21*%
X95190040Y-75891589D03*
X94511218Y-76570411D03*
%TD*%
D26*
%TO.C,R25*%
X95351376Y-71450376D03*
X96072624Y-72171624D03*
%TD*%
D27*
%TO.C,R22*%
X73739000Y-63783999D03*
X73739000Y-62764001D03*
%TD*%
D14*
%TO.C,Main1*%
X127968000Y-65179000D03*
D15*
X124468000Y-65179000D03*
%TD*%
D27*
%TO.C,R21*%
X125936000Y-76168000D03*
X125936000Y-75148000D03*
%TD*%
D28*
%TO.C,SW1*%
X92852001Y-65598101D03*
X90351999Y-65598100D03*
X87852001Y-65598100D03*
D29*
X88852000Y-63401000D03*
X91852000Y-63401000D03*
%TD*%
D30*
%TO.C,C16*%
X95359838Y-73940624D03*
X94681016Y-73261802D03*
%TD*%
D31*
%TO.C,D7*%
X119713000Y-62780001D03*
X119713000Y-64529999D03*
%TD*%
D32*
%TO.C,U2*%
X105713328Y-79538709D03*
X106597211Y-80422592D03*
X107481095Y-81306476D03*
X108364978Y-82190359D03*
X109991324Y-80564013D03*
X109107441Y-79680130D03*
X108223557Y-78796246D03*
X107339674Y-77912363D03*
%TD*%
D20*
%TO.C,D8*%
X119586000Y-85103999D03*
X119586000Y-83354001D03*
%TD*%
D33*
%TO.C,Drogue1*%
X124412000Y-81943000D03*
D15*
X127912000Y-81943000D03*
%TD*%
D34*
%TO.C,C3*%
X115762000Y-82461000D03*
X115762000Y-81501000D03*
%TD*%
D35*
%TO.C,C8*%
X85677000Y-64390500D03*
X85677000Y-62665500D03*
%TD*%
D36*
%TO.C,R28*%
X109532624Y-83106376D03*
X108811376Y-83827624D03*
%TD*%
D25*
%TO.C,C12*%
X95952040Y-76780589D03*
X95273218Y-77459411D03*
%TD*%
D37*
%TO.C,C4*%
X106224500Y-82832000D03*
X104499500Y-82832000D03*
%TD*%
D38*
%TO.C,R29*%
X91326010Y-74216933D03*
X92346008Y-74216933D03*
%TD*%
%TO.C,R26*%
X69800001Y-80673000D03*
X70819999Y-80673000D03*
%TD*%
D39*
%TO.C,D5*%
X71323999Y-67338001D03*
X69574001Y-67338001D03*
%TD*%
D10*
%TO.C,SW3*%
X68260002Y-62346998D03*
X72359998Y-62346998D03*
X68260002Y-63947002D03*
X72359998Y-63947002D03*
D11*
X70310000Y-64572001D03*
%TD*%
D40*
%TO.C,C18*%
X104544219Y-71469938D03*
X105223041Y-70791116D03*
%TD*%
D38*
%TO.C,R4*%
X107661187Y-71101756D03*
X108681185Y-71101756D03*
%TD*%
D41*
%TO.C,MOS_M1*%
X127572000Y-72021000D03*
X128222000Y-70021000D03*
X128872000Y-72021000D03*
%TD*%
D18*
%TO.C,R13*%
X79581000Y-74321001D03*
X79581000Y-75340999D03*
%TD*%
D25*
%TO.C,C13*%
X97730040Y-78939589D03*
X97051218Y-79618411D03*
%TD*%
D42*
%TO.C,U4*%
X78932000Y-69090999D03*
X81232000Y-69091000D03*
D43*
X81232000Y-62791000D03*
D42*
X83531999Y-69091001D03*
%TD*%
D25*
%TO.C,C11*%
X98111040Y-79955589D03*
X97432218Y-80634411D03*
%TD*%
D27*
%TO.C,R14*%
X118189000Y-64165000D03*
X118189000Y-63145000D03*
%TD*%
D44*
%TO.C,U3*%
X84813661Y-81455950D03*
X85711685Y-82353975D03*
X86609710Y-83252002D03*
X87507737Y-84150028D03*
X92581225Y-79076538D03*
X91683201Y-78178513D03*
X90785176Y-77280486D03*
X89887149Y-76382460D03*
%TD*%
D45*
%TO.C,MOS_D1*%
X128872000Y-75100999D03*
X128222000Y-77101000D03*
X127572001Y-75101001D03*
%TD*%
D27*
%TO.C,R18*%
X120348000Y-81817999D03*
X120348000Y-80798001D03*
%TD*%
D14*
%TO.C,Batt_Screw1*%
X101044000Y-65052000D03*
D15*
X97544000Y-65052000D03*
%TD*%
D30*
%TO.C,C17*%
X98280838Y-70638625D03*
X97602016Y-69959803D03*
%TD*%
D27*
%TO.C,R16*%
X100438629Y-81820999D03*
X100438629Y-80801001D03*
%TD*%
D46*
%TO.C,J3*%
X74869402Y-69240999D03*
D47*
X69819399Y-69241001D03*
D48*
X74269401Y-69565999D03*
X74269401Y-77556002D03*
D46*
X74869398Y-77880997D03*
D47*
X69819397Y-77881003D03*
D49*
X75569397Y-70935999D03*
X75569401Y-71435998D03*
X75569400Y-71935997D03*
X75569401Y-72435999D03*
X75569403Y-72936000D03*
X75569400Y-73435999D03*
X75569400Y-73935998D03*
X75569399Y-74435999D03*
X75569399Y-74935997D03*
X75569400Y-75435999D03*
X75569398Y-75936000D03*
X75569401Y-76436000D03*
D50*
X73969401Y-76186090D03*
X73969401Y-75686091D03*
X73969401Y-75186089D03*
X73969401Y-74686090D03*
X73969401Y-74186089D03*
X73969404Y-73686090D03*
X73969401Y-73186091D03*
X73969402Y-72686089D03*
X73969401Y-72186090D03*
X73969398Y-71686089D03*
X73969398Y-71186091D03*
X73969401Y-70686091D03*
%TD*%
D37*
%TO.C,C10*%
X80443500Y-71148000D03*
X78718500Y-71148000D03*
%TD*%
D51*
%TO.C,C9*%
X85830500Y-69751000D03*
X87555500Y-69751000D03*
%TD*%
D38*
%TO.C,R10*%
X117806000Y-66576000D03*
X118826000Y-66576000D03*
%TD*%
D25*
%TO.C,C14*%
X96968040Y-78177589D03*
X96289218Y-78856411D03*
%TD*%
D40*
%TO.C,C15*%
X105433218Y-77332411D03*
X106112040Y-76653589D03*
%TD*%
%TO.C,C20*%
X103782218Y-70580939D03*
X104461040Y-69902117D03*
%TD*%
D52*
%TO.C,U5*%
X101654202Y-79230157D03*
X101937045Y-78947314D03*
X102219887Y-78664472D03*
X102502730Y-78381629D03*
X102785573Y-78098786D03*
X103068415Y-77815944D03*
X103351258Y-77533101D03*
X103634101Y-77250258D03*
X103916944Y-76967415D03*
X104199786Y-76684573D03*
X104482629Y-76401730D03*
X104765472Y-76118887D03*
X105048314Y-75836045D03*
X105331157Y-75553202D03*
D53*
X105331157Y-74368798D03*
X105048314Y-74085955D03*
X104765472Y-73803113D03*
X104482629Y-73520270D03*
X104199786Y-73237427D03*
X103916944Y-72954585D03*
X103634101Y-72671742D03*
X103351258Y-72388899D03*
X103068415Y-72106056D03*
X102785573Y-71823214D03*
X102502730Y-71540371D03*
X102219887Y-71257528D03*
X101937045Y-70974686D03*
X101654202Y-70691843D03*
D52*
X100469798Y-70691843D03*
X100186955Y-70974686D03*
X99904113Y-71257528D03*
X99621270Y-71540371D03*
X99338427Y-71823214D03*
X99055585Y-72106056D03*
X98772742Y-72388899D03*
X98489899Y-72671742D03*
X98207056Y-72954585D03*
X97924214Y-73237427D03*
X97641371Y-73520270D03*
X97358528Y-73803113D03*
X97075686Y-74085955D03*
X96792843Y-74368798D03*
D53*
X96792843Y-75553202D03*
X97075686Y-75836045D03*
X97358528Y-76118887D03*
X97641371Y-76401730D03*
X97924214Y-76684573D03*
X98207056Y-76967415D03*
X98489899Y-77250258D03*
X98772742Y-77533101D03*
X99055585Y-77815944D03*
X99338427Y-78098786D03*
X99621270Y-78381629D03*
X99904113Y-78664472D03*
X100186955Y-78947314D03*
X100469798Y-79230157D03*
D54*
X101062000Y-74961000D03*
%TD*%
D38*
%TO.C,R31*%
X91296326Y-73174542D03*
X92316326Y-73174542D03*
%TD*%
D27*
%TO.C,R7*%
X76914000Y-72674000D03*
X76914000Y-71654000D03*
%TD*%
D18*
%TO.C,R8*%
X77422000Y-74829000D03*
X77422000Y-75849000D03*
%TD*%
D38*
%TO.C,R6*%
X69925000Y-65941000D03*
X70945000Y-65941000D03*
%TD*%
D55*
%TO.C,Y1*%
X111688186Y-74995756D03*
X111688186Y-72795756D03*
X109988186Y-72795756D03*
X109988186Y-74995756D03*
%TD*%
D31*
%TO.C,D4*%
X76152000Y-63401000D03*
X76152000Y-65150998D03*
%TD*%
D56*
%TO.C,R17*%
X121366000Y-79784000D03*
X120346000Y-79784000D03*
%TD*%
D57*
%TO.C,H2*%
X118062000Y-73561000D03*
%TD*%
D38*
%TO.C,R30*%
X91263000Y-72037000D03*
X92283000Y-72037000D03*
%TD*%
D25*
%TO.C,C1*%
X86301411Y-77671589D03*
X85622589Y-78350411D03*
%TD*%
D56*
%TO.C,R9*%
X121366000Y-66576000D03*
X120346000Y-66576000D03*
%TD*%
D27*
%TO.C,R19*%
X124158000Y-76359000D03*
X124158000Y-75339000D03*
%TD*%
D18*
%TO.C,R27*%
X111966000Y-82830001D03*
X111966000Y-83849999D03*
%TD*%
D57*
%TO.C,H1*%
X86312000Y-73561000D03*
%TD*%
M02*
