M48
; DRILL file {KiCad 9.0.8-9.0.8~ubuntu24.04.1} date 2026-04-19T02:42:25-0400
; FORMAT={-:-/ absolute / metric / decimal}
; #@! TF.CreationDate,2026-04-19T02:42:25-04:00
; #@! TF.GenerationSoftware,Kicad,Pcbnew,9.0.8-9.0.8~ubuntu24.04.1
; #@! TF.FileFunction,Plated,1,4,PTH
FMAT,2
METRIC
; #@! TA.AperFunction,Plated,PTH,ViaDrill
T1C0.300
; #@! TA.AperFunction,Plated,PTH,ComponentDrill
T2C0.700
; #@! TA.AperFunction,Plated,PTH,ComponentDrill
T3C0.838
; #@! TA.AperFunction,Plated,PTH,ComponentDrill
T4C1.200
%
G90
G05
T1
X67.906Y-81.571
X69.781Y-81.395
X70.183Y-63.655
X71.58Y-65.687
X72.097Y-81.571
X72.469Y-68.354
X72.723Y-76.101
X73.104Y-71.021
X73.104Y-74.196
X73.129Y-73.427
X73.739Y-64.544
X73.866Y-82.197
X74.686Y-67.142
X74.774Y-82.076
X76.66Y-74.704
X76.66Y-79.149
X76.914Y-70.132
X76.914Y-76.611
X76.962Y-84.761
X77.362Y-68.311
X77.422Y-73.949
X77.676Y-64.798
X77.803Y-78.768
X78.692Y-80.927
X81.512Y-67.508
X81.867Y-61.369
X83.264Y-66.322
X83.363Y-85.346
X85.062Y-77.711
X85.662Y-77.111
X85.931Y-61.623
X85.989Y-68.644
X88.443Y-84.457
X88.852Y-70.132
X89.262Y-75.761
X89.553Y-74.425
X89.586Y-80.388
X89.713Y-79.377
X89.967Y-78.361
X89.995Y-71.91
X90.249Y-74.704
X92.0Y-81.873
X92.916Y-70.259
X93.862Y-81.415
X93.932Y-71.529
X94.088Y-73.846
X94.216Y-77.374
X94.694Y-82.111
X94.772Y-71.888
X95.812Y-80.011
X96.503Y-72.922
X97.391Y-75.088
X97.557Y-71.698
X98.362Y-69.611
X98.666Y-74.458
X98.915Y-76.612
X99.296Y-70.262
X99.423Y-73.685
X99.931Y-72.421
X100.189Y-82.358
X101.062Y-74.961
X101.074Y-78.517
X102.695Y-70.513
X102.747Y-80.513
X102.852Y-73.183
X103.203Y-79.141
X103.233Y-81.565
X103.614Y-76.104
X104.122Y-68.611
X104.219Y-80.292
X104.884Y-79.406
X106.027Y-70.389
X106.408Y-81.692
X106.876Y-72.162
X107.17Y-76.485
X107.424Y-82.327
X107.655Y-73.74
X108.029Y-76.485
X108.791Y-70.132
X109.568Y-76.309
X109.837Y-78.006
X110.112Y-82.525
X110.422Y-79.55
X110.912Y-82.525
X111.077Y-84.102
X111.331Y-80.646
X111.521Y-78.323
X111.688Y-76.101
X112.235Y-71.356
X113.363Y-80.292
X113.838Y-70.396
X115.758Y-64.084
X116.662Y-81.511
X116.762Y-82.411
X117.046Y-66.83
X118.316Y-84.737
X118.388Y-85.483
X118.443Y-62.131
X118.862Y-67.361
X119.212Y-78.761
X120.729Y-82.578
X120.882Y-64.094
X122.083Y-79.27
X123.269Y-70.259
X125.912Y-69.761
X126.698Y-75.847
X129.912Y-72.011
T2
X116.792Y-69.497
X119.332Y-69.497
T3
X88.852Y-63.401
X91.852Y-63.401
T4
X97.544Y-65.052
X101.044Y-65.052
X106.942Y-65.052
X110.442Y-65.052
X124.412Y-81.943
X124.468Y-65.179
X127.912Y-81.943
X127.968Y-65.179
M30
