%TF.GenerationSoftware,KiCad,Pcbnew,9.0.8-9.0.8~ubuntu24.04.1*%
%TF.CreationDate,2026-04-19T02:42:29-04:00*%
%TF.ProjectId,COMET,434f4d45-542e-46b6-9963-61645f706362,rev?*%
%TF.SameCoordinates,Original*%
%TF.FileFunction,Copper,L4,Bot*%
%TF.FilePolarity,Positive*%
%FSLAX46Y46*%
G04 Gerber Fmt 4.6, Leading zero omitted, Abs format (unit mm)*
G04 Created by KiCad (PCBNEW 9.0.8-9.0.8~ubuntu24.04.1) date 2026-04-19 02:42:29*
%MOMM*%
%LPD*%
G01*
G04 APERTURE LIST*
G04 Aperture macros list*
%AMRoundRect*
0 Rectangle with rounded corners*
0 $1 Rounding radius*
0 $2 $3 $4 $5 $6 $7 $8 $9 X,Y pos of 4 corners*
0 Add a 4 corners polygon primitive as box body*
4,1,4,$2,$3,$4,$5,$6,$7,$8,$9,$2,$3,0*
0 Add four circle primitives for the rounded corners*
1,1,$1+$1,$2,$3*
1,1,$1+$1,$4,$5*
1,1,$1+$1,$6,$7*
1,1,$1+$1,$8,$9*
0 Add four rect primitives between the rounded corners*
20,1,$1+$1,$2,$3,$4,$5,0*
20,1,$1+$1,$4,$5,$6,$7,0*
20,1,$1+$1,$6,$7,$8,$9,0*
20,1,$1+$1,$8,$9,$2,$3,0*%
G04 Aperture macros list end*
%TA.AperFunction,ComponentPad*%
%ADD10C,1.500000*%
%TD*%
%TA.AperFunction,ComponentPad*%
%ADD11RoundRect,0.250001X0.949999X0.949999X-0.949999X0.949999X-0.949999X-0.949999X0.949999X-0.949999X0*%
%TD*%
%TA.AperFunction,ComponentPad*%
%ADD12C,2.400000*%
%TD*%
%TA.AperFunction,ComponentPad*%
%ADD13C,1.346200*%
%TD*%
%TA.AperFunction,ComponentPad*%
%ADD14RoundRect,0.250001X-0.949999X-0.949999X0.949999X-0.949999X0.949999X0.949999X-0.949999X0.949999X0*%
%TD*%
%TA.AperFunction,WasherPad*%
%ADD15O,2.514600X1.219200*%
%TD*%
%TA.AperFunction,WasherPad*%
%ADD16O,2.819400X1.320800*%
%TD*%
%TA.AperFunction,WasherPad*%
%ADD17O,1.117600X1.651000*%
%TD*%
%TA.AperFunction,SMDPad,CuDef*%
%ADD18C,1.000000*%
%TD*%
%TA.AperFunction,ViaPad*%
%ADD19C,0.600000*%
%TD*%
%TA.AperFunction,Conductor*%
%ADD20C,0.127000*%
%TD*%
%TA.AperFunction,Conductor*%
%ADD21C,0.381000*%
%TD*%
%TA.AperFunction,Conductor*%
%ADD22C,0.762000*%
%TD*%
%TA.AperFunction,Conductor*%
%ADD23C,0.200000*%
%TD*%
%TA.AperFunction,Conductor*%
%ADD24C,0.254000*%
%TD*%
G04 APERTURE END LIST*
D10*
%TO.P,TP12,1,1*%
%TO.N,/TX*%
X119332000Y-69497000D03*
%TD*%
%TO.P,TP11,1,1*%
%TO.N,/RX*%
X116792000Y-69497000D03*
%TD*%
D11*
%TO.P,J5,1,Pin_1*%
%TO.N,+BATT*%
X110442000Y-65052000D03*
D12*
%TO.P,J5,2,Pin_2*%
%TO.N,/Mos_Power*%
X106942000Y-65052000D03*
%TD*%
D11*
%TO.P,Main1,1,Pin_1*%
%TO.N,/Mos_Power*%
X127968000Y-65179000D03*
D12*
%TO.P,Main1,2,Pin_2*%
%TO.N,Net-(Main1-Pin_2)*%
X124468000Y-65179000D03*
%TD*%
D13*
%TO.P,SW1,4*%
%TO.N,N/C*%
X88852000Y-63401000D03*
%TO.P,SW1,5*%
X91852000Y-63401000D03*
%TD*%
D14*
%TO.P,Drogue1,1,Pin_1*%
%TO.N,/Mos_Power*%
X124412000Y-81943000D03*
D12*
%TO.P,Drogue1,2,Pin_2*%
%TO.N,Net-(Drogue1-Pin_2)*%
X127912000Y-81943000D03*
%TD*%
D11*
%TO.P,Batt_Screw1,1,Pin_1*%
%TO.N,+BATT*%
X101044000Y-65052000D03*
D12*
%TO.P,Batt_Screw1,2,Pin_2*%
%TO.N,GND*%
X97544000Y-65052000D03*
%TD*%
D15*
%TO.P,J3,*%
%TO.N,*%
X74869402Y-69240999D03*
D16*
X69819399Y-69241001D03*
D17*
X74269401Y-69565999D03*
X74269401Y-77556002D03*
D15*
X74869398Y-77880997D03*
D16*
X69819397Y-77881003D03*
%TD*%
D18*
%TO.P,TP7,1,1*%
%TO.N,/MOS_M*%
X120729000Y-62131000D03*
%TD*%
%TO.P,TP5,1,1*%
%TO.N,/SDA*%
X112412000Y-83711000D03*
%TD*%
%TO.P,TP1,1,1*%
%TO.N,VBUS*%
X76192080Y-66232498D03*
%TD*%
%TO.P,TP2,1,1*%
%TO.N,VIN*%
X88471000Y-68735000D03*
%TD*%
%TO.P,TP3,1,1*%
%TO.N,+3V3*%
X83264000Y-66322000D03*
%TD*%
%TO.P,TP10,1,1*%
%TO.N,/XOUT*%
X112666416Y-67084000D03*
%TD*%
%TO.P,TP6,1,1*%
%TO.N,/SCL*%
X118697000Y-81181000D03*
%TD*%
%TO.P,TP9,1,1*%
%TO.N,/XIN*%
X114633000Y-76101000D03*
%TD*%
%TO.P,TP8,1,1*%
%TO.N,/MOS_D*%
X123269000Y-78641000D03*
%TD*%
%TO.P,TP4,1,1*%
%TO.N,GND*%
X79708000Y-68862000D03*
%TD*%
D19*
%TO.N,/RX*%
X104219000Y-80292000D03*
%TO.N,/TX*%
X102747343Y-80512912D03*
X111521500Y-78323500D03*
%TO.N,/RX*%
X109836629Y-78006000D03*
%TO.N,+3V3*%
X111077000Y-84102000D03*
%TO.N,/R'*%
X78692000Y-80927000D03*
%TO.N,/G'*%
X77803000Y-78768000D03*
%TO.N,/B'*%
X76660000Y-79149000D03*
%TO.N,/G'*%
X89995000Y-71910000D03*
%TO.N,/B'*%
X89552640Y-74425455D03*
%TO.N,/R'*%
X90249000Y-74704000D03*
%TO.N,/G*%
X92916000Y-70259000D03*
%TO.N,/B*%
X93932000Y-71529000D03*
X96502841Y-72922416D03*
%TO.N,/G*%
X97557290Y-71697664D03*
%TO.N,+3V3*%
X74773596Y-82075603D03*
%TO.N,VIN*%
X85988899Y-68644141D03*
%TO.N,GND*%
X120729000Y-82578000D03*
X73104000Y-71021000D03*
X129912000Y-72011000D03*
X85931000Y-61623000D03*
X112235186Y-71355756D03*
X72723000Y-76101000D03*
X72469000Y-68354000D03*
X103232629Y-81565000D03*
X94215629Y-77374000D03*
X94088186Y-73845756D03*
X76914000Y-76611000D03*
X88852000Y-70132000D03*
X101062000Y-74961000D03*
X104121629Y-68611000D03*
X98362000Y-69611000D03*
X113363000Y-80292000D03*
X106026629Y-70389000D03*
X125912000Y-69761000D03*
X94771995Y-71887787D03*
X88443443Y-84457244D03*
X126698000Y-75847000D03*
X115758000Y-64084000D03*
X70183000Y-63655000D03*
X116662000Y-81511000D03*
X106407629Y-81692000D03*
X76962000Y-84761000D03*
X76914000Y-70132000D03*
X83363443Y-85346244D03*
X95812000Y-80011000D03*
X118443000Y-62131000D03*
X67906498Y-81570503D03*
X118388445Y-85483495D03*
X117046000Y-66830000D03*
X72097498Y-81570503D03*
X85062000Y-77711000D03*
X106875700Y-72161500D03*
X77362000Y-68311000D03*
X107169629Y-76485000D03*
X109568186Y-76308756D03*
%TO.N,VBUS*%
X74685999Y-67141999D03*
%TO.N,/MOS_D*%
X122082777Y-79270500D03*
X118316000Y-84737000D03*
%TO.N,/MOS_M*%
X123269000Y-70259000D03*
X120882500Y-64094500D03*
X103202676Y-79141263D03*
%TO.N,+3V3*%
X83264000Y-66322000D03*
X97390629Y-75088000D03*
X81512197Y-67508000D03*
X103613629Y-76104000D03*
X104883629Y-79406000D03*
X69780699Y-81394998D03*
X116762000Y-82411000D03*
X85662000Y-77111000D03*
X102851629Y-73183000D03*
X98914629Y-76612000D03*
X107423629Y-82327000D03*
X81867000Y-61369000D03*
X99930629Y-72421000D03*
X89262000Y-75761000D03*
X73739000Y-64544000D03*
X100189214Y-82358216D03*
X101073629Y-78517000D03*
X71580000Y-65687000D03*
%TO.N,/XIN*%
X111688186Y-76101000D03*
%TO.N,/USB_D-*%
X73129128Y-73427003D03*
X77422000Y-73949499D03*
%TO.N,/Main_Cont*%
X99422629Y-73685500D03*
X118862000Y-67361000D03*
%TO.N,/RUN*%
X77676000Y-64798000D03*
X102695000Y-70513000D03*
%TO.N,/Drogue_Cont*%
X119212000Y-78761000D03*
X98665745Y-74458116D03*
%TO.N,/XOUT*%
X108791000Y-70132000D03*
%TO.N,/QSPI_SD3*%
X89967443Y-78361244D03*
X93862000Y-81414744D03*
%TO.N,/QSPI_SD0*%
X92000452Y-81872548D03*
X89586443Y-80387744D03*
%TO.N,/QSPI_SCLK*%
X94694000Y-82111000D03*
X89713443Y-79377244D03*
%TO.N,/SDA*%
X111331000Y-80645755D03*
X110912000Y-82525500D03*
%TO.N,/SCL*%
X110421943Y-79550057D03*
X108029000Y-76485000D03*
X110112000Y-82525500D03*
%TO.N,/Speaker*%
X113838186Y-70395756D03*
X107654936Y-73739908D03*
%TO.N,Net-(J3-CC2)*%
X76660000Y-74704000D03*
X73104000Y-74196000D03*
%TO.N,/Mode_Sel*%
X99295629Y-70262000D03*
X73866000Y-82197000D03*
%TD*%
D20*
%TO.N,/SCL*%
X110421943Y-79550057D02*
X110421943Y-82215557D01*
X110421943Y-82215557D02*
X110112000Y-82525500D01*
X118697000Y-81181000D02*
X118321500Y-80805500D01*
X112216944Y-80805500D02*
X110961501Y-79550057D01*
X110961501Y-79550057D02*
X110421943Y-79550057D01*
X118321500Y-80805500D02*
X112216944Y-80805500D01*
%TO.N,/SDA*%
X111331000Y-80645755D02*
X112347000Y-81661755D01*
X112347000Y-81661755D02*
X112347000Y-83646000D01*
X112347000Y-83646000D02*
X112412000Y-83711000D01*
%TO.N,/B'*%
X89552640Y-74425455D02*
X90884000Y-73094095D01*
X90884000Y-73094095D02*
X90884000Y-72072801D01*
X90884000Y-72072801D02*
X90207699Y-71396500D01*
X90207699Y-71396500D02*
X84412500Y-71396500D01*
X84412500Y-71396500D02*
X76660000Y-79149000D01*
%TO.N,/Main_Cont*%
X118862000Y-67361000D02*
X115672942Y-67361000D01*
X112192686Y-70841256D02*
X109257373Y-70841256D01*
X106380501Y-72392500D02*
X105318193Y-72392500D01*
X115672942Y-67361000D02*
X112192686Y-70841256D01*
X105318193Y-72392500D02*
X104014192Y-73696500D01*
X109257373Y-70841256D02*
X107423629Y-72675000D01*
X107423629Y-72675000D02*
X106663001Y-72675000D01*
X106663001Y-72675000D02*
X106380501Y-72392500D01*
X104014192Y-73696500D02*
X99433629Y-73696500D01*
X99433629Y-73696500D02*
X99422629Y-73685500D01*
%TO.N,/QSPI_SD0*%
X92000452Y-81872548D02*
X90419904Y-80292000D01*
X90419904Y-80292000D02*
X89682187Y-80292000D01*
X89682187Y-80292000D02*
X89586443Y-80387744D01*
%TO.N,/QSPI_SD3*%
X93862000Y-81414744D02*
X93858372Y-81414744D01*
X93858372Y-81414744D02*
X90830628Y-78387000D01*
X90830628Y-78387000D02*
X89993199Y-78387000D01*
X89993199Y-78387000D02*
X89967443Y-78361244D01*
%TO.N,/QSPI_SCLK*%
X94694000Y-82111000D02*
X93211000Y-82111000D01*
X93211000Y-82111000D02*
X90477244Y-79377244D01*
X90477244Y-79377244D02*
X89713443Y-79377244D01*
%TO.N,/SDA*%
X111331000Y-80645755D02*
X110912000Y-81064755D01*
X110912000Y-81064755D02*
X110912000Y-82525500D01*
%TO.N,/XOUT*%
X108791000Y-70132000D02*
X110823000Y-68100000D01*
X110823000Y-68100000D02*
X111650416Y-68100000D01*
X111650416Y-68100000D02*
X112666416Y-67084000D01*
%TO.N,/TX*%
X102747343Y-80512912D02*
X102747343Y-80629652D01*
X102747343Y-80629652D02*
X102923191Y-80805500D01*
X102923191Y-80805500D02*
X108023500Y-80805500D01*
X108023500Y-80805500D02*
X110505500Y-78323500D01*
X110505500Y-78323500D02*
X111521500Y-78323500D01*
%TO.N,/RX*%
X109836629Y-78006000D02*
X107009828Y-78006000D01*
X107009828Y-78006000D02*
X104723828Y-80292000D01*
X104723828Y-80292000D02*
X104219000Y-80292000D01*
%TO.N,/G*%
X97521489Y-71435491D02*
X96344998Y-70259000D01*
X96344998Y-70259000D02*
X92916000Y-70259000D01*
X97557290Y-71697664D02*
X97521489Y-71661863D01*
X97521489Y-71661863D02*
X97521489Y-71435491D01*
%TO.N,/B*%
X96502841Y-72922416D02*
X95285495Y-71705070D01*
X95285495Y-71705070D02*
X95285495Y-71675088D01*
X95285495Y-71675088D02*
X94984694Y-71374287D01*
X94984694Y-71374287D02*
X94086713Y-71374287D01*
X94086713Y-71374287D02*
X93932000Y-71529000D01*
%TO.N,/G'*%
X77803000Y-78768000D02*
X84673500Y-71897500D01*
X84673500Y-71897500D02*
X89982500Y-71897500D01*
X89982500Y-71897500D02*
X89995000Y-71910000D01*
%TO.N,/R'*%
X90249000Y-74704000D02*
X89705500Y-75247500D01*
X89705500Y-75247500D02*
X84371500Y-75247500D01*
X84371500Y-75247500D02*
X78692000Y-80927000D01*
%TO.N,/Mode_Sel*%
X73866000Y-82197000D02*
X73866000Y-82257000D01*
X73866000Y-82257000D02*
X74560897Y-81562103D01*
X74560897Y-81562103D02*
X86040385Y-81562103D01*
X86040385Y-81562103D02*
X86576744Y-81025744D01*
D21*
%TO.N,VIN*%
X88380141Y-68644141D02*
X88471000Y-68735000D01*
X85988899Y-68644141D02*
X88380141Y-68644141D01*
D22*
%TO.N,+BATT*%
X103203000Y-67211000D02*
X108712000Y-67211000D01*
X101044000Y-65052000D02*
X103203000Y-67211000D01*
D21*
X110442000Y-65481000D02*
X110442000Y-65052000D01*
D22*
X108712000Y-67211000D02*
X110442000Y-65481000D01*
D23*
%TO.N,GND*%
X77362000Y-68311000D02*
X77913000Y-68862000D01*
D20*
X106875700Y-72161500D02*
X106874329Y-72161500D01*
X106788186Y-72075357D02*
X106788186Y-71945756D01*
X106874329Y-72161500D02*
X106788186Y-72075357D01*
D23*
X77913000Y-68862000D02*
X79708000Y-68862000D01*
D20*
%TO.N,VBUS*%
X74685999Y-67141999D02*
X74743998Y-67084000D01*
X75340578Y-67084000D02*
X76192080Y-66232498D01*
X74743998Y-67084000D02*
X75340578Y-67084000D01*
%TO.N,/MOS_D*%
X121110000Y-80243277D02*
X121110000Y-81470801D01*
X118316000Y-84264801D02*
X118316000Y-84737000D01*
D24*
X122712277Y-78641000D02*
X123269000Y-78641000D01*
X122082777Y-79270500D02*
X122712277Y-78641000D01*
D20*
X122082777Y-79270500D02*
X121110000Y-80243277D01*
X121110000Y-81470801D02*
X118316000Y-84264801D01*
%TO.N,/MOS_M*%
X103202676Y-79141263D02*
X104422167Y-79141263D01*
X104422167Y-79141263D02*
X106564930Y-76998500D01*
X115652387Y-79561000D02*
X115662000Y-79561000D01*
X113775000Y-79561000D02*
X115662000Y-79561000D01*
X106564930Y-76998500D02*
X108241699Y-76998500D01*
X120882500Y-64094500D02*
X120729000Y-63941000D01*
X108241699Y-76998500D02*
X108250199Y-76990000D01*
X111204000Y-76990000D02*
X113775000Y-79561000D01*
X119174000Y-79561000D02*
X123269000Y-75466000D01*
X108250199Y-76990000D02*
X111204000Y-76990000D01*
X115662000Y-79561000D02*
X119174000Y-79561000D01*
X123269000Y-75466000D02*
X123269000Y-70259000D01*
X120729000Y-63941000D02*
X120729000Y-62131000D01*
%TO.N,/XIN*%
X111688186Y-76101000D02*
X114633000Y-76101000D01*
%TO.N,/USB_D-*%
X73644125Y-73942000D02*
X77295000Y-73942000D01*
X73129128Y-73427003D02*
X73644125Y-73942000D01*
%TO.N,/RUN*%
X102695000Y-70513000D02*
X100203500Y-68021500D01*
X80899500Y-68021500D02*
X77676000Y-64798000D01*
X100203500Y-68021500D02*
X80899500Y-68021500D01*
%TO.N,/Drogue_Cont*%
X107484584Y-74295756D02*
X114746756Y-74295756D01*
X103903430Y-74199000D02*
X105432930Y-72669500D01*
X105858328Y-72669500D02*
X107484584Y-74295756D01*
X98665745Y-74458116D02*
X98924861Y-74199000D01*
X98924861Y-74199000D02*
X103903430Y-74199000D01*
X114746756Y-74295756D02*
X119212000Y-78761000D01*
X119212000Y-78611000D02*
X119212000Y-78761000D01*
X105432930Y-72669500D02*
X105858328Y-72669500D01*
%TO.N,/Speaker*%
X107760784Y-73845756D02*
X110472799Y-73845756D01*
X107654936Y-73739908D02*
X107760784Y-73845756D01*
X113838186Y-70480369D02*
X113838186Y-70395756D01*
X110472799Y-73845756D02*
X113838186Y-70480369D01*
%TO.N,Net-(J3-CC2)*%
X73104000Y-74196000D02*
X73612000Y-74704000D01*
X73612000Y-74704000D02*
X76660000Y-74704000D01*
%TO.N,/Mode_Sel*%
X86574244Y-81028244D02*
X86576744Y-81025744D01*
X92519988Y-75082500D02*
X95110129Y-75082500D01*
X99295629Y-70897000D02*
X99295629Y-70262000D01*
X95110129Y-75082500D02*
X99295629Y-70897000D01*
X86576744Y-81025744D02*
X92519988Y-75082500D01*
D21*
%TO.N,/Mos_Power*%
X124412000Y-81943000D02*
X124405500Y-81936500D01*
D22*
X113162000Y-62961000D02*
X115126500Y-64925500D01*
X124405500Y-81936500D02*
X124405500Y-68741500D01*
X121744500Y-64925500D02*
X123809000Y-62861000D01*
X106942000Y-65052000D02*
X109033000Y-62961000D01*
X125650000Y-62861000D02*
X127968000Y-65179000D01*
X115126500Y-64925500D02*
X121744500Y-64925500D01*
X109033000Y-62961000D02*
X113162000Y-62961000D01*
X123809000Y-62861000D02*
X125650000Y-62861000D01*
X124405500Y-68741500D02*
X127968000Y-65179000D01*
%TD*%
M02*
