%TF.GenerationSoftware,KiCad,Pcbnew,9.0.8-9.0.8~ubuntu24.04.1*%
%TF.CreationDate,2026-04-19T02:42:29-04:00*%
%TF.ProjectId,COMET,434f4d45-542e-46b6-9963-61645f706362,rev?*%
%TF.SameCoordinates,Original*%
%TF.FileFunction,Copper,L3,Inr*%
%TF.FilePolarity,Positive*%
%FSLAX46Y46*%
G04 Gerber Fmt 4.6, Leading zero omitted, Abs format (unit mm)*
G04 Created by KiCad (PCBNEW 9.0.8-9.0.8~ubuntu24.04.1) date 2026-04-19 02:42:29*
%MOMM*%
%LPD*%
G01*
G04 APERTURE LIST*
G04 Aperture macros list*
%AMRoundRect*
0 Rectangle with rounded corners*
0 $1 Rounding radius*
0 $2 $3 $4 $5 $6 $7 $8 $9 X,Y pos of 4 corners*
0 Add a 4 corners polygon primitive as box body*
4,1,4,$2,$3,$4,$5,$6,$7,$8,$9,$2,$3,0*
0 Add four circle primitives for the rounded corners*
1,1,$1+$1,$2,$3*
1,1,$1+$1,$4,$5*
1,1,$1+$1,$6,$7*
1,1,$1+$1,$8,$9*
0 Add four rect primitives between the rounded corners*
20,1,$1+$1,$2,$3,$4,$5,0*
20,1,$1+$1,$4,$5,$6,$7,0*
20,1,$1+$1,$6,$7,$8,$9,0*
20,1,$1+$1,$8,$9,$2,$3,0*%
G04 Aperture macros list end*
%TA.AperFunction,ComponentPad*%
%ADD10C,1.500000*%
%TD*%
%TA.AperFunction,ComponentPad*%
%ADD11RoundRect,0.250001X0.949999X0.949999X-0.949999X0.949999X-0.949999X-0.949999X0.949999X-0.949999X0*%
%TD*%
%TA.AperFunction,ComponentPad*%
%ADD12C,2.400000*%
%TD*%
%TA.AperFunction,ComponentPad*%
%ADD13C,1.346200*%
%TD*%
%TA.AperFunction,ComponentPad*%
%ADD14RoundRect,0.250001X-0.949999X-0.949999X0.949999X-0.949999X0.949999X0.949999X-0.949999X0.949999X0*%
%TD*%
%TA.AperFunction,WasherPad*%
%ADD15O,2.514600X1.219200*%
%TD*%
%TA.AperFunction,WasherPad*%
%ADD16O,2.819400X1.320800*%
%TD*%
%TA.AperFunction,WasherPad*%
%ADD17O,1.117600X1.651000*%
%TD*%
%TA.AperFunction,ViaPad*%
%ADD18C,0.600000*%
%TD*%
G04 APERTURE END LIST*
D10*
%TO.N,/TX*%
%TO.C,TP12*%
X119332000Y-69497000D03*
%TD*%
%TO.N,/RX*%
%TO.C,TP11*%
X116792000Y-69497000D03*
%TD*%
D11*
%TO.N,+BATT*%
%TO.C,J5*%
X110442000Y-65052000D03*
D12*
%TO.N,/Mos_Power*%
X106942000Y-65052000D03*
%TD*%
D11*
%TO.N,/Mos_Power*%
%TO.C,Main1*%
X127968000Y-65179000D03*
D12*
%TO.N,Net-(Main1-Pin_2)*%
X124468000Y-65179000D03*
%TD*%
D13*
%TO.N,N/C*%
%TO.C,SW1*%
X88852000Y-63401000D03*
X91852000Y-63401000D03*
%TD*%
D14*
%TO.N,/Mos_Power*%
%TO.C,Drogue1*%
X124412000Y-81943000D03*
D12*
%TO.N,Net-(Drogue1-Pin_2)*%
X127912000Y-81943000D03*
%TD*%
D11*
%TO.N,+BATT*%
%TO.C,Batt_Screw1*%
X101044000Y-65052000D03*
D12*
%TO.N,GND*%
X97544000Y-65052000D03*
%TD*%
D15*
%TO.N,*%
%TO.C,J3*%
X74869402Y-69240999D03*
D16*
X69819399Y-69241001D03*
D17*
X74269401Y-69565999D03*
X74269401Y-77556002D03*
D15*
X74869398Y-77880997D03*
D16*
X69819397Y-77881003D03*
%TD*%
D18*
%TO.N,/RX*%
X104219000Y-80292000D03*
%TO.N,/TX*%
X102747343Y-80512912D03*
X111521500Y-78323500D03*
%TO.N,/RX*%
X109836629Y-78006000D03*
%TO.N,+3V3*%
X111077000Y-84102000D03*
%TO.N,/R'*%
X78692000Y-80927000D03*
%TO.N,/G'*%
X77803000Y-78768000D03*
%TO.N,/B'*%
X76660000Y-79149000D03*
%TO.N,/G'*%
X89995000Y-71910000D03*
%TO.N,/B'*%
X89552640Y-74425455D03*
%TO.N,/R'*%
X90249000Y-74704000D03*
%TO.N,/G*%
X92916000Y-70259000D03*
%TO.N,/B*%
X93932000Y-71529000D03*
X96502841Y-72922416D03*
%TO.N,/G*%
X97557290Y-71697664D03*
%TO.N,+3V3*%
X74773596Y-82075603D03*
%TO.N,VIN*%
X85988899Y-68644141D03*
%TO.N,GND*%
X120729000Y-82578000D03*
X73104000Y-71021000D03*
X129912000Y-72011000D03*
X85931000Y-61623000D03*
X112235186Y-71355756D03*
X72723000Y-76101000D03*
X72469000Y-68354000D03*
X103232629Y-81565000D03*
X94215629Y-77374000D03*
X94088186Y-73845756D03*
X76914000Y-76611000D03*
X88852000Y-70132000D03*
X101062000Y-74961000D03*
X104121629Y-68611000D03*
X98362000Y-69611000D03*
X113363000Y-80292000D03*
X106026629Y-70389000D03*
X125912000Y-69761000D03*
X94771995Y-71887787D03*
X88443443Y-84457244D03*
X126698000Y-75847000D03*
X115758000Y-64084000D03*
X70183000Y-63655000D03*
X116662000Y-81511000D03*
X106407629Y-81692000D03*
X76962000Y-84761000D03*
X76914000Y-70132000D03*
X83363443Y-85346244D03*
X95812000Y-80011000D03*
X118443000Y-62131000D03*
X67906498Y-81570503D03*
X118388445Y-85483495D03*
X117046000Y-66830000D03*
X72097498Y-81570503D03*
X85062000Y-77711000D03*
X106875700Y-72161500D03*
X77362000Y-68311000D03*
X107169629Y-76485000D03*
X109568186Y-76308756D03*
%TO.N,VBUS*%
X74685999Y-67141999D03*
%TO.N,/MOS_D*%
X122082777Y-79270500D03*
X118316000Y-84737000D03*
%TO.N,/MOS_M*%
X123269000Y-70259000D03*
X120882500Y-64094500D03*
X103202676Y-79141263D03*
%TO.N,+3V3*%
X83264000Y-66322000D03*
X97390629Y-75088000D03*
X81512197Y-67508000D03*
X103613629Y-76104000D03*
X104883629Y-79406000D03*
X69780699Y-81394998D03*
X116762000Y-82411000D03*
X85662000Y-77111000D03*
X102851629Y-73183000D03*
X98914629Y-76612000D03*
X107423629Y-82327000D03*
X81867000Y-61369000D03*
X99930629Y-72421000D03*
X89262000Y-75761000D03*
X73739000Y-64544000D03*
X100189214Y-82358216D03*
X101073629Y-78517000D03*
X71580000Y-65687000D03*
%TO.N,/XIN*%
X111688186Y-76101000D03*
%TO.N,/USB_D-*%
X73129128Y-73427003D03*
X77422000Y-73949499D03*
%TO.N,/Main_Cont*%
X99422629Y-73685500D03*
X118862000Y-67361000D03*
%TO.N,/RUN*%
X77676000Y-64798000D03*
X102695000Y-70513000D03*
%TO.N,/Drogue_Cont*%
X119212000Y-78761000D03*
X98665745Y-74458116D03*
%TO.N,/XOUT*%
X108791000Y-70132000D03*
%TO.N,/QSPI_SD3*%
X89967443Y-78361244D03*
X93862000Y-81414744D03*
%TO.N,/QSPI_SD0*%
X92000452Y-81872548D03*
X89586443Y-80387744D03*
%TO.N,/QSPI_SCLK*%
X94694000Y-82111000D03*
X89713443Y-79377244D03*
%TO.N,/SDA*%
X111331000Y-80645755D03*
X110912000Y-82525500D03*
%TO.N,/SCL*%
X110421943Y-79550057D03*
X108029000Y-76485000D03*
X110112000Y-82525500D03*
%TO.N,/Speaker*%
X113838186Y-70395756D03*
X107654936Y-73739908D03*
%TO.N,Net-(J3-CC2)*%
X76660000Y-74704000D03*
X73104000Y-74196000D03*
%TO.N,/Mode_Sel*%
X99295629Y-70262000D03*
X73866000Y-82197000D03*
%TD*%
%TA.AperFunction,Conductor*%
%TO.N,GND*%
G36*
X130679539Y-60906185D02*
G01*
X130725294Y-60958989D01*
X130736500Y-61010500D01*
X130736500Y-78874062D01*
X130736448Y-78877650D01*
X130526930Y-86115088D01*
X130505314Y-86181530D01*
X130451208Y-86225738D01*
X130402982Y-86235500D01*
X77372047Y-86235500D01*
X77370802Y-86235494D01*
X67410255Y-86135488D01*
X67343417Y-86115131D01*
X67298194Y-86061870D01*
X67287500Y-86011494D01*
X67287500Y-84022943D01*
X110476500Y-84022943D01*
X110476500Y-84181057D01*
X110496710Y-84256480D01*
X110517423Y-84333783D01*
X110517426Y-84333790D01*
X110596475Y-84470709D01*
X110596479Y-84470714D01*
X110596480Y-84470716D01*
X110708284Y-84582520D01*
X110708286Y-84582521D01*
X110708290Y-84582524D01*
X110838922Y-84657943D01*
X110845216Y-84661577D01*
X110997943Y-84702500D01*
X110997945Y-84702500D01*
X111156055Y-84702500D01*
X111156057Y-84702500D01*
X111308784Y-84661577D01*
X111315078Y-84657943D01*
X117715500Y-84657943D01*
X117715500Y-84816056D01*
X117756423Y-84968783D01*
X117756426Y-84968790D01*
X117835475Y-85105709D01*
X117835479Y-85105714D01*
X117835480Y-85105716D01*
X117947284Y-85217520D01*
X117947286Y-85217521D01*
X117947290Y-85217524D01*
X118084209Y-85296573D01*
X118084216Y-85296577D01*
X118236943Y-85337500D01*
X118236945Y-85337500D01*
X118395055Y-85337500D01*
X118395057Y-85337500D01*
X118547784Y-85296577D01*
X118684716Y-85217520D01*
X118796520Y-85105716D01*
X118875577Y-84968784D01*
X118916500Y-84816057D01*
X118916500Y-84657943D01*
X118875577Y-84505216D01*
X118855655Y-84470709D01*
X118796524Y-84368290D01*
X118796518Y-84368282D01*
X118684717Y-84256481D01*
X118684709Y-84256475D01*
X118547790Y-84177426D01*
X118547786Y-84177424D01*
X118547784Y-84177423D01*
X118395057Y-84136500D01*
X118236943Y-84136500D01*
X118084216Y-84177423D01*
X118084209Y-84177426D01*
X117947290Y-84256475D01*
X117947282Y-84256481D01*
X117835481Y-84368282D01*
X117835475Y-84368290D01*
X117756426Y-84505209D01*
X117756423Y-84505216D01*
X117715500Y-84657943D01*
X111315078Y-84657943D01*
X111445716Y-84582520D01*
X111557520Y-84470716D01*
X111636577Y-84333784D01*
X111677500Y-84181057D01*
X111677500Y-84022943D01*
X111636577Y-83870216D01*
X111636573Y-83870209D01*
X111557524Y-83733290D01*
X111557518Y-83733282D01*
X111445717Y-83621481D01*
X111445709Y-83621475D01*
X111308790Y-83542426D01*
X111308786Y-83542424D01*
X111308784Y-83542423D01*
X111156057Y-83501500D01*
X110997943Y-83501500D01*
X110845216Y-83542423D01*
X110845209Y-83542426D01*
X110708290Y-83621475D01*
X110708282Y-83621481D01*
X110596481Y-83733282D01*
X110596475Y-83733290D01*
X110517426Y-83870209D01*
X110517423Y-83870216D01*
X110476500Y-84022943D01*
X67287500Y-84022943D01*
X67287500Y-82117943D01*
X73265500Y-82117943D01*
X73265500Y-82276057D01*
X73300378Y-82406221D01*
X73306423Y-82428783D01*
X73306426Y-82428790D01*
X73385475Y-82565709D01*
X73385479Y-82565714D01*
X73385480Y-82565716D01*
X73497284Y-82677520D01*
X73497286Y-82677521D01*
X73497290Y-82677524D01*
X73634209Y-82756573D01*
X73634216Y-82756577D01*
X73786943Y-82797500D01*
X73786945Y-82797500D01*
X73945055Y-82797500D01*
X73945057Y-82797500D01*
X74097784Y-82756577D01*
X74234716Y-82677520D01*
X74306685Y-82605550D01*
X74368004Y-82572068D01*
X74437696Y-82577052D01*
X74456362Y-82585846D01*
X74466190Y-82591520D01*
X74541812Y-82635180D01*
X74694539Y-82676103D01*
X74694541Y-82676103D01*
X74852651Y-82676103D01*
X74852653Y-82676103D01*
X75005380Y-82635180D01*
X75142312Y-82556123D01*
X75254116Y-82444319D01*
X75333173Y-82307387D01*
X75374096Y-82154660D01*
X75374096Y-81996546D01*
X75333173Y-81843819D01*
X75304116Y-81793491D01*
X91399952Y-81793491D01*
X91399952Y-81951605D01*
X91438433Y-82095216D01*
X91440875Y-82104331D01*
X91440878Y-82104338D01*
X91519927Y-82241257D01*
X91519931Y-82241262D01*
X91519932Y-82241264D01*
X91631736Y-82353068D01*
X91631738Y-82353069D01*
X91631742Y-82353072D01*
X91768661Y-82432121D01*
X91768668Y-82432125D01*
X91921395Y-82473048D01*
X91921397Y-82473048D01*
X92079507Y-82473048D01*
X92079509Y-82473048D01*
X92232236Y-82432125D01*
X92369168Y-82353068D01*
X92480972Y-82241264D01*
X92560029Y-82104332D01*
X92600952Y-81951605D01*
X92600952Y-81793491D01*
X92560029Y-81640764D01*
X92551956Y-81626781D01*
X92480976Y-81503838D01*
X92480970Y-81503830D01*
X92369169Y-81392029D01*
X92369161Y-81392023D01*
X92271583Y-81335687D01*
X93261500Y-81335687D01*
X93261500Y-81493801D01*
X93299984Y-81637423D01*
X93302423Y-81646527D01*
X93302426Y-81646534D01*
X93381475Y-81783453D01*
X93381479Y-81783458D01*
X93381480Y-81783460D01*
X93493284Y-81895264D01*
X93493286Y-81895265D01*
X93493290Y-81895268D01*
X93615670Y-81965923D01*
X93630216Y-81974321D01*
X93782943Y-82015244D01*
X93782945Y-82015244D01*
X93941055Y-82015244D01*
X93941057Y-82015244D01*
X93941058Y-82015243D01*
X93949113Y-82014183D01*
X93949419Y-82016510D01*
X94007240Y-82017879D01*
X94065108Y-82057033D01*
X94092621Y-82121258D01*
X94093500Y-82135996D01*
X94093500Y-82190057D01*
X94124939Y-82307387D01*
X94134423Y-82342783D01*
X94134426Y-82342790D01*
X94213475Y-82479709D01*
X94213479Y-82479714D01*
X94213480Y-82479716D01*
X94325284Y-82591520D01*
X94325286Y-82591521D01*
X94325290Y-82591524D01*
X94414087Y-82642790D01*
X94462216Y-82670577D01*
X94614943Y-82711500D01*
X94614945Y-82711500D01*
X94773055Y-82711500D01*
X94773057Y-82711500D01*
X94925784Y-82670577D01*
X95062716Y-82591520D01*
X95174520Y-82479716D01*
X95253577Y-82342784D01*
X95270625Y-82279159D01*
X99588714Y-82279159D01*
X99588714Y-82437273D01*
X99623131Y-82565717D01*
X99629637Y-82589999D01*
X99629640Y-82590006D01*
X99708689Y-82726925D01*
X99708693Y-82726930D01*
X99708694Y-82726932D01*
X99820498Y-82838736D01*
X99820500Y-82838737D01*
X99820504Y-82838740D01*
X99957423Y-82917789D01*
X99957430Y-82917793D01*
X100110157Y-82958716D01*
X100110159Y-82958716D01*
X100268269Y-82958716D01*
X100268271Y-82958716D01*
X100420998Y-82917793D01*
X100557930Y-82838736D01*
X100669734Y-82726932D01*
X100748791Y-82590000D01*
X100789714Y-82437273D01*
X100789714Y-82279159D01*
X100781350Y-82247943D01*
X106823129Y-82247943D01*
X106823129Y-82406057D01*
X106863339Y-82556121D01*
X106864052Y-82558783D01*
X106864055Y-82558790D01*
X106943104Y-82695709D01*
X106943108Y-82695714D01*
X106943109Y-82695716D01*
X107054913Y-82807520D01*
X107054915Y-82807521D01*
X107054919Y-82807524D01*
X107108981Y-82838736D01*
X107191845Y-82886577D01*
X107344572Y-82927500D01*
X107344574Y-82927500D01*
X107502684Y-82927500D01*
X107502686Y-82927500D01*
X107655413Y-82886577D01*
X107792345Y-82807520D01*
X107904149Y-82695716D01*
X107983206Y-82558784D01*
X108013308Y-82446443D01*
X109511500Y-82446443D01*
X109511500Y-82604557D01*
X109552234Y-82756576D01*
X109552423Y-82757283D01*
X109552426Y-82757290D01*
X109631475Y-82894209D01*
X109631479Y-82894214D01*
X109631480Y-82894216D01*
X109743284Y-83006020D01*
X109743286Y-83006021D01*
X109743290Y-83006024D01*
X109775403Y-83024564D01*
X109880216Y-83085077D01*
X110032943Y-83126000D01*
X110032945Y-83126000D01*
X110191055Y-83126000D01*
X110191057Y-83126000D01*
X110343784Y-83085077D01*
X110384873Y-83061353D01*
X110450001Y-83023754D01*
X110517901Y-83007281D01*
X110573999Y-83023754D01*
X110680209Y-83085073D01*
X110680216Y-83085077D01*
X110832943Y-83126000D01*
X110832945Y-83126000D01*
X110991055Y-83126000D01*
X110991057Y-83126000D01*
X111143784Y-83085077D01*
X111280716Y-83006020D01*
X111392520Y-82894216D01*
X111471577Y-82757284D01*
X111512500Y-82604557D01*
X111512500Y-82446443D01*
X111481820Y-82331943D01*
X116161500Y-82331943D01*
X116161500Y-82490057D01*
X116200386Y-82635179D01*
X116202423Y-82642783D01*
X116202426Y-82642790D01*
X116281475Y-82779709D01*
X116281479Y-82779714D01*
X116281480Y-82779716D01*
X116393284Y-82891520D01*
X116393286Y-82891521D01*
X116393290Y-82891524D01*
X116509670Y-82958715D01*
X116530216Y-82970577D01*
X116682943Y-83011500D01*
X116682945Y-83011500D01*
X116841055Y-83011500D01*
X116841057Y-83011500D01*
X116993784Y-82970577D01*
X117130716Y-82891520D01*
X117242520Y-82779716D01*
X117321577Y-82642784D01*
X117362500Y-82490057D01*
X117362500Y-82331943D01*
X117321577Y-82179216D01*
X117321573Y-82179209D01*
X117242524Y-82042290D01*
X117242518Y-82042282D01*
X117130717Y-81930481D01*
X117130709Y-81930475D01*
X116993790Y-81851426D01*
X116993786Y-81851424D01*
X116993784Y-81851423D01*
X116841057Y-81810500D01*
X116682943Y-81810500D01*
X116530216Y-81851423D01*
X116530209Y-81851426D01*
X116393290Y-81930475D01*
X116393282Y-81930481D01*
X116281481Y-82042282D01*
X116281475Y-82042290D01*
X116202426Y-82179209D01*
X116202423Y-82179216D01*
X116161500Y-82331943D01*
X111481820Y-82331943D01*
X111471577Y-82293716D01*
X111458987Y-82271909D01*
X111392524Y-82156790D01*
X111392518Y-82156782D01*
X111280717Y-82044981D01*
X111280709Y-82044975D01*
X111143790Y-81965926D01*
X111143786Y-81965924D01*
X111143784Y-81965923D01*
X110991057Y-81925000D01*
X110832943Y-81925000D01*
X110680216Y-81965923D01*
X110680215Y-81965923D01*
X110573999Y-82027246D01*
X110506098Y-82043717D01*
X110450001Y-82027246D01*
X110343784Y-81965923D01*
X110315267Y-81958282D01*
X110191057Y-81925000D01*
X110032943Y-81925000D01*
X109880216Y-81965923D01*
X109880209Y-81965926D01*
X109743290Y-82044975D01*
X109743282Y-82044981D01*
X109631481Y-82156782D01*
X109631475Y-82156790D01*
X109552426Y-82293709D01*
X109552423Y-82293716D01*
X109511500Y-82446443D01*
X108013308Y-82446443D01*
X108024129Y-82406057D01*
X108024129Y-82247943D01*
X107983206Y-82095216D01*
X107954203Y-82044981D01*
X107904153Y-81958290D01*
X107904147Y-81958282D01*
X107792346Y-81846481D01*
X107792338Y-81846475D01*
X107655419Y-81767426D01*
X107655415Y-81767424D01*
X107655413Y-81767423D01*
X107502686Y-81726500D01*
X107344572Y-81726500D01*
X107191845Y-81767423D01*
X107191838Y-81767426D01*
X107054919Y-81846475D01*
X107054911Y-81846481D01*
X106943110Y-81958282D01*
X106943104Y-81958290D01*
X106864055Y-82095209D01*
X106864052Y-82095216D01*
X106823129Y-82247943D01*
X100781350Y-82247943D01*
X100748791Y-82126432D01*
X100711070Y-82061097D01*
X100669738Y-81989506D01*
X100669732Y-81989498D01*
X100557931Y-81877697D01*
X100557923Y-81877691D01*
X100421004Y-81798642D01*
X100421000Y-81798640D01*
X100420998Y-81798639D01*
X100268271Y-81757716D01*
X100110157Y-81757716D01*
X99957430Y-81798639D01*
X99957423Y-81798642D01*
X99820504Y-81877691D01*
X99820496Y-81877697D01*
X99708695Y-81989498D01*
X99708689Y-81989506D01*
X99629640Y-82126425D01*
X99629637Y-82126432D01*
X99588714Y-82279159D01*
X95270625Y-82279159D01*
X95294500Y-82190057D01*
X95294500Y-82031943D01*
X95253577Y-81879216D01*
X95207058Y-81798642D01*
X95174524Y-81742290D01*
X95174518Y-81742282D01*
X95062717Y-81630481D01*
X95062709Y-81630475D01*
X94925790Y-81551426D01*
X94925786Y-81551424D01*
X94925784Y-81551423D01*
X94773057Y-81510500D01*
X94614943Y-81510500D01*
X94614941Y-81510500D01*
X94606887Y-81511561D01*
X94606581Y-81509238D01*
X94548734Y-81507856D01*
X94490874Y-81468688D01*
X94463376Y-81404458D01*
X94462500Y-81389747D01*
X94462500Y-81335689D01*
X94462500Y-81335687D01*
X94421577Y-81182960D01*
X94381424Y-81113412D01*
X94342524Y-81046034D01*
X94342518Y-81046026D01*
X94230717Y-80934225D01*
X94230709Y-80934219D01*
X94093790Y-80855170D01*
X94093786Y-80855168D01*
X94093784Y-80855167D01*
X93941057Y-80814244D01*
X93782943Y-80814244D01*
X93630216Y-80855167D01*
X93630209Y-80855170D01*
X93493290Y-80934219D01*
X93493282Y-80934225D01*
X93381481Y-81046026D01*
X93381475Y-81046034D01*
X93302426Y-81182953D01*
X93302423Y-81182960D01*
X93261500Y-81335687D01*
X92271583Y-81335687D01*
X92232242Y-81312974D01*
X92232238Y-81312972D01*
X92232236Y-81312971D01*
X92079509Y-81272048D01*
X91921395Y-81272048D01*
X91768668Y-81312971D01*
X91768661Y-81312974D01*
X91631742Y-81392023D01*
X91631734Y-81392029D01*
X91519933Y-81503830D01*
X91519927Y-81503838D01*
X91440878Y-81640757D01*
X91440875Y-81640764D01*
X91399952Y-81793491D01*
X75304116Y-81793491D01*
X75274551Y-81742282D01*
X75254118Y-81706890D01*
X75254114Y-81706885D01*
X75142313Y-81595084D01*
X75142305Y-81595078D01*
X75005386Y-81516029D01*
X75005382Y-81516027D01*
X75005380Y-81516026D01*
X74852653Y-81475103D01*
X74694539Y-81475103D01*
X74541812Y-81516026D01*
X74541805Y-81516029D01*
X74404886Y-81595078D01*
X74404878Y-81595084D01*
X74332911Y-81667050D01*
X74271588Y-81700535D01*
X74201896Y-81695549D01*
X74183232Y-81686756D01*
X74097784Y-81637423D01*
X74071872Y-81630480D01*
X73945057Y-81596500D01*
X73786943Y-81596500D01*
X73634216Y-81637423D01*
X73634209Y-81637426D01*
X73497290Y-81716475D01*
X73497282Y-81716481D01*
X73385481Y-81828282D01*
X73385475Y-81828290D01*
X73306426Y-81965209D01*
X73306423Y-81965216D01*
X73265500Y-82117943D01*
X67287500Y-82117943D01*
X67287500Y-81315941D01*
X69180199Y-81315941D01*
X69180199Y-81474055D01*
X69212629Y-81595083D01*
X69221122Y-81626781D01*
X69221125Y-81626788D01*
X69300174Y-81763707D01*
X69300178Y-81763712D01*
X69300179Y-81763714D01*
X69411983Y-81875518D01*
X69411985Y-81875519D01*
X69411989Y-81875522D01*
X69543767Y-81951603D01*
X69548915Y-81954575D01*
X69701642Y-81995498D01*
X69701644Y-81995498D01*
X69859753Y-81995498D01*
X69859756Y-81995498D01*
X70012483Y-81954575D01*
X70149415Y-81875518D01*
X70261219Y-81763714D01*
X70340276Y-81626782D01*
X70381199Y-81474055D01*
X70381199Y-81315941D01*
X70340276Y-81163214D01*
X70318952Y-81126279D01*
X70261223Y-81026288D01*
X70261217Y-81026280D01*
X70149416Y-80914479D01*
X70149408Y-80914473D01*
X70034173Y-80847943D01*
X78091500Y-80847943D01*
X78091500Y-81006057D01*
X78123714Y-81126279D01*
X78132423Y-81158783D01*
X78132426Y-81158790D01*
X78211475Y-81295709D01*
X78211479Y-81295714D01*
X78211480Y-81295716D01*
X78323284Y-81407520D01*
X78323286Y-81407521D01*
X78323290Y-81407524D01*
X78438525Y-81474054D01*
X78460216Y-81486577D01*
X78612943Y-81527500D01*
X78612945Y-81527500D01*
X78771055Y-81527500D01*
X78771057Y-81527500D01*
X78923784Y-81486577D01*
X79060716Y-81407520D01*
X79172520Y-81295716D01*
X79251577Y-81158784D01*
X79292500Y-81006057D01*
X79292500Y-80847943D01*
X79251577Y-80695216D01*
X79231047Y-80659657D01*
X79172524Y-80558290D01*
X79172518Y-80558282D01*
X79060717Y-80446481D01*
X79060712Y-80446477D01*
X78993977Y-80407948D01*
X78993976Y-80407948D01*
X78923784Y-80367423D01*
X78771057Y-80326500D01*
X78612943Y-80326500D01*
X78460216Y-80367423D01*
X78460209Y-80367426D01*
X78323290Y-80446475D01*
X78323282Y-80446481D01*
X78211481Y-80558282D01*
X78211475Y-80558290D01*
X78132426Y-80695209D01*
X78132423Y-80695216D01*
X78091500Y-80847943D01*
X70034173Y-80847943D01*
X70012489Y-80835424D01*
X70012485Y-80835422D01*
X70012483Y-80835421D01*
X69859756Y-80794498D01*
X69701642Y-80794498D01*
X69548915Y-80835421D01*
X69548908Y-80835424D01*
X69411989Y-80914473D01*
X69411981Y-80914479D01*
X69300180Y-81026280D01*
X69300174Y-81026288D01*
X69221125Y-81163207D01*
X69221122Y-81163214D01*
X69180199Y-81315941D01*
X67287500Y-81315941D01*
X67287500Y-81120174D01*
X67287502Y-81119543D01*
X67288444Y-80934225D01*
X67291626Y-80308687D01*
X88985943Y-80308687D01*
X88985943Y-80466801D01*
X89021655Y-80600078D01*
X89026866Y-80619527D01*
X89026869Y-80619534D01*
X89105918Y-80756453D01*
X89105922Y-80756458D01*
X89105923Y-80756460D01*
X89217727Y-80868264D01*
X89217729Y-80868265D01*
X89217733Y-80868268D01*
X89297774Y-80914479D01*
X89354659Y-80947321D01*
X89507386Y-80988244D01*
X89507388Y-80988244D01*
X89665498Y-80988244D01*
X89665500Y-80988244D01*
X89818227Y-80947321D01*
X89955159Y-80868264D01*
X90066963Y-80756460D01*
X90146020Y-80619528D01*
X90186943Y-80466801D01*
X90186943Y-80433855D01*
X102146843Y-80433855D01*
X102146843Y-80591969D01*
X102181325Y-80720655D01*
X102187766Y-80744695D01*
X102187769Y-80744702D01*
X102266818Y-80881621D01*
X102266822Y-80881626D01*
X102266823Y-80881628D01*
X102378627Y-80993432D01*
X102378629Y-80993433D01*
X102378633Y-80993436D01*
X102469737Y-81046034D01*
X102515559Y-81072489D01*
X102668286Y-81113412D01*
X102668288Y-81113412D01*
X102826398Y-81113412D01*
X102826400Y-81113412D01*
X102979127Y-81072489D01*
X103116059Y-80993432D01*
X103227863Y-80881628D01*
X103306920Y-80744696D01*
X103347843Y-80591969D01*
X103347843Y-80433855D01*
X103306920Y-80281128D01*
X103267554Y-80212943D01*
X103618500Y-80212943D01*
X103618500Y-80371057D01*
X103644155Y-80466801D01*
X103659423Y-80523783D01*
X103659426Y-80523790D01*
X103738475Y-80660709D01*
X103738479Y-80660714D01*
X103738480Y-80660716D01*
X103850284Y-80772520D01*
X103850286Y-80772521D01*
X103850290Y-80772524D01*
X103959238Y-80835424D01*
X103987216Y-80851577D01*
X104139943Y-80892500D01*
X104139945Y-80892500D01*
X104298055Y-80892500D01*
X104298057Y-80892500D01*
X104450784Y-80851577D01*
X104587716Y-80772520D01*
X104699520Y-80660716D01*
X104778577Y-80523784D01*
X104819500Y-80371057D01*
X104819500Y-80212943D01*
X104806008Y-80162590D01*
X104807671Y-80092744D01*
X104846833Y-80034882D01*
X104911061Y-80007377D01*
X104925783Y-80006500D01*
X104962684Y-80006500D01*
X104962686Y-80006500D01*
X105115413Y-79965577D01*
X105252345Y-79886520D01*
X105364149Y-79774716D01*
X105443206Y-79637784D01*
X105484129Y-79485057D01*
X105484129Y-79471000D01*
X109821443Y-79471000D01*
X109821443Y-79629114D01*
X109853701Y-79749500D01*
X109862366Y-79781840D01*
X109862369Y-79781847D01*
X109941418Y-79918766D01*
X109941422Y-79918771D01*
X109941423Y-79918773D01*
X110053227Y-80030577D01*
X110053229Y-80030578D01*
X110053233Y-80030581D01*
X110160904Y-80092744D01*
X110190159Y-80109634D01*
X110342886Y-80150557D01*
X110342888Y-80150557D01*
X110500998Y-80150557D01*
X110501000Y-80150557D01*
X110653727Y-80109634D01*
X110699650Y-80083120D01*
X110767547Y-80066648D01*
X110833574Y-80089500D01*
X110876765Y-80144421D01*
X110883407Y-80213974D01*
X110854560Y-80269930D01*
X110855426Y-80270594D01*
X110851747Y-80275388D01*
X110851392Y-80276077D01*
X110850581Y-80276907D01*
X110850475Y-80277045D01*
X110771426Y-80413964D01*
X110771423Y-80413971D01*
X110730500Y-80566698D01*
X110730500Y-80724812D01*
X110768938Y-80868262D01*
X110771423Y-80877538D01*
X110771426Y-80877545D01*
X110850475Y-81014464D01*
X110850479Y-81014469D01*
X110850480Y-81014471D01*
X110962284Y-81126275D01*
X110962286Y-81126276D01*
X110962290Y-81126279D01*
X111060454Y-81182953D01*
X111099216Y-81205332D01*
X111251943Y-81246255D01*
X111251945Y-81246255D01*
X111410055Y-81246255D01*
X111410057Y-81246255D01*
X111562784Y-81205332D01*
X111699716Y-81126275D01*
X111811520Y-81014471D01*
X111848800Y-80949900D01*
X122911500Y-80949900D01*
X122911500Y-82936091D01*
X122922123Y-83024562D01*
X122977639Y-83165342D01*
X122977640Y-83165344D01*
X123069077Y-83285922D01*
X123131908Y-83333568D01*
X123189658Y-83377361D01*
X123330436Y-83432876D01*
X123418901Y-83443500D01*
X125405098Y-83443499D01*
X125493564Y-83432876D01*
X125634342Y-83377361D01*
X125754922Y-83285922D01*
X125846361Y-83165342D01*
X125901876Y-83024564D01*
X125912500Y-82936099D01*
X125912499Y-81824902D01*
X126411500Y-81824902D01*
X126411500Y-82061097D01*
X126448446Y-82294368D01*
X126521433Y-82518996D01*
X126601484Y-82676103D01*
X126628657Y-82729433D01*
X126767483Y-82920510D01*
X126934490Y-83087517D01*
X127125567Y-83226343D01*
X127224991Y-83277002D01*
X127336003Y-83333566D01*
X127336005Y-83333566D01*
X127336008Y-83333568D01*
X127456412Y-83372689D01*
X127560631Y-83406553D01*
X127793903Y-83443500D01*
X127793908Y-83443500D01*
X128030097Y-83443500D01*
X128263368Y-83406553D01*
X128353211Y-83377361D01*
X128487992Y-83333568D01*
X128698433Y-83226343D01*
X128889510Y-83087517D01*
X129056517Y-82920510D01*
X129195343Y-82729433D01*
X129302568Y-82518992D01*
X129375553Y-82294368D01*
X129384332Y-82238938D01*
X129412500Y-82061097D01*
X129412500Y-81824902D01*
X129375553Y-81591631D01*
X129315731Y-81407520D01*
X129302568Y-81367008D01*
X129302566Y-81367005D01*
X129302566Y-81367003D01*
X129208787Y-81182953D01*
X129195343Y-81156567D01*
X129056517Y-80965490D01*
X128889510Y-80798483D01*
X128698433Y-80659657D01*
X128487996Y-80552433D01*
X128263368Y-80479446D01*
X128030097Y-80442500D01*
X128030092Y-80442500D01*
X127793908Y-80442500D01*
X127793903Y-80442500D01*
X127560631Y-80479446D01*
X127336003Y-80552433D01*
X127125566Y-80659657D01*
X127035892Y-80724810D01*
X126934490Y-80798483D01*
X126934488Y-80798485D01*
X126934487Y-80798485D01*
X126767485Y-80965487D01*
X126767485Y-80965488D01*
X126767483Y-80965490D01*
X126723316Y-81026280D01*
X126628657Y-81156566D01*
X126521433Y-81367003D01*
X126448446Y-81591631D01*
X126411500Y-81824902D01*
X125912499Y-81824902D01*
X125912499Y-80949902D01*
X125901876Y-80861436D01*
X125846361Y-80720658D01*
X125827068Y-80695216D01*
X125754922Y-80600077D01*
X125634344Y-80508640D01*
X125634342Y-80508639D01*
X125493564Y-80453124D01*
X125493561Y-80453123D01*
X125405099Y-80442500D01*
X123418908Y-80442500D01*
X123330437Y-80453123D01*
X123189657Y-80508639D01*
X123189655Y-80508640D01*
X123069077Y-80600077D01*
X122977640Y-80720655D01*
X122977639Y-80720658D01*
X122924597Y-80855167D01*
X122922124Y-80861437D01*
X122922123Y-80861438D01*
X122911500Y-80949900D01*
X111848800Y-80949900D01*
X111890577Y-80877539D01*
X111931500Y-80724812D01*
X111931500Y-80566698D01*
X111890577Y-80413971D01*
X111865800Y-80371055D01*
X111811524Y-80277045D01*
X111811518Y-80277037D01*
X111699717Y-80165236D01*
X111699709Y-80165230D01*
X111562790Y-80086181D01*
X111562786Y-80086179D01*
X111562784Y-80086178D01*
X111410057Y-80045255D01*
X111251943Y-80045255D01*
X111099216Y-80086178D01*
X111099211Y-80086180D01*
X111053292Y-80112691D01*
X110985392Y-80129162D01*
X110919365Y-80106309D01*
X110876176Y-80051387D01*
X110869535Y-79981834D01*
X110898381Y-79925881D01*
X110897517Y-79925218D01*
X110901194Y-79920426D01*
X110901552Y-79919732D01*
X110902368Y-79918895D01*
X110902457Y-79918778D01*
X110902463Y-79918773D01*
X110981520Y-79781841D01*
X111022443Y-79629114D01*
X111022443Y-79471000D01*
X110981520Y-79318273D01*
X110969925Y-79298189D01*
X110902467Y-79181347D01*
X110902461Y-79181339D01*
X110790660Y-79069538D01*
X110790652Y-79069532D01*
X110653733Y-78990483D01*
X110653729Y-78990481D01*
X110653727Y-78990480D01*
X110501000Y-78949557D01*
X110342886Y-78949557D01*
X110190159Y-78990480D01*
X110190152Y-78990483D01*
X110053233Y-79069532D01*
X110053225Y-79069538D01*
X109941424Y-79181339D01*
X109941418Y-79181347D01*
X109862369Y-79318266D01*
X109862366Y-79318273D01*
X109821443Y-79471000D01*
X105484129Y-79471000D01*
X105484129Y-79326943D01*
X105443206Y-79174216D01*
X105412665Y-79121317D01*
X105364153Y-79037290D01*
X105364147Y-79037282D01*
X105252346Y-78925481D01*
X105252338Y-78925475D01*
X105115419Y-78846426D01*
X105115415Y-78846424D01*
X105115413Y-78846423D01*
X104962686Y-78805500D01*
X104804572Y-78805500D01*
X104651845Y-78846423D01*
X104651838Y-78846426D01*
X104514919Y-78925475D01*
X104514911Y-78925481D01*
X104403110Y-79037282D01*
X104403104Y-79037290D01*
X104324055Y-79174209D01*
X104324052Y-79174216D01*
X104283129Y-79326943D01*
X104283129Y-79485057D01*
X104296620Y-79535409D01*
X104294958Y-79605256D01*
X104255796Y-79663118D01*
X104191568Y-79690623D01*
X104176846Y-79691500D01*
X104139943Y-79691500D01*
X103987216Y-79732423D01*
X103987209Y-79732426D01*
X103850290Y-79811475D01*
X103850282Y-79811481D01*
X103738481Y-79923282D01*
X103738475Y-79923290D01*
X103659426Y-80060209D01*
X103659423Y-80060216D01*
X103618500Y-80212943D01*
X103267554Y-80212943D01*
X103227863Y-80144196D01*
X103116059Y-80032392D01*
X103116058Y-80032391D01*
X103116055Y-80032389D01*
X102997777Y-79964102D01*
X102997775Y-79964101D01*
X102979127Y-79953335D01*
X102867623Y-79923457D01*
X102867605Y-79923452D01*
X102826401Y-79912412D01*
X102826400Y-79912412D01*
X102668286Y-79912412D01*
X102515559Y-79953335D01*
X102515552Y-79953338D01*
X102378633Y-80032387D01*
X102378625Y-80032393D01*
X102266824Y-80144194D01*
X102266818Y-80144202D01*
X102187769Y-80281121D01*
X102187766Y-80281128D01*
X102146843Y-80433855D01*
X90186943Y-80433855D01*
X90186943Y-80308687D01*
X90146020Y-80155960D01*
X90139227Y-80144194D01*
X90062900Y-80011989D01*
X90065125Y-80010703D01*
X90044550Y-79957491D01*
X90058583Y-79889045D01*
X90080438Y-79859483D01*
X90082154Y-79857766D01*
X90082159Y-79857764D01*
X90193963Y-79745960D01*
X90273020Y-79609028D01*
X90313943Y-79456301D01*
X90313943Y-79298187D01*
X90273020Y-79145460D01*
X90219299Y-79052412D01*
X90202827Y-78984514D01*
X90225680Y-78918487D01*
X90264686Y-78883028D01*
X90336159Y-78841764D01*
X90447963Y-78729960D01*
X90527020Y-78593028D01*
X90567943Y-78440301D01*
X90567943Y-78437943D01*
X100473129Y-78437943D01*
X100473129Y-78596057D01*
X100509009Y-78729961D01*
X100514052Y-78748783D01*
X100514055Y-78748790D01*
X100593104Y-78885709D01*
X100593108Y-78885714D01*
X100593109Y-78885716D01*
X100704913Y-78997520D01*
X100704915Y-78997521D01*
X100704919Y-78997524D01*
X100829651Y-79069537D01*
X100841845Y-79076577D01*
X100994572Y-79117500D01*
X100994574Y-79117500D01*
X101152684Y-79117500D01*
X101152686Y-79117500D01*
X101305413Y-79076577D01*
X101330305Y-79062206D01*
X102602176Y-79062206D01*
X102602176Y-79220320D01*
X102641881Y-79368499D01*
X102643099Y-79373046D01*
X102643102Y-79373053D01*
X102722151Y-79509972D01*
X102722155Y-79509977D01*
X102722156Y-79509979D01*
X102833960Y-79621783D01*
X102970892Y-79700840D01*
X103123619Y-79741763D01*
X103123622Y-79741763D01*
X103281731Y-79741763D01*
X103281733Y-79741763D01*
X103434460Y-79700840D01*
X103571392Y-79621783D01*
X103683196Y-79509979D01*
X103762253Y-79373047D01*
X103803176Y-79220320D01*
X103803176Y-79062206D01*
X103762253Y-78909479D01*
X103747008Y-78883073D01*
X103683200Y-78772553D01*
X103683194Y-78772545D01*
X103571393Y-78660744D01*
X103571385Y-78660738D01*
X103434466Y-78581689D01*
X103434462Y-78581687D01*
X103434460Y-78581686D01*
X103281733Y-78540763D01*
X103123619Y-78540763D01*
X102970892Y-78581686D01*
X102970885Y-78581689D01*
X102833966Y-78660738D01*
X102833958Y-78660744D01*
X102722157Y-78772545D01*
X102722151Y-78772553D01*
X102643102Y-78909472D01*
X102643099Y-78909479D01*
X102602176Y-79062206D01*
X101330305Y-79062206D01*
X101442345Y-78997520D01*
X101554149Y-78885716D01*
X101633206Y-78748784D01*
X101674129Y-78596057D01*
X101674129Y-78437943D01*
X101633206Y-78285216D01*
X101605825Y-78237790D01*
X101554153Y-78148290D01*
X101554147Y-78148282D01*
X101442346Y-78036481D01*
X101442345Y-78036480D01*
X101424545Y-78026203D01*
X101424543Y-78026201D01*
X101305419Y-77957426D01*
X101305415Y-77957424D01*
X101305413Y-77957423D01*
X101191660Y-77926943D01*
X109236129Y-77926943D01*
X109236129Y-78085057D01*
X109268060Y-78204223D01*
X109277052Y-78237783D01*
X109277055Y-78237790D01*
X109356104Y-78374709D01*
X109356108Y-78374714D01*
X109356109Y-78374716D01*
X109467913Y-78486520D01*
X109467915Y-78486521D01*
X109467919Y-78486524D01*
X109561865Y-78540763D01*
X109604845Y-78565577D01*
X109757572Y-78606500D01*
X109757574Y-78606500D01*
X109915684Y-78606500D01*
X109915686Y-78606500D01*
X110068413Y-78565577D01*
X110205345Y-78486520D01*
X110317149Y-78374716D01*
X110392361Y-78244443D01*
X110921000Y-78244443D01*
X110921000Y-78402557D01*
X110960106Y-78548500D01*
X110961923Y-78555283D01*
X110961926Y-78555290D01*
X111040975Y-78692209D01*
X111040979Y-78692214D01*
X111040980Y-78692216D01*
X111152784Y-78804020D01*
X111152786Y-78804021D01*
X111152790Y-78804024D01*
X111274101Y-78874062D01*
X111289716Y-78883077D01*
X111442443Y-78924000D01*
X111442445Y-78924000D01*
X111600555Y-78924000D01*
X111600557Y-78924000D01*
X111753284Y-78883077D01*
X111890216Y-78804020D01*
X112002020Y-78692216D01*
X112007951Y-78681943D01*
X118611500Y-78681943D01*
X118611500Y-78840057D01*
X118651807Y-78990483D01*
X118652423Y-78992783D01*
X118652426Y-78992790D01*
X118731475Y-79129709D01*
X118731479Y-79129714D01*
X118731480Y-79129716D01*
X118843284Y-79241520D01*
X118843286Y-79241521D01*
X118843290Y-79241524D01*
X118855408Y-79248520D01*
X118980216Y-79320577D01*
X119132943Y-79361500D01*
X119132945Y-79361500D01*
X119291055Y-79361500D01*
X119291057Y-79361500D01*
X119443784Y-79320577D01*
X119580716Y-79241520D01*
X119630793Y-79191443D01*
X121482277Y-79191443D01*
X121482277Y-79349557D01*
X121518584Y-79485054D01*
X121523200Y-79502283D01*
X121523203Y-79502290D01*
X121602252Y-79639209D01*
X121602256Y-79639214D01*
X121602257Y-79639216D01*
X121714061Y-79751020D01*
X121714063Y-79751021D01*
X121714067Y-79751024D01*
X121818783Y-79811481D01*
X121850993Y-79830077D01*
X122003720Y-79871000D01*
X122003722Y-79871000D01*
X122161832Y-79871000D01*
X122161834Y-79871000D01*
X122314561Y-79830077D01*
X122451493Y-79751020D01*
X122563297Y-79639216D01*
X122642354Y-79502284D01*
X122683277Y-79349557D01*
X122683277Y-79191443D01*
X122642354Y-79038716D01*
X122615839Y-78992790D01*
X122563301Y-78901790D01*
X122563295Y-78901782D01*
X122451494Y-78789981D01*
X122451486Y-78789975D01*
X122314567Y-78710926D01*
X122314563Y-78710924D01*
X122314561Y-78710923D01*
X122161834Y-78670000D01*
X122003720Y-78670000D01*
X121850993Y-78710923D01*
X121850986Y-78710926D01*
X121714067Y-78789975D01*
X121714059Y-78789981D01*
X121602258Y-78901782D01*
X121602252Y-78901790D01*
X121523203Y-79038709D01*
X121523200Y-79038716D01*
X121482277Y-79191443D01*
X119630793Y-79191443D01*
X119692520Y-79129716D01*
X119699574Y-79117499D01*
X119713398Y-79093553D01*
X119771577Y-78992784D01*
X119812500Y-78840057D01*
X119812500Y-78681943D01*
X119771577Y-78529216D01*
X119738200Y-78471405D01*
X119692524Y-78392290D01*
X119692518Y-78392282D01*
X119580717Y-78280481D01*
X119580709Y-78280475D01*
X119443790Y-78201426D01*
X119443786Y-78201424D01*
X119443784Y-78201423D01*
X119291057Y-78160500D01*
X119132943Y-78160500D01*
X118980216Y-78201423D01*
X118980209Y-78201426D01*
X118843290Y-78280475D01*
X118843282Y-78280481D01*
X118731481Y-78392282D01*
X118731475Y-78392290D01*
X118652426Y-78529209D01*
X118652423Y-78529216D01*
X118611500Y-78681943D01*
X112007951Y-78681943D01*
X112048398Y-78611887D01*
X112048439Y-78611816D01*
X112075134Y-78565577D01*
X112081077Y-78555284D01*
X112122000Y-78402557D01*
X112122000Y-78244443D01*
X112081077Y-78091716D01*
X112081073Y-78091709D01*
X112002024Y-77954790D01*
X112002018Y-77954782D01*
X111890217Y-77842981D01*
X111890209Y-77842975D01*
X111753290Y-77763926D01*
X111753286Y-77763924D01*
X111753284Y-77763923D01*
X111600557Y-77723000D01*
X111442443Y-77723000D01*
X111289716Y-77763923D01*
X111289709Y-77763926D01*
X111152790Y-77842975D01*
X111152782Y-77842981D01*
X111040981Y-77954782D01*
X111040975Y-77954790D01*
X110961926Y-78091709D01*
X110961923Y-78091716D01*
X110921000Y-78244443D01*
X110392361Y-78244443D01*
X110396206Y-78237784D01*
X110437129Y-78085057D01*
X110437129Y-77926943D01*
X110396206Y-77774216D01*
X110366637Y-77723000D01*
X110317153Y-77637290D01*
X110317147Y-77637282D01*
X110205346Y-77525481D01*
X110205338Y-77525475D01*
X110068419Y-77446426D01*
X110068415Y-77446424D01*
X110068413Y-77446423D01*
X109915686Y-77405500D01*
X109757572Y-77405500D01*
X109604845Y-77446423D01*
X109604838Y-77446426D01*
X109467919Y-77525475D01*
X109467911Y-77525481D01*
X109356110Y-77637282D01*
X109356104Y-77637290D01*
X109277055Y-77774209D01*
X109277052Y-77774216D01*
X109236129Y-77926943D01*
X101191660Y-77926943D01*
X101152686Y-77916500D01*
X100994572Y-77916500D01*
X100841845Y-77957423D01*
X100841838Y-77957426D01*
X100704919Y-78036475D01*
X100704911Y-78036481D01*
X100593110Y-78148282D01*
X100593104Y-78148290D01*
X100514055Y-78285209D01*
X100514052Y-78285216D01*
X100473129Y-78437943D01*
X90567943Y-78437943D01*
X90567943Y-78282187D01*
X90527020Y-78129460D01*
X90511576Y-78102710D01*
X90447967Y-77992534D01*
X90447961Y-77992526D01*
X90336160Y-77880725D01*
X90336152Y-77880719D01*
X90199233Y-77801670D01*
X90199229Y-77801668D01*
X90199227Y-77801667D01*
X90046500Y-77760744D01*
X89888386Y-77760744D01*
X89735659Y-77801667D01*
X89735652Y-77801670D01*
X89598733Y-77880719D01*
X89598725Y-77880725D01*
X89486924Y-77992526D01*
X89486918Y-77992534D01*
X89407869Y-78129453D01*
X89407866Y-78129460D01*
X89366943Y-78282187D01*
X89366943Y-78440301D01*
X89400511Y-78565576D01*
X89407866Y-78593027D01*
X89407866Y-78593028D01*
X89461585Y-78686074D01*
X89478056Y-78753975D01*
X89455204Y-78820001D01*
X89416197Y-78855460D01*
X89344730Y-78896721D01*
X89344725Y-78896725D01*
X89232924Y-79008526D01*
X89232918Y-79008534D01*
X89153869Y-79145453D01*
X89153866Y-79145460D01*
X89112943Y-79298187D01*
X89112943Y-79456301D01*
X89152856Y-79605256D01*
X89153866Y-79609027D01*
X89153869Y-79609034D01*
X89236986Y-79752999D01*
X89234760Y-79754283D01*
X89255336Y-79807503D01*
X89241299Y-79875948D01*
X89219448Y-79905503D01*
X89105921Y-80019030D01*
X89105918Y-80019034D01*
X89026869Y-80155953D01*
X89026866Y-80155960D01*
X88985943Y-80308687D01*
X67291626Y-80308687D01*
X67297926Y-79069943D01*
X76059500Y-79069943D01*
X76059500Y-79228057D01*
X76098352Y-79373053D01*
X76100423Y-79380783D01*
X76100426Y-79380790D01*
X76179475Y-79517709D01*
X76179479Y-79517714D01*
X76179480Y-79517716D01*
X76291284Y-79629520D01*
X76291286Y-79629521D01*
X76291290Y-79629524D01*
X76396162Y-79690071D01*
X76428216Y-79708577D01*
X76580943Y-79749500D01*
X76580945Y-79749500D01*
X76739055Y-79749500D01*
X76739057Y-79749500D01*
X76891784Y-79708577D01*
X77028716Y-79629520D01*
X77140520Y-79517716D01*
X77219577Y-79380784D01*
X77237558Y-79313675D01*
X77273921Y-79254018D01*
X77336768Y-79223488D01*
X77406144Y-79231782D01*
X77432821Y-79247397D01*
X77434281Y-79248517D01*
X77434284Y-79248520D01*
X77434287Y-79248521D01*
X77434290Y-79248524D01*
X77570118Y-79326943D01*
X77571216Y-79327577D01*
X77723943Y-79368500D01*
X77723945Y-79368500D01*
X77882055Y-79368500D01*
X77882057Y-79368500D01*
X78034784Y-79327577D01*
X78171716Y-79248520D01*
X78283520Y-79136716D01*
X78362577Y-78999784D01*
X78403500Y-78847057D01*
X78403500Y-78688943D01*
X78362577Y-78536216D01*
X78307201Y-78440301D01*
X78283524Y-78399290D01*
X78283518Y-78399282D01*
X78171717Y-78287481D01*
X78171709Y-78287475D01*
X78034790Y-78208426D01*
X78034786Y-78208424D01*
X78034784Y-78208423D01*
X77882057Y-78167500D01*
X77723943Y-78167500D01*
X77571216Y-78208423D01*
X77571209Y-78208426D01*
X77434290Y-78287475D01*
X77434282Y-78287481D01*
X77322481Y-78399282D01*
X77322475Y-78399290D01*
X77243426Y-78536209D01*
X77243423Y-78536214D01*
X77225442Y-78603322D01*
X77189076Y-78662983D01*
X77126229Y-78693511D01*
X77056854Y-78685216D01*
X77030179Y-78669603D01*
X77028709Y-78668475D01*
X76891790Y-78589426D01*
X76891786Y-78589424D01*
X76891784Y-78589423D01*
X76739057Y-78548500D01*
X76580943Y-78548500D01*
X76428216Y-78589423D01*
X76428209Y-78589426D01*
X76291290Y-78668475D01*
X76291282Y-78668481D01*
X76179481Y-78780282D01*
X76179475Y-78780290D01*
X76100426Y-78917209D01*
X76100423Y-78917216D01*
X76059500Y-79069943D01*
X67297926Y-79069943D01*
X67301320Y-78402555D01*
X67304379Y-77801131D01*
X68259197Y-77801131D01*
X68259197Y-77960874D01*
X68290357Y-78117526D01*
X68290360Y-78117538D01*
X68351482Y-78265101D01*
X68351489Y-78265114D01*
X68440229Y-78397921D01*
X68440232Y-78397925D01*
X68553174Y-78510867D01*
X68553178Y-78510870D01*
X68685985Y-78599610D01*
X68685998Y-78599617D01*
X68786141Y-78641097D01*
X68833566Y-78660741D01*
X68975349Y-78688943D01*
X68990225Y-78691902D01*
X68990229Y-78691903D01*
X68990230Y-78691903D01*
X70648565Y-78691903D01*
X70648566Y-78691902D01*
X70805228Y-78660741D01*
X70952802Y-78599614D01*
X71085616Y-78510870D01*
X71198564Y-78397922D01*
X71287308Y-78265108D01*
X71348435Y-78117534D01*
X71379597Y-77960870D01*
X71379597Y-77801136D01*
X71348435Y-77644472D01*
X71344872Y-77635869D01*
X71287311Y-77496904D01*
X71287304Y-77496891D01*
X71198564Y-77364084D01*
X71198561Y-77364080D01*
X71085619Y-77251138D01*
X71085615Y-77251135D01*
X70952808Y-77162395D01*
X70952795Y-77162388D01*
X70805232Y-77101266D01*
X70805220Y-77101263D01*
X70648568Y-77070103D01*
X70648564Y-77070103D01*
X68990230Y-77070103D01*
X68990225Y-77070103D01*
X68833573Y-77101263D01*
X68833561Y-77101266D01*
X68685998Y-77162388D01*
X68685985Y-77162395D01*
X68553178Y-77251135D01*
X68553174Y-77251138D01*
X68440232Y-77364080D01*
X68440229Y-77364084D01*
X68351489Y-77496891D01*
X68351482Y-77496904D01*
X68290360Y-77644467D01*
X68290357Y-77644479D01*
X68259197Y-77801131D01*
X67304379Y-77801131D01*
X67304413Y-77794413D01*
X67308811Y-76929481D01*
X72429899Y-76929481D01*
X72429899Y-77062319D01*
X72450475Y-77139109D01*
X72451444Y-77149631D01*
X72447741Y-77193093D01*
X72429900Y-77259679D01*
X72429900Y-77259681D01*
X72429900Y-77392519D01*
X72464281Y-77520830D01*
X72530700Y-77635870D01*
X72624630Y-77729800D01*
X72739670Y-77796219D01*
X72867981Y-77830600D01*
X72867984Y-77830600D01*
X73000816Y-77830600D01*
X73000819Y-77830600D01*
X73129130Y-77796219D01*
X73244170Y-77729800D01*
X73249917Y-77724053D01*
X73311240Y-77690568D01*
X73380932Y-77695552D01*
X73436865Y-77737424D01*
X73461282Y-77802888D01*
X73461598Y-77811734D01*
X73461598Y-77955864D01*
X73490806Y-78102702D01*
X73490808Y-78102710D01*
X73548104Y-78241036D01*
X73548109Y-78241045D01*
X73631289Y-78365532D01*
X73631292Y-78365536D01*
X73737158Y-78471402D01*
X73737162Y-78471405D01*
X73861649Y-78554585D01*
X73861658Y-78554590D01*
X73863348Y-78555290D01*
X73999985Y-78611887D01*
X74146830Y-78641096D01*
X74146834Y-78641097D01*
X74146835Y-78641097D01*
X75591962Y-78641097D01*
X75591963Y-78641096D01*
X75738811Y-78611887D01*
X75877140Y-78554589D01*
X76001634Y-78471405D01*
X76107506Y-78365533D01*
X76190690Y-78241039D01*
X76247988Y-78102710D01*
X76277198Y-77955860D01*
X76277198Y-77806134D01*
X76247988Y-77659284D01*
X76190690Y-77520955D01*
X76190689Y-77520954D01*
X76190686Y-77520948D01*
X76107506Y-77396461D01*
X76107503Y-77396457D01*
X76001637Y-77290591D01*
X76001633Y-77290588D01*
X75877146Y-77207408D01*
X75877137Y-77207403D01*
X75738811Y-77150107D01*
X75738804Y-77150105D01*
X75715315Y-77145433D01*
X75591965Y-77120897D01*
X75591961Y-77120897D01*
X75050240Y-77120897D01*
X74983201Y-77101212D01*
X74937446Y-77048408D01*
X74935700Y-77044399D01*
X74930541Y-77031943D01*
X85061500Y-77031943D01*
X85061500Y-77190057D01*
X85088438Y-77290589D01*
X85102423Y-77342783D01*
X85102426Y-77342790D01*
X85181475Y-77479709D01*
X85181479Y-77479714D01*
X85181480Y-77479716D01*
X85293284Y-77591520D01*
X85293286Y-77591521D01*
X85293290Y-77591524D01*
X85410654Y-77659283D01*
X85430216Y-77670577D01*
X85582943Y-77711500D01*
X85582945Y-77711500D01*
X85741055Y-77711500D01*
X85741057Y-77711500D01*
X85893784Y-77670577D01*
X86030716Y-77591520D01*
X86142520Y-77479716D01*
X86221577Y-77342784D01*
X86262500Y-77190057D01*
X86262500Y-77031943D01*
X86221577Y-76879216D01*
X86201120Y-76843783D01*
X86142524Y-76742290D01*
X86142518Y-76742282D01*
X86030717Y-76630481D01*
X86030709Y-76630475D01*
X85893790Y-76551426D01*
X85893786Y-76551424D01*
X85893784Y-76551423D01*
X85824816Y-76532943D01*
X98314129Y-76532943D01*
X98314129Y-76691057D01*
X98353275Y-76837150D01*
X98355052Y-76843783D01*
X98355055Y-76843790D01*
X98434104Y-76980709D01*
X98434108Y-76980714D01*
X98434109Y-76980716D01*
X98545913Y-77092520D01*
X98545915Y-77092521D01*
X98545919Y-77092524D01*
X98666929Y-77162388D01*
X98682845Y-77171577D01*
X98835572Y-77212500D01*
X98835574Y-77212500D01*
X98993684Y-77212500D01*
X98993686Y-77212500D01*
X99146413Y-77171577D01*
X99283345Y-77092520D01*
X99395149Y-76980716D01*
X99474206Y-76843784D01*
X99515129Y-76691057D01*
X99515129Y-76532943D01*
X99474206Y-76380216D01*
X99474202Y-76380209D01*
X99395153Y-76243290D01*
X99395147Y-76243282D01*
X99283344Y-76131479D01*
X99270742Y-76124204D01*
X99270741Y-76124203D01*
X99146415Y-76052424D01*
X99146414Y-76052423D01*
X99146413Y-76052423D01*
X99043856Y-76024943D01*
X103013129Y-76024943D01*
X103013129Y-76183057D01*
X103049978Y-76320577D01*
X103054052Y-76335783D01*
X103054055Y-76335790D01*
X103133104Y-76472709D01*
X103133108Y-76472714D01*
X103133109Y-76472716D01*
X103244913Y-76584520D01*
X103244915Y-76584521D01*
X103244919Y-76584524D01*
X103376642Y-76660573D01*
X103381845Y-76663577D01*
X103534572Y-76704500D01*
X103534574Y-76704500D01*
X103692684Y-76704500D01*
X103692686Y-76704500D01*
X103845413Y-76663577D01*
X103982345Y-76584520D01*
X104094149Y-76472716D01*
X104132700Y-76405943D01*
X107428500Y-76405943D01*
X107428500Y-76564057D01*
X107466132Y-76704499D01*
X107469423Y-76716783D01*
X107469426Y-76716790D01*
X107548475Y-76853709D01*
X107548479Y-76853714D01*
X107548480Y-76853716D01*
X107660284Y-76965520D01*
X107660286Y-76965521D01*
X107660290Y-76965524D01*
X107796821Y-77044349D01*
X107797216Y-77044577D01*
X107949943Y-77085500D01*
X107949945Y-77085500D01*
X108108055Y-77085500D01*
X108108057Y-77085500D01*
X108260784Y-77044577D01*
X108397716Y-76965520D01*
X108509520Y-76853716D01*
X108588577Y-76716784D01*
X108629500Y-76564057D01*
X108629500Y-76405943D01*
X108588577Y-76253216D01*
X108548071Y-76183057D01*
X108509524Y-76116290D01*
X108509518Y-76116282D01*
X108415179Y-76021943D01*
X111087686Y-76021943D01*
X111087686Y-76180057D01*
X111104155Y-76241518D01*
X111128609Y-76332783D01*
X111128612Y-76332790D01*
X111207661Y-76469709D01*
X111207665Y-76469714D01*
X111207666Y-76469716D01*
X111319470Y-76581520D01*
X111319472Y-76581521D01*
X111319476Y-76581524D01*
X111456395Y-76660573D01*
X111456402Y-76660577D01*
X111609129Y-76701500D01*
X111609131Y-76701500D01*
X111767241Y-76701500D01*
X111767243Y-76701500D01*
X111919970Y-76660577D01*
X112056902Y-76581520D01*
X112168706Y-76469716D01*
X112247763Y-76332784D01*
X112288686Y-76180057D01*
X112288686Y-76021943D01*
X112247763Y-75869216D01*
X112230927Y-75840055D01*
X112168710Y-75732290D01*
X112168704Y-75732282D01*
X112056903Y-75620481D01*
X112056895Y-75620475D01*
X111919976Y-75541426D01*
X111919972Y-75541424D01*
X111919970Y-75541423D01*
X111767243Y-75500500D01*
X111609129Y-75500500D01*
X111456402Y-75541423D01*
X111456395Y-75541426D01*
X111319476Y-75620475D01*
X111319468Y-75620481D01*
X111207667Y-75732282D01*
X111207661Y-75732290D01*
X111128612Y-75869209D01*
X111128609Y-75869216D01*
X111087686Y-76021943D01*
X108415179Y-76021943D01*
X108397717Y-76004481D01*
X108397709Y-76004475D01*
X108260790Y-75925426D01*
X108260786Y-75925424D01*
X108260784Y-75925423D01*
X108108057Y-75884500D01*
X107949943Y-75884500D01*
X107797216Y-75925423D01*
X107797209Y-75925426D01*
X107660290Y-76004475D01*
X107660282Y-76004481D01*
X107548481Y-76116282D01*
X107548475Y-76116290D01*
X107469426Y-76253209D01*
X107469423Y-76253216D01*
X107428500Y-76405943D01*
X104132700Y-76405943D01*
X104173188Y-76335816D01*
X104173194Y-76335804D01*
X104173206Y-76335784D01*
X104214129Y-76183057D01*
X104214129Y-76024943D01*
X104173206Y-75872216D01*
X104154638Y-75840055D01*
X104094153Y-75735290D01*
X104094147Y-75735282D01*
X103982346Y-75623481D01*
X103982338Y-75623475D01*
X103845419Y-75544426D01*
X103845415Y-75544424D01*
X103845413Y-75544423D01*
X103692686Y-75503500D01*
X103534572Y-75503500D01*
X103381845Y-75544423D01*
X103381838Y-75544426D01*
X103244919Y-75623475D01*
X103244911Y-75623481D01*
X103133110Y-75735282D01*
X103133104Y-75735290D01*
X103054055Y-75872209D01*
X103054052Y-75872216D01*
X103013129Y-76024943D01*
X99043856Y-76024943D01*
X98993686Y-76011500D01*
X98835572Y-76011500D01*
X98682845Y-76052423D01*
X98682838Y-76052426D01*
X98545919Y-76131475D01*
X98545911Y-76131481D01*
X98434110Y-76243282D01*
X98434104Y-76243290D01*
X98355055Y-76380209D01*
X98355052Y-76380216D01*
X98314129Y-76532943D01*
X85824816Y-76532943D01*
X85741057Y-76510500D01*
X85582943Y-76510500D01*
X85430216Y-76551423D01*
X85430209Y-76551426D01*
X85293290Y-76630475D01*
X85293282Y-76630481D01*
X85181481Y-76742282D01*
X85181475Y-76742290D01*
X85102426Y-76879209D01*
X85102423Y-76879216D01*
X85061500Y-77031943D01*
X74930541Y-77031943D01*
X74897975Y-76953322D01*
X74820350Y-76837150D01*
X74820346Y-76837146D01*
X74820344Y-76837143D01*
X74721559Y-76738358D01*
X74721555Y-76738355D01*
X74721553Y-76738353D01*
X74605381Y-76660728D01*
X74476296Y-76607260D01*
X74476289Y-76607258D01*
X74476288Y-76607258D01*
X74476288Y-76607257D01*
X74339264Y-76580002D01*
X74339261Y-76580002D01*
X74199541Y-76580002D01*
X74199538Y-76580002D01*
X74062513Y-76607257D01*
X74062513Y-76607258D01*
X74062510Y-76607259D01*
X74062506Y-76607260D01*
X73954103Y-76652161D01*
X73933786Y-76660577D01*
X73933421Y-76660728D01*
X73849529Y-76716784D01*
X73817242Y-76738358D01*
X73817242Y-76738359D01*
X73718458Y-76837143D01*
X73718452Y-76837150D01*
X73653300Y-76934654D01*
X73599687Y-76979459D01*
X73530362Y-76988165D01*
X73467335Y-76958009D01*
X73430617Y-76898566D01*
X73430485Y-76898082D01*
X73404518Y-76801170D01*
X73338099Y-76686130D01*
X73244169Y-76592200D01*
X73129129Y-76525781D01*
X73000818Y-76491400D01*
X72867980Y-76491400D01*
X72739669Y-76525781D01*
X72739667Y-76525781D01*
X72739667Y-76525782D01*
X72624629Y-76592200D01*
X72624626Y-76592202D01*
X72530701Y-76686127D01*
X72530699Y-76686130D01*
X72464280Y-76801170D01*
X72429899Y-76929481D01*
X67308811Y-76929481D01*
X67308856Y-76920723D01*
X67315156Y-75681943D01*
X88661500Y-75681943D01*
X88661500Y-75840057D01*
X88673409Y-75884500D01*
X88702423Y-75992783D01*
X88702426Y-75992790D01*
X88781475Y-76129709D01*
X88781479Y-76129714D01*
X88781480Y-76129716D01*
X88893284Y-76241520D01*
X88893286Y-76241521D01*
X88893290Y-76241524D01*
X89030209Y-76320573D01*
X89030216Y-76320577D01*
X89182943Y-76361500D01*
X89182945Y-76361500D01*
X89341055Y-76361500D01*
X89341057Y-76361500D01*
X89493784Y-76320577D01*
X89630716Y-76241520D01*
X89742520Y-76129716D01*
X89821577Y-75992784D01*
X89862500Y-75840057D01*
X89862500Y-75681943D01*
X89821577Y-75529216D01*
X89779720Y-75456717D01*
X89742524Y-75392290D01*
X89742518Y-75392282D01*
X89728760Y-75378524D01*
X89695275Y-75317201D01*
X89700259Y-75247509D01*
X89742131Y-75191576D01*
X89807595Y-75167159D01*
X89875868Y-75182011D01*
X89878441Y-75183456D01*
X89880284Y-75184520D01*
X90017216Y-75263577D01*
X90169943Y-75304500D01*
X90169945Y-75304500D01*
X90328055Y-75304500D01*
X90328057Y-75304500D01*
X90480784Y-75263577D01*
X90617716Y-75184520D01*
X90729520Y-75072716D01*
X90766339Y-75008943D01*
X96790129Y-75008943D01*
X96790129Y-75167057D01*
X96826957Y-75304499D01*
X96831052Y-75319783D01*
X96831055Y-75319790D01*
X96910104Y-75456709D01*
X96910108Y-75456714D01*
X96910109Y-75456716D01*
X97021913Y-75568520D01*
X97021915Y-75568521D01*
X97021919Y-75568524D01*
X97117107Y-75623480D01*
X97158845Y-75647577D01*
X97311572Y-75688500D01*
X97311574Y-75688500D01*
X97469684Y-75688500D01*
X97469686Y-75688500D01*
X97622413Y-75647577D01*
X97759345Y-75568520D01*
X97871149Y-75456716D01*
X97950206Y-75319784D01*
X97991129Y-75167057D01*
X97991129Y-75008943D01*
X97973201Y-74942035D01*
X97974864Y-74872189D01*
X98014026Y-74814327D01*
X98078254Y-74786822D01*
X98147156Y-74798408D01*
X98180657Y-74822264D01*
X98185225Y-74826832D01*
X98297029Y-74938636D01*
X98297031Y-74938637D01*
X98297035Y-74938640D01*
X98370498Y-74981053D01*
X98433961Y-75017693D01*
X98586688Y-75058616D01*
X98586690Y-75058616D01*
X98744800Y-75058616D01*
X98744802Y-75058616D01*
X98897529Y-75017693D01*
X99034461Y-74938636D01*
X99146265Y-74826832D01*
X99225322Y-74689900D01*
X99266245Y-74537173D01*
X99266245Y-74410000D01*
X99285930Y-74342961D01*
X99338734Y-74297206D01*
X99390245Y-74286000D01*
X99501684Y-74286000D01*
X99501686Y-74286000D01*
X99654413Y-74245077D01*
X99791345Y-74166020D01*
X99903149Y-74054216D01*
X99982206Y-73917284D01*
X100023129Y-73764557D01*
X100023129Y-73606443D01*
X99982206Y-73453716D01*
X99952891Y-73402940D01*
X99903153Y-73316790D01*
X99903147Y-73316782D01*
X99819546Y-73233181D01*
X99786061Y-73171858D01*
X99790918Y-73103943D01*
X102251129Y-73103943D01*
X102251129Y-73262057D01*
X102288879Y-73402940D01*
X102292052Y-73414783D01*
X102292055Y-73414790D01*
X102371104Y-73551709D01*
X102371108Y-73551714D01*
X102371109Y-73551716D01*
X102482913Y-73663520D01*
X102482915Y-73663521D01*
X102482919Y-73663524D01*
X102604324Y-73733616D01*
X102619845Y-73742577D01*
X102772572Y-73783500D01*
X102772574Y-73783500D01*
X102930684Y-73783500D01*
X102930686Y-73783500D01*
X103083413Y-73742577D01*
X103220345Y-73663520D01*
X103223014Y-73660851D01*
X107054436Y-73660851D01*
X107054436Y-73818965D01*
X107088190Y-73944935D01*
X107095359Y-73971691D01*
X107095362Y-73971698D01*
X107174411Y-74108617D01*
X107174415Y-74108622D01*
X107174416Y-74108624D01*
X107286220Y-74220428D01*
X107286222Y-74220429D01*
X107286226Y-74220432D01*
X107380839Y-74275056D01*
X107423152Y-74299485D01*
X107575879Y-74340408D01*
X107575881Y-74340408D01*
X107733991Y-74340408D01*
X107733993Y-74340408D01*
X107886720Y-74299485D01*
X108023652Y-74220428D01*
X108135456Y-74108624D01*
X108214513Y-73971692D01*
X108255436Y-73818965D01*
X108255436Y-73660851D01*
X108214513Y-73508124D01*
X108172317Y-73435038D01*
X116461500Y-73435038D01*
X116461500Y-73686962D01*
X116470309Y-73742577D01*
X116500910Y-73935785D01*
X116578760Y-74175383D01*
X116641994Y-74299485D01*
X116665897Y-74346398D01*
X116693132Y-74399848D01*
X116841201Y-74603649D01*
X116841205Y-74603654D01*
X117019345Y-74781794D01*
X117019350Y-74781798D01*
X117190266Y-74905975D01*
X117223155Y-74929870D01*
X117331417Y-74985032D01*
X117447616Y-75044239D01*
X117447618Y-75044239D01*
X117447621Y-75044241D01*
X117687215Y-75122090D01*
X117936038Y-75161500D01*
X117936039Y-75161500D01*
X118187961Y-75161500D01*
X118187962Y-75161500D01*
X118436785Y-75122090D01*
X118676379Y-75044241D01*
X118900845Y-74929870D01*
X119104656Y-74781793D01*
X119282793Y-74603656D01*
X119430870Y-74399845D01*
X119545241Y-74175379D01*
X119623090Y-73935785D01*
X119662500Y-73686962D01*
X119662500Y-73435038D01*
X119623090Y-73186215D01*
X119545241Y-72946621D01*
X119545239Y-72946618D01*
X119545239Y-72946616D01*
X119477811Y-72814282D01*
X119430870Y-72722155D01*
X119407962Y-72690625D01*
X119282798Y-72518350D01*
X119282794Y-72518345D01*
X119104654Y-72340205D01*
X119104649Y-72340201D01*
X118900848Y-72192132D01*
X118900847Y-72192131D01*
X118900845Y-72192130D01*
X118802047Y-72141790D01*
X118676383Y-72077760D01*
X118436785Y-71999910D01*
X118368256Y-71989056D01*
X118187962Y-71960500D01*
X117936038Y-71960500D01*
X117811626Y-71980205D01*
X117687214Y-71999910D01*
X117447616Y-72077760D01*
X117223151Y-72192132D01*
X117019350Y-72340201D01*
X117019345Y-72340205D01*
X116841205Y-72518345D01*
X116841201Y-72518350D01*
X116693132Y-72722151D01*
X116578760Y-72946616D01*
X116502821Y-73180334D01*
X116500910Y-73186215D01*
X116461500Y-73435038D01*
X108172317Y-73435038D01*
X108153782Y-73402934D01*
X108135458Y-73371195D01*
X108135454Y-73371190D01*
X108023653Y-73259389D01*
X108023645Y-73259383D01*
X107886726Y-73180334D01*
X107886722Y-73180332D01*
X107886720Y-73180331D01*
X107733993Y-73139408D01*
X107575879Y-73139408D01*
X107423152Y-73180331D01*
X107423145Y-73180334D01*
X107286226Y-73259383D01*
X107286218Y-73259389D01*
X107174417Y-73371190D01*
X107174411Y-73371198D01*
X107095362Y-73508117D01*
X107095359Y-73508124D01*
X107054436Y-73660851D01*
X103223014Y-73660851D01*
X103332149Y-73551716D01*
X103411206Y-73414784D01*
X103452129Y-73262057D01*
X103452129Y-73103943D01*
X103411206Y-72951216D01*
X103362832Y-72867429D01*
X103332153Y-72814290D01*
X103332147Y-72814282D01*
X103220346Y-72702481D01*
X103220338Y-72702475D01*
X103083419Y-72623426D01*
X103083415Y-72623424D01*
X103083413Y-72623423D01*
X102930686Y-72582500D01*
X102772572Y-72582500D01*
X102619845Y-72623423D01*
X102619838Y-72623426D01*
X102482919Y-72702475D01*
X102482911Y-72702481D01*
X102371110Y-72814282D01*
X102371104Y-72814290D01*
X102292055Y-72951209D01*
X102292052Y-72951216D01*
X102251129Y-73103943D01*
X99790918Y-73103943D01*
X99791045Y-73102166D01*
X99832917Y-73046233D01*
X99898381Y-73021816D01*
X99907227Y-73021500D01*
X100009684Y-73021500D01*
X100009686Y-73021500D01*
X100162413Y-72980577D01*
X100162415Y-72980575D01*
X100162417Y-72980575D01*
X100299338Y-72901524D01*
X100299337Y-72901524D01*
X100299345Y-72901520D01*
X100411149Y-72789716D01*
X100490206Y-72652784D01*
X100531129Y-72500057D01*
X100531129Y-72341943D01*
X100490206Y-72189216D01*
X100462825Y-72141790D01*
X100411153Y-72052290D01*
X100411147Y-72052282D01*
X100299346Y-71940481D01*
X100299338Y-71940475D01*
X100162419Y-71861426D01*
X100162415Y-71861424D01*
X100162413Y-71861423D01*
X100009686Y-71820500D01*
X99851572Y-71820500D01*
X99698845Y-71861423D01*
X99698838Y-71861426D01*
X99561919Y-71940475D01*
X99561911Y-71940481D01*
X99450110Y-72052282D01*
X99450104Y-72052290D01*
X99371055Y-72189209D01*
X99371052Y-72189216D01*
X99330129Y-72341943D01*
X99330129Y-72500057D01*
X99352220Y-72582500D01*
X99371052Y-72652783D01*
X99371055Y-72652790D01*
X99450104Y-72789709D01*
X99450110Y-72789717D01*
X99533712Y-72873319D01*
X99567197Y-72934642D01*
X99562213Y-73004334D01*
X99520341Y-73060267D01*
X99454877Y-73084684D01*
X99446031Y-73085000D01*
X99343572Y-73085000D01*
X99190845Y-73125923D01*
X99190838Y-73125926D01*
X99053919Y-73204975D01*
X99053911Y-73204981D01*
X98942110Y-73316782D01*
X98942104Y-73316790D01*
X98863055Y-73453709D01*
X98863052Y-73453716D01*
X98822129Y-73606443D01*
X98822129Y-73733616D01*
X98802444Y-73800655D01*
X98749640Y-73846410D01*
X98698129Y-73857616D01*
X98586688Y-73857616D01*
X98433961Y-73898539D01*
X98433954Y-73898542D01*
X98297035Y-73977591D01*
X98297027Y-73977597D01*
X98185226Y-74089398D01*
X98185220Y-74089406D01*
X98106171Y-74226325D01*
X98106168Y-74226332D01*
X98065245Y-74379059D01*
X98065245Y-74537173D01*
X98083059Y-74603656D01*
X98083172Y-74604077D01*
X98081509Y-74673927D01*
X98042346Y-74731789D01*
X97978118Y-74759293D01*
X97909215Y-74747706D01*
X97875716Y-74723851D01*
X97759346Y-74607481D01*
X97759338Y-74607475D01*
X97622419Y-74528426D01*
X97622415Y-74528424D01*
X97622413Y-74528423D01*
X97469686Y-74487500D01*
X97311572Y-74487500D01*
X97158845Y-74528423D01*
X97158838Y-74528426D01*
X97021919Y-74607475D01*
X97021911Y-74607481D01*
X96910110Y-74719282D01*
X96910104Y-74719290D01*
X96831055Y-74856209D01*
X96831052Y-74856216D01*
X96790129Y-75008943D01*
X90766339Y-75008943D01*
X90804966Y-74942039D01*
X90806827Y-74938816D01*
X90806827Y-74938815D01*
X90806930Y-74938636D01*
X90808577Y-74935784D01*
X90849500Y-74783057D01*
X90849500Y-74624943D01*
X90808577Y-74472216D01*
X90782928Y-74427790D01*
X90729524Y-74335290D01*
X90729518Y-74335282D01*
X90617717Y-74223481D01*
X90617709Y-74223475D01*
X90480790Y-74144426D01*
X90480786Y-74144424D01*
X90480784Y-74144423D01*
X90328057Y-74103500D01*
X90169943Y-74103500D01*
X90169941Y-74103500D01*
X90167284Y-74104212D01*
X90166274Y-74104482D01*
X90163062Y-74104406D01*
X90161889Y-74104561D01*
X90161864Y-74104377D01*
X90096426Y-74102818D01*
X90038564Y-74063653D01*
X90035810Y-74060193D01*
X90033158Y-74056737D01*
X89921357Y-73944936D01*
X89921349Y-73944930D01*
X89784430Y-73865881D01*
X89784426Y-73865879D01*
X89784424Y-73865878D01*
X89631697Y-73824955D01*
X89473583Y-73824955D01*
X89320856Y-73865878D01*
X89320849Y-73865881D01*
X89183930Y-73944930D01*
X89183922Y-73944936D01*
X89072121Y-74056737D01*
X89072115Y-74056745D01*
X88993066Y-74193664D01*
X88993063Y-74193671D01*
X88952140Y-74346398D01*
X88952140Y-74504512D01*
X88984410Y-74624943D01*
X88993063Y-74657238D01*
X88993066Y-74657245D01*
X89072115Y-74794164D01*
X89072119Y-74794169D01*
X89072120Y-74794171D01*
X89183924Y-74905975D01*
X89225307Y-74929867D01*
X89226379Y-74930486D01*
X89274595Y-74981053D01*
X89287819Y-75049660D01*
X89261851Y-75114525D01*
X89204937Y-75155054D01*
X89190792Y-75158396D01*
X89190793Y-75158397D01*
X89182944Y-75160500D01*
X89182943Y-75160500D01*
X89066966Y-75191576D01*
X89030216Y-75201423D01*
X89030209Y-75201426D01*
X88893290Y-75280475D01*
X88893282Y-75280481D01*
X88781481Y-75392282D01*
X88781475Y-75392290D01*
X88702426Y-75529209D01*
X88702423Y-75529216D01*
X88661500Y-75681943D01*
X67315156Y-75681943D01*
X67315201Y-75673185D01*
X67323115Y-74116943D01*
X72503500Y-74116943D01*
X72503500Y-74275057D01*
X72521011Y-74340407D01*
X72544423Y-74427783D01*
X72544426Y-74427790D01*
X72623475Y-74564709D01*
X72623479Y-74564714D01*
X72623480Y-74564716D01*
X72735284Y-74676520D01*
X72735286Y-74676521D01*
X72735290Y-74676524D01*
X72858583Y-74747706D01*
X72872216Y-74755577D01*
X73024943Y-74796500D01*
X73024945Y-74796500D01*
X73183055Y-74796500D01*
X73183057Y-74796500D01*
X73335784Y-74755577D01*
X73472716Y-74676520D01*
X73524293Y-74624943D01*
X76059500Y-74624943D01*
X76059500Y-74783057D01*
X76099004Y-74930486D01*
X76100423Y-74935783D01*
X76100426Y-74935790D01*
X76179475Y-75072709D01*
X76179479Y-75072714D01*
X76179480Y-75072716D01*
X76291284Y-75184520D01*
X76291286Y-75184521D01*
X76291290Y-75184524D01*
X76320566Y-75201426D01*
X76428216Y-75263577D01*
X76580943Y-75304500D01*
X76580945Y-75304500D01*
X76739055Y-75304500D01*
X76739057Y-75304500D01*
X76891784Y-75263577D01*
X77028716Y-75184520D01*
X77140520Y-75072716D01*
X77219577Y-74935784D01*
X77260500Y-74783057D01*
X77260500Y-74673999D01*
X77280185Y-74606960D01*
X77332989Y-74561205D01*
X77384500Y-74549999D01*
X77501055Y-74549999D01*
X77501057Y-74549999D01*
X77653784Y-74509076D01*
X77790716Y-74430019D01*
X77902520Y-74318215D01*
X77981577Y-74181283D01*
X78022500Y-74028556D01*
X78022500Y-73870442D01*
X77981577Y-73717715D01*
X77948747Y-73660851D01*
X77902524Y-73580789D01*
X77902518Y-73580781D01*
X77790717Y-73468980D01*
X77790709Y-73468974D01*
X77731929Y-73435038D01*
X84711500Y-73435038D01*
X84711500Y-73686962D01*
X84720309Y-73742577D01*
X84750910Y-73935785D01*
X84828760Y-74175383D01*
X84891994Y-74299485D01*
X84915897Y-74346398D01*
X84943132Y-74399848D01*
X85091201Y-74603649D01*
X85091205Y-74603654D01*
X85269345Y-74781794D01*
X85269350Y-74781798D01*
X85440266Y-74905975D01*
X85473155Y-74929870D01*
X85581417Y-74985032D01*
X85697616Y-75044239D01*
X85697618Y-75044239D01*
X85697621Y-75044241D01*
X85937215Y-75122090D01*
X86186038Y-75161500D01*
X86186039Y-75161500D01*
X86437961Y-75161500D01*
X86437962Y-75161500D01*
X86686785Y-75122090D01*
X86926379Y-75044241D01*
X87150845Y-74929870D01*
X87354656Y-74781793D01*
X87532793Y-74603656D01*
X87680870Y-74399845D01*
X87795241Y-74175379D01*
X87873090Y-73935785D01*
X87912500Y-73686962D01*
X87912500Y-73435038D01*
X87873090Y-73186215D01*
X87795241Y-72946621D01*
X87795239Y-72946618D01*
X87795239Y-72946616D01*
X87767169Y-72891527D01*
X87742626Y-72843359D01*
X95902341Y-72843359D01*
X95902341Y-73001473D01*
X95929799Y-73103945D01*
X95943264Y-73154199D01*
X95943267Y-73154206D01*
X96022316Y-73291125D01*
X96022320Y-73291130D01*
X96022321Y-73291132D01*
X96134125Y-73402936D01*
X96134127Y-73402937D01*
X96134131Y-73402940D01*
X96271050Y-73481989D01*
X96271057Y-73481993D01*
X96423784Y-73522916D01*
X96423786Y-73522916D01*
X96581896Y-73522916D01*
X96581898Y-73522916D01*
X96734625Y-73481993D01*
X96871557Y-73402936D01*
X96983361Y-73291132D01*
X97062418Y-73154200D01*
X97103341Y-73001473D01*
X97103341Y-72843359D01*
X97062418Y-72690632D01*
X97023617Y-72623426D01*
X96983365Y-72553706D01*
X96983359Y-72553698D01*
X96871558Y-72441897D01*
X96871550Y-72441891D01*
X96734631Y-72362842D01*
X96734627Y-72362840D01*
X96734625Y-72362839D01*
X96581898Y-72321916D01*
X96423784Y-72321916D01*
X96271057Y-72362839D01*
X96271050Y-72362842D01*
X96134131Y-72441891D01*
X96134123Y-72441897D01*
X96022322Y-72553698D01*
X96022316Y-72553706D01*
X95943267Y-72690625D01*
X95943264Y-72690632D01*
X95902341Y-72843359D01*
X87742626Y-72843359D01*
X87680870Y-72722155D01*
X87657962Y-72690625D01*
X87532798Y-72518350D01*
X87532794Y-72518345D01*
X87354654Y-72340205D01*
X87354649Y-72340201D01*
X87150848Y-72192132D01*
X87150847Y-72192131D01*
X87150845Y-72192130D01*
X87052047Y-72141790D01*
X86926383Y-72077760D01*
X86686785Y-71999910D01*
X86618256Y-71989056D01*
X86437962Y-71960500D01*
X86186038Y-71960500D01*
X86061626Y-71980205D01*
X85937214Y-71999910D01*
X85697616Y-72077760D01*
X85473151Y-72192132D01*
X85269350Y-72340201D01*
X85269345Y-72340205D01*
X85091205Y-72518345D01*
X85091201Y-72518350D01*
X84943132Y-72722151D01*
X84828760Y-72946616D01*
X84752821Y-73180334D01*
X84750910Y-73186215D01*
X84711500Y-73435038D01*
X77731929Y-73435038D01*
X77653790Y-73389925D01*
X77653786Y-73389923D01*
X77653784Y-73389922D01*
X77501057Y-73348999D01*
X77342943Y-73348999D01*
X77190216Y-73389922D01*
X77190209Y-73389925D01*
X77053290Y-73468974D01*
X77053282Y-73468980D01*
X76941481Y-73580781D01*
X76941475Y-73580789D01*
X76862426Y-73717708D01*
X76862423Y-73717715D01*
X76821500Y-73870442D01*
X76821500Y-73979500D01*
X76801815Y-74046539D01*
X76749011Y-74092294D01*
X76697500Y-74103500D01*
X76580943Y-74103500D01*
X76428216Y-74144423D01*
X76428209Y-74144426D01*
X76291290Y-74223475D01*
X76291282Y-74223481D01*
X76179481Y-74335282D01*
X76179475Y-74335290D01*
X76100426Y-74472209D01*
X76100423Y-74472216D01*
X76059500Y-74624943D01*
X73524293Y-74624943D01*
X73584520Y-74564716D01*
X73663577Y-74427784D01*
X73704500Y-74275057D01*
X73704500Y-74116943D01*
X73663577Y-73964216D01*
X73623765Y-73895260D01*
X73607294Y-73827361D01*
X73623765Y-73771265D01*
X73688705Y-73658787D01*
X73729628Y-73506060D01*
X73729628Y-73347946D01*
X73688705Y-73195219D01*
X73680111Y-73180334D01*
X73609652Y-73058293D01*
X73609646Y-73058285D01*
X73497845Y-72946484D01*
X73497837Y-72946478D01*
X73360918Y-72867429D01*
X73360914Y-72867427D01*
X73360912Y-72867426D01*
X73208185Y-72826503D01*
X73050071Y-72826503D01*
X72897344Y-72867426D01*
X72897337Y-72867429D01*
X72760418Y-72946478D01*
X72760410Y-72946484D01*
X72648609Y-73058285D01*
X72648603Y-73058293D01*
X72569554Y-73195212D01*
X72569551Y-73195219D01*
X72528628Y-73347946D01*
X72528628Y-73506060D01*
X72555526Y-73606443D01*
X72569551Y-73658786D01*
X72569552Y-73658789D01*
X72609360Y-73727739D01*
X72625833Y-73795640D01*
X72609361Y-73851738D01*
X72544423Y-73964215D01*
X72544423Y-73964216D01*
X72503500Y-74116943D01*
X67323115Y-74116943D01*
X67323160Y-74108185D01*
X67334741Y-71830943D01*
X89394500Y-71830943D01*
X89394500Y-71989057D01*
X89432132Y-72129499D01*
X89435423Y-72141783D01*
X89435426Y-72141790D01*
X89514475Y-72278709D01*
X89514479Y-72278714D01*
X89514480Y-72278716D01*
X89626284Y-72390520D01*
X89626286Y-72390521D01*
X89626290Y-72390524D01*
X89715272Y-72441897D01*
X89763216Y-72469577D01*
X89915943Y-72510500D01*
X89915945Y-72510500D01*
X90074055Y-72510500D01*
X90074057Y-72510500D01*
X90226784Y-72469577D01*
X90363716Y-72390520D01*
X90475520Y-72278716D01*
X90554577Y-72141784D01*
X90595500Y-71989057D01*
X90595500Y-71830943D01*
X90554577Y-71678216D01*
X90514071Y-71608057D01*
X90475524Y-71541290D01*
X90475518Y-71541282D01*
X90384179Y-71449943D01*
X93331500Y-71449943D01*
X93331500Y-71608057D01*
X93334328Y-71618609D01*
X93372423Y-71760783D01*
X93372426Y-71760790D01*
X93451475Y-71897709D01*
X93451479Y-71897714D01*
X93451480Y-71897716D01*
X93563284Y-72009520D01*
X93563286Y-72009521D01*
X93563290Y-72009524D01*
X93681480Y-72077760D01*
X93700216Y-72088577D01*
X93852943Y-72129500D01*
X93852945Y-72129500D01*
X94011055Y-72129500D01*
X94011057Y-72129500D01*
X94163784Y-72088577D01*
X94300716Y-72009520D01*
X94412520Y-71897716D01*
X94491577Y-71760784D01*
X94529673Y-71618607D01*
X96956790Y-71618607D01*
X96956790Y-71776721D01*
X96989211Y-71897716D01*
X96997713Y-71929447D01*
X96997716Y-71929454D01*
X97076765Y-72066373D01*
X97076769Y-72066378D01*
X97076770Y-72066380D01*
X97188574Y-72178184D01*
X97188576Y-72178185D01*
X97188580Y-72178188D01*
X97325499Y-72257237D01*
X97325506Y-72257241D01*
X97478233Y-72298164D01*
X97478235Y-72298164D01*
X97636345Y-72298164D01*
X97636347Y-72298164D01*
X97789074Y-72257241D01*
X97926006Y-72178184D01*
X98037810Y-72066380D01*
X98116867Y-71929448D01*
X98157790Y-71776721D01*
X98157790Y-71618607D01*
X98116867Y-71465880D01*
X98095849Y-71429475D01*
X98037814Y-71328954D01*
X98037808Y-71328946D01*
X97926007Y-71217145D01*
X97925999Y-71217139D01*
X97789080Y-71138090D01*
X97789076Y-71138088D01*
X97789074Y-71138087D01*
X97636347Y-71097164D01*
X97478233Y-71097164D01*
X97325506Y-71138087D01*
X97325499Y-71138090D01*
X97188580Y-71217139D01*
X97188572Y-71217145D01*
X97076771Y-71328946D01*
X97076765Y-71328954D01*
X96997716Y-71465873D01*
X96997713Y-71465880D01*
X96956790Y-71618607D01*
X94529673Y-71618607D01*
X94532500Y-71608057D01*
X94532500Y-71449943D01*
X94491577Y-71297216D01*
X94491573Y-71297209D01*
X94412524Y-71160290D01*
X94412518Y-71160282D01*
X94300717Y-71048481D01*
X94300709Y-71048475D01*
X94163790Y-70969426D01*
X94163786Y-70969424D01*
X94163784Y-70969423D01*
X94011057Y-70928500D01*
X93852943Y-70928500D01*
X93700216Y-70969423D01*
X93700209Y-70969426D01*
X93563290Y-71048475D01*
X93563282Y-71048481D01*
X93451481Y-71160282D01*
X93451475Y-71160290D01*
X93372426Y-71297209D01*
X93372423Y-71297216D01*
X93331500Y-71449943D01*
X90384179Y-71449943D01*
X90363717Y-71429481D01*
X90363709Y-71429475D01*
X90226790Y-71350426D01*
X90226786Y-71350424D01*
X90226784Y-71350423D01*
X90074057Y-71309500D01*
X89915943Y-71309500D01*
X89763216Y-71350423D01*
X89763209Y-71350426D01*
X89626290Y-71429475D01*
X89626282Y-71429481D01*
X89514481Y-71541282D01*
X89514475Y-71541290D01*
X89435426Y-71678209D01*
X89435423Y-71678216D01*
X89394500Y-71830943D01*
X67334741Y-71830943D01*
X67334786Y-71822185D01*
X67348319Y-69161129D01*
X68259199Y-69161129D01*
X68259199Y-69320872D01*
X68290359Y-69477524D01*
X68290362Y-69477536D01*
X68351484Y-69625099D01*
X68351491Y-69625112D01*
X68440231Y-69757919D01*
X68440234Y-69757923D01*
X68553176Y-69870865D01*
X68553180Y-69870868D01*
X68685987Y-69959608D01*
X68686000Y-69959615D01*
X68786343Y-70001178D01*
X68833568Y-70020739D01*
X68990227Y-70051900D01*
X68990231Y-70051901D01*
X68990232Y-70051901D01*
X70648567Y-70051901D01*
X70648568Y-70051900D01*
X70805230Y-70020739D01*
X70952804Y-69959612D01*
X71060138Y-69887893D01*
X72314101Y-69887893D01*
X72314101Y-70034106D01*
X72351943Y-70175339D01*
X72388496Y-70238650D01*
X72425050Y-70301962D01*
X72528439Y-70405351D01*
X72655063Y-70478458D01*
X72796294Y-70516300D01*
X72796296Y-70516300D01*
X72942506Y-70516300D01*
X72942508Y-70516300D01*
X73083739Y-70478458D01*
X73210363Y-70405351D01*
X73313752Y-70301962D01*
X73386859Y-70175338D01*
X73393154Y-70151841D01*
X73429517Y-70092182D01*
X73492364Y-70061651D01*
X73561739Y-70069945D01*
X73615618Y-70114429D01*
X73627490Y-70136481D01*
X73640824Y-70168674D01*
X73640826Y-70168677D01*
X73640827Y-70168679D01*
X73718452Y-70284851D01*
X73718454Y-70284853D01*
X73718457Y-70284857D01*
X73817242Y-70383642D01*
X73817245Y-70383644D01*
X73817249Y-70383648D01*
X73933421Y-70461273D01*
X74062506Y-70514741D01*
X74062513Y-70514742D01*
X74062513Y-70514743D01*
X74199536Y-70541998D01*
X74199539Y-70541999D01*
X74199541Y-70541999D01*
X74339263Y-70541999D01*
X74339264Y-70541998D01*
X74384939Y-70532913D01*
X74476288Y-70514743D01*
X74476288Y-70514742D01*
X74476296Y-70514741D01*
X74605381Y-70461273D01*
X74721553Y-70383648D01*
X74721559Y-70383642D01*
X74721560Y-70383642D01*
X74820344Y-70284858D01*
X74820344Y-70284857D01*
X74820350Y-70284851D01*
X74890449Y-70179943D01*
X92315500Y-70179943D01*
X92315500Y-70338057D01*
X92353121Y-70478458D01*
X92356423Y-70490783D01*
X92356426Y-70490790D01*
X92435475Y-70627709D01*
X92435479Y-70627714D01*
X92435480Y-70627716D01*
X92547284Y-70739520D01*
X92547286Y-70739521D01*
X92547290Y-70739524D01*
X92590504Y-70764473D01*
X92684216Y-70818577D01*
X92836943Y-70859500D01*
X92836945Y-70859500D01*
X92995055Y-70859500D01*
X92995057Y-70859500D01*
X93147784Y-70818577D01*
X93284716Y-70739520D01*
X93396520Y-70627716D01*
X93475577Y-70490784D01*
X93516500Y-70338057D01*
X93516500Y-70182943D01*
X98695129Y-70182943D01*
X98695129Y-70341057D01*
X98731946Y-70478458D01*
X98736052Y-70493783D01*
X98736055Y-70493790D01*
X98815104Y-70630709D01*
X98815108Y-70630714D01*
X98815109Y-70630716D01*
X98926913Y-70742520D01*
X98926915Y-70742521D01*
X98926919Y-70742524D01*
X99058642Y-70818573D01*
X99063845Y-70821577D01*
X99216572Y-70862500D01*
X99216574Y-70862500D01*
X99374684Y-70862500D01*
X99374686Y-70862500D01*
X99527413Y-70821577D01*
X99664345Y-70742520D01*
X99776149Y-70630716D01*
X99855206Y-70493784D01*
X99871240Y-70433943D01*
X102094500Y-70433943D01*
X102094500Y-70592057D01*
X102134818Y-70742524D01*
X102135423Y-70744783D01*
X102135426Y-70744790D01*
X102214475Y-70881709D01*
X102214479Y-70881714D01*
X102214480Y-70881716D01*
X102326284Y-70993520D01*
X102326286Y-70993521D01*
X102326290Y-70993524D01*
X102421478Y-71048480D01*
X102463216Y-71072577D01*
X102615943Y-71113500D01*
X102615945Y-71113500D01*
X102774055Y-71113500D01*
X102774057Y-71113500D01*
X102926784Y-71072577D01*
X103063716Y-70993520D01*
X103175520Y-70881716D01*
X103254577Y-70744784D01*
X103295500Y-70592057D01*
X103295500Y-70433943D01*
X103254577Y-70281216D01*
X103214071Y-70211057D01*
X103175524Y-70144290D01*
X103175518Y-70144282D01*
X103084179Y-70052943D01*
X108190500Y-70052943D01*
X108190500Y-70211057D01*
X108225334Y-70341057D01*
X108231423Y-70363783D01*
X108231426Y-70363790D01*
X108310475Y-70500709D01*
X108310479Y-70500714D01*
X108310480Y-70500716D01*
X108422284Y-70612520D01*
X108422286Y-70612521D01*
X108422290Y-70612524D01*
X108453802Y-70630717D01*
X108559216Y-70691577D01*
X108711943Y-70732500D01*
X108711945Y-70732500D01*
X108870055Y-70732500D01*
X108870057Y-70732500D01*
X109022784Y-70691577D01*
X109159716Y-70612520D01*
X109271520Y-70500716D01*
X109350577Y-70363784D01*
X109363193Y-70316699D01*
X113237686Y-70316699D01*
X113237686Y-70474813D01*
X113274586Y-70612524D01*
X113278609Y-70627539D01*
X113278612Y-70627546D01*
X113357661Y-70764465D01*
X113357665Y-70764470D01*
X113357666Y-70764472D01*
X113469470Y-70876276D01*
X113469472Y-70876277D01*
X113469476Y-70876280D01*
X113559925Y-70928500D01*
X113606402Y-70955333D01*
X113759129Y-70996256D01*
X113759131Y-70996256D01*
X113917241Y-70996256D01*
X113917243Y-70996256D01*
X114069970Y-70955333D01*
X114206902Y-70876276D01*
X114318706Y-70764472D01*
X114397763Y-70627540D01*
X114438686Y-70474813D01*
X114438686Y-70316699D01*
X114397763Y-70163972D01*
X114381891Y-70136481D01*
X114318710Y-70027046D01*
X114318704Y-70027038D01*
X114206903Y-69915237D01*
X114206895Y-69915231D01*
X114069976Y-69836182D01*
X114069972Y-69836180D01*
X114069970Y-69836179D01*
X113917243Y-69795256D01*
X113759129Y-69795256D01*
X113606402Y-69836179D01*
X113606395Y-69836182D01*
X113469476Y-69915231D01*
X113469468Y-69915237D01*
X113357667Y-70027038D01*
X113357661Y-70027046D01*
X113278612Y-70163965D01*
X113278609Y-70163972D01*
X113237686Y-70316699D01*
X109363193Y-70316699D01*
X109391500Y-70211057D01*
X109391500Y-70052943D01*
X109350577Y-69900216D01*
X109333631Y-69870865D01*
X109271524Y-69763290D01*
X109271518Y-69763282D01*
X109159717Y-69651481D01*
X109159709Y-69651475D01*
X109022790Y-69572426D01*
X109022786Y-69572424D01*
X109022784Y-69572423D01*
X108870057Y-69531500D01*
X108711943Y-69531500D01*
X108559216Y-69572423D01*
X108559209Y-69572426D01*
X108422290Y-69651475D01*
X108422282Y-69651481D01*
X108310481Y-69763282D01*
X108310475Y-69763290D01*
X108231426Y-69900209D01*
X108231423Y-69900216D01*
X108190500Y-70052943D01*
X103084179Y-70052943D01*
X103063717Y-70032481D01*
X103063709Y-70032475D01*
X102926790Y-69953426D01*
X102926786Y-69953424D01*
X102926784Y-69953423D01*
X102774057Y-69912500D01*
X102615943Y-69912500D01*
X102463216Y-69953423D01*
X102463209Y-69953426D01*
X102326290Y-70032475D01*
X102326282Y-70032481D01*
X102214481Y-70144282D01*
X102214475Y-70144290D01*
X102135426Y-70281209D01*
X102135423Y-70281216D01*
X102094500Y-70433943D01*
X99871240Y-70433943D01*
X99896129Y-70341057D01*
X99896129Y-70182943D01*
X99855206Y-70030216D01*
X99838441Y-70001178D01*
X99776153Y-69893290D01*
X99776147Y-69893282D01*
X99664346Y-69781481D01*
X99664338Y-69781475D01*
X99527419Y-69702426D01*
X99527415Y-69702424D01*
X99527413Y-69702423D01*
X99374686Y-69661500D01*
X99216572Y-69661500D01*
X99063845Y-69702423D01*
X99063838Y-69702426D01*
X98926919Y-69781475D01*
X98926911Y-69781481D01*
X98815110Y-69893282D01*
X98815104Y-69893290D01*
X98736055Y-70030209D01*
X98736052Y-70030216D01*
X98695129Y-70182943D01*
X93516500Y-70182943D01*
X93516500Y-70179943D01*
X93475577Y-70027216D01*
X93460544Y-70001178D01*
X93396524Y-69890290D01*
X93396518Y-69890282D01*
X93284717Y-69778481D01*
X93284709Y-69778475D01*
X93147790Y-69699426D01*
X93147786Y-69699424D01*
X93147784Y-69699423D01*
X92995057Y-69658500D01*
X92836943Y-69658500D01*
X92684216Y-69699423D01*
X92684209Y-69699426D01*
X92547290Y-69778475D01*
X92547282Y-69778481D01*
X92435481Y-69890282D01*
X92435475Y-69890290D01*
X92356426Y-70027209D01*
X92356423Y-70027216D01*
X92315500Y-70179943D01*
X74890449Y-70179943D01*
X74897975Y-70168679D01*
X74935681Y-70077646D01*
X74979520Y-70023244D01*
X75045814Y-70001178D01*
X75050242Y-70001099D01*
X75591966Y-70001099D01*
X75591967Y-70001098D01*
X75738815Y-69971889D01*
X75877144Y-69914591D01*
X76001638Y-69831407D01*
X76107510Y-69725535D01*
X76190694Y-69601041D01*
X76247992Y-69462712D01*
X76261753Y-69393530D01*
X115741500Y-69393530D01*
X115741500Y-69600469D01*
X115781868Y-69803412D01*
X115781870Y-69803420D01*
X115851652Y-69971889D01*
X115861059Y-69994598D01*
X115887457Y-70034106D01*
X115976024Y-70166657D01*
X116122342Y-70312975D01*
X116122345Y-70312977D01*
X116294402Y-70427941D01*
X116485580Y-70507130D01*
X116688530Y-70547499D01*
X116688534Y-70547500D01*
X116688535Y-70547500D01*
X116895466Y-70547500D01*
X116895467Y-70547499D01*
X117098420Y-70507130D01*
X117289598Y-70427941D01*
X117461655Y-70312977D01*
X117607977Y-70166655D01*
X117722941Y-69994598D01*
X117802130Y-69803420D01*
X117842500Y-69600465D01*
X117842500Y-69393535D01*
X117842499Y-69393530D01*
X118281500Y-69393530D01*
X118281500Y-69600469D01*
X118321868Y-69803412D01*
X118321870Y-69803420D01*
X118391652Y-69971889D01*
X118401059Y-69994598D01*
X118427457Y-70034106D01*
X118516024Y-70166657D01*
X118662342Y-70312975D01*
X118662345Y-70312977D01*
X118834402Y-70427941D01*
X119025580Y-70507130D01*
X119228530Y-70547499D01*
X119228534Y-70547500D01*
X119228535Y-70547500D01*
X119435466Y-70547500D01*
X119435467Y-70547499D01*
X119638420Y-70507130D01*
X119829598Y-70427941D01*
X120001655Y-70312977D01*
X120134689Y-70179943D01*
X122668500Y-70179943D01*
X122668500Y-70338057D01*
X122706121Y-70478458D01*
X122709423Y-70490783D01*
X122709426Y-70490790D01*
X122788475Y-70627709D01*
X122788479Y-70627714D01*
X122788480Y-70627716D01*
X122900284Y-70739520D01*
X122900286Y-70739521D01*
X122900290Y-70739524D01*
X122943504Y-70764473D01*
X123037216Y-70818577D01*
X123189943Y-70859500D01*
X123189945Y-70859500D01*
X123348055Y-70859500D01*
X123348057Y-70859500D01*
X123500784Y-70818577D01*
X123637716Y-70739520D01*
X123749520Y-70627716D01*
X123828577Y-70490784D01*
X123869500Y-70338057D01*
X123869500Y-70179943D01*
X123828577Y-70027216D01*
X123813544Y-70001178D01*
X123749524Y-69890290D01*
X123749518Y-69890282D01*
X123637717Y-69778481D01*
X123637709Y-69778475D01*
X123500790Y-69699426D01*
X123500786Y-69699424D01*
X123500784Y-69699423D01*
X123348057Y-69658500D01*
X123189943Y-69658500D01*
X123037216Y-69699423D01*
X123037209Y-69699426D01*
X122900290Y-69778475D01*
X122900282Y-69778481D01*
X122788481Y-69890282D01*
X122788475Y-69890290D01*
X122709426Y-70027209D01*
X122709423Y-70027216D01*
X122668500Y-70179943D01*
X120134689Y-70179943D01*
X120147977Y-70166655D01*
X120262941Y-69994598D01*
X120342130Y-69803420D01*
X120382500Y-69600465D01*
X120382500Y-69393535D01*
X120342130Y-69190580D01*
X120262941Y-68999402D01*
X120147977Y-68827345D01*
X120147975Y-68827342D01*
X120001657Y-68681024D01*
X119846095Y-68577082D01*
X119829598Y-68566059D01*
X119827244Y-68565084D01*
X119638420Y-68486870D01*
X119638412Y-68486868D01*
X119435469Y-68446500D01*
X119435465Y-68446500D01*
X119228535Y-68446500D01*
X119228530Y-68446500D01*
X119025587Y-68486868D01*
X119025579Y-68486870D01*
X118834403Y-68566058D01*
X118662342Y-68681024D01*
X118516024Y-68827342D01*
X118401058Y-68999403D01*
X118321870Y-69190579D01*
X118321868Y-69190587D01*
X118281500Y-69393530D01*
X117842499Y-69393530D01*
X117802130Y-69190580D01*
X117722941Y-68999402D01*
X117607977Y-68827345D01*
X117607975Y-68827342D01*
X117461657Y-68681024D01*
X117306095Y-68577082D01*
X117289598Y-68566059D01*
X117287244Y-68565084D01*
X117098420Y-68486870D01*
X117098412Y-68486868D01*
X116895469Y-68446500D01*
X116895465Y-68446500D01*
X116688535Y-68446500D01*
X116688530Y-68446500D01*
X116485587Y-68486868D01*
X116485579Y-68486870D01*
X116294403Y-68566058D01*
X116122342Y-68681024D01*
X115976024Y-68827342D01*
X115861058Y-68999403D01*
X115781870Y-69190579D01*
X115781868Y-69190587D01*
X115741500Y-69393530D01*
X76261753Y-69393530D01*
X76277202Y-69315862D01*
X76277202Y-69166136D01*
X76247992Y-69019286D01*
X76190694Y-68880957D01*
X76190693Y-68880956D01*
X76190690Y-68880950D01*
X76107510Y-68756463D01*
X76107507Y-68756459D01*
X76001643Y-68650595D01*
X76001636Y-68650589D01*
X75877150Y-68567410D01*
X75877141Y-68567405D01*
X75871538Y-68565084D01*
X85388399Y-68565084D01*
X85388399Y-68723198D01*
X85424222Y-68856889D01*
X85429322Y-68875924D01*
X85429325Y-68875931D01*
X85508374Y-69012850D01*
X85508378Y-69012855D01*
X85508379Y-69012857D01*
X85620183Y-69124661D01*
X85620185Y-69124662D01*
X85620189Y-69124665D01*
X85692020Y-69166136D01*
X85757115Y-69203718D01*
X85909842Y-69244641D01*
X85909844Y-69244641D01*
X86067954Y-69244641D01*
X86067956Y-69244641D01*
X86220683Y-69203718D01*
X86357615Y-69124661D01*
X86469419Y-69012857D01*
X86548476Y-68875925D01*
X86589399Y-68723198D01*
X86589399Y-68565084D01*
X86548476Y-68412357D01*
X86548472Y-68412350D01*
X86469423Y-68275431D01*
X86469417Y-68275423D01*
X86357616Y-68163622D01*
X86357608Y-68163616D01*
X86220689Y-68084567D01*
X86220685Y-68084565D01*
X86220683Y-68084564D01*
X86067956Y-68043641D01*
X85909842Y-68043641D01*
X85757115Y-68084564D01*
X85757108Y-68084567D01*
X85620189Y-68163616D01*
X85620181Y-68163622D01*
X85508380Y-68275423D01*
X85508374Y-68275431D01*
X85429325Y-68412350D01*
X85429322Y-68412357D01*
X85388399Y-68565084D01*
X75871538Y-68565084D01*
X75738815Y-68510109D01*
X75738807Y-68510107D01*
X75591969Y-68480899D01*
X75591965Y-68480899D01*
X74146839Y-68480899D01*
X74146834Y-68480899D01*
X73999996Y-68510107D01*
X73999988Y-68510109D01*
X73861662Y-68567405D01*
X73861653Y-68567410D01*
X73737166Y-68650590D01*
X73737162Y-68650593D01*
X73631296Y-68756459D01*
X73631293Y-68756463D01*
X73548113Y-68880950D01*
X73548108Y-68880959D01*
X73490812Y-69019285D01*
X73490810Y-69019293D01*
X73461602Y-69166131D01*
X73461602Y-69315866D01*
X73490810Y-69462704D01*
X73492580Y-69468539D01*
X73489960Y-69469333D01*
X73496165Y-69527087D01*
X73464885Y-69589564D01*
X73404794Y-69625212D01*
X73334969Y-69622712D01*
X73286456Y-69592742D01*
X73210365Y-69516651D01*
X73210363Y-69516649D01*
X73127035Y-69468539D01*
X73083740Y-69443542D01*
X73013123Y-69424621D01*
X72942508Y-69405700D01*
X72796294Y-69405700D01*
X72655061Y-69443542D01*
X72528439Y-69516649D01*
X72528436Y-69516651D01*
X72425052Y-69620035D01*
X72425050Y-69620038D01*
X72351943Y-69746660D01*
X72314101Y-69887893D01*
X71060138Y-69887893D01*
X71085618Y-69870868D01*
X71120307Y-69836179D01*
X71164402Y-69792085D01*
X71198563Y-69757923D01*
X71198566Y-69757920D01*
X71287310Y-69625106D01*
X71289411Y-69620035D01*
X71348435Y-69477536D01*
X71348437Y-69477532D01*
X71379599Y-69320868D01*
X71379599Y-69161134D01*
X71348437Y-69004470D01*
X71346338Y-68999402D01*
X71287313Y-68856902D01*
X71287306Y-68856889D01*
X71198566Y-68724082D01*
X71198563Y-68724078D01*
X71085621Y-68611136D01*
X71085617Y-68611133D01*
X70952810Y-68522393D01*
X70952797Y-68522386D01*
X70805234Y-68461264D01*
X70805222Y-68461261D01*
X70648570Y-68430101D01*
X70648566Y-68430101D01*
X68990232Y-68430101D01*
X68990227Y-68430101D01*
X68833575Y-68461261D01*
X68833563Y-68461264D01*
X68686000Y-68522386D01*
X68685987Y-68522393D01*
X68553180Y-68611133D01*
X68553176Y-68611136D01*
X68440234Y-68724078D01*
X68440231Y-68724082D01*
X68351491Y-68856889D01*
X68351484Y-68856902D01*
X68290362Y-69004465D01*
X68290359Y-69004477D01*
X68259199Y-69161129D01*
X67348319Y-69161129D01*
X67348353Y-69154411D01*
X67350377Y-68756459D01*
X67358989Y-67062942D01*
X74085499Y-67062942D01*
X74085499Y-67221056D01*
X74108236Y-67305909D01*
X74126422Y-67373782D01*
X74126425Y-67373789D01*
X74205474Y-67510708D01*
X74205478Y-67510713D01*
X74205479Y-67510715D01*
X74317283Y-67622519D01*
X74317285Y-67622520D01*
X74317289Y-67622523D01*
X74454208Y-67701572D01*
X74454215Y-67701576D01*
X74606942Y-67742499D01*
X74606944Y-67742499D01*
X74765054Y-67742499D01*
X74765056Y-67742499D01*
X74917783Y-67701576D01*
X75054715Y-67622519D01*
X75166519Y-67510715D01*
X75213730Y-67428943D01*
X80911697Y-67428943D01*
X80911697Y-67587057D01*
X80949923Y-67729716D01*
X80952620Y-67739783D01*
X80952623Y-67739790D01*
X81031672Y-67876709D01*
X81031676Y-67876714D01*
X81031677Y-67876716D01*
X81143481Y-67988520D01*
X81143483Y-67988521D01*
X81143487Y-67988524D01*
X81238954Y-68043641D01*
X81280413Y-68067577D01*
X81433140Y-68108500D01*
X81433142Y-68108500D01*
X81591252Y-68108500D01*
X81591254Y-68108500D01*
X81743981Y-68067577D01*
X81880913Y-67988520D01*
X81992717Y-67876716D01*
X82071774Y-67739784D01*
X82112697Y-67587057D01*
X82112697Y-67428943D01*
X82073309Y-67281943D01*
X118261500Y-67281943D01*
X118261500Y-67440057D01*
X118300889Y-67587057D01*
X118302423Y-67592783D01*
X118302426Y-67592790D01*
X118381475Y-67729709D01*
X118381479Y-67729714D01*
X118381480Y-67729716D01*
X118493284Y-67841520D01*
X118493286Y-67841521D01*
X118493290Y-67841524D01*
X118630209Y-67920573D01*
X118630216Y-67920577D01*
X118782943Y-67961500D01*
X118782945Y-67961500D01*
X118941055Y-67961500D01*
X118941057Y-67961500D01*
X119093784Y-67920577D01*
X119230716Y-67841520D01*
X119342520Y-67729716D01*
X119421577Y-67592784D01*
X119462500Y-67440057D01*
X119462500Y-67281943D01*
X119421577Y-67129216D01*
X119362841Y-67027481D01*
X119342524Y-66992290D01*
X119342518Y-66992282D01*
X119230717Y-66880481D01*
X119230709Y-66880475D01*
X119093790Y-66801426D01*
X119093786Y-66801424D01*
X119093784Y-66801423D01*
X118941057Y-66760500D01*
X118782943Y-66760500D01*
X118630216Y-66801423D01*
X118630209Y-66801426D01*
X118493290Y-66880475D01*
X118493282Y-66880481D01*
X118381481Y-66992282D01*
X118381475Y-66992290D01*
X118302426Y-67129209D01*
X118302423Y-67129216D01*
X118261500Y-67281943D01*
X82073309Y-67281943D01*
X82071774Y-67276216D01*
X82039927Y-67221055D01*
X81992721Y-67139290D01*
X81992715Y-67139282D01*
X81880914Y-67027481D01*
X81880906Y-67027475D01*
X81743987Y-66948426D01*
X81743983Y-66948424D01*
X81743981Y-66948423D01*
X81591254Y-66907500D01*
X81433140Y-66907500D01*
X81280413Y-66948423D01*
X81280406Y-66948426D01*
X81143487Y-67027475D01*
X81143479Y-67027481D01*
X81031678Y-67139282D01*
X81031672Y-67139290D01*
X80952623Y-67276209D01*
X80952621Y-67276214D01*
X80952620Y-67276216D01*
X80911697Y-67428943D01*
X75213730Y-67428943D01*
X75245576Y-67373783D01*
X75286499Y-67221056D01*
X75286499Y-67062942D01*
X75245576Y-66910215D01*
X75229042Y-66881577D01*
X75166523Y-66773289D01*
X75166517Y-66773281D01*
X75054716Y-66661480D01*
X75054708Y-66661474D01*
X74917789Y-66582425D01*
X74917785Y-66582423D01*
X74917783Y-66582422D01*
X74765056Y-66541499D01*
X74606942Y-66541499D01*
X74454215Y-66582422D01*
X74454208Y-66582425D01*
X74317289Y-66661474D01*
X74317281Y-66661480D01*
X74205480Y-66773281D01*
X74205474Y-66773289D01*
X74126425Y-66910208D01*
X74126422Y-66910215D01*
X74085499Y-67062942D01*
X67358989Y-67062942D01*
X67363543Y-66167524D01*
X67366389Y-65607943D01*
X70979500Y-65607943D01*
X70979500Y-65766057D01*
X70999710Y-65841480D01*
X71020423Y-65918783D01*
X71020426Y-65918790D01*
X71099475Y-66055709D01*
X71099479Y-66055714D01*
X71099480Y-66055716D01*
X71211284Y-66167520D01*
X71211286Y-66167521D01*
X71211290Y-66167524D01*
X71341922Y-66242943D01*
X71348216Y-66246577D01*
X71500943Y-66287500D01*
X71500945Y-66287500D01*
X71659055Y-66287500D01*
X71659057Y-66287500D01*
X71811784Y-66246577D01*
X71818078Y-66242943D01*
X82663500Y-66242943D01*
X82663500Y-66401057D01*
X82701233Y-66541876D01*
X82704423Y-66553783D01*
X82704426Y-66553790D01*
X82783475Y-66690709D01*
X82783479Y-66690714D01*
X82783480Y-66690716D01*
X82895284Y-66802520D01*
X82895286Y-66802521D01*
X82895290Y-66802524D01*
X83030307Y-66880475D01*
X83032216Y-66881577D01*
X83184943Y-66922500D01*
X83184945Y-66922500D01*
X83343055Y-66922500D01*
X83343057Y-66922500D01*
X83495784Y-66881577D01*
X83632716Y-66802520D01*
X83744520Y-66690716D01*
X83823577Y-66553784D01*
X83864500Y-66401057D01*
X83864500Y-66242943D01*
X83823577Y-66090216D01*
X83797529Y-66045099D01*
X83744524Y-65953290D01*
X83744518Y-65953282D01*
X83632717Y-65841481D01*
X83632709Y-65841475D01*
X83495790Y-65762426D01*
X83495786Y-65762424D01*
X83495784Y-65762423D01*
X83343057Y-65721500D01*
X83184943Y-65721500D01*
X83032216Y-65762423D01*
X83032209Y-65762426D01*
X82895290Y-65841475D01*
X82895282Y-65841481D01*
X82783481Y-65953282D01*
X82783475Y-65953290D01*
X82704426Y-66090209D01*
X82704423Y-66090216D01*
X82663500Y-66242943D01*
X71818078Y-66242943D01*
X71948716Y-66167520D01*
X72060520Y-66055716D01*
X72139577Y-65918784D01*
X72180500Y-65766057D01*
X72180500Y-65607943D01*
X72139577Y-65455216D01*
X72119481Y-65420408D01*
X72060524Y-65318290D01*
X72060518Y-65318282D01*
X71948717Y-65206481D01*
X71948709Y-65206475D01*
X71811790Y-65127426D01*
X71811786Y-65127424D01*
X71811784Y-65127423D01*
X71659057Y-65086500D01*
X71500943Y-65086500D01*
X71348216Y-65127423D01*
X71348209Y-65127426D01*
X71211290Y-65206475D01*
X71211282Y-65206481D01*
X71099481Y-65318282D01*
X71099475Y-65318290D01*
X71020426Y-65455209D01*
X71020423Y-65455216D01*
X70979500Y-65607943D01*
X67366389Y-65607943D01*
X67366434Y-65599185D01*
X67372202Y-64464943D01*
X73138500Y-64464943D01*
X73138500Y-64623057D01*
X73158701Y-64698446D01*
X73179423Y-64775783D01*
X73179426Y-64775790D01*
X73258475Y-64912709D01*
X73258479Y-64912714D01*
X73258480Y-64912716D01*
X73370284Y-65024520D01*
X73370286Y-65024521D01*
X73370290Y-65024524D01*
X73433300Y-65060902D01*
X73507216Y-65103577D01*
X73659943Y-65144500D01*
X73659945Y-65144500D01*
X73818055Y-65144500D01*
X73818057Y-65144500D01*
X73970784Y-65103577D01*
X74107716Y-65024520D01*
X74219520Y-64912716D01*
X74298577Y-64775784D01*
X74313807Y-64718943D01*
X77075500Y-64718943D01*
X77075500Y-64877057D01*
X77075501Y-64877058D01*
X77116423Y-65029783D01*
X77116426Y-65029790D01*
X77195475Y-65166709D01*
X77195479Y-65166714D01*
X77195480Y-65166716D01*
X77307284Y-65278520D01*
X77307286Y-65278521D01*
X77307290Y-65278524D01*
X77376168Y-65318290D01*
X77444216Y-65357577D01*
X77596943Y-65398500D01*
X77596945Y-65398500D01*
X77755055Y-65398500D01*
X77755057Y-65398500D01*
X77907784Y-65357577D01*
X78044716Y-65278520D01*
X78156520Y-65166716D01*
X78235577Y-65029784D01*
X78259480Y-64940575D01*
X95844000Y-64940575D01*
X95844000Y-65163424D01*
X95873085Y-65384354D01*
X95873088Y-65384367D01*
X95930763Y-65599618D01*
X96016045Y-65805502D01*
X96016054Y-65805520D01*
X96127464Y-65998491D01*
X96127473Y-65998504D01*
X96178040Y-66064403D01*
X96178043Y-66064403D01*
X96979387Y-65263059D01*
X96984889Y-65283591D01*
X97063881Y-65420408D01*
X97175592Y-65532119D01*
X97312409Y-65611111D01*
X97332940Y-65616612D01*
X96531595Y-66417955D01*
X96531595Y-66417956D01*
X96597507Y-66468533D01*
X96790485Y-66579949D01*
X96790497Y-66579954D01*
X96996381Y-66665236D01*
X97211632Y-66722911D01*
X97211645Y-66722914D01*
X97432575Y-66752000D01*
X97655425Y-66752000D01*
X97876354Y-66722914D01*
X97876367Y-66722911D01*
X98091618Y-66665236D01*
X98297502Y-66579954D01*
X98297514Y-66579949D01*
X98490498Y-66468530D01*
X98556403Y-66417957D01*
X98556404Y-66417956D01*
X97755059Y-65616612D01*
X97775591Y-65611111D01*
X97912408Y-65532119D01*
X98024119Y-65420408D01*
X98103111Y-65283591D01*
X98108612Y-65263059D01*
X98909956Y-66064404D01*
X98909957Y-66064403D01*
X98960530Y-65998498D01*
X99071949Y-65805514D01*
X99071954Y-65805502D01*
X99157236Y-65599618D01*
X99214911Y-65384367D01*
X99214914Y-65384354D01*
X99244000Y-65163424D01*
X99244000Y-64940575D01*
X99214914Y-64719645D01*
X99214911Y-64719632D01*
X99157236Y-64504381D01*
X99071954Y-64298497D01*
X99071949Y-64298485D01*
X98967282Y-64117195D01*
X98967281Y-64117193D01*
X98960535Y-64105509D01*
X98924770Y-64058900D01*
X99543500Y-64058900D01*
X99543500Y-66045091D01*
X99554123Y-66133562D01*
X99609639Y-66274342D01*
X99609640Y-66274344D01*
X99701077Y-66394922D01*
X99798144Y-66468530D01*
X99821658Y-66486361D01*
X99962436Y-66541876D01*
X100050901Y-66552500D01*
X102037098Y-66552499D01*
X102125564Y-66541876D01*
X102266342Y-66486361D01*
X102386922Y-66394922D01*
X102478361Y-66274342D01*
X102533876Y-66133564D01*
X102544500Y-66045099D01*
X102544499Y-64933902D01*
X105441500Y-64933902D01*
X105441500Y-65170097D01*
X105478446Y-65403368D01*
X105551433Y-65627996D01*
X105641878Y-65805502D01*
X105658657Y-65838433D01*
X105797483Y-66029510D01*
X105964490Y-66196517D01*
X106155567Y-66335343D01*
X106254991Y-66386002D01*
X106366003Y-66442566D01*
X106366005Y-66442566D01*
X106366008Y-66442568D01*
X106445911Y-66468530D01*
X106590631Y-66515553D01*
X106823903Y-66552500D01*
X106823908Y-66552500D01*
X107060097Y-66552500D01*
X107293368Y-66515553D01*
X107383211Y-66486361D01*
X107517992Y-66442568D01*
X107728433Y-66335343D01*
X107919510Y-66196517D01*
X108086517Y-66029510D01*
X108225343Y-65838433D01*
X108332568Y-65627992D01*
X108405553Y-65403368D01*
X108406324Y-65398499D01*
X108442500Y-65170097D01*
X108442500Y-64933902D01*
X108405553Y-64700631D01*
X108332566Y-64476003D01*
X108249108Y-64312209D01*
X108225343Y-64265567D01*
X108086517Y-64074490D01*
X108070927Y-64058900D01*
X108941500Y-64058900D01*
X108941500Y-66045091D01*
X108952123Y-66133562D01*
X109007639Y-66274342D01*
X109007640Y-66274344D01*
X109099077Y-66394922D01*
X109196144Y-66468530D01*
X109219658Y-66486361D01*
X109360436Y-66541876D01*
X109448901Y-66552500D01*
X111435098Y-66552499D01*
X111523564Y-66541876D01*
X111664342Y-66486361D01*
X111784922Y-66394922D01*
X111876361Y-66274342D01*
X111931876Y-66133564D01*
X111942500Y-66045099D01*
X111942499Y-65060902D01*
X122967500Y-65060902D01*
X122967500Y-65297097D01*
X123004446Y-65530368D01*
X123077433Y-65754996D01*
X123160888Y-65918784D01*
X123184657Y-65965433D01*
X123323483Y-66156510D01*
X123490490Y-66323517D01*
X123681567Y-66462343D01*
X123780991Y-66513002D01*
X123892003Y-66569566D01*
X123892005Y-66569566D01*
X123892008Y-66569568D01*
X123931578Y-66582425D01*
X124116631Y-66642553D01*
X124349903Y-66679500D01*
X124349908Y-66679500D01*
X124586097Y-66679500D01*
X124819368Y-66642553D01*
X124909211Y-66613361D01*
X125043992Y-66569568D01*
X125254433Y-66462343D01*
X125445510Y-66323517D01*
X125612517Y-66156510D01*
X125751343Y-65965433D01*
X125858568Y-65754992D01*
X125931553Y-65530368D01*
X125952439Y-65398499D01*
X125968500Y-65297097D01*
X125968500Y-65060902D01*
X125931553Y-64827631D01*
X125865082Y-64623056D01*
X125858568Y-64603008D01*
X125858566Y-64603005D01*
X125858566Y-64603003D01*
X125783758Y-64456185D01*
X125751343Y-64392567D01*
X125612517Y-64201490D01*
X125596927Y-64185900D01*
X126467500Y-64185900D01*
X126467500Y-66172091D01*
X126478123Y-66260562D01*
X126533639Y-66401342D01*
X126533640Y-66401344D01*
X126625077Y-66521922D01*
X126745655Y-66613359D01*
X126745658Y-66613361D01*
X126886436Y-66668876D01*
X126974901Y-66679500D01*
X128961098Y-66679499D01*
X129049564Y-66668876D01*
X129190342Y-66613361D01*
X129310922Y-66521922D01*
X129402361Y-66401342D01*
X129457876Y-66260564D01*
X129468500Y-66172099D01*
X129468499Y-64185902D01*
X129457876Y-64097436D01*
X129402361Y-63956658D01*
X129365072Y-63907485D01*
X129310922Y-63836077D01*
X129190344Y-63744640D01*
X129190342Y-63744639D01*
X129049564Y-63689124D01*
X129049561Y-63689123D01*
X128961099Y-63678500D01*
X126974908Y-63678500D01*
X126886437Y-63689123D01*
X126745657Y-63744639D01*
X126745655Y-63744640D01*
X126625077Y-63836077D01*
X126533640Y-63956655D01*
X126533639Y-63956658D01*
X126487174Y-64074488D01*
X126478124Y-64097437D01*
X126478123Y-64097438D01*
X126467500Y-64185900D01*
X125596927Y-64185900D01*
X125445510Y-64034483D01*
X125254433Y-63895657D01*
X125189783Y-63862716D01*
X125043996Y-63788433D01*
X124819368Y-63715446D01*
X124586097Y-63678500D01*
X124586092Y-63678500D01*
X124349908Y-63678500D01*
X124349903Y-63678500D01*
X124116631Y-63715446D01*
X123892003Y-63788433D01*
X123681566Y-63895657D01*
X123578643Y-63970436D01*
X123490490Y-64034483D01*
X123490488Y-64034485D01*
X123490487Y-64034485D01*
X123323485Y-64201487D01*
X123323485Y-64201488D01*
X123323483Y-64201490D01*
X123284547Y-64255081D01*
X123184657Y-64392566D01*
X123077433Y-64603003D01*
X123004446Y-64827631D01*
X122967500Y-65060902D01*
X111942499Y-65060902D01*
X111942499Y-65052000D01*
X111942499Y-64058908D01*
X111942499Y-64058902D01*
X111937280Y-64015443D01*
X120282000Y-64015443D01*
X120282000Y-64173557D01*
X120320565Y-64317481D01*
X120322923Y-64326283D01*
X120322926Y-64326290D01*
X120401975Y-64463209D01*
X120401979Y-64463214D01*
X120401980Y-64463216D01*
X120513784Y-64575020D01*
X120513786Y-64575021D01*
X120513790Y-64575024D01*
X120596987Y-64623057D01*
X120650716Y-64654077D01*
X120803443Y-64695000D01*
X120803445Y-64695000D01*
X120961555Y-64695000D01*
X120961557Y-64695000D01*
X121114284Y-64654077D01*
X121251216Y-64575020D01*
X121363020Y-64463216D01*
X121442077Y-64326284D01*
X121483000Y-64173557D01*
X121483000Y-64015443D01*
X121442077Y-63862716D01*
X121422991Y-63829657D01*
X121363024Y-63725790D01*
X121363018Y-63725782D01*
X121251217Y-63613981D01*
X121251209Y-63613975D01*
X121114290Y-63534926D01*
X121114286Y-63534924D01*
X121114284Y-63534923D01*
X120961557Y-63494000D01*
X120803443Y-63494000D01*
X120650716Y-63534923D01*
X120650709Y-63534926D01*
X120513790Y-63613975D01*
X120513782Y-63613981D01*
X120401981Y-63725782D01*
X120401975Y-63725790D01*
X120322926Y-63862709D01*
X120322923Y-63862716D01*
X120282000Y-64015443D01*
X111937280Y-64015443D01*
X111931876Y-63970436D01*
X111876361Y-63829658D01*
X111845099Y-63788433D01*
X111784922Y-63709077D01*
X111664344Y-63617640D01*
X111664342Y-63617639D01*
X111523564Y-63562124D01*
X111523561Y-63562123D01*
X111435099Y-63551500D01*
X109448908Y-63551500D01*
X109360437Y-63562123D01*
X109219657Y-63617639D01*
X109219655Y-63617640D01*
X109099077Y-63709077D01*
X109007640Y-63829655D01*
X108994603Y-63862716D01*
X108957558Y-63956658D01*
X108952124Y-63970437D01*
X108952123Y-63970438D01*
X108941500Y-64058900D01*
X108070927Y-64058900D01*
X107919510Y-63907483D01*
X107728433Y-63768657D01*
X107681295Y-63744639D01*
X107517996Y-63661433D01*
X107293368Y-63588446D01*
X107060097Y-63551500D01*
X107060092Y-63551500D01*
X106823908Y-63551500D01*
X106823903Y-63551500D01*
X106590631Y-63588446D01*
X106366003Y-63661433D01*
X106155566Y-63768657D01*
X106062770Y-63836078D01*
X105964490Y-63907483D01*
X105964488Y-63907485D01*
X105964487Y-63907485D01*
X105797485Y-64074487D01*
X105797485Y-64074488D01*
X105797483Y-64074490D01*
X105766456Y-64117195D01*
X105658657Y-64265566D01*
X105551433Y-64476003D01*
X105478446Y-64700631D01*
X105441500Y-64933902D01*
X102544499Y-64933902D01*
X102544499Y-64058902D01*
X102533876Y-63970436D01*
X102478361Y-63829658D01*
X102447099Y-63788433D01*
X102386922Y-63709077D01*
X102266344Y-63617640D01*
X102266342Y-63617639D01*
X102125564Y-63562124D01*
X102125561Y-63562123D01*
X102037099Y-63551500D01*
X100050908Y-63551500D01*
X99962437Y-63562123D01*
X99821657Y-63617639D01*
X99821655Y-63617640D01*
X99701077Y-63709077D01*
X99609640Y-63829655D01*
X99596603Y-63862716D01*
X99559558Y-63956658D01*
X99554124Y-63970437D01*
X99554123Y-63970438D01*
X99543500Y-64058900D01*
X98924770Y-64058900D01*
X98909956Y-64039595D01*
X98909955Y-64039595D01*
X98108612Y-64840939D01*
X98103111Y-64820409D01*
X98024119Y-64683592D01*
X97912408Y-64571881D01*
X97775591Y-64492889D01*
X97755058Y-64487387D01*
X98556403Y-63686043D01*
X98556403Y-63686040D01*
X98490504Y-63635473D01*
X98490491Y-63635464D01*
X98297520Y-63524054D01*
X98297502Y-63524045D01*
X98091618Y-63438763D01*
X97876367Y-63381088D01*
X97876354Y-63381085D01*
X97655425Y-63352000D01*
X97432575Y-63352000D01*
X97211645Y-63381085D01*
X97211632Y-63381088D01*
X96996381Y-63438763D01*
X96790497Y-63524045D01*
X96790479Y-63524054D01*
X96597511Y-63635462D01*
X96531595Y-63686042D01*
X97332941Y-64487387D01*
X97312409Y-64492889D01*
X97175592Y-64571881D01*
X97063881Y-64683592D01*
X96984889Y-64820409D01*
X96979387Y-64840940D01*
X96178042Y-64039595D01*
X96127462Y-64105511D01*
X96016054Y-64298479D01*
X96016045Y-64298497D01*
X95930763Y-64504381D01*
X95873088Y-64719632D01*
X95873085Y-64719645D01*
X95844000Y-64940575D01*
X78259480Y-64940575D01*
X78276500Y-64877057D01*
X78276500Y-64718943D01*
X78235577Y-64566216D01*
X78176111Y-64463217D01*
X78156524Y-64429290D01*
X78156518Y-64429282D01*
X78044717Y-64317481D01*
X78044709Y-64317475D01*
X77907790Y-64238426D01*
X77907786Y-64238424D01*
X77907784Y-64238423D01*
X77755057Y-64197500D01*
X77596943Y-64197500D01*
X77444216Y-64238423D01*
X77444209Y-64238426D01*
X77307290Y-64317475D01*
X77307282Y-64317481D01*
X77195481Y-64429282D01*
X77195475Y-64429290D01*
X77116426Y-64566209D01*
X77116423Y-64566216D01*
X77075500Y-64718943D01*
X74313807Y-64718943D01*
X74339500Y-64623057D01*
X74339500Y-64464943D01*
X74298577Y-64312216D01*
X74290656Y-64298497D01*
X74219524Y-64175290D01*
X74219518Y-64175282D01*
X74107717Y-64063481D01*
X74107709Y-64063475D01*
X73970790Y-63984426D01*
X73970786Y-63984424D01*
X73970784Y-63984423D01*
X73818057Y-63943500D01*
X73659943Y-63943500D01*
X73507216Y-63984423D01*
X73507209Y-63984426D01*
X73370290Y-64063475D01*
X73370282Y-64063481D01*
X73258481Y-64175282D01*
X73258475Y-64175290D01*
X73179426Y-64312209D01*
X73179423Y-64312216D01*
X73138500Y-64464943D01*
X67372202Y-64464943D01*
X67372247Y-64456185D01*
X67378101Y-63305104D01*
X87878400Y-63305104D01*
X87878400Y-63496895D01*
X87915813Y-63684981D01*
X87915815Y-63684989D01*
X87989207Y-63862175D01*
X88095751Y-64021629D01*
X88095757Y-64021637D01*
X88231362Y-64157242D01*
X88231370Y-64157248D01*
X88390825Y-64263792D01*
X88390824Y-64263792D01*
X88442720Y-64285288D01*
X88568011Y-64337185D01*
X88756104Y-64374599D01*
X88756107Y-64374600D01*
X88756109Y-64374600D01*
X88947893Y-64374600D01*
X88947894Y-64374599D01*
X89135989Y-64337185D01*
X89313173Y-64263793D01*
X89313173Y-64263792D01*
X89313175Y-64263792D01*
X89412388Y-64197500D01*
X89472634Y-64157245D01*
X89608245Y-64021634D01*
X89692420Y-63895657D01*
X89714792Y-63862175D01*
X89728261Y-63829658D01*
X89788185Y-63684989D01*
X89825600Y-63496891D01*
X89825600Y-63305109D01*
X89825600Y-63305106D01*
X89825599Y-63305104D01*
X90878400Y-63305104D01*
X90878400Y-63496895D01*
X90915813Y-63684981D01*
X90915815Y-63684989D01*
X90989207Y-63862175D01*
X91095751Y-64021629D01*
X91095757Y-64021637D01*
X91231362Y-64157242D01*
X91231370Y-64157248D01*
X91390825Y-64263792D01*
X91390824Y-64263792D01*
X91442720Y-64285288D01*
X91568011Y-64337185D01*
X91756104Y-64374599D01*
X91756107Y-64374600D01*
X91756109Y-64374600D01*
X91947893Y-64374600D01*
X91947894Y-64374599D01*
X92135989Y-64337185D01*
X92313173Y-64263793D01*
X92313173Y-64263792D01*
X92313175Y-64263792D01*
X92412388Y-64197500D01*
X92472634Y-64157245D01*
X92608245Y-64021634D01*
X92714793Y-63862173D01*
X92778207Y-63709078D01*
X92787542Y-63686542D01*
X92787749Y-63686042D01*
X92788185Y-63684989D01*
X92825600Y-63496891D01*
X92825600Y-63305109D01*
X92825600Y-63305106D01*
X92825599Y-63305104D01*
X92788186Y-63117018D01*
X92788185Y-63117011D01*
X92714793Y-62939827D01*
X92714792Y-62939824D01*
X92608248Y-62780370D01*
X92608242Y-62780362D01*
X92472637Y-62644757D01*
X92472629Y-62644751D01*
X92313174Y-62538207D01*
X92313175Y-62538207D01*
X92135989Y-62464815D01*
X92135981Y-62464813D01*
X91947894Y-62427400D01*
X91947891Y-62427400D01*
X91756109Y-62427400D01*
X91756106Y-62427400D01*
X91568018Y-62464813D01*
X91568010Y-62464815D01*
X91390824Y-62538207D01*
X91231370Y-62644751D01*
X91231362Y-62644757D01*
X91095757Y-62780362D01*
X91095751Y-62780370D01*
X90989207Y-62939824D01*
X90915815Y-63117010D01*
X90915813Y-63117018D01*
X90878400Y-63305104D01*
X89825599Y-63305104D01*
X89788186Y-63117018D01*
X89788185Y-63117011D01*
X89714793Y-62939827D01*
X89714792Y-62939824D01*
X89608248Y-62780370D01*
X89608242Y-62780362D01*
X89472637Y-62644757D01*
X89472629Y-62644751D01*
X89313174Y-62538207D01*
X89313175Y-62538207D01*
X89135989Y-62464815D01*
X89135981Y-62464813D01*
X88947894Y-62427400D01*
X88947891Y-62427400D01*
X88756109Y-62427400D01*
X88756106Y-62427400D01*
X88568018Y-62464813D01*
X88568010Y-62464815D01*
X88390824Y-62538207D01*
X88231370Y-62644751D01*
X88231362Y-62644757D01*
X88095757Y-62780362D01*
X88095751Y-62780370D01*
X87989207Y-62939824D01*
X87915815Y-63117010D01*
X87915813Y-63117018D01*
X87878400Y-63305104D01*
X67378101Y-63305104D01*
X67378135Y-63298386D01*
X67379057Y-63117010D01*
X67388379Y-61283993D01*
X67408404Y-61217057D01*
X67461440Y-61171571D01*
X67510986Y-61160634D01*
X81179157Y-61007651D01*
X81246410Y-61026583D01*
X81292753Y-61078871D01*
X81303470Y-61147914D01*
X81300317Y-61163735D01*
X81266500Y-61289943D01*
X81266500Y-61448056D01*
X81307423Y-61600783D01*
X81307426Y-61600790D01*
X81386475Y-61737709D01*
X81386479Y-61737714D01*
X81386480Y-61737716D01*
X81498284Y-61849520D01*
X81498286Y-61849521D01*
X81498290Y-61849524D01*
X81635209Y-61928573D01*
X81635216Y-61928577D01*
X81787943Y-61969500D01*
X81787945Y-61969500D01*
X81946055Y-61969500D01*
X81946057Y-61969500D01*
X82098784Y-61928577D01*
X82235716Y-61849520D01*
X82347520Y-61737716D01*
X82426577Y-61600784D01*
X82467500Y-61448057D01*
X82467500Y-61289943D01*
X82429577Y-61148412D01*
X82431240Y-61078566D01*
X82470402Y-61020703D01*
X82534631Y-60993199D01*
X82547955Y-60992330D01*
X92002573Y-60886507D01*
X92003960Y-60886500D01*
X130612500Y-60886500D01*
X130679539Y-60906185D01*
G37*
%TD.AperFunction*%
%TD*%
M02*
